**ABCDEFGHIJKLMNOPQRSTUVWXYZabcdefghijklmnopqrstuvwxyz**************************
**PARASOLID !"#$%&'()*+,-./:;<=>?@[\]^_`{|}~0123456789**************************
**PART1;
MC=AMD64;
MC_MODEL=Intel64 Family 6 Model 58 Stepping 9, GenuineIntel;
MC_ID=unknown;
OS=Windows_NT;
OS_RELEASE=unknown;
FRU=Parasolid Version 28.0, build 204, 11- 9-2015;
APPL=SOLIDWORKS 2016-2016040;
SITE=;
USER=unknown;
FORMAT=text;
GUISE=transmit;
KEY=310-019836-REV-A;
FILE=310-019836-REV-A.x_t;
DATE=Wed Oct 05 17:32:13 2016;
**PART2;
SCH=SCH_2800204_28002;
USFLD_SIZE=0;
**PART3;
**END_OF_HEADER*****************************************************************
T51 : TRANSMIT FILE created by modeller version 280020423 SCH_2800204_28002_1300
6200 0 12 30 CCCCCCCCCCCCCDI5 owner1040 0 CCCCCCCCCA13 boundary_mesh1006 0 A16 i
ndex_map_offset0 0 1 dA9 index_map82 0 A17 node_id_index_map82 0 A20 schema_embe
dding_map82 0 A5 child12 0 A14 lowest_node_id0 0 1 dZ1 933 2 3 0 0 0 0 1e3 1e-8
 0 4 0 1 0 1 1 5 6 7 8 9 10 11 0 0 0 0 0 0 0 81 255 2 2 659 12 1 0 0 0 0 13 0 70
 11 CI9 list_type0 0 1 uI10 notransmit0 0 1 lCCCDCCDI12 finger_index0 0 1 dI12 f
inger_block1012 0 CZ3 0 4 T1 0 0 3 20 1 14 14 13 255 5 94 0 1 0 15 0 0 16 0 51 2
55 6 622 0 17 18 0 0 +-.009 .00896591837090044 .0906319545368203 0 -1 0 .002 0 0
 -1 30 255 7 529 0 10 19 0 0 --.011 .00896591837090044 .1166319545368202 0 -1 0
 29 255 8 491 0 11 20 0 .009 .00896591837090044 .1186319545368202 19 8 CCCCCCCA5
 owner12 0 Z9 28 0 1 16 0 21 V0 16 255 10 527 0 ?22 0 23 7 0 0 1 18 255 11 489 0
 24 0 25 8 ?1 17 255 24 0 26 27 28 11 29 30 0 31 +18 25 486 0 32 11 33 20 ?1 17
 32 0 34 31 35 25 36 37 0 27 +18 33 483 0 22 25 38 39 ?1 29 20 488 0 25 39 8 -.0
09 .00896591837090044 .1186319545368202 29 39 485 0 33 40 20 -.011 .008965918370
90044 .1166319545368202 29 40 482 0 38 41 39 -.011 .00896591837090044 .090631954
5368203 18 38 480 0 42 33 43 40 ?1 29 41 469 0 43 44 40 .011 .00896591837090044
 .0906319545368203 18 43 467 0 45 38 46 41 ?1 29 44 466 0 46 47 41 .011 .0089659
1837090044 .1166319545368202 18 46 464 0 48 43 49 44 ?1 29 47 443 0 49 50 44 -.0
11 .00579091837090044 .1166319545368202 18 49 441 0 51 46 52 47 ?1 29 50 440 0 5
2 53 47 -.011 .00579091837090044 .0906319545368203 18 52 438 0 54 49 55 50 ?1 29
 53 437 0 55 56 50 .009 .00579091837090044 .1186319545368202 18 55 435 0 57 52 5
8 53 ?1 29 56 434 0 58 59 53 -.009 .00579091837090044 .1186319545368202 18 58 43
2 0 60 55 61 56 ?1 29 59 431 0 61 62 56 .011 .00579091837090044 .090631954536820
3 18 61 429 0 63 58 64 59 ?1 29 62 428 0 64 65 59 .011 .00579091837090044 .11663
19545368202 18 64 426 0 66 61 67 62 ?1 29 65 415 0 67 68 62 -.009 .0089659183709
0044 .0886319545368203 18 67 413 0 69 64 70 65 ?1 29 68 412 0 70 71 65 .009 .008
96591837090044 .0886319545368203 18 70 410 0 72 67 73 68 ?1 29 71 409 0 73 74 68
 -.009 .00579091837090044 .0886319545368203 18 73 407 0 75 70 76 71 ?1 29 74 406
 0 76 0 71 .009 .00579091837090044 .0886319545368203 18 76 404 0 77 73 0 74 ?1 1
7 77 0 78 79 80 76 63 81 0 82 -15 255 78 548 0 83 84 0 17 79 0 78 83 77 70 82 85
 0 0 -17 80 0 78 77 83 61 45 86 0 0 -17 63 0 87 88 89 61 77 81 0 90 +16 81 459 0
 ?63 91 92 93 0 0 1 17 82 0 94 95 96 76 79 85 0 89 +15 94 82 0 96 97 0 17 95 0 9
4 69 82 73 89 98 0 99 +17 96 0 94 82 69 70 100 101 0 79 -16 85 421 0 ?82 102 103
 104 0 0 1 17 89 0 87 63 75 76 95 98 0 0 -15 87 44 0 89 105 0 17 75 0 87 89 106
 73 54 102 0 95 +16 98 405 0 ?95 107 108 109 0 0 1 16 107 439 0 ?110 111 98 112
 0 0 1 16 108 427 0 ?90 98 113 114 0 0 1 30 109 68 0 98 114 112 0 +.011 .0057909
1837090044 .0886319545368203 -1 0 0 30 114 69 0 108 115 109 0 +.011 .00579091837
090044 .0886319545368203 0 0 -1 30 112 67 0 107 109 116 0 +-.011 .00579091837090
044 .0886319545368203 0 0 1 30 116 66 0 111 112 117 0 +.011 .00579091837090044 .
1186319545368202 1 0 0 16 111 433 0 ?28 118 107 116 0 0 1 31 255 117 159 0 113 1
16 119 0 +0 .00579091837090044 .1111319545368202 0 -1 0 0 0 -1 .0012 16 113 166
 0 ?120 108 121 117 0 0 1 31 119 213 0 122 117 123 0 +0 .00579091837090044 .0961
319545368203 0 -1 0 0 0 -1 .0012 16 122 228 0 ?124 125 126 119 0 0 1 31 123 300
 0 127 119 128 0 +0 .00579091837090044 .1003319545368202 0 -1 0 0 0 -1 6e-4 16 1
27 313 0 ?129 130 131 123 0 0 1 31 128 344 0 132 123 133 0 +0 .00579091837090044
 .1069319545368202 0 -1 0 0 0 -1 6e-4 16 132 357 0 ?134 131 135 128 0 0 1 30 133
 418 0 103 128 104 0 --.009 .00896591837090044 .0886319545368203 0 -1 0 16 103 4
16 0 ?69 85 136 133 0 0 1 30 104 423 0 85 133 137 0 +.009 .00896591837090044 .08
86319545368203 0 -1 0 31 137 446 0 102 104 138 0 +-.009 .00579091837090044 .0906
319545368203 0 -1 0 0 0 -1 .002 16 102 444 0 ?75 139 85 137 0 0 1 31 138 451 0 1
39 137 140 0 +-.009 .00579091837090044 .1166319545368202 0 -1 0 0 0 -1 .002 16 1
39 449 0 ?51 92 102 138 0 0 1 31 140 456 0 92 138 93 0 +.009 .00579091837090044
 .1166319545368202 0 -1 0 0 0 -1 .002 16 92 454 0 ?57 81 139 140 0 0 1 31 93 461
 0 81 140 141 0 +.009 .00579091837090044 .0906319545368203 0 -1 0 0 0 -1 .002 30
 141 472 0 91 93 142 0 +.011 .00896591837090044 .1166319545368202 0 -1 0 16 91 4
70 0 ?143 86 81 141 0 0 1 30 142 477 0 86 141 144 0 -.011 .00896591837090044 .09
06319545368203 0 -1 0 16 86 475 0 ?45 145 91 142 0 0 1 31 144 494 0 145 142 146
 0 --.009 .00896591837090044 .0906319545368203 0 -1 0 0 0 -1 .002 16 145 492 0 ?
42 37 86 144 0 0 1 31 146 499 0 37 144 147 0 --.009 .00896591837090044 .11663195
45368202 0 -1 0 0 0 -1 .002 16 37 497 0 ?32 148 145 146 0 0 1 31 147 504 0 148 1
46 149 0 -.009 .00896591837090044 .1166319545368202 0 -1 0 0 0 -1 .002 16 148 50
2 0 ?48 150 37 147 0 0 1 31 149 509 0 150 147 151 0 -.009 .00896591837090044 .09
06319545368203 0 -1 0 0 0 -1 .002 16 150 507 0 ?72 152 148 149 0 0 1 30 151 514
 0 152 149 153 0 +-.009 .00896591837090044 .1186319545368202 0 -1 0 16 152 512 0
 ?154 30 150 151 0 0 1 30 153 519 0 30 151 19 0 -.009 .00896591837090044 .118631
9545368202 0 -1 0 16 30 517 0 ?24 23 152 153 0 0 1 30 19 524 0 23 153 7 0 +-.011
 .00896591837090044 .0906319545368203 0 -1 0 16 23 522 0 ?155 10 30 19 0 0 1 17
 155 0 156 110 157 52 158 23 0 106 +15 156 80 0 110 159 0 17 110 0 156 22 155 49
 106 107 0 160 +17 157 0 156 155 22 38 35 161 0 158 -17 158 0 162 163 54 38 155
 23 0 0 -17 106 0 87 75 51 52 110 107 0 0 -17 51 0 87 106 164 49 60 139 0 110 +1
7 164 0 87 51 57 58 28 111 0 0 -17 60 0 165 166 160 58 51 139 0 154 -15 165 590
 0 36 167 0 17 166 0 165 36 60 25 154 152 0 0 -17 160 0 165 60 36 49 22 10 0 0 -
17 154 0 26 28 27 58 166 152 0 164 +15 26 78 0 28 168 0 17 28 0 26 24 154 55 164
 111 0 29 +17 27 0 26 154 24 25 31 136 0 166 -17 31 0 34 48 32 11 27 136 0 169 +
16 136 487 0 ?31 103 161 115 0 0 1 16 161 481 0 ?35 136 101 170 0 0 1 30 115 14
 0 136 170 114 0 +.011 .00896591837090044 .1186319545368202 1 0 0 30 170 11 0 16
1 171 115 0 +-.011 .00896591837090044 .0886319545368203 0 0 1 30 171 8 0 101 172
 170 0 +.011 .00896591837090044 .0886319545368203 -1 0 0 16 101 411 0 ?100 161 1
18 171 0 0 1 30 172 5 0 118 173 171 0 +.011 .00896591837090044 .0886319545368203
 0 0 -1 16 118 465 0 ?174 101 111 172 0 0 1 31 173 206 0 121 175 172 0 +0 .00746
591837090044 .1111319545368202 0 1 0 0 0 1 .0012 16 121 168 0 ?176 113 177 173 0
 0 1 31 175 207 0 177 178 173 0 +0 .00746591837090044 .1111319545368202 0 1 0 0
 0 1 .0022 16 177 169 0 ?179 121 125 175 0 0 1 31 178 208 0 125 180 175 0 +0 .00
896591837090044 .1111319545368202 0 1 0 0 0 1 .0022 16 125 167 0 ?181 177 122 17
8 0 0 1 31 180 268 0 126 182 178 0 +0 .00746591837090044 .0961319545368203 0 1 0
 0 0 1 .0012 16 126 230 0 ?183 122 184 180 0 0 1 31 182 269 0 184 185 180 0 +0 .
00746591837090044 .0961319545368203 0 1 0 0 0 1 .0022 16 184 231 0 ?186 126 130
 182 0 0 1 31 185 270 0 130 187 182 0 +0 .00896591837090044 .0961319545368203 0
 1 0 0 0 1 .0022 16 130 229 0 ?188 184 127 185 0 0 1 31 187 338 0 131 189 185 0
 +0 .00896591837090044 .1003319545368202 0 1 0 0 0 1 6e-4 16 131 314 0 ?190 127
 132 187 0 0 1 31 189 382 0 135 0 187 0 +0 .00896591837090044 .1069319545368202
 0 1 0 0 0 1 6e-4 16 135 358 0 ?191 132 0 189 0 0 1 17 191 0 192 191 191 0 193 1
35 0 0 +15 192 370 0 191 194 0 17 193 0 195 193 193 0 191 135 0 0 -15 195 348 0
 193 196 197 14 255 196 1 198 ?105 168 195 5 199 -0 0 105 168 21 15 197 304 0 20
0 196 201 17 200 0 197 200 200 0 190 131 0 0 -15 201 219 0 202 196 203 17 202 0
 201 202 202 0 188 130 0 0 -15 203 149 0 204 196 34 17 204 0 203 204 204 0 181 1
25 0 0 -15 34 3 0 174 196 0 17 174 0 34 72 48 43 205 118 0 83 +17 72 0 34 100 17
4 70 83 150 0 96 +17 48 0 34 174 31 46 169 148 0 205 +17 205 0 206 143 45 46 174
 118 0 207 -17 83 0 78 80 79 43 72 150 0 0 -15 206 84 0 90 15 0 17 143 0 206 90
 205 64 207 91 0 88 +17 45 0 206 205 90 43 80 86 0 174 +17 207 0 208 169 66 46 1
43 91 0 0 -15 208 569 0 169 209 0 17 169 0 208 29 207 11 48 148 0 0 -17 66 0 208
 207 29 64 57 92 0 143 -17 29 0 208 66 169 55 24 30 0 0 -17 57 0 87 164 88 55 66
 92 0 28 +17 88 0 87 57 63 64 90 108 0 0 -17 90 0 206 45 143 61 88 108 0 80 +14
 209 568 210 ?167 84 208 5 211 +0 0 167 84 21 81 1 210 917 212 209 213 0 198 214
 215 14 167 589 214 ?17 209 165 5 18 +0 0 17 209 21 14 84 547 216 ?209 194 78 5
 217 +0 0 209 194 21 51 211 580 0 209 217 18 0 +.009 .00896591837090044 .1166319
545368202 0 -1 0 .002 0 0 -1 13 21 29 0 0 0 0 0 0 9 15 14 15 85 218 ?97 0 206 5
 219 -0 0 97 0 21 81 1 218 920 212 15 220 0 216 221 222 14 97 83 221 ?159 15 94
 5 223 -0 0 159 15 21 50 255 219 89 0 15 223 217 0 +.011 .00896591837090044 .088
6319545368203 -1 0 0 0 0 1 50 223 88 0 97 224 219 0 +.011 .00896591837090044 .08
86319545368203 0 0 1 1 0 0 51 217 559 0 84 219 211 0 +.009 .00896591837090044 .0
906319545368203 0 -1 0 .002 0 0 -1 50 224 87 0 159 225 223 0 +-.011 .00896591837
090044 .0886319545368203 1 0 0 0 0 -1 14 159 81 226 ?168 97 156 5 224 -0 0 168 9
7 21 50 225 86 0 168 227 224 0 +.011 .00896591837090044 .1186319545368202 0 0 -1
 -1 0 0 14 168 79 228 ?196 159 26 5 225 -0 0 196 159 21 50 227 65 0 105 199 225
 0 +0 .00579091837090044 0 0 -1 0 0 0 -1 14 105 43 229 ?230 196 231 5 227 +0 0 2
30 196 21 50 199 2 0 196 232 227 0 +0 .00896591837090044 0 0 -1 0 0 0 -1 51 232
 202 0 230 233 199 0 +0 .00896591837090044 .1111319545368202 0 1 0 .0012 0 0 1 1
4 230 183 234 ?235 105 236 5 232 -0 0 235 105 21 50 233 203 0 235 237 232 0 +.00
12 .00746591837090044 .1111319545368202 0 -1 0 0 0 -1 14 235 188 238 ?239 230 24
0 5 233 -0 0 239 230 21 51 237 204 0 239 241 233 0 +0 .00896591837090044 .111131
9545368202 0 1 0 .0022 0 0 1 14 239 193 242 ?243 235 244 5 237 -0 0 243 235 21 5
1 241 264 0 243 245 237 0 +0 .00896591837090044 .0961319545368203 0 1 0 .0012 0
 0 1 14 243 245 246 ?247 239 248 5 241 -0 0 247 239 21 50 245 265 0 247 249 241
 0 +.0012 .00746591837090044 .0961319545368203 0 -1 0 0 0 -1 14 247 250 250 ?251
 243 252 5 245 -0 0 251 243 21 51 249 266 0 251 253 245 0 +0 .00896591837090044
 .0961319545368203 0 1 0 .0022 0 0 1 14 251 255 254 ?255 247 256 5 249 -0 0 255
 247 21 51 253 335 0 255 257 249 0 +0 -.0437843673379431 .1003319545368202 0 1 0
 6e-4 0 0 1 14 255 322 258 ?194 251 259 5 253 -0 0 194 251 21 51 257 379 0 194 0
 253 0 +0 -.0437843673379431 .1069319545368202 0 1 0 6e-4 0 0 1 14 194 366 260 ?
84 255 261 5 257 -0 0 84 255 21 81 1 260 932 212 194 262 0 258 263 264 15 261 36
9 0 134 194 192 17 134 0 261 134 134 0 265 132 0 0 +17 265 0 231 265 265 0 134 1
32 0 0 -15 231 343 0 265 105 266 15 266 299 0 267 105 268 17 267 0 266 267 267 0
 129 127 0 0 -15 268 212 0 269 105 270 17 269 0 268 269 269 0 124 122 0 0 -15 27
0 158 0 271 105 87 17 271 0 270 271 271 0 120 113 0 0 -17 120 0 236 120 120 0 27
1 113 0 0 +15 236 186 0 120 230 272 15 272 187 0 176 230 0 17 176 0 272 176 176
 0 273 121 0 0 +17 273 0 240 273 273 0 176 121 0 0 -15 240 191 0 273 235 274 15
 274 192 0 179 235 0 17 179 0 274 179 179 0 275 177 0 0 +17 275 0 244 275 275 0
 179 177 0 0 -15 244 196 0 275 239 276 15 276 197 0 181 239 0 17 181 0 276 181 1
81 0 204 125 0 0 +17 124 0 248 124 124 0 269 122 0 0 +15 248 248 0 124 243 277 1
5 277 249 0 183 243 0 17 183 0 277 183 183 0 278 126 0 0 +17 278 0 252 278 278 0
 183 126 0 0 -15 252 253 0 278 247 279 15 279 254 0 186 247 0 17 186 0 279 186 1
86 0 280 184 0 0 +17 280 0 256 280 280 0 186 184 0 0 -15 256 258 0 280 251 281 1
5 281 259 0 188 251 0 17 188 0 281 188 188 0 202 130 0 0 +17 129 0 259 129 129 0
 267 127 0 0 +15 259 325 0 129 255 282 15 282 326 0 190 255 0 17 190 0 282 190 1
90 0 200 131 0 0 +80 255 1 212 283 284 9000 1 1 1 1 1 1 1 1 0 FFFFTFTFFFFFFF1 81
 1 262 873 285 194 0 260 286 287 288 81 1 258 931 212 255 286 0 254 260 289 81 1
 263 933 212 17 290 0 260 0 291 82 255 1 264 -392095345 14 17 610 263 ?0 167 162
 5 6 +0 0 0 167 21 81 1 290 877 285 17 0 263 292 0 293 82 1 291 -376890992 80 1
 285 0 294 8001 0 0 0 0 3 5 0 0 0 FFFFTFTFFFFFFF2 81 1 292 876 285 167 0 214 213
 290 295 83 255 3 293 .529411764705882 .549019607843137 .549019607843137 81 1 21
4 918 212 167 292 0 210 216 296 81 1 213 875 285 209 0 210 287 292 297 83 3 295
 .529411764705882 .549019607843137 .549019607843137 81 1 287 874 285 84 0 216 26
2 213 298 83 3 297 .529411764705882 .549019607843137 .549019607843137 81 1 216 9
19 212 84 287 0 214 218 299 83 3 298 .529411764705882 .549019607843137 .54901960
7843137 82 1 299 -382789232 82 1 296 -378857072 79 255 15 294 SDL/TYSA_COLOUR15
 162 611 0 163 17 0 17 163 0 162 99 158 67 42 145 0 0 -17 99 0 162 54 163 73 69
 103 0 0 -17 42 0 34 35 100 38 163 145 0 157 +17 35 0 34 32 42 33 157 161 0 36 +
17 100 0 34 42 72 67 96 101 0 163 +17 36 0 165 160 166 33 32 37 0 0 -17 54 0 162
 158 99 52 75 102 0 155 -17 69 0 94 96 95 67 99 103 0 100 +81 1 286 872 285 255
 0 258 300 262 301 81 1 254 930 212 251 300 0 250 258 302 82 1 289 -396093041 81
 1 300 871 285 251 0 254 303 286 304 81 1 250 929 212 247 303 0 246 254 305 82 1
 302 -422372979 81 1 303 870 285 247 0 250 306 300 307 81 1 246 928 212 243 306
 0 242 250 308 82 1 305 -421783155 81 1 306 869 285 243 0 246 309 303 310 81 1 2
42 927 212 239 309 0 238 246 311 82 1 308 -421193331 81 1 309 868 285 239 0 242
 312 306 313 81 1 238 926 212 235 312 0 234 242 314 82 1 311 -449308275 81 1 312
 867 285 235 0 238 315 309 316 81 1 234 925 212 230 315 0 229 238 317 82 1 314 -
448718451 81 1 315 866 285 230 0 234 318 312 319 81 1 229 924 212 105 318 0 228
 234 320 82 1 317 -448128627 81 1 318 865 285 105 0 229 321 315 322 81 1 228 923
 212 168 323 0 226 229 324 82 1 320 159127952 81 1 323 863 285 168 0 228 325 321
 326 81 1 226 922 212 159 325 0 221 228 327 82 1 324 160045456 81 1 325 862 285
 159 0 226 328 323 329 81 1 221 921 212 97 328 0 218 226 330 82 1 327 160307600
 81 1 328 861 285 97 0 221 220 325 331 82 1 330 160569744 81 1 220 860 285 15 0
 218 0 328 332 83 3 331 .529411764705882 .549019607843137 .549019607843137 83 3
 332 .529411764705882 .549019607843137 .549019607843137 83 3 329 .52941176470588
2 .549019607843137 .549019607843137 81 1 321 864 285 196 0 198 323 318 333 83 3
 326 .529411764705882 .549019607843137 .549019607843137 81 1 198 916 212 196 321
 0 0 210 334 83 3 333 .529411764705882 .549019607843137 .549019607843137 82 1 33
4 153491856 83 3 322 .529411764705882 .549019607843137 .549019607843137 83 3 319
 .529411764705882 .549019607843137 .549019607843137 83 3 316 .529411764705882 .5
49019607843137 .549019607843137 83 3 313 .529411764705882 .549019607843137 .5490
19607843137 83 3 310 .529411764705882 .549019607843137 .549019607843137 83 3 307
 .529411764705882 .549019607843137 .549019607843137 83 3 304 .529411764705882 .5
49019607843137 .549019607843137 83 3 301 .529411764705882 .549019607843137 .5490
19607843137 83 3 288 .529411764705882 .549019607843137 .549019607843137 79 14 28
4 SWEntUnchanged82 1 222 160831888 51 18 601 0 167 211 6 0 +-.009 .0089659183709
0044 .1166319545368202 0 -1 0 .002 0 0 -1 82 1 215 -380823152 17 22 0 156 157 11
0 33 160 10 0 35 +19 16 95 0 1 0 9 5 S0 74 4 CI16 index_map_offset0 0 1 dCCZ20 1
4 3 0 0 263 2 290 0 0 0 0 0 0 0 0 0 0 0 0 0 0 0 0 0 80 2 12 335 336 8004 0 0 0 0
 3 5 0 0 0 FFTFFFFFFFFFFF2 3 83 1 13 78e2 79 16 336 SDL/TYSA_DENSITY1 0 
