solid OpenSCAD_Model
  facet normal 0 1.22461e-016 1
    outer loop
      vertex 100 -60 7.34764e-015
      vertex 100 60 -7.34764e-015
      vertex -100 -60 7.34764e-015
    endloop
  endfacet
  facet normal 0 1.22461e-016 1
    outer loop
      vertex -100 -60 7.34764e-015
      vertex 100 60 -7.34764e-015
      vertex -100 60 -7.34764e-015
    endloop
  endfacet
  facet normal 0 -1 1.77636e-016
    outer loop
      vertex -100 -60 -40
      vertex 100 -60 -40
      vertex -100 -60 7.34764e-015
    endloop
  endfacet
  facet normal 0 -1 1.77636e-016
    outer loop
      vertex -100 -60 7.34764e-015
      vertex 100 -60 -40
      vertex 100 -60 7.34764e-015
    endloop
  endfacet
  facet normal 1 -0 0
    outer loop
      vertex 100 -60 -40
      vertex 100 60 -40
      vertex 100 -60 7.34764e-015
    endloop
  endfacet
  facet normal 1 0 0
    outer loop
      vertex 100 -60 7.34764e-015
      vertex 100 60 -40
      vertex 100 60 -7.34764e-015
    endloop
  endfacet
  facet normal 0 1 -1.77636e-016
    outer loop
      vertex 100 60 -40
      vertex -100 60 -40
      vertex 100 60 -7.34764e-015
    endloop
  endfacet
  facet normal 0 1 -1.77636e-016
    outer loop
      vertex 100 60 -7.34764e-015
      vertex -100 60 -40
      vertex -100 60 -7.34764e-015
    endloop
  endfacet
  facet normal -1 0 0
    outer loop
      vertex -100 60 -40
      vertex -100 -60 -40
      vertex -100 60 -7.34764e-015
    endloop
  endfacet
  facet normal -1 -0 0
    outer loop
      vertex -100 60 -7.34764e-015
      vertex -100 -60 -40
      vertex -100 -60 7.34764e-015
    endloop
  endfacet
  facet normal -0 -1.18424e-016 -1
    outer loop
      vertex 100 60 -40
      vertex 100 -60 -40
      vertex -100 60 -40
    endloop
  endfacet
  facet normal 0 -1.18424e-016 -1
    outer loop
      vertex -100 60 -40
      vertex 100 -60 -40
      vertex -100 -60 -40
    endloop
  endfacet
endsolid OpenSCAD_Model
