  0
SECTION
  2
HEADER
  9
$ACADVER
  1
AC1014
  9
$ACADMAINTVER
 70
     9
  9
$DWGCODEPAGE
  3
ANSI_1252
  9
$INSBASE
 10
0.0
 20
0.0
 30
0.0
  9
$EXTMIN
 10
1.000000000000000E+20
 20
1.000000000000000E+20
 30
1.000000000000000E+20
  9
$EXTMAX
 10
-1.000000000000000E+20
 20
-1.000000000000000E+20
 30
-1.000000000000000E+20
  9
$LIMMIN
 10
19.86122774
 20
17.59500926
  9
$LIMMAX
 10
830.5471857399999
 20
545.71201246
  9
$ORTHOMODE
 70
     0
  9
$REGENMODE
 70
     1
  9
$FILLMODE
 70
     1
  9
$QTEXTMODE
 70
     0
  9
$MIRRTEXT
 70
     1
  9
$DRAGMODE
 70
     2
  9
$LTSCALE
 40
1.0
  9
$OSMODE
 70
    37
  9
$ATTMODE
 70
     1
  9
$TEXTSIZE
 40
2.5
  9
$TRACEWID
 40
1.0
  9
$TEXTSTYLE
  7
STANDARD
  9
$CLAYER
  8
0
  9
$CELTYPE
  6
BYLAYER
  9
$CECOLOR
 62
   256
  9
$CELTSCALE
 40
1.0
  9
$DELOBJ
 70
     1
  9
$DISPSILH
 70
     0
  9
$DIMSCALE
 40
1.0
  9
$DIMASZ
 40
2.5
  9
$DIMEXO
 40
0.625
  9
$DIMDLI
 40
3.75
  9
$DIMRND
 40
0.0
  9
$DIMDLE
 40
0.0
  9
$DIMEXE
 40
1.25
  9
$DIMTP
 40
0.0
  9
$DIMTM
 40
0.0
  9
$DIMTXT
 40
2.5
  9
$DIMCEN
 40
2.5
  9
$DIMTSZ
 40
0.0
  9
$DIMTOL
 70
     0
  9
$DIMLIM
 70
     0
  9
$DIMTIH
 70
     0
  9
$DIMTOH
 70
     0
  9
$DIMSE1
 70
     0
  9
$DIMSE2
 70
     0
  9
$DIMTAD
 70
     1
  9
$DIMZIN
 70
     8
  9
$DIMBLK
  1

  9
$DIMASO
 70
     1
  9
$DIMSHO
 70
     1
  9
$DIMPOST
  1

  9
$DIMAPOST
  1

  9
$DIMALT
 70
     0
  9
$DIMALTD
 70
     3
  9
$DIMALTF
 40
0.03937007874016
  9
$DIMLFAC
 40
1.0
  9
$DIMTOFL
 70
     1
  9
$DIMTVP
 40
0.0
  9
$DIMTIX
 70
     0
  9
$DIMSOXD
 70
     0
  9
$DIMSAH
 70
     0
  9
$DIMBLK1
  1

  9
$DIMBLK2
  1

  9
$DIMSTYLE
  2
ISO-25
  9
$DIMCLRD
 70
     0
  9
$DIMCLRE
 70
     0
  9
$DIMCLRT
 70
     0
  9
$DIMTFAC
 40
1.0
  9
$DIMGAP
 40
0.625
  9
$DIMJUST
 70
     0
  9
$DIMSD1
 70
     0
  9
$DIMSD2
 70
     0
  9
$DIMTOLJ
 70
     0
  9
$DIMTZIN
 70
     8
  9
$DIMALTZ
 70
     0
  9
$DIMALTTZ
 70
     0
  9
$DIMFIT
 70
     3
  9
$DIMUPT
 70
     0
  9
$DIMUNIT
 70
     2
  9
$DIMDEC
 70
     2
  9
$DIMTDEC
 70
     2
  9
$DIMALTU
 70
     2
  9
$DIMALTTD
 70
     3
  9
$DIMTXSTY
  7
STANDARD
  9
$DIMAUNIT
 70
     0
  9
$LUNITS
 70
     2
  9
$LUPREC
 70
     4
  9
$SKETCHINC
 40
1.0
  9
$FILLETRAD
 40
10.0
  9
$AUNITS
 70
     0
  9
$AUPREC
 70
     0
  9
$MENU
  1
.
  9
$ELEVATION
 40
0.0
  9
$PELEVATION
 40
0.0
  9
$THICKNESS
 40
0.0
  9
$LIMCHECK
 70
     0
  9
$CHAMFERA
 40
0.0
  9
$CHAMFERB
 40
0.0
  9
$CHAMFERC
 40
0.0
  9
$CHAMFERD
 40
0.0
  9
$SKPOLY
 70
     0
  9
$TDCREATE
 40
2457651.463645648
  9
$TDUPDATE
 40
2457651.463647002
  9
$TDINDWG
 40
0.0000000116
  9
$TDUSRTIMER
 40
0.0000000116
  9
$USRTIMER
 70
     1
  9
$ANGBASE
 50
0.0
  9
$ANGDIR
 70
     0
  9
$PDMODE
 70
     0
  9
$PDSIZE
 40
0.0
  9
$PLINEWID
 40
0.0
  9
$COORDS
 70
     1
  9
$SPLFRAME
 70
     0
  9
$SPLINETYPE
 70
     6
  9
$SPLINESEGS
 70
     8
  9
$ATTDIA
 70
     0
  9
$ATTREQ
 70
     1
  9
$HANDLING
 70
     1
  9
$HANDSEED
  5
25F
  9
$SURFTAB1
 70
     6
  9
$SURFTAB2
 70
     6
  9
$SURFTYPE
 70
     6
  9
$SURFU
 70
     6
  9
$SURFV
 70
     6
  9
$UCSNAME
  2

  9
$UCSORG
 10
0.0
 20
0.0
 30
0.0
  9
$UCSXDIR
 10
1.0
 20
0.0
 30
0.0
  9
$UCSYDIR
 10
0.0
 20
1.0
 30
0.0
  9
$PUCSNAME
  2

  9
$PUCSORG
 10
0.0
 20
0.0
 30
0.0
  9
$PUCSXDIR
 10
1.0
 20
0.0
 30
0.0
  9
$PUCSYDIR
 10
0.0
 20
1.0
 30
0.0
  9
$USERI1
 70
     0
  9
$USERI2
 70
     0
  9
$USERI3
 70
     0
  9
$USERI4
 70
     0
  9
$USERI5
 70
     0
  9
$USERR1
 40
0.0
  9
$USERR2
 40
0.0
  9
$USERR3
 40
0.0
  9
$USERR4
 40
0.0
  9
$USERR5
 40
0.0
  9
$WORLDVIEW
 70
     1
  9
$SHADEDGE
 70
     3
  9
$SHADEDIF
 70
    70
  9
$TILEMODE
 70
     1
  9
$MAXACTVP
 70
    64
  9
$PINSBASE
 10
0.0
 20
0.0
 30
0.0
  9
$PLIMCHECK
 70
     0
  9
$PEXTMIN
 10
1.000000000000000E+20
 20
1.000000000000000E+20
 30
1.000000000000000E+20
  9
$PEXTMAX
 10
-1.000000000000000E+20
 20
-1.000000000000000E+20
 30
-1.000000000000000E+20
  9
$PLIMMIN
 10
0.0
 20
0.0
  9
$PLIMMAX
 10
420.0
 20
297.0
  9
$UNITMODE
 70
     0
  9
$VISRETAIN
 70
     1
  9
$PLINEGEN
 70
     0
  9
$PSLTSCALE
 70
     1
  9
$TREEDEPTH
 70
  3020
  9
$PICKSTYLE
 70
     1
  9
$CMLSTYLE
  2
STANDARD
  9
$CMLJUST
 70
     0
  9
$CMLSCALE
 40
20.0
  9
$PROXYGRAPHICS
 70
     1
  9
$MEASUREMENT
 70
     1
  0
ENDSEC
  0
SECTION
  2
CLASSES
  0
CLASS
  1
ACDBDICTIONARYWDFLT
  2
AcDbDictionaryWithDefault
  3
ObjectDBX Classes
 90
        0
280
     0
281
     0
  0
CLASS
  1
VISUALSTYLE
  2
AcDbVisualStyle
  3
ObjectDBX Classes
 90
     4095
280
     0
281
     0
  0
CLASS
  1
MATERIAL
  2
AcDbMaterial
  3
ObjectDBX Classes
 90
     1153
280
     0
281
     0
  0
CLASS
  1
SCALE
  2
AcDbScale
  3
ObjectDBX Classes
 90
     1153
280
     0
281
     0
  0
CLASS
  1
SUN
  2
AcDbSun
  3
SCENEOE
 90
     1153
280
     0
281
     0
  0
CLASS
  1
DICTIONARYVAR
  2
AcDbDictionaryVar
  3
ObjectDBX Classes
 90
        0
280
     0
281
     0
  0
CLASS
  1
XRECORD
  2
AcDbXrecord
  3
ObjectDBX Classes
 90
        0
280
     0
281
     0
  0
CLASS
  1
LWPOLYLINE
  2
AcDbPolyline
  3
ObjectDBX Classes
 90
        0
280
     0
281
     1
  0
CLASS
  1
HATCH
  2
AcDbHatch
  3
ObjectDBX Classes
 90
        0
280
     0
281
     1
  0
CLASS
  1
ACDBPLACEHOLDER
  2
AcDbPlaceHolder
  3
ObjectDBX Classes
 90
        0
280
     0
281
     0
  0
CLASS
  1
LAYOUT
  2
AcDbLayout
  3
ObjectDBX Classes
 90
        0
280
     0
281
     0
  0
ENDSEC
  0
SECTION
  2
TABLES
  0
TABLE
  2
VPORT
  5
8
102
{ACAD_XDICTIONARY
360
255
102
}
330
0
100
AcDbSymbolTable
 70
     1
  0
VPORT
  5
29
330
8
100
AcDbSymbolTableRecord
100
AcDbViewportTableRecord
  2
*ACTIVE
 70
     0
 10
0.0
 20
0.0
 11
1.0
 21
1.0
 12
344.1869158878504
 22
148.5
 13
0.0
 23
0.0
 14
10.0
 24
10.0
 15
10.0
 25
10.0
 16
0.0
 26
0.0
 36
1.0
 17
0.0
 27
0.0
 37
0.0
 40
297.0
 41
1.972972972850329
 42
50.0
 43
0.0
 44
0.0
 50
0.0
 51
0.0
 71
     0
 72
   100
 73
     1
 74
     3
 75
     0
 76
     0
 77
     0
 78
     0
  0
ENDTAB
  0
TABLE
  2
LTYPE
  5
5
330
0
100
AcDbSymbolTable
 70
     1
  0
LTYPE
  5
14
330
5
100
AcDbSymbolTableRecord
100
AcDbLinetypeTableRecord
  2
BYBLOCK
 70
     0
  3

 72
    65
 73
     0
 40
0.0
  0
LTYPE
  5
15
330
5
100
AcDbSymbolTableRecord
100
AcDbLinetypeTableRecord
  2
BYLAYER
 70
     0
  3

 72
    65
 73
     0
 40
0.0
  0
LTYPE
  5
16
330
5
100
AcDbSymbolTableRecord
100
AcDbLinetypeTableRecord
  2
CONTINUOUS
 70
     0
  3
Solid line
 72
    65
 73
     0
 40
0.0
  0
ENDTAB
  0
TABLE
  2
LAYER
  5
2
330
0
100
AcDbSymbolTable
 70
     5
  0
LAYER
  5
10
330
2
100
AcDbSymbolTableRecord
100
AcDbLayerTableRecord
  2
0
 70
     0
 62
     7
  6
CONTINUOUS
  0
LAYER
  5
6A
330
2
100
AcDbSymbolTableRecord
100
AcDbLayerTableRecord
  2
MECHANICAL1
 70
     0
 62
     6
  6
CONTINUOUS
  0
LAYER
  5
6B
330
2
100
AcDbSymbolTableRecord
100
AcDbLayerTableRecord
  2
BOTTOMOVERLAY
 70
     0
 62
    54
  6
CONTINUOUS
  0
LAYER
  5
6C
330
2
100
AcDbSymbolTableRecord
100
AcDbLayerTableRecord
  2
BOTTOMPASTE
 70
     0
 62
    16
  6
CONTINUOUS
  0
LAYER
  5
6D
330
2
100
AcDbSymbolTableRecord
100
AcDbLayerTableRecord
  2
PADHOLELAYER
 70
     0
 62
   156
  6
CONTINUOUS
  0
ENDTAB
  0
TABLE
  2
STYLE
  5
3
330
0
100
AcDbSymbolTable
 70
     1
  0
STYLE
  5
11
330
3
100
AcDbSymbolTableRecord
100
AcDbTextStyleTableRecord
  2
STANDARD
 70
     0
 40
0.0
 41
1.0
 50
0.0
 71
     0
 42
2.5
  3
txt
  4

  0
ENDTAB
  0
TABLE
  2
VIEW
  5
6
330
0
100
AcDbSymbolTable
 70
     0
  0
ENDTAB
  0
TABLE
  2
UCS
  5
7
330
0
100
AcDbSymbolTable
 70
     0
  0
ENDTAB
  0
TABLE
  2
APPID
  5
9
330
0
100
AcDbSymbolTable
 70
     1
  0
APPID
  5
12
330
9
100
AcDbSymbolTableRecord
100
AcDbRegAppTableRecord
  2
ACAD
 70
     0
  0
ENDTAB
  0
TABLE
  2
DIMSTYLE
  5
A
330
0
100
AcDbSymbolTable
 70
     1
  0
DIMSTYLE
105
27
330
A
100
AcDbSymbolTableRecord
100
AcDbDimStyleTableRecord
  2
ISO-25
 70
     0
  3

  4

  5

  6

  7

 40
1.0
 41
2.5
 42
0.625
 43
3.75
 44
1.25
 45
0.0
 46
0.0
 47
0.0
 48
0.0
140
2.5
141
2.5
142
0.0
143
0.03937007874016
144
1.0
145
0.0
146
1.0
147
0.625
 71
     0
 72
     0
 73
     0
 74
     0
 75
     0
 76
     0
 77
     1
 78
     8
170
     0
171
     3
172
     1
173
     0
174
     0
175
     0
176
     0
177
     0
178
     0
270
     2
271
     2
272
     2
273
     2
274
     3
340
11
275
     0
280
     0
281
     0
282
     0
283
     0
284
     8
285
     0
286
     0
287
     3
288
     0
  0
ENDTAB
  0
TABLE
  2
BLOCK_RECORD
  5
1
330
0
100
AcDbSymbolTable
 70
     1
  0
BLOCK_RECORD
  5
1F
330
1
100
AcDbSymbolTableRecord
100
AcDbBlockTableRecord
  2
*MODEL_SPACE
  0
BLOCK_RECORD
  5
1B
330
1
100
AcDbSymbolTableRecord
100
AcDbBlockTableRecord
  2
*PAPER_SPACE
  0
ENDTAB
  0
ENDSEC
  0
SECTION
  2
BLOCKS
  0
BLOCK
  5
20
330
1F
100
AcDbEntity
  8
0
100
AcDbBlockBegin
  2
*MODEL_SPACE
 70
     0
 10
0.0
 20
0.0
 30
0.0
  3
*MODEL_SPACE
  1

  0
ENDBLK
  5
21
330
1F
100
AcDbEntity
  8
0
100
AcDbBlockEnd
  0
BLOCK
  5
1C
330
1B
100
AcDbEntity
 67
     1
  8
0
100
AcDbBlockBegin
  2
*PAPER_SPACE
 70
     0
 10
0.0
 20
0.0
 30
0.0
  3
*PAPER_SPACE
  1

  0
ENDBLK
  5
1D
330
1B
100
AcDbEntity
 67
     1
  8
0
100
AcDbBlockEnd
  0
ENDSEC
  0
SECTION
  2
ENTITIES
  0
LWPOLYLINE
  5
6E
330
1F
100
AcDbEntity
  8
MECHANICAL1
100
AcDbPolyline
 90
        2
 70
     0
 43
0.0127
 10
393.96784554
 20
202.13284694
 10
440.56784886
 20
202.13284694
  0
LWPOLYLINE
  5
6F
330
1F
100
AcDbEntity
  8
MECHANICAL1
100
AcDbPolyline
 90
        2
 70
     1
 43
0.00635
 10
393.96467054
 20
202.13284694
 42
1.0
 10
393.97102054
 20
202.13284694
 42
1.0
  0
LWPOLYLINE
  5
70
330
1F
100
AcDbEntity
  8
MECHANICAL1
100
AcDbPolyline
 90
        2
 70
     1
 43
0.00635
 10
440.56467386
 20
202.13284694
 42
1.0
 10
440.57102386
 20
202.13284694
 42
1.0
  0
LWPOLYLINE
  5
71
330
1F
100
AcDbEntity
  8
MECHANICAL1
100
AcDbPolyline
 90
        2
 70
     0
 43
0.0127
 10
392.7678454
 20
151.63284888
 10
392.7678454
 20
200.9328468
  0
LWPOLYLINE
  5
72
330
1F
100
AcDbEntity
  8
MECHANICAL1
100
AcDbPolyline
 90
        2
 70
     1
 43
0.00635
 10
392.7646704
 20
151.63284888
 42
1.0
 10
392.7710204
 20
151.63284888
 42
1.0
  0
LWPOLYLINE
  5
73
330
1F
100
AcDbEntity
  8
MECHANICAL1
100
AcDbPolyline
 90
        2
 70
     1
 43
0.00635
 10
392.7646704
 20
200.9328468
 42
1.0
 10
392.7710204
 20
200.9328468
 42
1.0
  0
LWPOLYLINE
  5
74
330
1F
100
AcDbEntity
  8
MECHANICAL1
100
AcDbPolyline
 90
        2
 70
     0
 43
0.0127
 10
441.76784646
 20
151.63284888
 10
441.76784646
 20
200.93284934
  0
LWPOLYLINE
  5
75
330
1F
100
AcDbEntity
  8
MECHANICAL1
100
AcDbPolyline
 90
        2
 70
     1
 43
0.00635
 10
441.76467146
 20
151.63284888
 42
1.0
 10
441.77102146
 20
151.63284888
 42
1.0
  0
LWPOLYLINE
  5
76
330
1F
100
AcDbEntity
  8
MECHANICAL1
100
AcDbPolyline
 90
        2
 70
     1
 43
0.00635
 10
441.76467146
 20
200.93284934
 42
1.0
 10
441.77102146
 20
200.93284934
 42
1.0
  0
LWPOLYLINE
  5
77
330
1F
100
AcDbEntity
  8
MECHANICAL1
100
AcDbPolyline
 90
        2
 70
     0
 43
0.0127
 10
385.2678477
 20
219.6328475
 10
449.2678467
 20
219.6328475
  0
LWPOLYLINE
  5
78
330
1F
100
AcDbEntity
  8
MECHANICAL1
100
AcDbPolyline
 90
        2
 70
     1
 43
0.00635
 10
385.2646727
 20
219.6328475
 42
1.0
 10
385.2710227
 20
219.6328475
 42
1.0
  0
LWPOLYLINE
  5
79
330
1F
100
AcDbEntity
  8
MECHANICAL1
100
AcDbPolyline
 90
        2
 70
     1
 43
0.00635
 10
449.2646717
 20
219.6328475
 42
1.0
 10
449.2710216999999
 20
219.6328475
 42
1.0
  0
LWPOLYLINE
  5
7A
330
1F
100
AcDbEntity
  8
MECHANICAL1
100
AcDbPolyline
 90
        2
 70
     0
 43
0.0127
 10
441.76784646
 20
151.63284888
 10
449.26784416
 20
151.63284888
  0
LWPOLYLINE
  5
7B
330
1F
100
AcDbEntity
  8
MECHANICAL1
100
AcDbPolyline
 90
        2
 70
     1
 43
0.00635
 10
441.76467146
 20
151.63284888
 42
1.0
 10
441.77102146
 20
151.63284888
 42
1.0
  0
LWPOLYLINE
  5
7C
330
1F
100
AcDbEntity
  8
MECHANICAL1
100
AcDbPolyline
 90
        2
 70
     1
 43
0.00635
 10
449.26466916
 20
151.63284888
 42
1.0
 10
449.27101916
 20
151.63284888
 42
1.0
  0
LWPOLYLINE
  5
7D
330
1F
100
AcDbEntity
  8
MECHANICAL1
100
AcDbPolyline
 90
        2
 70
     0
 43
0.0127
 10
449.26784416
 20
151.63284888
 10
449.26784416
 20
219.6328475
  0
LWPOLYLINE
  5
7E
330
1F
100
AcDbEntity
  8
MECHANICAL1
100
AcDbPolyline
 90
        2
 70
     1
 43
0.00635
 10
449.26466916
 20
151.63284888
 42
1.0
 10
449.27101916
 20
151.63284888
 42
1.0
  0
LWPOLYLINE
  5
7F
330
1F
100
AcDbEntity
  8
MECHANICAL1
100
AcDbPolyline
 90
        2
 70
     1
 43
0.00635
 10
449.26466916
 20
219.6328475
 42
1.0
 10
449.27101916
 20
219.6328475
 42
1.0
  0
LWPOLYLINE
  5
80
330
1F
100
AcDbEntity
  8
MECHANICAL1
100
AcDbPolyline
 90
        2
 70
     0
 43
0.0127
 10
385.26784516
 20
151.63284888
 10
385.26784516
 20
219.6328475
  0
LWPOLYLINE
  5
81
330
1F
100
AcDbEntity
  8
MECHANICAL1
100
AcDbPolyline
 90
        2
 70
     1
 43
0.00635
 10
385.26467016
 20
151.63284888
 42
1.0
 10
385.27102016
 20
151.63284888
 42
1.0
  0
LWPOLYLINE
  5
82
330
1F
100
AcDbEntity
  8
MECHANICAL1
100
AcDbPolyline
 90
        2
 70
     1
 43
0.00635
 10
385.26467016
 20
219.6328475
 42
1.0
 10
385.27102016
 20
219.6328475
 42
1.0
  0
LWPOLYLINE
  5
83
330
1F
100
AcDbEntity
  8
MECHANICAL1
100
AcDbPolyline
 90
        2
 70
     0
 43
0.0127
 10
385.26784516
 20
151.63284888
 10
392.7678454
 20
151.63284888
  0
LWPOLYLINE
  5
84
330
1F
100
AcDbEntity
  8
MECHANICAL1
100
AcDbPolyline
 90
        2
 70
     1
 43
0.00635
 10
385.26467016
 20
151.63284888
 42
1.0
 10
385.27102016
 20
151.63284888
 42
1.0
  0
LWPOLYLINE
  5
85
330
1F
100
AcDbEntity
  8
MECHANICAL1
100
AcDbPolyline
 90
        2
 70
     1
 43
0.00635
 10
392.7646704
 20
151.63284888
 42
1.0
 10
392.7710204
 20
151.63284888
 42
1.0
  0
LWPOLYLINE
  5
86
330
1F
100
AcDbEntity
  8
BOTTOMOVERLAY
100
AcDbPolyline
 90
        2
 70
     0
 43
0.0999998
 10
407.86784822
 20
209.93284912
 10
424.86784978
 20
209.93284912
  0
LWPOLYLINE
  5
87
330
1F
100
AcDbEntity
  8
BOTTOMOVERLAY
100
AcDbPolyline
 90
        2
 70
     1
 43
0.0499999
 10
407.84284954
 20
209.93284912
 42
1.0
 10
407.8928469
 20
209.93284912
 42
1.0
  0
LWPOLYLINE
  5
88
330
1F
100
AcDbEntity
  8
BOTTOMOVERLAY
100
AcDbPolyline
 90
        2
 70
     1
 43
0.0499999
 10
424.8428511
 20
209.93284912
 42
1.0
 10
424.89284846
 20
209.93284912
 42
1.0
  0
LWPOLYLINE
  5
89
330
1F
100
AcDbEntity
  8
BOTTOMOVERLAY
100
AcDbPolyline
 90
        2
 70
     0
 43
0.0999998
 10
407.86784822
 20
203.93284842
 10
407.86784822
 20
209.93284912
  0
LWPOLYLINE
  5
8A
330
1F
100
AcDbEntity
  8
BOTTOMOVERLAY
100
AcDbPolyline
 90
        2
 70
     1
 43
0.0499999
 10
407.84284954
 20
203.93284842
 42
1.0
 10
407.8928469
 20
203.93284842
 42
1.0
  0
LWPOLYLINE
  5
8B
330
1F
100
AcDbEntity
  8
BOTTOMOVERLAY
100
AcDbPolyline
 90
        2
 70
     1
 43
0.0499999
 10
407.84284954
 20
209.93284912
 42
1.0
 10
407.8928469
 20
209.93284912
 42
1.0
  0
LWPOLYLINE
  5
8C
330
1F
100
AcDbEntity
  8
BOTTOMOVERLAY
100
AcDbPolyline
 90
        2
 70
     0
 43
0.0999998
 10
407.86784822
 20
203.93284842
 10
424.86784978
 20
203.93284842
  0
LWPOLYLINE
  5
8D
330
1F
100
AcDbEntity
  8
BOTTOMOVERLAY
100
AcDbPolyline
 90
        2
 70
     1
 43
0.0499999
 10
407.84284954
 20
203.93284842
 42
1.0
 10
407.8928469
 20
203.93284842
 42
1.0
  0
LWPOLYLINE
  5
8E
330
1F
100
AcDbEntity
  8
BOTTOMOVERLAY
100
AcDbPolyline
 90
        2
 70
     1
 43
0.0499999
 10
424.8428511
 20
203.93284842
 42
1.0
 10
424.89284846
 20
203.93284842
 42
1.0
  0
LWPOLYLINE
  5
8F
330
1F
100
AcDbEntity
  8
BOTTOMOVERLAY
100
AcDbPolyline
 90
        2
 70
     0
 43
0.0999998
 10
424.86784978
 20
203.93284842
 10
424.86784978
 20
209.93284912
  0
LWPOLYLINE
  5
90
330
1F
100
AcDbEntity
  8
BOTTOMOVERLAY
100
AcDbPolyline
 90
        2
 70
     1
 43
0.0499999
 10
424.8428511
 20
203.93284842
 42
1.0
 10
424.89284846
 20
203.93284842
 42
1.0
  0
LWPOLYLINE
  5
91
330
1F
100
AcDbEntity
  8
BOTTOMOVERLAY
100
AcDbPolyline
 90
        2
 70
     1
 43
0.0499999
 10
424.8428511
 20
209.93284912
 42
1.0
 10
424.89284846
 20
209.93284912
 42
1.0
  0
LWPOLYLINE
  5
92
330
1F
100
AcDbEntity
  8
MECHANICAL1
100
AcDbPolyline
 90
        2
 70
     0
 43
0.01299972
 10
440.56784886
 20
202.13284694
 42
-0.414213562372877
 10
441.767849
 20
200.9328468
  0
LWPOLYLINE
  5
93
330
1F
100
AcDbEntity
  8
MECHANICAL1
100
AcDbPolyline
 90
        2
 70
     1
 43
0.00649986
 10
440.5646002
 20
202.13284694
 42
1.0
 10
440.57109752
 20
202.13284694
 42
1.0
  0
LWPOLYLINE
  5
94
330
1F
100
AcDbEntity
  8
MECHANICAL1
100
AcDbPolyline
 90
        2
 70
     1
 43
0.00649986
 10
441.76460034
 20
200.9328468
 42
1.0
 10
441.77109766
 20
200.9328468
 42
1.0
  0
LWPOLYLINE
  5
95
330
1F
100
AcDbEntity
  8
MECHANICAL1
100
AcDbPolyline
 90
        2
 70
     0
 43
0.01299972
 10
392.76784794
 20
200.93284934
 42
-0.414213562372877
 10
393.96784808
 20
202.13284948
  0
LWPOLYLINE
  5
96
330
1F
100
AcDbEntity
  8
MECHANICAL1
100
AcDbPolyline
 90
        2
 70
     1
 43
0.00649986
 10
392.76459928
 20
200.93284934
 42
1.0
 10
392.7710966
 20
200.93284934
 42
1.0
  0
LWPOLYLINE
  5
97
330
1F
100
AcDbEntity
  8
MECHANICAL1
100
AcDbPolyline
 90
        2
 70
     1
 43
0.00649986
 10
393.96459942
 20
202.13284948
 42
1.0
 10
393.97109674
 20
202.13284948
 42
1.0
  0
LINE
  5
98
330
1F
100
AcDbEntity
  8
BOTTOMPASTE
100
AcDbLine
 10
383.57464052
 20
89.57759834
 30
0.0
 11
383.57464052
 21
86.07834702
 31
0.0
  0
LINE
  5
99
330
1F
100
AcDbEntity
  8
BOTTOMPASTE
100
AcDbLine
 10
383.57464052
 20
89.57759834
 30
0.0
 11
385.07432002
 21
89.57759834
 31
0.0
  0
LINE
  5
9A
330
1F
100
AcDbEntity
  8
BOTTOMPASTE
100
AcDbLine
 10
385.07432002
 20
89.57759834
 30
0.0
 11
385.57421234
 21
89.41096671999999
 31
0.0
  0
LINE
  5
9B
330
1F
100
AcDbEntity
  8
BOTTOMPASTE
100
AcDbLine
 10
385.57421234
 20
89.41096671999999
 30
0.0
 11
385.74084396
 21
89.2443351
 31
0.0
  0
LINE
  5
9C
330
1F
100
AcDbEntity
  8
BOTTOMPASTE
100
AcDbLine
 10
385.74084396
 20
89.2443351
 30
0.0
 11
385.90747304
 21
88.91107439999999
 31
0.0
  0
LINE
  5
9D
330
1F
100
AcDbEntity
  8
BOTTOMPASTE
100
AcDbLine
 10
385.90747304
 20
88.91107439999999
 30
0.0
 11
385.90747304
 21
88.57781116
 31
0.0
  0
LINE
  5
9E
330
1F
100
AcDbEntity
  8
BOTTOMPASTE
100
AcDbLine
 10
385.90747304
 20
88.57781116
 30
0.0
 11
385.74084396
 21
88.24455046
 31
0.0
  0
LINE
  5
9F
330
1F
100
AcDbEntity
  8
BOTTOMPASTE
100
AcDbLine
 10
385.74084396
 20
88.24455046
 30
0.0
 11
385.57421234
 21
88.07791884
 31
0.0
  0
LINE
  5
A0
330
1F
100
AcDbEntity
  8
BOTTOMPASTE
100
AcDbLine
 10
385.57421234
 20
88.07791884
 30
0.0
 11
385.07432002
 21
87.91128721999999
 31
0.0
  0
LINE
  5
A1
330
1F
100
AcDbEntity
  8
BOTTOMPASTE
100
AcDbLine
 10
383.57464052
 20
87.91128721999999
 30
0.0
 11
385.07432002
 21
87.91128721999999
 31
0.0
  0
LINE
  5
A2
330
1F
100
AcDbEntity
  8
BOTTOMPASTE
100
AcDbLine
 10
385.07432002
 20
87.91128721999999
 30
0.0
 11
385.57421234
 21
87.74465814
 31
0.0
  0
LINE
  5
A3
330
1F
100
AcDbEntity
  8
BOTTOMPASTE
100
AcDbLine
 10
385.57421234
 20
87.74465814
 30
0.0
 11
385.74084396
 21
87.57802652
 31
0.0
  0
LINE
  5
A4
330
1F
100
AcDbEntity
  8
BOTTOMPASTE
100
AcDbLine
 10
385.74084396
 20
87.57802652
 30
0.0
 11
385.90747304
 21
87.24476328
 31
0.0
  0
LINE
  5
A5
330
1F
100
AcDbEntity
  8
BOTTOMPASTE
100
AcDbLine
 10
385.90747304
 20
87.24476328
 30
0.0
 11
385.90747304
 21
86.74487096
 31
0.0
  0
LINE
  5
A6
330
1F
100
AcDbEntity
  8
BOTTOMPASTE
100
AcDbLine
 10
385.90747304
 20
86.74487096
 30
0.0
 11
385.74084396
 21
86.41161025999999
 31
0.0
  0
LINE
  5
A7
330
1F
100
AcDbEntity
  8
BOTTOMPASTE
100
AcDbLine
 10
385.74084396
 20
86.41161025999999
 30
0.0
 11
385.57421234
 21
86.24497864
 31
0.0
  0
LINE
  5
A8
330
1F
100
AcDbEntity
  8
BOTTOMPASTE
100
AcDbLine
 10
385.57421234
 20
86.24497864
 30
0.0
 11
385.07432002
 21
86.07834702
 31
0.0
  0
LINE
  5
A9
330
1F
100
AcDbEntity
  8
BOTTOMPASTE
100
AcDbLine
 10
385.07432002
 20
86.07834702
 30
0.0
 11
383.57464052
 21
86.07834702
 31
0.0
  0
LINE
  5
AA
330
1F
100
AcDbEntity
  8
BOTTOMPASTE
100
AcDbLine
 10
387.52379442
 20
88.41117953999999
 30
0.0
 11
387.19053118
 21
88.24455046
 31
0.0
  0
LINE
  5
AB
330
1F
100
AcDbEntity
  8
BOTTOMPASTE
100
AcDbLine
 10
387.19053118
 20
88.24455046
 30
0.0
 11
386.85727048
 21
87.91128721999999
 31
0.0
  0
LINE
  5
AC
330
1F
100
AcDbEntity
  8
BOTTOMPASTE
100
AcDbLine
 10
386.85727048
 20
87.91128721999999
 30
0.0
 11
386.69063886
 21
87.41139489999999
 31
0.0
  0
LINE
  5
AD
330
1F
100
AcDbEntity
  8
BOTTOMPASTE
100
AcDbLine
 10
386.69063886
 20
87.41139489999999
 30
0.0
 11
386.69063886
 21
87.07813166
 31
0.0
  0
LINE
  5
AE
330
1F
100
AcDbEntity
  8
BOTTOMPASTE
100
AcDbLine
 10
386.69063886
 20
87.07813166
 30
0.0
 11
386.85727048
 21
86.57823934
 31
0.0
  0
LINE
  5
AF
330
1F
100
AcDbEntity
  8
BOTTOMPASTE
100
AcDbLine
 10
386.85727048
 20
86.57823934
 30
0.0
 11
387.19053118
 21
86.24497864
 31
0.0
  0
LINE
  5
B0
330
1F
100
AcDbEntity
  8
BOTTOMPASTE
100
AcDbLine
 10
387.19053118
 20
86.24497864
 30
0.0
 11
387.52379442
 21
86.07834702
 31
0.0
  0
LINE
  5
B1
330
1F
100
AcDbEntity
  8
BOTTOMPASTE
100
AcDbLine
 10
387.52379442
 20
86.07834702
 30
0.0
 11
388.02368674
 21
86.07834702
 31
0.0
  0
LINE
  5
B2
330
1F
100
AcDbEntity
  8
BOTTOMPASTE
100
AcDbLine
 10
388.02368674
 20
86.07834702
 30
0.0
 11
388.35694998
 21
86.24497864
 31
0.0
  0
LINE
  5
B3
330
1F
100
AcDbEntity
  8
BOTTOMPASTE
100
AcDbLine
 10
388.35694998
 20
86.24497864
 30
0.0
 11
388.69021068
 21
86.57823934
 31
0.0
  0
LINE
  5
B4
330
1F
100
AcDbEntity
  8
BOTTOMPASTE
100
AcDbLine
 10
388.69021068
 20
86.57823934
 30
0.0
 11
388.8568423
 21
87.07813166
 31
0.0
  0
LINE
  5
B5
330
1F
100
AcDbEntity
  8
BOTTOMPASTE
100
AcDbLine
 10
388.8568423
 20
87.07813166
 30
0.0
 11
388.8568423
 21
87.41139489999999
 31
0.0
  0
LINE
  5
B6
330
1F
100
AcDbEntity
  8
BOTTOMPASTE
100
AcDbLine
 10
388.8568423
 20
87.41139489999999
 30
0.0
 11
388.69021068
 21
87.91128721999999
 31
0.0
  0
LINE
  5
B7
330
1F
100
AcDbEntity
  8
BOTTOMPASTE
100
AcDbLine
 10
388.69021068
 20
87.91128721999999
 30
0.0
 11
388.35694998
 21
88.24455046
 31
0.0
  0
LINE
  5
B8
330
1F
100
AcDbEntity
  8
BOTTOMPASTE
100
AcDbLine
 10
388.35694998
 20
88.24455046
 30
0.0
 11
388.02368674
 21
88.41117953999999
 31
0.0
  0
LINE
  5
B9
330
1F
100
AcDbEntity
  8
BOTTOMPASTE
100
AcDbLine
 10
388.02368674
 20
88.41117953999999
 30
0.0
 11
387.52379442
 21
88.41117953999999
 31
0.0
  0
LINE
  5
BA
330
1F
100
AcDbEntity
  8
BOTTOMPASTE
100
AcDbLine
 10
390.1232355
 20
89.57759834
 30
0.0
 11
390.1232355
 21
86.74487096
 31
0.0
  0
LINE
  5
BB
330
1F
100
AcDbEntity
  8
BOTTOMPASTE
100
AcDbLine
 10
390.1232355
 20
86.74487096
 30
0.0
 11
390.28986712
 21
86.24497864
 31
0.0
  0
LINE
  5
BC
330
1F
100
AcDbEntity
  8
BOTTOMPASTE
100
AcDbLine
 10
390.28986712
 20
86.24497864
 30
0.0
 11
390.62312782
 21
86.07834702
 31
0.0
  0
LINE
  5
BD
330
1F
100
AcDbEntity
  8
BOTTOMPASTE
100
AcDbLine
 10
390.62312782
 20
86.07834702
 30
0.0
 11
390.95639106
 21
86.07834702
 31
0.0
  0
LINE
  5
BE
330
1F
100
AcDbEntity
  8
BOTTOMPASTE
100
AcDbLine
 10
389.62334318
 20
88.41117953999999
 30
0.0
 11
390.78975944
 21
88.41117953999999
 31
0.0
  0
LINE
  5
BF
330
1F
100
AcDbEntity
  8
BOTTOMPASTE
100
AcDbLine
 10
391.9561757
 20
89.57759834
 30
0.0
 11
391.9561757
 21
86.74487096
 31
0.0
  0
LINE
  5
C0
330
1F
100
AcDbEntity
  8
BOTTOMPASTE
100
AcDbLine
 10
391.9561757
 20
86.74487096
 30
0.0
 11
392.12280732
 21
86.24497864
 31
0.0
  0
LINE
  5
C1
330
1F
100
AcDbEntity
  8
BOTTOMPASTE
100
AcDbLine
 10
392.12280732
 20
86.24497864
 30
0.0
 11
392.45606802
 21
86.07834702
 31
0.0
  0
LINE
  5
C2
330
1F
100
AcDbEntity
  8
BOTTOMPASTE
100
AcDbLine
 10
392.45606802
 20
86.07834702
 30
0.0
 11
392.78933126
 21
86.07834702
 31
0.0
  0
LINE
  5
C3
330
1F
100
AcDbEntity
  8
BOTTOMPASTE
100
AcDbLine
 10
391.45628338
 20
88.41117953999999
 30
0.0
 11
392.62269964
 21
88.41117953999999
 31
0.0
  0
LINE
  5
C4
330
1F
100
AcDbEntity
  8
BOTTOMPASTE
100
AcDbLine
 10
394.12237914
 20
88.41117953999999
 30
0.0
 11
393.7891159
 21
88.24455046
 31
0.0
  0
LINE
  5
C5
330
1F
100
AcDbEntity
  8
BOTTOMPASTE
100
AcDbLine
 10
393.7891159
 20
88.24455046
 30
0.0
 11
393.4558552
 21
87.91128721999999
 31
0.0
  0
LINE
  5
C6
330
1F
100
AcDbEntity
  8
BOTTOMPASTE
100
AcDbLine
 10
393.4558552
 20
87.91128721999999
 30
0.0
 11
393.28922358
 21
87.41139489999999
 31
0.0
  0
LINE
  5
C7
330
1F
100
AcDbEntity
  8
BOTTOMPASTE
100
AcDbLine
 10
393.28922358
 20
87.41139489999999
 30
0.0
 11
393.28922358
 21
87.07813166
 31
0.0
  0
LINE
  5
C8
330
1F
100
AcDbEntity
  8
BOTTOMPASTE
100
AcDbLine
 10
393.28922358
 20
87.07813166
 30
0.0
 11
393.4558552
 21
86.57823934
 31
0.0
  0
LINE
  5
C9
330
1F
100
AcDbEntity
  8
BOTTOMPASTE
100
AcDbLine
 10
393.4558552
 20
86.57823934
 30
0.0
 11
393.7891159
 21
86.24497864
 31
0.0
  0
LINE
  5
CA
330
1F
100
AcDbEntity
  8
BOTTOMPASTE
100
AcDbLine
 10
393.7891159
 20
86.24497864
 30
0.0
 11
394.12237914
 21
86.07834702
 31
0.0
  0
LINE
  5
CB
330
1F
100
AcDbEntity
  8
BOTTOMPASTE
100
AcDbLine
 10
394.12237914
 20
86.07834702
 30
0.0
 11
394.62227146
 21
86.07834702
 31
0.0
  0
LINE
  5
CC
330
1F
100
AcDbEntity
  8
BOTTOMPASTE
100
AcDbLine
 10
394.62227146
 20
86.07834702
 30
0.0
 11
394.9555347
 21
86.24497864
 31
0.0
  0
LINE
  5
CD
330
1F
100
AcDbEntity
  8
BOTTOMPASTE
100
AcDbLine
 10
394.9555347
 20
86.24497864
 30
0.0
 11
395.2887954
 21
86.57823934
 31
0.0
  0
LINE
  5
CE
330
1F
100
AcDbEntity
  8
BOTTOMPASTE
100
AcDbLine
 10
395.2887954
 20
86.57823934
 30
0.0
 11
395.45542702
 21
87.07813166
 31
0.0
  0
LINE
  5
CF
330
1F
100
AcDbEntity
  8
BOTTOMPASTE
100
AcDbLine
 10
395.45542702
 20
87.07813166
 30
0.0
 11
395.45542702
 21
87.41139489999999
 31
0.0
  0
LINE
  5
D0
330
1F
100
AcDbEntity
  8
BOTTOMPASTE
100
AcDbLine
 10
395.45542702
 20
87.41139489999999
 30
0.0
 11
395.2887954
 21
87.91128721999999
 31
0.0
  0
LINE
  5
D1
330
1F
100
AcDbEntity
  8
BOTTOMPASTE
100
AcDbLine
 10
395.2887954
 20
87.91128721999999
 30
0.0
 11
394.9555347
 21
88.24455046
 31
0.0
  0
LINE
  5
D2
330
1F
100
AcDbEntity
  8
BOTTOMPASTE
100
AcDbLine
 10
394.9555347
 20
88.24455046
 30
0.0
 11
394.62227146
 21
88.41117953999999
 31
0.0
  0
LINE
  5
D3
330
1F
100
AcDbEntity
  8
BOTTOMPASTE
100
AcDbLine
 10
394.62227146
 20
88.41117953999999
 30
0.0
 11
394.12237914
 21
88.41117953999999
 31
0.0
  0
LINE
  5
D4
330
1F
100
AcDbEntity
  8
BOTTOMPASTE
100
AcDbLine
 10
396.2219279
 20
88.41117953999999
 30
0.0
 11
396.2219279
 21
86.07834702
 31
0.0
  0
LINE
  5
D5
330
1F
100
AcDbEntity
  8
BOTTOMPASTE
100
AcDbLine
 10
396.2219279
 20
87.74465814
 30
0.0
 11
396.72182022
 21
88.24455046
 31
0.0
  0
LINE
  5
D6
330
1F
100
AcDbEntity
  8
BOTTOMPASTE
100
AcDbLine
 10
396.72182022
 20
88.24455046
 30
0.0
 11
397.05508346
 21
88.41117953999999
 31
0.0
  0
LINE
  5
D7
330
1F
100
AcDbEntity
  8
BOTTOMPASTE
100
AcDbLine
 10
397.05508346
 20
88.41117953999999
 30
0.0
 11
397.5549757799999
 21
88.41117953999999
 31
0.0
  0
LINE
  5
D8
330
1F
100
AcDbEntity
  8
BOTTOMPASTE
100
AcDbLine
 10
397.5549757799999
 20
88.41117953999999
 30
0.0
 11
397.88823902
 21
88.24455046
 31
0.0
  0
LINE
  5
D9
330
1F
100
AcDbEntity
  8
BOTTOMPASTE
100
AcDbLine
 10
397.88823902
 20
88.24455046
 30
0.0
 11
398.0548681
 21
87.74465814
 31
0.0
  0
LINE
  5
DA
330
1F
100
AcDbEntity
  8
BOTTOMPASTE
100
AcDbLine
 10
398.0548681
 20
87.74465814
 30
0.0
 11
398.0548681
 21
86.07834702
 31
0.0
  0
LINE
  5
DB
330
1F
100
AcDbEntity
  8
BOTTOMPASTE
100
AcDbLine
 10
398.0548681
 20
87.74465814
 30
0.0
 11
398.55476042
 21
88.24455046
 31
0.0
  0
LINE
  5
DC
330
1F
100
AcDbEntity
  8
BOTTOMPASTE
100
AcDbLine
 10
398.55476042
 20
88.24455046
 30
0.0
 11
398.88802366
 21
88.41117953999999
 31
0.0
  0
LINE
  5
DD
330
1F
100
AcDbEntity
  8
BOTTOMPASTE
100
AcDbLine
 10
398.88802366
 20
88.41117953999999
 30
0.0
 11
399.38791598
 21
88.41117953999999
 31
0.0
  0
LINE
  5
DE
330
1F
100
AcDbEntity
  8
BOTTOMPASTE
100
AcDbLine
 10
399.38791598
 20
88.41117953999999
 30
0.0
 11
399.72117922
 21
88.24455046
 31
0.0
  0
LINE
  5
DF
330
1F
100
AcDbEntity
  8
BOTTOMPASTE
100
AcDbLine
 10
399.72117922
 20
88.24455046
 30
0.0
 11
399.8878083
 21
87.74465814
 31
0.0
  0
LINE
  5
E0
330
1F
100
AcDbEntity
  8
BOTTOMPASTE
100
AcDbLine
 10
399.8878083
 20
87.74465814
 30
0.0
 11
399.8878083
 21
86.07834702
 31
0.0
  0
LINE
  5
E1
330
1F
100
AcDbEntity
  8
BOTTOMPASTE
100
AcDbLine
 10
403.73698526
 20
87.74465814
 30
0.0
 11
405.23666476
 21
87.74465814
 31
0.0
  0
LINE
  5
E2
330
1F
100
AcDbEntity
  8
BOTTOMPASTE
100
AcDbLine
 10
405.23666476
 20
87.74465814
 30
0.0
 11
405.73655708
 21
87.91128721999999
 31
0.0
  0
LINE
  5
E3
330
1F
100
AcDbEntity
  8
BOTTOMPASTE
100
AcDbLine
 10
405.73655708
 20
87.91128721999999
 30
0.0
 11
405.9031887
 21
88.07791884
 31
0.0
  0
LINE
  5
E4
330
1F
100
AcDbEntity
  8
BOTTOMPASTE
100
AcDbLine
 10
405.9031887
 20
88.07791884
 30
0.0
 11
406.06981778
 21
88.41117953999999
 31
0.0
  0
LINE
  5
E5
330
1F
100
AcDbEntity
  8
BOTTOMPASTE
100
AcDbLine
 10
406.06981778
 20
88.41117953999999
 30
0.0
 11
406.06981778
 21
88.91107439999999
 31
0.0
  0
LINE
  5
E6
330
1F
100
AcDbEntity
  8
BOTTOMPASTE
100
AcDbLine
 10
406.06981778
 20
88.91107439999999
 30
0.0
 11
405.9031887
 21
89.2443351
 31
0.0
  0
LINE
  5
E7
330
1F
100
AcDbEntity
  8
BOTTOMPASTE
100
AcDbLine
 10
405.9031887
 20
89.2443351
 30
0.0
 11
405.73655708
 21
89.41096671999999
 31
0.0
  0
LINE
  5
E8
330
1F
100
AcDbEntity
  8
BOTTOMPASTE
100
AcDbLine
 10
405.73655708
 20
89.41096671999999
 30
0.0
 11
405.23666476
 21
89.57759834
 31
0.0
  0
LINE
  5
E9
330
1F
100
AcDbEntity
  8
BOTTOMPASTE
100
AcDbLine
 10
405.23666476
 20
89.57759834
 30
0.0
 11
403.73698526
 21
89.57759834
 31
0.0
  0
LINE
  5
EA
330
1F
100
AcDbEntity
  8
BOTTOMPASTE
100
AcDbLine
 10
403.73698526
 20
89.57759834
 30
0.0
 11
403.73698526
 21
86.07834702
 31
0.0
  0
LINE
  5
EB
330
1F
100
AcDbEntity
  8
BOTTOMPASTE
100
AcDbLine
 10
408.85255542
 20
88.41117953999999
 30
0.0
 11
408.85255542
 21
86.07834702
 31
0.0
  0
LINE
  5
EC
330
1F
100
AcDbEntity
  8
BOTTOMPASTE
100
AcDbLine
 10
408.85255542
 20
87.91128721999999
 30
0.0
 11
408.51929472
 21
88.24455046
 31
0.0
  0
LINE
  5
ED
330
1F
100
AcDbEntity
  8
BOTTOMPASTE
100
AcDbLine
 10
408.51929472
 20
88.24455046
 30
0.0
 11
408.18603148
 21
88.41117953999999
 31
0.0
  0
LINE
  5
EE
330
1F
100
AcDbEntity
  8
BOTTOMPASTE
100
AcDbLine
 10
408.18603148
 20
88.41117953999999
 30
0.0
 11
407.68613916
 21
88.41117953999999
 31
0.0
  0
LINE
  5
EF
330
1F
100
AcDbEntity
  8
BOTTOMPASTE
100
AcDbLine
 10
407.68613916
 20
88.41117953999999
 30
0.0
 11
407.35287592
 21
88.24455046
 31
0.0
  0
LINE
  5
F0
330
1F
100
AcDbEntity
  8
BOTTOMPASTE
100
AcDbLine
 10
407.35287592
 20
88.24455046
 30
0.0
 11
407.01961522
 21
87.91128721999999
 31
0.0
  0
LINE
  5
F1
330
1F
100
AcDbEntity
  8
BOTTOMPASTE
100
AcDbLine
 10
407.01961522
 20
87.91128721999999
 30
0.0
 11
406.8529836
 21
87.41139489999999
 31
0.0
  0
LINE
  5
F2
330
1F
100
AcDbEntity
  8
BOTTOMPASTE
100
AcDbLine
 10
406.8529836
 20
87.41139489999999
 30
0.0
 11
406.8529836
 21
87.07813166
 31
0.0
  0
LINE
  5
F3
330
1F
100
AcDbEntity
  8
BOTTOMPASTE
100
AcDbLine
 10
406.8529836
 20
87.07813166
 30
0.0
 11
407.01961522
 21
86.57823934
 31
0.0
  0
LINE
  5
F4
330
1F
100
AcDbEntity
  8
BOTTOMPASTE
100
AcDbLine
 10
407.01961522
 20
86.57823934
 30
0.0
 11
407.35287592
 21
86.24497864
 31
0.0
  0
LINE
  5
F5
330
1F
100
AcDbEntity
  8
BOTTOMPASTE
100
AcDbLine
 10
407.35287592
 20
86.24497864
 30
0.0
 11
407.68613916
 21
86.07834702
 31
0.0
  0
LINE
  5
F6
330
1F
100
AcDbEntity
  8
BOTTOMPASTE
100
AcDbLine
 10
407.68613916
 20
86.07834702
 30
0.0
 11
408.18603148
 21
86.07834702
 31
0.0
  0
LINE
  5
F7
330
1F
100
AcDbEntity
  8
BOTTOMPASTE
100
AcDbLine
 10
408.18603148
 20
86.07834702
 30
0.0
 11
408.51929472
 21
86.24497864
 31
0.0
  0
LINE
  5
F8
330
1F
100
AcDbEntity
  8
BOTTOMPASTE
100
AcDbLine
 10
408.51929472
 20
86.24497864
 30
0.0
 11
408.85255542
 21
86.57823934
 31
0.0
  0
LINE
  5
F9
330
1F
100
AcDbEntity
  8
BOTTOMPASTE
100
AcDbLine
 10
411.61862812
 20
87.91128721999999
 30
0.0
 11
411.45199904
 21
88.24455046
 31
0.0
  0
LINE
  5
FA
330
1F
100
AcDbEntity
  8
BOTTOMPASTE
100
AcDbLine
 10
411.45199904
 20
88.24455046
 30
0.0
 11
410.95210418
 21
88.41117953999999
 31
0.0
  0
LINE
  5
FB
330
1F
100
AcDbEntity
  8
BOTTOMPASTE
100
AcDbLine
 10
410.95210418
 20
88.41117953999999
 30
0.0
 11
410.45221186
 21
88.41117953999999
 31
0.0
  0
LINE
  5
FC
330
1F
100
AcDbEntity
  8
BOTTOMPASTE
100
AcDbLine
 10
410.45221186
 20
88.41117953999999
 30
0.0
 11
409.95231954
 21
88.24455046
 31
0.0
  0
LINE
  5
FD
330
1F
100
AcDbEntity
  8
BOTTOMPASTE
100
AcDbLine
 10
409.95231954
 20
88.24455046
 30
0.0
 11
409.78568792
 21
87.91128721999999
 31
0.0
  0
LINE
  5
FE
330
1F
100
AcDbEntity
  8
BOTTOMPASTE
100
AcDbLine
 10
409.78568792
 20
87.91128721999999
 30
0.0
 11
409.95231954
 21
87.57802652
 31
0.0
  0
LINE
  5
FF
330
1F
100
AcDbEntity
  8
BOTTOMPASTE
100
AcDbLine
 10
409.95231954
 20
87.57802652
 30
0.0
 11
410.28558024
 21
87.41139489999999
 31
0.0
  0
LINE
  5
100
330
1F
100
AcDbEntity
  8
BOTTOMPASTE
100
AcDbLine
 10
410.28558024
 20
87.41139489999999
 30
0.0
 11
411.1187358
 21
87.24476328
 31
0.0
  0
LINE
  5
101
330
1F
100
AcDbEntity
  8
BOTTOMPASTE
100
AcDbLine
 10
411.1187358
 20
87.24476328
 30
0.0
 11
411.45199904
 21
87.07813166
 31
0.0
  0
LINE
  5
102
330
1F
100
AcDbEntity
  8
BOTTOMPASTE
100
AcDbLine
 10
411.45199904
 20
87.07813166
 30
0.0
 11
411.61862812
 21
86.74487096
 31
0.0
  0
LINE
  5
103
330
1F
100
AcDbEntity
  8
BOTTOMPASTE
100
AcDbLine
 10
411.61862812
 20
86.74487096
 30
0.0
 11
411.61862812
 21
86.57823934
 31
0.0
  0
LINE
  5
104
330
1F
100
AcDbEntity
  8
BOTTOMPASTE
100
AcDbLine
 10
411.61862812
 20
86.57823934
 30
0.0
 11
411.45199904
 21
86.24497864
 31
0.0
  0
LINE
  5
105
330
1F
100
AcDbEntity
  8
BOTTOMPASTE
100
AcDbLine
 10
411.45199904
 20
86.24497864
 30
0.0
 11
410.95210418
 21
86.07834702
 31
0.0
  0
LINE
  5
106
330
1F
100
AcDbEntity
  8
BOTTOMPASTE
100
AcDbLine
 10
410.95210418
 20
86.07834702
 30
0.0
 11
410.45221186
 21
86.07834702
 31
0.0
  0
LINE
  5
107
330
1F
100
AcDbEntity
  8
BOTTOMPASTE
100
AcDbLine
 10
410.45221186
 20
86.07834702
 30
0.0
 11
409.95231954
 21
86.24497864
 31
0.0
  0
LINE
  5
108
330
1F
100
AcDbEntity
  8
BOTTOMPASTE
100
AcDbLine
 10
409.95231954
 20
86.24497864
 30
0.0
 11
409.78568792
 21
86.57823934
 31
0.0
  0
LINE
  5
109
330
1F
100
AcDbEntity
  8
BOTTOMPASTE
100
AcDbLine
 10
412.85169652
 20
89.57759834
 30
0.0
 11
412.85169652
 21
86.74487096
 31
0.0
  0
LINE
  5
10A
330
1F
100
AcDbEntity
  8
BOTTOMPASTE
100
AcDbLine
 10
412.85169652
 20
86.74487096
 30
0.0
 11
413.01832814
 21
86.24497864
 31
0.0
  0
LINE
  5
10B
330
1F
100
AcDbEntity
  8
BOTTOMPASTE
100
AcDbLine
 10
413.01832814
 20
86.24497864
 30
0.0
 11
413.35158884
 21
86.07834702
 31
0.0
  0
LINE
  5
10C
330
1F
100
AcDbEntity
  8
BOTTOMPASTE
100
AcDbLine
 10
413.35158884
 20
86.07834702
 30
0.0
 11
413.68485208
 21
86.07834702
 31
0.0
  0
LINE
  5
10D
330
1F
100
AcDbEntity
  8
BOTTOMPASTE
100
AcDbLine
 10
412.3518042
 20
88.41117953999999
 30
0.0
 11
413.51822046
 21
88.41117953999999
 31
0.0
  0
LINE
  5
10E
330
1F
100
AcDbEntity
  8
BOTTOMPASTE
100
AcDbLine
 10
414.1847444
 20
87.41139489999999
 30
0.0
 11
416.18431622
 21
87.41139489999999
 31
0.0
  0
LINE
  5
10F
330
1F
100
AcDbEntity
  8
BOTTOMPASTE
100
AcDbLine
 10
416.18431622
 20
87.41139489999999
 30
0.0
 11
416.18431622
 21
87.74465814
 31
0.0
  0
LINE
  5
110
330
1F
100
AcDbEntity
  8
BOTTOMPASTE
100
AcDbLine
 10
416.18431622
 20
87.74465814
 30
0.0
 11
416.0176846
 21
88.07791884
 31
0.0
  0
LINE
  5
111
330
1F
100
AcDbEntity
  8
BOTTOMPASTE
100
AcDbLine
 10
416.0176846
 20
88.07791884
 30
0.0
 11
415.85105552
 21
88.24455046
 31
0.0
  0
LINE
  5
112
330
1F
100
AcDbEntity
  8
BOTTOMPASTE
100
AcDbLine
 10
415.85105552
 20
88.24455046
 30
0.0
 11
415.51779228
 21
88.41117953999999
 31
0.0
  0
LINE
  5
113
330
1F
100
AcDbEntity
  8
BOTTOMPASTE
100
AcDbLine
 10
415.51779228
 20
88.41117953999999
 30
0.0
 11
415.01789996
 21
88.41117953999999
 31
0.0
  0
LINE
  5
114
330
1F
100
AcDbEntity
  8
BOTTOMPASTE
100
AcDbLine
 10
415.01789996
 20
88.41117953999999
 30
0.0
 11
414.68463672
 21
88.24455046
 31
0.0
  0
LINE
  5
115
330
1F
100
AcDbEntity
  8
BOTTOMPASTE
100
AcDbLine
 10
414.68463672
 20
88.24455046
 30
0.0
 11
414.35137602
 21
87.91128721999999
 31
0.0
  0
LINE
  5
116
330
1F
100
AcDbEntity
  8
BOTTOMPASTE
100
AcDbLine
 10
414.35137602
 20
87.91128721999999
 30
0.0
 11
414.1847444
 21
87.41139489999999
 31
0.0
  0
LINE
  5
117
330
1F
100
AcDbEntity
  8
BOTTOMPASTE
100
AcDbLine
 10
414.1847444
 20
87.41139489999999
 30
0.0
 11
414.1847444
 21
87.07813166
 31
0.0
  0
LINE
  5
118
330
1F
100
AcDbEntity
  8
BOTTOMPASTE
100
AcDbLine
 10
414.1847444
 20
87.07813166
 30
0.0
 11
414.35137602
 21
86.57823934
 31
0.0
  0
LINE
  5
119
330
1F
100
AcDbEntity
  8
BOTTOMPASTE
100
AcDbLine
 10
414.35137602
 20
86.57823934
 30
0.0
 11
414.68463672
 21
86.24497864
 31
0.0
  0
LINE
  5
11A
330
1F
100
AcDbEntity
  8
BOTTOMPASTE
100
AcDbLine
 10
414.68463672
 20
86.24497864
 30
0.0
 11
415.01789996
 21
86.07834702
 31
0.0
  0
LINE
  5
11B
330
1F
100
AcDbEntity
  8
BOTTOMPASTE
100
AcDbLine
 10
415.01789996
 20
86.07834702
 30
0.0
 11
415.51779228
 21
86.07834702
 31
0.0
  0
LINE
  5
11C
330
1F
100
AcDbEntity
  8
BOTTOMPASTE
100
AcDbLine
 10
415.51779228
 20
86.07834702
 30
0.0
 11
415.85105552
 21
86.24497864
 31
0.0
  0
LINE
  5
11D
330
1F
100
AcDbEntity
  8
BOTTOMPASTE
100
AcDbLine
 10
415.85105552
 20
86.24497864
 30
0.0
 11
416.18431622
 21
86.57823934
 31
0.0
  0
LINE
  5
11E
330
1F
100
AcDbEntity
  8
BOTTOMOVERLAY
100
AcDbLine
 10
383.80784554
 20
89.49209685999999
 30
0.0
 11
383.80784554
 21
85.99284553999999
 31
0.0
  0
LINE
  5
11F
330
1F
100
AcDbEntity
  8
BOTTOMOVERLAY
100
AcDbLine
 10
383.80784554
 20
89.49209685999999
 30
0.0
 11
385.30752504
 21
89.49209685999999
 31
0.0
  0
LINE
  5
120
330
1F
100
AcDbEntity
  8
BOTTOMOVERLAY
100
AcDbLine
 10
385.30752504
 20
89.49209685999999
 30
0.0
 11
385.80741736
 21
89.32546524
 31
0.0
  0
LINE
  5
121
330
1F
100
AcDbEntity
  8
BOTTOMOVERLAY
100
AcDbLine
 10
385.80741736
 20
89.32546524
 30
0.0
 11
385.97404898
 21
89.15883362
 31
0.0
  0
LINE
  5
122
330
1F
100
AcDbEntity
  8
BOTTOMOVERLAY
100
AcDbLine
 10
385.97404898
 20
89.15883362
 30
0.0
 11
386.14067806
 21
88.82557292
 31
0.0
  0
LINE
  5
123
330
1F
100
AcDbEntity
  8
BOTTOMOVERLAY
100
AcDbLine
 10
386.14067806
 20
88.82557292
 30
0.0
 11
386.14067806
 21
88.49230967999999
 31
0.0
  0
LINE
  5
124
330
1F
100
AcDbEntity
  8
BOTTOMOVERLAY
100
AcDbLine
 10
386.14067806
 20
88.49230967999999
 30
0.0
 11
385.97404898
 21
88.15904898
 31
0.0
  0
LINE
  5
125
330
1F
100
AcDbEntity
  8
BOTTOMOVERLAY
100
AcDbLine
 10
385.97404898
 20
88.15904898
 30
0.0
 11
385.80741736
 21
87.99241735999999
 31
0.0
  0
LINE
  5
126
330
1F
100
AcDbEntity
  8
BOTTOMOVERLAY
100
AcDbLine
 10
385.80741736
 20
87.99241735999999
 30
0.0
 11
385.30752504
 21
87.82578574
 31
0.0
  0
LINE
  5
127
330
1F
100
AcDbEntity
  8
BOTTOMOVERLAY
100
AcDbLine
 10
383.80784554
 20
87.82578574
 30
0.0
 11
385.30752504
 21
87.82578574
 31
0.0
  0
LINE
  5
128
330
1F
100
AcDbEntity
  8
BOTTOMOVERLAY
100
AcDbLine
 10
385.30752504
 20
87.82578574
 30
0.0
 11
385.80741736
 21
87.65915666
 31
0.0
  0
LINE
  5
129
330
1F
100
AcDbEntity
  8
BOTTOMOVERLAY
100
AcDbLine
 10
385.80741736
 20
87.65915666
 30
0.0
 11
385.97404898
 21
87.49252503999999
 31
0.0
  0
LINE
  5
12A
330
1F
100
AcDbEntity
  8
BOTTOMOVERLAY
100
AcDbLine
 10
385.97404898
 20
87.49252503999999
 30
0.0
 11
386.14067806
 21
87.1592618
 31
0.0
  0
LINE
  5
12B
330
1F
100
AcDbEntity
  8
BOTTOMOVERLAY
100
AcDbLine
 10
386.14067806
 20
87.1592618
 30
0.0
 11
386.14067806
 21
86.65936948
 31
0.0
  0
LINE
  5
12C
330
1F
100
AcDbEntity
  8
BOTTOMOVERLAY
100
AcDbLine
 10
386.14067806
 20
86.65936948
 30
0.0
 11
385.97404898
 21
86.32610878
 31
0.0
  0
LINE
  5
12D
330
1F
100
AcDbEntity
  8
BOTTOMOVERLAY
100
AcDbLine
 10
385.97404898
 20
86.32610878
 30
0.0
 11
385.80741736
 21
86.15947716
 31
0.0
  0
LINE
  5
12E
330
1F
100
AcDbEntity
  8
BOTTOMOVERLAY
100
AcDbLine
 10
385.80741736
 20
86.15947716
 30
0.0
 11
385.30752504
 21
85.99284553999999
 31
0.0
  0
LINE
  5
12F
330
1F
100
AcDbEntity
  8
BOTTOMOVERLAY
100
AcDbLine
 10
385.30752504
 20
85.99284553999999
 30
0.0
 11
383.80784554
 21
85.99284553999999
 31
0.0
  0
LINE
  5
130
330
1F
100
AcDbEntity
  8
BOTTOMOVERLAY
100
AcDbLine
 10
387.75699944
 20
88.32567806
 30
0.0
 11
387.4237362
 21
88.15904898
 31
0.0
  0
LINE
  5
131
330
1F
100
AcDbEntity
  8
BOTTOMOVERLAY
100
AcDbLine
 10
387.4237362
 20
88.15904898
 30
0.0
 11
387.0904755
 21
87.82578574
 31
0.0
  0
LINE
  5
132
330
1F
100
AcDbEntity
  8
BOTTOMOVERLAY
100
AcDbLine
 10
387.0904755
 20
87.82578574
 30
0.0
 11
386.92384388
 21
87.32589342
 31
0.0
  0
LINE
  5
133
330
1F
100
AcDbEntity
  8
BOTTOMOVERLAY
100
AcDbLine
 10
386.92384388
 20
87.32589342
 30
0.0
 11
386.92384388
 21
86.99263017999999
 31
0.0
  0
LINE
  5
134
330
1F
100
AcDbEntity
  8
BOTTOMOVERLAY
100
AcDbLine
 10
386.92384388
 20
86.99263017999999
 30
0.0
 11
387.0904755
 21
86.49273785999999
 31
0.0
  0
LINE
  5
135
330
1F
100
AcDbEntity
  8
BOTTOMOVERLAY
100
AcDbLine
 10
387.0904755
 20
86.49273785999999
 30
0.0
 11
387.4237362
 21
86.15947716
 31
0.0
  0
LINE
  5
136
330
1F
100
AcDbEntity
  8
BOTTOMOVERLAY
100
AcDbLine
 10
387.4237362
 20
86.15947716
 30
0.0
 11
387.75699944
 21
85.99284553999999
 31
0.0
  0
LINE
  5
137
330
1F
100
AcDbEntity
  8
BOTTOMOVERLAY
100
AcDbLine
 10
387.75699944
 20
85.99284553999999
 30
0.0
 11
388.25689176
 21
85.99284553999999
 31
0.0
  0
LINE
  5
138
330
1F
100
AcDbEntity
  8
BOTTOMOVERLAY
100
AcDbLine
 10
388.25689176
 20
85.99284553999999
 30
0.0
 11
388.590155
 21
86.15947716
 31
0.0
  0
LINE
  5
139
330
1F
100
AcDbEntity
  8
BOTTOMOVERLAY
100
AcDbLine
 10
388.590155
 20
86.15947716
 30
0.0
 11
388.9234157
 21
86.49273785999999
 31
0.0
  0
LINE
  5
13A
330
1F
100
AcDbEntity
  8
BOTTOMOVERLAY
100
AcDbLine
 10
388.9234157
 20
86.49273785999999
 30
0.0
 11
389.09004732
 21
86.99263017999999
 31
0.0
  0
LINE
  5
13B
330
1F
100
AcDbEntity
  8
BOTTOMOVERLAY
100
AcDbLine
 10
389.09004732
 20
86.99263017999999
 30
0.0
 11
389.09004732
 21
87.32589342
 31
0.0
  0
LINE
  5
13C
330
1F
100
AcDbEntity
  8
BOTTOMOVERLAY
100
AcDbLine
 10
389.09004732
 20
87.32589342
 30
0.0
 11
388.9234157
 21
87.82578574
 31
0.0
  0
LINE
  5
13D
330
1F
100
AcDbEntity
  8
BOTTOMOVERLAY
100
AcDbLine
 10
388.9234157
 20
87.82578574
 30
0.0
 11
388.590155
 21
88.15904898
 31
0.0
  0
LINE
  5
13E
330
1F
100
AcDbEntity
  8
BOTTOMOVERLAY
100
AcDbLine
 10
388.590155
 20
88.15904898
 30
0.0
 11
388.25689176
 21
88.32567806
 31
0.0
  0
LINE
  5
13F
330
1F
100
AcDbEntity
  8
BOTTOMOVERLAY
100
AcDbLine
 10
388.25689176
 20
88.32567806
 30
0.0
 11
387.75699944
 21
88.32567806
 31
0.0
  0
LINE
  5
140
330
1F
100
AcDbEntity
  8
BOTTOMOVERLAY
100
AcDbLine
 10
390.35644052
 20
89.49209685999999
 30
0.0
 11
390.35644052
 21
86.65936948
 31
0.0
  0
LINE
  5
141
330
1F
100
AcDbEntity
  8
BOTTOMOVERLAY
100
AcDbLine
 10
390.35644052
 20
86.65936948
 30
0.0
 11
390.52307214
 21
86.15947716
 31
0.0
  0
LINE
  5
142
330
1F
100
AcDbEntity
  8
BOTTOMOVERLAY
100
AcDbLine
 10
390.52307214
 20
86.15947716
 30
0.0
 11
390.85633284
 21
85.99284553999999
 31
0.0
  0
LINE
  5
143
330
1F
100
AcDbEntity
  8
BOTTOMOVERLAY
100
AcDbLine
 10
390.85633284
 20
85.99284553999999
 30
0.0
 11
391.18959608
 21
85.99284553999999
 31
0.0
  0
LINE
  5
144
330
1F
100
AcDbEntity
  8
BOTTOMOVERLAY
100
AcDbLine
 10
389.8565482
 20
88.32567806
 30
0.0
 11
391.02296446
 21
88.32567806
 31
0.0
  0
LINE
  5
145
330
1F
100
AcDbEntity
  8
BOTTOMOVERLAY
100
AcDbLine
 10
392.18938072
 20
89.49209685999999
 30
0.0
 11
392.18938072
 21
86.65936948
 31
0.0
  0
LINE
  5
146
330
1F
100
AcDbEntity
  8
BOTTOMOVERLAY
100
AcDbLine
 10
392.18938072
 20
86.65936948
 30
0.0
 11
392.3560123399999
 21
86.15947716
 31
0.0
  0
LINE
  5
147
330
1F
100
AcDbEntity
  8
BOTTOMOVERLAY
100
AcDbLine
 10
392.3560123399999
 20
86.15947716
 30
0.0
 11
392.68927304
 21
85.99284553999999
 31
0.0
  0
LINE
  5
148
330
1F
100
AcDbEntity
  8
BOTTOMOVERLAY
100
AcDbLine
 10
392.68927304
 20
85.99284553999999
 30
0.0
 11
393.02253628
 21
85.99284553999999
 31
0.0
  0
LINE
  5
149
330
1F
100
AcDbEntity
  8
BOTTOMOVERLAY
100
AcDbLine
 10
391.6894884
 20
88.32567806
 30
0.0
 11
392.85590466
 21
88.32567806
 31
0.0
  0
LINE
  5
14A
330
1F
100
AcDbEntity
  8
BOTTOMOVERLAY
100
AcDbLine
 10
394.35558416
 20
88.32567806
 30
0.0
 11
394.02232092
 21
88.15904898
 31
0.0
  0
LINE
  5
14B
330
1F
100
AcDbEntity
  8
BOTTOMOVERLAY
100
AcDbLine
 10
394.02232092
 20
88.15904898
 30
0.0
 11
393.68906022
 21
87.82578574
 31
0.0
  0
LINE
  5
14C
330
1F
100
AcDbEntity
  8
BOTTOMOVERLAY
100
AcDbLine
 10
393.68906022
 20
87.82578574
 30
0.0
 11
393.5224286
 21
87.32589342
 31
0.0
  0
LINE
  5
14D
330
1F
100
AcDbEntity
  8
BOTTOMOVERLAY
100
AcDbLine
 10
393.5224286
 20
87.32589342
 30
0.0
 11
393.5224286
 21
86.99263017999999
 31
0.0
  0
LINE
  5
14E
330
1F
100
AcDbEntity
  8
BOTTOMOVERLAY
100
AcDbLine
 10
393.5224286
 20
86.99263017999999
 30
0.0
 11
393.68906022
 21
86.49273785999999
 31
0.0
  0
LINE
  5
14F
330
1F
100
AcDbEntity
  8
BOTTOMOVERLAY
100
AcDbLine
 10
393.68906022
 20
86.49273785999999
 30
0.0
 11
394.02232092
 21
86.15947716
 31
0.0
  0
LINE
  5
150
330
1F
100
AcDbEntity
  8
BOTTOMOVERLAY
100
AcDbLine
 10
394.02232092
 20
86.15947716
 30
0.0
 11
394.35558416
 21
85.99284553999999
 31
0.0
  0
LINE
  5
151
330
1F
100
AcDbEntity
  8
BOTTOMOVERLAY
100
AcDbLine
 10
394.35558416
 20
85.99284553999999
 30
0.0
 11
394.85547648
 21
85.99284553999999
 31
0.0
  0
LINE
  5
152
330
1F
100
AcDbEntity
  8
BOTTOMOVERLAY
100
AcDbLine
 10
394.85547648
 20
85.99284553999999
 30
0.0
 11
395.18873972
 21
86.15947716
 31
0.0
  0
LINE
  5
153
330
1F
100
AcDbEntity
  8
BOTTOMOVERLAY
100
AcDbLine
 10
395.18873972
 20
86.15947716
 30
0.0
 11
395.52200042
 21
86.49273785999999
 31
0.0
  0
LINE
  5
154
330
1F
100
AcDbEntity
  8
BOTTOMOVERLAY
100
AcDbLine
 10
395.52200042
 20
86.49273785999999
 30
0.0
 11
395.68863204
 21
86.99263017999999
 31
0.0
  0
LINE
  5
155
330
1F
100
AcDbEntity
  8
BOTTOMOVERLAY
100
AcDbLine
 10
395.68863204
 20
86.99263017999999
 30
0.0
 11
395.68863204
 21
87.32589342
 31
0.0
  0
LINE
  5
156
330
1F
100
AcDbEntity
  8
BOTTOMOVERLAY
100
AcDbLine
 10
395.68863204
 20
87.32589342
 30
0.0
 11
395.52200042
 21
87.82578574
 31
0.0
  0
LINE
  5
157
330
1F
100
AcDbEntity
  8
BOTTOMOVERLAY
100
AcDbLine
 10
395.52200042
 20
87.82578574
 30
0.0
 11
395.18873972
 21
88.15904898
 31
0.0
  0
LINE
  5
158
330
1F
100
AcDbEntity
  8
BOTTOMOVERLAY
100
AcDbLine
 10
395.18873972
 20
88.15904898
 30
0.0
 11
394.85547648
 21
88.32567806
 31
0.0
  0
LINE
  5
159
330
1F
100
AcDbEntity
  8
BOTTOMOVERLAY
100
AcDbLine
 10
394.85547648
 20
88.32567806
 30
0.0
 11
394.35558416
 21
88.32567806
 31
0.0
  0
LINE
  5
15A
330
1F
100
AcDbEntity
  8
BOTTOMOVERLAY
100
AcDbLine
 10
396.45513292
 20
88.32567806
 30
0.0
 11
396.45513292
 21
85.99284553999999
 31
0.0
  0
LINE
  5
15B
330
1F
100
AcDbEntity
  8
BOTTOMOVERLAY
100
AcDbLine
 10
396.45513292
 20
87.65915666
 30
0.0
 11
396.95502524
 21
88.15904898
 31
0.0
  0
LINE
  5
15C
330
1F
100
AcDbEntity
  8
BOTTOMOVERLAY
100
AcDbLine
 10
396.95502524
 20
88.15904898
 30
0.0
 11
397.28828848
 21
88.32567806
 31
0.0
  0
LINE
  5
15D
330
1F
100
AcDbEntity
  8
BOTTOMOVERLAY
100
AcDbLine
 10
397.28828848
 20
88.32567806
 30
0.0
 11
397.7881808
 21
88.32567806
 31
0.0
  0
LINE
  5
15E
330
1F
100
AcDbEntity
  8
BOTTOMOVERLAY
100
AcDbLine
 10
397.7881808
 20
88.32567806
 30
0.0
 11
398.12144404
 21
88.15904898
 31
0.0
  0
LINE
  5
15F
330
1F
100
AcDbEntity
  8
BOTTOMOVERLAY
100
AcDbLine
 10
398.12144404
 20
88.15904898
 30
0.0
 11
398.28807312
 21
87.65915666
 31
0.0
  0
LINE
  5
160
330
1F
100
AcDbEntity
  8
BOTTOMOVERLAY
100
AcDbLine
 10
398.28807312
 20
87.65915666
 30
0.0
 11
398.28807312
 21
85.99284553999999
 31
0.0
  0
LINE
  5
161
330
1F
100
AcDbEntity
  8
BOTTOMOVERLAY
100
AcDbLine
 10
398.28807312
 20
87.65915666
 30
0.0
 11
398.78796544
 21
88.15904898
 31
0.0
  0
LINE
  5
162
330
1F
100
AcDbEntity
  8
BOTTOMOVERLAY
100
AcDbLine
 10
398.78796544
 20
88.15904898
 30
0.0
 11
399.12122868
 21
88.32567806
 31
0.0
  0
LINE
  5
163
330
1F
100
AcDbEntity
  8
BOTTOMOVERLAY
100
AcDbLine
 10
399.12122868
 20
88.32567806
 30
0.0
 11
399.621121
 21
88.32567806
 31
0.0
  0
LINE
  5
164
330
1F
100
AcDbEntity
  8
BOTTOMOVERLAY
100
AcDbLine
 10
399.621121
 20
88.32567806
 30
0.0
 11
399.95438424
 21
88.15904898
 31
0.0
  0
LINE
  5
165
330
1F
100
AcDbEntity
  8
BOTTOMOVERLAY
100
AcDbLine
 10
399.95438424
 20
88.15904898
 30
0.0
 11
400.12101332
 21
87.65915666
 31
0.0
  0
LINE
  5
166
330
1F
100
AcDbEntity
  8
BOTTOMOVERLAY
100
AcDbLine
 10
400.12101332
 20
87.65915666
 30
0.0
 11
400.12101332
 21
85.99284553999999
 31
0.0
  0
LINE
  5
167
330
1F
100
AcDbEntity
  8
BOTTOMOVERLAY
100
AcDbLine
 10
404.96997492
 20
89.49209685999999
 30
0.0
 11
404.63671422
 21
89.32546524
 31
0.0
  0
LINE
  5
168
330
1F
100
AcDbEntity
  8
BOTTOMOVERLAY
100
AcDbLine
 10
404.63671422
 20
89.32546524
 30
0.0
 11
404.30345352
 21
88.99220453999999
 31
0.0
  0
LINE
  5
169
330
1F
100
AcDbEntity
  8
BOTTOMOVERLAY
100
AcDbLine
 10
404.30345352
 20
88.99220453999999
 30
0.0
 11
404.1368219
 21
88.6589413
 31
0.0
  0
LINE
  5
16A
330
1F
100
AcDbEntity
  8
BOTTOMOVERLAY
100
AcDbLine
 10
404.1368219
 20
88.6589413
 30
0.0
 11
403.97019028
 21
88.15904898
 31
0.0
  0
LINE
  5
16B
330
1F
100
AcDbEntity
  8
BOTTOMOVERLAY
100
AcDbLine
 10
403.97019028
 20
88.15904898
 30
0.0
 11
403.97019028
 21
87.32589342
 31
0.0
  0
LINE
  5
16C
330
1F
100
AcDbEntity
  8
BOTTOMOVERLAY
100
AcDbLine
 10
403.97019028
 20
87.32589342
 30
0.0
 11
404.1368219
 21
86.8260011
 31
0.0
  0
LINE
  5
16D
330
1F
100
AcDbEntity
  8
BOTTOMOVERLAY
100
AcDbLine
 10
404.1368219
 20
86.8260011
 30
0.0
 11
404.30345352
 21
86.49273785999999
 31
0.0
  0
LINE
  5
16E
330
1F
100
AcDbEntity
  8
BOTTOMOVERLAY
100
AcDbLine
 10
404.30345352
 20
86.49273785999999
 30
0.0
 11
404.63671422
 21
86.15947716
 31
0.0
  0
LINE
  5
16F
330
1F
100
AcDbEntity
  8
BOTTOMOVERLAY
100
AcDbLine
 10
404.63671422
 20
86.15947716
 30
0.0
 11
404.96997492
 21
85.99284553999999
 31
0.0
  0
LINE
  5
170
330
1F
100
AcDbEntity
  8
BOTTOMOVERLAY
100
AcDbLine
 10
404.96997492
 20
85.99284553999999
 30
0.0
 11
405.6365014
 21
85.99284553999999
 31
0.0
  0
LINE
  5
171
330
1F
100
AcDbEntity
  8
BOTTOMOVERLAY
100
AcDbLine
 10
405.6365014
 20
85.99284553999999
 30
0.0
 11
405.9697621
 21
86.15947716
 31
0.0
  0
LINE
  5
172
330
1F
100
AcDbEntity
  8
BOTTOMOVERLAY
100
AcDbLine
 10
405.9697621
 20
86.15947716
 30
0.0
 11
406.3030228
 21
86.49273785999999
 31
0.0
  0
LINE
  5
173
330
1F
100
AcDbEntity
  8
BOTTOMOVERLAY
100
AcDbLine
 10
406.3030228
 20
86.49273785999999
 30
0.0
 11
406.46965442
 21
86.8260011
 31
0.0
  0
LINE
  5
174
330
1F
100
AcDbEntity
  8
BOTTOMOVERLAY
100
AcDbLine
 10
406.46965442
 20
86.8260011
 30
0.0
 11
406.63628604
 21
87.32589342
 31
0.0
  0
LINE
  5
175
330
1F
100
AcDbEntity
  8
BOTTOMOVERLAY
100
AcDbLine
 10
406.63628604
 20
87.32589342
 30
0.0
 11
406.63628604
 21
88.15904898
 31
0.0
  0
LINE
  5
176
330
1F
100
AcDbEntity
  8
BOTTOMOVERLAY
100
AcDbLine
 10
406.63628604
 20
88.15904898
 30
0.0
 11
406.46965442
 21
88.6589413
 31
0.0
  0
LINE
  5
177
330
1F
100
AcDbEntity
  8
BOTTOMOVERLAY
100
AcDbLine
 10
406.46965442
 20
88.6589413
 30
0.0
 11
406.3030228
 21
88.99220453999999
 31
0.0
  0
LINE
  5
178
330
1F
100
AcDbEntity
  8
BOTTOMOVERLAY
100
AcDbLine
 10
406.3030228
 20
88.99220453999999
 30
0.0
 11
405.9697621
 21
89.32546524
 31
0.0
  0
LINE
  5
179
330
1F
100
AcDbEntity
  8
BOTTOMOVERLAY
100
AcDbLine
 10
405.9697621
 20
89.32546524
 30
0.0
 11
405.6365014
 21
89.49209685999999
 31
0.0
  0
LINE
  5
17A
330
1F
100
AcDbEntity
  8
BOTTOMOVERLAY
100
AcDbLine
 10
405.6365014
 20
89.49209685999999
 30
0.0
 11
404.96997492
 21
89.49209685999999
 31
0.0
  0
LINE
  5
17B
330
1F
100
AcDbEntity
  8
BOTTOMOVERLAY
100
AcDbLine
 10
407.45277666
 20
88.32567806
 30
0.0
 11
408.4525613
 21
85.99284553999999
 31
0.0
  0
LINE
  5
17C
330
1F
100
AcDbEntity
  8
BOTTOMOVERLAY
100
AcDbLine
 10
409.45234848
 20
88.32567806
 30
0.0
 11
408.4525613
 21
85.99284553999999
 31
0.0
  0
LINE
  5
17D
330
1F
100
AcDbEntity
  8
BOTTOMOVERLAY
100
AcDbLine
 10
410.01889294
 20
87.32589342
 30
0.0
 11
412.01846476
 21
87.32589342
 31
0.0
  0
LINE
  5
17E
330
1F
100
AcDbEntity
  8
BOTTOMOVERLAY
100
AcDbLine
 10
412.01846476
 20
87.32589342
 30
0.0
 11
412.01846476
 21
87.65915666
 31
0.0
  0
LINE
  5
17F
330
1F
100
AcDbEntity
  8
BOTTOMOVERLAY
100
AcDbLine
 10
412.01846476
 20
87.65915666
 30
0.0
 11
411.85183314
 21
87.99241735999999
 31
0.0
  0
LINE
  5
180
330
1F
100
AcDbEntity
  8
BOTTOMOVERLAY
100
AcDbLine
 10
411.85183314
 20
87.99241735999999
 30
0.0
 11
411.68520406
 21
88.15904898
 31
0.0
  0
LINE
  5
181
330
1F
100
AcDbEntity
  8
BOTTOMOVERLAY
100
AcDbLine
 10
411.68520406
 20
88.15904898
 30
0.0
 11
411.35194082
 21
88.32567806
 31
0.0
  0
LINE
  5
182
330
1F
100
AcDbEntity
  8
BOTTOMOVERLAY
100
AcDbLine
 10
411.35194082
 20
88.32567806
 30
0.0
 11
410.8520485
 21
88.32567806
 31
0.0
  0
LINE
  5
183
330
1F
100
AcDbEntity
  8
BOTTOMOVERLAY
100
AcDbLine
 10
410.8520485
 20
88.32567806
 30
0.0
 11
410.51878526
 21
88.15904898
 31
0.0
  0
LINE
  5
184
330
1F
100
AcDbEntity
  8
BOTTOMOVERLAY
100
AcDbLine
 10
410.51878526
 20
88.15904898
 30
0.0
 11
410.18552456
 21
87.82578574
 31
0.0
  0
LINE
  5
185
330
1F
100
AcDbEntity
  8
BOTTOMOVERLAY
100
AcDbLine
 10
410.18552456
 20
87.82578574
 30
0.0
 11
410.01889294
 21
87.32589342
 31
0.0
  0
LINE
  5
186
330
1F
100
AcDbEntity
  8
BOTTOMOVERLAY
100
AcDbLine
 10
410.01889294
 20
87.32589342
 30
0.0
 11
410.01889294
 21
86.99263017999999
 31
0.0
  0
LINE
  5
187
330
1F
100
AcDbEntity
  8
BOTTOMOVERLAY
100
AcDbLine
 10
410.01889294
 20
86.99263017999999
 30
0.0
 11
410.18552456
 21
86.49273785999999
 31
0.0
  0
LINE
  5
188
330
1F
100
AcDbEntity
  8
BOTTOMOVERLAY
100
AcDbLine
 10
410.18552456
 20
86.49273785999999
 30
0.0
 11
410.51878526
 21
86.15947716
 31
0.0
  0
LINE
  5
189
330
1F
100
AcDbEntity
  8
BOTTOMOVERLAY
100
AcDbLine
 10
410.51878526
 20
86.15947716
 30
0.0
 11
410.8520485
 21
85.99284553999999
 31
0.0
  0
LINE
  5
18A
330
1F
100
AcDbEntity
  8
BOTTOMOVERLAY
100
AcDbLine
 10
410.8520485
 20
85.99284553999999
 30
0.0
 11
411.35194082
 21
85.99284553999999
 31
0.0
  0
LINE
  5
18B
330
1F
100
AcDbEntity
  8
BOTTOMOVERLAY
100
AcDbLine
 10
411.35194082
 20
85.99284553999999
 30
0.0
 11
411.68520406
 21
86.15947716
 31
0.0
  0
LINE
  5
18C
330
1F
100
AcDbEntity
  8
BOTTOMOVERLAY
100
AcDbLine
 10
411.68520406
 20
86.15947716
 30
0.0
 11
412.01846476
 21
86.49273785999999
 31
0.0
  0
LINE
  5
18D
330
1F
100
AcDbEntity
  8
BOTTOMOVERLAY
100
AcDbLine
 10
412.76830324
 20
88.32567806
 30
0.0
 11
412.76830324
 21
85.99284553999999
 31
0.0
  0
LINE
  5
18E
330
1F
100
AcDbEntity
  8
BOTTOMOVERLAY
100
AcDbLine
 10
412.76830324
 20
87.32589342
 30
0.0
 11
412.93493486
 21
87.82578574
 31
0.0
  0
LINE
  5
18F
330
1F
100
AcDbEntity
  8
BOTTOMOVERLAY
100
AcDbLine
 10
412.93493486
 20
87.82578574
 30
0.0
 11
413.26819556
 21
88.15904898
 31
0.0
  0
LINE
  5
190
330
1F
100
AcDbEntity
  8
BOTTOMOVERLAY
100
AcDbLine
 10
413.26819556
 20
88.15904898
 30
0.0
 11
413.6014588
 21
88.32567806
 31
0.0
  0
LINE
  5
191
330
1F
100
AcDbEntity
  8
BOTTOMOVERLAY
100
AcDbLine
 10
413.6014588
 20
88.32567806
 30
0.0
 11
414.10135112
 21
88.32567806
 31
0.0
  0
LINE
  5
192
330
1F
100
AcDbEntity
  8
BOTTOMOVERLAY
100
AcDbLine
 10
414.41794942
 20
89.49209685999999
 30
0.0
 11
414.41794942
 21
85.99284553999999
 31
0.0
  0
LINE
  5
193
330
1F
100
AcDbEntity
  8
BOTTOMOVERLAY
100
AcDbLine
 10
417.1506973199999
 20
88.32567806
 30
0.0
 11
417.1506973199999
 21
85.99284553999999
 31
0.0
  0
LINE
  5
194
330
1F
100
AcDbEntity
  8
BOTTOMOVERLAY
100
AcDbLine
 10
417.1506973199999
 20
87.82578574
 30
0.0
 11
416.81743662
 21
88.15904898
 31
0.0
  0
LINE
  5
195
330
1F
100
AcDbEntity
  8
BOTTOMOVERLAY
100
AcDbLine
 10
416.81743662
 20
88.15904898
 30
0.0
 11
416.48417338
 21
88.32567806
 31
0.0
  0
LINE
  5
196
330
1F
100
AcDbEntity
  8
BOTTOMOVERLAY
100
AcDbLine
 10
416.48417338
 20
88.32567806
 30
0.0
 11
415.98428106
 21
88.32567806
 31
0.0
  0
LINE
  5
197
330
1F
100
AcDbEntity
  8
BOTTOMOVERLAY
100
AcDbLine
 10
415.98428106
 20
88.32567806
 30
0.0
 11
415.65101782
 21
88.15904898
 31
0.0
  0
LINE
  5
198
330
1F
100
AcDbEntity
  8
BOTTOMOVERLAY
100
AcDbLine
 10
415.65101782
 20
88.15904898
 30
0.0
 11
415.31775712
 21
87.82578574
 31
0.0
  0
LINE
  5
199
330
1F
100
AcDbEntity
  8
BOTTOMOVERLAY
100
AcDbLine
 10
415.31775712
 20
87.82578574
 30
0.0
 11
415.1511255
 21
87.32589342
 31
0.0
  0
LINE
  5
19A
330
1F
100
AcDbEntity
  8
BOTTOMOVERLAY
100
AcDbLine
 10
415.1511255
 20
87.32589342
 30
0.0
 11
415.1511255
 21
86.99263017999999
 31
0.0
  0
LINE
  5
19B
330
1F
100
AcDbEntity
  8
BOTTOMOVERLAY
100
AcDbLine
 10
415.1511255
 20
86.99263017999999
 30
0.0
 11
415.31775712
 21
86.49273785999999
 31
0.0
  0
LINE
  5
19C
330
1F
100
AcDbEntity
  8
BOTTOMOVERLAY
100
AcDbLine
 10
415.31775712
 20
86.49273785999999
 30
0.0
 11
415.65101782
 21
86.15947716
 31
0.0
  0
LINE
  5
19D
330
1F
100
AcDbEntity
  8
BOTTOMOVERLAY
100
AcDbLine
 10
415.65101782
 20
86.15947716
 30
0.0
 11
415.98428106
 21
85.99284553999999
 31
0.0
  0
LINE
  5
19E
330
1F
100
AcDbEntity
  8
BOTTOMOVERLAY
100
AcDbLine
 10
415.98428106
 20
85.99284553999999
 30
0.0
 11
416.48417338
 21
85.99284553999999
 31
0.0
  0
LINE
  5
19F
330
1F
100
AcDbEntity
  8
BOTTOMOVERLAY
100
AcDbLine
 10
416.48417338
 20
85.99284553999999
 30
0.0
 11
416.81743662
 21
86.15947716
 31
0.0
  0
LINE
  5
1A0
330
1F
100
AcDbEntity
  8
BOTTOMOVERLAY
100
AcDbLine
 10
416.81743662
 20
86.15947716
 30
0.0
 11
417.1506973199999
 21
86.49273785999999
 31
0.0
  0
LINE
  5
1A1
330
1F
100
AcDbEntity
  8
BOTTOMOVERLAY
100
AcDbLine
 10
418.25046144
 20
88.32567806
 30
0.0
 11
419.25024608
 21
85.99284553999999
 31
0.0
  0
LINE
  5
1A2
330
1F
100
AcDbEntity
  8
BOTTOMOVERLAY
100
AcDbLine
 10
420.25003326
 20
88.32567806
 30
0.0
 11
419.25024608
 21
85.99284553999999
 31
0.0
  0
LINE
  5
1A3
330
1F
100
AcDbEntity
  8
BOTTOMOVERLAY
100
AcDbLine
 10
419.25024608
 20
85.99284553999999
 30
0.0
 11
418.91698538
 21
85.3263216
 31
0.0
  0
LINE
  5
1A4
330
1F
100
AcDbEntity
  8
BOTTOMOVERLAY
100
AcDbLine
 10
418.91698538
 20
85.3263216
 30
0.0
 11
418.58372214
 21
84.99306089999999
 31
0.0
  0
LINE
  5
1A5
330
1F
100
AcDbEntity
  8
BOTTOMOVERLAY
100
AcDbLine
 10
418.58372214
 20
84.99306089999999
 30
0.0
 11
418.25046144
 21
84.82642928
 31
0.0
  0
LINE
  5
1A6
330
1F
100
AcDbEntity
  8
BOTTOMOVERLAY
100
AcDbLine
 10
418.25046144
 20
84.82642928
 30
0.0
 11
418.0838298199999
 21
84.82642928
 31
0.0
  0
LWPOLYLINE
  5
1A7
330
1F
100
AcDbEntity
  8
PADHOLELAYER
100
AcDbPolyline
 90
        2
 70
     1
 43
1.07499912
 10
445.23034906
 20
160.63284866
 42
1.0
 10
446.30534818
 20
160.63284866
 42
1.0
  0
LWPOLYLINE
  5
1A8
330
1F
100
AcDbEntity
  8
PADHOLELAYER
100
AcDbPolyline
 90
        2
 70
     1
 43
1.07499912
 10
445.23034906
 20
211.63284826
 42
1.0
 10
446.30534818
 20
211.63284826
 42
1.0
  0
LWPOLYLINE
  5
1A9
330
1F
100
AcDbEntity
  8
PADHOLELAYER
100
AcDbPolyline
 90
        2
 70
     1
 43
1.07499912
 10
388.23034876
 20
211.63284826
 42
1.0
 10
389.30534788
 20
211.63284826
 42
1.0
  0
LWPOLYLINE
  5
1AA
330
1F
100
AcDbEntity
  8
PADHOLELAYER
100
AcDbPolyline
 90
        2
 70
     1
 43
1.07499912
 10
388.23034876
 20
160.63284866
 42
1.0
 10
389.30534788
 20
160.63284866
 42
1.0
  0
LWPOLYLINE
  5
1AB
330
1F
100
AcDbEntity
  8
BOTTOMPASTE
100
AcDbPolyline
 90
        2
 70
     1
 43
0.0
 10
410.20784608
 20
213.09284534
 42
1.0
 10
410.20784608
 20
213.09284534
 42
1.0
  0
TEXT
  5
1AC
330
1F
100
AcDbEntity
  8
BOTTOMOVERLAY
100
AcDbText
 10
410.20784608
 20
214.09284588
 30
0.0
 40
0.7000011399999999
  1
TP48_14
 50
270.0
 71
     2
100
AcDbText
  0
LWPOLYLINE
  5
1AD
330
1F
100
AcDbEntity
  8
BOTTOMPASTE
100
AcDbPolyline
 90
        2
 70
     1
 43
0.0
 10
389.55784674
 20
195.44283746
 42
1.0
 10
389.55784674
 20
195.44283746
 42
1.0
  0
TEXT
  5
1AE
330
1F
100
AcDbEntity
  8
BOTTOMOVERLAY
100
AcDbText
 10
390.30784524
 20
196.4830589
 30
0.0
 40
0.7000011399999999
  1
TP48_1
 71
     2
100
AcDbText
  0
LWPOLYLINE
  5
1AF
330
1F
100
AcDbEntity
  8
BOTTOMPASTE
100
AcDbPolyline
 90
        2
 70
     1
 43
0.0
 10
389.4783295
 20
204.96784508
 42
1.0
 10
389.4783295
 20
204.96784508
 42
1.0
  0
TEXT
  5
1B0
330
1F
100
AcDbEntity
  8
BOTTOMOVERLAY
100
AcDbText
 10
394.29401202
 20
204.69284436
 30
0.0
 40
0.7000011399999999
  1
TP48_2
 71
     2
100
AcDbText
  0
LWPOLYLINE
  5
1B1
330
1F
100
AcDbEntity
  8
BOTTOMPASTE
100
AcDbPolyline
 90
        2
 70
     1
 43
0.0
 10
389.55784674
 20
190.74283924
 42
1.0
 10
389.55784674
 20
190.74283924
 42
1.0
  0
TEXT
  5
1B2
330
1F
100
AcDbEntity
  8
BOTTOMOVERLAY
100
AcDbText
 10
390.33284646
 20
191.61784638
 30
0.0
 40
0.7000011399999999
  1
TP48_3
 71
     2
100
AcDbText
  0
LWPOLYLINE
  5
1B3
330
1F
100
AcDbEntity
  8
BOTTOMPASTE
100
AcDbPolyline
 90
        2
 70
     1
 43
0.0
 10
389.55784674
 20
200.14283568
 42
1.0
 10
389.55784674
 20
200.14283568
 42
1.0
  0
TEXT
  5
1B4
330
1F
100
AcDbEntity
  8
BOTTOMOVERLAY
100
AcDbText
 10
391.35784568
 20
201.00754312
 30
0.0
 40
0.7000011399999999
  1
TP48_4
 71
     2
100
AcDbText
  0
LWPOLYLINE
  5
1B5
330
1F
100
AcDbEntity
  8
BOTTOMPASTE
100
AcDbPolyline
 90
        2
 70
     1
 43
0.0
 10
389.55784674
 20
186.04284102
 42
1.0
 10
389.55784674
 20
186.04284102
 42
1.0
  0
TEXT
  5
1B6
330
1F
100
AcDbEntity
  8
BOTTOMOVERLAY
100
AcDbText
 10
390.45784494
 20
186.96784552
 30
0.0
 40
0.7000011399999999
  1
TP48_5
 71
     2
100
AcDbText
  0
LWPOLYLINE
  5
1B7
330
1F
100
AcDbEntity
  8
BOTTOMPASTE
100
AcDbPolyline
 90
        2
 70
     1
 43
0.0
 10
391.4328468
 20
212.76784472
 42
1.0
 10
391.4328468
 20
212.76784472
 42
1.0
  0
TEXT
  5
1B8
330
1F
100
AcDbEntity
  8
BOTTOMOVERLAY
100
AcDbText
 10
391.4828467
 20
213.82917356
 30
0.0
 40
0.7000011399999999
  1
TP48_6
 50
270.0
 71
     2
100
AcDbText
  0
LWPOLYLINE
  5
1B9
330
1F
100
AcDbEntity
  8
BOTTOMPASTE
100
AcDbPolyline
 90
        2
 70
     1
 43
0.0
 10
389.55784674
 20
181.3428428
 42
1.0
 10
389.55784674
 20
181.3428428
 42
1.0
  0
TEXT
  5
1BA
330
1F
100
AcDbEntity
  8
BOTTOMOVERLAY
100
AcDbText
 10
390.36083218
 20
182.11784506
 30
0.0
 40
0.7000011399999999
  1
TP48_7
 71
     2
100
AcDbText
  0
LWPOLYLINE
  5
1BB
330
1F
100
AcDbEntity
  8
BOTTOMPASTE
100
AcDbPolyline
 90
        2
 70
     1
 43
0.0
 10
396.13284502
 20
212.71784482
 42
1.0
 10
396.13284502
 20
212.71784482
 42
1.0
  0
TEXT
  5
1BC
330
1F
100
AcDbEntity
  8
BOTTOMOVERLAY
100
AcDbText
 10
396.15784624
 20
213.59284434
 30
0.0
 40
0.7000011399999999
  1
TP48_8
 50
270.0
 71
     2
100
AcDbText
  0
LWPOLYLINE
  5
1BD
330
1F
100
AcDbEntity
  8
BOTTOMPASTE
100
AcDbPolyline
 90
        2
 70
     1
 43
0.0
 10
389.55784674
 20
176.64284458
 42
1.0
 10
389.55784674
 20
176.64284458
 42
1.0
  0
TEXT
  5
1BE
330
1F
100
AcDbEntity
  8
BOTTOMOVERLAY
100
AcDbText
 10
390.48284616
 20
177.4365133
 30
0.0
 40
0.7000011399999999
  1
TP48_9
 71
     2
100
AcDbText
  0
LWPOLYLINE
  5
1BF
330
1F
100
AcDbEntity
  8
BOTTOMPASTE
100
AcDbPolyline
 90
        2
 70
     1
 43
0.0
 10
400.88284568
 20
212.71784482
 42
1.0
 10
400.88284568
 20
212.71784482
 42
1.0
  0
TEXT
  5
1C0
330
1F
100
AcDbEntity
  8
BOTTOMOVERLAY
100
AcDbText
 10
400.88284568
 20
213.66784546
 30
0.0
 40
0.7000011399999999
  1
TP48_10
 50
270.0
 71
     2
100
AcDbText
  0
LWPOLYLINE
  5
1C1
330
1F
100
AcDbEntity
  8
BOTTOMPASTE
100
AcDbPolyline
 90
        2
 70
     1
 43
0.0
 10
389.55784674
 20
171.94284636
 42
1.0
 10
389.55784674
 20
171.94284636
 42
1.0
  0
TEXT
  5
1C2
330
1F
100
AcDbEntity
  8
BOTTOMOVERLAY
100
AcDbText
 10
390.57034662
 20
172.76784598
 30
0.0
 40
0.7000011399999999
  1
TP48_11
 71
     2
100
AcDbText
  0
LWPOLYLINE
  5
1C3
330
1F
100
AcDbEntity
  8
BOTTOMPASTE
100
AcDbPolyline
 90
        2
 70
     1
 43
0.0
 10
405.53284654
 20
212.79284594
 42
1.0
 10
405.53284654
 20
212.79284594
 42
1.0
  0
TEXT
  5
1C4
330
1F
100
AcDbEntity
  8
BOTTOMOVERLAY
100
AcDbText
 10
405.45784542
 20
213.74284658
 30
0.0
 40
0.7000011399999999
  1
TP48_12
 50
270.0
 71
     2
100
AcDbText
  0
LWPOLYLINE
  5
1C5
330
1F
100
AcDbEntity
  8
BOTTOMPASTE
100
AcDbPolyline
 90
        2
 70
     1
 43
0.0
 10
390.82333316
 20
168.09284644
 42
1.0
 10
390.82333316
 20
168.09284644
 42
1.0
  0
TEXT
  5
1C6
330
1F
100
AcDbEntity
  8
BOTTOMOVERLAY
100
AcDbText
 10
390.36083218
 20
168.0928439
 30
0.0
 40
0.7000011399999999
  1
TP48_13
 71
     2
100
AcDbText
  0
LWPOLYLINE
  5
1C7
330
1F
100
AcDbEntity
  8
BOTTOMPASTE
100
AcDbPolyline
 90
        2
 70
     1
 43
0.0
 10
391.6328464
 20
161.74284644
 42
1.0
 10
391.6328464
 20
161.74284644
 42
1.0
  0
TEXT
  5
1C8
330
1F
100
AcDbEntity
  8
BOTTOMOVERLAY
100
AcDbText
 10
391.25784588
 20
156.26784596
 30
0.0
 40
0.7000011399999999
  1
TP48_15
 50
270.0
 71
     2
100
AcDbText
  0
LWPOLYLINE
  5
1C9
330
1F
100
AcDbEntity
  8
BOTTOMPASTE
100
AcDbPolyline
 90
        2
 70
     1
 43
0.0
 10
415.13284512
 20
213.01784422
 42
1.0
 10
415.13284512
 20
213.01784422
 42
1.0
  0
TEXT
  5
1CA
330
1F
100
AcDbEntity
  8
BOTTOMOVERLAY
100
AcDbText
 10
415.05784654
 20
214.01784476
 30
0.0
 40
0.7000011399999999
  1
TP48_16
 50
270.0
 71
     2
100
AcDbText
  0
LWPOLYLINE
  5
1CB
330
1F
100
AcDbEntity
  8
BOTTOMPASTE
100
AcDbPolyline
 90
        2
 70
     1
 43
0.0
 10
444.18784924
 20
163.61284778
 42
1.0
 10
444.18784924
 20
163.61284778
 42
1.0
  0
TEXT
  5
1CC
330
1F
100
AcDbEntity
  8
BOTTOMOVERLAY
100
AcDbText
 10
448.23784876
 20
164.59284836
 30
0.0
 40
0.7000011399999999
  1
TP48_17
 71
     2
100
AcDbText
  0
LWPOLYLINE
  5
1CD
330
1F
100
AcDbEntity
  8
BOTTOMPASTE
100
AcDbPolyline
 90
        2
 70
     1
 43
0.0
 10
419.7078474
 20
212.94284564
 42
1.0
 10
419.7078474
 20
212.94284564
 42
1.0
  0
TEXT
  5
1CE
330
1F
100
AcDbEntity
  8
BOTTOMOVERLAY
100
AcDbText
 10
419.58284638
 20
213.74284658
 30
0.0
 40
0.7000011399999999
  1
TP48_18
 50
270.0
 71
     2
100
AcDbText
  0
LWPOLYLINE
  5
1CF
330
1F
100
AcDbEntity
  8
BOTTOMPASTE
100
AcDbPolyline
 90
        2
 70
     1
 43
0.0
 10
445.5578465
 20
167.2428456
 42
1.0
 10
445.5578465
 20
167.2428456
 42
1.0
  0
TEXT
  5
1D0
330
1F
100
AcDbEntity
  8
BOTTOMOVERLAY
100
AcDbText
 10
448.25784618
 20
165.81033132
 30
0.0
 40
0.7000011399999999
  1
TP48_19
 71
     2
100
AcDbText
  0
LWPOLYLINE
  5
1D1
330
1F
100
AcDbEntity
  8
BOTTOMPASTE
100
AcDbPolyline
 90
        2
 70
     1
 43
0.0
 10
424.20784602
 20
212.81784462
 42
1.0
 10
424.20784602
 20
212.81784462
 42
1.0
  0
TEXT
  5
1D2
330
1F
100
AcDbEntity
  8
BOTTOMOVERLAY
100
AcDbText
 10
424.18284734
 20
213.80667932
 30
0.0
 40
0.7000011399999999
  1
TP48_20
 50
270.0
 71
     2
100
AcDbText
  0
LWPOLYLINE
  5
1D3
330
1F
100
AcDbEntity
  8
BOTTOMPASTE
100
AcDbPolyline
 90
        2
 70
     1
 43
0.0
 10
444.28284524
 20
173.0321279
 42
1.0
 10
444.28284524
 20
173.0321279
 42
1.0
  0
TEXT
  5
1D4
330
1F
100
AcDbEntity
  8
BOTTOMOVERLAY
100
AcDbText
 10
448.10784648
 20
173.81784642
 30
0.0
 40
0.7000011399999999
  1
TP48_21
 71
     2
100
AcDbText
  0
LWPOLYLINE
  5
1D5
330
1F
100
AcDbEntity
  8
BOTTOMPASTE
100
AcDbPolyline
 90
        2
 70
     1
 43
0.0
 10
429.00784658
 20
213.09284534
 42
1.0
 10
429.00784658
 20
213.09284534
 42
1.0
  0
TEXT
  5
1D6
330
1F
100
AcDbEntity
  8
BOTTOMOVERLAY
100
AcDbText
 10
429.20784618
 20
214.14284578
 30
0.0
 40
0.7000011399999999
  1
TP48_22
 50
270.0
 71
     2
100
AcDbText
  0
LWPOLYLINE
  5
1D7
330
1F
100
AcDbEntity
  8
BOTTOMPASTE
100
AcDbPolyline
 90
        2
 70
     1
 43
0.0
 10
444.28284524
 20
177.6214126
 42
1.0
 10
444.28284524
 20
177.6214126
 42
1.0
  0
TEXT
  5
1D8
330
1F
100
AcDbEntity
  8
BOTTOMOVERLAY
100
AcDbText
 10
448.5328469
 20
178.46784474
 30
0.0
 40
0.7000011399999999
  1
TP48_23
 71
     2
100
AcDbText
  0
LWPOLYLINE
  5
1D9
330
1F
100
AcDbEntity
  8
BOTTOMPASTE
100
AcDbPolyline
 90
        2
 70
     1
 43
0.0
 10
433.5578451
 20
212.89284574
 42
1.0
 10
433.5578451
 20
212.89284574
 42
1.0
  0
TEXT
  5
1DA
330
1F
100
AcDbEntity
  8
BOTTOMOVERLAY
100
AcDbText
 10
433.70784734
 20
214.01784476
 30
0.0
 40
0.7000011399999999
  1
TP48_24
 50
270.0
 71
     2
100
AcDbText
  0
LWPOLYLINE
  5
1DB
330
1F
100
AcDbEntity
  8
BOTTOMPASTE
100
AcDbPolyline
 90
        2
 70
     1
 43
0.0
 10
444.28284524
 20
182.2106973
 42
1.0
 10
444.28284524
 20
182.2106973
 42
1.0
  0
TEXT
  5
1DC
330
1F
100
AcDbEntity
  8
BOTTOMOVERLAY
100
AcDbText
 10
448.5328469
 20
182.99666474
 30
0.0
 40
0.7000011399999999
  1
TP48_25
 71
     2
100
AcDbText
  0
LWPOLYLINE
  5
1DD
330
1F
100
AcDbEntity
  8
BOTTOMPASTE
100
AcDbPolyline
 90
        2
 70
     1
 43
0.0
 10
438.30784576
 20
212.84284584
 42
1.0
 10
438.30784576
 20
212.84284584
 42
1.0
  0
TEXT
  5
1DE
330
1F
100
AcDbEntity
  8
BOTTOMOVERLAY
100
AcDbText
 10
438.45784546
 20
213.91784496
 30
0.0
 40
0.7000011399999999
  1
TP48_26
 50
270.0
 71
     2
100
AcDbText
  0
LWPOLYLINE
  5
1DF
330
1F
100
AcDbEntity
  8
BOTTOMPASTE
100
AcDbPolyline
 90
        2
 70
     1
 43
0.0
 10
444.28284524
 20
186.799982
 42
1.0
 10
444.28284524
 20
186.799982
 42
1.0
  0
TEXT
  5
1E0
330
1F
100
AcDbEntity
  8
BOTTOMOVERLAY
100
AcDbText
 10
448.5328469
 20
187.79284514
 30
0.0
 40
0.7000011399999999
  1
TP48_27
 71
     2
100
AcDbText
  0
LWPOLYLINE
  5
1E1
330
1F
100
AcDbEntity
  8
BOTTOMPASTE
100
AcDbPolyline
 90
        2
 70
     1
 43
0.0
 10
443.0828451
 20
212.84284584
 42
1.0
 10
443.0828451
 20
212.84284584
 42
1.0
  0
TEXT
  5
1E2
330
1F
100
AcDbEntity
  8
BOTTOMOVERLAY
100
AcDbText
 10
443.132845
 20
213.80667932
 30
0.0
 40
0.7000011399999999
  1
TP48_28
 50
270.0
 71
     2
100
AcDbText
  0
LWPOLYLINE
  5
1E3
330
1F
100
AcDbEntity
  8
BOTTOMPASTE
100
AcDbPolyline
 90
        2
 70
     1
 43
0.0
 10
444.28284524
 20
191.3892667
 42
1.0
 10
444.28284524
 20
191.3892667
 42
1.0
  0
TEXT
  5
1E4
330
1F
100
AcDbEntity
  8
BOTTOMOVERLAY
100
AcDbText
 10
448.3328473
 20
192.47919086
 30
0.0
 40
0.7000011399999999
  1
TP48_29
 71
     2
100
AcDbText
  0
LWPOLYLINE
  5
1E5
330
1F
100
AcDbEntity
  8
BOTTOMPASTE
100
AcDbPolyline
 90
        2
 70
     1
 43
0.0
 10
444.56036056
 20
201.14284638
 42
1.0
 10
444.56036056
 20
201.14284638
 42
1.0
  0
TEXT
  5
1E6
330
1F
100
AcDbEntity
  8
BOTTOMOVERLAY
100
AcDbText
 10
448.70784528
 20
201.88218958
 30
0.0
 40
0.7000011399999999
  1
TP48_30
 71
     2
100
AcDbText
  0
LWPOLYLINE
  5
1E7
330
1F
100
AcDbEntity
  8
BOTTOMPASTE
100
AcDbPolyline
 90
        2
 70
     1
 43
0.0
 10
444.28284524
 20
195.9785514
 42
1.0
 10
444.28284524
 20
195.9785514
 42
1.0
  0
TEXT
  5
1E8
330
1F
100
AcDbEntity
  8
BOTTOMOVERLAY
100
AcDbText
 10
448.3328473
 20
196.84284482
 30
0.0
 40
0.7000011399999999
  1
TP48_31
 71
     2
100
AcDbText
  0
LWPOLYLINE
  5
1E9
330
1F
100
AcDbEntity
  8
BOTTOMPASTE
100
AcDbPolyline
 90
        2
 70
     1
 43
0.0
 10
445.10736226
 20
204.24284526
 42
1.0
 10
445.10736226
 20
204.24284526
 42
1.0
  0
TEXT
  5
1EA
330
1F
100
AcDbEntity
  8
BOTTOMOVERLAY
100
AcDbText
 10
448.65784538
 20
202.79284562
 30
0.0
 40
0.7000011399999999
  1
TP48_32
 71
     2
100
AcDbText
  0
LWPOLYLINE
  5
1EB
330
1F
100
AcDbEntity
  8
BOTTOMPASTE
100
AcDbPolyline
 90
        2
 70
     1
 43
0.0
 10
388.58284488
 20
193.17617448
 42
1.0
 10
388.58284488
 20
193.17617448
 42
1.0
  0
TEXT
  5
1EC
330
1F
100
AcDbEntity
  8
BOTTOMOVERLAY
100
AcDbText
 10
390.23284666
 20
193.99284544
 30
0.0
 40
0.7000011399999999
  1
TP49_1
 71
     2
100
AcDbText
  0
LWPOLYLINE
  5
1ED
330
1F
100
AcDbEntity
  8
BOTTOMPASTE
100
AcDbPolyline
 90
        2
 70
     1
 43
0.0
 10
389.50382856
 20
203.49284422
 42
1.0
 10
389.50382856
 20
203.49284422
 42
1.0
  0
TEXT
  5
1EE
330
1F
100
AcDbEntity
  8
BOTTOMOVERLAY
100
AcDbText
 10
391.35784568
 20
201.99284468
 30
0.0
 40
0.7000011399999999
  1
TP49_2
 71
     2
100
AcDbText
  0
LWPOLYLINE
  5
1EF
330
1F
100
AcDbEntity
  8
BOTTOMPASTE
100
AcDbPolyline
 90
        2
 70
     1
 43
0.0
 10
388.58284488
 20
188.45950878
 42
1.0
 10
388.58284488
 20
188.45950878
 42
1.0
  0
TEXT
  5
1F0
330
1F
100
AcDbEntity
  8
BOTTOMOVERLAY
100
AcDbText
 10
390.52701422
 20
189.2178461
 30
0.0
 40
0.7000011399999999
  1
TP49_3
 71
     2
100
AcDbText
  0
LWPOLYLINE
  5
1F1
330
1F
100
AcDbEntity
  8
BOTTOMPASTE
100
AcDbPolyline
 90
        2
 70
     1
 43
0.0
 10
388.58284488
 20
197.89284018
 42
1.0
 10
388.58284488
 20
197.89284018
 42
1.0
  0
TEXT
  5
1F2
330
1F
100
AcDbEntity
  8
BOTTOMOVERLAY
100
AcDbText
 10
390.6020128
 20
198.71784488
 30
0.0
 40
0.7000011399999999
  1
TP49_4
 71
     2
100
AcDbText
  0
LWPOLYLINE
  5
1F3
330
1F
100
AcDbEntity
  8
BOTTOMPASTE
100
AcDbPolyline
 90
        2
 70
     1
 43
0.0
 10
388.58284488
 20
183.74284308
 42
1.0
 10
388.58284488
 20
183.74284308
 42
1.0
  0
TEXT
  5
1F4
330
1F
100
AcDbEntity
  8
BOTTOMOVERLAY
100
AcDbText
 10
390.40784504
 20
184.54284656
 30
0.0
 40
0.7000011399999999
  1
TP49_5
 71
     2
100
AcDbText
  0
LWPOLYLINE
  5
1F5
330
1F
100
AcDbEntity
  8
BOTTOMPASTE
100
AcDbPolyline
 90
        2
 70
     1
 43
0.0
 10
390.48284616
 20
215.0178453
 42
1.0
 10
390.48284616
 20
215.0178453
 42
1.0
  0
TEXT
  5
1F6
330
1F
100
AcDbEntity
  8
BOTTOMOVERLAY
100
AcDbText
 10
388.78284702
 20
214.7678458
 30
0.0
 40
0.7000011399999999
  1
TP49_6
 50
270.0
 71
     2
100
AcDbText
  0
LWPOLYLINE
  5
1F7
330
1F
100
AcDbEntity
  8
BOTTOMPASTE
100
AcDbPolyline
 90
        2
 70
     1
 43
0.0
 10
388.58284488
 20
179.02617738
 42
1.0
 10
388.58284488
 20
179.02617738
 42
1.0
  0
TEXT
  5
1F8
330
1F
100
AcDbEntity
  8
BOTTOMOVERLAY
100
AcDbText
 10
390.38284636
 20
179.86784448
 30
0.0
 40
0.7000011399999999
  1
TP49_7
 71
     2
100
AcDbText
  0
LWPOLYLINE
  5
1F9
330
1F
100
AcDbEntity
  8
BOTTOMPASTE
100
AcDbPolyline
 90
        2
 70
     1
 43
0.0
 10
395.03284722
 20
214.8178457
 42
1.0
 10
395.03284722
 20
214.8178457
 42
1.0
  0
TEXT
  5
1FA
330
1F
100
AcDbEntity
  8
BOTTOMOVERLAY
100
AcDbText
 10
393.30784686
 20
214.59284488
 30
0.0
 40
0.7000011399999999
  1
TP49_8
 50
270.0
 71
     2
100
AcDbText
  0
LWPOLYLINE
  5
1FB
330
1F
100
AcDbEntity
  8
BOTTOMPASTE
100
AcDbPolyline
 90
        2
 70
     1
 43
0.0
 10
388.58284488
 20
174.30951168
 42
1.0
 10
388.58284488
 20
174.30951168
 42
1.0
  0
TEXT
  5
1FC
330
1F
100
AcDbEntity
  8
BOTTOMOVERLAY
100
AcDbText
 10
390.45784494
 20
175.09284514
 30
0.0
 40
0.7000011399999999
  1
TP49_9
 71
     2
100
AcDbText
  0
LWPOLYLINE
  5
1FD
330
1F
100
AcDbEntity
  8
BOTTOMPASTE
100
AcDbPolyline
 90
        2
 70
     1
 43
0.0
 10
399.93284504
 20
214.8678456
 42
1.0
 10
399.93284504
 20
214.8678456
 42
1.0
  0
TEXT
  5
1FE
330
1F
100
AcDbEntity
  8
BOTTOMOVERLAY
100
AcDbText
 10
398.2828458
 20
214.7178459
 30
0.0
 40
0.7000011399999999
  1
TP49_10
 50
270.0
 71
     2
100
AcDbText
  0
LWPOLYLINE
  5
1FF
330
1F
100
AcDbEntity
  8
BOTTOMPASTE
100
AcDbPolyline
 90
        2
 70
     1
 43
0.0
 10
388.58284488
 20
169.59284598
 42
1.0
 10
388.58284488
 20
169.59284598
 42
1.0
  0
TEXT
  5
200
330
1F
100
AcDbEntity
  8
BOTTOMOVERLAY
100
AcDbText
 10
390.55784728
 20
170.4178456
 30
0.0
 40
0.7000011399999999
  1
TP49_11
 71
     2
100
AcDbText
  0
LWPOLYLINE
  5
201
330
1F
100
AcDbEntity
  8
BOTTOMPASTE
100
AcDbPolyline
 90
        2
 70
     1
 43
0.0
 10
404.6328458
 20
215.29284602
 42
1.0
 10
404.6328458
 20
215.29284602
 42
1.0
  0
TEXT
  5
202
330
1F
100
AcDbEntity
  8
BOTTOMOVERLAY
100
AcDbText
 10
402.83284686
 20
214.64284478
 30
0.0
 40
0.7000011399999999
  1
TP49_12
 50
270.0
 71
     2
100
AcDbText
  0
LWPOLYLINE
  5
203
330
1F
100
AcDbEntity
  8
BOTTOMPASTE
100
AcDbPolyline
 90
        2
 70
     1
 43
0.0
 10
388.58284488
 20
167.41784652
 42
1.0
 10
388.58284488
 20
167.41784652
 42
1.0
  0
TEXT
  5
204
330
1F
100
AcDbEntity
  8
BOTTOMOVERLAY
100
AcDbText
 10
391.00784638
 20
165.36784554
 30
0.0
 40
0.7000011399999999
  1
TP49_13
 71
     2
100
AcDbText
  0
LWPOLYLINE
  5
205
330
1F
100
AcDbEntity
  8
BOTTOMPASTE
100
AcDbPolyline
 90
        2
 70
     1
 43
0.0
 10
409.25784544
 20
215.3678446
 42
1.0
 10
409.25784544
 20
215.3678446
 42
1.0
  0
TEXT
  5
206
330
1F
100
AcDbEntity
  8
BOTTOMOVERLAY
100
AcDbText
 10
407.58284498
 20
214.29284548
 30
0.0
 40
0.7000011399999999
  1
TP49_14
 50
270.0
 71
     2
100
AcDbText
  0
LWPOLYLINE
  5
207
330
1F
100
AcDbEntity
  8
BOTTOMPASTE
100
AcDbPolyline
 90
        2
 70
     1
 43
0.0
 10
390.53284606
 20
163.34284578
 42
1.0
 10
390.53284606
 20
163.34284578
 42
1.0
  0
TEXT
  5
208
330
1F
100
AcDbEntity
  8
BOTTOMOVERLAY
100
AcDbText
 10
391.03284506
 20
164.1678454
 30
0.0
 40
0.7000011399999999
  1
TP49_15
 71
     2
100
AcDbText
  0
LWPOLYLINE
  5
209
330
1F
100
AcDbEntity
  8
BOTTOMPASTE
100
AcDbPolyline
 90
        2
 70
     1
 43
0.0
 10
414.08284722
 20
215.19284622
 42
1.0
 10
414.08284722
 20
215.19284622
 42
1.0
  0
TEXT
  5
20A
330
1F
100
AcDbEntity
  8
BOTTOMOVERLAY
100
AcDbText
 10
412.45784666
 20
213.76784526
 30
0.0
 40
0.7000011399999999
  1
TP49_16
 50
270.0
 71
     2
100
AcDbText
  0
LWPOLYLINE
  5
20B
330
1F
100
AcDbEntity
  8
BOTTOMPASTE
100
AcDbPolyline
 90
        2
 70
     1
 43
0.0
 10
442.84784938
 20
162.25284796
 42
1.0
 10
442.84784938
 20
162.25284796
 42
1.0
  0
TEXT
  5
20C
330
1F
100
AcDbEntity
  8
BOTTOMOVERLAY
100
AcDbText
 10
442.43369476
 20
156.77784748
 30
0.0
 40
0.7000011399999999
  1
TP49_17
 50
270.0
 71
     2
100
AcDbText
  0
LWPOLYLINE
  5
20D
330
1F
100
AcDbEntity
  8
BOTTOMPASTE
100
AcDbPolyline
 90
        2
 70
     1
 43
0.0
 10
418.60784706
 20
215.39284582
 42
1.0
 10
418.60784706
 20
215.39284582
 42
1.0
  0
TEXT
  5
20E
330
1F
100
AcDbEntity
  8
BOTTOMOVERLAY
100
AcDbText
 10
416.9328466
 20
213.84284638
 30
0.0
 40
0.7000011399999999
  1
TP49_18
 50
270.0
 71
     2
100
AcDbText
  0
LWPOLYLINE
  5
20F
330
1F
100
AcDbEntity
  8
BOTTOMPASTE
100
AcDbPolyline
 90
        2
 70
     1
 43
0.0
 10
443.58284664
 20
169.06784576
 42
1.0
 10
443.58284664
 20
169.06784576
 42
1.0
  0
TEXT
  5
210
330
1F
100
AcDbEntity
  8
BOTTOMOVERLAY
100
AcDbText
 10
449.0328459
 20
168.86784616
 30
0.0
 40
0.7000011399999999
  1
TP49_19
 71
     2
100
AcDbText
  0
LWPOLYLINE
  5
211
330
1F
100
AcDbEntity
  8
BOTTOMPASTE
100
AcDbPolyline
 90
        2
 70
     1
 43
0.0
 10
423.3328465
 20
215.39284582
 42
1.0
 10
423.3328465
 20
215.39284582
 42
1.0
  0
TEXT
  5
212
330
1F
100
AcDbEntity
  8
BOTTOMOVERLAY
100
AcDbText
 10
421.65784604
 20
214.26784426
 30
0.0
 40
0.7000011399999999
  1
TP49_20
 50
270.0
 71
     2
100
AcDbText
  0
LWPOLYLINE
  5
213
330
1F
100
AcDbEntity
  8
BOTTOMPASTE
100
AcDbPolyline
 90
        2
 70
     1
 43
0.0
 10
446.0016098999999
 20
171.76070296
 42
1.0
 10
446.0016098999999
 20
171.76070296
 42
1.0
  0
TEXT
  5
214
330
1F
100
AcDbEntity
  8
BOTTOMOVERLAY
100
AcDbText
 10
448.18284506
 20
170.217846
 30
0.0
 40
0.7000011399999999
  1
TP49_21
 71
     2
100
AcDbText
  0
LWPOLYLINE
  5
215
330
1F
100
AcDbEntity
  8
BOTTOMPASTE
100
AcDbPolyline
 90
        2
 70
     1
 43
0.0
 10
428.08284716
 20
215.5178443
 42
1.0
 10
428.08284716
 20
215.5178443
 42
1.0
  0
TEXT
  5
216
330
1F
100
AcDbEntity
  8
BOTTOMOVERLAY
100
AcDbText
 10
426.38284548
 20
213.81784516
 30
0.0
 40
0.7000011399999999
  1
TP49_22
 50
270.0
 71
     2
100
AcDbText
  0
LWPOLYLINE
  5
217
330
1F
100
AcDbEntity
  8
BOTTOMPASTE
100
AcDbPolyline
 90
        2
 70
     1
 43
0.0
 10
446.0016098999999
 20
176.42856002
 42
1.0
 10
446.0016098999999
 20
176.42856002
 42
1.0
  0
TEXT
  5
218
330
1F
100
AcDbEntity
  8
BOTTOMOVERLAY
100
AcDbText
 10
448.3328473
 20
174.89284554
 30
0.0
 40
0.7000011399999999
  1
TP49_23
 71
     2
100
AcDbText
  0
LWPOLYLINE
  5
219
330
1F
100
AcDbEntity
  8
BOTTOMPASTE
100
AcDbPolyline
 90
        2
 70
     1
 43
0.0
 10
432.7078468
 20
215.2178449
 42
1.0
 10
432.7078468
 20
215.2178449
 42
1.0
  0
TEXT
  5
21A
330
1F
100
AcDbEntity
  8
BOTTOMOVERLAY
100
AcDbText
 10
430.85784542
 20
214.21784436
 30
0.0
 40
0.7000011399999999
  1
TP49_24
 50
270.0
 71
     2
100
AcDbText
  0
LWPOLYLINE
  5
21B
330
1F
100
AcDbEntity
  8
BOTTOMPASTE
100
AcDbPolyline
 90
        2
 70
     1
 43
0.0
 10
446.0016098999999
 20
181.09641708
 42
1.0
 10
446.0016098999999
 20
181.09641708
 42
1.0
  0
TEXT
  5
21C
330
1F
100
AcDbEntity
  8
BOTTOMOVERLAY
100
AcDbText
 10
448.7578451799999
 20
179.46784528
 30
0.0
 40
0.7000011399999999
  1
TP49_25
 71
     2
100
AcDbText
  0
LWPOLYLINE
  5
21D
330
1F
100
AcDbEntity
  8
BOTTOMPASTE
100
AcDbPolyline
 90
        2
 70
     1
 43
0.0
 10
437.43284624
 20
215.2178449
 42
1.0
 10
437.43284624
 20
215.2178449
 42
1.0
  0
TEXT
  5
21E
330
1F
100
AcDbEntity
  8
BOTTOMOVERLAY
100
AcDbText
 10
435.48284506
 20
214.3678466
 30
0.0
 40
0.7000011399999999
  1
TP49_26
 50
270.0
 71
     2
100
AcDbText
  0
LWPOLYLINE
  5
21F
330
1F
100
AcDbEntity
  8
BOTTOMPASTE
100
AcDbPolyline
 90
        2
 70
     1
 43
0.0
 10
446.0016098999999
 20
185.76427414
 42
1.0
 10
446.0016098999999
 20
185.76427414
 42
1.0
  0
TEXT
  5
220
330
1F
100
AcDbEntity
  8
BOTTOMOVERLAY
100
AcDbText
 10
448.30784608
 20
184.11784614
 30
0.0
 40
0.7000011399999999
  1
TP49_27
 71
     2
100
AcDbText
  0
LWPOLYLINE
  5
221
330
1F
100
AcDbEntity
  8
BOTTOMPASTE
100
AcDbPolyline
 90
        2
 70
     1
 43
0.0
 10
442.19400004
 20
215.3678446
 42
1.0
 10
442.19400004
 20
215.3678446
 42
1.0
  0
TEXT
  5
222
330
1F
100
AcDbEntity
  8
BOTTOMOVERLAY
100
AcDbText
 10
440.63284492
 20
214.31784416
 30
0.0
 40
0.7000011399999999
  1
TP49_28
 50
270.0
 71
     2
100
AcDbText
  0
LWPOLYLINE
  5
223
330
1F
100
AcDbEntity
  8
BOTTOMPASTE
100
AcDbPolyline
 90
        2
 70
     1
 43
0.0
 10
446.0016098999999
 20
190.4321312
 42
1.0
 10
446.0016098999999
 20
190.4321312
 42
1.0
  0
TEXT
  5
224
330
1F
100
AcDbEntity
  8
BOTTOMOVERLAY
100
AcDbText
 10
448.6328467
 20
188.94284538
 30
0.0
 40
0.7000011399999999
  1
TP49_29
 71
     2
100
AcDbText
  0
LWPOLYLINE
  5
225
330
1F
100
AcDbEntity
  8
BOTTOMPASTE
100
AcDbPolyline
 90
        2
 70
     1
 43
0.0
 10
446.0016098999999
 20
199.76784532
 42
1.0
 10
446.0016098999999
 20
199.76784532
 42
1.0
  0
TEXT
  5
226
330
1F
100
AcDbEntity
  8
BOTTOMOVERLAY
100
AcDbText
 10
448.35784598
 20
198.11784608
 30
0.0
 40
0.7000011399999999
  1
TP49_30
 71
     2
100
AcDbText
  0
LWPOLYLINE
  5
227
330
1F
100
AcDbEntity
  8
BOTTOMPASTE
100
AcDbPolyline
 90
        2
 70
     1
 43
0.0
 10
446.0016098999999
 20
195.09998826
 42
1.0
 10
446.0016098999999
 20
195.09998826
 42
1.0
  0
TEXT
  5
228
330
1F
100
AcDbEntity
  8
BOTTOMOVERLAY
100
AcDbText
 10
448.23284496
 20
193.56784502
 30
0.0
 40
0.7000011399999999
  1
TP49_31
 71
     2
100
AcDbText
  0
LWPOLYLINE
  5
229
330
1F
100
AcDbEntity
  8
BOTTOMPASTE
100
AcDbPolyline
 90
        2
 70
     1
 43
0.0
 10
445.1078474
 20
205.61784632
 42
1.0
 10
445.1078474
 20
205.61784632
 42
1.0
  0
TEXT
  5
22A
330
1F
100
AcDbEntity
  8
BOTTOMOVERLAY
100
AcDbText
 10
448.60784548
 20
206.48642218
 30
0.0
 40
0.7000011399999999
  1
TP49_32
 71
     2
100
AcDbText
  0
ENDSEC
  0
SECTION
  2
OBJECTS
  0
DICTIONARY
  5
C
330
0
100
AcDbDictionary
  3
ACAD_GROUP
350
D
  3
ACAD_LAYOUT
350
1A
  3
ACAD_MATERIAL
350
43
  3
ACAD_MLEADERSTYLE
350
24E
  3
ACAD_MLINESTYLE
350
17
  3
ACAD_PLOTSETTINGS
350
19
  3
ACAD_SCALELIST
350
47
  3
ACAD_VISUALSTYLE
350
2A
  3
ACDBHEADERROUNDTRIPXREC
350
22B
  3
ACDBVARIABLEDICTIONARY
350
24C
  0
DICTIONARY
  5
255
330
8
100
AcDbDictionary
280
     1
  3
ACAD_XREC_ROUNDTRIP
360
256
  0
DICTIONARY
  5
D
102
{ACAD_REACTORS
330
C
102
}
330
C
100
AcDbDictionary
  0
DICTIONARY
  5
1A
102
{ACAD_REACTORS
330
C
102
}
330
C
100
AcDbDictionary
  0
DICTIONARY
  5
43
102
{ACAD_REACTORS
330
C
102
}
330
C
100
AcDbDictionary
  3
BYBLOCK
350
45
  3
BYLAYER
350
44
  3
GLOBAL
350
46
  0
DICTIONARY
  5
24E
102
{ACAD_REACTORS
330
C
102
}
330
C
100
AcDbDictionary
  0
DICTIONARY
  5
17
102
{ACAD_REACTORS
330
C
102
}
330
C
100
AcDbDictionary
  3
STANDARD
350
18
  0
DICTIONARY
  5
19
102
{ACAD_REACTORS
330
C
102
}
330
C
100
AcDbDictionary
  0
DICTIONARY
  5
47
102
{ACAD_REACTORS
330
C
102
}
330
C
100
AcDbDictionary
  3
A0
350
48
  3
A1
350
49
  3
A2
350
4A
  3
A3
350
4B
  3
A4
350
4C
  3
A5
350
4D
  3
A6
350
4E
  3
A7
350
4F
  3
A8
350
50
  3
A9
350
51
  3
B0
350
52
  3
B1
350
53
  3
B2
350
54
  3
B3
350
55
  3
B4
350
56
  3
B5
350
57
  3
B6
350
58
  3
B7
350
59
  3
B8
350
5A
  3
B9
350
5B
  3
C0
350
5C
  3
C1
350
5D
  3
C2
350
5E
  3
C3
350
5F
  3
C4
350
60
  3
C5
350
61
  3
C6
350
62
  3
C7
350
63
  3
C8
350
64
  3
C9
350
65
  3
D0
350
66
  3
D1
350
67
  3
D2
350
68
  0
DICTIONARY
  5
2A
102
{ACAD_REACTORS
330
C
102
}
330
C
100
AcDbDictionary
  3
2DWIREFRAME
350
2F
  3
BASIC
350
32
  3
BRIGHTEN
350
36
  3
COLORCHANGE
350
3A
  3
CONCEPTUAL
350
34
  3
DIM
350
35
  3
EDGECOLOROFF
350
3D
  3
FACEPATTERN
350
39
  3
FLAT
350
2B
  3
FLATWITHEDGES
350
2C
  3
GOURAUD
350
2D
  3
GOURAUDWITHEDGES
350
2E
  3
HIDDEN
350
31
  3
JITTEROFF
350
3B
  3
LINEPATTERN
350
38
  3
OVERHANGOFF
350
3C
  3
REALISTIC
350
33
  3
SHADED
350
42
  3
SHADED_WITH_EDGES
350
41
  3
SHADES_OF_GRAY
350
3E
  3
SKETCHY
350
3F
  3
THICKEN
350
37
  3
WIREFRAME
350
30
  3
X-RAY
350
40
  0
DICTIONARY
  5
22B
102
{ACAD_REACTORS
330
C
102
}
330
C
100
AcDbDictionary
  3
CEPSNID
350
235
  3
CEPSNTYPE
350
234
  3
DIMSTYLEDATA
350
24B
  3
FINGERPRINTGUID
350
236
  3
HYPERLINKBASE
350
22E
  3
INSUNITS
350
233
  3
LAYOUTDICT
350
230
  3
LWETCUNION
350
232
  3
PLOTSETDICT
350
231
  3
PSVPSCALE
350
238
  3
PUCSBASE
350
23B
  3
PUCSORGBACK
350
241
  3
PUCSORGBOTTOM
350
23D
  3
PUCSORGFRONT
350
240
  3
PUCSORGLEFT
350
23E
  3
PUCSORGRIGHT
350
23F
  3
PUCSORGTOP
350
23C
  3
PUCSORTHOREF
350
239
  3
PUCSORTHOVIEW
350
23A
  3
STYLESHEET
350
22F
  3
TSTACKALIGN
350
22C
  3
TSTACKSIZE
350
22D
  3
UCSBASE
350
244
  3
UCSORGBACK
350
24A
  3
UCSORGBOTTOM
350
246
  3
UCSORGFRONT
350
249
  3
UCSORGLEFT
350
247
  3
UCSORGRIGHT
350
248
  3
UCSORGTOP
350
245
  3
UCSORTHOREF
350
242
  3
UCSORTHOVIEW
350
243
  3
VERSIONGUID
350
237
  0
DICTIONARY
  5
24C
102
{ACAD_REACTORS
330
C
102
}
330
C
100
AcDbDictionary
  3
CANNOSCALE
350
257
  3
DIMASSOC
350
253
  3
HIDETEXT
350
254
  3
MSLTSCALE
350
258
  3
PSOLHEIGHT
350
250
  3
PSOLWIDTH
350
24F
  0
XRECORD
  5
256
102
{ACAD_REACTORS
330
255
102
}
330
255
100
AcDbXrecord
102
VTR_0.000_0.000_1.000_1.000_GRIDDISPLAY
 70
     3
102
VTR_0.000_0.000_1.000_1.000_GRIDMAJOR
 70
     5
102
VTR_0.000_0.000_1.000_1.000_DEFAULTLIGHTING
280
     1
102
VTR_0.000_0.000_1.000_1.000_DEFAULTLIGHTINGTYPE
 70
     1
102
VTR_0.000_0.000_1.000_1.000_BRIGHTNESS
141
0.0
102
VTR_0.000_0.000_1.000_1.000_CONTRAST
142
0.0
  0
MATERIAL
  5
45
102
{ACAD_REACTORS
330
43
102
}
102
{ACAD_XDICTIONARY
360
25B
102
}
330
43
100
AcDbMaterial
  1
BYBLOCK
  0
MATERIAL
  5
44
102
{ACAD_REACTORS
330
43
102
}
102
{ACAD_XDICTIONARY
360
259
102
}
330
43
100
AcDbMaterial
  1
BYLAYER
  0
MATERIAL
  5
46
102
{ACAD_REACTORS
330
43
102
}
102
{ACAD_XDICTIONARY
360
25D
102
}
330
43
100
AcDbMaterial
  1
GLOBAL
  0
MLINESTYLE
  5
18
102
{ACAD_REACTORS
330
17
102
}
330
17
100
AcDbMlineStyle
  2
Standard
 70
     0
  3

 62
   256
 51
90.0
 52
90.0
 71
     2
 49
0.5
 62
   256
  6
BYLAYER
 49
-0.5
 62
   256
  6
BYLAYER
  0
ACAD_PROXY_OBJECT
  5
48
102
{ACAD_REACTORS
330
47
102
}
330
47
100
AcDbProxyObject
 90
      499
 91
      503
 93
       41
310
903313A31580
  0
ACAD_PROXY_OBJECT
  5
49
102
{ACAD_REACTORS
330
47
102
}
330
47
100
AcDbProxyObject
 90
      499
 91
      503
 93
      105
310
903313A324000000000000004000
  0
ACAD_PROXY_OBJECT
  5
4A
102
{ACAD_REACTORS
330
47
102
}
330
47
100
AcDbProxyObject
 90
      499
 91
      503
 93
      105
310
903313A344000000000000104000
  0
ACAD_PROXY_OBJECT
  5
4B
102
{ACAD_REACTORS
330
47
102
}
330
47
100
AcDbProxyObject
 90
      499
 91
      503
 93
      105
310
903313A354000000000000144000
  0
ACAD_PROXY_OBJECT
  5
4C
102
{ACAD_REACTORS
330
47
102
}
330
47
100
AcDbProxyObject
 90
      499
 91
      503
 93
      105
310
903313A384000000000000204000
  0
ACAD_PROXY_OBJECT
  5
4D
102
{ACAD_REACTORS
330
47
102
}
330
47
100
AcDbProxyObject
 90
      499
 91
      503
 93
      113
310
904313A31304000000000000244000
  0
ACAD_PROXY_OBJECT
  5
4E
102
{ACAD_REACTORS
330
47
102
}
330
47
100
AcDbProxyObject
 90
      499
 91
      503
 93
      113
310
904313A31364000000000000304000
  0
ACAD_PROXY_OBJECT
  5
4F
102
{ACAD_REACTORS
330
47
102
}
330
47
100
AcDbProxyObject
 90
      499
 91
      503
 93
      113
310
904313A32304000000000000344000
  0
ACAD_PROXY_OBJECT
  5
50
102
{ACAD_REACTORS
330
47
102
}
330
47
100
AcDbProxyObject
 90
      499
 91
      503
 93
      113
310
904313A333040000000000003E4000
  0
ACAD_PROXY_OBJECT
  5
51
102
{ACAD_REACTORS
330
47
102
}
330
47
100
AcDbProxyObject
 90
      499
 91
      503
 93
      113
310
904313A34304000000000000444000
  0
ACAD_PROXY_OBJECT
  5
52
102
{ACAD_REACTORS
330
47
102
}
330
47
100
AcDbProxyObject
 90
      499
 91
      503
 93
      113
310
904313A35304000000000000494000
  0
ACAD_PROXY_OBJECT
  5
53
102
{ACAD_REACTORS
330
47
102
}
330
47
100
AcDbProxyObject
 90
      499
 91
      503
 93
      121
310
905313A3130304000000000000594000
  0
ACAD_PROXY_OBJECT
  5
54
102
{ACAD_REACTORS
330
47
102
}
330
47
100
AcDbProxyObject
 90
      499
 91
      503
 93
      105
310
903323A310000000000000010100
  0
ACAD_PROXY_OBJECT
  5
55
102
{ACAD_REACTORS
330
47
102
}
330
47
100
AcDbProxyObject
 90
      499
 91
      503
 93
      105
310
903343A310000000000000410100
  0
ACAD_PROXY_OBJECT
  5
56
102
{ACAD_REACTORS
330
47
102
}
330
47
100
AcDbProxyObject
 90
      499
 91
      503
 93
      105
310
903383A310000000000000810100
  0
ACAD_PROXY_OBJECT
  5
57
102
{ACAD_REACTORS
330
47
102
}
330
47
100
AcDbProxyObject
 90
      499
 91
      503
 93
      113
310
90431303A310000000000000910100
  0
ACAD_PROXY_OBJECT
  5
58
102
{ACAD_REACTORS
330
47
102
}
330
47
100
AcDbProxyObject
 90
      499
 91
      503
 93
      121
310
9053130303A310000000000001650100
  0
ACAD_PROXY_OBJECT
  5
59
102
{ACAD_REACTORS
330
47
102
}
330
47
100
AcDbProxyObject
 90
      499
 91
      503
 93
      257
310
90E312F31323822203D2031272D3022000000000000200FC000000000000284000
  0
ACAD_PROXY_OBJECT
  5
5A
102
{ACAD_REACTORS
330
47
102
}
330
47
100
AcDbProxyObject
 90
      499
 91
      503
 93
      249
310
90D312F363422203D2031272D3022000000000000240FC000000000000284000
  0
ACAD_PROXY_OBJECT
  5
5B
102
{ACAD_REACTORS
330
47
102
}
330
47
100
AcDbProxyObject
 90
      499
 91
      503
 93
      249
310
90D312F333222203D2031272D3022000000000000280FC000000000000284000
  0
ACAD_PROXY_OBJECT
  5
5C
102
{ACAD_REACTORS
330
47
102
}
330
47
100
AcDbProxyObject
 90
      499
 91
      503
 93
      249
310
90D312F313622203D2031272D30220000000000002C0FC000000000000284000
  0
ACAD_PROXY_OBJECT
  5
5D
102
{ACAD_REACTORS
330
47
102
}
330
47
100
AcDbProxyObject
 90
      499
 91
      503
 93
      249
310
90D332F333222203D2031272D30220000000000002E0FC000000000000284000
  0
ACAD_PROXY_OBJECT
  5
5E
102
{ACAD_REACTORS
330
47
102
}
330
47
100
AcDbProxyObject
 90
      499
 91
      503
 93
      241
310
90C312F3822203D2031272D3022000000000000300FC000000000000284000
  0
ACAD_PROXY_OBJECT
  5
5F
102
{ACAD_REACTORS
330
47
102
}
330
47
100
AcDbProxyObject
 90
      499
 91
      503
 93
      249
310
90D332F313622203D2031272D3022000000000000320FC000000000000284000
  0
ACAD_PROXY_OBJECT
  5
60
102
{ACAD_REACTORS
330
47
102
}
330
47
100
AcDbProxyObject
 90
      499
 91
      503
 93
      241
310
90C312F3422203D2031272D3022000000000000340FC000000000000284000
  0
ACAD_PROXY_OBJECT
  5
61
102
{ACAD_REACTORS
330
47
102
}
330
47
100
AcDbProxyObject
 90
      499
 91
      503
 93
      241
310
90C332F3822203D2031272D3022000000000000360FC000000000000284000
  0
ACAD_PROXY_OBJECT
  5
62
102
{ACAD_REACTORS
330
47
102
}
330
47
100
AcDbProxyObject
 90
      499
 91
      503
 93
      241
310
90C312F3222203D2031272D3022000000000000380FC000000000000284000
  0
ACAD_PROXY_OBJECT
  5
63
102
{ACAD_REACTORS
330
47
102
}
330
47
100
AcDbProxyObject
 90
      499
 91
      503
 93
      241
310
90C332F3422203D2031272D30220000000000003A0FC000000000000284000
  0
ACAD_PROXY_OBJECT
  5
64
102
{ACAD_REACTORS
330
47
102
}
330
47
100
AcDbProxyObject
 90
      499
 91
      503
 93
      161
310
90A3122203D2031272D30224000000000000284000
  0
ACAD_PROXY_OBJECT
  5
65
102
{ACAD_REACTORS
330
47
102
}
330
47
100
AcDbProxyObject
 90
      499
 91
      503
 93
      257
310
90E312D312F3222203D2031272D30220000000000003E0FC000000000000284000
  0
ACAD_PROXY_OBJECT
  5
66
102
{ACAD_REACTORS
330
47
102
}
330
47
100
AcDbProxyObject
 90
      499
 91
      503
 93
      225
310
90A3322203D2031272D302200000000000002100000000000000284000
  0
ACAD_PROXY_OBJECT
  5
67
102
{ACAD_REACTORS
330
47
102
}
330
47
100
AcDbProxyObject
 90
      499
 91
      503
 93
      225
310
90A3622203D2031272D302200000000000006100000000000000284000
  0
ACAD_PROXY_OBJECT
  5
68
102
{ACAD_REACTORS
330
47
102
}
330
47
100
AcDbProxyObject
 90
      499
 91
      503
 93
      249
310
90D31272D3022203D2031272D30220000000000000A100000000000000284000
  0
ACAD_PROXY_OBJECT
  5
2F
102
{ACAD_REACTORS
330
2A
102
}
330
2A
100
AcDbProxyObject
 90
      499
 91
      501
 93
      436
310
42CC9915DA5C99599C985B595049028333333333333E33F0000000000000F90107901411070040501600405405064090741402480A0340
1001
ACAD
1000
AcDbSavedByObjectVersion
1070
     0
  0
ACAD_PROXY_OBJECT
  5
32
102
{ACAD_REACTORS
330
2A
102
}
330
2A
100
AcDbProxyObject
 90
      499
 91
      501
 93
      388
310
4150985CDA58D07406404333333333333E33F0000000000000F90107A41107004050150841D405064090741402480A0350
1001
ACAD
1000
AcDbSavedByObjectVersion
1070
     0
  0
ACAD_PROXY_OBJECT
  5
36
102
{ACAD_REACTORS
330
2A
102
}
330
2A
100
AcDbProxyObject
 90
      499
 91
      501
 93
      428
310
42109C9A59DA1D195B90C409028333333333333E33F0000000000000F9010790141107004050150841D405064090741402480A029950
1001
ACAD
1000
AcDbSavedByObjectVersion
1070
     0
  0
ACAD_PROXY_OBJECT
  5
3A
102
{ACAD_REACTORS
330
2A
102
}
330
2A
100
AcDbProxyObject
 90
      499
 91
      501
 93
      452
310
42D0DBDB1BDC90DA185B99D95104090240C333333333333E33F0000000000000F90108901411070040501508421405064090741402480A0350
1001
ACAD
1000
AcDbSavedByObjectVersion
1070
     0
  0
ACAD_PROXY_OBJECT
  5
34
102
{ACAD_REACTORS
330
2A
102
}
330
2A
100
AcDbProxyObject
 90
      499
 91
      501
 93
      500
310
4290DBDB98D95C1D1D585B10940D028333333333333E33F0000000000000F90107902409070040501000000000018199010841D405064090740C02480A0340
1001
ACAD
1000
AcDbSavedByObjectVersion
1070
     0
  0
ACAD_PROXY_OBJECT
  5
35
102
{ACAD_REACTORS
330
2A
102
}
330
2A
100
AcDbProxyObject
 90
      499
 91
      501
 93
      412
310
40D11A5B50B409028333333333333E33F0000000000000F9010790141107004050150841D405064090741402480A02677FFFFFD0
1001
ACAD
1000
AcDbSavedByObjectVersion
1070
     0
  0
ACAD_PROXY_OBJECT
  5
3D
102
{ACAD_REACTORS
330
2A
102
}
330
2A
100
AcDbProxyObject
 90
      499
 91
      501
 93
      452
310
43115919D950DBDB1BDC93D999916409028333333333333E33F0000000000000F9010790141107004050150841D405064090741402480A0350
1001
ACAD
1000
AcDbSavedByObjectVersion
1070
     0
  0
ACAD_PROXY_OBJECT
  5
39
102
{ACAD_REACTORS
330
2A
102
}
330
2A
100
AcDbProxyObject
 90
      499
 91
      501
 93
      444
310
42D19858D95C185D1D195C9B90F409028333333333333E33F0000000000000F9010790141107004050150841D405064090741402480A0350
1001
ACAD
1000
AcDbSavedByObjectVersion
1070
     0
  0
ACAD_PROXY_OBJECT
  5
2B
102
{ACAD_REACTORS
330
2A
102
}
330
2A
100
AcDbProxyObject
 90
      499
 91
      501
 93
      380
310
41119B185D240901404333333333333E33F0000000000000F9010740A907004050150841D405064090741402480A1B50
1001
ACAD
1000
AcDbSavedByObjectVersion
1070
     0
  0
ACAD_PROXY_OBJECT
  5
2C
102
{ACAD_REACTORS
330
2A
102
}
330
2A
100
AcDbProxyObject
 90
      499
 91
      501
 93
      468
310
43519B185D15DA5D1A115919D95CD0140901404333333333333E33F0000000000000F90107409019070040501600405405064090741402480A1B50
1001
ACAD
1000
AcDbSavedByObjectVersion
1070
     0
  0
ACAD_PROXY_OBJECT
  5
2D
102
{ACAD_REACTORS
330
2A
102
}
330
2A
100
AcDbProxyObject
 90
      499
 91
      501
 93
      404
310
41D1DBDD5C985D5910240902404333333333333E33F0000000000000F9010740A9070040501641D405064090741402480A1B50
1001
ACAD
1000
AcDbSavedByObjectVersion
1070
     0
  0
ACAD_PROXY_OBJECT
  5
2E
102
{ACAD_REACTORS
330
2A
102
}
330
2A
100
AcDbProxyObject
 90
      499
 91
      501
 93
      492
310
4411DBDD5C985D5915DA5D1A115919D95CD0340902404333333333333E33F0000000000000F90107409019070040501600405405064090741402480A1B50
1001
ACAD
1000
AcDbSavedByObjectVersion
1070
     0
  0
ACAD_PROXY_OBJECT
  5
31
102
{ACAD_REACTORS
330
2A
102
}
330
2A
100
AcDbProxyObject
 90
      499
 91
      501
 93
      476
310
41921A5919195B90640502408333333333333E33F0000000000000F901079024090700405020000000000001110200405405064090740C02480A0340
1001
ACAD
1000
AcDbSavedByObjectVersion
1070
     0
  0
ACAD_PROXY_OBJECT
  5
3B
102
{ACAD_REACTORS
330
2A
102
}
330
2A
100
AcDbProxyObject
 90
      499
 91
      501
 93
      428
310
42529A5D1D195C93D999914409028333333333333E33F0000000000000F9010790141107004050150A41D405064090741402480A0350
1001
ACAD
1000
AcDbSavedByObjectVersion
1070
     0
  0
ACAD_PROXY_OBJECT
  5
38
102
{ACAD_REACTORS
330
2A
102
}
330
2A
100
AcDbProxyObject
 90
      499
 91
      501
 93
      444
310
42D31A5B995C185D1D195C9B90E409028333333333333E33F0000000000000F9010790141107004050750841D405064090741402483A0350
1001
ACAD
1000
AcDbSavedByObjectVersion
1070
     0
  0
ACAD_PROXY_OBJECT
  5
3C
102
{ACAD_REACTORS
330
2A
102
}
330
2A
100
AcDbProxyObject
 90
      499
 91
      501
 93
      444
310
42D3DD995C9A185B99D3D999915409028333333333333E33F0000000000000F9010790141107004050150941D405064090741402480A0350
1001
ACAD
1000
AcDbSavedByObjectVersion
1070
     0
  0
ACAD_PROXY_OBJECT
  5
33
102
{ACAD_REACTORS
330
2A
102
}
330
2A
100
AcDbProxyObject
 90
      499
 91
      501
 93
      428
310
425499585B1A5CDD1A58D08409038333333333333E33F0000000000000F9010740A907004050150800405405064090740C02480A1B40
1001
ACAD
1000
AcDbSavedByObjectVersion
1070
     0
  0
ACAD_PROXY_OBJECT
  5
42
102
{ACAD_REACTORS
330
2A
102
}
330
2A
100
AcDbProxyObject
 90
      499
 91
      501
 93
      420
310
4194DA1859195911B40902404333333333333E33F0000000000000F9010740A41107004050150800405405064090840C02480A0B40
1001
ACAD
1000
AcDbSavedByObjectVersion
1070
     0
  0
ACAD_PROXY_OBJECT
  5
41
102
{ACAD_REACTORS
330
2A
102
}
330
2A
100
AcDbProxyObject
 90
      499
 91
      501
 93
      516
310
4454DA18591959081DDA5D1A08195919D95CD1A40902404333333333333E33F0000000000000F901074090142907004050250800405405064090740C02480A0B40
1001
ACAD
1000
AcDbSavedByObjectVersion
1070
     0
  0
ACAD_PROXY_OBJECT
  5
3E
102
{ACAD_REACTORS
330
2A
102
}
330
2A
100
AcDbProxyObject
 90
      499
 91
      501
 93
      532
310
4394DA1859195CC81BD98811DC985E5174090240C333333333333E33F0000000000000F901079024090741D01000000000000111010841D405064090740C02480A0340
1001
ACAD
1000
AcDbSavedByObjectVersion
1070
     0
  0
ACAD_PROXY_OBJECT
  5
3F
102
{ACAD_REACTORS
330
2A
102
}
330
2A
100
AcDbProxyObject
 90
      499
 91
      501
 93
      476
310
41D4DAD95D18DA1E51840502408333333333333E33F0000000000000F901079024090741D01000000000000111010B41D405064090741802480A0340
1001
ACAD
1000
AcDbSavedByObjectVersion
1070
     0
  0
ACAD_PROXY_OBJECT
  5
37
102
{ACAD_REACTORS
330
2A
102
}
330
2A
100
AcDbProxyObject
 90
      499
 91
      501
 93
      412
310
41D51A1A58DAD95B90D409028333333333333E33F0000000000000F9010790141107004050150C41D405064090741402480A0350
1001
ACAD
1000
AcDbSavedByObjectVersion
1070
     0
  0
ACAD_PROXY_OBJECT
  5
30
102
{ACAD_REACTORS
330
2A
102
}
330
2A
100
AcDbProxyObject
 90
      499
 91
      501
 93
      420
310
4255DA5C99599C985B595059028333333333333E33F0000000000000F90107901411070040501600405405064090740C02480A0340
1001
ACAD
1000
AcDbSavedByObjectVersion
1070
     0
  0
ACAD_PROXY_OBJECT
  5
40
102
{ACAD_REACTORS
330
2A
102
}
330
2A
100
AcDbProxyObject
 90
      499
 91
      501
 93
      404
310
41560B54985E51940902404000000000000E03F0000000000000F9010740501907004050150841D405064090740C02480A1B40
1001
ACAD
1000
AcDbSavedByObjectVersion
1070
     0
  0
XRECORD
  5
235
102
{ACAD_REACTORS
330
22B
102
}
330
22B
100
AcDbXrecord
340
0
  0
XRECORD
  5
234
102
{ACAD_REACTORS
330
22B
102
}
330
22B
100
AcDbXrecord
 90
        0
  0
XRECORD
  5
24B
102
{ACAD_REACTORS
330
22B
102
}
330
22B
100
AcDbXrecord
1000
DSTYLE
1002
{
1070
   340
340
11
1002
}
  0
XRECORD
  5
236
102
{ACAD_REACTORS
330
22B
102
}
330
22B
100
AcDbXrecord
  1
{93D89D5B-0177-47C5-8618-6DD028D7CD43}
  0
XRECORD
  5
22E
102
{ACAD_REACTORS
330
22B
102
}
330
22B
100
AcDbXrecord
  1

  0
XRECORD
  5
233
102
{ACAD_REACTORS
330
22B
102
}
330
22B
100
AcDbXrecord
 90
        4
  0
XRECORD
  5
230
102
{ACAD_REACTORS
330
22B
102
}
330
22B
100
AcDbXrecord
340
1A
  0
XRECORD
  5
232
102
{ACAD_REACTORS
330
22B
102
}
330
22B
100
AcDbXrecord
 90
    10781
  0
XRECORD
  5
231
102
{ACAD_REACTORS
330
22B
102
}
330
22B
100
AcDbXrecord
340
19
  0
XRECORD
  5
238
102
{ACAD_REACTORS
330
22B
102
}
330
22B
100
AcDbXrecord
 40
0.0
  0
XRECORD
  5
23B
102
{ACAD_REACTORS
330
22B
102
}
330
22B
100
AcDbXrecord
340
0
  0
XRECORD
  5
241
102
{ACAD_REACTORS
330
22B
102
}
330
22B
100
AcDbXrecord
 10
0.0
 20
0.0
 30
0.0
  0
XRECORD
  5
23D
102
{ACAD_REACTORS
330
22B
102
}
330
22B
100
AcDbXrecord
 10
0.0
 20
0.0
 30
0.0
  0
XRECORD
  5
240
102
{ACAD_REACTORS
330
22B
102
}
330
22B
100
AcDbXrecord
 10
0.0
 20
0.0
 30
0.0
  0
XRECORD
  5
23E
102
{ACAD_REACTORS
330
22B
102
}
330
22B
100
AcDbXrecord
 10
0.0
 20
0.0
 30
0.0
  0
XRECORD
  5
23F
102
{ACAD_REACTORS
330
22B
102
}
330
22B
100
AcDbXrecord
 10
0.0
 20
0.0
 30
0.0
  0
XRECORD
  5
23C
102
{ACAD_REACTORS
330
22B
102
}
330
22B
100
AcDbXrecord
 10
0.0
 20
0.0
 30
0.0
  0
XRECORD
  5
239
102
{ACAD_REACTORS
330
22B
102
}
330
22B
100
AcDbXrecord
340
0
  0
XRECORD
  5
23A
102
{ACAD_REACTORS
330
22B
102
}
330
22B
100
AcDbXrecord
 70
     0
  0
XRECORD
  5
22F
102
{ACAD_REACTORS
330
22B
102
}
330
22B
100
AcDbXrecord
  1

  0
XRECORD
  5
22C
102
{ACAD_REACTORS
330
22B
102
}
330
22B
100
AcDbXrecord
 90
        1
  0
XRECORD
  5
22D
102
{ACAD_REACTORS
330
22B
102
}
330
22B
100
AcDbXrecord
 90
       70
  0
XRECORD
  5
244
102
{ACAD_REACTORS
330
22B
102
}
330
22B
100
AcDbXrecord
340
0
  0
XRECORD
  5
24A
102
{ACAD_REACTORS
330
22B
102
}
330
22B
100
AcDbXrecord
 10
0.0
 20
0.0
 30
0.0
  0
XRECORD
  5
246
102
{ACAD_REACTORS
330
22B
102
}
330
22B
100
AcDbXrecord
 10
0.0
 20
0.0
 30
0.0
  0
XRECORD
  5
249
102
{ACAD_REACTORS
330
22B
102
}
330
22B
100
AcDbXrecord
 10
0.0
 20
0.0
 30
0.0
  0
XRECORD
  5
247
102
{ACAD_REACTORS
330
22B
102
}
330
22B
100
AcDbXrecord
 10
0.0
 20
0.0
 30
0.0
  0
XRECORD
  5
248
102
{ACAD_REACTORS
330
22B
102
}
330
22B
100
AcDbXrecord
 10
0.0
 20
0.0
 30
0.0
  0
XRECORD
  5
245
102
{ACAD_REACTORS
330
22B
102
}
330
22B
100
AcDbXrecord
 10
0.0
 20
0.0
 30
0.0
  0
XRECORD
  5
242
102
{ACAD_REACTORS
330
22B
102
}
330
22B
100
AcDbXrecord
340
0
  0
XRECORD
  5
243
102
{ACAD_REACTORS
330
22B
102
}
330
22B
100
AcDbXrecord
 70
     0
  0
XRECORD
  5
237
102
{ACAD_REACTORS
330
22B
102
}
330
22B
100
AcDbXrecord
  1
{FAEB1C32-E019-11D5-929B-00C0DF256EC4}
  0
DICTIONARYVAR
  5
257
102
{ACAD_REACTORS
330
24C
102
}
330
24C
100
DictionaryVariables
280
     0
  1
1:1
  0
DICTIONARYVAR
  5
253
102
{ACAD_REACTORS
330
24C
102
}
330
24C
100
DictionaryVariables
280
     0
  1
2
  0
DICTIONARYVAR
  5
254
102
{ACAD_REACTORS
330
24C
102
}
330
24C
100
DictionaryVariables
280
     0
  1
1
  0
DICTIONARYVAR
  5
258
102
{ACAD_REACTORS
330
24C
102
}
330
24C
100
DictionaryVariables
280
     0
  1
1
  0
DICTIONARYVAR
  5
250
102
{ACAD_REACTORS
330
24C
102
}
330
24C
100
DictionaryVariables
280
     0
  1
80.000000
  0
DICTIONARYVAR
  5
24F
102
{ACAD_REACTORS
330
24C
102
}
330
24C
100
DictionaryVariables
280
     0
  1
5.000000
  0
DICTIONARY
  5
25B
330
45
100
AcDbDictionary
280
     1
  3
ACAD_XREC_ROUNDTRIP
360
25C
  0
DICTIONARY
  5
259
330
44
100
AcDbDictionary
280
     1
  3
ACAD_XREC_ROUNDTRIP
360
25A
  0
DICTIONARY
  5
25D
330
46
100
AcDbDictionary
280
     1
  3
ACAD_XREC_ROUNDTRIP
360
25E
  0
XRECORD
  5
25C
102
{ACAD_REACTORS
330
25B
102
}
330
25B
100
AcDbXrecord
102
MATERIAL
148
0.0
149
0.0
149
0.0
 93
        0
 94
      127
282
     0
 72
     1
 77
     1
171
     1
175
     1
179
     1
273
     0
  0
XRECORD
  5
25A
102
{ACAD_REACTORS
330
259
102
}
330
259
100
AcDbXrecord
102
MATERIAL
148
0.0
149
0.0
149
0.0
 93
        0
 94
      127
282
     0
 72
     1
 77
     1
171
     1
175
     1
179
     1
273
     0
  0
XRECORD
  5
25E
102
{ACAD_REACTORS
330
25D
102
}
330
25D
100
AcDbXrecord
102
MATERIAL
148
0.0
149
0.0
149
0.0
 93
        0
 94
      127
282
     0
 72
     1
 77
     1
171
     1
175
     1
179
     1
273
     0
  0
ENDSEC
  0
EOF
