  0
SECTION
  2
HEADER
  9
$ACADVER
  1
AC1014
  9
$ACADMAINTVER
 70
     9
  9
$DWGCODEPAGE
  3
ANSI_1252
  9
$INSBASE
 10
0.0
 20
0.0
 30
0.0
  9
$EXTMIN
 10
1.000000000000000E+20
 20
1.000000000000000E+20
 30
1.000000000000000E+20
  9
$EXTMAX
 10
-1.000000000000000E+20
 20
-1.000000000000000E+20
 30
-1.000000000000000E+20
  9
$LIMMIN
 10
19.86122774
 20
17.59500926
  9
$LIMMAX
 10
830.5471857399999
 20
545.71201246
  9
$ORTHOMODE
 70
     0
  9
$REGENMODE
 70
     1
  9
$FILLMODE
 70
     1
  9
$QTEXTMODE
 70
     0
  9
$MIRRTEXT
 70
     1
  9
$DRAGMODE
 70
     2
  9
$LTSCALE
 40
1.0
  9
$OSMODE
 70
    37
  9
$ATTMODE
 70
     1
  9
$TEXTSIZE
 40
2.5
  9
$TRACEWID
 40
1.0
  9
$TEXTSTYLE
  7
STANDARD
  9
$CLAYER
  8
0
  9
$CELTYPE
  6
BYLAYER
  9
$CECOLOR
 62
   256
  9
$CELTSCALE
 40
1.0
  9
$DELOBJ
 70
     1
  9
$DISPSILH
 70
     0
  9
$DIMSCALE
 40
1.0
  9
$DIMASZ
 40
2.5
  9
$DIMEXO
 40
0.625
  9
$DIMDLI
 40
3.75
  9
$DIMRND
 40
0.0
  9
$DIMDLE
 40
0.0
  9
$DIMEXE
 40
1.25
  9
$DIMTP
 40
0.0
  9
$DIMTM
 40
0.0
  9
$DIMTXT
 40
2.5
  9
$DIMCEN
 40
2.5
  9
$DIMTSZ
 40
0.0
  9
$DIMTOL
 70
     0
  9
$DIMLIM
 70
     0
  9
$DIMTIH
 70
     0
  9
$DIMTOH
 70
     0
  9
$DIMSE1
 70
     0
  9
$DIMSE2
 70
     0
  9
$DIMTAD
 70
     1
  9
$DIMZIN
 70
     8
  9
$DIMBLK
  1

  9
$DIMASO
 70
     1
  9
$DIMSHO
 70
     1
  9
$DIMPOST
  1

  9
$DIMAPOST
  1

  9
$DIMALT
 70
     0
  9
$DIMALTD
 70
     3
  9
$DIMALTF
 40
0.03937007874016
  9
$DIMLFAC
 40
1.0
  9
$DIMTOFL
 70
     1
  9
$DIMTVP
 40
0.0
  9
$DIMTIX
 70
     0
  9
$DIMSOXD
 70
     0
  9
$DIMSAH
 70
     0
  9
$DIMBLK1
  1

  9
$DIMBLK2
  1

  9
$DIMSTYLE
  2
ISO-25
  9
$DIMCLRD
 70
     0
  9
$DIMCLRE
 70
     0
  9
$DIMCLRT
 70
     0
  9
$DIMTFAC
 40
1.0
  9
$DIMGAP
 40
0.625
  9
$DIMJUST
 70
     0
  9
$DIMSD1
 70
     0
  9
$DIMSD2
 70
     0
  9
$DIMTOLJ
 70
     0
  9
$DIMTZIN
 70
     8
  9
$DIMALTZ
 70
     0
  9
$DIMALTTZ
 70
     0
  9
$DIMFIT
 70
     3
  9
$DIMUPT
 70
     0
  9
$DIMUNIT
 70
     2
  9
$DIMDEC
 70
     2
  9
$DIMTDEC
 70
     2
  9
$DIMALTU
 70
     2
  9
$DIMALTTD
 70
     3
  9
$DIMTXSTY
  7
STANDARD
  9
$DIMAUNIT
 70
     0
  9
$LUNITS
 70
     2
  9
$LUPREC
 70
     4
  9
$SKETCHINC
 40
1.0
  9
$FILLETRAD
 40
10.0
  9
$AUNITS
 70
     0
  9
$AUPREC
 70
     0
  9
$MENU
  1
.
  9
$ELEVATION
 40
0.0
  9
$PELEVATION
 40
0.0
  9
$THICKNESS
 40
0.0
  9
$LIMCHECK
 70
     0
  9
$CHAMFERA
 40
0.0
  9
$CHAMFERB
 40
0.0
  9
$CHAMFERC
 40
0.0
  9
$CHAMFERD
 40
0.0
  9
$SKPOLY
 70
     0
  9
$TDCREATE
 40
2457591.839972558
  9
$TDUPDATE
 40
2457591.839973438
  9
$TDINDWG
 40
0.0000000116
  9
$TDUSRTIMER
 40
0.0000000116
  9
$USRTIMER
 70
     1
  9
$ANGBASE
 50
0.0
  9
$ANGDIR
 70
     0
  9
$PDMODE
 70
     0
  9
$PDSIZE
 40
0.0
  9
$PLINEWID
 40
0.0
  9
$COORDS
 70
     1
  9
$SPLFRAME
 70
     0
  9
$SPLINETYPE
 70
     6
  9
$SPLINESEGS
 70
     8
  9
$ATTDIA
 70
     0
  9
$ATTREQ
 70
     1
  9
$HANDLING
 70
     1
  9
$HANDSEED
  5
42C
  9
$SURFTAB1
 70
     6
  9
$SURFTAB2
 70
     6
  9
$SURFTYPE
 70
     6
  9
$SURFU
 70
     6
  9
$SURFV
 70
     6
  9
$UCSNAME
  2

  9
$UCSORG
 10
0.0
 20
0.0
 30
0.0
  9
$UCSXDIR
 10
1.0
 20
0.0
 30
0.0
  9
$UCSYDIR
 10
0.0
 20
1.0
 30
0.0
  9
$PUCSNAME
  2

  9
$PUCSORG
 10
0.0
 20
0.0
 30
0.0
  9
$PUCSXDIR
 10
1.0
 20
0.0
 30
0.0
  9
$PUCSYDIR
 10
0.0
 20
1.0
 30
0.0
  9
$USERI1
 70
     0
  9
$USERI2
 70
     0
  9
$USERI3
 70
     0
  9
$USERI4
 70
     0
  9
$USERI5
 70
     0
  9
$USERR1
 40
0.0
  9
$USERR2
 40
0.0
  9
$USERR3
 40
0.0
  9
$USERR4
 40
0.0
  9
$USERR5
 40
0.0
  9
$WORLDVIEW
 70
     1
  9
$SHADEDGE
 70
     3
  9
$SHADEDIF
 70
    70
  9
$TILEMODE
 70
     1
  9
$MAXACTVP
 70
    64
  9
$PINSBASE
 10
0.0
 20
0.0
 30
0.0
  9
$PLIMCHECK
 70
     0
  9
$PEXTMIN
 10
1.000000000000000E+20
 20
1.000000000000000E+20
 30
1.000000000000000E+20
  9
$PEXTMAX
 10
-1.000000000000000E+20
 20
-1.000000000000000E+20
 30
-1.000000000000000E+20
  9
$PLIMMIN
 10
0.0
 20
0.0
  9
$PLIMMAX
 10
420.0
 20
297.0
  9
$UNITMODE
 70
     0
  9
$VISRETAIN
 70
     1
  9
$PLINEGEN
 70
     0
  9
$PSLTSCALE
 70
     1
  9
$TREEDEPTH
 70
  3020
  9
$PICKSTYLE
 70
     1
  9
$CMLSTYLE
  2
STANDARD
  9
$CMLJUST
 70
     0
  9
$CMLSCALE
 40
20.0
  9
$PROXYGRAPHICS
 70
     1
  9
$MEASUREMENT
 70
     1
  0
ENDSEC
  0
SECTION
  2
CLASSES
  0
CLASS
  1
ACDBDICTIONARYWDFLT
  2
AcDbDictionaryWithDefault
  3
ObjectDBX Classes
 90
        0
280
     0
281
     0
  0
CLASS
  1
VISUALSTYLE
  2
AcDbVisualStyle
  3
ObjectDBX Classes
 90
     4095
280
     0
281
     0
  0
CLASS
  1
MATERIAL
  2
AcDbMaterial
  3
ObjectDBX Classes
 90
     1153
280
     0
281
     0
  0
CLASS
  1
SCALE
  2
AcDbScale
  3
ObjectDBX Classes
 90
     1153
280
     0
281
     0
  0
CLASS
  1
SUN
  2
AcDbSun
  3
SCENEOE
 90
     1153
280
     0
281
     0
  0
CLASS
  1
DICTIONARYVAR
  2
AcDbDictionaryVar
  3
ObjectDBX Classes
 90
        0
280
     0
281
     0
  0
CLASS
  1
XRECORD
  2
AcDbXrecord
  3
ObjectDBX Classes
 90
        0
280
     0
281
     0
  0
CLASS
  1
LWPOLYLINE
  2
AcDbPolyline
  3
ObjectDBX Classes
 90
        0
280
     0
281
     1
  0
CLASS
  1
HATCH
  2
AcDbHatch
  3
ObjectDBX Classes
 90
        0
280
     0
281
     1
  0
CLASS
  1
ACDBPLACEHOLDER
  2
AcDbPlaceHolder
  3
ObjectDBX Classes
 90
        0
280
     0
281
     0
  0
CLASS
  1
LAYOUT
  2
AcDbLayout
  3
ObjectDBX Classes
 90
        0
280
     0
281
     0
  0
ENDSEC
  0
SECTION
  2
TABLES
  0
TABLE
  2
VPORT
  5
8
102
{ACAD_XDICTIONARY
360
422
102
}
330
0
100
AcDbSymbolTable
 70
     1
  0
VPORT
  5
29
330
8
100
AcDbSymbolTableRecord
100
AcDbViewportTableRecord
  2
*ACTIVE
 70
     0
 10
0.0
 20
0.0
 11
1.0
 21
1.0
 12
344.1869158878504
 22
148.5
 13
0.0
 23
0.0
 14
10.0
 24
10.0
 15
10.0
 25
10.0
 16
0.0
 26
0.0
 36
1.0
 17
0.0
 27
0.0
 37
0.0
 40
297.0
 41
1.972972972850329
 42
50.0
 43
0.0
 44
0.0
 50
0.0
 51
0.0
 71
     0
 72
   100
 73
     1
 74
     3
 75
     0
 76
     0
 77
     0
 78
     0
  0
ENDTAB
  0
TABLE
  2
LTYPE
  5
5
330
0
100
AcDbSymbolTable
 70
     1
  0
LTYPE
  5
14
330
5
100
AcDbSymbolTableRecord
100
AcDbLinetypeTableRecord
  2
BYBLOCK
 70
     0
  3

 72
    65
 73
     0
 40
0.0
  0
LTYPE
  5
15
330
5
100
AcDbSymbolTableRecord
100
AcDbLinetypeTableRecord
  2
BYLAYER
 70
     0
  3

 72
    65
 73
     0
 40
0.0
  0
LTYPE
  5
16
330
5
100
AcDbSymbolTableRecord
100
AcDbLinetypeTableRecord
  2
CONTINUOUS
 70
     0
  3
Solid line
 72
    65
 73
     0
 40
0.0
  0
ENDTAB
  0
TABLE
  2
LAYER
  5
2
330
0
100
AcDbSymbolTable
 70
     5
  0
LAYER
  5
10
330
2
100
AcDbSymbolTableRecord
100
AcDbLayerTableRecord
  2
0
 70
     0
 62
     7
  6
CONTINUOUS
  0
LAYER
  5
6A
330
2
100
AcDbSymbolTableRecord
100
AcDbLayerTableRecord
  2
MECHANICAL1
 70
     0
 62
     6
  6
CONTINUOUS
  0
LAYER
  5
6B
330
2
100
AcDbSymbolTableRecord
100
AcDbLayerTableRecord
  2
TOPOVERLAY
 70
     0
 62
     2
  6
CONTINUOUS
  0
LAYER
  5
6C
330
2
100
AcDbSymbolTableRecord
100
AcDbLayerTableRecord
  2
TOPPASTE
 70
     0
 62
     8
  6
CONTINUOUS
  0
LAYER
  5
6D
330
2
100
AcDbSymbolTableRecord
100
AcDbLayerTableRecord
  2
PADHOLELAYER
 70
     0
 62
   156
  6
CONTINUOUS
  0
ENDTAB
  0
TABLE
  2
STYLE
  5
3
330
0
100
AcDbSymbolTable
 70
     1
  0
STYLE
  5
11
330
3
100
AcDbSymbolTableRecord
100
AcDbTextStyleTableRecord
  2
STANDARD
 70
     0
 40
0.0
 41
1.0
 50
0.0
 71
     0
 42
2.5
  3
txt
  4

  0
ENDTAB
  0
TABLE
  2
VIEW
  5
6
330
0
100
AcDbSymbolTable
 70
     0
  0
ENDTAB
  0
TABLE
  2
UCS
  5
7
330
0
100
AcDbSymbolTable
 70
     0
  0
ENDTAB
  0
TABLE
  2
APPID
  5
9
330
0
100
AcDbSymbolTable
 70
     1
  0
APPID
  5
12
330
9
100
AcDbSymbolTableRecord
100
AcDbRegAppTableRecord
  2
ACAD
 70
     0
  0
ENDTAB
  0
TABLE
  2
DIMSTYLE
  5
A
330
0
100
AcDbSymbolTable
 70
     1
  0
DIMSTYLE
105
27
330
A
100
AcDbSymbolTableRecord
100
AcDbDimStyleTableRecord
  2
ISO-25
 70
     0
  3

  4

  5

  6

  7

 40
1.0
 41
2.5
 42
0.625
 43
3.75
 44
1.25
 45
0.0
 46
0.0
 47
0.0
 48
0.0
140
2.5
141
2.5
142
0.0
143
0.03937007874016
144
1.0
145
0.0
146
1.0
147
0.625
 71
     0
 72
     0
 73
     0
 74
     0
 75
     0
 76
     0
 77
     1
 78
     8
170
     0
171
     3
172
     1
173
     0
174
     0
175
     0
176
     0
177
     0
178
     0
270
     2
271
     2
272
     2
273
     2
274
     3
340
11
275
     0
280
     0
281
     0
282
     0
283
     0
284
     8
285
     0
286
     0
287
     3
288
     0
  0
ENDTAB
  0
TABLE
  2
BLOCK_RECORD
  5
1
330
0
100
AcDbSymbolTable
 70
     1
  0
BLOCK_RECORD
  5
1F
330
1
100
AcDbSymbolTableRecord
100
AcDbBlockTableRecord
  2
*MODEL_SPACE
  0
BLOCK_RECORD
  5
1B
330
1
100
AcDbSymbolTableRecord
100
AcDbBlockTableRecord
  2
*PAPER_SPACE
  0
ENDTAB
  0
ENDSEC
  0
SECTION
  2
BLOCKS
  0
BLOCK
  5
20
330
1F
100
AcDbEntity
  8
0
100
AcDbBlockBegin
  2
*MODEL_SPACE
 70
     0
 10
0.0
 20
0.0
 30
0.0
  3
*MODEL_SPACE
  1

  0
ENDBLK
  5
21
330
1F
100
AcDbEntity
  8
0
100
AcDbBlockEnd
  0
BLOCK
  5
1C
330
1B
100
AcDbEntity
 67
     1
  8
0
100
AcDbBlockBegin
  2
*PAPER_SPACE
 70
     0
 10
0.0
 20
0.0
 30
0.0
  3
*PAPER_SPACE
  1

  0
ENDBLK
  5
1D
330
1B
100
AcDbEntity
 67
     1
  8
0
100
AcDbBlockEnd
  0
ENDSEC
  0
SECTION
  2
ENTITIES
  0
LWPOLYLINE
  5
6E
330
1F
100
AcDbEntity
  8
MECHANICAL1
100
AcDbPolyline
 90
        2
 70
     0
 43
0.0499999
 10
387.33439678
 20
144.6702339
 10
387.33439678
 20
166.67023308
  0
LWPOLYLINE
  5
6F
330
1F
100
AcDbEntity
  8
MECHANICAL1
100
AcDbPolyline
 90
        2
 70
     1
 43
0.02499868
 10
387.32189744
 20
144.6702339
 42
1.0
 10
387.34689612
 20
144.6702339
 42
1.0
  0
LWPOLYLINE
  5
70
330
1F
100
AcDbEntity
  8
MECHANICAL1
100
AcDbPolyline
 90
        2
 70
     1
 43
0.02499868
 10
387.32189744
 20
166.67023308
 42
1.0
 10
387.34689612
 20
166.67023308
 42
1.0
  0
LWPOLYLINE
  5
71
330
1F
100
AcDbEntity
  8
MECHANICAL1
100
AcDbPolyline
 90
        2
 70
     0
 43
0.0499999
 10
387.33439678
 20
166.67023308
 10
471.33439642
 20
166.67023308
  0
LWPOLYLINE
  5
72
330
1F
100
AcDbEntity
  8
MECHANICAL1
100
AcDbPolyline
 90
        2
 70
     1
 43
0.02499868
 10
387.32189744
 20
166.67023308
 42
1.0
 10
387.34689612
 20
166.67023308
 42
1.0
  0
LWPOLYLINE
  5
73
330
1F
100
AcDbEntity
  8
MECHANICAL1
100
AcDbPolyline
 90
        2
 70
     1
 43
0.02499868
 10
471.32189708
 20
166.67023308
 42
1.0
 10
471.34689576
 20
166.67023308
 42
1.0
  0
LWPOLYLINE
  5
74
330
1F
100
AcDbEntity
  8
MECHANICAL1
100
AcDbPolyline
 90
        2
 70
     0
 43
0.0499999
 10
471.33439642
 20
144.6702339
 10
471.33439642
 20
166.67023308
  0
LWPOLYLINE
  5
75
330
1F
100
AcDbEntity
  8
MECHANICAL1
100
AcDbPolyline
 90
        2
 70
     1
 43
0.02499868
 10
471.32189708
 20
144.6702339
 42
1.0
 10
471.34689576
 20
144.6702339
 42
1.0
  0
LWPOLYLINE
  5
76
330
1F
100
AcDbEntity
  8
MECHANICAL1
100
AcDbPolyline
 90
        2
 70
     1
 43
0.02499868
 10
471.32189708
 20
166.67023308
 42
1.0
 10
471.34689576
 20
166.67023308
 42
1.0
  0
LWPOLYLINE
  5
77
330
1F
100
AcDbEntity
  8
MECHANICAL1
100
AcDbPolyline
 90
        2
 70
     0
 43
0.0499999
 10
387.33439678
 20
144.6702339
 10
471.33439642
 20
144.6702339
  0
LWPOLYLINE
  5
78
330
1F
100
AcDbEntity
  8
MECHANICAL1
100
AcDbPolyline
 90
        2
 70
     1
 43
0.02499868
 10
387.32189744
 20
144.6702339
 42
1.0
 10
387.34689612
 20
144.6702339
 42
1.0
  0
LWPOLYLINE
  5
79
330
1F
100
AcDbEntity
  8
MECHANICAL1
100
AcDbPolyline
 90
        2
 70
     1
 43
0.02499868
 10
471.32189708
 20
144.6702339
 42
1.0
 10
471.34689576
 20
144.6702339
 42
1.0
  0
LWPOLYLINE
  5
7A
330
1F
100
AcDbEntity
  8
TOPOVERLAY
100
AcDbPolyline
 90
        2
 70
     0
 43
1.79999894
 10
431.134393
 20
146.17023344
 10
433.83439522
 20
146.17023344
  0
LWPOLYLINE
  5
7B
330
1F
100
AcDbEntity
  8
TOPOVERLAY
100
AcDbPolyline
 90
        2
 70
     1
 43
0.8999982
 10
430.6843939
 20
146.17023344
 42
1.0
 10
431.5843921
 20
146.17023344
 42
1.0
  0
LWPOLYLINE
  5
7C
330
1F
100
AcDbEntity
  8
TOPOVERLAY
100
AcDbPolyline
 90
        2
 70
     1
 43
0.8999982
 10
433.38439612
 20
146.17023344
 42
1.0
 10
434.28439432
 20
146.17023344
 42
1.0
  0
LWPOLYLINE
  5
7D
330
1F
100
AcDbEntity
  8
PADHOLELAYER
100
AcDbPolyline
 90
        2
 70
     1
 43
0.5999987999999999
 10
463.0343927
 20
156.67023022
 42
1.0
 10
463.6343915
 20
156.67023022
 42
1.0
  0
LWPOLYLINE
  5
7E
330
1F
100
AcDbEntity
  8
PADHOLELAYER
100
AcDbPolyline
 90
        2
 70
     1
 43
0.5999987999999999
 10
395.03439662
 20
156.67023276
 42
1.0
 10
395.63439542
 20
156.67023276
 42
1.0
  0
LINE
  5
7F
330
1F
100
AcDbEntity
  8
TOPOVERLAY
100
AcDbLine
 10
397.8343961
 20
146.86984342
 30
0.0
 11
397.8343961
 21
145.6702319
 31
0.0
  0
LINE
  5
80
330
1F
100
AcDbEntity
  8
TOPOVERLAY
100
AcDbLine
 10
397.8343961
 20
145.6702319
 30
0.0
 11
397.8343961
 21
146.27003766
 31
0.0
  0
LINE
  5
81
330
1F
100
AcDbEntity
  8
TOPOVERLAY
100
AcDbLine
 10
397.8343961
 20
146.27003766
 30
0.0
 11
398.63413796
 21
146.27003766
 31
0.0
  0
LINE
  5
82
330
1F
100
AcDbEntity
  8
TOPOVERLAY
100
AcDbLine
 10
398.63413796
 20
146.27003766
 30
0.0
 11
398.63413796
 21
146.86984342
 31
0.0
  0
LINE
  5
83
330
1F
100
AcDbEntity
  8
TOPOVERLAY
100
AcDbLine
 10
398.63413796
 20
146.86984342
 30
0.0
 11
398.63413796
 21
145.6702319
 31
0.0
  0
LINE
  5
84
330
1F
100
AcDbEntity
  8
TOPOVERLAY
100
AcDbLine
 10
399.03400762
 20
145.6702319
 30
0.0
 11
399.03400762
 21
146.86984342
 31
0.0
  0
LINE
  5
85
330
1F
100
AcDbEntity
  8
TOPOVERLAY
100
AcDbLine
 10
399.03400762
 20
146.86984342
 30
0.0
 11
399.43387728
 21
146.46997376
 31
0.0
  0
LINE
  5
86
330
1F
100
AcDbEntity
  8
TOPOVERLAY
100
AcDbLine
 10
399.43387728
 20
146.46997376
 30
0.0
 11
399.83374948
 21
146.86984342
 31
0.0
  0
LINE
  5
87
330
1F
100
AcDbEntity
  8
TOPOVERLAY
100
AcDbLine
 10
399.83374948
 20
146.86984342
 30
0.0
 11
399.83374948
 21
145.6702319
 31
0.0
  0
LINE
  5
88
330
1F
100
AcDbEntity
  8
TOPOVERLAY
100
AcDbLine
 10
400.23361914
 20
146.86984342
 30
0.0
 11
400.23361914
 21
145.6702319
 31
0.0
  0
LINE
  5
89
330
1F
100
AcDbEntity
  8
TOPOVERLAY
100
AcDbLine
 10
400.23361914
 20
145.6702319
 30
0.0
 11
400.8334249
 21
145.6702319
 31
0.0
  0
LINE
  5
8A
330
1F
100
AcDbEntity
  8
TOPOVERLAY
100
AcDbLine
 10
400.8334249
 20
145.6702319
 30
0.0
 11
401.033361
 21
145.870168
 31
0.0
  0
LINE
  5
8B
330
1F
100
AcDbEntity
  8
TOPOVERLAY
100
AcDbLine
 10
401.033361
 20
145.870168
 30
0.0
 11
401.033361
 21
146.66990986
 31
0.0
  0
LINE
  5
8C
330
1F
100
AcDbEntity
  8
TOPOVERLAY
100
AcDbLine
 10
401.033361
 20
146.66990986
 30
0.0
 11
400.8334249
 21
146.86984342
 31
0.0
  0
LINE
  5
8D
330
1F
100
AcDbEntity
  8
TOPOVERLAY
100
AcDbLine
 10
400.8334249
 20
146.86984342
 30
0.0
 11
400.23361914
 21
146.86984342
 31
0.0
  0
LINE
  5
8E
330
1F
100
AcDbEntity
  8
TOPOVERLAY
100
AcDbLine
 10
402.63284218
 20
146.86984342
 30
0.0
 11
402.63284218
 21
145.6702319
 31
0.0
  0
LINE
  5
8F
330
1F
100
AcDbEntity
  8
TOPOVERLAY
100
AcDbLine
 10
402.63284218
 20
145.6702319
 30
0.0
 11
403.23264794
 21
145.6702319
 31
0.0
  0
LINE
  5
90
330
1F
100
AcDbEntity
  8
TOPOVERLAY
100
AcDbLine
 10
403.23264794
 20
145.6702319
 30
0.0
 11
403.43258404
 21
145.870168
 31
0.0
  0
LINE
  5
91
330
1F
100
AcDbEntity
  8
TOPOVERLAY
100
AcDbLine
 10
403.43258404
 20
145.870168
 30
0.0
 11
403.43258404
 21
146.07010156
 31
0.0
  0
LINE
  5
92
330
1F
100
AcDbEntity
  8
TOPOVERLAY
100
AcDbLine
 10
403.43258404
 20
146.07010156
 30
0.0
 11
403.23264794
 21
146.27003766
 31
0.0
  0
LINE
  5
93
330
1F
100
AcDbEntity
  8
TOPOVERLAY
100
AcDbLine
 10
403.23264794
 20
146.27003766
 30
0.0
 11
402.63284218
 21
146.27003766
 31
0.0
  0
LINE
  5
94
330
1F
100
AcDbEntity
  8
TOPOVERLAY
100
AcDbLine
 10
402.63284218
 20
146.27003766
 30
0.0
 11
403.23264794
 21
146.27003766
 31
0.0
  0
LINE
  5
95
330
1F
100
AcDbEntity
  8
TOPOVERLAY
100
AcDbLine
 10
403.23264794
 20
146.27003766
 30
0.0
 11
403.43258404
 21
146.46997376
 31
0.0
  0
LINE
  5
96
330
1F
100
AcDbEntity
  8
TOPOVERLAY
100
AcDbLine
 10
403.43258404
 20
146.46997376
 30
0.0
 11
403.43258404
 21
146.66990986
 31
0.0
  0
LINE
  5
97
330
1F
100
AcDbEntity
  8
TOPOVERLAY
100
AcDbLine
 10
403.43258404
 20
146.66990986
 30
0.0
 11
403.23264794
 21
146.86984342
 31
0.0
  0
LINE
  5
98
330
1F
100
AcDbEntity
  8
TOPOVERLAY
100
AcDbLine
 10
403.23264794
 20
146.86984342
 30
0.0
 11
402.63284218
 21
146.86984342
 31
0.0
  0
LINE
  5
99
330
1F
100
AcDbEntity
  8
TOPOVERLAY
100
AcDbLine
 10
403.8324537
 20
146.46997376
 30
0.0
 11
403.8324537
 21
145.870168
 31
0.0
  0
LINE
  5
9A
330
1F
100
AcDbEntity
  8
TOPOVERLAY
100
AcDbLine
 10
403.8324537
 20
145.870168
 30
0.0
 11
404.0323898
 21
145.6702319
 31
0.0
  0
LINE
  5
9B
330
1F
100
AcDbEntity
  8
TOPOVERLAY
100
AcDbLine
 10
404.0323898
 20
145.6702319
 30
0.0
 11
404.63219556
 21
145.6702319
 31
0.0
  0
LINE
  5
9C
330
1F
100
AcDbEntity
  8
TOPOVERLAY
100
AcDbLine
 10
404.63219556
 20
145.6702319
 30
0.0
 11
404.63219556
 21
146.46997376
 31
0.0
  0
LINE
  5
9D
330
1F
100
AcDbEntity
  8
TOPOVERLAY
100
AcDbLine
 10
405.23200132
 20
146.66990986
 30
0.0
 11
405.23200132
 21
146.46997376
 31
0.0
  0
LINE
  5
9E
330
1F
100
AcDbEntity
  8
TOPOVERLAY
100
AcDbLine
 10
405.23200132
 20
146.46997376
 30
0.0
 11
405.03206522
 21
146.46997376
 31
0.0
  0
LINE
  5
9F
330
1F
100
AcDbEntity
  8
TOPOVERLAY
100
AcDbLine
 10
405.03206522
 20
146.46997376
 30
0.0
 11
405.43193488
 21
146.46997376
 31
0.0
  0
LINE
  5
A0
330
1F
100
AcDbEntity
  8
TOPOVERLAY
100
AcDbLine
 10
405.43193488
 20
146.46997376
 30
0.0
 11
405.23200132
 21
146.46997376
 31
0.0
  0
LINE
  5
A1
330
1F
100
AcDbEntity
  8
TOPOVERLAY
100
AcDbLine
 10
405.23200132
 20
146.46997376
 30
0.0
 11
405.23200132
 21
145.870168
 31
0.0
  0
LINE
  5
A2
330
1F
100
AcDbEntity
  8
TOPOVERLAY
100
AcDbLine
 10
405.23200132
 20
145.870168
 30
0.0
 11
405.43193488
 21
145.6702319
 31
0.0
  0
LINE
  5
A3
330
1F
100
AcDbEntity
  8
TOPOVERLAY
100
AcDbLine
 10
406.23167928
 20
146.66990986
 30
0.0
 11
406.23167928
 21
146.46997376
 31
0.0
  0
LINE
  5
A4
330
1F
100
AcDbEntity
  8
TOPOVERLAY
100
AcDbLine
 10
406.23167928
 20
146.46997376
 30
0.0
 11
406.03174318
 21
146.46997376
 31
0.0
  0
LINE
  5
A5
330
1F
100
AcDbEntity
  8
TOPOVERLAY
100
AcDbLine
 10
406.03174318
 20
146.46997376
 30
0.0
 11
406.43161284
 21
146.46997376
 31
0.0
  0
LINE
  5
A6
330
1F
100
AcDbEntity
  8
TOPOVERLAY
100
AcDbLine
 10
406.43161284
 20
146.46997376
 30
0.0
 11
406.23167928
 21
146.46997376
 31
0.0
  0
LINE
  5
A7
330
1F
100
AcDbEntity
  8
TOPOVERLAY
100
AcDbLine
 10
406.23167928
 20
146.46997376
 30
0.0
 11
406.23167928
 21
145.870168
 31
0.0
  0
LINE
  5
A8
330
1F
100
AcDbEntity
  8
TOPOVERLAY
100
AcDbLine
 10
406.23167928
 20
145.870168
 30
0.0
 11
406.43161284
 21
145.6702319
 31
0.0
  0
LINE
  5
A9
330
1F
100
AcDbEntity
  8
TOPOVERLAY
100
AcDbLine
 10
407.23135724
 20
145.6702319
 30
0.0
 11
407.6312269
 21
145.6702319
 31
0.0
  0
LINE
  5
AA
330
1F
100
AcDbEntity
  8
TOPOVERLAY
100
AcDbLine
 10
407.6312269
 20
145.6702319
 30
0.0
 11
407.831163
 21
145.870168
 31
0.0
  0
LINE
  5
AB
330
1F
100
AcDbEntity
  8
TOPOVERLAY
100
AcDbLine
 10
407.831163
 20
145.870168
 30
0.0
 11
407.831163
 21
146.27003766
 31
0.0
  0
LINE
  5
AC
330
1F
100
AcDbEntity
  8
TOPOVERLAY
100
AcDbLine
 10
407.831163
 20
146.27003766
 30
0.0
 11
407.6312269
 21
146.46997376
 31
0.0
  0
LINE
  5
AD
330
1F
100
AcDbEntity
  8
TOPOVERLAY
100
AcDbLine
 10
407.6312269
 20
146.46997376
 30
0.0
 11
407.23135724
 21
146.46997376
 31
0.0
  0
LINE
  5
AE
330
1F
100
AcDbEntity
  8
TOPOVERLAY
100
AcDbLine
 10
407.23135724
 20
146.46997376
 30
0.0
 11
407.03142114
 21
146.27003766
 31
0.0
  0
LINE
  5
AF
330
1F
100
AcDbEntity
  8
TOPOVERLAY
100
AcDbLine
 10
407.03142114
 20
146.27003766
 30
0.0
 11
407.03142114
 21
145.870168
 31
0.0
  0
LINE
  5
B0
330
1F
100
AcDbEntity
  8
TOPOVERLAY
100
AcDbLine
 10
407.03142114
 20
145.870168
 30
0.0
 11
407.23135724
 21
145.6702319
 31
0.0
  0
LINE
  5
B1
330
1F
100
AcDbEntity
  8
TOPOVERLAY
100
AcDbLine
 10
408.23103266
 20
145.6702319
 30
0.0
 11
408.23103266
 21
146.46997376
 31
0.0
  0
LINE
  5
B2
330
1F
100
AcDbEntity
  8
TOPOVERLAY
100
AcDbLine
 10
408.23103266
 20
146.46997376
 30
0.0
 11
408.83083842
 21
146.46997376
 31
0.0
  0
LINE
  5
B3
330
1F
100
AcDbEntity
  8
TOPOVERLAY
100
AcDbLine
 10
408.83083842
 20
146.46997376
 30
0.0
 11
409.03077452
 21
146.27003766
 31
0.0
  0
LINE
  5
B4
330
1F
100
AcDbEntity
  8
TOPOVERLAY
100
AcDbLine
 10
409.03077452
 20
146.27003766
 30
0.0
 11
409.03077452
 21
145.6702319
 31
0.0
  0
LINE
  5
B5
330
1F
100
AcDbEntity
  8
TOPOVERLAY
100
AcDbLine
 10
410.6302557
 20
146.86984342
 30
0.0
 11
410.6302557
 21
145.6702319
 31
0.0
  0
LINE
  5
B6
330
1F
100
AcDbEntity
  8
TOPOVERLAY
100
AcDbLine
 10
410.6302557
 20
145.6702319
 30
0.0
 11
411.23006146
 21
145.6702319
 31
0.0
  0
LINE
  5
B7
330
1F
100
AcDbEntity
  8
TOPOVERLAY
100
AcDbLine
 10
411.23006146
 20
145.6702319
 30
0.0
 11
411.42999756
 21
145.870168
 31
0.0
  0
LINE
  5
B8
330
1F
100
AcDbEntity
  8
TOPOVERLAY
100
AcDbLine
 10
411.42999756
 20
145.870168
 30
0.0
 11
411.42999756
 21
146.07010156
 31
0.0
  0
LINE
  5
B9
330
1F
100
AcDbEntity
  8
TOPOVERLAY
100
AcDbLine
 10
411.42999756
 20
146.07010156
 30
0.0
 11
411.23006146
 21
146.27003766
 31
0.0
  0
LINE
  5
BA
330
1F
100
AcDbEntity
  8
TOPOVERLAY
100
AcDbLine
 10
411.23006146
 20
146.27003766
 30
0.0
 11
410.6302557
 21
146.27003766
 31
0.0
  0
LINE
  5
BB
330
1F
100
AcDbEntity
  8
TOPOVERLAY
100
AcDbLine
 10
410.6302557
 20
146.27003766
 30
0.0
 11
411.23006146
 21
146.27003766
 31
0.0
  0
LINE
  5
BC
330
1F
100
AcDbEntity
  8
TOPOVERLAY
100
AcDbLine
 10
411.23006146
 20
146.27003766
 30
0.0
 11
411.42999756
 21
146.46997376
 31
0.0
  0
LINE
  5
BD
330
1F
100
AcDbEntity
  8
TOPOVERLAY
100
AcDbLine
 10
411.42999756
 20
146.46997376
 30
0.0
 11
411.42999756
 21
146.66990986
 31
0.0
  0
LINE
  5
BE
330
1F
100
AcDbEntity
  8
TOPOVERLAY
100
AcDbLine
 10
411.42999756
 20
146.66990986
 30
0.0
 11
411.23006146
 21
146.86984342
 31
0.0
  0
LINE
  5
BF
330
1F
100
AcDbEntity
  8
TOPOVERLAY
100
AcDbLine
 10
411.23006146
 20
146.86984342
 30
0.0
 11
410.6302557
 21
146.86984342
 31
0.0
  0
LINE
  5
C0
330
1F
100
AcDbEntity
  8
TOPOVERLAY
100
AcDbLine
 10
412.02980332
 20
145.6702319
 30
0.0
 11
412.42967298
 21
145.6702319
 31
0.0
  0
LINE
  5
C1
330
1F
100
AcDbEntity
  8
TOPOVERLAY
100
AcDbLine
 10
412.42967298
 20
145.6702319
 30
0.0
 11
412.62960908
 21
145.870168
 31
0.0
  0
LINE
  5
C2
330
1F
100
AcDbEntity
  8
TOPOVERLAY
100
AcDbLine
 10
412.62960908
 20
145.870168
 30
0.0
 11
412.62960908
 21
146.27003766
 31
0.0
  0
LINE
  5
C3
330
1F
100
AcDbEntity
  8
TOPOVERLAY
100
AcDbLine
 10
412.62960908
 20
146.27003766
 30
0.0
 11
412.42967298
 21
146.46997376
 31
0.0
  0
LINE
  5
C4
330
1F
100
AcDbEntity
  8
TOPOVERLAY
100
AcDbLine
 10
412.42967298
 20
146.46997376
 30
0.0
 11
412.02980332
 21
146.46997376
 31
0.0
  0
LINE
  5
C5
330
1F
100
AcDbEntity
  8
TOPOVERLAY
100
AcDbLine
 10
412.02980332
 20
146.46997376
 30
0.0
 11
411.82986722
 21
146.27003766
 31
0.0
  0
LINE
  5
C6
330
1F
100
AcDbEntity
  8
TOPOVERLAY
100
AcDbLine
 10
411.82986722
 20
146.27003766
 30
0.0
 11
411.82986722
 21
145.870168
 31
0.0
  0
LINE
  5
C7
330
1F
100
AcDbEntity
  8
TOPOVERLAY
100
AcDbLine
 10
411.82986722
 20
145.870168
 30
0.0
 11
412.02980332
 21
145.6702319
 31
0.0
  0
LINE
  5
C8
330
1F
100
AcDbEntity
  8
TOPOVERLAY
100
AcDbLine
 10
413.22941484
 20
146.46997376
 30
0.0
 11
413.6292845
 21
146.46997376
 31
0.0
  0
LINE
  5
C9
330
1F
100
AcDbEntity
  8
TOPOVERLAY
100
AcDbLine
 10
413.6292845
 20
146.46997376
 30
0.0
 11
413.8292206
 21
146.27003766
 31
0.0
  0
LINE
  5
CA
330
1F
100
AcDbEntity
  8
TOPOVERLAY
100
AcDbLine
 10
413.8292206
 20
146.27003766
 30
0.0
 11
413.8292206
 21
145.6702319
 31
0.0
  0
LINE
  5
CB
330
1F
100
AcDbEntity
  8
TOPOVERLAY
100
AcDbLine
 10
413.8292206
 20
145.6702319
 30
0.0
 11
413.22941484
 21
145.6702319
 31
0.0
  0
LINE
  5
CC
330
1F
100
AcDbEntity
  8
TOPOVERLAY
100
AcDbLine
 10
413.22941484
 20
145.6702319
 30
0.0
 11
413.02947874
 21
145.870168
 31
0.0
  0
LINE
  5
CD
330
1F
100
AcDbEntity
  8
TOPOVERLAY
100
AcDbLine
 10
413.02947874
 20
145.870168
 30
0.0
 11
413.22941484
 21
146.07010156
 31
0.0
  0
LINE
  5
CE
330
1F
100
AcDbEntity
  8
TOPOVERLAY
100
AcDbLine
 10
413.22941484
 20
146.07010156
 30
0.0
 11
413.8292206
 21
146.07010156
 31
0.0
  0
LINE
  5
CF
330
1F
100
AcDbEntity
  8
TOPOVERLAY
100
AcDbLine
 10
414.22909026
 20
146.46997376
 30
0.0
 11
414.22909026
 21
145.6702319
 31
0.0
  0
LINE
  5
D0
330
1F
100
AcDbEntity
  8
TOPOVERLAY
100
AcDbLine
 10
414.22909026
 20
145.6702319
 30
0.0
 11
414.22909026
 21
146.07010156
 31
0.0
  0
LINE
  5
D1
330
1F
100
AcDbEntity
  8
TOPOVERLAY
100
AcDbLine
 10
414.22909026
 20
146.07010156
 30
0.0
 11
414.42902636
 21
146.27003766
 31
0.0
  0
LINE
  5
D2
330
1F
100
AcDbEntity
  8
TOPOVERLAY
100
AcDbLine
 10
414.42902636
 20
146.27003766
 30
0.0
 11
414.62895992
 21
146.46997376
 31
0.0
  0
LINE
  5
D3
330
1F
100
AcDbEntity
  8
TOPOVERLAY
100
AcDbLine
 10
414.62895992
 20
146.46997376
 30
0.0
 11
414.82889602
 21
146.46997376
 31
0.0
  0
LINE
  5
D4
330
1F
100
AcDbEntity
  8
TOPOVERLAY
100
AcDbLine
 10
416.22844364
 20
146.86984342
 30
0.0
 11
416.22844364
 21
145.6702319
 31
0.0
  0
LINE
  5
D5
330
1F
100
AcDbEntity
  8
TOPOVERLAY
100
AcDbLine
 10
416.22844364
 20
145.6702319
 30
0.0
 11
415.62863788
 21
145.6702319
 31
0.0
  0
LINE
  5
D6
330
1F
100
AcDbEntity
  8
TOPOVERLAY
100
AcDbLine
 10
415.62863788
 20
145.6702319
 30
0.0
 11
415.42870178
 21
145.870168
 31
0.0
  0
LINE
  5
D7
330
1F
100
AcDbEntity
  8
TOPOVERLAY
100
AcDbLine
 10
415.42870178
 20
145.870168
 30
0.0
 11
415.42870178
 21
146.27003766
 31
0.0
  0
LINE
  5
D8
330
1F
100
AcDbEntity
  8
TOPOVERLAY
100
AcDbLine
 10
415.42870178
 20
146.27003766
 30
0.0
 11
415.62863788
 21
146.46997376
 31
0.0
  0
LINE
  5
D9
330
1F
100
AcDbEntity
  8
TOPOVERLAY
100
AcDbLine
 10
415.62863788
 20
146.46997376
 30
0.0
 11
416.22844364
 21
146.46997376
 31
0.0
  0
LINE
  5
DA
330
1F
100
AcDbEntity
  8
TOPOVERLAY
100
AcDbLine
 10
426.33439752
 20
145.6702319
 30
0.0
 11
426.33439752
 21
146.86984342
 31
0.0
  0
LINE
  5
DB
330
1F
100
AcDbEntity
  8
TOPOVERLAY
100
AcDbLine
 10
426.33439752
 20
146.86984342
 30
0.0
 11
426.93420328
 21
146.86984342
 31
0.0
  0
LINE
  5
DC
330
1F
100
AcDbEntity
  8
TOPOVERLAY
100
AcDbLine
 10
426.93420328
 20
146.86984342
 30
0.0
 11
427.13413938
 21
146.66990986
 31
0.0
  0
LINE
  5
DD
330
1F
100
AcDbEntity
  8
TOPOVERLAY
100
AcDbLine
 10
427.13413938
 20
146.66990986
 30
0.0
 11
427.13413938
 21
146.27003766
 31
0.0
  0
LINE
  5
DE
330
1F
100
AcDbEntity
  8
TOPOVERLAY
100
AcDbLine
 10
427.13413938
 20
146.27003766
 30
0.0
 11
426.93420328
 21
146.07010156
 31
0.0
  0
LINE
  5
DF
330
1F
100
AcDbEntity
  8
TOPOVERLAY
100
AcDbLine
 10
426.93420328
 20
146.07010156
 30
0.0
 11
426.33439752
 21
146.07010156
 31
0.0
  0
LINE
  5
E0
330
1F
100
AcDbEntity
  8
TOPOVERLAY
100
AcDbLine
 10
426.73426718
 20
146.07010156
 30
0.0
 11
427.13413938
 21
145.6702319
 31
0.0
  0
LINE
  5
E1
330
1F
100
AcDbEntity
  8
TOPOVERLAY
100
AcDbLine
 10
428.3337509
 20
146.86984342
 30
0.0
 11
427.53400904
 21
146.86984342
 31
0.0
  0
LINE
  5
E2
330
1F
100
AcDbEntity
  8
TOPOVERLAY
100
AcDbLine
 10
427.53400904
 20
146.86984342
 30
0.0
 11
427.53400904
 21
145.6702319
 31
0.0
  0
LINE
  5
E3
330
1F
100
AcDbEntity
  8
TOPOVERLAY
100
AcDbLine
 10
427.53400904
 20
145.6702319
 30
0.0
 11
428.3337509
 21
145.6702319
 31
0.0
  0
LINE
  5
E4
330
1F
100
AcDbEntity
  8
TOPOVERLAY
100
AcDbLine
 10
427.53400904
 20
146.27003766
 30
0.0
 11
427.9338787
 21
146.27003766
 31
0.0
  0
LINE
  5
E5
330
1F
100
AcDbEntity
  8
TOPOVERLAY
100
AcDbLine
 10
428.73362056
 20
146.86984342
 30
0.0
 11
428.73362056
 21
146.07010156
 31
0.0
  0
LINE
  5
E6
330
1F
100
AcDbEntity
  8
TOPOVERLAY
100
AcDbLine
 10
428.73362056
 20
146.07010156
 30
0.0
 11
429.13349022
 21
145.6702319
 31
0.0
  0
LINE
  5
E7
330
1F
100
AcDbEntity
  8
TOPOVERLAY
100
AcDbLine
 10
429.13349022
 20
145.6702319
 30
0.0
 11
429.53336242
 21
146.07010156
 31
0.0
  0
LINE
  5
E8
330
1F
100
AcDbEntity
  8
TOPOVERLAY
100
AcDbLine
 10
429.53336242
 20
146.07010156
 30
0.0
 11
429.53336242
 21
146.86984342
 31
0.0
  0
LINE
  5
E9
330
1F
100
AcDbEntity
  8
TOPOVERLAY
100
AcDbLine
 10
418.33439574
 20
145.6702319
 30
0.0
 11
418.7342654
 21
145.6702319
 31
0.0
  0
LINE
  5
EA
330
1F
100
AcDbEntity
  8
TOPOVERLAY
100
AcDbLine
 10
418.7342654
 20
145.6702319
 30
0.0
 11
418.53433184
 21
145.6702319
 31
0.0
  0
LINE
  5
EB
330
1F
100
AcDbEntity
  8
TOPOVERLAY
100
AcDbLine
 10
418.53433184
 20
145.6702319
 30
0.0
 11
418.53433184
 21
146.86984342
 31
0.0
  0
LINE
  5
EC
330
1F
100
AcDbEntity
  8
TOPOVERLAY
100
AcDbLine
 10
418.53433184
 20
146.86984342
 30
0.0
 11
418.33439574
 21
146.66990986
 31
0.0
  0
LINE
  5
ED
330
1F
100
AcDbEntity
  8
TOPOVERLAY
100
AcDbLine
 10
419.3340737
 20
146.66990986
 30
0.0
 11
419.5340098
 21
146.86984342
 31
0.0
  0
LINE
  5
EE
330
1F
100
AcDbEntity
  8
TOPOVERLAY
100
AcDbLine
 10
419.5340098
 20
146.86984342
 30
0.0
 11
419.93387946
 21
146.86984342
 31
0.0
  0
LINE
  5
EF
330
1F
100
AcDbEntity
  8
TOPOVERLAY
100
AcDbLine
 10
419.93387946
 20
146.86984342
 30
0.0
 11
420.13381556
 21
146.66990986
 31
0.0
  0
LINE
  5
F0
330
1F
100
AcDbEntity
  8
TOPOVERLAY
100
AcDbLine
 10
420.13381556
 20
146.66990986
 30
0.0
 11
420.13381556
 21
145.870168
 31
0.0
  0
LINE
  5
F1
330
1F
100
AcDbEntity
  8
TOPOVERLAY
100
AcDbLine
 10
420.13381556
 20
145.870168
 30
0.0
 11
419.93387946
 21
145.6702319
 31
0.0
  0
LINE
  5
F2
330
1F
100
AcDbEntity
  8
TOPOVERLAY
100
AcDbLine
 10
419.93387946
 20
145.6702319
 30
0.0
 11
419.5340098
 21
145.6702319
 31
0.0
  0
LINE
  5
F3
330
1F
100
AcDbEntity
  8
TOPOVERLAY
100
AcDbLine
 10
419.5340098
 20
145.6702319
 30
0.0
 11
419.3340737
 21
145.870168
 31
0.0
  0
LINE
  5
F4
330
1F
100
AcDbEntity
  8
TOPOVERLAY
100
AcDbLine
 10
419.3340737
 20
145.870168
 30
0.0
 11
419.3340737
 21
146.66990986
 31
0.0
  0
LINE
  5
F5
330
1F
100
AcDbEntity
  8
TOPOVERLAY
100
AcDbLine
 10
420.53368522
 20
146.66990986
 30
0.0
 11
420.73362132
 21
146.86984342
 31
0.0
  0
LINE
  5
F6
330
1F
100
AcDbEntity
  8
TOPOVERLAY
100
AcDbLine
 10
420.73362132
 20
146.86984342
 30
0.0
 11
421.13349098
 21
146.86984342
 31
0.0
  0
LINE
  5
F7
330
1F
100
AcDbEntity
  8
TOPOVERLAY
100
AcDbLine
 10
421.13349098
 20
146.86984342
 30
0.0
 11
421.33342708
 21
146.66990986
 31
0.0
  0
LINE
  5
F8
330
1F
100
AcDbEntity
  8
TOPOVERLAY
100
AcDbLine
 10
421.33342708
 20
146.66990986
 30
0.0
 11
421.33342708
 21
145.870168
 31
0.0
  0
LINE
  5
F9
330
1F
100
AcDbEntity
  8
TOPOVERLAY
100
AcDbLine
 10
421.33342708
 20
145.870168
 30
0.0
 11
421.13349098
 21
145.6702319
 31
0.0
  0
LINE
  5
FA
330
1F
100
AcDbEntity
  8
TOPOVERLAY
100
AcDbLine
 10
421.13349098
 20
145.6702319
 30
0.0
 11
420.73362132
 21
145.6702319
 31
0.0
  0
LINE
  5
FB
330
1F
100
AcDbEntity
  8
TOPOVERLAY
100
AcDbLine
 10
420.73362132
 20
145.6702319
 30
0.0
 11
420.53368522
 21
145.870168
 31
0.0
  0
LINE
  5
FC
330
1F
100
AcDbEntity
  8
TOPOVERLAY
100
AcDbLine
 10
420.53368522
 20
145.870168
 30
0.0
 11
420.53368522
 21
146.66990986
 31
0.0
  0
LINE
  5
FD
330
1F
100
AcDbEntity
  8
TOPOVERLAY
100
AcDbLine
 10
421.73329674
 20
146.66990986
 30
0.0
 11
421.93323284
 21
146.86984342
 31
0.0
  0
LINE
  5
FE
330
1F
100
AcDbEntity
  8
TOPOVERLAY
100
AcDbLine
 10
421.93323284
 20
146.86984342
 30
0.0
 11
422.3331025
 21
146.86984342
 31
0.0
  0
LINE
  5
FF
330
1F
100
AcDbEntity
  8
TOPOVERLAY
100
AcDbLine
 10
422.3331025
 20
146.86984342
 30
0.0
 11
422.5330386
 21
146.66990986
 31
0.0
  0
LINE
  5
100
330
1F
100
AcDbEntity
  8
TOPOVERLAY
100
AcDbLine
 10
422.5330386
 20
146.66990986
 30
0.0
 11
422.5330386
 21
146.46997376
 31
0.0
  0
LINE
  5
101
330
1F
100
AcDbEntity
  8
TOPOVERLAY
100
AcDbLine
 10
422.5330386
 20
146.46997376
 30
0.0
 11
422.3331025
 21
146.27003766
 31
0.0
  0
LINE
  5
102
330
1F
100
AcDbEntity
  8
TOPOVERLAY
100
AcDbLine
 10
422.3331025
 20
146.27003766
 30
0.0
 11
422.5330386
 21
146.07010156
 31
0.0
  0
LINE
  5
103
330
1F
100
AcDbEntity
  8
TOPOVERLAY
100
AcDbLine
 10
422.5330386
 20
146.07010156
 30
0.0
 11
422.5330386
 21
145.870168
 31
0.0
  0
LINE
  5
104
330
1F
100
AcDbEntity
  8
TOPOVERLAY
100
AcDbLine
 10
422.5330386
 20
145.870168
 30
0.0
 11
422.3331025
 21
145.6702319
 31
0.0
  0
LINE
  5
105
330
1F
100
AcDbEntity
  8
TOPOVERLAY
100
AcDbLine
 10
422.3331025
 20
145.6702319
 30
0.0
 11
421.93323284
 21
145.6702319
 31
0.0
  0
LINE
  5
106
330
1F
100
AcDbEntity
  8
TOPOVERLAY
100
AcDbLine
 10
421.93323284
 20
145.6702319
 30
0.0
 11
421.73329674
 21
145.870168
 31
0.0
  0
LINE
  5
107
330
1F
100
AcDbEntity
  8
TOPOVERLAY
100
AcDbLine
 10
421.73329674
 20
145.870168
 30
0.0
 11
421.73329674
 21
146.07010156
 31
0.0
  0
LINE
  5
108
330
1F
100
AcDbEntity
  8
TOPOVERLAY
100
AcDbLine
 10
421.73329674
 20
146.07010156
 30
0.0
 11
421.93323284
 21
146.27003766
 31
0.0
  0
LINE
  5
109
330
1F
100
AcDbEntity
  8
TOPOVERLAY
100
AcDbLine
 10
421.93323284
 20
146.27003766
 30
0.0
 11
421.73329674
 21
146.46997376
 31
0.0
  0
LINE
  5
10A
330
1F
100
AcDbEntity
  8
TOPOVERLAY
100
AcDbLine
 10
421.73329674
 20
146.46997376
 30
0.0
 11
421.73329674
 21
146.66990986
 31
0.0
  0
LINE
  5
10B
330
1F
100
AcDbEntity
  8
TOPOVERLAY
100
AcDbLine
 10
421.93323284
 20
146.27003766
 30
0.0
 11
422.3331025
 21
146.27003766
 31
0.0
  0
LINE
  5
10C
330
1F
100
AcDbEntity
  8
TOPOVERLAY
100
AcDbLine
 10
423.73265012
 20
146.86984342
 30
0.0
 11
423.33277792
 21
146.66990986
 31
0.0
  0
LINE
  5
10D
330
1F
100
AcDbEntity
  8
TOPOVERLAY
100
AcDbLine
 10
423.33277792
 20
146.66990986
 30
0.0
 11
422.93290826
 21
146.27003766
 31
0.0
  0
LINE
  5
10E
330
1F
100
AcDbEntity
  8
TOPOVERLAY
100
AcDbLine
 10
422.93290826
 20
146.27003766
 30
0.0
 11
422.93290826
 21
145.870168
 31
0.0
  0
LINE
  5
10F
330
1F
100
AcDbEntity
  8
TOPOVERLAY
100
AcDbLine
 10
422.93290826
 20
145.870168
 30
0.0
 11
423.13284436
 21
145.6702319
 31
0.0
  0
LINE
  5
110
330
1F
100
AcDbEntity
  8
TOPOVERLAY
100
AcDbLine
 10
423.13284436
 20
145.6702319
 30
0.0
 11
423.53271402
 21
145.6702319
 31
0.0
  0
LINE
  5
111
330
1F
100
AcDbEntity
  8
TOPOVERLAY
100
AcDbLine
 10
423.53271402
 20
145.6702319
 30
0.0
 11
423.73265012
 21
145.870168
 31
0.0
  0
LINE
  5
112
330
1F
100
AcDbEntity
  8
TOPOVERLAY
100
AcDbLine
 10
423.73265012
 20
145.870168
 30
0.0
 11
423.73265012
 21
146.07010156
 31
0.0
  0
LINE
  5
113
330
1F
100
AcDbEntity
  8
TOPOVERLAY
100
AcDbLine
 10
423.73265012
 20
146.07010156
 30
0.0
 11
423.53271402
 21
146.27003766
 31
0.0
  0
LINE
  5
114
330
1F
100
AcDbEntity
  8
TOPOVERLAY
100
AcDbLine
 10
423.53271402
 20
146.27003766
 30
0.0
 11
422.93290826
 21
146.27003766
 31
0.0
  0
LINE
  5
115
330
1F
100
AcDbEntity
  8
TOPOVERLAY
100
AcDbLine
 10
424.13251978
 20
146.66990986
 30
0.0
 11
424.33245588
 21
146.86984342
 31
0.0
  0
LINE
  5
116
330
1F
100
AcDbEntity
  8
TOPOVERLAY
100
AcDbLine
 10
424.33245588
 20
146.86984342
 30
0.0
 11
424.73232554
 21
146.86984342
 31
0.0
  0
LINE
  5
117
330
1F
100
AcDbEntity
  8
TOPOVERLAY
100
AcDbLine
 10
424.73232554
 20
146.86984342
 30
0.0
 11
424.93226164
 21
146.66990986
 31
0.0
  0
LINE
  5
118
330
1F
100
AcDbEntity
  8
TOPOVERLAY
100
AcDbLine
 10
424.93226164
 20
146.66990986
 30
0.0
 11
424.93226164
 21
146.46997376
 31
0.0
  0
LINE
  5
119
330
1F
100
AcDbEntity
  8
TOPOVERLAY
100
AcDbLine
 10
424.93226164
 20
146.46997376
 30
0.0
 11
424.73232554
 21
146.27003766
 31
0.0
  0
LINE
  5
11A
330
1F
100
AcDbEntity
  8
TOPOVERLAY
100
AcDbLine
 10
424.73232554
 20
146.27003766
 30
0.0
 11
424.53238944
 21
146.27003766
 31
0.0
  0
LINE
  5
11B
330
1F
100
AcDbEntity
  8
TOPOVERLAY
100
AcDbLine
 10
424.53238944
 20
146.27003766
 30
0.0
 11
424.73232554
 21
146.27003766
 31
0.0
  0
LINE
  5
11C
330
1F
100
AcDbEntity
  8
TOPOVERLAY
100
AcDbLine
 10
424.73232554
 20
146.27003766
 30
0.0
 11
424.93226164
 21
146.07010156
 31
0.0
  0
LINE
  5
11D
330
1F
100
AcDbEntity
  8
TOPOVERLAY
100
AcDbLine
 10
424.93226164
 20
146.07010156
 30
0.0
 11
424.93226164
 21
145.870168
 31
0.0
  0
LINE
  5
11E
330
1F
100
AcDbEntity
  8
TOPOVERLAY
100
AcDbLine
 10
424.93226164
 20
145.870168
 30
0.0
 11
424.73232554
 21
145.6702319
 31
0.0
  0
LINE
  5
11F
330
1F
100
AcDbEntity
  8
TOPOVERLAY
100
AcDbLine
 10
424.73232554
 20
145.6702319
 30
0.0
 11
424.33245588
 21
145.6702319
 31
0.0
  0
LINE
  5
120
330
1F
100
AcDbEntity
  8
TOPOVERLAY
100
AcDbLine
 10
424.33245588
 20
145.6702319
 30
0.0
 11
424.13251978
 21
145.870168
 31
0.0
  0
LINE
  5
121
330
1F
100
AcDbEntity
  8
TOPOVERLAY
100
AcDbLine
 10
390.60676006
 20
90.25259826
 30
0.0
 11
390.60676006
 21
86.75334694
 31
0.0
  0
LINE
  5
122
330
1F
100
AcDbEntity
  8
TOPOVERLAY
100
AcDbLine
 10
389.4403438
 20
90.25259826
 30
0.0
 11
391.77317632
 21
90.25259826
 31
0.0
  0
LINE
  5
123
330
1F
100
AcDbEntity
  8
TOPOVERLAY
100
AcDbLine
 10
393.02290966
 20
89.08617946
 30
0.0
 11
392.68964642
 21
88.91955037999999
 31
0.0
  0
LINE
  5
124
330
1F
100
AcDbEntity
  8
TOPOVERLAY
100
AcDbLine
 10
392.68964642
 20
88.91955037999999
 30
0.0
 11
392.35638572
 21
88.58628714
 31
0.0
  0
LINE
  5
125
330
1F
100
AcDbEntity
  8
TOPOVERLAY
100
AcDbLine
 10
392.35638572
 20
88.58628714
 30
0.0
 11
392.1897541
 21
88.08639482
 31
0.0
  0
LINE
  5
126
330
1F
100
AcDbEntity
  8
TOPOVERLAY
100
AcDbLine
 10
392.1897541
 20
88.08639482
 30
0.0
 11
392.1897541
 21
87.75313158
 31
0.0
  0
LINE
  5
127
330
1F
100
AcDbEntity
  8
TOPOVERLAY
100
AcDbLine
 10
392.1897541
 20
87.75313158
 30
0.0
 11
392.35638572
 21
87.25323926
 31
0.0
  0
LINE
  5
128
330
1F
100
AcDbEntity
  8
TOPOVERLAY
100
AcDbLine
 10
392.35638572
 20
87.25323926
 30
0.0
 11
392.68964642
 21
86.91997855999999
 31
0.0
  0
LINE
  5
129
330
1F
100
AcDbEntity
  8
TOPOVERLAY
100
AcDbLine
 10
392.68964642
 20
86.91997855999999
 30
0.0
 11
393.02290966
 21
86.75334694
 31
0.0
  0
LINE
  5
12A
330
1F
100
AcDbEntity
  8
TOPOVERLAY
100
AcDbLine
 10
393.02290966
 20
86.75334694
 30
0.0
 11
393.52280198
 21
86.75334694
 31
0.0
  0
LINE
  5
12B
330
1F
100
AcDbEntity
  8
TOPOVERLAY
100
AcDbLine
 10
393.52280198
 20
86.75334694
 30
0.0
 11
393.85606522
 21
86.91997855999999
 31
0.0
  0
LINE
  5
12C
330
1F
100
AcDbEntity
  8
TOPOVERLAY
100
AcDbLine
 10
393.85606522
 20
86.91997855999999
 30
0.0
 11
394.18932592
 21
87.25323926
 31
0.0
  0
LINE
  5
12D
330
1F
100
AcDbEntity
  8
TOPOVERLAY
100
AcDbLine
 10
394.18932592
 20
87.25323926
 30
0.0
 11
394.35595754
 21
87.75313158
 31
0.0
  0
LINE
  5
12E
330
1F
100
AcDbEntity
  8
TOPOVERLAY
100
AcDbLine
 10
394.35595754
 20
87.75313158
 30
0.0
 11
394.35595754
 21
88.08639482
 31
0.0
  0
LINE
  5
12F
330
1F
100
AcDbEntity
  8
TOPOVERLAY
100
AcDbLine
 10
394.35595754
 20
88.08639482
 30
0.0
 11
394.18932592
 21
88.58628714
 31
0.0
  0
LINE
  5
130
330
1F
100
AcDbEntity
  8
TOPOVERLAY
100
AcDbLine
 10
394.18932592
 20
88.58628714
 30
0.0
 11
393.85606522
 21
88.91955037999999
 31
0.0
  0
LINE
  5
131
330
1F
100
AcDbEntity
  8
TOPOVERLAY
100
AcDbLine
 10
393.85606522
 20
88.91955037999999
 30
0.0
 11
393.52280198
 21
89.08617946
 31
0.0
  0
LINE
  5
132
330
1F
100
AcDbEntity
  8
TOPOVERLAY
100
AcDbLine
 10
393.52280198
 20
89.08617946
 30
0.0
 11
393.02290966
 21
89.08617946
 31
0.0
  0
LINE
  5
133
330
1F
100
AcDbEntity
  8
TOPOVERLAY
100
AcDbLine
 10
395.12245842
 20
89.08617946
 30
0.0
 11
395.12245842
 21
85.58693068
 31
0.0
  0
LINE
  5
134
330
1F
100
AcDbEntity
  8
TOPOVERLAY
100
AcDbLine
 10
395.12245842
 20
88.58628714
 30
0.0
 11
395.45572166
 21
88.91955037999999
 31
0.0
  0
LINE
  5
135
330
1F
100
AcDbEntity
  8
TOPOVERLAY
100
AcDbLine
 10
395.45572166
 20
88.91955037999999
 30
0.0
 11
395.78898236
 21
89.08617946
 31
0.0
  0
LINE
  5
136
330
1F
100
AcDbEntity
  8
TOPOVERLAY
100
AcDbLine
 10
395.78898236
 20
89.08617946
 30
0.0
 11
396.28887468
 21
89.08617946
 31
0.0
  0
LINE
  5
137
330
1F
100
AcDbEntity
  8
TOPOVERLAY
100
AcDbLine
 10
396.28887468
 20
89.08617946
 30
0.0
 11
396.62213792
 21
88.91955037999999
 31
0.0
  0
LINE
  5
138
330
1F
100
AcDbEntity
  8
TOPOVERLAY
100
AcDbLine
 10
396.62213792
 20
88.91955037999999
 30
0.0
 11
396.95539862
 21
88.58628714
 31
0.0
  0
LINE
  5
139
330
1F
100
AcDbEntity
  8
TOPOVERLAY
100
AcDbLine
 10
396.95539862
 20
88.58628714
 30
0.0
 11
397.12203024
 21
88.08639482
 31
0.0
  0
LINE
  5
13A
330
1F
100
AcDbEntity
  8
TOPOVERLAY
100
AcDbLine
 10
397.12203024
 20
88.08639482
 30
0.0
 11
397.12203024
 21
87.75313158
 31
0.0
  0
LINE
  5
13B
330
1F
100
AcDbEntity
  8
TOPOVERLAY
100
AcDbLine
 10
397.12203024
 20
87.75313158
 30
0.0
 11
396.95539862
 21
87.25323926
 31
0.0
  0
LINE
  5
13C
330
1F
100
AcDbEntity
  8
TOPOVERLAY
100
AcDbLine
 10
396.95539862
 20
87.25323926
 30
0.0
 11
396.62213792
 21
86.91997855999999
 31
0.0
  0
LINE
  5
13D
330
1F
100
AcDbEntity
  8
TOPOVERLAY
100
AcDbLine
 10
396.62213792
 20
86.91997855999999
 30
0.0
 11
396.28887468
 21
86.75334694
 31
0.0
  0
LINE
  5
13E
330
1F
100
AcDbEntity
  8
TOPOVERLAY
100
AcDbLine
 10
396.28887468
 20
86.75334694
 30
0.0
 11
395.78898236
 21
86.75334694
 31
0.0
  0
LINE
  5
13F
330
1F
100
AcDbEntity
  8
TOPOVERLAY
100
AcDbLine
 10
395.78898236
 20
86.75334694
 30
0.0
 11
395.45572166
 21
86.91997855999999
 31
0.0
  0
LINE
  5
140
330
1F
100
AcDbEntity
  8
TOPOVERLAY
100
AcDbLine
 10
395.45572166
 20
86.91997855999999
 30
0.0
 11
395.12245842
 21
87.25323926
 31
0.0
  0
LINE
  5
141
330
1F
100
AcDbEntity
  8
TOPOVERLAY
100
AcDbLine
 10
401.62106366
 20
90.25259826
 30
0.0
 11
401.28780296
 21
90.08596664
 31
0.0
  0
LINE
  5
142
330
1F
100
AcDbEntity
  8
TOPOVERLAY
100
AcDbLine
 10
401.28780296
 20
90.08596664
 30
0.0
 11
400.95454226
 21
89.75270594
 31
0.0
  0
LINE
  5
143
330
1F
100
AcDbEntity
  8
TOPOVERLAY
100
AcDbLine
 10
400.95454226
 20
89.75270594
 30
0.0
 11
400.78791064
 21
89.41944269999999
 31
0.0
  0
LINE
  5
144
330
1F
100
AcDbEntity
  8
TOPOVERLAY
100
AcDbLine
 10
400.78791064
 20
89.41944269999999
 30
0.0
 11
400.62127902
 21
88.91955037999999
 31
0.0
  0
LINE
  5
145
330
1F
100
AcDbEntity
  8
TOPOVERLAY
100
AcDbLine
 10
400.62127902
 20
88.91955037999999
 30
0.0
 11
400.62127902
 21
88.08639482
 31
0.0
  0
LINE
  5
146
330
1F
100
AcDbEntity
  8
TOPOVERLAY
100
AcDbLine
 10
400.62127902
 20
88.08639482
 30
0.0
 11
400.78791064
 21
87.5865025
 31
0.0
  0
LINE
  5
147
330
1F
100
AcDbEntity
  8
TOPOVERLAY
100
AcDbLine
 10
400.78791064
 20
87.5865025
 30
0.0
 11
400.95454226
 21
87.25323926
 31
0.0
  0
LINE
  5
148
330
1F
100
AcDbEntity
  8
TOPOVERLAY
100
AcDbLine
 10
400.95454226
 20
87.25323926
 30
0.0
 11
401.28780296
 21
86.91997855999999
 31
0.0
  0
LINE
  5
149
330
1F
100
AcDbEntity
  8
TOPOVERLAY
100
AcDbLine
 10
401.28780296
 20
86.91997855999999
 30
0.0
 11
401.62106366
 21
86.75334694
 31
0.0
  0
LINE
  5
14A
330
1F
100
AcDbEntity
  8
TOPOVERLAY
100
AcDbLine
 10
401.62106366
 20
86.75334694
 30
0.0
 11
402.28759014
 21
86.75334694
 31
0.0
  0
LINE
  5
14B
330
1F
100
AcDbEntity
  8
TOPOVERLAY
100
AcDbLine
 10
402.28759014
 20
86.75334694
 30
0.0
 11
402.62085084
 21
86.91997855999999
 31
0.0
  0
LINE
  5
14C
330
1F
100
AcDbEntity
  8
TOPOVERLAY
100
AcDbLine
 10
402.62085084
 20
86.91997855999999
 30
0.0
 11
402.95411154
 21
87.25323926
 31
0.0
  0
LINE
  5
14D
330
1F
100
AcDbEntity
  8
TOPOVERLAY
100
AcDbLine
 10
402.95411154
 20
87.25323926
 30
0.0
 11
403.12074316
 21
87.5865025
 31
0.0
  0
LINE
  5
14E
330
1F
100
AcDbEntity
  8
TOPOVERLAY
100
AcDbLine
 10
403.12074316
 20
87.5865025
 30
0.0
 11
403.28737478
 21
88.08639482
 31
0.0
  0
LINE
  5
14F
330
1F
100
AcDbEntity
  8
TOPOVERLAY
100
AcDbLine
 10
403.28737478
 20
88.08639482
 30
0.0
 11
403.28737478
 21
88.91955037999999
 31
0.0
  0
LINE
  5
150
330
1F
100
AcDbEntity
  8
TOPOVERLAY
100
AcDbLine
 10
403.28737478
 20
88.91955037999999
 30
0.0
 11
403.12074316
 21
89.41944269999999
 31
0.0
  0
LINE
  5
151
330
1F
100
AcDbEntity
  8
TOPOVERLAY
100
AcDbLine
 10
403.12074316
 20
89.41944269999999
 30
0.0
 11
402.95411154
 21
89.75270594
 31
0.0
  0
LINE
  5
152
330
1F
100
AcDbEntity
  8
TOPOVERLAY
100
AcDbLine
 10
402.95411154
 20
89.75270594
 30
0.0
 11
402.62085084
 21
90.08596664
 31
0.0
  0
LINE
  5
153
330
1F
100
AcDbEntity
  8
TOPOVERLAY
100
AcDbLine
 10
402.62085084
 20
90.08596664
 30
0.0
 11
402.28759014
 21
90.25259826
 31
0.0
  0
LINE
  5
154
330
1F
100
AcDbEntity
  8
TOPOVERLAY
100
AcDbLine
 10
402.28759014
 20
90.25259826
 30
0.0
 11
401.62106366
 21
90.25259826
 31
0.0
  0
LINE
  5
155
330
1F
100
AcDbEntity
  8
TOPOVERLAY
100
AcDbLine
 10
404.1038654
 20
89.08617946
 30
0.0
 11
405.10365004
 21
86.75334694
 31
0.0
  0
LINE
  5
156
330
1F
100
AcDbEntity
  8
TOPOVERLAY
100
AcDbLine
 10
406.10343722
 20
89.08617946
 30
0.0
 11
405.10365004
 21
86.75334694
 31
0.0
  0
LINE
  5
157
330
1F
100
AcDbEntity
  8
TOPOVERLAY
100
AcDbLine
 10
406.66998168
 20
88.08639482
 30
0.0
 11
408.6695534999999
 21
88.08639482
 31
0.0
  0
LINE
  5
158
330
1F
100
AcDbEntity
  8
TOPOVERLAY
100
AcDbLine
 10
408.6695534999999
 20
88.08639482
 30
0.0
 11
408.6695534999999
 21
88.41965805999999
 31
0.0
  0
LINE
  5
159
330
1F
100
AcDbEntity
  8
TOPOVERLAY
100
AcDbLine
 10
408.6695534999999
 20
88.41965805999999
 30
0.0
 11
408.50292188
 21
88.75291876
 31
0.0
  0
LINE
  5
15A
330
1F
100
AcDbEntity
  8
TOPOVERLAY
100
AcDbLine
 10
408.50292188
 20
88.75291876
 30
0.0
 11
408.3362928
 21
88.91955037999999
 31
0.0
  0
LINE
  5
15B
330
1F
100
AcDbEntity
  8
TOPOVERLAY
100
AcDbLine
 10
408.3362928
 20
88.91955037999999
 30
0.0
 11
408.00302956
 21
89.08617946
 31
0.0
  0
LINE
  5
15C
330
1F
100
AcDbEntity
  8
TOPOVERLAY
100
AcDbLine
 10
408.00302956
 20
89.08617946
 30
0.0
 11
407.50313724
 21
89.08617946
 31
0.0
  0
LINE
  5
15D
330
1F
100
AcDbEntity
  8
TOPOVERLAY
100
AcDbLine
 10
407.50313724
 20
89.08617946
 30
0.0
 11
407.169874
 21
88.91955037999999
 31
0.0
  0
LINE
  5
15E
330
1F
100
AcDbEntity
  8
TOPOVERLAY
100
AcDbLine
 10
407.169874
 20
88.91955037999999
 30
0.0
 11
406.8366133
 21
88.58628714
 31
0.0
  0
LINE
  5
15F
330
1F
100
AcDbEntity
  8
TOPOVERLAY
100
AcDbLine
 10
406.8366133
 20
88.58628714
 30
0.0
 11
406.66998168
 21
88.08639482
 31
0.0
  0
LINE
  5
160
330
1F
100
AcDbEntity
  8
TOPOVERLAY
100
AcDbLine
 10
406.66998168
 20
88.08639482
 30
0.0
 11
406.66998168
 21
87.75313158
 31
0.0
  0
LINE
  5
161
330
1F
100
AcDbEntity
  8
TOPOVERLAY
100
AcDbLine
 10
406.66998168
 20
87.75313158
 30
0.0
 11
406.8366133
 21
87.25323926
 31
0.0
  0
LINE
  5
162
330
1F
100
AcDbEntity
  8
TOPOVERLAY
100
AcDbLine
 10
406.8366133
 20
87.25323926
 30
0.0
 11
407.169874
 21
86.91997855999999
 31
0.0
  0
LINE
  5
163
330
1F
100
AcDbEntity
  8
TOPOVERLAY
100
AcDbLine
 10
407.169874
 20
86.91997855999999
 30
0.0
 11
407.50313724
 21
86.75334694
 31
0.0
  0
LINE
  5
164
330
1F
100
AcDbEntity
  8
TOPOVERLAY
100
AcDbLine
 10
407.50313724
 20
86.75334694
 30
0.0
 11
408.00302956
 21
86.75334694
 31
0.0
  0
LINE
  5
165
330
1F
100
AcDbEntity
  8
TOPOVERLAY
100
AcDbLine
 10
408.00302956
 20
86.75334694
 30
0.0
 11
408.3362928
 21
86.91997855999999
 31
0.0
  0
LINE
  5
166
330
1F
100
AcDbEntity
  8
TOPOVERLAY
100
AcDbLine
 10
408.3362928
 20
86.91997855999999
 30
0.0
 11
408.6695534999999
 21
87.25323926
 31
0.0
  0
LINE
  5
167
330
1F
100
AcDbEntity
  8
TOPOVERLAY
100
AcDbLine
 10
409.41939198
 20
89.08617946
 30
0.0
 11
409.41939198
 21
86.75334694
 31
0.0
  0
LINE
  5
168
330
1F
100
AcDbEntity
  8
TOPOVERLAY
100
AcDbLine
 10
409.41939198
 20
88.08639482
 30
0.0
 11
409.5860236
 21
88.58628714
 31
0.0
  0
LINE
  5
169
330
1F
100
AcDbEntity
  8
TOPOVERLAY
100
AcDbLine
 10
409.5860236
 20
88.58628714
 30
0.0
 11
409.9192843
 21
88.91955037999999
 31
0.0
  0
LINE
  5
16A
330
1F
100
AcDbEntity
  8
TOPOVERLAY
100
AcDbLine
 10
409.9192843
 20
88.91955037999999
 30
0.0
 11
410.25254754
 21
89.08617946
 31
0.0
  0
LINE
  5
16B
330
1F
100
AcDbEntity
  8
TOPOVERLAY
100
AcDbLine
 10
410.25254754
 20
89.08617946
 30
0.0
 11
410.75243986
 21
89.08617946
 31
0.0
  0
LINE
  5
16C
330
1F
100
AcDbEntity
  8
TOPOVERLAY
100
AcDbLine
 10
411.06903816
 20
90.25259826
 30
0.0
 11
411.06903816
 21
86.75334694
 31
0.0
  0
LINE
  5
16D
330
1F
100
AcDbEntity
  8
TOPOVERLAY
100
AcDbLine
 10
413.80178606
 20
89.08617946
 30
0.0
 11
413.80178606
 21
86.75334694
 31
0.0
  0
LINE
  5
16E
330
1F
100
AcDbEntity
  8
TOPOVERLAY
100
AcDbLine
 10
413.80178606
 20
88.58628714
 30
0.0
 11
413.46852536
 21
88.91955037999999
 31
0.0
  0
LINE
  5
16F
330
1F
100
AcDbEntity
  8
TOPOVERLAY
100
AcDbLine
 10
413.46852536
 20
88.91955037999999
 30
0.0
 11
413.13526212
 21
89.08617946
 31
0.0
  0
LINE
  5
170
330
1F
100
AcDbEntity
  8
TOPOVERLAY
100
AcDbLine
 10
413.13526212
 20
89.08617946
 30
0.0
 11
412.6353698
 21
89.08617946
 31
0.0
  0
LINE
  5
171
330
1F
100
AcDbEntity
  8
TOPOVERLAY
100
AcDbLine
 10
412.6353698
 20
89.08617946
 30
0.0
 11
412.30210656
 21
88.91955037999999
 31
0.0
  0
LINE
  5
172
330
1F
100
AcDbEntity
  8
TOPOVERLAY
100
AcDbLine
 10
412.30210656
 20
88.91955037999999
 30
0.0
 11
411.96884586
 21
88.58628714
 31
0.0
  0
LINE
  5
173
330
1F
100
AcDbEntity
  8
TOPOVERLAY
100
AcDbLine
 10
411.96884586
 20
88.58628714
 30
0.0
 11
411.80221424
 21
88.08639482
 31
0.0
  0
LINE
  5
174
330
1F
100
AcDbEntity
  8
TOPOVERLAY
100
AcDbLine
 10
411.80221424
 20
88.08639482
 30
0.0
 11
411.80221424
 21
87.75313158
 31
0.0
  0
LINE
  5
175
330
1F
100
AcDbEntity
  8
TOPOVERLAY
100
AcDbLine
 10
411.80221424
 20
87.75313158
 30
0.0
 11
411.96884586
 21
87.25323926
 31
0.0
  0
LINE
  5
176
330
1F
100
AcDbEntity
  8
TOPOVERLAY
100
AcDbLine
 10
411.96884586
 20
87.25323926
 30
0.0
 11
412.30210656
 21
86.91997855999999
 31
0.0
  0
LINE
  5
177
330
1F
100
AcDbEntity
  8
TOPOVERLAY
100
AcDbLine
 10
412.30210656
 20
86.91997855999999
 30
0.0
 11
412.6353698
 21
86.75334694
 31
0.0
  0
LINE
  5
178
330
1F
100
AcDbEntity
  8
TOPOVERLAY
100
AcDbLine
 10
412.6353698
 20
86.75334694
 30
0.0
 11
413.13526212
 21
86.75334694
 31
0.0
  0
LINE
  5
179
330
1F
100
AcDbEntity
  8
TOPOVERLAY
100
AcDbLine
 10
413.13526212
 20
86.75334694
 30
0.0
 11
413.46852536
 21
86.91997855999999
 31
0.0
  0
LINE
  5
17A
330
1F
100
AcDbEntity
  8
TOPOVERLAY
100
AcDbLine
 10
413.46852536
 20
86.91997855999999
 30
0.0
 11
413.80178606
 21
87.25323926
 31
0.0
  0
LINE
  5
17B
330
1F
100
AcDbEntity
  8
TOPOVERLAY
100
AcDbLine
 10
414.90155018
 20
89.08617946
 30
0.0
 11
415.90133482
 21
86.75334694
 31
0.0
  0
LINE
  5
17C
330
1F
100
AcDbEntity
  8
TOPOVERLAY
100
AcDbLine
 10
416.901122
 20
89.08617946
 30
0.0
 11
415.90133482
 21
86.75334694
 31
0.0
  0
LINE
  5
17D
330
1F
100
AcDbEntity
  8
TOPOVERLAY
100
AcDbLine
 10
415.90133482
 20
86.75334694
 30
0.0
 11
415.5680741199999
 21
86.086823
 31
0.0
  0
LINE
  5
17E
330
1F
100
AcDbEntity
  8
TOPOVERLAY
100
AcDbLine
 10
415.5680741199999
 20
86.086823
 30
0.0
 11
415.23481088
 21
85.7535623
 31
0.0
  0
LINE
  5
17F
330
1F
100
AcDbEntity
  8
TOPOVERLAY
100
AcDbLine
 10
415.23481088
 20
85.7535623
 30
0.0
 11
414.90155018
 21
85.58693068
 31
0.0
  0
LINE
  5
180
330
1F
100
AcDbEntity
  8
TOPOVERLAY
100
AcDbLine
 10
414.90155018
 20
85.58693068
 30
0.0
 11
414.73491856
 21
85.58693068
 31
0.0
  0
LINE
  5
181
330
1F
100
AcDbEntity
  8
TOPOVERLAY
100
AcDbLine
 10
404.4343956
 20
161.67023292
 30
0.0
 11
405.68399178
 21
161.67023292
 31
0.0
  0
LINE
  5
182
330
1F
100
AcDbEntity
  8
TOPOVERLAY
100
AcDbLine
 10
405.68399178
 20
161.67023292
 30
0.0
 11
405.68399178
 21
161.0454361
 31
0.0
  0
LINE
  5
183
330
1F
100
AcDbEntity
  8
TOPOVERLAY
100
AcDbLine
 10
405.68399178
 20
161.0454361
 30
0.0
 11
405.47572448
 21
160.8371688
 31
0.0
  0
LINE
  5
184
330
1F
100
AcDbEntity
  8
TOPOVERLAY
100
AcDbLine
 10
405.47572448
 20
160.8371688
 30
0.0
 11
405.05919242
 21
160.8371688
 31
0.0
  0
LINE
  5
185
330
1F
100
AcDbEntity
  8
TOPOVERLAY
100
AcDbLine
 10
405.05919242
 20
160.8371688
 30
0.0
 11
404.85092766
 21
161.0454361
 31
0.0
  0
LINE
  5
186
330
1F
100
AcDbEntity
  8
TOPOVERLAY
100
AcDbLine
 10
404.85092766
 20
161.0454361
 30
0.0
 11
404.85092766
 21
161.67023292
 31
0.0
  0
LINE
  5
187
330
1F
100
AcDbEntity
  8
TOPOVERLAY
100
AcDbLine
 10
404.85092766
 20
161.25370086
 30
0.0
 11
404.4343956
 21
160.8371688
 31
0.0
  0
LINE
  5
188
330
1F
100
AcDbEntity
  8
TOPOVERLAY
100
AcDbLine
 10
405.68399178
 20
159.58757262
 30
0.0
 11
405.68399178
 21
160.42063674
 31
0.0
  0
LINE
  5
189
330
1F
100
AcDbEntity
  8
TOPOVERLAY
100
AcDbLine
 10
405.68399178
 20
160.42063674
 30
0.0
 11
404.4343956
 21
160.42063674
 31
0.0
  0
LINE
  5
18A
330
1F
100
AcDbEntity
  8
TOPOVERLAY
100
AcDbLine
 10
404.4343956
 20
160.42063674
 30
0.0
 11
404.4343956
 21
159.58757262
 31
0.0
  0
LINE
  5
18B
330
1F
100
AcDbEntity
  8
TOPOVERLAY
100
AcDbLine
 10
405.05919242
 20
160.42063674
 30
0.0
 11
405.05919242
 21
160.00410468
 31
0.0
  0
LINE
  5
18C
330
1F
100
AcDbEntity
  8
TOPOVERLAY
100
AcDbLine
 10
405.47572448
 20
158.33797644
 30
0.0
 11
405.68399178
 21
158.54624374
 31
0.0
  0
LINE
  5
18D
330
1F
100
AcDbEntity
  8
TOPOVERLAY
100
AcDbLine
 10
405.68399178
 20
158.54624374
 30
0.0
 11
405.68399178
 21
158.9627758
 31
0.0
  0
LINE
  5
18E
330
1F
100
AcDbEntity
  8
TOPOVERLAY
100
AcDbLine
 10
405.68399178
 20
158.9627758
 30
0.0
 11
405.47572448
 21
159.17104056
 31
0.0
  0
LINE
  5
18F
330
1F
100
AcDbEntity
  8
TOPOVERLAY
100
AcDbLine
 10
405.47572448
 20
159.17104056
 30
0.0
 11
405.26745972
 21
159.17104056
 31
0.0
  0
LINE
  5
190
330
1F
100
AcDbEntity
  8
TOPOVERLAY
100
AcDbLine
 10
405.26745972
 20
159.17104056
 30
0.0
 11
405.05919242
 21
158.9627758
 31
0.0
  0
LINE
  5
191
330
1F
100
AcDbEntity
  8
TOPOVERLAY
100
AcDbLine
 10
405.05919242
 20
158.9627758
 30
0.0
 11
405.05919242
 21
158.54624374
 31
0.0
  0
LINE
  5
192
330
1F
100
AcDbEntity
  8
TOPOVERLAY
100
AcDbLine
 10
405.05919242
 20
158.54624374
 30
0.0
 11
404.85092766
 21
158.33797644
 31
0.0
  0
LINE
  5
193
330
1F
100
AcDbEntity
  8
TOPOVERLAY
100
AcDbLine
 10
404.85092766
 20
158.33797644
 30
0.0
 11
404.64266036
 21
158.33797644
 31
0.0
  0
LINE
  5
194
330
1F
100
AcDbEntity
  8
TOPOVERLAY
100
AcDbLine
 10
404.64266036
 20
158.33797644
 30
0.0
 11
404.4343956
 21
158.54624374
 31
0.0
  0
LINE
  5
195
330
1F
100
AcDbEntity
  8
TOPOVERLAY
100
AcDbLine
 10
404.4343956
 20
158.54624374
 30
0.0
 11
404.4343956
 21
158.9627758
 31
0.0
  0
LINE
  5
196
330
1F
100
AcDbEntity
  8
TOPOVERLAY
100
AcDbLine
 10
404.4343956
 20
158.9627758
 30
0.0
 11
404.64266036
 21
159.17104056
 31
0.0
  0
LINE
  5
197
330
1F
100
AcDbEntity
  8
TOPOVERLAY
100
AcDbLine
 10
405.68399178
 20
157.08838026
 30
0.0
 11
405.68399178
 21
157.92144438
 31
0.0
  0
LINE
  5
198
330
1F
100
AcDbEntity
  8
TOPOVERLAY
100
AcDbLine
 10
405.68399178
 20
157.92144438
 30
0.0
 11
404.4343956
 21
157.92144438
 31
0.0
  0
LINE
  5
199
330
1F
100
AcDbEntity
  8
TOPOVERLAY
100
AcDbLine
 10
404.4343956
 20
157.92144438
 30
0.0
 11
404.4343956
 21
157.08838026
 31
0.0
  0
LINE
  5
19A
330
1F
100
AcDbEntity
  8
TOPOVERLAY
100
AcDbLine
 10
405.05919242
 20
157.92144438
 30
0.0
 11
405.05919242
 21
157.50491232
 31
0.0
  0
LINE
  5
19B
330
1F
100
AcDbEntity
  8
TOPOVERLAY
100
AcDbLine
 10
405.68399178
 20
156.6718482
 30
0.0
 11
405.68399178
 21
155.83878408
 31
0.0
  0
LINE
  5
19C
330
1F
100
AcDbEntity
  8
TOPOVERLAY
100
AcDbLine
 10
405.68399178
 20
155.83878408
 30
0.0
 11
405.68399178
 21
156.25531614
 31
0.0
  0
LINE
  5
19D
330
1F
100
AcDbEntity
  8
TOPOVERLAY
100
AcDbLine
 10
405.68399178
 20
156.25531614
 30
0.0
 11
404.4343956
 21
156.25531614
 31
0.0
  0
LINE
  5
19E
330
1F
100
AcDbEntity
  8
TOPOVERLAY
100
AcDbLine
 10
415.5839923
 20
159.67023184
 30
0.0
 11
415.5839923
 21
158.83716772
 31
0.0
  0
LINE
  5
19F
330
1F
100
AcDbEntity
  8
TOPOVERLAY
100
AcDbLine
 10
415.5839923
 20
158.83716772
 30
0.0
 11
415.5839923
 21
159.25369978
 31
0.0
  0
LINE
  5
1A0
330
1F
100
AcDbEntity
  8
TOPOVERLAY
100
AcDbLine
 10
415.5839923
 20
159.25369978
 30
0.0
 11
414.33439612
 21
159.25369978
 31
0.0
  0
LINE
  5
1A1
330
1F
100
AcDbEntity
  8
TOPOVERLAY
100
AcDbLine
 10
414.33439612
 20
158.42063566
 30
0.0
 11
415.5839923
 21
158.42063566
 31
0.0
  0
LINE
  5
1A2
330
1F
100
AcDbEntity
  8
TOPOVERLAY
100
AcDbLine
 10
415.5839923
 20
158.42063566
 30
0.0
 11
415.5839923
 21
157.79583884
 31
0.0
  0
LINE
  5
1A3
330
1F
100
AcDbEntity
  8
TOPOVERLAY
100
AcDbLine
 10
415.5839923
 20
157.79583884
 30
0.0
 11
415.375725
 21
157.58757154
 31
0.0
  0
LINE
  5
1A4
330
1F
100
AcDbEntity
  8
TOPOVERLAY
100
AcDbLine
 10
415.375725
 20
157.58757154
 30
0.0
 11
414.95919294
 21
157.58757154
 31
0.0
  0
LINE
  5
1A5
330
1F
100
AcDbEntity
  8
TOPOVERLAY
100
AcDbLine
 10
414.95919294
 20
157.58757154
 30
0.0
 11
414.75092818
 21
157.79583884
 31
0.0
  0
LINE
  5
1A6
330
1F
100
AcDbEntity
  8
TOPOVERLAY
100
AcDbLine
 10
414.75092818
 20
157.79583884
 30
0.0
 11
414.75092818
 21
158.42063566
 31
0.0
  0
LINE
  5
1A7
330
1F
100
AcDbEntity
  8
TOPOVERLAY
100
AcDbLine
 10
414.75092818
 20
158.0041036
 30
0.0
 11
414.33439612
 21
157.58757154
 31
0.0
  0
LINE
  5
1A8
330
1F
100
AcDbEntity
  8
TOPOVERLAY
100
AcDbLine
 10
415.5839923
 20
157.17103948
 30
0.0
 11
415.5839923
 21
156.75450742
 31
0.0
  0
LINE
  5
1A9
330
1F
100
AcDbEntity
  8
TOPOVERLAY
100
AcDbLine
 10
415.5839923
 20
156.75450742
 30
0.0
 11
415.5839923
 21
156.96277472
 31
0.0
  0
LINE
  5
1AA
330
1F
100
AcDbEntity
  8
TOPOVERLAY
100
AcDbLine
 10
415.5839923
 20
156.96277472
 30
0.0
 11
414.33439612
 21
156.96277472
 31
0.0
  0
LINE
  5
1AB
330
1F
100
AcDbEntity
  8
TOPOVERLAY
100
AcDbLine
 10
414.33439612
 20
156.96277472
 30
0.0
 11
414.33439612
 21
157.17103948
 31
0.0
  0
LINE
  5
1AC
330
1F
100
AcDbEntity
  8
TOPOVERLAY
100
AcDbLine
 10
414.33439612
 20
157.17103948
 30
0.0
 11
414.33439612
 21
156.75450742
 31
0.0
  0
LINE
  5
1AD
330
1F
100
AcDbEntity
  8
TOPOVERLAY
100
AcDbLine
 10
415.375725
 20
155.29664648
 30
0.0
 11
415.5839923
 21
155.50491378
 31
0.0
  0
LINE
  5
1AE
330
1F
100
AcDbEntity
  8
TOPOVERLAY
100
AcDbLine
 10
415.5839923
 20
155.50491378
 30
0.0
 11
415.5839923
 21
155.92144584
 31
0.0
  0
LINE
  5
1AF
330
1F
100
AcDbEntity
  8
TOPOVERLAY
100
AcDbLine
 10
415.5839923
 20
155.92144584
 30
0.0
 11
415.375725
 21
156.1297106
 31
0.0
  0
LINE
  5
1B0
330
1F
100
AcDbEntity
  8
TOPOVERLAY
100
AcDbLine
 10
415.375725
 20
156.1297106
 30
0.0
 11
414.54266088
 21
156.1297106
 31
0.0
  0
LINE
  5
1B1
330
1F
100
AcDbEntity
  8
TOPOVERLAY
100
AcDbLine
 10
414.54266088
 20
156.1297106
 30
0.0
 11
414.33439612
 21
155.92144584
 31
0.0
  0
LINE
  5
1B2
330
1F
100
AcDbEntity
  8
TOPOVERLAY
100
AcDbLine
 10
414.33439612
 20
155.92144584
 30
0.0
 11
414.33439612
 21
155.50491378
 31
0.0
  0
LINE
  5
1B3
330
1F
100
AcDbEntity
  8
TOPOVERLAY
100
AcDbLine
 10
414.33439612
 20
155.50491378
 30
0.0
 11
414.54266088
 21
155.29664648
 31
0.0
  0
LINE
  5
1B4
330
1F
100
AcDbEntity
  8
TOPOVERLAY
100
AcDbLine
 10
414.54266088
 20
155.29664648
 30
0.0
 11
414.95919294
 21
155.29664648
 31
0.0
  0
LINE
  5
1B5
330
1F
100
AcDbEntity
  8
TOPOVERLAY
100
AcDbLine
 10
414.95919294
 20
155.29664648
 30
0.0
 11
414.95919294
 21
155.71317854
 31
0.0
  0
LINE
  5
1B6
330
1F
100
AcDbEntity
  8
TOPOVERLAY
100
AcDbLine
 10
415.375725
 20
154.0470503
 30
0.0
 11
415.5839923
 21
154.2553176
 31
0.0
  0
LINE
  5
1B7
330
1F
100
AcDbEntity
  8
TOPOVERLAY
100
AcDbLine
 10
415.5839923
 20
154.2553176
 30
0.0
 11
415.5839923
 21
154.67184966
 31
0.0
  0
LINE
  5
1B8
330
1F
100
AcDbEntity
  8
TOPOVERLAY
100
AcDbLine
 10
415.5839923
 20
154.67184966
 30
0.0
 11
415.375725
 21
154.88011442
 31
0.0
  0
LINE
  5
1B9
330
1F
100
AcDbEntity
  8
TOPOVERLAY
100
AcDbLine
 10
415.375725
 20
154.88011442
 30
0.0
 11
414.54266088
 21
154.88011442
 31
0.0
  0
LINE
  5
1BA
330
1F
100
AcDbEntity
  8
TOPOVERLAY
100
AcDbLine
 10
414.54266088
 20
154.88011442
 30
0.0
 11
414.33439612
 21
154.67184966
 31
0.0
  0
LINE
  5
1BB
330
1F
100
AcDbEntity
  8
TOPOVERLAY
100
AcDbLine
 10
414.33439612
 20
154.67184966
 30
0.0
 11
414.33439612
 21
154.2553176
 31
0.0
  0
LINE
  5
1BC
330
1F
100
AcDbEntity
  8
TOPOVERLAY
100
AcDbLine
 10
414.33439612
 20
154.2553176
 30
0.0
 11
414.54266088
 21
154.0470503
 31
0.0
  0
LINE
  5
1BD
330
1F
100
AcDbEntity
  8
TOPOVERLAY
100
AcDbLine
 10
414.54266088
 20
154.0470503
 30
0.0
 11
414.95919294
 21
154.0470503
 31
0.0
  0
LINE
  5
1BE
330
1F
100
AcDbEntity
  8
TOPOVERLAY
100
AcDbLine
 10
414.95919294
 20
154.0470503
 30
0.0
 11
414.95919294
 21
154.46358236
 31
0.0
  0
LINE
  5
1BF
330
1F
100
AcDbEntity
  8
TOPOVERLAY
100
AcDbLine
 10
415.5839923
 20
152.79745412
 30
0.0
 11
415.5839923
 21
153.63051824
 31
0.0
  0
LINE
  5
1C0
330
1F
100
AcDbEntity
  8
TOPOVERLAY
100
AcDbLine
 10
415.5839923
 20
153.63051824
 30
0.0
 11
414.33439612
 21
153.63051824
 31
0.0
  0
LINE
  5
1C1
330
1F
100
AcDbEntity
  8
TOPOVERLAY
100
AcDbLine
 10
414.33439612
 20
153.63051824
 30
0.0
 11
414.33439612
 21
152.79745412
 31
0.0
  0
LINE
  5
1C2
330
1F
100
AcDbEntity
  8
TOPOVERLAY
100
AcDbLine
 10
414.95919294
 20
153.63051824
 30
0.0
 11
414.95919294
 21
153.21398618
 31
0.0
  0
LINE
  5
1C3
330
1F
100
AcDbEntity
  8
TOPOVERLAY
100
AcDbLine
 10
414.33439612
 20
152.38092206
 30
0.0
 11
415.5839923
 21
152.38092206
 31
0.0
  0
LINE
  5
1C4
330
1F
100
AcDbEntity
  8
TOPOVERLAY
100
AcDbLine
 10
415.5839923
 20
152.38092206
 30
0.0
 11
415.5839923
 21
151.75612524
 31
0.0
  0
LINE
  5
1C5
330
1F
100
AcDbEntity
  8
TOPOVERLAY
100
AcDbLine
 10
415.5839923
 20
151.75612524
 30
0.0
 11
415.375725
 21
151.54785794
 31
0.0
  0
LINE
  5
1C6
330
1F
100
AcDbEntity
  8
TOPOVERLAY
100
AcDbLine
 10
415.375725
 20
151.54785794
 30
0.0
 11
414.95919294
 21
151.54785794
 31
0.0
  0
LINE
  5
1C7
330
1F
100
AcDbEntity
  8
TOPOVERLAY
100
AcDbLine
 10
414.95919294
 20
151.54785794
 30
0.0
 11
414.75092818
 21
151.75612524
 31
0.0
  0
LINE
  5
1C8
330
1F
100
AcDbEntity
  8
TOPOVERLAY
100
AcDbLine
 10
414.75092818
 20
151.75612524
 30
0.0
 11
414.75092818
 21
152.38092206
 31
0.0
  0
LINE
  5
1C9
330
1F
100
AcDbEntity
  8
TOPOVERLAY
100
AcDbLine
 10
414.75092818
 20
151.96439
 30
0.0
 11
414.33439612
 21
151.54785794
 31
0.0
  0
LINE
  5
1CA
330
1F
100
AcDbEntity
  8
TOPOVERLAY
100
AcDbLine
 10
427.40572634
 20
158.33716872
 30
0.0
 11
427.61399364
 21
158.54543602
 31
0.0
  0
LINE
  5
1CB
330
1F
100
AcDbEntity
  8
TOPOVERLAY
100
AcDbLine
 10
427.61399364
 20
158.54543602
 30
0.0
 11
427.61399364
 21
158.96196808
 31
0.0
  0
LINE
  5
1CC
330
1F
100
AcDbEntity
  8
TOPOVERLAY
100
AcDbLine
 10
427.61399364
 20
158.96196808
 30
0.0
 11
427.40572634
 21
159.17023284
 31
0.0
  0
LINE
  5
1CD
330
1F
100
AcDbEntity
  8
TOPOVERLAY
100
AcDbLine
 10
427.40572634
 20
159.17023284
 30
0.0
 11
427.19746158
 21
159.17023284
 31
0.0
  0
LINE
  5
1CE
330
1F
100
AcDbEntity
  8
TOPOVERLAY
100
AcDbLine
 10
427.19746158
 20
159.17023284
 30
0.0
 11
426.98919428
 21
158.96196808
 31
0.0
  0
LINE
  5
1CF
330
1F
100
AcDbEntity
  8
TOPOVERLAY
100
AcDbLine
 10
426.98919428
 20
158.96196808
 30
0.0
 11
426.98919428
 21
158.54543602
 31
0.0
  0
LINE
  5
1D0
330
1F
100
AcDbEntity
  8
TOPOVERLAY
100
AcDbLine
 10
426.98919428
 20
158.54543602
 30
0.0
 11
426.78092952
 21
158.33716872
 31
0.0
  0
LINE
  5
1D1
330
1F
100
AcDbEntity
  8
TOPOVERLAY
100
AcDbLine
 10
426.78092952
 20
158.33716872
 30
0.0
 11
426.57266222
 21
158.33716872
 31
0.0
  0
LINE
  5
1D2
330
1F
100
AcDbEntity
  8
TOPOVERLAY
100
AcDbLine
 10
426.57266222
 20
158.33716872
 30
0.0
 11
426.36439746
 21
158.54543602
 31
0.0
  0
LINE
  5
1D3
330
1F
100
AcDbEntity
  8
TOPOVERLAY
100
AcDbLine
 10
426.36439746
 20
158.54543602
 30
0.0
 11
426.36439746
 21
158.96196808
 31
0.0
  0
LINE
  5
1D4
330
1F
100
AcDbEntity
  8
TOPOVERLAY
100
AcDbLine
 10
426.36439746
 20
158.96196808
 30
0.0
 11
426.57266222
 21
159.17023284
 31
0.0
  0
LINE
  5
1D5
330
1F
100
AcDbEntity
  8
TOPOVERLAY
100
AcDbLine
 10
427.61399364
 20
157.92063666
 30
0.0
 11
427.40572634
 21
157.92063666
 31
0.0
  0
LINE
  5
1D6
330
1F
100
AcDbEntity
  8
TOPOVERLAY
100
AcDbLine
 10
427.40572634
 20
157.92063666
 30
0.0
 11
426.98919428
 21
157.5041046
 31
0.0
  0
LINE
  5
1D7
330
1F
100
AcDbEntity
  8
TOPOVERLAY
100
AcDbLine
 10
426.98919428
 20
157.5041046
 30
0.0
 11
427.40572634
 21
157.08757254
 31
0.0
  0
LINE
  5
1D8
330
1F
100
AcDbEntity
  8
TOPOVERLAY
100
AcDbLine
 10
427.40572634
 20
157.08757254
 30
0.0
 11
427.61399364
 21
157.08757254
 31
0.0
  0
LINE
  5
1D9
330
1F
100
AcDbEntity
  8
TOPOVERLAY
100
AcDbLine
 10
426.98919428
 20
157.5041046
 30
0.0
 11
426.36439746
 21
157.5041046
 31
0.0
  0
LINE
  5
1DA
330
1F
100
AcDbEntity
  8
TOPOVERLAY
100
AcDbLine
 10
427.40572634
 20
155.83797636
 30
0.0
 11
427.61399364
 21
156.04624366
 31
0.0
  0
LINE
  5
1DB
330
1F
100
AcDbEntity
  8
TOPOVERLAY
100
AcDbLine
 10
427.61399364
 20
156.04624366
 30
0.0
 11
427.61399364
 21
156.46277572
 31
0.0
  0
LINE
  5
1DC
330
1F
100
AcDbEntity
  8
TOPOVERLAY
100
AcDbLine
 10
427.61399364
 20
156.46277572
 30
0.0
 11
427.40572634
 21
156.67104048
 31
0.0
  0
LINE
  5
1DD
330
1F
100
AcDbEntity
  8
TOPOVERLAY
100
AcDbLine
 10
427.40572634
 20
156.67104048
 30
0.0
 11
427.19746158
 21
156.67104048
 31
0.0
  0
LINE
  5
1DE
330
1F
100
AcDbEntity
  8
TOPOVERLAY
100
AcDbLine
 10
427.19746158
 20
156.67104048
 30
0.0
 11
426.98919428
 21
156.46277572
 31
0.0
  0
LINE
  5
1DF
330
1F
100
AcDbEntity
  8
TOPOVERLAY
100
AcDbLine
 10
426.98919428
 20
156.46277572
 30
0.0
 11
426.98919428
 21
156.04624366
 31
0.0
  0
LINE
  5
1E0
330
1F
100
AcDbEntity
  8
TOPOVERLAY
100
AcDbLine
 10
426.98919428
 20
156.04624366
 30
0.0
 11
426.78092952
 21
155.83797636
 31
0.0
  0
LINE
  5
1E1
330
1F
100
AcDbEntity
  8
TOPOVERLAY
100
AcDbLine
 10
426.78092952
 20
155.83797636
 30
0.0
 11
426.57266222
 21
155.83797636
 31
0.0
  0
LINE
  5
1E2
330
1F
100
AcDbEntity
  8
TOPOVERLAY
100
AcDbLine
 10
426.57266222
 20
155.83797636
 30
0.0
 11
426.36439746
 21
156.04624366
 31
0.0
  0
LINE
  5
1E3
330
1F
100
AcDbEntity
  8
TOPOVERLAY
100
AcDbLine
 10
426.36439746
 20
156.04624366
 30
0.0
 11
426.36439746
 21
156.46277572
 31
0.0
  0
LINE
  5
1E4
330
1F
100
AcDbEntity
  8
TOPOVERLAY
100
AcDbLine
 10
426.36439746
 20
156.46277572
 30
0.0
 11
426.57266222
 21
156.67104048
 31
0.0
  0
LINE
  5
1E5
330
1F
100
AcDbEntity
  8
TOPOVERLAY
100
AcDbLine
 10
427.61399364
 20
155.4214443
 30
0.0
 11
427.61399364
 21
154.58838018
 31
0.0
  0
LINE
  5
1E6
330
1F
100
AcDbEntity
  8
TOPOVERLAY
100
AcDbLine
 10
427.61399364
 20
154.58838018
 30
0.0
 11
427.61399364
 21
155.00491224
 31
0.0
  0
LINE
  5
1E7
330
1F
100
AcDbEntity
  8
TOPOVERLAY
100
AcDbLine
 10
427.61399364
 20
155.00491224
 30
0.0
 11
426.36439746
 21
155.00491224
 31
0.0
  0
LINE
  5
1E8
330
1F
100
AcDbEntity
  8
TOPOVERLAY
100
AcDbLine
 10
427.61399364
 20
153.338784
 30
0.0
 11
427.61399364
 21
154.17184812
 31
0.0
  0
LINE
  5
1E9
330
1F
100
AcDbEntity
  8
TOPOVERLAY
100
AcDbLine
 10
427.61399364
 20
154.17184812
 30
0.0
 11
426.36439746
 21
154.17184812
 31
0.0
  0
LINE
  5
1EA
330
1F
100
AcDbEntity
  8
TOPOVERLAY
100
AcDbLine
 10
426.36439746
 20
154.17184812
 30
0.0
 11
426.36439746
 21
153.338784
 31
0.0
  0
LINE
  5
1EB
330
1F
100
AcDbEntity
  8
TOPOVERLAY
100
AcDbLine
 10
426.98919428
 20
154.17184812
 30
0.0
 11
426.98919428
 21
153.75531606
 31
0.0
  0
LINE
  5
1EC
330
1F
100
AcDbEntity
  8
TOPOVERLAY
100
AcDbLine
 10
426.36439746
 20
152.92225194
 30
0.0
 11
427.61399364
 21
152.92225194
 31
0.0
  0
LINE
  5
1ED
330
1F
100
AcDbEntity
  8
TOPOVERLAY
100
AcDbLine
 10
427.61399364
 20
152.92225194
 30
0.0
 11
427.19746158
 21
152.50571988
 31
0.0
  0
LINE
  5
1EE
330
1F
100
AcDbEntity
  8
TOPOVERLAY
100
AcDbLine
 10
427.19746158
 20
152.50571988
 30
0.0
 11
427.61399364
 21
152.08918782
 31
0.0
  0
LINE
  5
1EF
330
1F
100
AcDbEntity
  8
TOPOVERLAY
100
AcDbLine
 10
427.61399364
 20
152.08918782
 30
0.0
 11
426.36439746
 21
152.08918782
 31
0.0
  0
LINE
  5
1F0
330
1F
100
AcDbEntity
  8
TOPOVERLAY
100
AcDbLine
 10
439.55899134
 20
159.34523376
 30
0.0
 11
439.55899134
 21
158.51216964
 31
0.0
  0
LINE
  5
1F1
330
1F
100
AcDbEntity
  8
TOPOVERLAY
100
AcDbLine
 10
439.55899134
 20
158.51216964
 30
0.0
 11
439.55899134
 21
158.9287017
 31
0.0
  0
LINE
  5
1F2
330
1F
100
AcDbEntity
  8
TOPOVERLAY
100
AcDbLine
 10
439.55899134
 20
158.9287017
 30
0.0
 11
438.30939516
 21
158.9287017
 31
0.0
  0
LINE
  5
1F3
330
1F
100
AcDbEntity
  8
TOPOVERLAY
100
AcDbLine
 10
438.30939516
 20
158.09563758
 30
0.0
 11
439.55899134
 21
158.09563758
 31
0.0
  0
LINE
  5
1F4
330
1F
100
AcDbEntity
  8
TOPOVERLAY
100
AcDbLine
 10
439.55899134
 20
158.09563758
 30
0.0
 11
439.55899134
 21
157.47084076
 31
0.0
  0
LINE
  5
1F5
330
1F
100
AcDbEntity
  8
TOPOVERLAY
100
AcDbLine
 10
439.55899134
 20
157.47084076
 30
0.0
 11
439.35072404
 21
157.26257346
 31
0.0
  0
LINE
  5
1F6
330
1F
100
AcDbEntity
  8
TOPOVERLAY
100
AcDbLine
 10
439.35072404
 20
157.26257346
 30
0.0
 11
438.93419198
 21
157.26257346
 31
0.0
  0
LINE
  5
1F7
330
1F
100
AcDbEntity
  8
TOPOVERLAY
100
AcDbLine
 10
438.93419198
 20
157.26257346
 30
0.0
 11
438.72592722
 21
157.47084076
 31
0.0
  0
LINE
  5
1F8
330
1F
100
AcDbEntity
  8
TOPOVERLAY
100
AcDbLine
 10
438.72592722
 20
157.47084076
 30
0.0
 11
438.72592722
 21
158.09563758
 31
0.0
  0
LINE
  5
1F9
330
1F
100
AcDbEntity
  8
TOPOVERLAY
100
AcDbLine
 10
438.72592722
 20
157.67910552
 30
0.0
 11
438.30939516
 21
157.26257346
 31
0.0
  0
LINE
  5
1FA
330
1F
100
AcDbEntity
  8
TOPOVERLAY
100
AcDbLine
 10
438.30939516
 20
156.8460414
 30
0.0
 11
439.14245928
 21
156.8460414
 31
0.0
  0
LINE
  5
1FB
330
1F
100
AcDbEntity
  8
TOPOVERLAY
100
AcDbLine
 10
439.14245928
 20
156.8460414
 30
0.0
 11
439.55899134
 21
156.42950934
 31
0.0
  0
LINE
  5
1FC
330
1F
100
AcDbEntity
  8
TOPOVERLAY
100
AcDbLine
 10
439.55899134
 20
156.42950934
 30
0.0
 11
439.14245928
 21
156.01297728
 31
0.0
  0
LINE
  5
1FD
330
1F
100
AcDbEntity
  8
TOPOVERLAY
100
AcDbLine
 10
439.14245928
 20
156.01297728
 30
0.0
 11
438.30939516
 21
156.01297728
 31
0.0
  0
LINE
  5
1FE
330
1F
100
AcDbEntity
  8
TOPOVERLAY
100
AcDbLine
 10
438.30939516
 20
156.01297728
 30
0.0
 11
438.93419198
 21
156.01297728
 31
0.0
  0
LINE
  5
1FF
330
1F
100
AcDbEntity
  8
TOPOVERLAY
100
AcDbLine
 10
438.93419198
 20
156.01297728
 30
0.0
 11
438.93419198
 21
156.8460414
 31
0.0
  0
LINE
  5
200
330
1F
100
AcDbEntity
  8
TOPOVERLAY
100
AcDbLine
 10
439.35072404
 20
154.7633811
 30
0.0
 11
439.55899134
 21
154.9716484
 31
0.0
  0
LINE
  5
201
330
1F
100
AcDbEntity
  8
TOPOVERLAY
100
AcDbLine
 10
439.55899134
 20
154.9716484
 30
0.0
 11
439.55899134
 21
155.38818046
 31
0.0
  0
LINE
  5
202
330
1F
100
AcDbEntity
  8
TOPOVERLAY
100
AcDbLine
 10
439.55899134
 20
155.38818046
 30
0.0
 11
439.35072404
 21
155.59644522
 31
0.0
  0
LINE
  5
203
330
1F
100
AcDbEntity
  8
TOPOVERLAY
100
AcDbLine
 10
439.35072404
 20
155.59644522
 30
0.0
 11
438.51765992
 21
155.59644522
 31
0.0
  0
LINE
  5
204
330
1F
100
AcDbEntity
  8
TOPOVERLAY
100
AcDbLine
 10
438.51765992
 20
155.59644522
 30
0.0
 11
438.30939516
 21
155.38818046
 31
0.0
  0
LINE
  5
205
330
1F
100
AcDbEntity
  8
TOPOVERLAY
100
AcDbLine
 10
438.30939516
 20
155.38818046
 30
0.0
 11
438.30939516
 21
154.9716484
 31
0.0
  0
LINE
  5
206
330
1F
100
AcDbEntity
  8
TOPOVERLAY
100
AcDbLine
 10
438.30939516
 20
154.9716484
 30
0.0
 11
438.51765992
 21
154.7633811
 31
0.0
  0
LINE
  5
207
330
1F
100
AcDbEntity
  8
TOPOVERLAY
100
AcDbLine
 10
439.55899134
 20
154.34684904
 30
0.0
 11
438.30939516
 21
154.34684904
 31
0.0
  0
LINE
  5
208
330
1F
100
AcDbEntity
  8
TOPOVERLAY
100
AcDbLine
 10
438.30939516
 20
154.34684904
 30
0.0
 11
438.72592722
 21
154.34684904
 31
0.0
  0
LINE
  5
209
330
1F
100
AcDbEntity
  8
TOPOVERLAY
100
AcDbLine
 10
438.72592722
 20
154.34684904
 30
0.0
 11
439.55899134
 21
153.51378492
 31
0.0
  0
LINE
  5
20A
330
1F
100
AcDbEntity
  8
TOPOVERLAY
100
AcDbLine
 10
439.55899134
 20
153.51378492
 30
0.0
 11
438.93419198
 21
154.13858428
 31
0.0
  0
LINE
  5
20B
330
1F
100
AcDbEntity
  8
TOPOVERLAY
100
AcDbLine
 10
438.93419198
 20
154.13858428
 30
0.0
 11
438.30939516
 21
153.51378492
 31
0.0
  0
LINE
  5
20C
330
1F
100
AcDbEntity
  8
TOPOVERLAY
100
AcDbLine
 10
438.30939516
 20
153.09725286
 30
0.0
 11
439.55899134
 21
153.09725286
 31
0.0
  0
LINE
  5
20D
330
1F
100
AcDbEntity
  8
TOPOVERLAY
100
AcDbLine
 10
439.55899134
 20
153.09725286
 30
0.0
 11
439.55899134
 21
152.47245604
 31
0.0
  0
LINE
  5
20E
330
1F
100
AcDbEntity
  8
TOPOVERLAY
100
AcDbLine
 10
439.55899134
 20
152.47245604
 30
0.0
 11
439.35072404
 21
152.26418874
 31
0.0
  0
LINE
  5
20F
330
1F
100
AcDbEntity
  8
TOPOVERLAY
100
AcDbLine
 10
439.35072404
 20
152.26418874
 30
0.0
 11
438.93419198
 21
152.26418874
 31
0.0
  0
LINE
  5
210
330
1F
100
AcDbEntity
  8
TOPOVERLAY
100
AcDbLine
 10
438.93419198
 20
152.26418874
 30
0.0
 11
438.72592722
 21
152.47245604
 31
0.0
  0
LINE
  5
211
330
1F
100
AcDbEntity
  8
TOPOVERLAY
100
AcDbLine
 10
438.72592722
 20
152.47245604
 30
0.0
 11
438.72592722
 21
153.09725286
 31
0.0
  0
LINE
  5
212
330
1F
100
AcDbEntity
  8
TOPOVERLAY
100
AcDbLine
 10
438.30939516
 20
151.84765668
 30
0.0
 11
439.14245928
 21
151.84765668
 31
0.0
  0
LINE
  5
213
330
1F
100
AcDbEntity
  8
TOPOVERLAY
100
AcDbLine
 10
439.14245928
 20
151.84765668
 30
0.0
 11
439.55899134
 21
151.43112462
 31
0.0
  0
LINE
  5
214
330
1F
100
AcDbEntity
  8
TOPOVERLAY
100
AcDbLine
 10
439.55899134
 20
151.43112462
 30
0.0
 11
439.14245928
 21
151.01459256
 31
0.0
  0
LINE
  5
215
330
1F
100
AcDbEntity
  8
TOPOVERLAY
100
AcDbLine
 10
439.14245928
 20
151.01459256
 30
0.0
 11
438.30939516
 21
151.01459256
 31
0.0
  0
LINE
  5
216
330
1F
100
AcDbEntity
  8
TOPOVERLAY
100
AcDbLine
 10
438.30939516
 20
151.01459256
 30
0.0
 11
438.93419198
 21
151.01459256
 31
0.0
  0
LINE
  5
217
330
1F
100
AcDbEntity
  8
TOPOVERLAY
100
AcDbLine
 10
438.93419198
 20
151.01459256
 30
0.0
 11
438.93419198
 21
151.84765668
 31
0.0
  0
LINE
  5
218
330
1F
100
AcDbEntity
  8
TOPOVERLAY
100
AcDbLine
 10
439.55899134
 20
150.5980605
 30
0.0
 11
438.30939516
 21
150.5980605
 31
0.0
  0
LINE
  5
219
330
1F
100
AcDbEntity
  8
TOPOVERLAY
100
AcDbLine
 10
438.30939516
 20
150.5980605
 30
0.0
 11
438.30939516
 21
149.97326368
 31
0.0
  0
LINE
  5
21A
330
1F
100
AcDbEntity
  8
TOPOVERLAY
100
AcDbLine
 10
438.30939516
 20
149.97326368
 30
0.0
 11
438.51765992
 21
149.76499638
 31
0.0
  0
LINE
  5
21B
330
1F
100
AcDbEntity
  8
TOPOVERLAY
100
AcDbLine
 10
438.51765992
 20
149.76499638
 30
0.0
 11
439.35072404
 21
149.76499638
 31
0.0
  0
LINE
  5
21C
330
1F
100
AcDbEntity
  8
TOPOVERLAY
100
AcDbLine
 10
439.35072404
 20
149.76499638
 30
0.0
 11
439.55899134
 21
149.97326368
 31
0.0
  0
LINE
  5
21D
330
1F
100
AcDbEntity
  8
TOPOVERLAY
100
AcDbLine
 10
439.55899134
 20
149.97326368
 30
0.0
 11
439.55899134
 21
150.5980605
 31
0.0
  0
LINE
  5
21E
330
1F
100
AcDbEntity
  8
TOPOVERLAY
100
AcDbLine
 10
450.33439524
 20
159.17023284
 30
0.0
 11
451.58399142
 21
159.17023284
 31
0.0
  0
LINE
  5
21F
330
1F
100
AcDbEntity
  8
TOPOVERLAY
100
AcDbLine
 10
451.58399142
 20
159.17023284
 30
0.0
 11
451.16745936
 21
158.75370078
 31
0.0
  0
LINE
  5
220
330
1F
100
AcDbEntity
  8
TOPOVERLAY
100
AcDbLine
 10
451.16745936
 20
158.75370078
 30
0.0
 11
451.58399142
 21
158.33716872
 31
0.0
  0
LINE
  5
221
330
1F
100
AcDbEntity
  8
TOPOVERLAY
100
AcDbLine
 10
451.58399142
 20
158.33716872
 30
0.0
 11
450.33439524
 21
158.33716872
 31
0.0
  0
LINE
  5
222
330
1F
100
AcDbEntity
  8
TOPOVERLAY
100
AcDbLine
 10
451.58399142
 20
157.08757254
 30
0.0
 11
451.58399142
 21
157.92063666
 31
0.0
  0
LINE
  5
223
330
1F
100
AcDbEntity
  8
TOPOVERLAY
100
AcDbLine
 10
451.58399142
 20
157.92063666
 30
0.0
 11
450.33439524
 21
157.92063666
 31
0.0
  0
LINE
  5
224
330
1F
100
AcDbEntity
  8
TOPOVERLAY
100
AcDbLine
 10
450.33439524
 20
157.92063666
 30
0.0
 11
450.33439524
 21
157.08757254
 31
0.0
  0
LINE
  5
225
330
1F
100
AcDbEntity
  8
TOPOVERLAY
100
AcDbLine
 10
450.95919206
 20
157.92063666
 30
0.0
 11
450.95919206
 21
157.5041046
 31
0.0
  0
LINE
  5
226
330
1F
100
AcDbEntity
  8
TOPOVERLAY
100
AcDbLine
 10
450.33439524
 20
156.67104048
 30
0.0
 11
451.58399142
 21
156.67104048
 31
0.0
  0
LINE
  5
227
330
1F
100
AcDbEntity
  8
TOPOVERLAY
100
AcDbLine
 10
451.58399142
 20
156.67104048
 30
0.0
 11
450.33439524
 21
155.83797636
 31
0.0
  0
LINE
  5
228
330
1F
100
AcDbEntity
  8
TOPOVERLAY
100
AcDbLine
 10
450.33439524
 20
155.83797636
 30
0.0
 11
451.58399142
 21
155.83797636
 31
0.0
  0
LINE
  5
229
330
1F
100
AcDbEntity
  8
TOPOVERLAY
100
AcDbLine
 10
451.58399142
 20
155.4214443
 30
0.0
 11
450.54266
 21
155.4214443
 31
0.0
  0
LINE
  5
22A
330
1F
100
AcDbEntity
  8
TOPOVERLAY
100
AcDbLine
 10
450.54266
 20
155.4214443
 30
0.0
 11
450.33439524
 21
155.21317954
 31
0.0
  0
LINE
  5
22B
330
1F
100
AcDbEntity
  8
TOPOVERLAY
100
AcDbLine
 10
450.33439524
 20
155.21317954
 30
0.0
 11
450.33439524
 21
154.79664748
 31
0.0
  0
LINE
  5
22C
330
1F
100
AcDbEntity
  8
TOPOVERLAY
100
AcDbLine
 10
450.33439524
 20
154.79664748
 30
0.0
 11
450.54266
 21
154.58838018
 31
0.0
  0
LINE
  5
22D
330
1F
100
AcDbEntity
  8
TOPOVERLAY
100
AcDbLine
 10
450.54266
 20
154.58838018
 30
0.0
 11
451.58399142
 21
154.58838018
 31
0.0
  0
LINE
  5
22E
330
1F
100
AcDbEntity
  8
TOPOVERLAY
100
AcDbLine
 10
455.3343953999999
 20
164.170233
 30
0.0
 11
455.3343953999999
 21
165.41982918
 31
0.0
  0
LINE
  5
22F
330
1F
100
AcDbEntity
  8
TOPOVERLAY
100
AcDbLine
 10
455.3343953999999
 20
165.41982918
 30
0.0
 11
455.75092746
 21
165.00329712
 31
0.0
  0
LINE
  5
230
330
1F
100
AcDbEntity
  8
TOPOVERLAY
100
AcDbLine
 10
455.75092746
 20
165.00329712
 30
0.0
 11
456.16745952
 21
165.41982918
 31
0.0
  0
LINE
  5
231
330
1F
100
AcDbEntity
  8
TOPOVERLAY
100
AcDbLine
 10
456.16745952
 20
165.41982918
 30
0.0
 11
456.16745952
 21
164.170233
 31
0.0
  0
LINE
  5
232
330
1F
100
AcDbEntity
  8
TOPOVERLAY
100
AcDbLine
 10
457.2087883999999
 20
165.41982918
 30
0.0
 11
456.79225634
 21
165.41982918
 31
0.0
  0
LINE
  5
233
330
1F
100
AcDbEntity
  8
TOPOVERLAY
100
AcDbLine
 10
456.79225634
 20
165.41982918
 30
0.0
 11
456.58399158
 21
165.21156188
 31
0.0
  0
LINE
  5
234
330
1F
100
AcDbEntity
  8
TOPOVERLAY
100
AcDbLine
 10
456.58399158
 20
165.21156188
 30
0.0
 11
456.58399158
 21
164.37849776
 31
0.0
  0
LINE
  5
235
330
1F
100
AcDbEntity
  8
TOPOVERLAY
100
AcDbLine
 10
456.58399158
 20
164.37849776
 30
0.0
 11
456.79225634
 21
164.170233
 31
0.0
  0
LINE
  5
236
330
1F
100
AcDbEntity
  8
TOPOVERLAY
100
AcDbLine
 10
456.79225634
 20
164.170233
 30
0.0
 11
457.2087883999999
 21
164.170233
 31
0.0
  0
LINE
  5
237
330
1F
100
AcDbEntity
  8
TOPOVERLAY
100
AcDbLine
 10
457.2087883999999
 20
164.170233
 30
0.0
 11
457.4170557
 21
164.37849776
 31
0.0
  0
LINE
  5
238
330
1F
100
AcDbEntity
  8
TOPOVERLAY
100
AcDbLine
 10
457.4170557
 20
164.37849776
 30
0.0
 11
457.4170557
 21
165.21156188
 31
0.0
  0
LINE
  5
239
330
1F
100
AcDbEntity
  8
TOPOVERLAY
100
AcDbLine
 10
457.4170557
 20
165.21156188
 30
0.0
 11
457.2087883999999
 21
165.41982918
 31
0.0
  0
LINE
  5
23A
330
1F
100
AcDbEntity
  8
TOPOVERLAY
100
AcDbLine
 10
457.83358776
 20
165.41982918
 30
0.0
 11
457.83358776
 21
164.170233
 31
0.0
  0
LINE
  5
23B
330
1F
100
AcDbEntity
  8
TOPOVERLAY
100
AcDbLine
 10
457.83358776
 20
164.170233
 30
0.0
 11
458.45838458
 21
164.170233
 31
0.0
  0
LINE
  5
23C
330
1F
100
AcDbEntity
  8
TOPOVERLAY
100
AcDbLine
 10
458.45838458
 20
164.170233
 30
0.0
 11
458.66665188
 21
164.37849776
 31
0.0
  0
LINE
  5
23D
330
1F
100
AcDbEntity
  8
TOPOVERLAY
100
AcDbLine
 10
458.66665188
 20
164.37849776
 30
0.0
 11
458.66665188
 21
165.21156188
 31
0.0
  0
LINE
  5
23E
330
1F
100
AcDbEntity
  8
TOPOVERLAY
100
AcDbLine
 10
458.66665188
 20
165.21156188
 30
0.0
 11
458.45838458
 21
165.41982918
 31
0.0
  0
LINE
  5
23F
330
1F
100
AcDbEntity
  8
TOPOVERLAY
100
AcDbLine
 10
458.45838458
 20
165.41982918
 30
0.0
 11
457.83358776
 21
165.41982918
 31
0.0
  0
LINE
  5
240
330
1F
100
AcDbEntity
  8
TOPOVERLAY
100
AcDbLine
 10
459.91624806
 20
165.41982918
 30
0.0
 11
459.08318394
 21
165.41982918
 31
0.0
  0
LINE
  5
241
330
1F
100
AcDbEntity
  8
TOPOVERLAY
100
AcDbLine
 10
459.08318394
 20
165.41982918
 30
0.0
 11
459.08318394
 21
164.170233
 31
0.0
  0
LINE
  5
242
330
1F
100
AcDbEntity
  8
TOPOVERLAY
100
AcDbLine
 10
459.08318394
 20
164.170233
 30
0.0
 11
459.91624806
 21
164.170233
 31
0.0
  0
LINE
  5
243
330
1F
100
AcDbEntity
  8
TOPOVERLAY
100
AcDbLine
 10
459.08318394
 20
164.79502982
 30
0.0
 11
459.499716
 21
164.79502982
 31
0.0
  0
LINE
  5
244
330
1F
100
AcDbEntity
  8
TOPPASTE
100
AcDbLine
 10
390.73176108
 20
89.55259712
 30
0.0
 11
390.73176108
 21
86.05334579999999
 31
0.0
  0
LINE
  5
245
330
1F
100
AcDbEntity
  8
TOPPASTE
100
AcDbLine
 10
389.56534482
 20
89.55259712
 30
0.0
 11
391.89817734
 21
89.55259712
 31
0.0
  0
LINE
  5
246
330
1F
100
AcDbEntity
  8
TOPPASTE
100
AcDbLine
 10
393.14791068
 20
88.38617832
 30
0.0
 11
392.81464744
 21
88.21954923999999
 31
0.0
  0
LINE
  5
247
330
1F
100
AcDbEntity
  8
TOPPASTE
100
AcDbLine
 10
392.81464744
 20
88.21954923999999
 30
0.0
 11
392.48138674
 21
87.886286
 31
0.0
  0
LINE
  5
248
330
1F
100
AcDbEntity
  8
TOPPASTE
100
AcDbLine
 10
392.48138674
 20
87.886286
 30
0.0
 11
392.31475512
 21
87.38639368
 31
0.0
  0
LINE
  5
249
330
1F
100
AcDbEntity
  8
TOPPASTE
100
AcDbLine
 10
392.31475512
 20
87.38639368
 30
0.0
 11
392.31475512
 21
87.05313043999999
 31
0.0
  0
LINE
  5
24A
330
1F
100
AcDbEntity
  8
TOPPASTE
100
AcDbLine
 10
392.31475512
 20
87.05313043999999
 30
0.0
 11
392.48138674
 21
86.55323811999999
 31
0.0
  0
LINE
  5
24B
330
1F
100
AcDbEntity
  8
TOPPASTE
100
AcDbLine
 10
392.48138674
 20
86.55323811999999
 30
0.0
 11
392.81464744
 21
86.21997741999999
 31
0.0
  0
LINE
  5
24C
330
1F
100
AcDbEntity
  8
TOPPASTE
100
AcDbLine
 10
392.81464744
 20
86.21997741999999
 30
0.0
 11
393.14791068
 21
86.05334579999999
 31
0.0
  0
LINE
  5
24D
330
1F
100
AcDbEntity
  8
TOPPASTE
100
AcDbLine
 10
393.14791068
 20
86.05334579999999
 30
0.0
 11
393.647803
 21
86.05334579999999
 31
0.0
  0
LINE
  5
24E
330
1F
100
AcDbEntity
  8
TOPPASTE
100
AcDbLine
 10
393.647803
 20
86.05334579999999
 30
0.0
 11
393.98106624
 21
86.21997741999999
 31
0.0
  0
LINE
  5
24F
330
1F
100
AcDbEntity
  8
TOPPASTE
100
AcDbLine
 10
393.98106624
 20
86.21997741999999
 30
0.0
 11
394.31432694
 21
86.55323811999999
 31
0.0
  0
LINE
  5
250
330
1F
100
AcDbEntity
  8
TOPPASTE
100
AcDbLine
 10
394.31432694
 20
86.55323811999999
 30
0.0
 11
394.48095856
 21
87.05313043999999
 31
0.0
  0
LINE
  5
251
330
1F
100
AcDbEntity
  8
TOPPASTE
100
AcDbLine
 10
394.48095856
 20
87.05313043999999
 30
0.0
 11
394.48095856
 21
87.38639368
 31
0.0
  0
LINE
  5
252
330
1F
100
AcDbEntity
  8
TOPPASTE
100
AcDbLine
 10
394.48095856
 20
87.38639368
 30
0.0
 11
394.31432694
 21
87.886286
 31
0.0
  0
LINE
  5
253
330
1F
100
AcDbEntity
  8
TOPPASTE
100
AcDbLine
 10
394.31432694
 20
87.886286
 30
0.0
 11
393.98106624
 21
88.21954923999999
 31
0.0
  0
LINE
  5
254
330
1F
100
AcDbEntity
  8
TOPPASTE
100
AcDbLine
 10
393.98106624
 20
88.21954923999999
 30
0.0
 11
393.647803
 21
88.38617832
 31
0.0
  0
LINE
  5
255
330
1F
100
AcDbEntity
  8
TOPPASTE
100
AcDbLine
 10
393.647803
 20
88.38617832
 30
0.0
 11
393.14791068
 21
88.38617832
 31
0.0
  0
LINE
  5
256
330
1F
100
AcDbEntity
  8
TOPPASTE
100
AcDbLine
 10
395.24745944
 20
88.38617832
 30
0.0
 11
395.24745944
 21
84.88692954
 31
0.0
  0
LINE
  5
257
330
1F
100
AcDbEntity
  8
TOPPASTE
100
AcDbLine
 10
395.24745944
 20
87.886286
 30
0.0
 11
395.58072268
 21
88.21954923999999
 31
0.0
  0
LINE
  5
258
330
1F
100
AcDbEntity
  8
TOPPASTE
100
AcDbLine
 10
395.58072268
 20
88.21954923999999
 30
0.0
 11
395.91398338
 21
88.38617832
 31
0.0
  0
LINE
  5
259
330
1F
100
AcDbEntity
  8
TOPPASTE
100
AcDbLine
 10
395.91398338
 20
88.38617832
 30
0.0
 11
396.4138757
 21
88.38617832
 31
0.0
  0
LINE
  5
25A
330
1F
100
AcDbEntity
  8
TOPPASTE
100
AcDbLine
 10
396.4138757
 20
88.38617832
 30
0.0
 11
396.74713894
 21
88.21954923999999
 31
0.0
  0
LINE
  5
25B
330
1F
100
AcDbEntity
  8
TOPPASTE
100
AcDbLine
 10
396.74713894
 20
88.21954923999999
 30
0.0
 11
397.08039964
 21
87.886286
 31
0.0
  0
LINE
  5
25C
330
1F
100
AcDbEntity
  8
TOPPASTE
100
AcDbLine
 10
397.08039964
 20
87.886286
 30
0.0
 11
397.24703126
 21
87.38639368
 31
0.0
  0
LINE
  5
25D
330
1F
100
AcDbEntity
  8
TOPPASTE
100
AcDbLine
 10
397.24703126
 20
87.38639368
 30
0.0
 11
397.24703126
 21
87.05313043999999
 31
0.0
  0
LINE
  5
25E
330
1F
100
AcDbEntity
  8
TOPPASTE
100
AcDbLine
 10
397.24703126
 20
87.05313043999999
 30
0.0
 11
397.08039964
 21
86.55323811999999
 31
0.0
  0
LINE
  5
25F
330
1F
100
AcDbEntity
  8
TOPPASTE
100
AcDbLine
 10
397.08039964
 20
86.55323811999999
 30
0.0
 11
396.74713894
 21
86.21997741999999
 31
0.0
  0
LINE
  5
260
330
1F
100
AcDbEntity
  8
TOPPASTE
100
AcDbLine
 10
396.74713894
 20
86.21997741999999
 30
0.0
 11
396.4138757
 21
86.05334579999999
 31
0.0
  0
LINE
  5
261
330
1F
100
AcDbEntity
  8
TOPPASTE
100
AcDbLine
 10
396.4138757
 20
86.05334579999999
 30
0.0
 11
395.91398338
 21
86.05334579999999
 31
0.0
  0
LINE
  5
262
330
1F
100
AcDbEntity
  8
TOPPASTE
100
AcDbLine
 10
395.91398338
 20
86.05334579999999
 30
0.0
 11
395.58072268
 21
86.21997741999999
 31
0.0
  0
LINE
  5
263
330
1F
100
AcDbEntity
  8
TOPPASTE
100
AcDbLine
 10
395.58072268
 20
86.21997741999999
 30
0.0
 11
395.24745944
 21
86.55323811999999
 31
0.0
  0
LINE
  5
264
330
1F
100
AcDbEntity
  8
TOPPASTE
100
AcDbLine
 10
400.74628004
 20
87.71965691999999
 30
0.0
 11
402.24595954
 21
87.71965691999999
 31
0.0
  0
LINE
  5
265
330
1F
100
AcDbEntity
  8
TOPPASTE
100
AcDbLine
 10
402.24595954
 20
87.71965691999999
 30
0.0
 11
402.74585186
 21
87.886286
 31
0.0
  0
LINE
  5
266
330
1F
100
AcDbEntity
  8
TOPPASTE
100
AcDbLine
 10
402.74585186
 20
87.886286
 30
0.0
 11
402.91248348
 21
88.05291761999999
 31
0.0
  0
LINE
  5
267
330
1F
100
AcDbEntity
  8
TOPPASTE
100
AcDbLine
 10
402.91248348
 20
88.05291761999999
 30
0.0
 11
403.07911256
 21
88.38617832
 31
0.0
  0
LINE
  5
268
330
1F
100
AcDbEntity
  8
TOPPASTE
100
AcDbLine
 10
403.07911256
 20
88.38617832
 30
0.0
 11
403.07911256
 21
88.88607318
 31
0.0
  0
LINE
  5
269
330
1F
100
AcDbEntity
  8
TOPPASTE
100
AcDbLine
 10
403.07911256
 20
88.88607318
 30
0.0
 11
402.91248348
 21
89.21933388
 31
0.0
  0
LINE
  5
26A
330
1F
100
AcDbEntity
  8
TOPPASTE
100
AcDbLine
 10
402.91248348
 20
89.21933388
 30
0.0
 11
402.74585186
 21
89.3859655
 31
0.0
  0
LINE
  5
26B
330
1F
100
AcDbEntity
  8
TOPPASTE
100
AcDbLine
 10
402.74585186
 20
89.3859655
 30
0.0
 11
402.24595954
 21
89.55259712
 31
0.0
  0
LINE
  5
26C
330
1F
100
AcDbEntity
  8
TOPPASTE
100
AcDbLine
 10
402.24595954
 20
89.55259712
 30
0.0
 11
400.74628004
 21
89.55259712
 31
0.0
  0
LINE
  5
26D
330
1F
100
AcDbEntity
  8
TOPPASTE
100
AcDbLine
 10
400.74628004
 20
89.55259712
 30
0.0
 11
400.74628004
 21
86.05334579999999
 31
0.0
  0
LINE
  5
26E
330
1F
100
AcDbEntity
  8
TOPPASTE
100
AcDbLine
 10
405.8618502
 20
88.38617832
 30
0.0
 11
405.8618502
 21
86.05334579999999
 31
0.0
  0
LINE
  5
26F
330
1F
100
AcDbEntity
  8
TOPPASTE
100
AcDbLine
 10
405.8618502
 20
87.886286
 30
0.0
 11
405.5285895
 21
88.21954923999999
 31
0.0
  0
LINE
  5
270
330
1F
100
AcDbEntity
  8
TOPPASTE
100
AcDbLine
 10
405.5285895
 20
88.21954923999999
 30
0.0
 11
405.19532626
 21
88.38617832
 31
0.0
  0
LINE
  5
271
330
1F
100
AcDbEntity
  8
TOPPASTE
100
AcDbLine
 10
405.19532626
 20
88.38617832
 30
0.0
 11
404.69543394
 21
88.38617832
 31
0.0
  0
LINE
  5
272
330
1F
100
AcDbEntity
  8
TOPPASTE
100
AcDbLine
 10
404.69543394
 20
88.38617832
 30
0.0
 11
404.3621707
 21
88.21954923999999
 31
0.0
  0
LINE
  5
273
330
1F
100
AcDbEntity
  8
TOPPASTE
100
AcDbLine
 10
404.3621707
 20
88.21954923999999
 30
0.0
 11
404.02891
 21
87.886286
 31
0.0
  0
LINE
  5
274
330
1F
100
AcDbEntity
  8
TOPPASTE
100
AcDbLine
 10
404.02891
 20
87.886286
 30
0.0
 11
403.86227838
 21
87.38639368
 31
0.0
  0
LINE
  5
275
330
1F
100
AcDbEntity
  8
TOPPASTE
100
AcDbLine
 10
403.86227838
 20
87.38639368
 30
0.0
 11
403.86227838
 21
87.05313043999999
 31
0.0
  0
LINE
  5
276
330
1F
100
AcDbEntity
  8
TOPPASTE
100
AcDbLine
 10
403.86227838
 20
87.05313043999999
 30
0.0
 11
404.02891
 21
86.55323811999999
 31
0.0
  0
LINE
  5
277
330
1F
100
AcDbEntity
  8
TOPPASTE
100
AcDbLine
 10
404.02891
 20
86.55323811999999
 30
0.0
 11
404.3621707
 21
86.21997741999999
 31
0.0
  0
LINE
  5
278
330
1F
100
AcDbEntity
  8
TOPPASTE
100
AcDbLine
 10
404.3621707
 20
86.21997741999999
 30
0.0
 11
404.69543394
 21
86.05334579999999
 31
0.0
  0
LINE
  5
279
330
1F
100
AcDbEntity
  8
TOPPASTE
100
AcDbLine
 10
404.69543394
 20
86.05334579999999
 30
0.0
 11
405.19532626
 21
86.05334579999999
 31
0.0
  0
LINE
  5
27A
330
1F
100
AcDbEntity
  8
TOPPASTE
100
AcDbLine
 10
405.19532626
 20
86.05334579999999
 30
0.0
 11
405.5285895
 21
86.21997741999999
 31
0.0
  0
LINE
  5
27B
330
1F
100
AcDbEntity
  8
TOPPASTE
100
AcDbLine
 10
405.5285895
 20
86.21997741999999
 30
0.0
 11
405.8618502
 21
86.55323811999999
 31
0.0
  0
LINE
  5
27C
330
1F
100
AcDbEntity
  8
TOPPASTE
100
AcDbLine
 10
408.6279229
 20
87.886286
 30
0.0
 11
408.46129382
 21
88.21954923999999
 31
0.0
  0
LINE
  5
27D
330
1F
100
AcDbEntity
  8
TOPPASTE
100
AcDbLine
 10
408.46129382
 20
88.21954923999999
 30
0.0
 11
407.96139896
 21
88.38617832
 31
0.0
  0
LINE
  5
27E
330
1F
100
AcDbEntity
  8
TOPPASTE
100
AcDbLine
 10
407.96139896
 20
88.38617832
 30
0.0
 11
407.46150664
 21
88.38617832
 31
0.0
  0
LINE
  5
27F
330
1F
100
AcDbEntity
  8
TOPPASTE
100
AcDbLine
 10
407.46150664
 20
88.38617832
 30
0.0
 11
406.96161432
 21
88.21954923999999
 31
0.0
  0
LINE
  5
280
330
1F
100
AcDbEntity
  8
TOPPASTE
100
AcDbLine
 10
406.96161432
 20
88.21954923999999
 30
0.0
 11
406.7949827
 21
87.886286
 31
0.0
  0
LINE
  5
281
330
1F
100
AcDbEntity
  8
TOPPASTE
100
AcDbLine
 10
406.7949827
 20
87.886286
 30
0.0
 11
406.96161432
 21
87.5530253
 31
0.0
  0
LINE
  5
282
330
1F
100
AcDbEntity
  8
TOPPASTE
100
AcDbLine
 10
406.96161432
 20
87.5530253
 30
0.0
 11
407.2948750199999
 21
87.38639368
 31
0.0
  0
LINE
  5
283
330
1F
100
AcDbEntity
  8
TOPPASTE
100
AcDbLine
 10
407.2948750199999
 20
87.38639368
 30
0.0
 11
408.12803058
 21
87.21976206
 31
0.0
  0
LINE
  5
284
330
1F
100
AcDbEntity
  8
TOPPASTE
100
AcDbLine
 10
408.12803058
 20
87.21976206
 30
0.0
 11
408.46129382
 21
87.05313043999999
 31
0.0
  0
LINE
  5
285
330
1F
100
AcDbEntity
  8
TOPPASTE
100
AcDbLine
 10
408.46129382
 20
87.05313043999999
 30
0.0
 11
408.6279229
 21
86.71986974
 31
0.0
  0
LINE
  5
286
330
1F
100
AcDbEntity
  8
TOPPASTE
100
AcDbLine
 10
408.6279229
 20
86.71986974
 30
0.0
 11
408.6279229
 21
86.55323811999999
 31
0.0
  0
LINE
  5
287
330
1F
100
AcDbEntity
  8
TOPPASTE
100
AcDbLine
 10
408.6279229
 20
86.55323811999999
 30
0.0
 11
408.46129382
 21
86.21997741999999
 31
0.0
  0
LINE
  5
288
330
1F
100
AcDbEntity
  8
TOPPASTE
100
AcDbLine
 10
408.46129382
 20
86.21997741999999
 30
0.0
 11
407.96139896
 21
86.05334579999999
 31
0.0
  0
LINE
  5
289
330
1F
100
AcDbEntity
  8
TOPPASTE
100
AcDbLine
 10
407.96139896
 20
86.05334579999999
 30
0.0
 11
407.46150664
 21
86.05334579999999
 31
0.0
  0
LINE
  5
28A
330
1F
100
AcDbEntity
  8
TOPPASTE
100
AcDbLine
 10
407.46150664
 20
86.05334579999999
 30
0.0
 11
406.96161432
 21
86.21997741999999
 31
0.0
  0
LINE
  5
28B
330
1F
100
AcDbEntity
  8
TOPPASTE
100
AcDbLine
 10
406.96161432
 20
86.21997741999999
 30
0.0
 11
406.7949827
 21
86.55323811999999
 31
0.0
  0
LINE
  5
28C
330
1F
100
AcDbEntity
  8
TOPPASTE
100
AcDbLine
 10
409.8609913
 20
89.55259712
 30
0.0
 11
409.8609913
 21
86.71986974
 31
0.0
  0
LINE
  5
28D
330
1F
100
AcDbEntity
  8
TOPPASTE
100
AcDbLine
 10
409.8609913
 20
86.71986974
 30
0.0
 11
410.02762292
 21
86.21997741999999
 31
0.0
  0
LINE
  5
28E
330
1F
100
AcDbEntity
  8
TOPPASTE
100
AcDbLine
 10
410.02762292
 20
86.21997741999999
 30
0.0
 11
410.36088362
 21
86.05334579999999
 31
0.0
  0
LINE
  5
28F
330
1F
100
AcDbEntity
  8
TOPPASTE
100
AcDbLine
 10
410.36088362
 20
86.05334579999999
 30
0.0
 11
410.69414686
 21
86.05334579999999
 31
0.0
  0
LINE
  5
290
330
1F
100
AcDbEntity
  8
TOPPASTE
100
AcDbLine
 10
409.36109898
 20
88.38617832
 30
0.0
 11
410.52751524
 21
88.38617832
 31
0.0
  0
LINE
  5
291
330
1F
100
AcDbEntity
  8
TOPPASTE
100
AcDbLine
 10
411.19403918
 20
87.38639368
 30
0.0
 11
413.193611
 21
87.38639368
 31
0.0
  0
LINE
  5
292
330
1F
100
AcDbEntity
  8
TOPPASTE
100
AcDbLine
 10
413.193611
 20
87.38639368
 30
0.0
 11
413.193611
 21
87.71965691999999
 31
0.0
  0
LINE
  5
293
330
1F
100
AcDbEntity
  8
TOPPASTE
100
AcDbLine
 10
413.193611
 20
87.71965691999999
 30
0.0
 11
413.02697938
 21
88.05291761999999
 31
0.0
  0
LINE
  5
294
330
1F
100
AcDbEntity
  8
TOPPASTE
100
AcDbLine
 10
413.02697938
 20
88.05291761999999
 30
0.0
 11
412.8603503
 21
88.21954923999999
 31
0.0
  0
LINE
  5
295
330
1F
100
AcDbEntity
  8
TOPPASTE
100
AcDbLine
 10
412.8603503
 20
88.21954923999999
 30
0.0
 11
412.52708706
 21
88.38617832
 31
0.0
  0
LINE
  5
296
330
1F
100
AcDbEntity
  8
TOPPASTE
100
AcDbLine
 10
412.52708706
 20
88.38617832
 30
0.0
 11
412.02719474
 21
88.38617832
 31
0.0
  0
LINE
  5
297
330
1F
100
AcDbEntity
  8
TOPPASTE
100
AcDbLine
 10
412.02719474
 20
88.38617832
 30
0.0
 11
411.6939315
 21
88.21954923999999
 31
0.0
  0
LINE
  5
298
330
1F
100
AcDbEntity
  8
TOPPASTE
100
AcDbLine
 10
411.6939315
 20
88.21954923999999
 30
0.0
 11
411.3606708
 21
87.886286
 31
0.0
  0
LINE
  5
299
330
1F
100
AcDbEntity
  8
TOPPASTE
100
AcDbLine
 10
411.3606708
 20
87.886286
 30
0.0
 11
411.19403918
 21
87.38639368
 31
0.0
  0
LINE
  5
29A
330
1F
100
AcDbEntity
  8
TOPPASTE
100
AcDbLine
 10
411.19403918
 20
87.38639368
 30
0.0
 11
411.19403918
 21
87.05313043999999
 31
0.0
  0
LINE
  5
29B
330
1F
100
AcDbEntity
  8
TOPPASTE
100
AcDbLine
 10
411.19403918
 20
87.05313043999999
 30
0.0
 11
411.3606708
 21
86.55323811999999
 31
0.0
  0
LINE
  5
29C
330
1F
100
AcDbEntity
  8
TOPPASTE
100
AcDbLine
 10
411.3606708
 20
86.55323811999999
 30
0.0
 11
411.6939315
 21
86.21997741999999
 31
0.0
  0
LINE
  5
29D
330
1F
100
AcDbEntity
  8
TOPPASTE
100
AcDbLine
 10
411.6939315
 20
86.21997741999999
 30
0.0
 11
412.02719474
 21
86.05334579999999
 31
0.0
  0
LINE
  5
29E
330
1F
100
AcDbEntity
  8
TOPPASTE
100
AcDbLine
 10
412.02719474
 20
86.05334579999999
 30
0.0
 11
412.52708706
 21
86.05334579999999
 31
0.0
  0
LINE
  5
29F
330
1F
100
AcDbEntity
  8
TOPPASTE
100
AcDbLine
 10
412.52708706
 20
86.05334579999999
 30
0.0
 11
412.8603503
 21
86.21997741999999
 31
0.0
  0
LINE
  5
2A0
330
1F
100
AcDbEntity
  8
TOPPASTE
100
AcDbLine
 10
412.8603503
 20
86.21997741999999
 30
0.0
 11
413.193611
 21
86.55323811999999
 31
0.0
  0
LWPOLYLINE
  5
2A1
330
1F
100
AcDbEntity
  8
TOPPASTE
100
AcDbPolyline
 90
        2
 70
     1
 43
0.0
 10
458.33439702
 20
148.67023352
 42
1.0
 10
458.33439702
 20
148.67023352
 42
1.0
  0
TEXT
  5
2A2
330
1F
100
AcDbEntity
  8
TOPOVERLAY
100
AcDbText
 10
456.83439748
 20
149.67023152
 30
0.0
 40
0.5999987999999999
  1
TP17
100
AcDbText
  0
LWPOLYLINE
  5
2A3
330
1F
100
AcDbEntity
  8
TOPPASTE
100
AcDbPolyline
 90
        2
 70
     1
 43
0.0
 10
400.83439518
 20
148.27023178
 42
1.0
 10
400.83439518
 20
148.27023178
 42
1.0
  0
TEXT
  5
2A4
330
1F
100
AcDbEntity
  8
TOPOVERLAY
100
AcDbText
 10
400.33439618
 20
149.17023252
 30
0.0
 40
0.5999987999999999
  1
TP16
100
AcDbText
  0
LWPOLYLINE
  5
2A5
330
1F
100
AcDbEntity
  8
TOPOVERLAY
100
AcDbPolyline
 90
        2
 70
     0
 43
0.1499997
 10
460.3343854
 20
150.92023156
 10
460.3343854
 20
162.42023396
  0
LWPOLYLINE
  5
2A6
330
1F
100
AcDbEntity
  8
TOPOVERLAY
100
AcDbPolyline
 90
        2
 70
     1
 43
0.07499858
 10
460.29688484
 20
150.92023156
 42
1.0
 10
460.37188596
 20
150.92023156
 42
1.0
  0
LWPOLYLINE
  5
2A7
330
1F
100
AcDbEntity
  8
TOPOVERLAY
100
AcDbPolyline
 90
        2
 70
     1
 43
0.07499858
 10
460.29688484
 20
162.42023396
 42
1.0
 10
460.37188596
 20
162.42023396
 42
1.0
  0
LWPOLYLINE
  5
2A8
330
1F
100
AcDbEntity
  8
TOPOVERLAY
100
AcDbPolyline
 90
        2
 70
     0
 43
0.1499997
 10
454.33438724
 20
150.92023156
 10
454.33438724
 20
162.42023396
  0
LWPOLYLINE
  5
2A9
330
1F
100
AcDbEntity
  8
TOPOVERLAY
100
AcDbPolyline
 90
        2
 70
     1
 43
0.07499858
 10
454.29688668
 20
150.92023156
 42
1.0
 10
454.3718878
 20
150.92023156
 42
1.0
  0
LWPOLYLINE
  5
2AA
330
1F
100
AcDbEntity
  8
TOPOVERLAY
100
AcDbPolyline
 90
        2
 70
     1
 43
0.07499858
 10
454.29688668
 20
162.42023396
 42
1.0
 10
454.3718878
 20
162.42023396
 42
1.0
  0
LWPOLYLINE
  5
2AB
330
1F
100
AcDbEntity
  8
TOPOVERLAY
100
AcDbPolyline
 90
        2
 70
     0
 43
0.1499997
 10
454.33438724
 20
162.42023396
 10
460.3343854
 20
162.42023396
  0
LWPOLYLINE
  5
2AC
330
1F
100
AcDbEntity
  8
TOPOVERLAY
100
AcDbPolyline
 90
        2
 70
     1
 43
0.07499858
 10
454.29688668
 20
162.42023396
 42
1.0
 10
454.3718878
 20
162.42023396
 42
1.0
  0
LWPOLYLINE
  5
2AD
330
1F
100
AcDbEntity
  8
TOPOVERLAY
100
AcDbPolyline
 90
        2
 70
     1
 43
0.07499858
 10
460.29688484
 20
162.42023396
 42
1.0
 10
460.37188596
 20
162.42023396
 42
1.0
  0
LWPOLYLINE
  5
2AE
330
1F
100
AcDbEntity
  8
TOPOVERLAY
100
AcDbPolyline
 90
        2
 70
     0
 43
0.1499997
 10
454.33438724
 20
150.92023156
 10
460.3343854
 20
150.92023156
  0
LWPOLYLINE
  5
2AF
330
1F
100
AcDbEntity
  8
TOPOVERLAY
100
AcDbPolyline
 90
        2
 70
     1
 43
0.07499858
 10
454.29688668
 20
150.92023156
 42
1.0
 10
454.3718878
 20
150.92023156
 42
1.0
  0
LWPOLYLINE
  5
2B0
330
1F
100
AcDbEntity
  8
TOPOVERLAY
100
AcDbPolyline
 90
        2
 70
     1
 43
0.07499858
 10
460.29688484
 20
150.92023156
 42
1.0
 10
460.37188596
 20
150.92023156
 42
1.0
  0
LWPOLYLINE
  5
2B1
330
1F
100
AcDbEntity
  8
TOPOVERLAY
100
AcDbPolyline
 90
        2
 70
     1
 43
0.27500072
 10
459.21186034
 20
159.94523256
 42
1.0
 10
458.95691038
 20
159.94523256
 42
1.0
  0
LWPOLYLINE
  5
2B2
330
1F
100
AcDbEntity
  8
TOPOVERLAY
100
AcDbPolyline
 90
        2
 70
     1
 43
0.13750036
 10
459.14311016
 20
159.94523256
 42
1.0
 10
459.28061052
 20
159.94523256
 42
1.0
  0
LWPOLYLINE
  5
2B3
330
1F
100
AcDbEntity
  8
TOPOVERLAY
100
AcDbPolyline
 90
        2
 70
     1
 43
0.13750036
 10
458.8881602
 20
159.94523256
 42
1.0
 10
459.0256605599999
 20
159.94523256
 42
1.0
  0
LWPOLYLINE
  5
2B4
330
1F
100
AcDbEntity
  8
PADHOLELAYER
100
AcDbPolyline
 90
        2
 70
     1
 43
0.5350001999999999
 10
457.06688622
 20
159.87023398
 42
1.0
 10
457.60188642
 20
159.87023398
 42
1.0
  0
LWPOLYLINE
  5
2B5
330
1F
100
AcDbEntity
  8
PADHOLELAYER
100
AcDbPolyline
 90
        2
 70
     1
 43
0.5350001999999999
 10
457.06688622
 20
156.67023276
 42
1.0
 10
457.60188642
 20
156.67023276
 42
1.0
  0
LWPOLYLINE
  5
2B6
330
1F
100
AcDbEntity
  8
PADHOLELAYER
100
AcDbPolyline
 90
        2
 70
     1
 43
0.5350001999999999
 10
457.06688622
 20
153.47023154
 42
1.0
 10
457.60188642
 20
153.47023154
 42
1.0
  0
LINE
  5
2B7
330
1F
100
AcDbEntity
  8
TOPOVERLAY
100
AcDbLine
 10
459.33438486
 20
163.17022992
 30
0.0
 11
459.33438486
 21
162.83700478
 31
0.0
  0
LINE
  5
2B8
330
1F
100
AcDbEntity
  8
TOPOVERLAY
100
AcDbLine
 10
459.33438486
 20
162.83700478
 30
0.0
 11
459.33438486
 21
163.00361608
 31
0.0
  0
LINE
  5
2B9
330
1F
100
AcDbEntity
  8
TOPOVERLAY
100
AcDbLine
 10
459.33438486
 20
163.00361608
 30
0.0
 11
460.33406282
 21
163.00361608
 31
0.0
  0
LINE
  5
2BA
330
1F
100
AcDbEntity
  8
TOPOVERLAY
100
AcDbLine
 10
460.33406282
 20
163.00361608
 30
0.0
 11
460.16744898
 21
163.17022992
 31
0.0
  0
LINE
  5
2BB
330
1F
100
AcDbEntity
  8
TOPOVERLAY
100
AcDbLine
 10
460.16744898
 20
150.67022952
 30
0.0
 11
460.33406282
 21
150.50361568
 31
0.0
  0
LINE
  5
2BC
330
1F
100
AcDbEntity
  8
TOPOVERLAY
100
AcDbLine
 10
460.33406282
 20
150.50361568
 30
0.0
 11
460.33406282
 21
150.17039054
 31
0.0
  0
LINE
  5
2BD
330
1F
100
AcDbEntity
  8
TOPOVERLAY
100
AcDbLine
 10
460.33406282
 20
150.17039054
 30
0.0
 11
460.16744898
 21
150.00377924
 31
0.0
  0
LINE
  5
2BE
330
1F
100
AcDbEntity
  8
TOPOVERLAY
100
AcDbLine
 10
460.16744898
 20
150.00377924
 30
0.0
 11
460.00083514
 21
150.00377924
 31
0.0
  0
LINE
  5
2BF
330
1F
100
AcDbEntity
  8
TOPOVERLAY
100
AcDbLine
 10
460.00083514
 20
150.00377924
 30
0.0
 11
459.83422384
 21
150.17039054
 31
0.0
  0
LINE
  5
2C0
330
1F
100
AcDbEntity
  8
TOPOVERLAY
100
AcDbLine
 10
459.83422384
 20
150.17039054
 30
0.0
 11
459.83422384
 21
150.33700438
 31
0.0
  0
LINE
  5
2C1
330
1F
100
AcDbEntity
  8
TOPOVERLAY
100
AcDbLine
 10
459.83422384
 20
150.33700438
 30
0.0
 11
459.83422384
 21
150.17039054
 31
0.0
  0
LINE
  5
2C2
330
1F
100
AcDbEntity
  8
TOPOVERLAY
100
AcDbLine
 10
459.83422384
 20
150.17039054
 30
0.0
 11
459.66761
 21
150.00377924
 31
0.0
  0
LINE
  5
2C3
330
1F
100
AcDbEntity
  8
TOPOVERLAY
100
AcDbLine
 10
459.66761
 20
150.00377924
 30
0.0
 11
459.5009987
 21
150.00377924
 31
0.0
  0
LINE
  5
2C4
330
1F
100
AcDbEntity
  8
TOPOVERLAY
100
AcDbLine
 10
459.5009987
 20
150.00377924
 30
0.0
 11
459.33438486
 21
150.17039054
 31
0.0
  0
LINE
  5
2C5
330
1F
100
AcDbEntity
  8
TOPOVERLAY
100
AcDbLine
 10
459.33438486
 20
150.17039054
 30
0.0
 11
459.33438486
 21
150.50361568
 31
0.0
  0
LINE
  5
2C6
330
1F
100
AcDbEntity
  8
TOPOVERLAY
100
AcDbLine
 10
459.33438486
 20
150.50361568
 30
0.0
 11
459.5009987
 21
150.67022952
 31
0.0
  0
TEXT
  5
2C7
330
1F
100
AcDbEntity
  8
TOPOVERLAY
100
AcDbText
 10
454.3343847
 20
162.77023072
 30
0.0
 40
0.5999987999999999
  1
SW1
100
AcDbText
  0
LWPOLYLINE
  5
2C8
330
1F
100
AcDbEntity
  8
TOPOVERLAY
100
AcDbPolyline
 90
        2
 70
     0
 43
0.1499997
 10
397.6343965
 20
155.77023456
 10
397.6343965
 20
163.5702342
  0
LWPOLYLINE
  5
2C9
330
1F
100
AcDbEntity
  8
TOPOVERLAY
100
AcDbPolyline
 90
        2
 70
     1
 43
0.07499858
 10
397.59689594
 20
155.77023456
 42
1.0
 10
397.67189706
 20
155.77023456
 42
1.0
  0
LWPOLYLINE
  5
2CA
330
1F
100
AcDbEntity
  8
TOPOVERLAY
100
AcDbPolyline
 90
        2
 70
     1
 43
0.07499858
 10
397.59689594
 20
163.5702342
 42
1.0
 10
397.67189706
 20
163.5702342
 42
1.0
  0
LWPOLYLINE
  5
2CB
330
1F
100
AcDbEntity
  8
TOPOVERLAY
100
AcDbPolyline
 90
        2
 70
     0
 43
0.1499997
 10
404.03439894
 20
155.77023456
 10
404.03439894
 20
163.5702342
  0
LWPOLYLINE
  5
2CC
330
1F
100
AcDbEntity
  8
TOPOVERLAY
100
AcDbPolyline
 90
        2
 70
     1
 43
0.07499858
 10
403.99689838
 20
155.77023456
 42
1.0
 10
404.0718995
 20
155.77023456
 42
1.0
  0
LWPOLYLINE
  5
2CD
330
1F
100
AcDbEntity
  8
TOPOVERLAY
100
AcDbPolyline
 90
        2
 70
     1
 43
0.07499858
 10
403.99689838
 20
163.5702342
 42
1.0
 10
404.0718995
 20
163.5702342
 42
1.0
  0
LWPOLYLINE
  5
2CE
330
1F
100
AcDbEntity
  8
TOPOVERLAY
100
AcDbPolyline
 90
        2
 70
     1
 43
0.254
 10
403.25939922
 20
155.17023322
 42
1.0
 10
403.00939718
 20
155.17023322
 42
1.0
  0
LWPOLYLINE
  5
2CF
330
1F
100
AcDbEntity
  8
TOPOVERLAY
100
AcDbPolyline
 90
        2
 70
     1
 43
0.127
 10
403.19589922
 20
155.17023322
 42
1.0
 10
403.32289922
 20
155.17023322
 42
1.0
  0
LWPOLYLINE
  5
2D0
330
1F
100
AcDbEntity
  8
TOPOVERLAY
100
AcDbPolyline
 90
        2
 70
     1
 43
0.127
 10
402.94589718
 20
155.17023322
 42
1.0
 10
403.07289718
 20
155.17023322
 42
1.0
  0
SOLID
  5
2D1
330
1F
100
AcDbEntity
  8
TOPPASTE
100
AcDbTrace
 10
399.28439574
 20
155.86023438
 30
0.0
 11
399.28439574
 21
158.65523514
 31
0.0
 12
397.8843985399999
 22
155.86023438
 32
0.0
 13
397.8843985399999
 23
158.65523514
 33
0.0
  0
SOLID
  5
2D2
330
1F
100
AcDbEntity
  8
TOPPASTE
100
AcDbTrace
 10
399.28439574
 20
160.68523362
 30
0.0
 11
399.28439574
 21
163.48023438
 31
0.0
 12
397.8843985399999
 22
160.68523362
 32
0.0
 13
397.8843985399999
 23
163.48023438
 33
0.0
  0
SOLID
  5
2D3
330
1F
100
AcDbEntity
  8
TOPPASTE
100
AcDbTrace
 10
403.7843969
 20
160.68523362
 30
0.0
 11
403.7843969
 21
163.48023438
 31
0.0
 12
402.3843997
 22
160.68523362
 32
0.0
 13
402.3843997
 23
163.48023438
 33
0.0
  0
SOLID
  5
2D4
330
1F
100
AcDbEntity
  8
TOPPASTE
100
AcDbTrace
 10
403.7843969
 20
155.86023438
 30
0.0
 11
403.7843969
 21
158.65523514
 31
0.0
 12
402.3843997
 22
155.86023438
 32
0.0
 13
402.3843997
 23
158.65523514
 33
0.0
  0
TEXT
  5
2D5
330
1F
100
AcDbEntity
  8
TOPOVERLAY
100
AcDbText
 10
404.48439804
 20
163.48273374
 30
0.0
 40
0.5999987999999999
  1
S5
 50
270.0
100
AcDbText
  0
LWPOLYLINE
  5
2D6
330
1F
100
AcDbEntity
  8
TOPOVERLAY
100
AcDbPolyline
 90
        2
 70
     0
 43
0.1499997
 10
420.83439836
 20
152.42023618
 10
420.83439836
 20
160.92023442
  0
LWPOLYLINE
  5
2D7
330
1F
100
AcDbEntity
  8
TOPOVERLAY
100
AcDbPolyline
 90
        2
 70
     1
 43
0.07499858
 10
420.7968978
 20
152.42023618
 42
1.0
 10
420.87189892
 20
152.42023618
 42
1.0
  0
LWPOLYLINE
  5
2D8
330
1F
100
AcDbEntity
  8
TOPOVERLAY
100
AcDbPolyline
 90
        2
 70
     1
 43
0.07499858
 10
420.7968978
 20
160.92023442
 42
1.0
 10
420.87189892
 20
160.92023442
 42
1.0
  0
LWPOLYLINE
  5
2D9
330
1F
100
AcDbEntity
  8
TOPOVERLAY
100
AcDbPolyline
 90
        2
 70
     0
 43
0.1499997
 10
425.83439852
 20
152.42023618
 10
425.83439852
 20
160.92023442
  0
LWPOLYLINE
  5
2DA
330
1F
100
AcDbEntity
  8
TOPOVERLAY
100
AcDbPolyline
 90
        2
 70
     1
 43
0.07499858
 10
425.79689796
 20
152.42023618
 42
1.0
 10
425.87189908
 20
152.42023618
 42
1.0
  0
LWPOLYLINE
  5
2DB
330
1F
100
AcDbEntity
  8
TOPOVERLAY
100
AcDbPolyline
 90
        2
 70
     1
 43
0.07499858
 10
425.79689796
 20
160.92023442
 42
1.0
 10
425.87189908
 20
160.92023442
 42
1.0
  0
LWPOLYLINE
  5
2DC
330
1F
100
AcDbEntity
  8
TOPOVERLAY
100
AcDbPolyline
 90
        2
 70
     1
 43
0.254
 10
424.959399
 20
151.67023514
 42
1.0
 10
424.70939696
 20
151.67023514
 42
1.0
  0
LWPOLYLINE
  5
2DD
330
1F
100
AcDbEntity
  8
TOPOVERLAY
100
AcDbPolyline
 90
        2
 70
     1
 43
0.127
 10
424.895899
 20
151.67023514
 42
1.0
 10
425.022899
 20
151.67023514
 42
1.0
  0
LWPOLYLINE
  5
2DE
330
1F
100
AcDbEntity
  8
TOPOVERLAY
100
AcDbPolyline
 90
        2
 70
     1
 43
0.127
 10
424.64589696
 20
151.67023514
 42
1.0
 10
424.77289696
 20
151.67023514
 42
1.0
  0
SOLID
  5
2DF
330
1F
100
AcDbEntity
  8
TOPPASTE
100
AcDbTrace
 10
422.5343975
 20
152.27023648
 30
0.0
 11
422.5343975
 21
153.87023328
 31
0.0
 12
421.1344003
 22
152.27023648
 32
0.0
 13
421.1344003
 23
153.87023328
 33
0.0
  0
SOLID
  5
2E0
330
1F
100
AcDbEntity
  8
TOPPASTE
100
AcDbTrace
 10
422.5343975
 20
159.47023732
 30
0.0
 11
422.5343975
 21
161.07023412
 31
0.0
 12
421.1344003
 22
159.47023732
 32
0.0
 13
421.1344003
 23
161.07023412
 33
0.0
  0
SOLID
  5
2E1
330
1F
100
AcDbEntity
  8
TOPPASTE
100
AcDbTrace
 10
425.53439658
 20
159.47023732
 30
0.0
 11
425.53439658
 21
161.07023412
 31
0.0
 12
424.13439938
 22
159.47023732
 32
0.0
 13
424.13439938
 23
161.07023412
 33
0.0
  0
SOLID
  5
2E2
330
1F
100
AcDbEntity
  8
TOPPASTE
100
AcDbTrace
 10
425.53439658
 20
152.27023648
 30
0.0
 11
425.53439658
 21
153.87023328
 31
0.0
 12
424.13439938
 22
152.27023648
 32
0.0
 13
424.13439938
 23
153.87023328
 33
0.0
  0
TEXT
  5
2E3
330
1F
100
AcDbEntity
  8
TOPOVERLAY
100
AcDbText
 10
426.33439752
 20
160.67023238
 30
0.0
 40
0.5999987999999999
  1
S4
 50
270.0
100
AcDbText
  0
LWPOLYLINE
  5
2E4
330
1F
100
AcDbEntity
  8
TOPOVERLAY
100
AcDbPolyline
 90
        2
 70
     0
 43
0.1499997
 10
432.83439722
 20
152.42023618
 10
432.83439722
 20
160.92023442
  0
LWPOLYLINE
  5
2E5
330
1F
100
AcDbEntity
  8
TOPOVERLAY
100
AcDbPolyline
 90
        2
 70
     1
 43
0.07499858
 10
432.79689666
 20
152.42023618
 42
1.0
 10
432.87189778
 20
152.42023618
 42
1.0
  0
LWPOLYLINE
  5
2E6
330
1F
100
AcDbEntity
  8
TOPOVERLAY
100
AcDbPolyline
 90
        2
 70
     1
 43
0.07499858
 10
432.79689666
 20
160.92023442
 42
1.0
 10
432.87189778
 20
160.92023442
 42
1.0
  0
LWPOLYLINE
  5
2E7
330
1F
100
AcDbEntity
  8
TOPOVERLAY
100
AcDbPolyline
 90
        2
 70
     0
 43
0.1499997
 10
437.83439738
 20
152.42023618
 10
437.83439738
 20
160.92023442
  0
LWPOLYLINE
  5
2E8
330
1F
100
AcDbEntity
  8
TOPOVERLAY
100
AcDbPolyline
 90
        2
 70
     1
 43
0.07499858
 10
437.79689682
 20
152.42023618
 42
1.0
 10
437.87189794
 20
152.42023618
 42
1.0
  0
LWPOLYLINE
  5
2E9
330
1F
100
AcDbEntity
  8
TOPOVERLAY
100
AcDbPolyline
 90
        2
 70
     1
 43
0.07499858
 10
437.79689682
 20
160.92023442
 42
1.0
 10
437.87189794
 20
160.92023442
 42
1.0
  0
LWPOLYLINE
  5
2EA
330
1F
100
AcDbEntity
  8
TOPOVERLAY
100
AcDbPolyline
 90
        2
 70
     1
 43
0.254
 10
436.95939786
 20
151.67023514
 42
1.0
 10
436.70939582
 20
151.67023514
 42
1.0
  0
LWPOLYLINE
  5
2EB
330
1F
100
AcDbEntity
  8
TOPOVERLAY
100
AcDbPolyline
 90
        2
 70
     1
 43
0.127
 10
436.89589786
 20
151.67023514
 42
1.0
 10
437.02289786
 20
151.67023514
 42
1.0
  0
LWPOLYLINE
  5
2EC
330
1F
100
AcDbEntity
  8
TOPOVERLAY
100
AcDbPolyline
 90
        2
 70
     1
 43
0.127
 10
436.64589582
 20
151.67023514
 42
1.0
 10
436.77289582
 20
151.67023514
 42
1.0
  0
SOLID
  5
2ED
330
1F
100
AcDbEntity
  8
TOPPASTE
100
AcDbTrace
 10
434.53439636
 20
152.27023648
 30
0.0
 11
434.53439636
 21
153.87023328
 31
0.0
 12
433.13439916
 22
152.27023648
 32
0.0
 13
433.13439916
 23
153.87023328
 33
0.0
  0
SOLID
  5
2EE
330
1F
100
AcDbEntity
  8
TOPPASTE
100
AcDbTrace
 10
434.53439636
 20
159.47023732
 30
0.0
 11
434.53439636
 21
161.07023412
 31
0.0
 12
433.13439916
 22
159.47023732
 32
0.0
 13
433.13439916
 23
161.07023412
 33
0.0
  0
SOLID
  5
2EF
330
1F
100
AcDbEntity
  8
TOPPASTE
100
AcDbTrace
 10
437.53439544
 20
159.47023732
 30
0.0
 11
437.53439544
 21
161.07023412
 31
0.0
 12
436.13439824
 22
159.47023732
 32
0.0
 13
436.13439824
 23
161.07023412
 33
0.0
  0
SOLID
  5
2F0
330
1F
100
AcDbEntity
  8
TOPPASTE
100
AcDbTrace
 10
437.53439544
 20
152.27023648
 30
0.0
 11
437.53439544
 21
153.87023328
 31
0.0
 12
436.13439824
 22
152.27023648
 32
0.0
 13
436.13439824
 23
153.87023328
 33
0.0
  0
TEXT
  5
2F1
330
1F
100
AcDbEntity
  8
TOPOVERLAY
100
AcDbText
 10
438.33439638
 20
160.67023238
 30
0.0
 40
0.5999987999999999
  1
S3
 50
270.0
100
AcDbText
  0
LWPOLYLINE
  5
2F2
330
1F
100
AcDbEntity
  8
TOPOVERLAY
100
AcDbPolyline
 90
        2
 70
     0
 43
0.1499997
 10
408.83439696
 20
152.42023364
 10
408.83439696
 20
160.92023188
  0
LWPOLYLINE
  5
2F3
330
1F
100
AcDbEntity
  8
TOPOVERLAY
100
AcDbPolyline
 90
        2
 70
     1
 43
0.07499858
 10
408.7968964
 20
152.42023364
 42
1.0
 10
408.87189752
 20
152.42023364
 42
1.0
  0
LWPOLYLINE
  5
2F4
330
1F
100
AcDbEntity
  8
TOPOVERLAY
100
AcDbPolyline
 90
        2
 70
     1
 43
0.07499858
 10
408.7968964
 20
160.92023188
 42
1.0
 10
408.87189752
 20
160.92023188
 42
1.0
  0
LWPOLYLINE
  5
2F5
330
1F
100
AcDbEntity
  8
TOPOVERLAY
100
AcDbPolyline
 90
        2
 70
     0
 43
0.1499997
 10
413.8343971199999
 20
152.42023364
 10
413.8343971199999
 20
160.92023188
  0
LWPOLYLINE
  5
2F6
330
1F
100
AcDbEntity
  8
TOPOVERLAY
100
AcDbPolyline
 90
        2
 70
     1
 43
0.07499858
 10
413.79689656
 20
152.42023364
 42
1.0
 10
413.87189768
 20
152.42023364
 42
1.0
  0
LWPOLYLINE
  5
2F7
330
1F
100
AcDbEntity
  8
TOPOVERLAY
100
AcDbPolyline
 90
        2
 70
     1
 43
0.07499858
 10
413.79689656
 20
160.92023188
 42
1.0
 10
413.87189768
 20
160.92023188
 42
1.0
  0
LWPOLYLINE
  5
2F8
330
1F
100
AcDbEntity
  8
TOPOVERLAY
100
AcDbPolyline
 90
        2
 70
     1
 43
0.254
 10
412.9593976
 20
151.6702326
 42
1.0
 10
412.70939556
 20
151.6702326
 42
1.0
  0
LWPOLYLINE
  5
2F9
330
1F
100
AcDbEntity
  8
TOPOVERLAY
100
AcDbPolyline
 90
        2
 70
     1
 43
0.127
 10
412.8958976
 20
151.6702326
 42
1.0
 10
413.0228976
 20
151.6702326
 42
1.0
  0
LWPOLYLINE
  5
2FA
330
1F
100
AcDbEntity
  8
TOPOVERLAY
100
AcDbPolyline
 90
        2
 70
     1
 43
0.127
 10
412.64589556
 20
151.6702326
 42
1.0
 10
412.77289556
 20
151.6702326
 42
1.0
  0
SOLID
  5
2FB
330
1F
100
AcDbEntity
  8
TOPPASTE
100
AcDbTrace
 10
410.5343961
 20
152.27023394
 30
0.0
 11
410.5343961
 21
153.87023074
 31
0.0
 12
409.1343989
 22
152.27023394
 32
0.0
 13
409.1343989
 23
153.87023074
 33
0.0
  0
SOLID
  5
2FC
330
1F
100
AcDbEntity
  8
TOPPASTE
100
AcDbTrace
 10
410.5343961
 20
159.47023478
 30
0.0
 11
410.5343961
 21
161.07023158
 31
0.0
 12
409.1343989
 22
159.47023478
 32
0.0
 13
409.1343989
 23
161.07023158
 33
0.0
  0
SOLID
  5
2FD
330
1F
100
AcDbEntity
  8
TOPPASTE
100
AcDbTrace
 10
413.53439518
 20
159.47023478
 30
0.0
 11
413.53439518
 21
161.07023158
 31
0.0
 12
412.13439798
 22
159.47023478
 32
0.0
 13
412.13439798
 23
161.07023158
 33
0.0
  0
SOLID
  5
2FE
330
1F
100
AcDbEntity
  8
TOPPASTE
100
AcDbTrace
 10
413.53439518
 20
152.27023394
 30
0.0
 11
413.53439518
 21
153.87023074
 31
0.0
 12
412.13439798
 22
152.27023394
 32
0.0
 13
412.13439798
 23
153.87023074
 33
0.0
  0
TEXT
  5
2FF
330
1F
100
AcDbEntity
  8
TOPOVERLAY
100
AcDbText
 10
414.33439612
 20
160.67023238
 30
0.0
 40
0.5999987999999999
  1
S2
 50
270.0
100
AcDbText
  0
LWPOLYLINE
  5
300
330
1F
100
AcDbEntity
  8
TOPOVERLAY
100
AcDbPolyline
 90
        2
 70
     0
 43
0.1499997
 10
444.83439862
 20
152.42023618
 10
444.83439862
 20
160.92023442
  0
LWPOLYLINE
  5
301
330
1F
100
AcDbEntity
  8
TOPOVERLAY
100
AcDbPolyline
 90
        2
 70
     1
 43
0.07499858
 10
444.79689806
 20
152.42023618
 42
1.0
 10
444.87189918
 20
152.42023618
 42
1.0
  0
LWPOLYLINE
  5
302
330
1F
100
AcDbEntity
  8
TOPOVERLAY
100
AcDbPolyline
 90
        2
 70
     1
 43
0.07499858
 10
444.79689806
 20
160.92023442
 42
1.0
 10
444.87189918
 20
160.92023442
 42
1.0
  0
LWPOLYLINE
  5
303
330
1F
100
AcDbEntity
  8
TOPOVERLAY
100
AcDbPolyline
 90
        2
 70
     0
 43
0.1499997
 10
449.83439878
 20
152.42023618
 10
449.83439878
 20
160.92023442
  0
LWPOLYLINE
  5
304
330
1F
100
AcDbEntity
  8
TOPOVERLAY
100
AcDbPolyline
 90
        2
 70
     1
 43
0.07499858
 10
449.79689822
 20
152.42023618
 42
1.0
 10
449.87189934
 20
152.42023618
 42
1.0
  0
LWPOLYLINE
  5
305
330
1F
100
AcDbEntity
  8
TOPOVERLAY
100
AcDbPolyline
 90
        2
 70
     1
 43
0.07499858
 10
449.79689822
 20
160.92023442
 42
1.0
 10
449.87189934
 20
160.92023442
 42
1.0
  0
LWPOLYLINE
  5
306
330
1F
100
AcDbEntity
  8
TOPOVERLAY
100
AcDbPolyline
 90
        2
 70
     1
 43
0.254
 10
448.95939926
 20
151.67023514
 42
1.0
 10
448.70939722
 20
151.67023514
 42
1.0
  0
LWPOLYLINE
  5
307
330
1F
100
AcDbEntity
  8
TOPOVERLAY
100
AcDbPolyline
 90
        2
 70
     1
 43
0.127
 10
448.89589926
 20
151.67023514
 42
1.0
 10
449.02289926
 20
151.67023514
 42
1.0
  0
LWPOLYLINE
  5
308
330
1F
100
AcDbEntity
  8
TOPOVERLAY
100
AcDbPolyline
 90
        2
 70
     1
 43
0.127
 10
448.64589722
 20
151.67023514
 42
1.0
 10
448.7728972199999
 20
151.67023514
 42
1.0
  0
SOLID
  5
309
330
1F
100
AcDbEntity
  8
TOPPASTE
100
AcDbTrace
 10
446.53439776
 20
152.27023648
 30
0.0
 11
446.53439776
 21
153.87023328
 31
0.0
 12
445.13440056
 22
152.27023648
 32
0.0
 13
445.13440056
 23
153.87023328
 33
0.0
  0
SOLID
  5
30A
330
1F
100
AcDbEntity
  8
TOPPASTE
100
AcDbTrace
 10
446.53439776
 20
159.47023732
 30
0.0
 11
446.53439776
 21
161.07023412
 31
0.0
 12
445.13440056
 22
159.47023732
 32
0.0
 13
445.13440056
 23
161.07023412
 33
0.0
  0
SOLID
  5
30B
330
1F
100
AcDbEntity
  8
TOPPASTE
100
AcDbTrace
 10
449.53439684
 20
159.47023732
 30
0.0
 11
449.53439684
 21
161.07023412
 31
0.0
 12
448.13439964
 22
159.47023732
 32
0.0
 13
448.13439964
 23
161.07023412
 33
0.0
  0
SOLID
  5
30C
330
1F
100
AcDbEntity
  8
TOPPASTE
100
AcDbTrace
 10
449.53439684
 20
152.27023648
 30
0.0
 11
449.53439684
 21
153.87023328
 31
0.0
 12
448.13439964
 22
152.27023648
 32
0.0
 13
448.13439964
 23
153.87023328
 33
0.0
  0
TEXT
  5
30D
330
1F
100
AcDbEntity
  8
TOPOVERLAY
100
AcDbText
 10
450.33439524
 20
160.67023238
 30
0.0
 40
0.5999987999999999
  1
S1
 50
270.0
100
AcDbText
  0
LWPOLYLINE
  5
30E
330
1F
100
AcDbEntity
  8
TOPOVERLAY
100
AcDbPolyline
 90
        2
 70
     0
 43
0.127
 10
451.98439702
 20
162.46063266
 10
451.98439702
 20
163.07023266
  0
LWPOLYLINE
  5
30F
330
1F
100
AcDbEntity
  8
TOPOVERLAY
100
AcDbPolyline
 90
        2
 70
     1
 43
0.0635
 10
451.95264702
 20
162.46063266
 42
1.0
 10
452.0161470199999
 20
162.46063266
 42
1.0
  0
LWPOLYLINE
  5
310
330
1F
100
AcDbEntity
  8
TOPOVERLAY
100
AcDbPolyline
 90
        2
 70
     1
 43
0.0635
 10
451.95264702
 20
163.07023266
 42
1.0
 10
452.0161470199999
 20
163.07023266
 42
1.0
  0
SOLID
  5
311
330
1F
100
AcDbEntity
  8
TOPPASTE
100
AcDbTrace
 10
452.68439562
 20
163.02543214
 30
0.0
 11
452.18439662
 21
163.02543214
 31
0.0
 12
452.68439562
 22
162.50543318
 32
0.0
 13
452.18439662
 23
162.50543318
 33
0.0
  0
SOLID
  5
312
330
1F
100
AcDbEntity
  8
TOPPASTE
100
AcDbTrace
 10
451.7843974199999
 20
163.02543214
 30
0.0
 11
451.28439842
 21
163.02543214
 31
0.0
 12
451.7843974199999
 22
162.50543318
 32
0.0
 13
451.28439842
 23
162.50543318
 33
0.0
  0
TEXT
  5
313
330
1F
100
AcDbEntity
  8
TOPOVERLAY
100
AcDbText
 10
449.98439848
 20
162.51543316
 30
0.0
 40
0.5999987999999999
  1
R9
100
AcDbText
  0
LWPOLYLINE
  5
314
330
1F
100
AcDbEntity
  8
TOPOVERLAY
100
AcDbPolyline
 90
        2
 70
     0
 43
0.127
 10
407.08439792
 20
163.6654334
 10
407.08439792
 20
164.2750334
  0
LWPOLYLINE
  5
315
330
1F
100
AcDbEntity
  8
TOPOVERLAY
100
AcDbPolyline
 90
        2
 70
     1
 43
0.0635
 10
407.05264792
 20
163.6654334
 42
1.0
 10
407.11614792
 20
163.6654334
 42
1.0
  0
LWPOLYLINE
  5
316
330
1F
100
AcDbEntity
  8
TOPOVERLAY
100
AcDbPolyline
 90
        2
 70
     1
 43
0.0635
 10
407.05264792
 20
164.2750334
 42
1.0
 10
407.11614792
 20
164.2750334
 42
1.0
  0
SOLID
  5
317
330
1F
100
AcDbEntity
  8
TOPPASTE
100
AcDbTrace
 10
406.38439932
 20
163.71023392
 30
0.0
 11
406.88439832
 21
163.71023392
 31
0.0
 12
406.38439932
 22
164.23023288
 32
0.0
 13
406.88439832
 23
164.23023288
 33
0.0
  0
SOLID
  5
318
330
1F
100
AcDbEntity
  8
TOPPASTE
100
AcDbTrace
 10
407.28439752
 20
163.71023392
 30
0.0
 11
407.78439652
 21
163.71023392
 31
0.0
 12
407.28439752
 22
164.23023288
 32
0.0
 13
407.78439652
 23
164.23023288
 33
0.0
  0
TEXT
  5
319
330
1F
100
AcDbEntity
  8
TOPOVERLAY
100
AcDbText
 10
408.33439542
 20
163.7702338
 30
0.0
 40
0.5999987999999999
  1
R7
100
AcDbText
  0
LWPOLYLINE
  5
31A
330
1F
100
AcDbEntity
  8
TOPOVERLAY
100
AcDbPolyline
 90
        2
 70
     0
 43
0.127
 10
407.08439792
 20
164.6654314
 10
407.08439792
 20
165.2750314
  0
LWPOLYLINE
  5
31B
330
1F
100
AcDbEntity
  8
TOPOVERLAY
100
AcDbPolyline
 90
        2
 70
     1
 43
0.0635
 10
407.05264792
 20
164.6654314
 42
1.0
 10
407.11614792
 20
164.6654314
 42
1.0
  0
LWPOLYLINE
  5
31C
330
1F
100
AcDbEntity
  8
TOPOVERLAY
100
AcDbPolyline
 90
        2
 70
     1
 43
0.0635
 10
407.05264792
 20
165.2750314
 42
1.0
 10
407.11614792
 20
165.2750314
 42
1.0
  0
SOLID
  5
31D
330
1F
100
AcDbEntity
  8
TOPPASTE
100
AcDbTrace
 10
406.38439932
 20
164.71023192
 30
0.0
 11
406.88439832
 21
164.71023192
 31
0.0
 12
406.38439932
 22
165.23023088
 32
0.0
 13
406.88439832
 23
165.23023088
 33
0.0
  0
SOLID
  5
31E
330
1F
100
AcDbEntity
  8
TOPPASTE
100
AcDbTrace
 10
407.28439752
 20
164.71023192
 30
0.0
 11
407.78439652
 21
164.71023192
 31
0.0
 12
407.28439752
 22
165.23023088
 32
0.0
 13
407.78439652
 23
165.23023088
 33
0.0
  0
TEXT
  5
31F
330
1F
100
AcDbEntity
  8
TOPOVERLAY
100
AcDbText
 10
408.28439806
 20
164.9702314
 30
0.0
 40
0.5999987999999999
  1
R6
100
AcDbText
  0
LWPOLYLINE
  5
320
330
1F
100
AcDbEntity
  8
TOPOVERLAY
100
AcDbPolyline
 90
        2
 70
     0
 43
0.127
 10
405.65202334
 20
152.24563912
 10
405.65202334
 20
152.85523912
  0
LWPOLYLINE
  5
321
330
1F
100
AcDbEntity
  8
TOPOVERLAY
100
AcDbPolyline
 90
        2
 70
     1
 43
0.0635
 10
405.62027334
 20
152.24563912
 42
1.0
 10
405.68377334
 20
152.24563912
 42
1.0
  0
LWPOLYLINE
  5
322
330
1F
100
AcDbEntity
  8
TOPOVERLAY
100
AcDbPolyline
 90
        2
 70
     1
 43
0.0635
 10
405.62027334
 20
152.85523912
 42
1.0
 10
405.68377334
 20
152.85523912
 42
1.0
  0
SOLID
  5
323
330
1F
100
AcDbEntity
  8
TOPPASTE
100
AcDbTrace
 10
404.95202474
 20
152.29043964
 30
0.0
 11
405.45202374
 21
152.29043964
 31
0.0
 12
404.95202474
 22
152.8104386
 32
0.0
 13
405.45202374
 23
152.8104386
 33
0.0
  0
SOLID
  5
324
330
1F
100
AcDbEntity
  8
TOPPASTE
100
AcDbTrace
 10
405.85202294
 20
152.29043964
 30
0.0
 11
406.35202194
 21
152.29043964
 31
0.0
 12
405.85202294
 22
152.8104386
 32
0.0
 13
406.35202194
 23
152.8104386
 33
0.0
  0
TEXT
  5
325
330
1F
100
AcDbEntity
  8
TOPOVERLAY
100
AcDbText
 10
403.7020247
 20
152.35043952
 30
0.0
 40
0.5999987999999999
  1
R5
100
AcDbText
  0
LWPOLYLINE
  5
326
330
1F
100
AcDbEntity
  8
TOPOVERLAY
100
AcDbPolyline
 90
        2
 70
     0
 43
0.127
 10
424.38439634
 20
149.36543152
 10
424.38439634
 20
149.97503152
  0
LWPOLYLINE
  5
327
330
1F
100
AcDbEntity
  8
TOPOVERLAY
100
AcDbPolyline
 90
        2
 70
     1
 43
0.0635
 10
424.35264634
 20
149.36543152
 42
1.0
 10
424.41614634
 20
149.36543152
 42
1.0
  0
LWPOLYLINE
  5
328
330
1F
100
AcDbEntity
  8
TOPOVERLAY
100
AcDbPolyline
 90
        2
 70
     1
 43
0.0635
 10
424.35264634
 20
149.97503152
 42
1.0
 10
424.41614634
 20
149.97503152
 42
1.0
  0
SOLID
  5
329
330
1F
100
AcDbEntity
  8
TOPPASTE
100
AcDbTrace
 10
425.08439494
 20
149.930231
 30
0.0
 11
424.58439594
 21
149.930231
 31
0.0
 12
425.08439494
 22
149.41023204
 32
0.0
 13
424.58439594
 23
149.41023204
 33
0.0
  0
SOLID
  5
32A
330
1F
100
AcDbEntity
  8
TOPPASTE
100
AcDbTrace
 10
424.18439674
 20
149.930231
 30
0.0
 11
423.68439774
 21
149.930231
 31
0.0
 12
424.18439674
 22
149.41023204
 32
0.0
 13
423.68439774
 23
149.41023204
 33
0.0
  0
TEXT
  5
32B
330
1F
100
AcDbEntity
  8
TOPOVERLAY
100
AcDbText
 10
425.43439678
 20
149.37023212
 30
0.0
 40
0.5999987999999999
  1
R4
100
AcDbText
  0
LWPOLYLINE
  5
32C
330
1F
100
AcDbEntity
  8
TOPOVERLAY
100
AcDbPolyline
 90
        2
 70
     0
 43
0.127
 10
436.38439774
 20
149.36543152
 10
436.38439774
 20
149.97503152
  0
LWPOLYLINE
  5
32D
330
1F
100
AcDbEntity
  8
TOPOVERLAY
100
AcDbPolyline
 90
        2
 70
     1
 43
0.0635
 10
436.35264774
 20
149.36543152
 42
1.0
 10
436.41614774
 20
149.36543152
 42
1.0
  0
LWPOLYLINE
  5
32E
330
1F
100
AcDbEntity
  8
TOPOVERLAY
100
AcDbPolyline
 90
        2
 70
     1
 43
0.0635
 10
436.35264774
 20
149.97503152
 42
1.0
 10
436.41614774
 20
149.97503152
 42
1.0
  0
SOLID
  5
32F
330
1F
100
AcDbEntity
  8
TOPPASTE
100
AcDbTrace
 10
437.08439634
 20
149.930231
 30
0.0
 11
436.58439734
 21
149.930231
 31
0.0
 12
437.08439634
 22
149.41023204
 32
0.0
 13
436.58439734
 23
149.41023204
 33
0.0
  0
SOLID
  5
330
330
1F
100
AcDbEntity
  8
TOPPASTE
100
AcDbTrace
 10
436.18439814
 20
149.930231
 30
0.0
 11
435.68439914
 21
149.930231
 31
0.0
 12
436.18439814
 22
149.41023204
 32
0.0
 13
435.68439914
 23
149.41023204
 33
0.0
  0
TEXT
  5
331
330
1F
100
AcDbEntity
  8
TOPOVERLAY
100
AcDbText
 10
434.3343967599999
 20
149.42023202
 30
0.0
 40
0.5999987999999999
  1
R3
100
AcDbText
  0
LWPOLYLINE
  5
332
330
1F
100
AcDbEntity
  8
TOPOVERLAY
100
AcDbPolyline
 90
        2
 70
     0
 43
0.127
 10
412.33439758
 20
149.36543152
 10
412.33439758
 20
149.97503152
  0
LWPOLYLINE
  5
333
330
1F
100
AcDbEntity
  8
TOPOVERLAY
100
AcDbPolyline
 90
        2
 70
     1
 43
0.0635
 10
412.30264758
 20
149.36543152
 42
1.0
 10
412.36614758
 20
149.36543152
 42
1.0
  0
LWPOLYLINE
  5
334
330
1F
100
AcDbEntity
  8
TOPOVERLAY
100
AcDbPolyline
 90
        2
 70
     1
 43
0.0635
 10
412.30264758
 20
149.97503152
 42
1.0
 10
412.36614758
 20
149.97503152
 42
1.0
  0
SOLID
  5
335
330
1F
100
AcDbEntity
  8
TOPPASTE
100
AcDbTrace
 10
413.03439618
 20
149.930231
 30
0.0
 11
412.53439718
 21
149.930231
 31
0.0
 12
413.03439618
 22
149.41023204
 32
0.0
 13
412.53439718
 23
149.41023204
 33
0.0
  0
SOLID
  5
336
330
1F
100
AcDbEntity
  8
TOPPASTE
100
AcDbTrace
 10
412.13439798
 20
149.930231
 30
0.0
 11
411.63439898
 21
149.930231
 31
0.0
 12
412.13439798
 22
149.41023204
 32
0.0
 13
411.63439898
 23
149.41023204
 33
0.0
  0
TEXT
  5
337
330
1F
100
AcDbEntity
  8
TOPOVERLAY
100
AcDbText
 10
410.3343965
 20
149.42023202
 30
0.0
 40
0.5999987999999999
  1
R2
100
AcDbText
  0
LWPOLYLINE
  5
338
330
1F
100
AcDbEntity
  8
TOPOVERLAY
100
AcDbPolyline
 90
        2
 70
     0
 43
0.127
 10
443.3843939
 20
162.56543306
 10
443.3843939
 20
163.17503306
  0
LWPOLYLINE
  5
339
330
1F
100
AcDbEntity
  8
TOPOVERLAY
100
AcDbPolyline
 90
        2
 70
     1
 43
0.0635
 10
443.3526439
 20
162.56543306
 42
1.0
 10
443.4161439
 20
162.56543306
 42
1.0
  0
LWPOLYLINE
  5
33A
330
1F
100
AcDbEntity
  8
TOPOVERLAY
100
AcDbPolyline
 90
        2
 70
     1
 43
0.0635
 10
443.3526439
 20
163.17503306
 42
1.0
 10
443.4161439
 20
163.17503306
 42
1.0
  0
SOLID
  5
33B
330
1F
100
AcDbEntity
  8
TOPPASTE
100
AcDbTrace
 10
444.0843925
 20
163.13023254
 30
0.0
 11
443.5843935
 21
163.13023254
 31
0.0
 12
444.0843925
 22
162.61023358
 32
0.0
 13
443.5843935
 23
162.61023358
 33
0.0
  0
SOLID
  5
33C
330
1F
100
AcDbEntity
  8
TOPPASTE
100
AcDbTrace
 10
443.1843943
 20
163.13023254
 30
0.0
 11
442.6843952999999
 21
163.13023254
 31
0.0
 12
443.1843943
 22
162.61023358
 32
0.0
 13
442.6843952999999
 23
162.61023358
 33
0.0
  0
TEXT
  5
33D
330
1F
100
AcDbEntity
  8
TOPOVERLAY
100
AcDbText
 10
441.63439486
 20
162.57023366
 30
0.0
 40
0.5999987999999999
  1
R1
100
AcDbText
  0
LWPOLYLINE
  5
33E
330
1F
100
AcDbEntity
  8
TOPOVERLAY
100
AcDbPolyline
 90
        2
 70
     0
 43
0.1999996
 10
406.55702534
 20
153.2954389
 10
406.55702534
 20
153.7954379
  0
LWPOLYLINE
  5
33F
330
1F
100
AcDbEntity
  8
TOPOVERLAY
100
AcDbPolyline
 90
        2
 70
     1
 43
0.0999998
 10
406.5070254399999
 20
153.2954389
 42
1.0
 10
406.60702524
 20
153.2954389
 42
1.0
  0
LWPOLYLINE
  5
340
330
1F
100
AcDbEntity
  8
TOPOVERLAY
100
AcDbPolyline
 90
        2
 70
     1
 43
0.0999998
 10
406.5070254399999
 20
153.7954379
 42
1.0
 10
406.60702524
 20
153.7954379
 42
1.0
  0
LWPOLYLINE
  5
341
330
1F
100
AcDbEntity
  8
TOPOVERLAY
100
AcDbPolyline
 90
        2
 70
     0
 43
0.1999996
 10
406.70702504
 20
153.5454384
 10
407.05702434
 20
153.7954379
  0
LWPOLYLINE
  5
342
330
1F
100
AcDbEntity
  8
TOPOVERLAY
100
AcDbPolyline
 90
        2
 70
     1
 43
0.0999998
 10
406.65702514
 20
153.5454384
 42
1.0
 10
406.75702494
 20
153.5454384
 42
1.0
  0
LWPOLYLINE
  5
343
330
1F
100
AcDbEntity
  8
TOPOVERLAY
100
AcDbPolyline
 90
        2
 70
     1
 43
0.0999998
 10
407.00702444
 20
153.7954379
 42
1.0
 10
407.10702424
 20
153.7954379
 42
1.0
  0
LWPOLYLINE
  5
344
330
1F
100
AcDbEntity
  8
TOPOVERLAY
100
AcDbPolyline
 90
        2
 70
     0
 43
0.1999996
 10
407.05702434
 20
153.2954389
 10
407.05702434
 20
153.7954379
  0
LWPOLYLINE
  5
345
330
1F
100
AcDbEntity
  8
TOPOVERLAY
100
AcDbPolyline
 90
        2
 70
     1
 43
0.0999998
 10
407.00702444
 20
153.2954389
 42
1.0
 10
407.10702424
 20
153.2954389
 42
1.0
  0
LWPOLYLINE
  5
346
330
1F
100
AcDbEntity
  8
TOPOVERLAY
100
AcDbPolyline
 90
        2
 70
     1
 43
0.0999998
 10
407.00702444
 20
153.7954379
 42
1.0
 10
407.10702424
 20
153.7954379
 42
1.0
  0
LWPOLYLINE
  5
347
330
1F
100
AcDbEntity
  8
TOPOVERLAY
100
AcDbPolyline
 90
        2
 70
     0
 43
0.1999996
 10
406.70702504
 20
153.5454384
 10
407.05702434
 20
153.2954389
  0
LWPOLYLINE
  5
348
330
1F
100
AcDbEntity
  8
TOPOVERLAY
100
AcDbPolyline
 90
        2
 70
     1
 43
0.0999998
 10
406.65702514
 20
153.5454384
 42
1.0
 10
406.75702494
 20
153.5454384
 42
1.0
  0
LWPOLYLINE
  5
349
330
1F
100
AcDbEntity
  8
TOPOVERLAY
100
AcDbPolyline
 90
        2
 70
     1
 43
0.0999998
 10
407.00702444
 20
153.2954389
 42
1.0
 10
407.10702424
 20
153.2954389
 42
1.0
  0
LWPOLYLINE
  5
34A
330
1F
100
AcDbEntity
  8
TOPOVERLAY
100
AcDbPolyline
 90
        2
 70
     0
 43
0.1499997
 10
405.2220242
 20
153.95043886
 10
406.0220226
 20
153.95043886
  0
LWPOLYLINE
  5
34B
330
1F
100
AcDbEntity
  8
TOPOVERLAY
100
AcDbPolyline
 90
        2
 70
     1
 43
0.07499858
 10
405.18452364
 20
153.95043886
 42
1.0
 10
405.25952476
 20
153.95043886
 42
1.0
  0
LWPOLYLINE
  5
34C
330
1F
100
AcDbEntity
  8
TOPOVERLAY
100
AcDbPolyline
 90
        2
 70
     1
 43
0.07499858
 10
405.98452204
 20
153.95043886
 42
1.0
 10
406.05952316
 20
153.95043886
 42
1.0
  0
LWPOLYLINE
  5
34D
330
1F
100
AcDbEntity
  8
TOPOVERLAY
100
AcDbPolyline
 90
        2
 70
     0
 43
0.1499997
 10
405.2220242
 20
153.15044046
 10
406.0220226
 20
153.15044046
  0
LWPOLYLINE
  5
34E
330
1F
100
AcDbEntity
  8
TOPOVERLAY
100
AcDbPolyline
 90
        2
 70
     1
 43
0.07499858
 10
405.18452364
 20
153.15044046
 42
1.0
 10
405.25952476
 20
153.15044046
 42
1.0
  0
LWPOLYLINE
  5
34F
330
1F
100
AcDbEntity
  8
TOPOVERLAY
100
AcDbPolyline
 90
        2
 70
     1
 43
0.07499858
 10
405.98452204
 20
153.15044046
 42
1.0
 10
406.05952316
 20
153.15044046
 42
1.0
  0
SOLID
  5
350
330
1F
100
AcDbEntity
  8
TOPPASTE
100
AcDbTrace
 10
405.86202292
 20
153.42544118
 30
0.0
 11
406.2220222
 21
153.42544118
 31
0.0
 12
405.86202292
 22
153.67543814
 32
0.0
 13
406.2220222
 23
153.67543814
 33
0.0
  0
SOLID
  5
351
330
1F
100
AcDbEntity
  8
TOPPASTE
100
AcDbTrace
 10
405.0220246
 20
153.42544118
 30
0.0
 11
405.38202388
 21
153.42544118
 31
0.0
 12
405.0220246
 22
153.67543814
 32
0.0
 13
405.38202388
 23
153.67543814
 33
0.0
  0
TEXT
  5
352
330
1F
100
AcDbEntity
  8
TOPOVERLAY
100
AcDbText
 10
403.7020247
 20
153.35043752
 30
0.0
 40
0.5999987999999999
  1
D7
100
AcDbText
  0
LWPOLYLINE
  5
353
330
1F
100
AcDbEntity
  8
TOPOVERLAY
100
AcDbPolyline
 90
        2
 70
     0
 43
0.1999996
 10
423.47939434
 20
150.42523382
 10
423.47939434
 20
150.92523282
  0
LWPOLYLINE
  5
354
330
1F
100
AcDbEntity
  8
TOPOVERLAY
100
AcDbPolyline
 90
        2
 70
     1
 43
0.0999998
 10
423.42939444
 20
150.42523382
 42
1.0
 10
423.52939424
 20
150.42523382
 42
1.0
  0
LWPOLYLINE
  5
355
330
1F
100
AcDbEntity
  8
TOPOVERLAY
100
AcDbPolyline
 90
        2
 70
     1
 43
0.0999998
 10
423.42939444
 20
150.92523282
 42
1.0
 10
423.52939424
 20
150.92523282
 42
1.0
  0
LWPOLYLINE
  5
356
330
1F
100
AcDbEntity
  8
TOPOVERLAY
100
AcDbPolyline
 90
        2
 70
     0
 43
0.1999996
 10
422.97939534
 20
150.42523382
 10
423.32939464
 20
150.67523332
  0
LWPOLYLINE
  5
357
330
1F
100
AcDbEntity
  8
TOPOVERLAY
100
AcDbPolyline
 90
        2
 70
     1
 43
0.0999998
 10
422.92939544
 20
150.42523382
 42
1.0
 10
423.02939524
 20
150.42523382
 42
1.0
  0
LWPOLYLINE
  5
358
330
1F
100
AcDbEntity
  8
TOPOVERLAY
100
AcDbPolyline
 90
        2
 70
     1
 43
0.0999998
 10
423.27939474
 20
150.67523332
 42
1.0
 10
423.37939454
 20
150.67523332
 42
1.0
  0
LWPOLYLINE
  5
359
330
1F
100
AcDbEntity
  8
TOPOVERLAY
100
AcDbPolyline
 90
        2
 70
     0
 43
0.1999996
 10
422.97939534
 20
150.42523382
 10
422.97939534
 20
150.92523282
  0
LWPOLYLINE
  5
35A
330
1F
100
AcDbEntity
  8
TOPOVERLAY
100
AcDbPolyline
 90
        2
 70
     1
 43
0.0999998
 10
422.92939544
 20
150.42523382
 42
1.0
 10
423.02939524
 20
150.42523382
 42
1.0
  0
LWPOLYLINE
  5
35B
330
1F
100
AcDbEntity
  8
TOPOVERLAY
100
AcDbPolyline
 90
        2
 70
     1
 43
0.0999998
 10
422.92939544
 20
150.92523282
 42
1.0
 10
423.02939524
 20
150.92523282
 42
1.0
  0
LWPOLYLINE
  5
35C
330
1F
100
AcDbEntity
  8
TOPOVERLAY
100
AcDbPolyline
 90
        2
 70
     0
 43
0.1999996
 10
422.97939534
 20
150.92523282
 10
423.32939464
 20
150.67523332
  0
LWPOLYLINE
  5
35D
330
1F
100
AcDbEntity
  8
TOPOVERLAY
100
AcDbPolyline
 90
        2
 70
     1
 43
0.0999998
 10
422.92939544
 20
150.92523282
 42
1.0
 10
423.02939524
 20
150.92523282
 42
1.0
  0
LWPOLYLINE
  5
35E
330
1F
100
AcDbEntity
  8
TOPOVERLAY
100
AcDbPolyline
 90
        2
 70
     1
 43
0.0999998
 10
423.27939474
 20
150.67523332
 42
1.0
 10
423.37939454
 20
150.67523332
 42
1.0
  0
LWPOLYLINE
  5
35F
330
1F
100
AcDbEntity
  8
TOPOVERLAY
100
AcDbPolyline
 90
        2
 70
     0
 43
0.1499997
 10
424.01439708
 20
150.27023286
 10
424.81439548
 20
150.27023286
  0
LWPOLYLINE
  5
360
330
1F
100
AcDbEntity
  8
TOPOVERLAY
100
AcDbPolyline
 90
        2
 70
     1
 43
0.07499858
 10
423.97689652
 20
150.27023286
 42
1.0
 10
424.05189764
 20
150.27023286
 42
1.0
  0
LWPOLYLINE
  5
361
330
1F
100
AcDbEntity
  8
TOPOVERLAY
100
AcDbPolyline
 90
        2
 70
     1
 43
0.07499858
 10
424.77689492
 20
150.27023286
 42
1.0
 10
424.85189604
 20
150.27023286
 42
1.0
  0
LWPOLYLINE
  5
362
330
1F
100
AcDbEntity
  8
TOPOVERLAY
100
AcDbPolyline
 90
        2
 70
     0
 43
0.1499997
 10
424.01439708
 20
151.07023126
 10
424.81439548
 20
151.07023126
  0
LWPOLYLINE
  5
363
330
1F
100
AcDbEntity
  8
TOPOVERLAY
100
AcDbPolyline
 90
        2
 70
     1
 43
0.07499858
 10
423.97689652
 20
151.07023126
 42
1.0
 10
424.05189764
 20
151.07023126
 42
1.0
  0
LWPOLYLINE
  5
364
330
1F
100
AcDbEntity
  8
TOPOVERLAY
100
AcDbPolyline
 90
        2
 70
     1
 43
0.07499858
 10
424.77689492
 20
151.07023126
 42
1.0
 10
424.85189604
 20
151.07023126
 42
1.0
  0
SOLID
  5
365
330
1F
100
AcDbEntity
  8
TOPPASTE
100
AcDbTrace
 10
424.17439676
 20
150.79523054
 30
0.0
 11
423.81439748
 21
150.79523054
 31
0.0
 12
424.17439676
 22
150.54523358
 32
0.0
 13
423.81439748
 23
150.54523358
 33
0.0
  0
SOLID
  5
366
330
1F
100
AcDbEntity
  8
TOPPASTE
100
AcDbTrace
 10
425.01439508
 20
150.79523054
 30
0.0
 11
424.6543958
 21
150.79523054
 31
0.0
 12
425.01439508
 22
150.54523358
 32
0.0
 13
424.6543958
 23
150.54523358
 33
0.0
  0
TEXT
  5
367
330
1F
100
AcDbEntity
  8
TOPOVERLAY
100
AcDbText
 10
425.43439678
 20
150.37023266
 30
0.0
 40
0.5999987999999999
  1
D6
100
AcDbText
  0
LWPOLYLINE
  5
368
330
1F
100
AcDbEntity
  8
TOPOVERLAY
100
AcDbPolyline
 90
        2
 70
     0
 43
0.0999998
 10
400.63439558
 20
152.87023528
 10
401.03439478
 20
152.87023528
  0
LWPOLYLINE
  5
369
330
1F
100
AcDbEntity
  8
TOPOVERLAY
100
AcDbPolyline
 90
        2
 70
     1
 43
0.0499999
 10
400.6093969
 20
152.87023528
 42
1.0
 10
400.65939426
 20
152.87023528
 42
1.0
  0
LWPOLYLINE
  5
36A
330
1F
100
AcDbEntity
  8
TOPOVERLAY
100
AcDbPolyline
 90
        2
 70
     1
 43
0.0499999
 10
401.0093961
 20
152.87023528
 42
1.0
 10
401.05939346
 20
152.87023528
 42
1.0
  0
LWPOLYLINE
  5
36B
330
1F
100
AcDbEntity
  8
TOPOVERLAY
100
AcDbPolyline
 90
        2
 70
     0
 43
0.0999998
 10
400.63439558
 20
154.47023716
 10
401.03439478
 20
154.47023716
  0
LWPOLYLINE
  5
36C
330
1F
100
AcDbEntity
  8
TOPOVERLAY
100
AcDbPolyline
 90
        2
 70
     1
 43
0.0499999
 10
400.6093969
 20
154.47023716
 42
1.0
 10
400.65939426
 20
154.47023716
 42
1.0
  0
LWPOLYLINE
  5
36D
330
1F
100
AcDbEntity
  8
TOPOVERLAY
100
AcDbPolyline
 90
        2
 70
     1
 43
0.0499999
 10
401.0093961
 20
154.47023716
 42
1.0
 10
401.05939346
 20
154.47023716
 42
1.0
  0
LWPOLYLINE
  5
36E
330
1F
100
AcDbEntity
  8
TOPOVERLAY
100
AcDbPolyline
 90
        2
 70
     1
 43
0.0999998
 10
402.48439442
 20
152.72023558
 42
1.0
 10
402.28439482
 20
152.72023558
 42
1.0
  0
LWPOLYLINE
  5
36F
330
1F
100
AcDbEntity
  8
TOPOVERLAY
100
AcDbPolyline
 90
        2
 70
     1
 43
0.0499999
 10
402.45939574
 20
152.72023558
 42
1.0
 10
402.5093931
 20
152.72023558
 42
1.0
  0
LWPOLYLINE
  5
370
330
1F
100
AcDbEntity
  8
TOPOVERLAY
100
AcDbPolyline
 90
        2
 70
     1
 43
0.0499999
 10
402.25939614
 20
152.72023558
 42
1.0
 10
402.3093935
 20
152.72023558
 42
1.0
  0
SOLID
  5
371
330
1F
100
AcDbEntity
  8
TOPPASTE
100
AcDbTrace
 10
402.13439512
 20
153.92023826
 30
0.0
 11
402.13439512
 21
154.42023726
 31
0.0
 12
401.28439428
 22
153.92023826
 32
0.0
 13
401.28439428
 23
154.42023726
 33
0.0
  0
SOLID
  5
372
330
1F
100
AcDbEntity
  8
TOPPASTE
100
AcDbTrace
 10
400.38439608
 20
153.92023826
 30
0.0
 11
400.38439608
 21
154.42023726
 31
0.0
 12
399.53439524
 22
153.92023826
 32
0.0
 13
399.53439524
 23
154.42023726
 33
0.0
  0
SOLID
  5
373
330
1F
100
AcDbEntity
  8
TOPPASTE
100
AcDbTrace
 10
400.38439608
 20
152.92023772
 30
0.0
 11
400.38439608
 21
153.42023672
 31
0.0
 12
399.53439524
 22
152.92023772
 32
0.0
 13
399.53439524
 23
153.42023672
 33
0.0
  0
SOLID
  5
374
330
1F
100
AcDbEntity
  8
TOPPASTE
100
AcDbTrace
 10
402.13439512
 20
152.92023772
 30
0.0
 11
402.13439512
 21
153.42023672
 31
0.0
 12
401.28439428
 22
152.92023772
 32
0.0
 13
401.28439428
 23
153.42023672
 33
0.0
  0
TEXT
  5
375
330
1F
100
AcDbEntity
  8
TOPOVERLAY
100
AcDbText
 10
400.33439618
 20
151.6702326
 30
0.0
 40
0.5999987999999999
  1
D5
100
AcDbText
  0
LWPOLYLINE
  5
376
330
1F
100
AcDbEntity
  8
TOPOVERLAY
100
AcDbPolyline
 90
        2
 70
     0
 43
0.1999996
 10
435.47939574
 20
150.42523382
 10
435.47939574
 20
150.92523282
  0
LWPOLYLINE
  5
377
330
1F
100
AcDbEntity
  8
TOPOVERLAY
100
AcDbPolyline
 90
        2
 70
     1
 43
0.0999998
 10
435.42939584
 20
150.42523382
 42
1.0
 10
435.52939564
 20
150.42523382
 42
1.0
  0
LWPOLYLINE
  5
378
330
1F
100
AcDbEntity
  8
TOPOVERLAY
100
AcDbPolyline
 90
        2
 70
     1
 43
0.0999998
 10
435.42939584
 20
150.92523282
 42
1.0
 10
435.52939564
 20
150.92523282
 42
1.0
  0
LWPOLYLINE
  5
379
330
1F
100
AcDbEntity
  8
TOPOVERLAY
100
AcDbPolyline
 90
        2
 70
     0
 43
0.1999996
 10
434.97939674
 20
150.42523382
 10
435.3293960399999
 20
150.67523332
  0
LWPOLYLINE
  5
37A
330
1F
100
AcDbEntity
  8
TOPOVERLAY
100
AcDbPolyline
 90
        2
 70
     1
 43
0.0999998
 10
434.92939684
 20
150.42523382
 42
1.0
 10
435.02939664
 20
150.42523382
 42
1.0
  0
LWPOLYLINE
  5
37B
330
1F
100
AcDbEntity
  8
TOPOVERLAY
100
AcDbPolyline
 90
        2
 70
     1
 43
0.0999998
 10
435.27939614
 20
150.67523332
 42
1.0
 10
435.37939594
 20
150.67523332
 42
1.0
  0
LWPOLYLINE
  5
37C
330
1F
100
AcDbEntity
  8
TOPOVERLAY
100
AcDbPolyline
 90
        2
 70
     0
 43
0.1999996
 10
434.97939674
 20
150.42523382
 10
434.97939674
 20
150.92523282
  0
LWPOLYLINE
  5
37D
330
1F
100
AcDbEntity
  8
TOPOVERLAY
100
AcDbPolyline
 90
        2
 70
     1
 43
0.0999998
 10
434.92939684
 20
150.42523382
 42
1.0
 10
435.02939664
 20
150.42523382
 42
1.0
  0
LWPOLYLINE
  5
37E
330
1F
100
AcDbEntity
  8
TOPOVERLAY
100
AcDbPolyline
 90
        2
 70
     1
 43
0.0999998
 10
434.92939684
 20
150.92523282
 42
1.0
 10
435.02939664
 20
150.92523282
 42
1.0
  0
LWPOLYLINE
  5
37F
330
1F
100
AcDbEntity
  8
TOPOVERLAY
100
AcDbPolyline
 90
        2
 70
     0
 43
0.1999996
 10
434.97939674
 20
150.92523282
 10
435.3293960399999
 20
150.67523332
  0
LWPOLYLINE
  5
380
330
1F
100
AcDbEntity
  8
TOPOVERLAY
100
AcDbPolyline
 90
        2
 70
     1
 43
0.0999998
 10
434.92939684
 20
150.92523282
 42
1.0
 10
435.02939664
 20
150.92523282
 42
1.0
  0
LWPOLYLINE
  5
381
330
1F
100
AcDbEntity
  8
TOPOVERLAY
100
AcDbPolyline
 90
        2
 70
     1
 43
0.0999998
 10
435.27939614
 20
150.67523332
 42
1.0
 10
435.37939594
 20
150.67523332
 42
1.0
  0
LWPOLYLINE
  5
382
330
1F
100
AcDbEntity
  8
TOPOVERLAY
100
AcDbPolyline
 90
        2
 70
     0
 43
0.1499997
 10
436.01439848
 20
150.27023286
 10
436.81439688
 20
150.27023286
  0
LWPOLYLINE
  5
383
330
1F
100
AcDbEntity
  8
TOPOVERLAY
100
AcDbPolyline
 90
        2
 70
     1
 43
0.07499858
 10
435.97689792
 20
150.27023286
 42
1.0
 10
436.05189904
 20
150.27023286
 42
1.0
  0
LWPOLYLINE
  5
384
330
1F
100
AcDbEntity
  8
TOPOVERLAY
100
AcDbPolyline
 90
        2
 70
     1
 43
0.07499858
 10
436.77689632
 20
150.27023286
 42
1.0
 10
436.85189744
 20
150.27023286
 42
1.0
  0
LWPOLYLINE
  5
385
330
1F
100
AcDbEntity
  8
TOPOVERLAY
100
AcDbPolyline
 90
        2
 70
     0
 43
0.1499997
 10
436.01439848
 20
151.07023126
 10
436.81439688
 20
151.07023126
  0
LWPOLYLINE
  5
386
330
1F
100
AcDbEntity
  8
TOPOVERLAY
100
AcDbPolyline
 90
        2
 70
     1
 43
0.07499858
 10
435.97689792
 20
151.07023126
 42
1.0
 10
436.05189904
 20
151.07023126
 42
1.0
  0
LWPOLYLINE
  5
387
330
1F
100
AcDbEntity
  8
TOPOVERLAY
100
AcDbPolyline
 90
        2
 70
     1
 43
0.07499858
 10
436.77689632
 20
151.07023126
 42
1.0
 10
436.85189744
 20
151.07023126
 42
1.0
  0
SOLID
  5
388
330
1F
100
AcDbEntity
  8
TOPPASTE
100
AcDbTrace
 10
436.17439816
 20
150.79523054
 30
0.0
 11
435.81439888
 21
150.79523054
 31
0.0
 12
436.17439816
 22
150.54523358
 32
0.0
 13
435.81439888
 23
150.54523358
 33
0.0
  0
SOLID
  5
389
330
1F
100
AcDbEntity
  8
TOPPASTE
100
AcDbTrace
 10
437.01439648
 20
150.79523054
 30
0.0
 11
436.6543971999999
 21
150.79523054
 31
0.0
 12
437.01439648
 22
150.54523358
 32
0.0
 13
436.6543971999999
 23
150.54523358
 33
0.0
  0
TEXT
  5
38A
330
1F
100
AcDbEntity
  8
TOPOVERLAY
100
AcDbText
 10
433.58439572
 20
150.42023256
 30
0.0
 40
0.5999987999999999
  1
D4
100
AcDbText
  0
LWPOLYLINE
  5
38B
330
1F
100
AcDbEntity
  8
TOPOVERLAY
100
AcDbPolyline
 90
        2
 70
     0
 43
0.1999996
 10
411.47939548
 20
150.42523382
 10
411.47939548
 20
150.92523282
  0
LWPOLYLINE
  5
38C
330
1F
100
AcDbEntity
  8
TOPOVERLAY
100
AcDbPolyline
 90
        2
 70
     1
 43
0.0999998
 10
411.42939558
 20
150.42523382
 42
1.0
 10
411.52939538
 20
150.42523382
 42
1.0
  0
LWPOLYLINE
  5
38D
330
1F
100
AcDbEntity
  8
TOPOVERLAY
100
AcDbPolyline
 90
        2
 70
     1
 43
0.0999998
 10
411.42939558
 20
150.92523282
 42
1.0
 10
411.52939538
 20
150.92523282
 42
1.0
  0
LWPOLYLINE
  5
38E
330
1F
100
AcDbEntity
  8
TOPOVERLAY
100
AcDbPolyline
 90
        2
 70
     0
 43
0.1999996
 10
410.97939648
 20
150.42523382
 10
411.32939578
 20
150.67523332
  0
LWPOLYLINE
  5
38F
330
1F
100
AcDbEntity
  8
TOPOVERLAY
100
AcDbPolyline
 90
        2
 70
     1
 43
0.0999998
 10
410.92939658
 20
150.42523382
 42
1.0
 10
411.02939638
 20
150.42523382
 42
1.0
  0
LWPOLYLINE
  5
390
330
1F
100
AcDbEntity
  8
TOPOVERLAY
100
AcDbPolyline
 90
        2
 70
     1
 43
0.0999998
 10
411.27939588
 20
150.67523332
 42
1.0
 10
411.37939568
 20
150.67523332
 42
1.0
  0
LWPOLYLINE
  5
391
330
1F
100
AcDbEntity
  8
TOPOVERLAY
100
AcDbPolyline
 90
        2
 70
     0
 43
0.1999996
 10
410.97939648
 20
150.42523382
 10
410.97939648
 20
150.92523282
  0
LWPOLYLINE
  5
392
330
1F
100
AcDbEntity
  8
TOPOVERLAY
100
AcDbPolyline
 90
        2
 70
     1
 43
0.0999998
 10
410.92939658
 20
150.42523382
 42
1.0
 10
411.02939638
 20
150.42523382
 42
1.0
  0
LWPOLYLINE
  5
393
330
1F
100
AcDbEntity
  8
TOPOVERLAY
100
AcDbPolyline
 90
        2
 70
     1
 43
0.0999998
 10
410.92939658
 20
150.92523282
 42
1.0
 10
411.02939638
 20
150.92523282
 42
1.0
  0
LWPOLYLINE
  5
394
330
1F
100
AcDbEntity
  8
TOPOVERLAY
100
AcDbPolyline
 90
        2
 70
     0
 43
0.1999996
 10
410.97939648
 20
150.92523282
 10
411.32939578
 20
150.67523332
  0
LWPOLYLINE
  5
395
330
1F
100
AcDbEntity
  8
TOPOVERLAY
100
AcDbPolyline
 90
        2
 70
     1
 43
0.0999998
 10
410.92939658
 20
150.92523282
 42
1.0
 10
411.02939638
 20
150.92523282
 42
1.0
  0
LWPOLYLINE
  5
396
330
1F
100
AcDbEntity
  8
TOPOVERLAY
100
AcDbPolyline
 90
        2
 70
     1
 43
0.0999998
 10
411.27939588
 20
150.67523332
 42
1.0
 10
411.37939568
 20
150.67523332
 42
1.0
  0
LWPOLYLINE
  5
397
330
1F
100
AcDbEntity
  8
TOPOVERLAY
100
AcDbPolyline
 90
        2
 70
     0
 43
0.1499997
 10
412.01439822
 20
150.27023286
 10
412.81439662
 20
150.27023286
  0
LWPOLYLINE
  5
398
330
1F
100
AcDbEntity
  8
TOPOVERLAY
100
AcDbPolyline
 90
        2
 70
     1
 43
0.07499858
 10
411.97689766
 20
150.27023286
 42
1.0
 10
412.05189878
 20
150.27023286
 42
1.0
  0
LWPOLYLINE
  5
399
330
1F
100
AcDbEntity
  8
TOPOVERLAY
100
AcDbPolyline
 90
        2
 70
     1
 43
0.07499858
 10
412.77689606
 20
150.27023286
 42
1.0
 10
412.85189718
 20
150.27023286
 42
1.0
  0
LWPOLYLINE
  5
39A
330
1F
100
AcDbEntity
  8
TOPOVERLAY
100
AcDbPolyline
 90
        2
 70
     0
 43
0.1499997
 10
412.01439822
 20
151.07023126
 10
412.81439662
 20
151.07023126
  0
LWPOLYLINE
  5
39B
330
1F
100
AcDbEntity
  8
TOPOVERLAY
100
AcDbPolyline
 90
        2
 70
     1
 43
0.07499858
 10
411.97689766
 20
151.07023126
 42
1.0
 10
412.05189878
 20
151.07023126
 42
1.0
  0
LWPOLYLINE
  5
39C
330
1F
100
AcDbEntity
  8
TOPOVERLAY
100
AcDbPolyline
 90
        2
 70
     1
 43
0.07499858
 10
412.77689606
 20
151.07023126
 42
1.0
 10
412.85189718
 20
151.07023126
 42
1.0
  0
SOLID
  5
39D
330
1F
100
AcDbEntity
  8
TOPPASTE
100
AcDbTrace
 10
412.1743979
 20
150.79523054
 30
0.0
 11
411.81439862
 21
150.79523054
 31
0.0
 12
412.1743979
 22
150.54523358
 32
0.0
 13
411.81439862
 23
150.54523358
 33
0.0
  0
SOLID
  5
39E
330
1F
100
AcDbEntity
  8
TOPPASTE
100
AcDbTrace
 10
413.01439622
 20
150.79523054
 30
0.0
 11
412.65439694
 21
150.79523054
 31
0.0
 12
413.01439622
 22
150.54523358
 32
0.0
 13
412.65439694
 23
150.54523358
 33
0.0
  0
TEXT
  5
39F
330
1F
100
AcDbEntity
  8
TOPOVERLAY
100
AcDbText
 10
409.58439546
 20
150.42023256
 30
0.0
 40
0.5999987999999999
  1
D3
100
AcDbText
  0
LWPOLYLINE
  5
3A0
330
1F
100
AcDbEntity
  8
TOPOVERLAY
100
AcDbPolyline
 90
        2
 70
     0
 43
0.1999996
 10
451.12939492
 20
163.57523546
 10
451.12939492
 20
164.07523446
  0
LWPOLYLINE
  5
3A1
330
1F
100
AcDbEntity
  8
TOPOVERLAY
100
AcDbPolyline
 90
        2
 70
     1
 43
0.0999998
 10
451.07939502
 20
163.57523546
 42
1.0
 10
451.17939482
 20
163.57523546
 42
1.0
  0
LWPOLYLINE
  5
3A2
330
1F
100
AcDbEntity
  8
TOPOVERLAY
100
AcDbPolyline
 90
        2
 70
     1
 43
0.0999998
 10
451.07939502
 20
164.07523446
 42
1.0
 10
451.17939482
 20
164.07523446
 42
1.0
  0
LWPOLYLINE
  5
3A3
330
1F
100
AcDbEntity
  8
TOPOVERLAY
100
AcDbPolyline
 90
        2
 70
     0
 43
0.1999996
 10
450.62939592
 20
163.57523546
 10
450.97939522
 20
163.82523496
  0
LWPOLYLINE
  5
3A4
330
1F
100
AcDbEntity
  8
TOPOVERLAY
100
AcDbPolyline
 90
        2
 70
     1
 43
0.0999998
 10
450.57939602
 20
163.57523546
 42
1.0
 10
450.67939582
 20
163.57523546
 42
1.0
  0
LWPOLYLINE
  5
3A5
330
1F
100
AcDbEntity
  8
TOPOVERLAY
100
AcDbPolyline
 90
        2
 70
     1
 43
0.0999998
 10
450.92939532
 20
163.82523496
 42
1.0
 10
451.0293951199999
 20
163.82523496
 42
1.0
  0
LWPOLYLINE
  5
3A6
330
1F
100
AcDbEntity
  8
TOPOVERLAY
100
AcDbPolyline
 90
        2
 70
     0
 43
0.1999996
 10
450.62939592
 20
163.57523546
 10
450.62939592
 20
164.07523446
  0
LWPOLYLINE
  5
3A7
330
1F
100
AcDbEntity
  8
TOPOVERLAY
100
AcDbPolyline
 90
        2
 70
     1
 43
0.0999998
 10
450.57939602
 20
163.57523546
 42
1.0
 10
450.67939582
 20
163.57523546
 42
1.0
  0
LWPOLYLINE
  5
3A8
330
1F
100
AcDbEntity
  8
TOPOVERLAY
100
AcDbPolyline
 90
        2
 70
     1
 43
0.0999998
 10
450.57939602
 20
164.07523446
 42
1.0
 10
450.67939582
 20
164.07523446
 42
1.0
  0
LWPOLYLINE
  5
3A9
330
1F
100
AcDbEntity
  8
TOPOVERLAY
100
AcDbPolyline
 90
        2
 70
     0
 43
0.1999996
 10
450.62939592
 20
164.07523446
 10
450.97939522
 20
163.82523496
  0
LWPOLYLINE
  5
3AA
330
1F
100
AcDbEntity
  8
TOPOVERLAY
100
AcDbPolyline
 90
        2
 70
     1
 43
0.0999998
 10
450.57939602
 20
164.07523446
 42
1.0
 10
450.67939582
 20
164.07523446
 42
1.0
  0
LWPOLYLINE
  5
3AB
330
1F
100
AcDbEntity
  8
TOPOVERLAY
100
AcDbPolyline
 90
        2
 70
     1
 43
0.0999998
 10
450.92939532
 20
163.82523496
 42
1.0
 10
451.0293951199999
 20
163.82523496
 42
1.0
  0
LWPOLYLINE
  5
3AC
330
1F
100
AcDbEntity
  8
TOPOVERLAY
100
AcDbPolyline
 90
        2
 70
     0
 43
0.1499997
 10
451.66439766
 20
163.4202345
 10
452.46439606
 20
163.4202345
  0
LWPOLYLINE
  5
3AD
330
1F
100
AcDbEntity
  8
TOPOVERLAY
100
AcDbPolyline
 90
        2
 70
     1
 43
0.07499858
 10
451.6268971
 20
163.4202345
 42
1.0
 10
451.70189822
 20
163.4202345
 42
1.0
  0
LWPOLYLINE
  5
3AE
330
1F
100
AcDbEntity
  8
TOPOVERLAY
100
AcDbPolyline
 90
        2
 70
     1
 43
0.07499858
 10
452.4268955
 20
163.4202345
 42
1.0
 10
452.50189662
 20
163.4202345
 42
1.0
  0
LWPOLYLINE
  5
3AF
330
1F
100
AcDbEntity
  8
TOPOVERLAY
100
AcDbPolyline
 90
        2
 70
     0
 43
0.1499997
 10
451.66439766
 20
164.2202329
 10
452.46439606
 20
164.2202329
  0
LWPOLYLINE
  5
3B0
330
1F
100
AcDbEntity
  8
TOPOVERLAY
100
AcDbPolyline
 90
        2
 70
     1
 43
0.07499858
 10
451.6268971
 20
164.2202329
 42
1.0
 10
451.70189822
 20
164.2202329
 42
1.0
  0
LWPOLYLINE
  5
3B1
330
1F
100
AcDbEntity
  8
TOPOVERLAY
100
AcDbPolyline
 90
        2
 70
     1
 43
0.07499858
 10
452.4268955
 20
164.2202329
 42
1.0
 10
452.50189662
 20
164.2202329
 42
1.0
  0
SOLID
  5
3B2
330
1F
100
AcDbEntity
  8
TOPPASTE
100
AcDbTrace
 10
451.82439734
 20
163.94523218
 30
0.0
 11
451.46439806
 21
163.94523218
 31
0.0
 12
451.82439734
 22
163.69523522
 32
0.0
 13
451.46439806
 23
163.69523522
 33
0.0
  0
SOLID
  5
3B3
330
1F
100
AcDbEntity
  8
TOPPASTE
100
AcDbTrace
 10
452.66439566
 20
163.94523218
 30
0.0
 11
452.30439638
 21
163.94523218
 31
0.0
 12
452.66439566
 22
163.69523522
 32
0.0
 13
452.30439638
 23
163.69523522
 33
0.0
  0
TEXT
  5
3B4
330
1F
100
AcDbEntity
  8
TOPOVERLAY
100
AcDbText
 10
449.2343949
 20
163.5702342
 30
0.0
 40
0.5999987999999999
  1
D2
100
AcDbText
  0
LWPOLYLINE
  5
3B5
330
1F
100
AcDbEntity
  8
TOPOVERLAY
100
AcDbPolyline
 90
        2
 70
     0
 43
0.1999996
 10
442.4993944
 20
163.62523536
 10
442.4993944
 20
164.12523436
  0
LWPOLYLINE
  5
3B6
330
1F
100
AcDbEntity
  8
TOPOVERLAY
100
AcDbPolyline
 90
        2
 70
     1
 43
0.0999998
 10
442.4493945
 20
163.62523536
 42
1.0
 10
442.5493943
 20
163.62523536
 42
1.0
  0
LWPOLYLINE
  5
3B7
330
1F
100
AcDbEntity
  8
TOPOVERLAY
100
AcDbPolyline
 90
        2
 70
     1
 43
0.0999998
 10
442.4493945
 20
164.12523436
 42
1.0
 10
442.5493943
 20
164.12523436
 42
1.0
  0
LWPOLYLINE
  5
3B8
330
1F
100
AcDbEntity
  8
TOPOVERLAY
100
AcDbPolyline
 90
        2
 70
     0
 43
0.1999996
 10
441.9993954
 20
163.62523536
 10
442.3493946999999
 20
163.87523486
  0
LWPOLYLINE
  5
3B9
330
1F
100
AcDbEntity
  8
TOPOVERLAY
100
AcDbPolyline
 90
        2
 70
     1
 43
0.0999998
 10
441.9493955
 20
163.62523536
 42
1.0
 10
442.0493953
 20
163.62523536
 42
1.0
  0
LWPOLYLINE
  5
3BA
330
1F
100
AcDbEntity
  8
TOPOVERLAY
100
AcDbPolyline
 90
        2
 70
     1
 43
0.0999998
 10
442.2993948
 20
163.87523486
 42
1.0
 10
442.3993946
 20
163.87523486
 42
1.0
  0
LWPOLYLINE
  5
3BB
330
1F
100
AcDbEntity
  8
TOPOVERLAY
100
AcDbPolyline
 90
        2
 70
     0
 43
0.1999996
 10
441.9993954
 20
163.62523536
 10
441.9993954
 20
164.12523436
  0
LWPOLYLINE
  5
3BC
330
1F
100
AcDbEntity
  8
TOPOVERLAY
100
AcDbPolyline
 90
        2
 70
     1
 43
0.0999998
 10
441.9493955
 20
163.62523536
 42
1.0
 10
442.0493953
 20
163.62523536
 42
1.0
  0
LWPOLYLINE
  5
3BD
330
1F
100
AcDbEntity
  8
TOPOVERLAY
100
AcDbPolyline
 90
        2
 70
     1
 43
0.0999998
 10
441.9493955
 20
164.12523436
 42
1.0
 10
442.0493953
 20
164.12523436
 42
1.0
  0
LWPOLYLINE
  5
3BE
330
1F
100
AcDbEntity
  8
TOPOVERLAY
100
AcDbPolyline
 90
        2
 70
     0
 43
0.1999996
 10
441.9993954
 20
164.12523436
 10
442.3493946999999
 20
163.87523486
  0
LWPOLYLINE
  5
3BF
330
1F
100
AcDbEntity
  8
TOPOVERLAY
100
AcDbPolyline
 90
        2
 70
     1
 43
0.0999998
 10
441.9493955
 20
164.12523436
 42
1.0
 10
442.0493953
 20
164.12523436
 42
1.0
  0
LWPOLYLINE
  5
3C0
330
1F
100
AcDbEntity
  8
TOPOVERLAY
100
AcDbPolyline
 90
        2
 70
     1
 43
0.0999998
 10
442.2993948
 20
163.87523486
 42
1.0
 10
442.3993946
 20
163.87523486
 42
1.0
  0
LWPOLYLINE
  5
3C1
330
1F
100
AcDbEntity
  8
TOPOVERLAY
100
AcDbPolyline
 90
        2
 70
     0
 43
0.1499997
 10
443.03439714
 20
163.4702344
 10
443.83439554
 20
163.4702344
  0
LWPOLYLINE
  5
3C2
330
1F
100
AcDbEntity
  8
TOPOVERLAY
100
AcDbPolyline
 90
        2
 70
     1
 43
0.07499858
 10
442.99689658
 20
163.4702344
 42
1.0
 10
443.0718977
 20
163.4702344
 42
1.0
  0
LWPOLYLINE
  5
3C3
330
1F
100
AcDbEntity
  8
TOPOVERLAY
100
AcDbPolyline
 90
        2
 70
     1
 43
0.07499858
 10
443.79689498
 20
163.4702344
 42
1.0
 10
443.8718961
 20
163.4702344
 42
1.0
  0
LWPOLYLINE
  5
3C4
330
1F
100
AcDbEntity
  8
TOPOVERLAY
100
AcDbPolyline
 90
        2
 70
     0
 43
0.1499997
 10
443.03439714
 20
164.2702328
 10
443.83439554
 20
164.2702328
  0
LWPOLYLINE
  5
3C5
330
1F
100
AcDbEntity
  8
TOPOVERLAY
100
AcDbPolyline
 90
        2
 70
     1
 43
0.07499858
 10
442.99689658
 20
164.2702328
 42
1.0
 10
443.0718977
 20
164.2702328
 42
1.0
  0
LWPOLYLINE
  5
3C6
330
1F
100
AcDbEntity
  8
TOPOVERLAY
100
AcDbPolyline
 90
        2
 70
     1
 43
0.07499858
 10
443.79689498
 20
164.2702328
 42
1.0
 10
443.8718961
 20
164.2702328
 42
1.0
  0
SOLID
  5
3C7
330
1F
100
AcDbEntity
  8
TOPPASTE
100
AcDbTrace
 10
443.19439682
 20
163.99523208
 30
0.0
 11
442.83439754
 21
163.99523208
 31
0.0
 12
443.19439682
 22
163.74523512
 32
0.0
 13
442.83439754
 23
163.74523512
 33
0.0
  0
SOLID
  5
3C8
330
1F
100
AcDbEntity
  8
TOPPASTE
100
AcDbTrace
 10
444.03439514
 20
163.99523208
 30
0.0
 11
443.6743958599999
 21
163.99523208
 31
0.0
 12
444.03439514
 22
163.74523512
 32
0.0
 13
443.6743958599999
 23
163.74523512
 33
0.0
  0
TEXT
  5
3C9
330
1F
100
AcDbEntity
  8
TOPOVERLAY
100
AcDbText
 10
440.83439646
 20
163.5702342
 30
0.0
 40
0.5999987999999999
  1
D1
100
AcDbText
  0
LWPOLYLINE
  5
3CA
330
1F
100
AcDbEntity
  8
TOPOVERLAY
100
AcDbPolyline
 90
        2
 70
     0
 43
0.127
 10
405.6770245599999
 20
151.37063198
 10
405.6770245599999
 20
151.98023198
  0
LWPOLYLINE
  5
3CB
330
1F
100
AcDbEntity
  8
TOPOVERLAY
100
AcDbPolyline
 90
        2
 70
     1
 43
0.0635
 10
405.64527456
 20
151.37063198
 42
1.0
 10
405.70877456
 20
151.37063198
 42
1.0
  0
LWPOLYLINE
  5
3CC
330
1F
100
AcDbEntity
  8
TOPOVERLAY
100
AcDbPolyline
 90
        2
 70
     1
 43
0.0635
 10
405.64527456
 20
151.98023198
 42
1.0
 10
405.70877456
 20
151.98023198
 42
1.0
  0
SOLID
  5
3CD
330
1F
100
AcDbEntity
  8
TOPPASTE
100
AcDbTrace
 10
406.37702316
 20
151.93543146
 30
0.0
 11
405.87702416
 21
151.93543146
 31
0.0
 12
406.37702316
 22
151.4154325
 32
0.0
 13
405.87702416
 23
151.4154325
 33
0.0
  0
SOLID
  5
3CE
330
1F
100
AcDbEntity
  8
TOPPASTE
100
AcDbTrace
 10
405.47702242
 20
151.93543146
 30
0.0
 11
404.97702342
 21
151.93543146
 31
0.0
 12
405.47702242
 22
151.4154325
 32
0.0
 13
404.97702342
 23
151.4154325
 33
0.0
  0
TEXT
  5
3CF
330
1F
100
AcDbEntity
  8
TOPOVERLAY
100
AcDbText
 10
403.62702358
 20
151.47543238
 30
0.0
 40
0.5999987999999999
  1
C6
100
AcDbText
  0
LWPOLYLINE
  5
3D0
330
1F
100
AcDbEntity
  8
TOPOVERLAY
100
AcDbPolyline
 90
        2
 70
     0
 43
0.127
 10
424.3843938
 20
148.36543352
 10
424.3843938
 20
148.97503352
  0
LWPOLYLINE
  5
3D1
330
1F
100
AcDbEntity
  8
TOPOVERLAY
100
AcDbPolyline
 90
        2
 70
     1
 43
0.0635
 10
424.3526438
 20
148.36543352
 42
1.0
 10
424.4161438
 20
148.36543352
 42
1.0
  0
LWPOLYLINE
  5
3D2
330
1F
100
AcDbEntity
  8
TOPOVERLAY
100
AcDbPolyline
 90
        2
 70
     1
 43
0.0635
 10
424.3526438
 20
148.97503352
 42
1.0
 10
424.4161438
 20
148.97503352
 42
1.0
  0
SOLID
  5
3D3
330
1F
100
AcDbEntity
  8
TOPPASTE
100
AcDbTrace
 10
423.6843952
 20
148.41023404
 30
0.0
 11
424.1843942
 21
148.41023404
 31
0.0
 12
423.6843952
 22
148.930233
 32
0.0
 13
424.1843942
 23
148.930233
 33
0.0
  0
SOLID
  5
3D4
330
1F
100
AcDbEntity
  8
TOPPASTE
100
AcDbTrace
 10
424.58439594
 20
148.41023404
 30
0.0
 11
425.08439494
 21
148.41023404
 31
0.0
 12
424.58439594
 22
148.930233
 32
0.0
 13
425.08439494
 23
148.930233
 33
0.0
  0
TEXT
  5
3D5
330
1F
100
AcDbEntity
  8
TOPOVERLAY
100
AcDbText
 10
425.43439678
 20
148.37023158
 30
0.0
 40
0.5999987999999999
  1
C5
100
AcDbText
  0
LWPOLYLINE
  5
3D6
330
1F
100
AcDbEntity
  8
TOPOVERLAY
100
AcDbPolyline
 90
        2
 70
     0
 43
0.127
 10
436.3843952
 20
148.36543352
 10
436.3843952
 20
148.97503352
  0
LWPOLYLINE
  5
3D7
330
1F
100
AcDbEntity
  8
TOPOVERLAY
100
AcDbPolyline
 90
        2
 70
     1
 43
0.0635
 10
436.3526452
 20
148.36543352
 42
1.0
 10
436.4161452
 20
148.36543352
 42
1.0
  0
LWPOLYLINE
  5
3D8
330
1F
100
AcDbEntity
  8
TOPOVERLAY
100
AcDbPolyline
 90
        2
 70
     1
 43
0.0635
 10
436.3526452
 20
148.97503352
 42
1.0
 10
436.4161452
 20
148.97503352
 42
1.0
  0
SOLID
  5
3D9
330
1F
100
AcDbEntity
  8
TOPPASTE
100
AcDbTrace
 10
435.6843966
 20
148.41023404
 30
0.0
 11
436.1843956
 21
148.41023404
 31
0.0
 12
435.6843966
 22
148.930233
 32
0.0
 13
436.1843956
 23
148.930233
 33
0.0
  0
SOLID
  5
3DA
330
1F
100
AcDbEntity
  8
TOPPASTE
100
AcDbTrace
 10
436.58439734
 20
148.41023404
 30
0.0
 11
437.08439634
 21
148.41023404
 31
0.0
 12
436.58439734
 22
148.930233
 32
0.0
 13
437.08439634
 23
148.930233
 33
0.0
  0
TEXT
  5
3DB
330
1F
100
AcDbEntity
  8
TOPOVERLAY
100
AcDbText
 10
434.3343967599999
 20
148.42023402
 30
0.0
 40
0.5999987999999999
  1
C4
100
AcDbText
  0
LWPOLYLINE
  5
3DC
330
1F
100
AcDbEntity
  8
TOPOVERLAY
100
AcDbPolyline
 90
        2
 70
     0
 43
0.127
 10
412.33439758
 20
148.36543352
 10
412.33439758
 20
148.97503352
  0
LWPOLYLINE
  5
3DD
330
1F
100
AcDbEntity
  8
TOPOVERLAY
100
AcDbPolyline
 90
        2
 70
     1
 43
0.0635
 10
412.30264758
 20
148.36543352
 42
1.0
 10
412.36614758
 20
148.36543352
 42
1.0
  0
LWPOLYLINE
  5
3DE
330
1F
100
AcDbEntity
  8
TOPOVERLAY
100
AcDbPolyline
 90
        2
 70
     1
 43
0.0635
 10
412.30264758
 20
148.97503352
 42
1.0
 10
412.36614758
 20
148.97503352
 42
1.0
  0
SOLID
  5
3DF
330
1F
100
AcDbEntity
  8
TOPPASTE
100
AcDbTrace
 10
411.63439898
 20
148.41023404
 30
0.0
 11
412.13439798
 21
148.41023404
 31
0.0
 12
411.63439898
 22
148.930233
 32
0.0
 13
412.13439798
 23
148.930233
 33
0.0
  0
SOLID
  5
3E0
330
1F
100
AcDbEntity
  8
TOPPASTE
100
AcDbTrace
 10
412.53439972
 20
148.41023404
 30
0.0
 11
413.03439872
 21
148.41023404
 31
0.0
 12
412.53439972
 22
148.930233
 32
0.0
 13
413.03439872
 23
148.930233
 33
0.0
  0
TEXT
  5
3E1
330
1F
100
AcDbEntity
  8
TOPOVERLAY
100
AcDbText
 10
410.3343965
 20
148.42023402
 30
0.0
 40
0.5999987999999999
  1
C3
100
AcDbText
  0
LWPOLYLINE
  5
3E2
330
1F
100
AcDbEntity
  8
TOPOVERLAY
100
AcDbPolyline
 90
        2
 70
     0
 43
0.127
 10
451.98439702
 20
161.46063466
 10
451.98439702
 20
162.07023466
  0
LWPOLYLINE
  5
3E3
330
1F
100
AcDbEntity
  8
TOPOVERLAY
100
AcDbPolyline
 90
        2
 70
     1
 43
0.0635
 10
451.95264702
 20
161.46063466
 42
1.0
 10
452.0161470199999
 20
161.46063466
 42
1.0
  0
LWPOLYLINE
  5
3E4
330
1F
100
AcDbEntity
  8
TOPOVERLAY
100
AcDbPolyline
 90
        2
 70
     1
 43
0.0635
 10
451.95264702
 20
162.07023466
 42
1.0
 10
452.0161470199999
 20
162.07023466
 42
1.0
  0
SOLID
  5
3E5
330
1F
100
AcDbEntity
  8
TOPPASTE
100
AcDbTrace
 10
451.28439842
 20
161.50543518
 30
0.0
 11
451.7843974199999
 21
161.50543518
 31
0.0
 12
451.28439842
 22
162.02543414
 32
0.0
 13
451.7843974199999
 23
162.02543414
 33
0.0
  0
SOLID
  5
3E6
330
1F
100
AcDbEntity
  8
TOPPASTE
100
AcDbTrace
 10
452.18439916
 20
161.50543518
 30
0.0
 11
452.68439816
 21
161.50543518
 31
0.0
 12
452.18439916
 22
162.02543414
 32
0.0
 13
452.68439816
 23
162.02543414
 33
0.0
  0
TEXT
  5
3E7
330
1F
100
AcDbEntity
  8
TOPOVERLAY
100
AcDbText
 10
449.98439848
 20
161.51543516
 30
0.0
 40
0.5999987999999999
  1
C2
100
AcDbText
  0
LWPOLYLINE
  5
3E8
330
1F
100
AcDbEntity
  8
TOPOVERLAY
100
AcDbPolyline
 90
        2
 70
     0
 43
0.127
 10
443.3843939
 20
161.56543506
 10
443.3843939
 20
162.17503506
  0
LWPOLYLINE
  5
3E9
330
1F
100
AcDbEntity
  8
TOPOVERLAY
100
AcDbPolyline
 90
        2
 70
     1
 43
0.0635
 10
443.3526439
 20
161.56543506
 42
1.0
 10
443.4161439
 20
161.56543506
 42
1.0
  0
LWPOLYLINE
  5
3EA
330
1F
100
AcDbEntity
  8
TOPOVERLAY
100
AcDbPolyline
 90
        2
 70
     1
 43
0.0635
 10
443.3526439
 20
162.17503506
 42
1.0
 10
443.4161439
 20
162.17503506
 42
1.0
  0
SOLID
  5
3EB
330
1F
100
AcDbEntity
  8
TOPPASTE
100
AcDbTrace
 10
442.6843952999999
 20
161.61023558
 30
0.0
 11
443.1843943
 21
161.61023558
 31
0.0
 12
442.6843952999999
 22
162.13023454
 32
0.0
 13
443.1843943
 23
162.13023454
 33
0.0
  0
SOLID
  5
3EC
330
1F
100
AcDbEntity
  8
TOPPASTE
100
AcDbTrace
 10
443.58439604
 20
161.61023558
 30
0.0
 11
444.0843950399999
 21
161.61023558
 31
0.0
 12
443.58439604
 22
162.13023454
 32
0.0
 13
444.0843950399999
 23
162.13023454
 33
0.0
  0
TEXT
  5
3ED
330
1F
100
AcDbEntity
  8
TOPOVERLAY
100
AcDbText
 10
441.63439486
 20
161.57023312
 30
0.0
 40
0.5999987999999999
  1
C1
100
AcDbText
  0
LWPOLYLINE
  5
3EE
330
1F
100
AcDbEntity
  8
PADHOLELAYER
100
AcDbPolyline
 90
        2
 70
     1
 43
1.07499912
 10
390.80439492
 20
156.68073312
 42
1.0
 10
391.87939404
 20
156.68073312
 42
1.0
  0
TEXT
  5
3EF
330
1F
100
AcDbEntity
  8
TOPOVERLAY
100
AcDbText
 10
390.9343972
 20
159.47023224
 30
0.0
 40
0.5999987999999999
  1
M1
100
AcDbText
  0
LWPOLYLINE
  5
3F0
330
1F
100
AcDbEntity
  8
PADHOLELAYER
100
AcDbPolyline
 90
        2
 70
     1
 43
1.07499912
 10
466.79689724
 20
156.67023276
 42
1.0
 10
467.87189636
 20
156.67023276
 42
1.0
  0
TEXT
  5
3F1
330
1F
100
AcDbEntity
  8
TOPOVERLAY
100
AcDbText
 10
466.83439526
 20
159.47023224
 30
0.0
 40
0.5999987999999999
  1
M2
100
AcDbText
  0
LWPOLYLINE
  5
3F2
330
1F
100
AcDbEntity
  8
TOPOVERLAY
100
AcDbPolyline
 90
        2
 70
     0
 43
0.127
 10
407.08439792
 20
162.66543286
 10
407.08439792
 20
163.27503286
  0
LWPOLYLINE
  5
3F3
330
1F
100
AcDbEntity
  8
TOPOVERLAY
100
AcDbPolyline
 90
        2
 70
     1
 43
0.0635
 10
407.05264792
 20
162.66543286
 42
1.0
 10
407.11614792
 20
162.66543286
 42
1.0
  0
LWPOLYLINE
  5
3F4
330
1F
100
AcDbEntity
  8
TOPOVERLAY
100
AcDbPolyline
 90
        2
 70
     1
 43
0.0635
 10
407.05264792
 20
163.27503286
 42
1.0
 10
407.11614792
 20
163.27503286
 42
1.0
  0
SOLID
  5
3F5
330
1F
100
AcDbEntity
  8
TOPPASTE
100
AcDbTrace
 10
406.38439932
 20
162.71023338
 30
0.0
 11
406.88439832
 21
162.71023338
 31
0.0
 12
406.38439932
 22
163.23023234
 32
0.0
 13
406.88439832
 23
163.23023234
 33
0.0
  0
SOLID
  5
3F6
330
1F
100
AcDbEntity
  8
TOPPASTE
100
AcDbTrace
 10
407.28439752
 20
162.71023338
 30
0.0
 11
407.78439652
 21
162.71023338
 31
0.0
 12
407.28439752
 22
163.23023234
 32
0.0
 13
407.78439652
 23
163.23023234
 33
0.0
  0
TEXT
  5
3F7
330
1F
100
AcDbEntity
  8
TOPOVERLAY
100
AcDbText
 10
408.33439542
 20
162.67023346
 30
0.0
 40
0.5999987999999999
  1
R8
100
AcDbText
  0
ENDSEC
  0
SECTION
  2
OBJECTS
  0
DICTIONARY
  5
C
330
0
100
AcDbDictionary
  3
ACAD_GROUP
350
D
  3
ACAD_LAYOUT
350
1A
  3
ACAD_MATERIAL
350
43
  3
ACAD_MLEADERSTYLE
350
41B
  3
ACAD_MLINESTYLE
350
17
  3
ACAD_PLOTSETTINGS
350
19
  3
ACAD_SCALELIST
350
47
  3
ACAD_VISUALSTYLE
350
2A
  3
ACDBHEADERROUNDTRIPXREC
350
3F8
  3
ACDBVARIABLEDICTIONARY
350
419
  0
DICTIONARY
  5
422
330
8
100
AcDbDictionary
280
     1
  3
ACAD_XREC_ROUNDTRIP
360
423
  0
DICTIONARY
  5
D
102
{ACAD_REACTORS
330
C
102
}
330
C
100
AcDbDictionary
  0
DICTIONARY
  5
1A
102
{ACAD_REACTORS
330
C
102
}
330
C
100
AcDbDictionary
  0
DICTIONARY
  5
43
102
{ACAD_REACTORS
330
C
102
}
330
C
100
AcDbDictionary
  3
BYBLOCK
350
45
  3
BYLAYER
350
44
  3
GLOBAL
350
46
  0
DICTIONARY
  5
41B
102
{ACAD_REACTORS
330
C
102
}
330
C
100
AcDbDictionary
  0
DICTIONARY
  5
17
102
{ACAD_REACTORS
330
C
102
}
330
C
100
AcDbDictionary
  3
STANDARD
350
18
  0
DICTIONARY
  5
19
102
{ACAD_REACTORS
330
C
102
}
330
C
100
AcDbDictionary
  0
DICTIONARY
  5
47
102
{ACAD_REACTORS
330
C
102
}
330
C
100
AcDbDictionary
  3
A0
350
48
  3
A1
350
49
  3
A2
350
4A
  3
A3
350
4B
  3
A4
350
4C
  3
A5
350
4D
  3
A6
350
4E
  3
A7
350
4F
  3
A8
350
50
  3
A9
350
51
  3
B0
350
52
  3
B1
350
53
  3
B2
350
54
  3
B3
350
55
  3
B4
350
56
  3
B5
350
57
  3
B6
350
58
  3
B7
350
59
  3
B8
350
5A
  3
B9
350
5B
  3
C0
350
5C
  3
C1
350
5D
  3
C2
350
5E
  3
C3
350
5F
  3
C4
350
60
  3
C5
350
61
  3
C6
350
62
  3
C7
350
63
  3
C8
350
64
  3
C9
350
65
  3
D0
350
66
  3
D1
350
67
  3
D2
350
68
  0
DICTIONARY
  5
2A
102
{ACAD_REACTORS
330
C
102
}
330
C
100
AcDbDictionary
  3
2DWIREFRAME
350
2F
  3
BASIC
350
32
  3
BRIGHTEN
350
36
  3
COLORCHANGE
350
3A
  3
CONCEPTUAL
350
34
  3
DIM
350
35
  3
EDGECOLOROFF
350
3D
  3
FACEPATTERN
350
39
  3
FLAT
350
2B
  3
FLATWITHEDGES
350
2C
  3
GOURAUD
350
2D
  3
GOURAUDWITHEDGES
350
2E
  3
HIDDEN
350
31
  3
JITTEROFF
350
3B
  3
LINEPATTERN
350
38
  3
OVERHANGOFF
350
3C
  3
REALISTIC
350
33
  3
SHADED
350
42
  3
SHADED_WITH_EDGES
350
41
  3
SHADES_OF_GRAY
350
3E
  3
SKETCHY
350
3F
  3
THICKEN
350
37
  3
WIREFRAME
350
30
  3
X-RAY
350
40
  0
DICTIONARY
  5
3F8
102
{ACAD_REACTORS
330
C
102
}
330
C
100
AcDbDictionary
  3
CEPSNID
350
402
  3
CEPSNTYPE
350
401
  3
DIMSTYLEDATA
350
418
  3
FINGERPRINTGUID
350
403
  3
HYPERLINKBASE
350
3FB
  3
INSUNITS
350
400
  3
LAYOUTDICT
350
3FD
  3
LWETCUNION
350
3FF
  3
PLOTSETDICT
350
3FE
  3
PSVPSCALE
350
405
  3
PUCSBASE
350
408
  3
PUCSORGBACK
350
40E
  3
PUCSORGBOTTOM
350
40A
  3
PUCSORGFRONT
350
40D
  3
PUCSORGLEFT
350
40B
  3
PUCSORGRIGHT
350
40C
  3
PUCSORGTOP
350
409
  3
PUCSORTHOREF
350
406
  3
PUCSORTHOVIEW
350
407
  3
STYLESHEET
350
3FC
  3
TSTACKALIGN
350
3F9
  3
TSTACKSIZE
350
3FA
  3
UCSBASE
350
411
  3
UCSORGBACK
350
417
  3
UCSORGBOTTOM
350
413
  3
UCSORGFRONT
350
416
  3
UCSORGLEFT
350
414
  3
UCSORGRIGHT
350
415
  3
UCSORGTOP
350
412
  3
UCSORTHOREF
350
40F
  3
UCSORTHOVIEW
350
410
  3
VERSIONGUID
350
404
  0
DICTIONARY
  5
419
102
{ACAD_REACTORS
330
C
102
}
330
C
100
AcDbDictionary
  3
CANNOSCALE
350
424
  3
DIMASSOC
350
420
  3
HIDETEXT
350
421
  3
MSLTSCALE
350
425
  3
PSOLHEIGHT
350
41D
  3
PSOLWIDTH
350
41C
  0
XRECORD
  5
423
102
{ACAD_REACTORS
330
422
102
}
330
422
100
AcDbXrecord
102
VTR_0.000_0.000_1.000_1.000_GRIDDISPLAY
 70
     3
102
VTR_0.000_0.000_1.000_1.000_GRIDMAJOR
 70
     5
102
VTR_0.000_0.000_1.000_1.000_DEFAULTLIGHTING
280
     1
102
VTR_0.000_0.000_1.000_1.000_DEFAULTLIGHTINGTYPE
 70
     1
102
VTR_0.000_0.000_1.000_1.000_BRIGHTNESS
141
0.0
102
VTR_0.000_0.000_1.000_1.000_CONTRAST
142
0.0
  0
MATERIAL
  5
45
102
{ACAD_REACTORS
330
43
102
}
102
{ACAD_XDICTIONARY
360
428
102
}
330
43
100
AcDbMaterial
  1
BYBLOCK
  0
MATERIAL
  5
44
102
{ACAD_REACTORS
330
43
102
}
102
{ACAD_XDICTIONARY
360
426
102
}
330
43
100
AcDbMaterial
  1
BYLAYER
  0
MATERIAL
  5
46
102
{ACAD_REACTORS
330
43
102
}
102
{ACAD_XDICTIONARY
360
42A
102
}
330
43
100
AcDbMaterial
  1
GLOBAL
  0
MLINESTYLE
  5
18
102
{ACAD_REACTORS
330
17
102
}
330
17
100
AcDbMlineStyle
  2
Standard
 70
     0
  3

 62
   256
 51
90.0
 52
90.0
 71
     2
 49
0.5
 62
   256
  6
BYLAYER
 49
-0.5
 62
   256
  6
BYLAYER
  0
ACAD_PROXY_OBJECT
  5
48
102
{ACAD_REACTORS
330
47
102
}
330
47
100
AcDbProxyObject
 90
      499
 91
      503
 93
       41
310
903313A31580
  0
ACAD_PROXY_OBJECT
  5
49
102
{ACAD_REACTORS
330
47
102
}
330
47
100
AcDbProxyObject
 90
      499
 91
      503
 93
      105
310
903313A324000000000000004000
  0
ACAD_PROXY_OBJECT
  5
4A
102
{ACAD_REACTORS
330
47
102
}
330
47
100
AcDbProxyObject
 90
      499
 91
      503
 93
      105
310
903313A344000000000000104000
  0
ACAD_PROXY_OBJECT
  5
4B
102
{ACAD_REACTORS
330
47
102
}
330
47
100
AcDbProxyObject
 90
      499
 91
      503
 93
      105
310
903313A354000000000000144000
  0
ACAD_PROXY_OBJECT
  5
4C
102
{ACAD_REACTORS
330
47
102
}
330
47
100
AcDbProxyObject
 90
      499
 91
      503
 93
      105
310
903313A384000000000000204000
  0
ACAD_PROXY_OBJECT
  5
4D
102
{ACAD_REACTORS
330
47
102
}
330
47
100
AcDbProxyObject
 90
      499
 91
      503
 93
      113
310
904313A31304000000000000244000
  0
ACAD_PROXY_OBJECT
  5
4E
102
{ACAD_REACTORS
330
47
102
}
330
47
100
AcDbProxyObject
 90
      499
 91
      503
 93
      113
310
904313A31364000000000000304000
  0
ACAD_PROXY_OBJECT
  5
4F
102
{ACAD_REACTORS
330
47
102
}
330
47
100
AcDbProxyObject
 90
      499
 91
      503
 93
      113
310
904313A32304000000000000344000
  0
ACAD_PROXY_OBJECT
  5
50
102
{ACAD_REACTORS
330
47
102
}
330
47
100
AcDbProxyObject
 90
      499
 91
      503
 93
      113
310
904313A333040000000000003E4000
  0
ACAD_PROXY_OBJECT
  5
51
102
{ACAD_REACTORS
330
47
102
}
330
47
100
AcDbProxyObject
 90
      499
 91
      503
 93
      113
310
904313A34304000000000000444000
  0
ACAD_PROXY_OBJECT
  5
52
102
{ACAD_REACTORS
330
47
102
}
330
47
100
AcDbProxyObject
 90
      499
 91
      503
 93
      113
310
904313A35304000000000000494000
  0
ACAD_PROXY_OBJECT
  5
53
102
{ACAD_REACTORS
330
47
102
}
330
47
100
AcDbProxyObject
 90
      499
 91
      503
 93
      121
310
905313A3130304000000000000594000
  0
ACAD_PROXY_OBJECT
  5
54
102
{ACAD_REACTORS
330
47
102
}
330
47
100
AcDbProxyObject
 90
      499
 91
      503
 93
      105
310
903323A310000000000000010100
  0
ACAD_PROXY_OBJECT
  5
55
102
{ACAD_REACTORS
330
47
102
}
330
47
100
AcDbProxyObject
 90
      499
 91
      503
 93
      105
310
903343A310000000000000410100
  0
ACAD_PROXY_OBJECT
  5
56
102
{ACAD_REACTORS
330
47
102
}
330
47
100
AcDbProxyObject
 90
      499
 91
      503
 93
      105
310
903383A310000000000000810100
  0
ACAD_PROXY_OBJECT
  5
57
102
{ACAD_REACTORS
330
47
102
}
330
47
100
AcDbProxyObject
 90
      499
 91
      503
 93
      113
310
90431303A310000000000000910100
  0
ACAD_PROXY_OBJECT
  5
58
102
{ACAD_REACTORS
330
47
102
}
330
47
100
AcDbProxyObject
 90
      499
 91
      503
 93
      121
310
9053130303A310000000000001650100
  0
ACAD_PROXY_OBJECT
  5
59
102
{ACAD_REACTORS
330
47
102
}
330
47
100
AcDbProxyObject
 90
      499
 91
      503
 93
      257
310
90E312F31323822203D2031272D3022000000000000200FC000000000000284000
  0
ACAD_PROXY_OBJECT
  5
5A
102
{ACAD_REACTORS
330
47
102
}
330
47
100
AcDbProxyObject
 90
      499
 91
      503
 93
      249
310
90D312F363422203D2031272D3022000000000000240FC000000000000284000
  0
ACAD_PROXY_OBJECT
  5
5B
102
{ACAD_REACTORS
330
47
102
}
330
47
100
AcDbProxyObject
 90
      499
 91
      503
 93
      249
310
90D312F333222203D2031272D3022000000000000280FC000000000000284000
  0
ACAD_PROXY_OBJECT
  5
5C
102
{ACAD_REACTORS
330
47
102
}
330
47
100
AcDbProxyObject
 90
      499
 91
      503
 93
      249
310
90D312F313622203D2031272D30220000000000002C0FC000000000000284000
  0
ACAD_PROXY_OBJECT
  5
5D
102
{ACAD_REACTORS
330
47
102
}
330
47
100
AcDbProxyObject
 90
      499
 91
      503
 93
      249
310
90D332F333222203D2031272D30220000000000002E0FC000000000000284000
  0
ACAD_PROXY_OBJECT
  5
5E
102
{ACAD_REACTORS
330
47
102
}
330
47
100
AcDbProxyObject
 90
      499
 91
      503
 93
      241
310
90C312F3822203D2031272D3022000000000000300FC000000000000284000
  0
ACAD_PROXY_OBJECT
  5
5F
102
{ACAD_REACTORS
330
47
102
}
330
47
100
AcDbProxyObject
 90
      499
 91
      503
 93
      249
310
90D332F313622203D2031272D3022000000000000320FC000000000000284000
  0
ACAD_PROXY_OBJECT
  5
60
102
{ACAD_REACTORS
330
47
102
}
330
47
100
AcDbProxyObject
 90
      499
 91
      503
 93
      241
310
90C312F3422203D2031272D3022000000000000340FC000000000000284000
  0
ACAD_PROXY_OBJECT
  5
61
102
{ACAD_REACTORS
330
47
102
}
330
47
100
AcDbProxyObject
 90
      499
 91
      503
 93
      241
310
90C332F3822203D2031272D3022000000000000360FC000000000000284000
  0
ACAD_PROXY_OBJECT
  5
62
102
{ACAD_REACTORS
330
47
102
}
330
47
100
AcDbProxyObject
 90
      499
 91
      503
 93
      241
310
90C312F3222203D2031272D3022000000000000380FC000000000000284000
  0
ACAD_PROXY_OBJECT
  5
63
102
{ACAD_REACTORS
330
47
102
}
330
47
100
AcDbProxyObject
 90
      499
 91
      503
 93
      241
310
90C332F3422203D2031272D30220000000000003A0FC000000000000284000
  0
ACAD_PROXY_OBJECT
  5
64
102
{ACAD_REACTORS
330
47
102
}
330
47
100
AcDbProxyObject
 90
      499
 91
      503
 93
      161
310
90A3122203D2031272D30224000000000000284000
  0
ACAD_PROXY_OBJECT
  5
65
102
{ACAD_REACTORS
330
47
102
}
330
47
100
AcDbProxyObject
 90
      499
 91
      503
 93
      257
310
90E312D312F3222203D2031272D30220000000000003E0FC000000000000284000
  0
ACAD_PROXY_OBJECT
  5
66
102
{ACAD_REACTORS
330
47
102
}
330
47
100
AcDbProxyObject
 90
      499
 91
      503
 93
      225
310
90A3322203D2031272D302200000000000002100000000000000284000
  0
ACAD_PROXY_OBJECT
  5
67
102
{ACAD_REACTORS
330
47
102
}
330
47
100
AcDbProxyObject
 90
      499
 91
      503
 93
      225
310
90A3622203D2031272D302200000000000006100000000000000284000
  0
ACAD_PROXY_OBJECT
  5
68
102
{ACAD_REACTORS
330
47
102
}
330
47
100
AcDbProxyObject
 90
      499
 91
      503
 93
      249
310
90D31272D3022203D2031272D30220000000000000A100000000000000284000
  0
ACAD_PROXY_OBJECT
  5
2F
102
{ACAD_REACTORS
330
2A
102
}
330
2A
100
AcDbProxyObject
 90
      499
 91
      501
 93
      436
310
42CC9915DA5C99599C985B595049028333333333333E33F0000000000000F90107901411070040501600405405064090741402480A0340
1001
ACAD
1000
AcDbSavedByObjectVersion
1070
     0
  0
ACAD_PROXY_OBJECT
  5
32
102
{ACAD_REACTORS
330
2A
102
}
330
2A
100
AcDbProxyObject
 90
      499
 91
      501
 93
      388
310
4150985CDA58D07406404333333333333E33F0000000000000F90107A41107004050150841D405064090741402480A0350
1001
ACAD
1000
AcDbSavedByObjectVersion
1070
     0
  0
ACAD_PROXY_OBJECT
  5
36
102
{ACAD_REACTORS
330
2A
102
}
330
2A
100
AcDbProxyObject
 90
      499
 91
      501
 93
      428
310
42109C9A59DA1D195B90C409028333333333333E33F0000000000000F9010790141107004050150841D405064090741402480A029950
1001
ACAD
1000
AcDbSavedByObjectVersion
1070
     0
  0
ACAD_PROXY_OBJECT
  5
3A
102
{ACAD_REACTORS
330
2A
102
}
330
2A
100
AcDbProxyObject
 90
      499
 91
      501
 93
      452
310
42D0DBDB1BDC90DA185B99D95104090240C333333333333E33F0000000000000F90108901411070040501508421405064090741402480A0350
1001
ACAD
1000
AcDbSavedByObjectVersion
1070
     0
  0
ACAD_PROXY_OBJECT
  5
34
102
{ACAD_REACTORS
330
2A
102
}
330
2A
100
AcDbProxyObject
 90
      499
 91
      501
 93
      500
310
4290DBDB98D95C1D1D585B10940D028333333333333E33F0000000000000F90107902409070040501000000000018199010841D405064090740C02480A0340
1001
ACAD
1000
AcDbSavedByObjectVersion
1070
     0
  0
ACAD_PROXY_OBJECT
  5
35
102
{ACAD_REACTORS
330
2A
102
}
330
2A
100
AcDbProxyObject
 90
      499
 91
      501
 93
      412
310
40D11A5B50B409028333333333333E33F0000000000000F9010790141107004050150841D405064090741402480A02677FFFFFD0
1001
ACAD
1000
AcDbSavedByObjectVersion
1070
     0
  0
ACAD_PROXY_OBJECT
  5
3D
102
{ACAD_REACTORS
330
2A
102
}
330
2A
100
AcDbProxyObject
 90
      499
 91
      501
 93
      452
310
43115919D950DBDB1BDC93D999916409028333333333333E33F0000000000000F9010790141107004050150841D405064090741402480A0350
1001
ACAD
1000
AcDbSavedByObjectVersion
1070
     0
  0
ACAD_PROXY_OBJECT
  5
39
102
{ACAD_REACTORS
330
2A
102
}
330
2A
100
AcDbProxyObject
 90
      499
 91
      501
 93
      444
310
42D19858D95C185D1D195C9B90F409028333333333333E33F0000000000000F9010790141107004050150841D405064090741402480A0350
1001
ACAD
1000
AcDbSavedByObjectVersion
1070
     0
  0
ACAD_PROXY_OBJECT
  5
2B
102
{ACAD_REACTORS
330
2A
102
}
330
2A
100
AcDbProxyObject
 90
      499
 91
      501
 93
      380
310
41119B185D240901404333333333333E33F0000000000000F9010740A907004050150841D405064090741402480A1B50
1001
ACAD
1000
AcDbSavedByObjectVersion
1070
     0
  0
ACAD_PROXY_OBJECT
  5
2C
102
{ACAD_REACTORS
330
2A
102
}
330
2A
100
AcDbProxyObject
 90
      499
 91
      501
 93
      468
310
43519B185D15DA5D1A115919D95CD0140901404333333333333E33F0000000000000F90107409019070040501600405405064090741402480A1B50
1001
ACAD
1000
AcDbSavedByObjectVersion
1070
     0
  0
ACAD_PROXY_OBJECT
  5
2D
102
{ACAD_REACTORS
330
2A
102
}
330
2A
100
AcDbProxyObject
 90
      499
 91
      501
 93
      404
310
41D1DBDD5C985D5910240902404333333333333E33F0000000000000F9010740A9070040501641D405064090741402480A1B50
1001
ACAD
1000
AcDbSavedByObjectVersion
1070
     0
  0
ACAD_PROXY_OBJECT
  5
2E
102
{ACAD_REACTORS
330
2A
102
}
330
2A
100
AcDbProxyObject
 90
      499
 91
      501
 93
      492
310
4411DBDD5C985D5915DA5D1A115919D95CD0340902404333333333333E33F0000000000000F90107409019070040501600405405064090741402480A1B50
1001
ACAD
1000
AcDbSavedByObjectVersion
1070
     0
  0
ACAD_PROXY_OBJECT
  5
31
102
{ACAD_REACTORS
330
2A
102
}
330
2A
100
AcDbProxyObject
 90
      499
 91
      501
 93
      476
310
41921A5919195B90640502408333333333333E33F0000000000000F901079024090700405020000000000001110200405405064090740C02480A0340
1001
ACAD
1000
AcDbSavedByObjectVersion
1070
     0
  0
ACAD_PROXY_OBJECT
  5
3B
102
{ACAD_REACTORS
330
2A
102
}
330
2A
100
AcDbProxyObject
 90
      499
 91
      501
 93
      428
310
42529A5D1D195C93D999914409028333333333333E33F0000000000000F9010790141107004050150A41D405064090741402480A0350
1001
ACAD
1000
AcDbSavedByObjectVersion
1070
     0
  0
ACAD_PROXY_OBJECT
  5
38
102
{ACAD_REACTORS
330
2A
102
}
330
2A
100
AcDbProxyObject
 90
      499
 91
      501
 93
      444
310
42D31A5B995C185D1D195C9B90E409028333333333333E33F0000000000000F9010790141107004050750841D405064090741402483A0350
1001
ACAD
1000
AcDbSavedByObjectVersion
1070
     0
  0
ACAD_PROXY_OBJECT
  5
3C
102
{ACAD_REACTORS
330
2A
102
}
330
2A
100
AcDbProxyObject
 90
      499
 91
      501
 93
      444
310
42D3DD995C9A185B99D3D999915409028333333333333E33F0000000000000F9010790141107004050150941D405064090741402480A0350
1001
ACAD
1000
AcDbSavedByObjectVersion
1070
     0
  0
ACAD_PROXY_OBJECT
  5
33
102
{ACAD_REACTORS
330
2A
102
}
330
2A
100
AcDbProxyObject
 90
      499
 91
      501
 93
      428
310
425499585B1A5CDD1A58D08409038333333333333E33F0000000000000F9010740A907004050150800405405064090740C02480A1B40
1001
ACAD
1000
AcDbSavedByObjectVersion
1070
     0
  0
ACAD_PROXY_OBJECT
  5
42
102
{ACAD_REACTORS
330
2A
102
}
330
2A
100
AcDbProxyObject
 90
      499
 91
      501
 93
      420
310
4194DA1859195911B40902404333333333333E33F0000000000000F9010740A41107004050150800405405064090840C02480A0B40
1001
ACAD
1000
AcDbSavedByObjectVersion
1070
     0
  0
ACAD_PROXY_OBJECT
  5
41
102
{ACAD_REACTORS
330
2A
102
}
330
2A
100
AcDbProxyObject
 90
      499
 91
      501
 93
      516
310
4454DA18591959081DDA5D1A08195919D95CD1A40902404333333333333E33F0000000000000F901074090142907004050250800405405064090740C02480A0B40
1001
ACAD
1000
AcDbSavedByObjectVersion
1070
     0
  0
ACAD_PROXY_OBJECT
  5
3E
102
{ACAD_REACTORS
330
2A
102
}
330
2A
100
AcDbProxyObject
 90
      499
 91
      501
 93
      532
310
4394DA1859195CC81BD98811DC985E5174090240C333333333333E33F0000000000000F901079024090741D01000000000000111010841D405064090740C02480A0340
1001
ACAD
1000
AcDbSavedByObjectVersion
1070
     0
  0
ACAD_PROXY_OBJECT
  5
3F
102
{ACAD_REACTORS
330
2A
102
}
330
2A
100
AcDbProxyObject
 90
      499
 91
      501
 93
      476
310
41D4DAD95D18DA1E51840502408333333333333E33F0000000000000F901079024090741D01000000000000111010B41D405064090741802480A0340
1001
ACAD
1000
AcDbSavedByObjectVersion
1070
     0
  0
ACAD_PROXY_OBJECT
  5
37
102
{ACAD_REACTORS
330
2A
102
}
330
2A
100
AcDbProxyObject
 90
      499
 91
      501
 93
      412
310
41D51A1A58DAD95B90D409028333333333333E33F0000000000000F9010790141107004050150C41D405064090741402480A0350
1001
ACAD
1000
AcDbSavedByObjectVersion
1070
     0
  0
ACAD_PROXY_OBJECT
  5
30
102
{ACAD_REACTORS
330
2A
102
}
330
2A
100
AcDbProxyObject
 90
      499
 91
      501
 93
      420
310
4255DA5C99599C985B595059028333333333333E33F0000000000000F90107901411070040501600405405064090740C02480A0340
1001
ACAD
1000
AcDbSavedByObjectVersion
1070
     0
  0
ACAD_PROXY_OBJECT
  5
40
102
{ACAD_REACTORS
330
2A
102
}
330
2A
100
AcDbProxyObject
 90
      499
 91
      501
 93
      404
310
41560B54985E51940902404000000000000E03F0000000000000F9010740501907004050150841D405064090740C02480A1B40
1001
ACAD
1000
AcDbSavedByObjectVersion
1070
     0
  0
XRECORD
  5
402
102
{ACAD_REACTORS
330
3F8
102
}
330
3F8
100
AcDbXrecord
340
0
  0
XRECORD
  5
401
102
{ACAD_REACTORS
330
3F8
102
}
330
3F8
100
AcDbXrecord
 90
        0
  0
XRECORD
  5
418
102
{ACAD_REACTORS
330
3F8
102
}
330
3F8
100
AcDbXrecord
1000
DSTYLE
1002
{
1070
   340
340
11
1002
}
  0
XRECORD
  5
403
102
{ACAD_REACTORS
330
3F8
102
}
330
3F8
100
AcDbXrecord
  1
{4C0FF478-69FA-4A85-8A03-CEA4CB353785}
  0
XRECORD
  5
3FB
102
{ACAD_REACTORS
330
3F8
102
}
330
3F8
100
AcDbXrecord
  1

  0
XRECORD
  5
400
102
{ACAD_REACTORS
330
3F8
102
}
330
3F8
100
AcDbXrecord
 90
        4
  0
XRECORD
  5
3FD
102
{ACAD_REACTORS
330
3F8
102
}
330
3F8
100
AcDbXrecord
340
1A
  0
XRECORD
  5
3FF
102
{ACAD_REACTORS
330
3F8
102
}
330
3F8
100
AcDbXrecord
 90
    10781
  0
XRECORD
  5
3FE
102
{ACAD_REACTORS
330
3F8
102
}
330
3F8
100
AcDbXrecord
340
19
  0
XRECORD
  5
405
102
{ACAD_REACTORS
330
3F8
102
}
330
3F8
100
AcDbXrecord
 40
0.0
  0
XRECORD
  5
408
102
{ACAD_REACTORS
330
3F8
102
}
330
3F8
100
AcDbXrecord
340
0
  0
XRECORD
  5
40E
102
{ACAD_REACTORS
330
3F8
102
}
330
3F8
100
AcDbXrecord
 10
0.0
 20
0.0
 30
0.0
  0
XRECORD
  5
40A
102
{ACAD_REACTORS
330
3F8
102
}
330
3F8
100
AcDbXrecord
 10
0.0
 20
0.0
 30
0.0
  0
XRECORD
  5
40D
102
{ACAD_REACTORS
330
3F8
102
}
330
3F8
100
AcDbXrecord
 10
0.0
 20
0.0
 30
0.0
  0
XRECORD
  5
40B
102
{ACAD_REACTORS
330
3F8
102
}
330
3F8
100
AcDbXrecord
 10
0.0
 20
0.0
 30
0.0
  0
XRECORD
  5
40C
102
{ACAD_REACTORS
330
3F8
102
}
330
3F8
100
AcDbXrecord
 10
0.0
 20
0.0
 30
0.0
  0
XRECORD
  5
409
102
{ACAD_REACTORS
330
3F8
102
}
330
3F8
100
AcDbXrecord
 10
0.0
 20
0.0
 30
0.0
  0
XRECORD
  5
406
102
{ACAD_REACTORS
330
3F8
102
}
330
3F8
100
AcDbXrecord
340
0
  0
XRECORD
  5
407
102
{ACAD_REACTORS
330
3F8
102
}
330
3F8
100
AcDbXrecord
 70
     0
  0
XRECORD
  5
3FC
102
{ACAD_REACTORS
330
3F8
102
}
330
3F8
100
AcDbXrecord
  1

  0
XRECORD
  5
3F9
102
{ACAD_REACTORS
330
3F8
102
}
330
3F8
100
AcDbXrecord
 90
        1
  0
XRECORD
  5
3FA
102
{ACAD_REACTORS
330
3F8
102
}
330
3F8
100
AcDbXrecord
 90
       70
  0
XRECORD
  5
411
102
{ACAD_REACTORS
330
3F8
102
}
330
3F8
100
AcDbXrecord
340
0
  0
XRECORD
  5
417
102
{ACAD_REACTORS
330
3F8
102
}
330
3F8
100
AcDbXrecord
 10
0.0
 20
0.0
 30
0.0
  0
XRECORD
  5
413
102
{ACAD_REACTORS
330
3F8
102
}
330
3F8
100
AcDbXrecord
 10
0.0
 20
0.0
 30
0.0
  0
XRECORD
  5
416
102
{ACAD_REACTORS
330
3F8
102
}
330
3F8
100
AcDbXrecord
 10
0.0
 20
0.0
 30
0.0
  0
XRECORD
  5
414
102
{ACAD_REACTORS
330
3F8
102
}
330
3F8
100
AcDbXrecord
 10
0.0
 20
0.0
 30
0.0
  0
XRECORD
  5
415
102
{ACAD_REACTORS
330
3F8
102
}
330
3F8
100
AcDbXrecord
 10
0.0
 20
0.0
 30
0.0
  0
XRECORD
  5
412
102
{ACAD_REACTORS
330
3F8
102
}
330
3F8
100
AcDbXrecord
 10
0.0
 20
0.0
 30
0.0
  0
XRECORD
  5
40F
102
{ACAD_REACTORS
330
3F8
102
}
330
3F8
100
AcDbXrecord
340
0
  0
XRECORD
  5
410
102
{ACAD_REACTORS
330
3F8
102
}
330
3F8
100
AcDbXrecord
 70
     0
  0
XRECORD
  5
404
102
{ACAD_REACTORS
330
3F8
102
}
330
3F8
100
AcDbXrecord
  1
{FAEB1C32-E019-11D5-929B-00C0DF256EC4}
  0
DICTIONARYVAR
  5
424
102
{ACAD_REACTORS
330
419
102
}
330
419
100
DictionaryVariables
280
     0
  1
1:1
  0
DICTIONARYVAR
  5
420
102
{ACAD_REACTORS
330
419
102
}
330
419
100
DictionaryVariables
280
     0
  1
2
  0
DICTIONARYVAR
  5
421
102
{ACAD_REACTORS
330
419
102
}
330
419
100
DictionaryVariables
280
     0
  1
1
  0
DICTIONARYVAR
  5
425
102
{ACAD_REACTORS
330
419
102
}
330
419
100
DictionaryVariables
280
     0
  1
1
  0
DICTIONARYVAR
  5
41D
102
{ACAD_REACTORS
330
419
102
}
330
419
100
DictionaryVariables
280
     0
  1
80.000000
  0
DICTIONARYVAR
  5
41C
102
{ACAD_REACTORS
330
419
102
}
330
419
100
DictionaryVariables
280
     0
  1
5.000000
  0
DICTIONARY
  5
428
330
45
100
AcDbDictionary
280
     1
  3
ACAD_XREC_ROUNDTRIP
360
429
  0
DICTIONARY
  5
426
330
44
100
AcDbDictionary
280
     1
  3
ACAD_XREC_ROUNDTRIP
360
427
  0
DICTIONARY
  5
42A
330
46
100
AcDbDictionary
280
     1
  3
ACAD_XREC_ROUNDTRIP
360
42B
  0
XRECORD
  5
429
102
{ACAD_REACTORS
330
428
102
}
330
428
100
AcDbXrecord
102
MATERIAL
148
0.0
149
0.0
149
0.0
 93
        0
 94
      127
282
     0
 72
     1
 77
     1
171
     1
175
     1
179
     1
273
     0
  0
XRECORD
  5
427
102
{ACAD_REACTORS
330
426
102
}
330
426
100
AcDbXrecord
102
MATERIAL
148
0.0
149
0.0
149
0.0
 93
        0
 94
      127
282
     0
 72
     1
 77
     1
171
     1
175
     1
179
     1
273
     0
  0
XRECORD
  5
42B
102
{ACAD_REACTORS
330
42A
102
}
330
42A
100
AcDbXrecord
102
MATERIAL
148
0.0
149
0.0
149
0.0
 93
        0
 94
      127
282
     0
 72
     1
 77
     1
171
     1
175
     1
179
     1
273
     0
  0
ENDSEC
  0
EOF
