**ABCDEFGHIJKLMNOPQRSTUVWXYZabcdefghijklmnopqrstuvwxyz**************************
**PARASOLID !"#$%&'()*+,-./:;<=>?@[\]^_`{|}~0123456789**************************
**PART1;
MC=AMD64;
MC_MODEL=Intel64 Family 6 Model 58 Stepping 9, GenuineIntel;
MC_ID=unknown;
OS=Windows_NT;
OS_RELEASE=unknown;
FRU=Parasolid Version 28.0, build 204, 11- 9-2015;
APPL=SOLIDWORKS 2016-2016040;
SITE=;
USER=unknown;
FORMAT=text;
GUISE=transmit;
KEY=310-019773-REV-A;
FILE=310-019773-REV-A.x_t;
DATE=Wed Oct 05 17:14:59 2016;
**PART2;
SCH=SCH_2800204_28002;
USFLD_SIZE=0;
**PART3;
**END_OF_HEADER*****************************************************************
T51 : TRANSMIT FILE created by modeller version 280020423 SCH_2800204_28002_1300
6200 0 12 30 CCCCCCCCCCCCCDI5 owner1040 0 CCCCCCCCCA13 boundary_mesh1006 0 A16 i
ndex_map_offset0 0 1 dA9 index_map82 0 A17 node_id_index_map82 0 A20 schema_embe
dding_map82 0 A5 child12 0 A14 lowest_node_id0 0 1 dZ1 999 2 3 0 0 0 0 1e3 1e-8
 0 4 0 1 0 1 1 5 6 7 8 9 10 11 0 0 0 0 0 0 0 81 255 2 2 595 12 1 0 0 0 0 13 0 70
 11 CI9 list_type0 0 1 uI10 notransmit0 0 1 lCCCDCCDI12 finger_index0 0 1 dI12 f
inger_block1012 0 CZ3 0 4 T1 0 0 3 20 1 14 14 13 255 5 94 0 1 0 15 0 0 16 0 50 2
55 6 89 0 17 18 0 0 +.007 .0143500000000012 -.00525 -1 663687331006732e-46 -1188
166764367676e-31 -1188166764367676e-31 0 1 30 255 7 93 0 10 19 0 0 +.007 .014350
0000000012 -.00525 0 -1 -558580959264532e-30 29 255 8 389 0 11 20 0 -.0024999999
9999975 .0143500000000012 .0275 19 8 CCCCCCCA5 owner12 0 Z9 28 0 1 16 0 21 V0 16
 255 10 77 0 ?22 0 23 7 0 0 1 18 255 11 387 0 24 0 25 8 ?1 17 255 24 0 26 27 28
 11 29 30 0 31 -18 25 370 0 32 11 33 20 ?1 17 32 0 34 35 36 25 37 38 0 39 -18 33
 257 0 40 25 41 42 ?1 29 20 372 0 25 42 8 .00250000000000025 .00800000000000119
 .0275 29 42 259 0 33 43 20 -.002499999999999875 .0143500000000012 .0155 29 43 2
42 0 41 44 42 .002500000000000125 .00800000000000119 .0155 18 41 240 0 45 33 46
 43 ?1 29 44 129 0 46 47 43 -.0025 .0143500000000012 .0035 18 46 127 0 48 41 49
 44 ?1 29 47 112 0 49 50 44 .0025 .0080000000000012 .0035 18 49 110 0 51 46 52 4
7 ?1 29 50 70 0 53 54 47 .007 .00800000000000118 .03125 18 53 61 0 55 56 57 50 ?
1 29 54 71 0 57 58 50 -.007 .00800000000000118 .03125 18 57 62 0 59 53 60 54 ?1
 29 58 72 0 60 61 54 -.007 .0080000000000012 -.00525 18 60 63 0 62 57 63 58 ?1 2
9 61 73 0 63 64 58 .007 .0080000000000012 -.00525 18 63 64 0 65 60 66 61 ?1 29 6
4 27 0 52 67 61 .007 .0143500000000012 .03125 18 52 25 0 68 49 69 64 ?1 29 67 24
 0 69 70 64 -.007 .0143500000000012 .03125 18 69 22 0 71 52 72 67 ?1 29 70 21 0
 72 73 67 -.007 .0143500000000012 -.00525 18 72 19 0 74 69 56 70 ?1 29 73 18 0 5
6 75 70 .007 .0143500000000012 -.00525 18 56 16 0 76 72 53 73 ?1 29 75 227 0 77
 78 73 -.0025 .0080000000000012 .0035 18 77 178 0 79 80 81 75 ?1 29 78 228 0 81
 82 75 -.0025 .0080000000000012 -.0015 18 81 176 0 83 77 84 78 ?1 29 82 229 0 84
 85 78 .0025 .0080000000000012 -.0015 18 84 183 0 86 81 87 82 ?1 29 85 230 0 66
 88 82 .0025 .0143500000000012 .0035 18 66 182 0 89 63 90 85 ?1 29 88 232 0 90 9
1 85 -.0025 .0143500000000012 -.0015 18 90 180 0 92 66 80 88 ?1 29 91 233 0 80 9
3 88 .0025 .0143500000000012 -.0015 18 80 177 0 94 90 77 91 ?1 29 93 357 0 95 96
 91 -.002499999999999875 .00800000000000119 .0155 18 95 308 0 97 98 99 93 ?1 29
 96 358 0 99 100 93 -.002499999999999875 .0080000000000012 .0105 18 99 306 0 101
 95 102 96 ?1 29 100 359 0 102 103 96 .002500000000000125 .0080000000000012 .010
5 18 102 313 0 104 99 105 100 ?1 29 103 360 0 87 106 100 .002500000000000125 .01
43500000000012 .0155 18 87 312 0 107 84 108 103 ?1 29 106 362 0 108 109 103 -.00
2499999999999875 .0143500000000012 .0105 18 108 310 0 110 87 98 106 ?1 29 109 36
3 0 98 111 106 .002500000000000125 .0143500000000012 .0105 18 98 307 0 112 108 9
5 109 ?1 29 111 487 0 113 114 109 -.00249999999999975 .00800000000000119 .0275 1
8 113 438 0 29 115 116 111 ?1 29 114 488 0 116 117 111 -.00249999999999975 .0080
0000000000119 .0225 18 116 436 0 118 113 119 114 ?1 29 117 489 0 119 120 114 .00
250000000000025 .00800000000000119 .0225 18 119 443 0 121 116 0 117 ?1 29 120 49
0 0 105 122 117 .00250000000000025 .0143500000000012 .0275 18 105 442 0 27 102 1
23 120 ?1 29 122 492 0 123 124 120 -.00249999999999975 .0143500000000012 .0225 1
8 123 440 0 125 105 115 122 ?1 29 124 493 0 115 0 122 .00250000000000025 .014350
0000000012 .0225 18 115 437 0 126 123 113 124 ?1 17 126 0 34 36 35 115 127 128 0
 129 +15 255 34 447 0 32 130 0 17 36 0 34 32 126 119 129 131 0 37 +17 35 0 34 12
6 32 105 39 132 0 127 -17 127 0 133 134 135 105 126 128 0 0 -16 128 424 0 ?126 1
36 137 138 0 0 1 17 129 0 139 125 121 115 36 131 0 135 -15 139 451 0 121 140 0 1
7 125 0 139 118 129 123 135 136 0 141 +17 121 0 139 129 118 119 142 143 0 36 -16
 131 415 0 ?36 144 145 146 0 0 1 17 135 0 133 127 147 115 125 136 0 0 -15 133 40
3 0 127 15 0 17 147 0 133 135 134 123 31 148 0 0 -16 136 427 0 ?125 148 128 149
 0 0 1 16 148 430 0 ?31 150 136 151 0 0 1 30 149 484 0 136 138 151 0 +.002500000
00000025 .0143500000000012 .0225 -1 0 0 30 138 485 0 128 0 149 0 +.0025000000000
0025 .0143500000000012 .0225 0 693889390390723e-30 -1 30 151 483 0 148 149 152 0
 +-.00249999999999975 .0143500000000012 .0225 0 -693889390390723e-30 1 30 152 48
2 0 150 151 153 0 +.00250000000000025 .0143500000000012 .0275 1 0 0 16 150 433 0
 ?27 132 148 152 0 0 1 30 153 481 0 38 152 154 0 +.00250000000000025 .0080000000
0000119 .0225 0 693889390390723e-30 -1 16 38 408 0 ?37 143 0 153 0 0 1 30 154 48
0 0 143 153 155 0 +.00250000000000025 .00800000000000119 .0225 -1 0 0 16 143 412
 0 ?142 156 38 154 0 0 1 30 155 479 0 156 154 157 0 +-.00249999999999975 .008000
00000000119 .0225 0 -693889390390723e-30 1 16 156 416 0 ?158 137 143 155 0 0 1 3
0 157 478 0 137 155 159 0 +.00250000000000025 .00800000000000119 .0275 1 0 0 16
 137 420 0 ?160 128 156 157 0 0 1 30 159 477 0 132 157 161 0 +.00250000000000025
 .0143500000000012 .0275 0 -1 -558580959264532e-30 16 132 411 0 ?39 30 150 159 0
 0 1 30 161 476 0 30 159 162 0 +-.00249999999999975 .0143500000000012 .0275 0 -1
 -558580959264532e-30 16 30 423 0 ?29 145 132 161 0 0 1 30 162 475 0 145 161 146
 0 +-.00249999999999975 .0143500000000012 .0225 0 -1 -558580959264532e-30 16 145
 419 0 ?118 131 30 162 0 0 1 30 146 474 0 131 162 163 0 +.00250000000000025 .014
3500000000012 .0225 0 -1 -558580959264532e-30 30 163 355 0 164 146 165 0 +.00250
0000000000125 .0143500000000012 .0105 0 693889390390723e-30 -1 16 164 294 0 ?112
 166 167 163 0 0 1 30 165 354 0 166 163 168 0 +.002500000000000125 .014350000000
0012 .0105 -1 0 0 16 166 297 0 ?110 169 164 165 0 0 1 30 168 353 0 169 165 170 0
 +-.002499999999999875 .0143500000000012 .0105 0 -693889390390723e-30 1 16 169 3
00 0 ?171 172 166 168 0 0 1 30 170 352 0 172 168 173 0 +.002500000000000125 .014
3500000000012 .0155 1 0 0 16 172 303 0 ?107 174 169 170 0 0 1 30 173 351 0 144 1
70 175 0 +.002500000000000125 .0080000000000012 .0105 0 693889390390723e-30 -1 1
6 144 278 0 ?176 177 131 173 0 0 1 30 175 350 0 177 173 178 0 +.0025000000000001
25 .0080000000000012 .0105 -1 0 0 16 177 282 0 ?179 180 144 175 0 0 1 30 178 349
 0 180 175 181 0 +-.002499999999999875 .0080000000000012 .0105 0 -69388939039072
3e-30 1 16 180 286 0 ?182 167 177 178 0 0 1 30 181 348 0 167 178 183 0 +.0025000
00000000125 .00800000000000119 .0155 1 0 0 16 167 290 0 ?184 164 180 181 0 0 1 3
0 183 347 0 174 181 185 0 +.002500000000000125 .0143500000000012 .0155 0 -1 -558
580959264532e-30 16 174 281 0 ?186 187 172 183 0 0 1 30 185 346 0 187 183 188 0
 +-.002499999999999875 .0143500000000012 .0155 0 -1 -558580959264532e-30 16 187
 293 0 ?97 189 174 185 0 0 1 30 188 345 0 189 185 190 0 +-.002499999999999875 .0
143500000000012 .0105 0 -1 -558580959264532e-30 16 189 289 0 ?101 191 187 188 0
 0 1 30 190 344 0 191 188 192 0 +.002500000000000125 .0143500000000012 .0105 0 -
1 -558580959264532e-30 16 191 285 0 ?193 194 189 190 0 0 1 30 192 225 0 195 190
 196 0 +.0025 .0143500000000012 -.0015 0 3469446951953615e-31 -1 16 195 164 0 ?9
4 197 198 192 0 0 1 30 196 224 0 197 192 199 0 +.0025 .0143500000000012 -.0015 -
1 0 0 16 197 167 0 ?92 200 195 196 0 0 1 30 199 223 0 200 196 201 0 +-.0025 .014
3500000000012 -.0015 0 -3469446951953615e-31 1 16 200 170 0 ?202 203 197 199 0 0
 1 30 201 222 0 203 199 204 0 +.0025 .0143500000000012 .0035 1 0 0 16 203 173 0
 ?89 205 200 201 0 0 1 30 204 221 0 194 201 206 0 +.0025 .0080000000000012 -.001
5 0 3469446951953615e-31 -1 16 194 148 0 ?207 208 191 204 0 0 1 30 206 220 0 208
 204 209 0 +.0025 .0080000000000012 -.0015 -1 0 0 16 208 152 0 ?210 211 194 206
 0 0 1 30 209 219 0 211 206 212 0 +-.0025 .0080000000000012 -.0015 0 -3469446951
953615e-31 1 16 211 156 0 ?213 198 208 209 0 0 1 30 212 218 0 198 209 214 0 +.00
25 .0080000000000012 .0035 1 0 0 16 198 160 0 ?215 195 211 212 0 0 1 30 214 217
 0 205 212 216 0 +.0025 .0143500000000012 .0035 0 -1 -558580959264532e-30 16 205
 151 0 ?217 218 203 214 0 0 1 30 216 216 0 218 214 219 0 +-.0025 .01435000000000
12 .0035 0 -1 -558580959264532e-30 16 218 163 0 ?79 220 205 216 0 0 1 30 219 215
 0 220 216 221 0 +-.0025 .0143500000000012 -.0015 0 -1 -558580959264532e-30 16 2
20 159 0 ?83 222 218 219 0 0 1 30 221 214 0 222 219 223 0 +.0025 .01435000000000
12 -.0015 0 -1 -558580959264532e-30 16 222 155 0 ?224 225 220 221 0 0 1 30 223 5
 0 226 221 227 0 +.007 .0143500000000012 -.00525 1188166764367676e-31 5703200468
96485e-30 -1 16 226 4 0 ?228 229 230 223 0 0 1 30 227 8 0 229 223 231 0 +.007 .0
143500000000012 -.00525 -1 0 3097720492815725e-31 16 229 7 0 ?74 232 226 227 0 0
 1 30 231 11 0 232 227 233 0 +-.007 .0143500000000012 -.00525 1188166764367676e-
31 -570320046896485e-30 1 16 232 10 0 ?71 234 229 231 0 0 1 30 233 14 0 234 231
 235 0 +.007 .0143500000000012 .03125 1 0 -2478176394252585e-31 16 234 13 0 ?68
 236 232 233 0 0 1 30 235 69 0 225 233 237 0 +.007 .0080000000000012 -.00525 118
8166764367676e-31 570320046896485e-30 -1 16 225 57 0 ?238 239 222 235 0 0 1 30 2
37 68 0 239 235 240 0 +.007 .0080000000000012 -.00525 -1 0 3097720492815725e-31
 16 239 53 0 ?62 241 225 237 0 0 1 30 240 67 0 241 237 242 0 +-.007 .00800000000
00012 -.00525 1188166764367676e-31 -570320046896485e-30 1 16 241 49 0 ?59 230 23
9 240 0 0 1 30 242 66 0 230 240 243 0 +.007 .00800000000000118 .03125 1 0 -24781
76394252585e-31 16 230 45 0 ?55 226 241 242 0 0 1 30 243 90 0 236 242 244 0 +.00
7 .0143500000000012 .03125 0 -1 -558580959264532e-30 16 236 74 0 ?245 246 234 24
3 0 0 1 30 244 91 0 246 243 19 0 +-.007 .0143500000000012 .03125 0 -1 -558580959
264532e-30 16 246 75 0 ?247 23 236 244 0 0 1 30 19 92 0 23 244 7 0 +-.007 .01435
00000000012 -.00525 0 -1 -558580959264532e-30 16 23 76 0 ?248 10 246 19 0 0 1 17
 248 0 249 59 250 60 251 23 0 252 +15 249 80 0 59 253 0 17 59 0 249 254 248 57 2
52 241 0 247 +17 250 0 249 248 254 72 71 232 0 0 -17 251 0 255 76 62 72 248 23 0
 250 -17 252 0 256 65 257 60 59 241 0 0 -15 256 44 0 258 259 260 17 65 0 256 258
 252 63 62 239 0 22 -17 257 0 256 252 258 57 55 230 0 0 -17 258 0 256 257 65 53
 238 225 0 0 -17 55 0 261 262 247 53 257 230 0 245 +15 261 78 0 55 263 0 17 262
 0 261 264 55 52 245 236 0 265 -17 247 0 261 55 264 57 254 246 0 257 +17 245 0 2
66 238 265 53 262 236 0 258 +15 266 84 0 238 17 0 17 238 0 266 267 245 63 258 22
5 0 0 +17 265 0 266 245 267 52 228 226 0 0 -17 267 0 266 265 238 56 22 10 0 0 -1
7 228 0 268 74 68 56 265 226 0 267 +15 268 3 0 228 15 269 17 74 0 268 71 228 72
 76 229 0 251 +17 68 0 268 228 71 52 264 234 0 262 +17 71 0 268 68 74 69 250 232
 0 254 +17 264 0 261 247 262 69 68 234 0 0 -17 254 0 249 250 59 69 247 246 0 264
 -17 76 0 255 22 251 56 74 229 0 228 -15 255 82 0 62 270 0 17 22 0 255 62 76 63
 267 10 0 238 +17 62 0 255 251 22 60 65 239 0 248 +14 255 270 83 271 ?253 17 255
 5 18 -0 0 253 17 21 81 1 271 982 272 270 273 0 0 274 275 14 253 81 274 ?263 270
 249 5 276 -0 0 263 270 21 14 17 85 277 ?270 259 266 5 6 -0 0 270 259 21 50 18 8
8 0 270 276 6 0 +.007 .0143500000000012 -.00525 3097720492815725e-31 -5585809592
64532e-30 1 0 -1 -558580959264532e-30 13 21 29 0 0 0 0 0 0 9 15 14 15 405 278 ?2
59 0 279 5 280 -0 0 259 0 21 81 1 278 985 272 15 281 0 277 282 283 14 259 385 28
2 ?17 15 256 5 284 +0 0 17 15 21 15 279 273 0 285 15 268 50 280 2 0 15 286 284 0
 +1130682941910484e-48 .0143500000000012 810954946650234e-32 -1413353677387894e-
46 -1 -570320046896485e-30 0 570320046896485e-30 -1 50 286 208 0 287 288 280 0 +
.0025 .0143500000000012 -.0015 -1 0 0 0 0 1 50 284 65 0 259 280 289 0 +113068294
1910484e-48 .0080000000000012 456256037517256e-32 -1413353677387894e-46 -1 -5703
20046896485e-30 0 570320046896485e-30 -1 50 289 86 0 263 284 276 0 +.007 .014350
0000000012 .03125 -2478176394252585e-31 558580959264532e-30 -1 0 1 5585809592645
32e-30 14 263 79 290 ?287 253 261 5 289 -0 0 287 253 21 50 276 87 0 253 289 18 0
 +-.007 .0143500000000012 -.00525 1 663687331006732e-46 -1188166764367676e-31 -1
188166764367676e-31 0 -1 81 1 290 987 272 263 291 0 282 292 293 14 287 184 292 ?
294 263 295 5 286 +0 0 294 263 21 81 1 292 988 272 287 296 0 290 297 298 14 294
 188 297 ?299 287 300 5 288 +0 0 299 287 21 15 295 187 0 51 287 0 17 51 0 295 30
1 224 49 207 194 0 217 -17 301 0 295 94 51 66 217 205 0 302 -17 224 0 295 51 94
 84 303 222 0 207 +17 207 0 260 210 215 84 51 194 0 0 +17 217 0 304 305 89 49 30
1 205 0 215 +15 304 199 0 305 306 0 17 305 0 304 48 217 77 215 198 0 213 -17 89
 0 304 217 48 66 307 203 0 301 +17 215 0 260 207 213 49 305 198 0 0 +15 260 108
 0 215 259 308 17 213 0 260 215 210 77 309 211 0 0 +17 210 0 260 213 207 81 86 2
08 0 0 +17 309 0 310 311 79 81 213 211 0 210 -15 310 195 0 309 299 0 17 311 0 31
0 202 309 90 83 220 0 312 -17 79 0 310 309 202 77 48 218 0 305 +17 202 0 310 79
 311 46 312 200 0 307 +17 48 0 304 89 305 46 79 218 0 202 -17 312 0 269 313 307
 90 202 200 0 0 -17 307 0 269 312 302 46 89 203 0 0 -15 269 143 0 302 15 133 17
 302 0 269 307 313 66 94 195 0 0 -17 313 0 269 302 312 80 92 197 0 0 -17 94 0 29
5 224 301 80 302 195 0 303 +17 303 0 300 92 86 80 224 222 0 313 -15 300 191 0 86
 294 0 17 92 0 300 83 303 90 313 197 0 311 +17 86 0 300 303 83 84 210 208 0 224
 -17 83 0 300 86 92 81 311 220 0 309 +14 299 192 314 ?306 294 310 5 315 +0 0 306
 294 21 81 1 314 990 272 299 316 0 297 317 318 14 306 196 317 ?319 299 304 5 320
 +0 0 319 299 21 50 315 210 0 299 320 288 0 +-.0025 .0143500000000012 -.0015 1 0
 0 0 0 -1 50 320 211 0 306 321 315 0 +.0025 .0143500000000012 .0035 0 5585809592
64532e-30 -1 0 1 558580959264532e-30 50 288 209 0 294 315 286 0 +.0025 .01435000
00000012 -.0015 0 -558580959264532e-30 1 0 -1 -558580959264532e-30 50 321 338 0
 319 322 320 0 +.002500000000000125 .0143500000000012 .0105 -1 0 0 0 0 1 14 319
 314 323 ?324 306 325 5 321 +0 0 324 306 21 50 322 339 0 324 326 321 0 +.0025000
00000000125 .0143500000000012 .0105 0 -558580959264532e-30 1 0 -1 -5585809592645
32e-30 14 324 318 327 ?328 319 329 5 322 +0 0 328 319 21 50 326 340 0 328 330 32
2 0 +-.002499999999999875 .0143500000000012 .0105 1 0 0 0 0 -1 14 328 322 331 ?3
32 324 333 5 326 +0 0 332 324 21 50 330 341 0 332 334 326 0 +.002500000000000125
 .0143500000000012 .0155 0 558580959264532e-30 -1 0 1 558580959264532e-30 14 332
 326 335 ?130 328 336 5 330 +0 0 130 328 21 50 334 468 0 130 337 330 0 +.0025000
0000000025 .0143500000000012 .0225 -1 0 0 0 0 1 14 130 444 338 ?140 332 34 5 334
 +0 0 140 332 21 50 337 469 0 140 339 334 0 +.00250000000000025 .014350000000001
2 .0225 0 -558580959264532e-30 1 0 -1 -558580959264532e-30 14 140 448 340 ?341 1
30 139 5 337 +0 0 341 130 21 50 339 470 0 341 342 337 0 +-.00249999999999975 .01
43500000000012 .0225 1 0 0 0 0 -1 14 341 452 343 ?344 140 345 5 339 +0 0 344 140
 21 50 342 471 0 344 0 339 0 +.00250000000000025 .0143500000000012 .0275 0 55858
0959264532e-30 -1 0 1 558580959264532e-30 14 344 456 346 ?0 341 26 5 342 +0 0 0
 341 21 81 1 346 999 272 344 347 0 343 0 348 15 26 459 0 28 344 0 17 28 0 26 24
 39 113 160 137 0 158 -17 39 0 26 28 27 25 35 132 0 160 +17 160 0 349 37 158 25
 28 137 0 0 +17 158 0 349 160 142 113 350 156 0 0 +15 349 368 0 160 259 0 17 142
 0 349 158 37 116 121 143 0 0 +17 350 0 345 141 29 116 158 156 0 142 -15 345 455
 0 350 341 0 17 141 0 345 31 350 123 118 145 0 147 -17 29 0 345 350 31 113 24 30
 0 28 +17 31 0 345 29 141 11 147 148 0 134 +17 134 0 133 147 127 11 27 150 0 0 -
17 27 0 26 39 24 105 134 150 0 35 +17 118 0 139 121 125 116 141 145 0 350 +17 37
 0 349 142 160 119 32 38 0 0 +80 255 1 272 351 352 9000 1 1 1 1 1 1 1 1 0 FFFFTF
TFFFFFFF1 81 1 347 943 353 344 0 346 354 0 355 81 1 343 998 272 341 354 0 340 34
6 356 82 255 1 348 1325145651 81 1 354 942 353 341 0 343 357 347 358 81 1 340 99
7 272 140 357 0 338 343 359 82 1 356 1325407795 81 1 357 941 353 140 0 340 360 3
54 361 81 1 338 996 272 130 360 0 335 340 362 82 1 359 1325669939 81 1 360 940 3
53 130 0 338 363 357 364 81 1 335 995 272 332 363 0 331 338 365 82 1 362 1325932
083 81 1 363 939 353 332 0 335 366 360 367 81 1 331 994 272 328 366 0 327 335 36
8 82 1 365 1313480243 81 1 366 938 353 328 0 331 369 363 370 81 1 327 993 272 32
4 369 0 323 331 371 82 1 368 1313742387 81 1 369 937 353 324 0 327 372 366 373 8
1 1 323 992 272 319 372 0 317 327 374 82 1 371 1314004531 81 1 372 936 353 319 0
 323 375 369 376 81 1 317 991 272 306 375 0 314 323 377 82 1 374 1314266675 81 1
 375 935 353 306 0 317 316 372 378 82 1 377 1301814835 80 1 353 0 379 8001 0 0 0
 0 3 5 0 0 0 FFFFTFTFFFFFFF2 81 1 316 934 353 299 0 314 380 375 381 83 255 3 378
 .501960784313726 .501960784313726 .501960784313726 81 1 380 933 353 294 0 297 2
96 316 382 83 3 381 .501960784313726 .501960784313726 .501960784313726 81 1 297
 989 272 294 380 0 292 314 383 81 1 296 932 353 287 0 292 291 380 384 83 3 382 .
501960784313726 .501960784313726 .501960784313726 81 1 291 931 353 263 0 290 385
 296 386 83 3 384 .501960784313726 .501960784313726 .501960784313726 81 1 385 93
0 353 253 0 274 273 291 387 83 3 386 .501960784313726 .501960784313726 .50196078
4313726 81 1 274 983 272 253 385 0 271 277 388 81 1 273 929 353 270 0 271 389 38
5 390 83 3 387 .501960784313726 .501960784313726 .501960784313726 81 1 389 928 3
53 17 0 277 391 273 392 83 3 390 .501960784313726 .501960784313726 .501960784313
726 81 1 277 984 272 17 389 0 274 278 393 81 1 391 927 353 259 0 282 281 389 394
 83 3 392 .501960784313726 .501960784313726 .501960784313726 81 1 282 986 272 25
9 391 0 278 290 395 81 1 281 926 353 15 0 278 0 391 396 83 3 394 .50196078431372
6 .501960784313726 .501960784313726 83 3 396 .501960784313726 .501960784313726 .
501960784313726 82 1 395 1338318387 82 1 393 1290870323 82 1 388 1290346035 82 1
 383 1302339123 79 255 15 379 SDL/TYSA_COLOUR83 3 376 .501960784313726 .50196078
4313726 .501960784313726 83 3 373 .501960784313726 .501960784313726 .50196078431
3726 83 3 370 .501960784313726 .501960784313726 .501960784313726 83 3 367 .50196
0784313726 .501960784313726 .501960784313726 83 3 364 .501960784313726 .50196078
4313726 .501960784313726 83 3 361 .501960784313726 .501960784313726 .50196078431
3726 83 3 358 .501960784313726 .501960784313726 .501960784313726 83 3 355 .50196
0784313726 .501960784313726 .501960784313726 79 14 352 SWEntUnchanged15 336 329
 0 397 332 0 17 397 0 336 40 186 95 184 167 0 182 -17 40 0 336 107 397 33 97 187
 0 171 -17 186 0 336 397 107 41 398 174 0 184 +17 184 0 308 176 182 41 397 167 0
 0 +17 182 0 308 184 179 95 399 180 0 0 +15 308 238 0 184 259 349 17 179 0 308 1
82 176 99 104 177 0 0 +17 399 0 333 400 97 99 182 180 0 179 -15 333 325 0 399 32
8 0 17 400 0 333 171 399 108 101 189 0 401 -17 97 0 333 399 171 95 40 187 0 397
 +17 171 0 333 97 400 33 401 169 0 402 +17 401 0 279 403 402 108 171 169 0 0 -17
 402 0 279 401 285 33 107 172 0 0 -17 285 0 279 402 403 87 112 164 0 0 -17 107 0
 336 186 40 87 402 172 0 398 +17 398 0 325 112 45 87 186 174 0 285 -15 325 317 0
 45 319 0 17 112 0 325 193 398 98 285 164 0 404 +17 45 0 325 398 193 41 176 144
 0 186 -17 193 0 325 45 112 102 404 191 0 176 +17 176 0 308 179 184 102 45 144 0
 0 +17 404 0 329 110 104 98 193 191 0 403 -15 329 321 0 104 324 0 17 110 0 329 1
01 404 108 403 166 0 400 +17 104 0 329 404 101 102 179 177 0 193 -17 403 0 279 2
85 401 98 110 166 0 0 -17 101 0 329 104 110 99 400 189 0 399 +82 1 318 130207697
9 82 1 298 1302601267 82 1 293 1290083891 82 1 283 1340153395 82 1 275 129060817
9 19 16 95 0 1 0 9 5 S0 74 4 CI16 index_map_offset0 0 1 dCCZ20 14 3 0 0 346 2 34
7 0 0 0 0 0 0 0 0 0 0 0 0 0 0 0 0 0 80 2 12 405 406 8004 0 0 0 0 3 5 0 0 0 FFTFF
FFFFFFFFF2 3 83 1 13 7999.49471763306 79 16 406 SDL/TYSA_DENSITY1 0 
