solid OpenSCAD_Model
  facet normal -1 0 0
    outer loop
      vertex -125 -85 -65
      vertex -125 85 0
      vertex -125 85 -65
    endloop
  endfacet
  facet normal -1 -0 0
    outer loop
      vertex -125 85 0
      vertex -125 -85 -65
      vertex -125 -85 0
    endloop
  endfacet
  facet normal 0 0 1
    outer loop
      vertex 125 85 0
      vertex 100 60 0
      vertex 125 -85 0
    endloop
  endfacet
  facet normal 0 0 1
    outer loop
      vertex 125 85 0
      vertex -100 60 0
      vertex 100 60 0
    endloop
  endfacet
  facet normal 0 0 1
    outer loop
      vertex -100 60 0
      vertex -125 85 0
      vertex -100 -60 0
    endloop
  endfacet
  facet normal -0 0 1
    outer loop
      vertex -125 85 0
      vertex -100 60 0
      vertex 125 85 0
    endloop
  endfacet
  facet normal -0 0 1
    outer loop
      vertex 100 -60 0
      vertex 125 -85 0
      vertex 100 60 0
    endloop
  endfacet
  facet normal -0 0 1
    outer loop
      vertex -100 -60 0
      vertex 125 -85 0
      vertex 100 -60 0
    endloop
  endfacet
  facet normal 0 0 1
    outer loop
      vertex -100 -60 0
      vertex -125 -85 0
      vertex 125 -85 0
    endloop
  endfacet
  facet normal 0 0 1
    outer loop
      vertex -125 -85 0
      vertex -100 -60 0
      vertex -125 85 0
    endloop
  endfacet
  facet normal 1 -0 0
    outer loop
      vertex 125 -85 0
      vertex 125 85 -65
      vertex 125 85 0
    endloop
  endfacet
  facet normal 1 0 0
    outer loop
      vertex 125 85 -65
      vertex 125 -85 0
      vertex 125 -85 -65
    endloop
  endfacet
  facet normal 0 1 -0
    outer loop
      vertex 125 85 -65
      vertex -125 85 0
      vertex 125 85 0
    endloop
  endfacet
  facet normal 0 1 0
    outer loop
      vertex -125 85 0
      vertex 125 85 -65
      vertex -125 85 -65
    endloop
  endfacet
  facet normal 0 0 -1
    outer loop
      vertex -125 -85 -65
      vertex 125 85 -65
      vertex 125 -85 -65
    endloop
  endfacet
  facet normal -0 0 -1
    outer loop
      vertex 125 85 -65
      vertex -125 -85 -65
      vertex -125 85 -65
    endloop
  endfacet
  facet normal 0 -1 0
    outer loop
      vertex -125 -85 -65
      vertex 125 -85 0
      vertex -125 -85 0
    endloop
  endfacet
  facet normal 0 -1 -0
    outer loop
      vertex 125 -85 0
      vertex -125 -85 -65
      vertex 125 -85 -65
    endloop
  endfacet
  facet normal 1 -0 0
    outer loop
      vertex -100 -60 0
      vertex -100 60 -45
      vertex -100 60 0
    endloop
  endfacet
  facet normal 1 0 0
    outer loop
      vertex -100 60 -45
      vertex -100 -60 0
      vertex -100 -60 -45
    endloop
  endfacet
  facet normal -1 0 0
    outer loop
      vertex 100 -60 -45
      vertex 100 60 0
      vertex 100 60 -45
    endloop
  endfacet
  facet normal -1 -0 0
    outer loop
      vertex 100 60 0
      vertex 100 -60 -45
      vertex 100 -60 0
    endloop
  endfacet
  facet normal 0 0 1
    outer loop
      vertex 100 60 -45
      vertex 25 8 -45
      vertex 100 -60 -45
    endloop
  endfacet
  facet normal 0 0 1
    outer loop
      vertex 100 60 -45
      vertex 12.5 22.0729 -45
      vertex 25 8 -45
    endloop
  endfacet
  facet normal 0 0 1
    outer loop
      vertex 100 60 -45
      vertex -12.5 22.0729 -45
      vertex 12.5 22.0729 -45
    endloop
  endfacet
  facet normal 0 0 1
    outer loop
      vertex -12.5 22.0729 -45
      vertex -100 60 -45
      vertex -25 8 -45
    endloop
  endfacet
  facet normal -0 0 1
    outer loop
      vertex -100 60 -45
      vertex -12.5 22.0729 -45
      vertex 100 60 -45
    endloop
  endfacet
  facet normal -0 0 1
    outer loop
      vertex 12.5 -6.07291 -45
      vertex 100 -60 -45
      vertex 25 8 -45
    endloop
  endfacet
  facet normal -0 0 1
    outer loop
      vertex -12.5 -6.07291 -45
      vertex 100 -60 -45
      vertex 12.5 -6.07291 -45
    endloop
  endfacet
  facet normal 0 0 1
    outer loop
      vertex -100 -60 -45
      vertex -25 8 -45
      vertex -100 60 -45
    endloop
  endfacet
  facet normal 0 0 1
    outer loop
      vertex -12.5 -6.07291 -45
      vertex -100 -60 -45
      vertex 100 -60 -45
    endloop
  endfacet
  facet normal 0 0 1
    outer loop
      vertex -25 8 -45
      vertex -100 -60 -45
      vertex -12.5 -6.07291 -45
    endloop
  endfacet
  facet normal 0 1 -0
    outer loop
      vertex 100 -60 -45
      vertex -100 -60 0
      vertex 100 -60 0
    endloop
  endfacet
  facet normal 0 1 0
    outer loop
      vertex -100 -60 0
      vertex 100 -60 -45
      vertex -100 -60 -45
    endloop
  endfacet
  facet normal 0 -1 0
    outer loop
      vertex -100 60 -45
      vertex 100 60 0
      vertex -100 60 0
    endloop
  endfacet
  facet normal 0 -1 -0
    outer loop
      vertex 100 60 0
      vertex -100 60 -45
      vertex 100 60 -45
    endloop
  endfacet
  facet normal 0.747653 0.664089 0
    outer loop
      vertex 25 8 136
      vertex 12.5 22.0729 19.5
      vertex 12.5 22.0729 136
    endloop
  endfacet
  facet normal 0.747653 0.664089 -0
    outer loop
      vertex 25 8 -45
      vertex 12.5 22.0729 19.5
      vertex 25 8 136
    endloop
  endfacet
  facet normal 0.747653 0.664089 0
    outer loop
      vertex 12.5 22.0729 19.5
      vertex 25 8 -45
      vertex 12.5 22.0729 4.5
    endloop
  endfacet
  facet normal 0.747653 0.664089 0
    outer loop
      vertex 12.5 22.0729 4.5
      vertex 25 8 -45
      vertex 12.5 22.0729 -45
    endloop
  endfacet
  facet normal -0.747653 0.664089 0
    outer loop
      vertex -12.5 22.0729 4.5
      vertex -25 8 -45
      vertex -12.5 22.0729 19.5
    endloop
  endfacet
  facet normal -0.747653 0.664089 1.11845e-008
    outer loop
      vertex -25 8 -45
      vertex -12.5 22.0729 4.5
      vertex -12.5 22.0729 -45
    endloop
  endfacet
  facet normal -0.747653 0.664089 0
    outer loop
      vertex -25 8 136
      vertex -12.5 22.0729 19.5
      vertex -25 8 -45
    endloop
  endfacet
  facet normal -0.747653 0.664089 -4.7522e-009
    outer loop
      vertex -12.5 22.0729 19.5
      vertex -25 8 136
      vertex -12.5 22.0729 136
    endloop
  endfacet
  facet normal 0 1 -0
    outer loop
      vertex 12.5 22.0729 19.5
      vertex -12.5 22.0729 136
      vertex 12.5 22.0729 136
    endloop
  endfacet
  facet normal 0 1 0
    outer loop
      vertex -12.5 22.0729 136
      vertex 12.5 22.0729 19.5
      vertex -12.5 22.0729 19.5
    endloop
  endfacet
  facet normal 0 1 -0
    outer loop
      vertex 12.5 22.0729 -45
      vertex -12.5 22.0729 4.5
      vertex 12.5 22.0729 4.5
    endloop
  endfacet
  facet normal 0 1 0
    outer loop
      vertex -12.5 22.0729 4.5
      vertex 12.5 22.0729 -45
      vertex -12.5 22.0729 -45
    endloop
  endfacet
  facet normal 0 0 1
    outer loop
      vertex 12.5 22.0729 136
      vertex 12.5 -6.07291 136
      vertex 25 8 136
    endloop
  endfacet
  facet normal -0 0 1
    outer loop
      vertex -12.5 22.0729 136
      vertex 12.5 -6.07291 136
      vertex 12.5 22.0729 136
    endloop
  endfacet
  facet normal 0 0 1
    outer loop
      vertex -12.5 22.0729 136
      vertex -12.5 -6.07291 136
      vertex 12.5 -6.07291 136
    endloop
  endfacet
  facet normal 0 -0 1
    outer loop
      vertex -12.5 -6.07291 136
      vertex -12.5 22.0729 136
      vertex -25 8 136
    endloop
  endfacet
  facet normal 0.747653 -0.664089 0
    outer loop
      vertex 12.5 -6.07291 136
      vertex 25 8 -45
      vertex 25 8 136
    endloop
  endfacet
  facet normal 0.747653 -0.664089 0
    outer loop
      vertex 25 8 -45
      vertex 12.5 -6.07291 136
      vertex 12.5 -6.07291 -45
    endloop
  endfacet
  facet normal 0 -1 0
    outer loop
      vertex -12.5 -6.07291 136
      vertex -8 -6.07291 35.4867
      vertex 12.5 -6.07291 136
    endloop
  endfacet
  facet normal 0 -1 0
    outer loop
      vertex -12.5 -6.07291 -45
      vertex -8 -6.07291 35.4867
      vertex -12.5 -6.07291 136
    endloop
  endfacet
  facet normal 0 -1 -0
    outer loop
      vertex -8 -6.07291 13
      vertex -12.5 -6.07291 -45
      vertex 8 -6.07291 13
    endloop
  endfacet
  facet normal 0 -1 -0
    outer loop
      vertex -8 -6.07291 35.4867
      vertex -12.5 -6.07291 -45
      vertex -8 -6.07291 13
    endloop
  endfacet
  facet normal 0 -1 0
    outer loop
      vertex 8 -6.07291 35.4867
      vertex 12.5 -6.07291 136
      vertex -8 -6.07291 35.4867
    endloop
  endfacet
  facet normal 0 -1 0
    outer loop
      vertex 12.5 -6.07291 -45
      vertex 8 -6.07291 35.4867
      vertex 8 -6.07291 13
    endloop
  endfacet
  facet normal 0 -1 0
    outer loop
      vertex 8 -6.07291 35.4867
      vertex 12.5 -6.07291 -45
      vertex 12.5 -6.07291 136
    endloop
  endfacet
  facet normal 0 -1 0
    outer loop
      vertex 12.5 -6.07291 -45
      vertex 8 -6.07291 13
      vertex -12.5 -6.07291 -45
    endloop
  endfacet
  facet normal -0.747653 -0.664089 0
    outer loop
      vertex -12.5 -6.07291 -45
      vertex -25 8 136
      vertex -25 8 -45
    endloop
  endfacet
  facet normal -0.747653 -0.664089 0
    outer loop
      vertex -25 8 136
      vertex -12.5 -6.07291 -45
      vertex -12.5 -6.07291 136
    endloop
  endfacet
  facet normal -1 0 0
    outer loop
      vertex -12.5 22.0729 4.5
      vertex -12.5 25 19.5
      vertex -12.5 25 4.5
    endloop
  endfacet
  facet normal -1 -0 0
    outer loop
      vertex -12.5 25 19.5
      vertex -12.5 22.0729 4.5
      vertex -12.5 22.0729 19.5
    endloop
  endfacet
  facet normal 0 0 1
    outer loop
      vertex 12.5 25 19.5
      vertex -12.5 22.0729 19.5
      vertex 12.5 22.0729 19.5
    endloop
  endfacet
  facet normal -0 0 1
    outer loop
      vertex -12.5 25 19.5
      vertex -12.5 22.0729 19.5
      vertex 12.5 25 19.5
    endloop
  endfacet
  facet normal 1 -0 0
    outer loop
      vertex 12.5 22.0729 19.5
      vertex 12.5 25 4.5
      vertex 12.5 25 19.5
    endloop
  endfacet
  facet normal 1 0 0
    outer loop
      vertex 12.5 25 4.5
      vertex 12.5 22.0729 19.5
      vertex 12.5 22.0729 4.5
    endloop
  endfacet
  facet normal 0 1 -0
    outer loop
      vertex 12.5 25 4.5
      vertex -12.5 25 19.5
      vertex 12.5 25 19.5
    endloop
  endfacet
  facet normal 0 1 0
    outer loop
      vertex -12.5 25 19.5
      vertex 12.5 25 4.5
      vertex -12.5 25 4.5
    endloop
  endfacet
  facet normal 0 0 -1
    outer loop
      vertex -12.5 22.0729 4.5
      vertex 12.5 25 4.5
      vertex 12.5 22.0729 4.5
    endloop
  endfacet
  facet normal 0 0 -1
    outer loop
      vertex -12.5 22.0729 4.5
      vertex -12.5 25 4.5
      vertex 12.5 25 4.5
    endloop
  endfacet
  facet normal 0 0 -1
    outer loop
      vertex -8 -24.2487 13
      vertex 8 -6.07291 13
      vertex 8 -24.2487 13
    endloop
  endfacet
  facet normal -0 0 -1
    outer loop
      vertex 8 -6.07291 13
      vertex -8 -24.2487 13
      vertex -8 -6.07291 13
    endloop
  endfacet
  facet normal -1 0 -2.12053e-008
    outer loop
      vertex -8 -24.2487 13
      vertex -8 -6.07291 35.4867
      vertex -8 -6.07291 13
    endloop
  endfacet
  facet normal 0 -0.777714 0.628619
    outer loop
      vertex -8 -24.2487 13
      vertex 8 -6.07291 35.4867
      vertex -8 -6.07291 35.4867
    endloop
  endfacet
  facet normal 0 -0.777714 0.628619
    outer loop
      vertex 8 -6.07291 35.4867
      vertex -8 -24.2487 13
      vertex 8 -24.2487 13
    endloop
  endfacet
  facet normal 1 0 2.12053e-008
    outer loop
      vertex 8 -6.07291 13
      vertex 8 -6.07291 35.4867
      vertex 8 -24.2487 13
    endloop
  endfacet
endsolid OpenSCAD_Model
