  0
SECTION
  2
HEADER
  9
$ACADVER
  1
AC1014
  9
$ACADMAINTVER
 70
     9
  9
$DWGCODEPAGE
  3
ANSI_1252
  9
$INSBASE
 10
0.0
 20
0.0
 30
0.0
  9
$EXTMIN
 10
1.000000000000000E+20
 20
1.000000000000000E+20
 30
1.000000000000000E+20
  9
$EXTMAX
 10
-1.000000000000000E+20
 20
-1.000000000000000E+20
 30
-1.000000000000000E+20
  9
$LIMMIN
 10
19.86122774
 20
17.59500926
  9
$LIMMAX
 10
830.5471857399999
 20
545.71201246
  9
$ORTHOMODE
 70
     0
  9
$REGENMODE
 70
     1
  9
$FILLMODE
 70
     1
  9
$QTEXTMODE
 70
     0
  9
$MIRRTEXT
 70
     1
  9
$DRAGMODE
 70
     2
  9
$LTSCALE
 40
1.0
  9
$OSMODE
 70
    37
  9
$ATTMODE
 70
     1
  9
$TEXTSIZE
 40
2.5
  9
$TRACEWID
 40
1.0
  9
$TEXTSTYLE
  7
STANDARD
  9
$CLAYER
  8
0
  9
$CELTYPE
  6
BYLAYER
  9
$CECOLOR
 62
   256
  9
$CELTSCALE
 40
1.0
  9
$DELOBJ
 70
     1
  9
$DISPSILH
 70
     0
  9
$DIMSCALE
 40
1.0
  9
$DIMASZ
 40
2.5
  9
$DIMEXO
 40
0.625
  9
$DIMDLI
 40
3.75
  9
$DIMRND
 40
0.0
  9
$DIMDLE
 40
0.0
  9
$DIMEXE
 40
1.25
  9
$DIMTP
 40
0.0
  9
$DIMTM
 40
0.0
  9
$DIMTXT
 40
2.5
  9
$DIMCEN
 40
2.5
  9
$DIMTSZ
 40
0.0
  9
$DIMTOL
 70
     0
  9
$DIMLIM
 70
     0
  9
$DIMTIH
 70
     0
  9
$DIMTOH
 70
     0
  9
$DIMSE1
 70
     0
  9
$DIMSE2
 70
     0
  9
$DIMTAD
 70
     1
  9
$DIMZIN
 70
     8
  9
$DIMBLK
  1

  9
$DIMASO
 70
     1
  9
$DIMSHO
 70
     1
  9
$DIMPOST
  1

  9
$DIMAPOST
  1

  9
$DIMALT
 70
     0
  9
$DIMALTD
 70
     3
  9
$DIMALTF
 40
0.03937007874016
  9
$DIMLFAC
 40
1.0
  9
$DIMTOFL
 70
     1
  9
$DIMTVP
 40
0.0
  9
$DIMTIX
 70
     0
  9
$DIMSOXD
 70
     0
  9
$DIMSAH
 70
     0
  9
$DIMBLK1
  1

  9
$DIMBLK2
  1

  9
$DIMSTYLE
  2
ISO-25
  9
$DIMCLRD
 70
     0
  9
$DIMCLRE
 70
     0
  9
$DIMCLRT
 70
     0
  9
$DIMTFAC
 40
1.0
  9
$DIMGAP
 40
0.625
  9
$DIMJUST
 70
     0
  9
$DIMSD1
 70
     0
  9
$DIMSD2
 70
     0
  9
$DIMTOLJ
 70
     0
  9
$DIMTZIN
 70
     8
  9
$DIMALTZ
 70
     0
  9
$DIMALTTZ
 70
     0
  9
$DIMFIT
 70
     3
  9
$DIMUPT
 70
     0
  9
$DIMUNIT
 70
     2
  9
$DIMDEC
 70
     2
  9
$DIMTDEC
 70
     2
  9
$DIMALTU
 70
     2
  9
$DIMALTTD
 70
     3
  9
$DIMTXSTY
  7
STANDARD
  9
$DIMAUNIT
 70
     0
  9
$LUNITS
 70
     2
  9
$LUPREC
 70
     4
  9
$SKETCHINC
 40
1.0
  9
$FILLETRAD
 40
10.0
  9
$AUNITS
 70
     0
  9
$AUPREC
 70
     0
  9
$MENU
  1
.
  9
$ELEVATION
 40
0.0
  9
$PELEVATION
 40
0.0
  9
$THICKNESS
 40
0.0
  9
$LIMCHECK
 70
     0
  9
$CHAMFERA
 40
0.0
  9
$CHAMFERB
 40
0.0
  9
$CHAMFERC
 40
0.0
  9
$CHAMFERD
 40
0.0
  9
$SKPOLY
 70
     0
  9
$TDCREATE
 40
2457591.858107789
  9
$TDUPDATE
 40
2457591.858108298
  9
$TDINDWG
 40
0.0000000116
  9
$TDUSRTIMER
 40
0.0000000116
  9
$USRTIMER
 70
     1
  9
$ANGBASE
 50
0.0
  9
$ANGDIR
 70
     0
  9
$PDMODE
 70
     0
  9
$PDSIZE
 40
0.0
  9
$PLINEWID
 40
0.0
  9
$COORDS
 70
     1
  9
$SPLFRAME
 70
     0
  9
$SPLINETYPE
 70
     6
  9
$SPLINESEGS
 70
     8
  9
$ATTDIA
 70
     0
  9
$ATTREQ
 70
     1
  9
$HANDLING
 70
     1
  9
$HANDSEED
  5
2F8
  9
$SURFTAB1
 70
     6
  9
$SURFTAB2
 70
     6
  9
$SURFTYPE
 70
     6
  9
$SURFU
 70
     6
  9
$SURFV
 70
     6
  9
$UCSNAME
  2

  9
$UCSORG
 10
0.0
 20
0.0
 30
0.0
  9
$UCSXDIR
 10
1.0
 20
0.0
 30
0.0
  9
$UCSYDIR
 10
0.0
 20
1.0
 30
0.0
  9
$PUCSNAME
  2

  9
$PUCSORG
 10
0.0
 20
0.0
 30
0.0
  9
$PUCSXDIR
 10
1.0
 20
0.0
 30
0.0
  9
$PUCSYDIR
 10
0.0
 20
1.0
 30
0.0
  9
$USERI1
 70
     0
  9
$USERI2
 70
     0
  9
$USERI3
 70
     0
  9
$USERI4
 70
     0
  9
$USERI5
 70
     0
  9
$USERR1
 40
0.0
  9
$USERR2
 40
0.0
  9
$USERR3
 40
0.0
  9
$USERR4
 40
0.0
  9
$USERR5
 40
0.0
  9
$WORLDVIEW
 70
     1
  9
$SHADEDGE
 70
     3
  9
$SHADEDIF
 70
    70
  9
$TILEMODE
 70
     1
  9
$MAXACTVP
 70
    64
  9
$PINSBASE
 10
0.0
 20
0.0
 30
0.0
  9
$PLIMCHECK
 70
     0
  9
$PEXTMIN
 10
1.000000000000000E+20
 20
1.000000000000000E+20
 30
1.000000000000000E+20
  9
$PEXTMAX
 10
-1.000000000000000E+20
 20
-1.000000000000000E+20
 30
-1.000000000000000E+20
  9
$PLIMMIN
 10
0.0
 20
0.0
  9
$PLIMMAX
 10
420.0
 20
297.0
  9
$UNITMODE
 70
     0
  9
$VISRETAIN
 70
     1
  9
$PLINEGEN
 70
     0
  9
$PSLTSCALE
 70
     1
  9
$TREEDEPTH
 70
  3020
  9
$PICKSTYLE
 70
     1
  9
$CMLSTYLE
  2
STANDARD
  9
$CMLJUST
 70
     0
  9
$CMLSCALE
 40
20.0
  9
$PROXYGRAPHICS
 70
     1
  9
$MEASUREMENT
 70
     1
  0
ENDSEC
  0
SECTION
  2
CLASSES
  0
CLASS
  1
ACDBDICTIONARYWDFLT
  2
AcDbDictionaryWithDefault
  3
ObjectDBX Classes
 90
        0
280
     0
281
     0
  0
CLASS
  1
VISUALSTYLE
  2
AcDbVisualStyle
  3
ObjectDBX Classes
 90
     4095
280
     0
281
     0
  0
CLASS
  1
MATERIAL
  2
AcDbMaterial
  3
ObjectDBX Classes
 90
     1153
280
     0
281
     0
  0
CLASS
  1
SCALE
  2
AcDbScale
  3
ObjectDBX Classes
 90
     1153
280
     0
281
     0
  0
CLASS
  1
SUN
  2
AcDbSun
  3
SCENEOE
 90
     1153
280
     0
281
     0
  0
CLASS
  1
DICTIONARYVAR
  2
AcDbDictionaryVar
  3
ObjectDBX Classes
 90
        0
280
     0
281
     0
  0
CLASS
  1
XRECORD
  2
AcDbXrecord
  3
ObjectDBX Classes
 90
        0
280
     0
281
     0
  0
CLASS
  1
LWPOLYLINE
  2
AcDbPolyline
  3
ObjectDBX Classes
 90
        0
280
     0
281
     1
  0
CLASS
  1
HATCH
  2
AcDbHatch
  3
ObjectDBX Classes
 90
        0
280
     0
281
     1
  0
CLASS
  1
ACDBPLACEHOLDER
  2
AcDbPlaceHolder
  3
ObjectDBX Classes
 90
        0
280
     0
281
     0
  0
CLASS
  1
LAYOUT
  2
AcDbLayout
  3
ObjectDBX Classes
 90
        0
280
     0
281
     0
  0
ENDSEC
  0
SECTION
  2
TABLES
  0
TABLE
  2
VPORT
  5
8
102
{ACAD_XDICTIONARY
360
2EE
102
}
330
0
100
AcDbSymbolTable
 70
     1
  0
VPORT
  5
29
330
8
100
AcDbSymbolTableRecord
100
AcDbViewportTableRecord
  2
*ACTIVE
 70
     0
 10
0.0
 20
0.0
 11
1.0
 21
1.0
 12
344.1869158878504
 22
148.5
 13
0.0
 23
0.0
 14
10.0
 24
10.0
 15
10.0
 25
10.0
 16
0.0
 26
0.0
 36
1.0
 17
0.0
 27
0.0
 37
0.0
 40
297.0
 41
1.972972972850329
 42
50.0
 43
0.0
 44
0.0
 50
0.0
 51
0.0
 71
     0
 72
   100
 73
     1
 74
     3
 75
     0
 76
     0
 77
     0
 78
     0
  0
ENDTAB
  0
TABLE
  2
LTYPE
  5
5
330
0
100
AcDbSymbolTable
 70
     1
  0
LTYPE
  5
14
330
5
100
AcDbSymbolTableRecord
100
AcDbLinetypeTableRecord
  2
BYBLOCK
 70
     0
  3

 72
    65
 73
     0
 40
0.0
  0
LTYPE
  5
15
330
5
100
AcDbSymbolTableRecord
100
AcDbLinetypeTableRecord
  2
BYLAYER
 70
     0
  3

 72
    65
 73
     0
 40
0.0
  0
LTYPE
  5
16
330
5
100
AcDbSymbolTableRecord
100
AcDbLinetypeTableRecord
  2
CONTINUOUS
 70
     0
  3
Solid line
 72
    65
 73
     0
 40
0.0
  0
ENDTAB
  0
TABLE
  2
LAYER
  5
2
330
0
100
AcDbSymbolTable
 70
     5
  0
LAYER
  5
10
330
2
100
AcDbSymbolTableRecord
100
AcDbLayerTableRecord
  2
0
 70
     0
 62
     7
  6
CONTINUOUS
  0
LAYER
  5
6A
330
2
100
AcDbSymbolTableRecord
100
AcDbLayerTableRecord
  2
MECHANICAL1
 70
     0
 62
     6
  6
CONTINUOUS
  0
LAYER
  5
6B
330
2
100
AcDbSymbolTableRecord
100
AcDbLayerTableRecord
  2
TOPOVERLAY
 70
     0
 62
     2
  6
CONTINUOUS
  0
LAYER
  5
6C
330
2
100
AcDbSymbolTableRecord
100
AcDbLayerTableRecord
  2
TOPPASTE
 70
     0
 62
     8
  6
CONTINUOUS
  0
LAYER
  5
6D
330
2
100
AcDbSymbolTableRecord
100
AcDbLayerTableRecord
  2
PADHOLELAYER
 70
     0
 62
   156
  6
CONTINUOUS
  0
ENDTAB
  0
TABLE
  2
STYLE
  5
3
330
0
100
AcDbSymbolTable
 70
     1
  0
STYLE
  5
11
330
3
100
AcDbSymbolTableRecord
100
AcDbTextStyleTableRecord
  2
STANDARD
 70
     0
 40
0.0
 41
1.0
 50
0.0
 71
     0
 42
2.5
  3
txt
  4

  0
ENDTAB
  0
TABLE
  2
VIEW
  5
6
330
0
100
AcDbSymbolTable
 70
     0
  0
ENDTAB
  0
TABLE
  2
UCS
  5
7
330
0
100
AcDbSymbolTable
 70
     0
  0
ENDTAB
  0
TABLE
  2
APPID
  5
9
330
0
100
AcDbSymbolTable
 70
     1
  0
APPID
  5
12
330
9
100
AcDbSymbolTableRecord
100
AcDbRegAppTableRecord
  2
ACAD
 70
     0
  0
ENDTAB
  0
TABLE
  2
DIMSTYLE
  5
A
330
0
100
AcDbSymbolTable
 70
     1
  0
DIMSTYLE
105
27
330
A
100
AcDbSymbolTableRecord
100
AcDbDimStyleTableRecord
  2
ISO-25
 70
     0
  3

  4

  5

  6

  7

 40
1.0
 41
2.5
 42
0.625
 43
3.75
 44
1.25
 45
0.0
 46
0.0
 47
0.0
 48
0.0
140
2.5
141
2.5
142
0.0
143
0.03937007874016
144
1.0
145
0.0
146
1.0
147
0.625
 71
     0
 72
     0
 73
     0
 74
     0
 75
     0
 76
     0
 77
     1
 78
     8
170
     0
171
     3
172
     1
173
     0
174
     0
175
     0
176
     0
177
     0
178
     0
270
     2
271
     2
272
     2
273
     2
274
     3
340
11
275
     0
280
     0
281
     0
282
     0
283
     0
284
     8
285
     0
286
     0
287
     3
288
     0
  0
ENDTAB
  0
TABLE
  2
BLOCK_RECORD
  5
1
330
0
100
AcDbSymbolTable
 70
     1
  0
BLOCK_RECORD
  5
1F
330
1
100
AcDbSymbolTableRecord
100
AcDbBlockTableRecord
  2
*MODEL_SPACE
  0
BLOCK_RECORD
  5
1B
330
1
100
AcDbSymbolTableRecord
100
AcDbBlockTableRecord
  2
*PAPER_SPACE
  0
ENDTAB
  0
ENDSEC
  0
SECTION
  2
BLOCKS
  0
BLOCK
  5
20
330
1F
100
AcDbEntity
  8
0
100
AcDbBlockBegin
  2
*MODEL_SPACE
 70
     0
 10
0.0
 20
0.0
 30
0.0
  3
*MODEL_SPACE
  1

  0
ENDBLK
  5
21
330
1F
100
AcDbEntity
  8
0
100
AcDbBlockEnd
  0
BLOCK
  5
1C
330
1B
100
AcDbEntity
 67
     1
  8
0
100
AcDbBlockBegin
  2
*PAPER_SPACE
 70
     0
 10
0.0
 20
0.0
 30
0.0
  3
*PAPER_SPACE
  1

  0
ENDBLK
  5
1D
330
1B
100
AcDbEntity
 67
     1
  8
0
100
AcDbBlockEnd
  0
ENDSEC
  0
SECTION
  2
ENTITIES
  0
LWPOLYLINE
  5
6E
330
1F
100
AcDbEntity
  8
TOPOVERLAY
100
AcDbPolyline
 90
        2
 70
     0
 43
1.79999894
 10
433.98439492
 20
168.28042544
 10
436.68439714
 20
168.28042544
  0
LWPOLYLINE
  5
6F
330
1F
100
AcDbEntity
  8
TOPOVERLAY
100
AcDbPolyline
 90
        2
 70
     1
 43
0.8999982
 10
433.53439582
 20
168.28042544
 42
1.0
 10
434.43439402
 20
168.28042544
 42
1.0
  0
LWPOLYLINE
  5
70
330
1F
100
AcDbEntity
  8
TOPOVERLAY
100
AcDbPolyline
 90
        2
 70
     1
 43
0.8999982
 10
436.23439804
 20
168.28042544
 42
1.0
 10
437.13439624
 20
168.28042544
 42
1.0
  0
LWPOLYLINE
  5
71
330
1F
100
AcDbEntity
  8
MECHANICAL1
100
AcDbPolyline
 90
        2
 70
     0
 43
0.0127
 10
398.23439276
 20
166.92023512
 10
398.23439276
 20
167.67023362
  0
LWPOLYLINE
  5
72
330
1F
100
AcDbEntity
  8
MECHANICAL1
100
AcDbPolyline
 90
        2
 70
     1
 43
0.00635
 10
398.23121776
 20
166.92023512
 42
1.0
 10
398.23756776
 20
166.92023512
 42
1.0
  0
LWPOLYLINE
  5
73
330
1F
100
AcDbEntity
  8
MECHANICAL1
100
AcDbPolyline
 90
        2
 70
     1
 43
0.00635
 10
398.23121776
 20
167.67023362
 42
1.0
 10
398.23756776
 20
167.67023362
 42
1.0
  0
LWPOLYLINE
  5
74
330
1F
100
AcDbEntity
  8
MECHANICAL1
100
AcDbPolyline
 90
        2
 70
     0
 43
0.0127
 10
399.2343933
 20
168.67023416
 10
417.33439266
 20
168.67023416
  0
LWPOLYLINE
  5
75
330
1F
100
AcDbEntity
  8
MECHANICAL1
100
AcDbPolyline
 90
        2
 70
     1
 43
0.00635
 10
399.2312183
 20
168.67023416
 42
1.0
 10
399.2375683
 20
168.67023416
 42
1.0
  0
LWPOLYLINE
  5
76
330
1F
100
AcDbEntity
  8
MECHANICAL1
100
AcDbPolyline
 90
        2
 70
     1
 43
0.00635
 10
417.33121766
 20
168.67023416
 42
1.0
 10
417.33756766
 20
168.67023416
 42
1.0
  0
LWPOLYLINE
  5
77
330
1F
100
AcDbEntity
  8
MECHANICAL1
100
AcDbPolyline
 90
        2
 70
     0
 43
0.0127
 10
418.3343932
 20
169.6702347
 10
418.3343932
 20
171.67023324
  0
LWPOLYLINE
  5
78
330
1F
100
AcDbEntity
  8
MECHANICAL1
100
AcDbPolyline
 90
        2
 70
     1
 43
0.00635
 10
418.3312182
 20
169.6702347
 42
1.0
 10
418.3375682
 20
169.6702347
 42
1.0
  0
LWPOLYLINE
  5
79
330
1F
100
AcDbEntity
  8
MECHANICAL1
100
AcDbPolyline
 90
        2
 70
     1
 43
0.00635
 10
418.3312182
 20
171.67023324
 42
1.0
 10
418.3375682
 20
171.67023324
 42
1.0
  0
LWPOLYLINE
  5
7A
330
1F
100
AcDbEntity
  8
MECHANICAL1
100
AcDbPolyline
 90
        2
 70
     0
 43
0.0127
 10
419.33439374
 20
172.67023378
 10
447.33439362
 20
172.67023378
  0
LWPOLYLINE
  5
7B
330
1F
100
AcDbEntity
  8
MECHANICAL1
100
AcDbPolyline
 90
        2
 70
     1
 43
0.00635
 10
419.33121874
 20
172.67023378
 42
1.0
 10
419.33756874
 20
172.67023378
 42
1.0
  0
LWPOLYLINE
  5
7C
330
1F
100
AcDbEntity
  8
MECHANICAL1
100
AcDbPolyline
 90
        2
 70
     1
 43
0.00635
 10
447.33121862
 20
172.67023378
 42
1.0
 10
447.33756862
 20
172.67023378
 42
1.0
  0
LWPOLYLINE
  5
7D
330
1F
100
AcDbEntity
  8
MECHANICAL1
100
AcDbPolyline
 90
        2
 70
     0
 43
0.0127
 10
448.33439416
 20
145.67023444
 10
448.33439416
 20
171.67023324
  0
LWPOLYLINE
  5
7E
330
1F
100
AcDbEntity
  8
MECHANICAL1
100
AcDbPolyline
 90
        2
 70
     1
 43
0.00635
 10
448.33121916
 20
145.67023444
 42
1.0
 10
448.33756916
 20
145.67023444
 42
1.0
  0
LWPOLYLINE
  5
7F
330
1F
100
AcDbEntity
  8
MECHANICAL1
100
AcDbPolyline
 90
        2
 70
     1
 43
0.00635
 10
448.33121916
 20
171.67023324
 42
1.0
 10
448.33756916
 20
171.67023324
 42
1.0
  0
LWPOLYLINE
  5
80
330
1F
100
AcDbEntity
  8
MECHANICAL1
100
AcDbPolyline
 90
        2
 70
     0
 43
0.0127
 10
419.33439374
 20
144.6702339
 10
447.33439362
 20
144.6702339
  0
LWPOLYLINE
  5
81
330
1F
100
AcDbEntity
  8
MECHANICAL1
100
AcDbPolyline
 90
        2
 70
     1
 43
0.00635
 10
419.33121874
 20
144.6702339
 42
1.0
 10
419.33756874
 20
144.6702339
 42
1.0
  0
LWPOLYLINE
  5
82
330
1F
100
AcDbEntity
  8
MECHANICAL1
100
AcDbPolyline
 90
        2
 70
     1
 43
0.00635
 10
447.33121862
 20
144.6702339
 42
1.0
 10
447.33756862
 20
144.6702339
 42
1.0
  0
LWPOLYLINE
  5
83
330
1F
100
AcDbEntity
  8
MECHANICAL1
100
AcDbPolyline
 90
        2
 70
     0
 43
0.0127
 10
418.3343932
 20
145.67023444
 10
418.3343932
 20
147.67023298
  0
LWPOLYLINE
  5
84
330
1F
100
AcDbEntity
  8
MECHANICAL1
100
AcDbPolyline
 90
        2
 70
     1
 43
0.00635
 10
418.3312182
 20
145.67023444
 42
1.0
 10
418.3375682
 20
145.67023444
 42
1.0
  0
LWPOLYLINE
  5
85
330
1F
100
AcDbEntity
  8
MECHANICAL1
100
AcDbPolyline
 90
        2
 70
     1
 43
0.00635
 10
418.3312182
 20
147.67023298
 42
1.0
 10
418.3375682
 20
147.67023298
 42
1.0
  0
LWPOLYLINE
  5
86
330
1F
100
AcDbEntity
  8
MECHANICAL1
100
AcDbPolyline
 90
        2
 70
     0
 43
0.0127
 10
399.2343933
 20
148.67023352
 10
417.33439266
 20
148.67023352
  0
LWPOLYLINE
  5
87
330
1F
100
AcDbEntity
  8
MECHANICAL1
100
AcDbPolyline
 90
        2
 70
     1
 43
0.00635
 10
399.2312183
 20
148.67023352
 42
1.0
 10
399.2375683
 20
148.67023352
 42
1.0
  0
LWPOLYLINE
  5
88
330
1F
100
AcDbEntity
  8
MECHANICAL1
100
AcDbPolyline
 90
        2
 70
     1
 43
0.00635
 10
417.33121766
 20
148.67023352
 42
1.0
 10
417.33756766
 20
148.67023352
 42
1.0
  0
LWPOLYLINE
  5
89
330
1F
100
AcDbEntity
  8
MECHANICAL1
100
AcDbPolyline
 90
        2
 70
     0
 43
0.0127
 10
398.23439276
 20
149.67023406
 10
398.23439276
 20
150.4202351
  0
LWPOLYLINE
  5
8A
330
1F
100
AcDbEntity
  8
MECHANICAL1
100
AcDbPolyline
 90
        2
 70
     1
 43
0.00635
 10
398.23121776
 20
149.67023406
 42
1.0
 10
398.23756776
 20
149.67023406
 42
1.0
  0
LWPOLYLINE
  5
8B
330
1F
100
AcDbEntity
  8
MECHANICAL1
100
AcDbPolyline
 90
        2
 70
     1
 43
0.00635
 10
398.23121776
 20
150.4202351
 42
1.0
 10
398.23756776
 20
150.4202351
 42
1.0
  0
LWPOLYLINE
  5
8C
330
1F
100
AcDbEntity
  8
MECHANICAL1
100
AcDbPolyline
 90
        2
 70
     0
 43
0.0127
 10
386.3343937
 20
153.62023378
 10
392.42489206
 20
153.62023378
  0
LWPOLYLINE
  5
8D
330
1F
100
AcDbEntity
  8
MECHANICAL1
100
AcDbPolyline
 90
        2
 70
     1
 43
0.00635
 10
386.3312187
 20
153.62023378
 42
1.0
 10
386.3375687
 20
153.62023378
 42
1.0
  0
LWPOLYLINE
  5
8E
330
1F
100
AcDbEntity
  8
MECHANICAL1
100
AcDbPolyline
 90
        2
 70
     1
 43
0.00635
 10
392.42171706
 20
153.62023378
 42
1.0
 10
392.42806706
 20
153.62023378
 42
1.0
  0
LWPOLYLINE
  5
8F
330
1F
100
AcDbEntity
  8
MECHANICAL1
100
AcDbPolyline
 90
        2
 70
     0
 43
0.0127
 10
385.8343947
 20
154.12023532
 10
385.8343947
 20
163.2202349
  0
LWPOLYLINE
  5
90
330
1F
100
AcDbEntity
  8
MECHANICAL1
100
AcDbPolyline
 90
        2
 70
     1
 43
0.00635
 10
385.8312197
 20
154.12023532
 42
1.0
 10
385.8375697
 20
154.12023532
 42
1.0
  0
LWPOLYLINE
  5
91
330
1F
100
AcDbEntity
  8
MECHANICAL1
100
AcDbPolyline
 90
        2
 70
     1
 43
0.00635
 10
385.8312197
 20
163.2202349
 42
1.0
 10
385.8375697
 20
163.2202349
 42
1.0
  0
LWPOLYLINE
  5
92
330
1F
100
AcDbEntity
  8
MECHANICAL1
100
AcDbPolyline
 90
        2
 70
     0
 43
0.0127
 10
386.3343937
 20
163.7202339
 10
392.42489206
 20
163.7202339
  0
LWPOLYLINE
  5
93
330
1F
100
AcDbEntity
  8
MECHANICAL1
100
AcDbPolyline
 90
        2
 70
     1
 43
0.00635
 10
386.3312187
 20
163.7202339
 42
1.0
 10
386.3375687
 20
163.7202339
 42
1.0
  0
LWPOLYLINE
  5
94
330
1F
100
AcDbEntity
  8
MECHANICAL1
100
AcDbPolyline
 90
        2
 70
     1
 43
0.00635
 10
392.42171706
 20
163.7202339
 42
1.0
 10
392.42806706
 20
163.7202339
 42
1.0
  0
LWPOLYLINE
  5
95
330
1F
100
AcDbEntity
  8
MECHANICAL1
100
AcDbPolyline
 90
        2
 70
     0
 43
0.0127
 10
398.2343953
 20
166.92023512
 10
398.2343953
 20
167.67023362
  0
LWPOLYLINE
  5
96
330
1F
100
AcDbEntity
  8
MECHANICAL1
100
AcDbPolyline
 90
        2
 70
     1
 43
0.00635
 10
398.2312203
 20
166.92023512
 42
1.0
 10
398.2375703
 20
166.92023512
 42
1.0
  0
LWPOLYLINE
  5
97
330
1F
100
AcDbEntity
  8
MECHANICAL1
100
AcDbPolyline
 90
        2
 70
     1
 43
0.00635
 10
398.2312203
 20
167.67023362
 42
1.0
 10
398.2375703
 20
167.67023362
 42
1.0
  0
LWPOLYLINE
  5
98
330
1F
100
AcDbEntity
  8
MECHANICAL1
100
AcDbPolyline
 90
        2
 70
     0
 43
0.0127
 10
399.23439584
 20
168.67023416
 10
417.3343952
 20
168.67023416
  0
LWPOLYLINE
  5
99
330
1F
100
AcDbEntity
  8
MECHANICAL1
100
AcDbPolyline
 90
        2
 70
     1
 43
0.00635
 10
399.23122084
 20
168.67023416
 42
1.0
 10
399.23757084
 20
168.67023416
 42
1.0
  0
LWPOLYLINE
  5
9A
330
1F
100
AcDbEntity
  8
MECHANICAL1
100
AcDbPolyline
 90
        2
 70
     1
 43
0.00635
 10
417.3312202
 20
168.67023416
 42
1.0
 10
417.3375702
 20
168.67023416
 42
1.0
  0
LWPOLYLINE
  5
9B
330
1F
100
AcDbEntity
  8
MECHANICAL1
100
AcDbPolyline
 90
        2
 70
     0
 43
0.0127
 10
418.33439574
 20
169.6702347
 10
418.33439574
 20
171.67023324
  0
LWPOLYLINE
  5
9C
330
1F
100
AcDbEntity
  8
MECHANICAL1
100
AcDbPolyline
 90
        2
 70
     1
 43
0.00635
 10
418.33122074
 20
169.6702347
 42
1.0
 10
418.33757074
 20
169.6702347
 42
1.0
  0
LWPOLYLINE
  5
9D
330
1F
100
AcDbEntity
  8
MECHANICAL1
100
AcDbPolyline
 90
        2
 70
     1
 43
0.00635
 10
418.33122074
 20
171.67023324
 42
1.0
 10
418.33757074
 20
171.67023324
 42
1.0
  0
LWPOLYLINE
  5
9E
330
1F
100
AcDbEntity
  8
MECHANICAL1
100
AcDbPolyline
 90
        2
 70
     0
 43
0.0127
 10
419.33439374
 20
172.67023378
 10
447.33439616
 20
172.67023378
  0
LWPOLYLINE
  5
9F
330
1F
100
AcDbEntity
  8
MECHANICAL1
100
AcDbPolyline
 90
        2
 70
     1
 43
0.00635
 10
419.33121874
 20
172.67023378
 42
1.0
 10
419.33756874
 20
172.67023378
 42
1.0
  0
LWPOLYLINE
  5
A0
330
1F
100
AcDbEntity
  8
MECHANICAL1
100
AcDbPolyline
 90
        2
 70
     1
 43
0.00635
 10
447.33122116
 20
172.67023378
 42
1.0
 10
447.33757116
 20
172.67023378
 42
1.0
  0
LWPOLYLINE
  5
A1
330
1F
100
AcDbEntity
  8
MECHANICAL1
100
AcDbPolyline
 90
        2
 70
     0
 43
0.0127
 10
448.33439416
 20
145.67023444
 10
448.33439416
 20
171.67023324
  0
LWPOLYLINE
  5
A2
330
1F
100
AcDbEntity
  8
MECHANICAL1
100
AcDbPolyline
 90
        2
 70
     1
 43
0.00635
 10
448.33121916
 20
145.67023444
 42
1.0
 10
448.33756916
 20
145.67023444
 42
1.0
  0
LWPOLYLINE
  5
A3
330
1F
100
AcDbEntity
  8
MECHANICAL1
100
AcDbPolyline
 90
        2
 70
     1
 43
0.00635
 10
448.33121916
 20
171.67023324
 42
1.0
 10
448.33756916
 20
171.67023324
 42
1.0
  0
LWPOLYLINE
  5
A4
330
1F
100
AcDbEntity
  8
MECHANICAL1
100
AcDbPolyline
 90
        2
 70
     0
 43
0.0127
 10
419.33439374
 20
144.6702339
 10
447.33439616
 20
144.6702339
  0
LWPOLYLINE
  5
A5
330
1F
100
AcDbEntity
  8
MECHANICAL1
100
AcDbPolyline
 90
        2
 70
     1
 43
0.00635
 10
419.33121874
 20
144.6702339
 42
1.0
 10
419.33756874
 20
144.6702339
 42
1.0
  0
LWPOLYLINE
  5
A6
330
1F
100
AcDbEntity
  8
MECHANICAL1
100
AcDbPolyline
 90
        2
 70
     1
 43
0.00635
 10
447.33122116
 20
144.6702339
 42
1.0
 10
447.33757116
 20
144.6702339
 42
1.0
  0
LWPOLYLINE
  5
A7
330
1F
100
AcDbEntity
  8
MECHANICAL1
100
AcDbPolyline
 90
        2
 70
     0
 43
0.0127
 10
418.33439574
 20
145.67023444
 10
418.33439574
 20
147.67023298
  0
LWPOLYLINE
  5
A8
330
1F
100
AcDbEntity
  8
MECHANICAL1
100
AcDbPolyline
 90
        2
 70
     1
 43
0.00635
 10
418.33122074
 20
145.67023444
 42
1.0
 10
418.33757074
 20
145.67023444
 42
1.0
  0
LWPOLYLINE
  5
A9
330
1F
100
AcDbEntity
  8
MECHANICAL1
100
AcDbPolyline
 90
        2
 70
     1
 43
0.00635
 10
418.33122074
 20
147.67023298
 42
1.0
 10
418.33757074
 20
147.67023298
 42
1.0
  0
LWPOLYLINE
  5
AA
330
1F
100
AcDbEntity
  8
MECHANICAL1
100
AcDbPolyline
 90
        2
 70
     0
 43
0.0127
 10
399.23439584
 20
148.67023352
 10
417.3343952
 20
148.67023352
  0
LWPOLYLINE
  5
AB
330
1F
100
AcDbEntity
  8
MECHANICAL1
100
AcDbPolyline
 90
        2
 70
     1
 43
0.00635
 10
399.23122084
 20
148.67023352
 42
1.0
 10
399.23757084
 20
148.67023352
 42
1.0
  0
LWPOLYLINE
  5
AC
330
1F
100
AcDbEntity
  8
MECHANICAL1
100
AcDbPolyline
 90
        2
 70
     1
 43
0.00635
 10
417.3312202
 20
148.67023352
 42
1.0
 10
417.3375702
 20
148.67023352
 42
1.0
  0
LWPOLYLINE
  5
AD
330
1F
100
AcDbEntity
  8
MECHANICAL1
100
AcDbPolyline
 90
        2
 70
     0
 43
0.0127
 10
398.2343953
 20
149.67023406
 10
398.2343953
 20
150.4202351
  0
LWPOLYLINE
  5
AE
330
1F
100
AcDbEntity
  8
MECHANICAL1
100
AcDbPolyline
 90
        2
 70
     1
 43
0.00635
 10
398.2312203
 20
149.67023406
 42
1.0
 10
398.2375703
 20
149.67023406
 42
1.0
  0
LWPOLYLINE
  5
AF
330
1F
100
AcDbEntity
  8
MECHANICAL1
100
AcDbPolyline
 90
        2
 70
     1
 43
0.00635
 10
398.2312203
 20
150.4202351
 42
1.0
 10
398.2375703
 20
150.4202351
 42
1.0
  0
LWPOLYLINE
  5
B0
330
1F
100
AcDbEntity
  8
MECHANICAL1
100
AcDbPolyline
 90
        2
 70
     0
 43
0.0127
 10
385.8343947
 20
162.97023286
 10
385.8343947
 20
163.2202349
  0
LWPOLYLINE
  5
B1
330
1F
100
AcDbEntity
  8
MECHANICAL1
100
AcDbPolyline
 90
        2
 70
     1
 43
0.00635
 10
385.8312197
 20
162.97023286
 42
1.0
 10
385.8375697
 20
162.97023286
 42
1.0
  0
LWPOLYLINE
  5
B2
330
1F
100
AcDbEntity
  8
MECHANICAL1
100
AcDbPolyline
 90
        2
 70
     1
 43
0.00635
 10
385.8312197
 20
163.2202349
 42
1.0
 10
385.8375697
 20
163.2202349
 42
1.0
  0
LWPOLYLINE
  5
B3
330
1F
100
AcDbEntity
  8
MECHANICAL1
100
AcDbPolyline
 90
        2
 70
     0
 43
0.0127
 10
385.8343947
 20
154.12023278
 10
385.8343947
 20
154.37023482
  0
LWPOLYLINE
  5
B4
330
1F
100
AcDbEntity
  8
MECHANICAL1
100
AcDbPolyline
 90
        2
 70
     1
 43
0.00635
 10
385.8312197
 20
154.12023278
 42
1.0
 10
385.8375697
 20
154.12023278
 42
1.0
  0
LWPOLYLINE
  5
B5
330
1F
100
AcDbEntity
  8
MECHANICAL1
100
AcDbPolyline
 90
        2
 70
     1
 43
0.00635
 10
385.8312197
 20
154.37023482
 42
1.0
 10
385.8375697
 20
154.37023482
 42
1.0
  0
LWPOLYLINE
  5
B6
330
1F
100
AcDbEntity
  8
MECHANICAL1
100
AcDbPolyline
 90
        2
 70
     0
 43
0.0127
 10
386.33439624
 20
153.62023378
 10
392.42489206
 20
153.62023378
  0
LWPOLYLINE
  5
B7
330
1F
100
AcDbEntity
  8
MECHANICAL1
100
AcDbPolyline
 90
        2
 70
     1
 43
0.00635
 10
386.33122124
 20
153.62023378
 42
1.0
 10
386.33757124
 20
153.62023378
 42
1.0
  0
LWPOLYLINE
  5
B8
330
1F
100
AcDbEntity
  8
MECHANICAL1
100
AcDbPolyline
 90
        2
 70
     1
 43
0.00635
 10
392.42171706
 20
153.62023378
 42
1.0
 10
392.42806706
 20
153.62023378
 42
1.0
  0
LWPOLYLINE
  5
B9
330
1F
100
AcDbEntity
  8
MECHANICAL1
100
AcDbPolyline
 90
        2
 70
     0
 43
0.0127
 10
386.33439624
 20
163.7202339
 10
392.42489206
 20
163.7202339
  0
LWPOLYLINE
  5
BA
330
1F
100
AcDbEntity
  8
MECHANICAL1
100
AcDbPolyline
 90
        2
 70
     1
 43
0.00635
 10
386.33122124
 20
163.7202339
 42
1.0
 10
386.33757124
 20
163.7202339
 42
1.0
  0
LWPOLYLINE
  5
BB
330
1F
100
AcDbEntity
  8
MECHANICAL1
100
AcDbPolyline
 90
        2
 70
     1
 43
0.00635
 10
392.42171706
 20
163.7202339
 42
1.0
 10
392.42806706
 20
163.7202339
 42
1.0
  0
LWPOLYLINE
  5
BC
330
1F
100
AcDbEntity
  8
MECHANICAL1
100
AcDbPolyline
 90
        2
 70
     0
 43
0.0127
 10
385.8343947
 20
154.37023482
 10
385.8343947
 20
162.97023286
  0
LWPOLYLINE
  5
BD
330
1F
100
AcDbEntity
  8
MECHANICAL1
100
AcDbPolyline
 90
        2
 70
     1
 43
0.00635
 10
385.8312197
 20
154.37023482
 42
1.0
 10
385.8375697
 20
154.37023482
 42
1.0
  0
LWPOLYLINE
  5
BE
330
1F
100
AcDbEntity
  8
MECHANICAL1
100
AcDbPolyline
 90
        2
 70
     1
 43
0.00635
 10
385.8312197
 20
162.97023286
 42
1.0
 10
385.8375697
 20
162.97023286
 42
1.0
  0
LWPOLYLINE
  5
BF
330
1F
100
AcDbEntity
  8
MECHANICAL1
100
AcDbPolyline
 90
        2
 70
     0
 43
0.0127
 10
392.42489206
 20
163.7202339
 42
-0.1168920557901072
 10
392.87372276
 20
163.61385108
  0
LWPOLYLINE
  5
C0
330
1F
100
AcDbEntity
  8
MECHANICAL1
100
AcDbPolyline
 90
        2
 70
     1
 43
0.00635
 10
392.42171706
 20
163.7202339
 42
1.0
 10
392.42806706
 20
163.7202339
 42
1.0
  0
LWPOLYLINE
  5
C1
330
1F
100
AcDbEntity
  8
MECHANICAL1
100
AcDbPolyline
 90
        2
 70
     1
 43
0.00635
 10
392.87054776
 20
163.61385108
 42
1.0
 10
392.87689776
 20
163.61385108
 42
1.0
  0
LWPOLYLINE
  5
C2
330
1F
100
AcDbEntity
  8
MECHANICAL1
100
AcDbPolyline
 90
        2
 70
     0
 43
0.0127
 10
398.23439276
 20
166.92023512
 42
-0.558129274787679
 10
392.87372022
 20
163.61385108
  0
LWPOLYLINE
  5
C3
330
1F
100
AcDbEntity
  8
MECHANICAL1
100
AcDbPolyline
 90
        2
 70
     1
 43
0.00635
 10
398.23121776
 20
166.92023512
 42
1.0
 10
398.23756776
 20
166.92023512
 42
1.0
  0
LWPOLYLINE
  5
C4
330
1F
100
AcDbEntity
  8
MECHANICAL1
100
AcDbPolyline
 90
        2
 70
     1
 43
0.00635
 10
392.87054522
 20
163.61385108
 42
1.0
 10
392.87689522
 20
163.61385108
 42
1.0
  0
LWPOLYLINE
  5
C5
330
1F
100
AcDbEntity
  8
MECHANICAL1
100
AcDbPolyline
 90
        2
 70
     0
 43
0.0127
 10
398.23439276
 20
167.67023362
 42
-0.414213562372877
 10
399.2343933
 20
168.67023416
  0
LWPOLYLINE
  5
C6
330
1F
100
AcDbEntity
  8
MECHANICAL1
100
AcDbPolyline
 90
        2
 70
     1
 43
0.00635
 10
398.23121776
 20
167.67023362
 42
1.0
 10
398.23756776
 20
167.67023362
 42
1.0
  0
LWPOLYLINE
  5
C7
330
1F
100
AcDbEntity
  8
MECHANICAL1
100
AcDbPolyline
 90
        2
 70
     1
 43
0.00635
 10
399.2312183
 20
168.67023416
 42
1.0
 10
399.2375683
 20
168.67023416
 42
1.0
  0
LWPOLYLINE
  5
C8
330
1F
100
AcDbEntity
  8
MECHANICAL1
100
AcDbPolyline
 90
        2
 70
     0
 43
0.0127
 10
418.3343932
 20
169.6702347
 42
-0.414213562372877
 10
417.33439266
 20
168.67023416
  0
LWPOLYLINE
  5
C9
330
1F
100
AcDbEntity
  8
MECHANICAL1
100
AcDbPolyline
 90
        2
 70
     1
 43
0.00635
 10
418.3312182
 20
169.6702347
 42
1.0
 10
418.3375682
 20
169.6702347
 42
1.0
  0
LWPOLYLINE
  5
CA
330
1F
100
AcDbEntity
  8
MECHANICAL1
100
AcDbPolyline
 90
        2
 70
     1
 43
0.00635
 10
417.33121766
 20
168.67023416
 42
1.0
 10
417.33756766
 20
168.67023416
 42
1.0
  0
LWPOLYLINE
  5
CB
330
1F
100
AcDbEntity
  8
MECHANICAL1
100
AcDbPolyline
 90
        2
 70
     0
 43
0.0127
 10
418.3343932
 20
171.67023324
 42
-0.414213562372877
 10
419.33439374
 20
172.67023378
  0
LWPOLYLINE
  5
CC
330
1F
100
AcDbEntity
  8
MECHANICAL1
100
AcDbPolyline
 90
        2
 70
     1
 43
0.00635
 10
418.3312182
 20
171.67023324
 42
1.0
 10
418.3375682
 20
171.67023324
 42
1.0
  0
LWPOLYLINE
  5
CD
330
1F
100
AcDbEntity
  8
MECHANICAL1
100
AcDbPolyline
 90
        2
 70
     1
 43
0.00635
 10
419.33121874
 20
172.67023378
 42
1.0
 10
419.33756874
 20
172.67023378
 42
1.0
  0
LWPOLYLINE
  5
CE
330
1F
100
AcDbEntity
  8
MECHANICAL1
100
AcDbPolyline
 90
        2
 70
     0
 43
0.0127
 10
447.33439362
 20
172.67023378
 42
-0.414213562372877
 10
448.33439416
 20
171.67023324
  0
LWPOLYLINE
  5
CF
330
1F
100
AcDbEntity
  8
MECHANICAL1
100
AcDbPolyline
 90
        2
 70
     1
 43
0.00635
 10
447.33121862
 20
172.67023378
 42
1.0
 10
447.33756862
 20
172.67023378
 42
1.0
  0
LWPOLYLINE
  5
D0
330
1F
100
AcDbEntity
  8
MECHANICAL1
100
AcDbPolyline
 90
        2
 70
     1
 43
0.00635
 10
448.33121916
 20
171.67023324
 42
1.0
 10
448.33756916
 20
171.67023324
 42
1.0
  0
LWPOLYLINE
  5
D1
330
1F
100
AcDbEntity
  8
MECHANICAL1
100
AcDbPolyline
 90
        2
 70
     0
 43
0.0127
 10
448.33439416
 20
145.67023444
 42
-0.414213562372877
 10
447.33439362
 20
144.6702339
  0
LWPOLYLINE
  5
D2
330
1F
100
AcDbEntity
  8
MECHANICAL1
100
AcDbPolyline
 90
        2
 70
     1
 43
0.00635
 10
448.33121916
 20
145.67023444
 42
1.0
 10
448.33756916
 20
145.67023444
 42
1.0
  0
LWPOLYLINE
  5
D3
330
1F
100
AcDbEntity
  8
MECHANICAL1
100
AcDbPolyline
 90
        2
 70
     1
 43
0.00635
 10
447.33121862
 20
144.6702339
 42
1.0
 10
447.33756862
 20
144.6702339
 42
1.0
  0
LWPOLYLINE
  5
D4
330
1F
100
AcDbEntity
  8
MECHANICAL1
100
AcDbPolyline
 90
        2
 70
     0
 43
0.0127
 10
419.33439374
 20
144.6702339
 42
-0.414213562372877
 10
418.3343932
 20
145.67023444
  0
LWPOLYLINE
  5
D5
330
1F
100
AcDbEntity
  8
MECHANICAL1
100
AcDbPolyline
 90
        2
 70
     1
 43
0.00635
 10
419.33121874
 20
144.6702339
 42
1.0
 10
419.33756874
 20
144.6702339
 42
1.0
  0
LWPOLYLINE
  5
D6
330
1F
100
AcDbEntity
  8
MECHANICAL1
100
AcDbPolyline
 90
        2
 70
     1
 43
0.00635
 10
418.3312182
 20
145.67023444
 42
1.0
 10
418.3375682
 20
145.67023444
 42
1.0
  0
LWPOLYLINE
  5
D7
330
1F
100
AcDbEntity
  8
MECHANICAL1
100
AcDbPolyline
 90
        2
 70
     0
 43
0.0127
 10
417.33439266
 20
148.67023352
 42
-0.414213562372877
 10
418.3343932
 20
147.67023298
  0
LWPOLYLINE
  5
D8
330
1F
100
AcDbEntity
  8
MECHANICAL1
100
AcDbPolyline
 90
        2
 70
     1
 43
0.00635
 10
417.33121766
 20
148.67023352
 42
1.0
 10
417.33756766
 20
148.67023352
 42
1.0
  0
LWPOLYLINE
  5
D9
330
1F
100
AcDbEntity
  8
MECHANICAL1
100
AcDbPolyline
 90
        2
 70
     1
 43
0.00635
 10
418.3312182
 20
147.67023298
 42
1.0
 10
418.3375682
 20
147.67023298
 42
1.0
  0
LWPOLYLINE
  5
DA
330
1F
100
AcDbEntity
  8
MECHANICAL1
100
AcDbPolyline
 90
        2
 70
     0
 43
0.0127
 10
399.2343933
 20
148.67023352
 42
-0.414213562372877
 10
398.23439276
 20
149.67023406
  0
LWPOLYLINE
  5
DB
330
1F
100
AcDbEntity
  8
MECHANICAL1
100
AcDbPolyline
 90
        2
 70
     1
 43
0.00635
 10
399.2312183
 20
148.67023352
 42
1.0
 10
399.2375683
 20
148.67023352
 42
1.0
  0
LWPOLYLINE
  5
DC
330
1F
100
AcDbEntity
  8
MECHANICAL1
100
AcDbPolyline
 90
        2
 70
     1
 43
0.00635
 10
398.23121776
 20
149.67023406
 42
1.0
 10
398.23756776
 20
149.67023406
 42
1.0
  0
LWPOLYLINE
  5
DD
330
1F
100
AcDbEntity
  8
MECHANICAL1
100
AcDbPolyline
 90
        2
 70
     0
 43
0.0127
 10
392.87372022
 20
153.72661914
 42
-0.558129274787679
 10
398.23439276
 20
150.4202351
  0
LWPOLYLINE
  5
DE
330
1F
100
AcDbEntity
  8
MECHANICAL1
100
AcDbPolyline
 90
        2
 70
     1
 43
0.00635
 10
392.87054522
 20
153.72661914
 42
1.0
 10
392.87689522
 20
153.72661914
 42
1.0
  0
LWPOLYLINE
  5
DF
330
1F
100
AcDbEntity
  8
MECHANICAL1
100
AcDbPolyline
 90
        2
 70
     1
 43
0.00635
 10
398.23121776
 20
150.4202351
 42
1.0
 10
398.23756776
 20
150.4202351
 42
1.0
  0
LWPOLYLINE
  5
E0
330
1F
100
AcDbEntity
  8
MECHANICAL1
100
AcDbPolyline
 90
        2
 70
     0
 43
0.0127
 10
392.87372276
 20
153.7266166
 42
-0.1168920557901072
 10
392.42489206
 20
153.62023378
  0
LWPOLYLINE
  5
E1
330
1F
100
AcDbEntity
  8
MECHANICAL1
100
AcDbPolyline
 90
        2
 70
     1
 43
0.00635
 10
392.87054776
 20
153.7266166
 42
1.0
 10
392.87689776
 20
153.7266166
 42
1.0
  0
LWPOLYLINE
  5
E2
330
1F
100
AcDbEntity
  8
MECHANICAL1
100
AcDbPolyline
 90
        2
 70
     1
 43
0.00635
 10
392.42171706
 20
153.62023378
 42
1.0
 10
392.42806706
 20
153.62023378
 42
1.0
  0
LWPOLYLINE
  5
E3
330
1F
100
AcDbEntity
  8
MECHANICAL1
100
AcDbPolyline
 90
        2
 70
     0
 43
0.0127
 10
386.3343937
 20
153.62023632
 42
-0.414213562372877
 10
385.8343947
 20
154.12023532
  0
LWPOLYLINE
  5
E4
330
1F
100
AcDbEntity
  8
MECHANICAL1
100
AcDbPolyline
 90
        2
 70
     1
 43
0.00635
 10
386.3312187
 20
153.62023632
 42
1.0
 10
386.3375687
 20
153.62023632
 42
1.0
  0
LWPOLYLINE
  5
E5
330
1F
100
AcDbEntity
  8
MECHANICAL1
100
AcDbPolyline
 90
        2
 70
     1
 43
0.00635
 10
385.8312197
 20
154.12023532
 42
1.0
 10
385.8375697
 20
154.12023532
 42
1.0
  0
LWPOLYLINE
  5
E6
330
1F
100
AcDbEntity
  8
MECHANICAL1
100
AcDbPolyline
 90
        2
 70
     0
 43
0.0127
 10
385.8343947
 20
163.2202349
 42
-0.414213562372877
 10
386.3343937
 20
163.7202339
  0
LWPOLYLINE
  5
E7
330
1F
100
AcDbEntity
  8
MECHANICAL1
100
AcDbPolyline
 90
        2
 70
     1
 43
0.00635
 10
385.8312197
 20
163.2202349
 42
1.0
 10
385.8375697
 20
163.2202349
 42
1.0
  0
LWPOLYLINE
  5
E8
330
1F
100
AcDbEntity
  8
MECHANICAL1
100
AcDbPolyline
 90
        2
 70
     1
 43
0.00635
 10
386.3312187
 20
163.7202339
 42
1.0
 10
386.3375687
 20
163.7202339
 42
1.0
  0
LWPOLYLINE
  5
E9
330
1F
100
AcDbEntity
  8
MECHANICAL1
100
AcDbPolyline
 90
        2
 70
     0
 43
0.0127
 10
392.42489206
 20
163.7202339
 42
-0.1168920557901072
 10
392.87372276
 20
163.61385108
  0
LWPOLYLINE
  5
EA
330
1F
100
AcDbEntity
  8
MECHANICAL1
100
AcDbPolyline
 90
        2
 70
     1
 43
0.00635
 10
392.42171706
 20
163.7202339
 42
1.0
 10
392.42806706
 20
163.7202339
 42
1.0
  0
LWPOLYLINE
  5
EB
330
1F
100
AcDbEntity
  8
MECHANICAL1
100
AcDbPolyline
 90
        2
 70
     1
 43
0.00635
 10
392.87054776
 20
163.61385108
 42
1.0
 10
392.87689776
 20
163.61385108
 42
1.0
  0
LWPOLYLINE
  5
EC
330
1F
100
AcDbEntity
  8
MECHANICAL1
100
AcDbPolyline
 90
        2
 70
     0
 43
0.0127
 10
398.2343953
 20
166.92023512
 42
-0.558129274787679
 10
392.87372276
 20
163.61385108
  0
LWPOLYLINE
  5
ED
330
1F
100
AcDbEntity
  8
MECHANICAL1
100
AcDbPolyline
 90
        2
 70
     1
 43
0.00635
 10
398.2312203
 20
166.92023512
 42
1.0
 10
398.2375703
 20
166.92023512
 42
1.0
  0
LWPOLYLINE
  5
EE
330
1F
100
AcDbEntity
  8
MECHANICAL1
100
AcDbPolyline
 90
        2
 70
     1
 43
0.00635
 10
392.87054776
 20
163.61385108
 42
1.0
 10
392.87689776
 20
163.61385108
 42
1.0
  0
LWPOLYLINE
  5
EF
330
1F
100
AcDbEntity
  8
MECHANICAL1
100
AcDbPolyline
 90
        2
 70
     0
 43
0.0127
 10
398.2343953
 20
167.67023362
 42
-0.414213562372877
 10
399.23439584
 20
168.67023416
  0
LWPOLYLINE
  5
F0
330
1F
100
AcDbEntity
  8
MECHANICAL1
100
AcDbPolyline
 90
        2
 70
     1
 43
0.00635
 10
398.2312203
 20
167.67023362
 42
1.0
 10
398.2375703
 20
167.67023362
 42
1.0
  0
LWPOLYLINE
  5
F1
330
1F
100
AcDbEntity
  8
MECHANICAL1
100
AcDbPolyline
 90
        2
 70
     1
 43
0.00635
 10
399.23122084
 20
168.67023416
 42
1.0
 10
399.23757084
 20
168.67023416
 42
1.0
  0
LWPOLYLINE
  5
F2
330
1F
100
AcDbEntity
  8
MECHANICAL1
100
AcDbPolyline
 90
        2
 70
     0
 43
0.0127
 10
418.33439574
 20
169.6702347
 42
-0.414213562372877
 10
417.3343952
 20
168.67023416
  0
LWPOLYLINE
  5
F3
330
1F
100
AcDbEntity
  8
MECHANICAL1
100
AcDbPolyline
 90
        2
 70
     1
 43
0.00635
 10
418.33122074
 20
169.6702347
 42
1.0
 10
418.33757074
 20
169.6702347
 42
1.0
  0
LWPOLYLINE
  5
F4
330
1F
100
AcDbEntity
  8
MECHANICAL1
100
AcDbPolyline
 90
        2
 70
     1
 43
0.00635
 10
417.3312202
 20
168.67023416
 42
1.0
 10
417.3375702
 20
168.67023416
 42
1.0
  0
LWPOLYLINE
  5
F5
330
1F
100
AcDbEntity
  8
MECHANICAL1
100
AcDbPolyline
 90
        2
 70
     0
 43
0.0127
 10
418.3343932
 20
171.67023324
 42
-0.414213562372877
 10
419.33439374
 20
172.67023378
  0
LWPOLYLINE
  5
F6
330
1F
100
AcDbEntity
  8
MECHANICAL1
100
AcDbPolyline
 90
        2
 70
     1
 43
0.00635
 10
418.3312182
 20
171.67023324
 42
1.0
 10
418.3375682
 20
171.67023324
 42
1.0
  0
LWPOLYLINE
  5
F7
330
1F
100
AcDbEntity
  8
MECHANICAL1
100
AcDbPolyline
 90
        2
 70
     1
 43
0.00635
 10
419.33121874
 20
172.67023378
 42
1.0
 10
419.33756874
 20
172.67023378
 42
1.0
  0
LWPOLYLINE
  5
F8
330
1F
100
AcDbEntity
  8
MECHANICAL1
100
AcDbPolyline
 90
        2
 70
     0
 43
0.0127
 10
447.33439616
 20
172.67023378
 42
-0.414213562372877
 10
448.3343967
 20
171.67023324
  0
LWPOLYLINE
  5
F9
330
1F
100
AcDbEntity
  8
MECHANICAL1
100
AcDbPolyline
 90
        2
 70
     1
 43
0.00635
 10
447.33122116
 20
172.67023378
 42
1.0
 10
447.33757116
 20
172.67023378
 42
1.0
  0
LWPOLYLINE
  5
FA
330
1F
100
AcDbEntity
  8
MECHANICAL1
100
AcDbPolyline
 90
        2
 70
     1
 43
0.00635
 10
448.3312217
 20
171.67023324
 42
1.0
 10
448.3375717
 20
171.67023324
 42
1.0
  0
LWPOLYLINE
  5
FB
330
1F
100
AcDbEntity
  8
MECHANICAL1
100
AcDbPolyline
 90
        2
 70
     0
 43
0.0127
 10
448.3343967
 20
145.67023444
 42
-0.414213562372877
 10
447.33439616
 20
144.6702339
  0
LWPOLYLINE
  5
FC
330
1F
100
AcDbEntity
  8
MECHANICAL1
100
AcDbPolyline
 90
        2
 70
     1
 43
0.00635
 10
448.3312217
 20
145.67023444
 42
1.0
 10
448.3375717
 20
145.67023444
 42
1.0
  0
LWPOLYLINE
  5
FD
330
1F
100
AcDbEntity
  8
MECHANICAL1
100
AcDbPolyline
 90
        2
 70
     1
 43
0.00635
 10
447.33122116
 20
144.6702339
 42
1.0
 10
447.33757116
 20
144.6702339
 42
1.0
  0
LWPOLYLINE
  5
FE
330
1F
100
AcDbEntity
  8
MECHANICAL1
100
AcDbPolyline
 90
        2
 70
     0
 43
0.0127
 10
419.33439374
 20
144.6702339
 42
-0.414213562372877
 10
418.3343932
 20
145.67023444
  0
LWPOLYLINE
  5
FF
330
1F
100
AcDbEntity
  8
MECHANICAL1
100
AcDbPolyline
 90
        2
 70
     1
 43
0.00635
 10
419.33121874
 20
144.6702339
 42
1.0
 10
419.33756874
 20
144.6702339
 42
1.0
  0
LWPOLYLINE
  5
100
330
1F
100
AcDbEntity
  8
MECHANICAL1
100
AcDbPolyline
 90
        2
 70
     1
 43
0.00635
 10
418.3312182
 20
145.67023444
 42
1.0
 10
418.3375682
 20
145.67023444
 42
1.0
  0
LWPOLYLINE
  5
101
330
1F
100
AcDbEntity
  8
MECHANICAL1
100
AcDbPolyline
 90
        2
 70
     0
 43
0.0127
 10
417.3343952
 20
148.67023352
 42
-0.414213562372877
 10
418.33439574
 20
147.67023298
  0
LWPOLYLINE
  5
102
330
1F
100
AcDbEntity
  8
MECHANICAL1
100
AcDbPolyline
 90
        2
 70
     1
 43
0.00635
 10
417.3312202
 20
148.67023352
 42
1.0
 10
417.3375702
 20
148.67023352
 42
1.0
  0
LWPOLYLINE
  5
103
330
1F
100
AcDbEntity
  8
MECHANICAL1
100
AcDbPolyline
 90
        2
 70
     1
 43
0.00635
 10
418.33122074
 20
147.67023298
 42
1.0
 10
418.33757074
 20
147.67023298
 42
1.0
  0
LWPOLYLINE
  5
104
330
1F
100
AcDbEntity
  8
MECHANICAL1
100
AcDbPolyline
 90
        2
 70
     0
 43
0.0127
 10
399.23439584
 20
148.67023352
 42
-0.414213562372877
 10
398.2343953
 20
149.67023406
  0
LWPOLYLINE
  5
105
330
1F
100
AcDbEntity
  8
MECHANICAL1
100
AcDbPolyline
 90
        2
 70
     1
 43
0.00635
 10
399.23122084
 20
148.67023352
 42
1.0
 10
399.23757084
 20
148.67023352
 42
1.0
  0
LWPOLYLINE
  5
106
330
1F
100
AcDbEntity
  8
MECHANICAL1
100
AcDbPolyline
 90
        2
 70
     1
 43
0.00635
 10
398.2312203
 20
149.67023406
 42
1.0
 10
398.2375703
 20
149.67023406
 42
1.0
  0
LWPOLYLINE
  5
107
330
1F
100
AcDbEntity
  8
MECHANICAL1
100
AcDbPolyline
 90
        2
 70
     0
 43
0.0127
 10
392.87372276
 20
153.72661914
 42
-0.558129274787679
 10
398.2343953
 20
150.4202351
  0
LWPOLYLINE
  5
108
330
1F
100
AcDbEntity
  8
MECHANICAL1
100
AcDbPolyline
 90
        2
 70
     1
 43
0.00635
 10
392.87054776
 20
153.72661914
 42
1.0
 10
392.87689776
 20
153.72661914
 42
1.0
  0
LWPOLYLINE
  5
109
330
1F
100
AcDbEntity
  8
MECHANICAL1
100
AcDbPolyline
 90
        2
 70
     1
 43
0.00635
 10
398.2312203
 20
150.4202351
 42
1.0
 10
398.2375703
 20
150.4202351
 42
1.0
  0
LWPOLYLINE
  5
10A
330
1F
100
AcDbEntity
  8
MECHANICAL1
100
AcDbPolyline
 90
        2
 70
     0
 43
0.0127
 10
392.87372276
 20
153.7266166
 42
-0.1168920557901072
 10
392.42489206
 20
153.62023378
  0
LWPOLYLINE
  5
10B
330
1F
100
AcDbEntity
  8
MECHANICAL1
100
AcDbPolyline
 90
        2
 70
     1
 43
0.00635
 10
392.87054776
 20
153.7266166
 42
1.0
 10
392.87689776
 20
153.7266166
 42
1.0
  0
LWPOLYLINE
  5
10C
330
1F
100
AcDbEntity
  8
MECHANICAL1
100
AcDbPolyline
 90
        2
 70
     1
 43
0.00635
 10
392.42171706
 20
153.62023378
 42
1.0
 10
392.42806706
 20
153.62023378
 42
1.0
  0
LWPOLYLINE
  5
10D
330
1F
100
AcDbEntity
  8
MECHANICAL1
100
AcDbPolyline
 90
        2
 70
     0
 43
0.0127
 10
386.33439624
 20
153.62023378
 42
-0.414213562372877
 10
385.83439724
 20
154.12023278
  0
LWPOLYLINE
  5
10E
330
1F
100
AcDbEntity
  8
MECHANICAL1
100
AcDbPolyline
 90
        2
 70
     1
 43
0.00635
 10
386.33122124
 20
153.62023378
 42
1.0
 10
386.33757124
 20
153.62023378
 42
1.0
  0
LWPOLYLINE
  5
10F
330
1F
100
AcDbEntity
  8
MECHANICAL1
100
AcDbPolyline
 90
        2
 70
     1
 43
0.00635
 10
385.83122224
 20
154.12023278
 42
1.0
 10
385.83757224
 20
154.12023278
 42
1.0
  0
LWPOLYLINE
  5
110
330
1F
100
AcDbEntity
  8
MECHANICAL1
100
AcDbPolyline
 90
        2
 70
     0
 43
0.0127
 10
385.83439724
 20
163.2202349
 42
-0.414213562372877
 10
386.33439624
 20
163.7202339
  0
LWPOLYLINE
  5
111
330
1F
100
AcDbEntity
  8
MECHANICAL1
100
AcDbPolyline
 90
        2
 70
     1
 43
0.00635
 10
385.83122224
 20
163.2202349
 42
1.0
 10
385.83757224
 20
163.2202349
 42
1.0
  0
LWPOLYLINE
  5
112
330
1F
100
AcDbEntity
  8
MECHANICAL1
100
AcDbPolyline
 90
        2
 70
     1
 43
0.00635
 10
386.33122124
 20
163.7202339
 42
1.0
 10
386.33757124
 20
163.7202339
 42
1.0
  0
LWPOLYLINE
  5
113
330
1F
100
AcDbEntity
  8
PADHOLELAYER
100
AcDbPolyline
 90
        2
 70
     1
 43
0.5999987999999999
 10
444.88439852
 20
154.5452332
 42
1.0
 10
445.48439732
 20
154.5452332
 42
1.0
  0
LWPOLYLINE
  5
114
330
1F
100
AcDbEntity
  8
PADHOLELAYER
100
AcDbPolyline
 90
        2
 70
     1
 43
0.5999987999999999
 10
399.18439594
 20
154.5452332
 42
1.0
 10
399.78439474
 20
154.5452332
 42
1.0
  0
LINE
  5
115
330
1F
100
AcDbEntity
  8
TOPOVERLAY
100
AcDbLine
 10
390.60676006
 20
90.25259826
 30
0.0
 11
390.60676006
 21
86.75334694
 31
0.0
  0
LINE
  5
116
330
1F
100
AcDbEntity
  8
TOPOVERLAY
100
AcDbLine
 10
389.4403438
 20
90.25259826
 30
0.0
 11
391.77317632
 21
90.25259826
 31
0.0
  0
LINE
  5
117
330
1F
100
AcDbEntity
  8
TOPOVERLAY
100
AcDbLine
 10
393.02290966
 20
89.08617946
 30
0.0
 11
392.68964642
 21
88.91955037999999
 31
0.0
  0
LINE
  5
118
330
1F
100
AcDbEntity
  8
TOPOVERLAY
100
AcDbLine
 10
392.68964642
 20
88.91955037999999
 30
0.0
 11
392.35638572
 21
88.58628714
 31
0.0
  0
LINE
  5
119
330
1F
100
AcDbEntity
  8
TOPOVERLAY
100
AcDbLine
 10
392.35638572
 20
88.58628714
 30
0.0
 11
392.1897541
 21
88.08639482
 31
0.0
  0
LINE
  5
11A
330
1F
100
AcDbEntity
  8
TOPOVERLAY
100
AcDbLine
 10
392.1897541
 20
88.08639482
 30
0.0
 11
392.1897541
 21
87.75313158
 31
0.0
  0
LINE
  5
11B
330
1F
100
AcDbEntity
  8
TOPOVERLAY
100
AcDbLine
 10
392.1897541
 20
87.75313158
 30
0.0
 11
392.35638572
 21
87.25323926
 31
0.0
  0
LINE
  5
11C
330
1F
100
AcDbEntity
  8
TOPOVERLAY
100
AcDbLine
 10
392.35638572
 20
87.25323926
 30
0.0
 11
392.68964642
 21
86.91997855999999
 31
0.0
  0
LINE
  5
11D
330
1F
100
AcDbEntity
  8
TOPOVERLAY
100
AcDbLine
 10
392.68964642
 20
86.91997855999999
 30
0.0
 11
393.02290966
 21
86.75334694
 31
0.0
  0
LINE
  5
11E
330
1F
100
AcDbEntity
  8
TOPOVERLAY
100
AcDbLine
 10
393.02290966
 20
86.75334694
 30
0.0
 11
393.52280198
 21
86.75334694
 31
0.0
  0
LINE
  5
11F
330
1F
100
AcDbEntity
  8
TOPOVERLAY
100
AcDbLine
 10
393.52280198
 20
86.75334694
 30
0.0
 11
393.85606522
 21
86.91997855999999
 31
0.0
  0
LINE
  5
120
330
1F
100
AcDbEntity
  8
TOPOVERLAY
100
AcDbLine
 10
393.85606522
 20
86.91997855999999
 30
0.0
 11
394.18932592
 21
87.25323926
 31
0.0
  0
LINE
  5
121
330
1F
100
AcDbEntity
  8
TOPOVERLAY
100
AcDbLine
 10
394.18932592
 20
87.25323926
 30
0.0
 11
394.35595754
 21
87.75313158
 31
0.0
  0
LINE
  5
122
330
1F
100
AcDbEntity
  8
TOPOVERLAY
100
AcDbLine
 10
394.35595754
 20
87.75313158
 30
0.0
 11
394.35595754
 21
88.08639482
 31
0.0
  0
LINE
  5
123
330
1F
100
AcDbEntity
  8
TOPOVERLAY
100
AcDbLine
 10
394.35595754
 20
88.08639482
 30
0.0
 11
394.18932592
 21
88.58628714
 31
0.0
  0
LINE
  5
124
330
1F
100
AcDbEntity
  8
TOPOVERLAY
100
AcDbLine
 10
394.18932592
 20
88.58628714
 30
0.0
 11
393.85606522
 21
88.91955037999999
 31
0.0
  0
LINE
  5
125
330
1F
100
AcDbEntity
  8
TOPOVERLAY
100
AcDbLine
 10
393.85606522
 20
88.91955037999999
 30
0.0
 11
393.52280198
 21
89.08617946
 31
0.0
  0
LINE
  5
126
330
1F
100
AcDbEntity
  8
TOPOVERLAY
100
AcDbLine
 10
393.52280198
 20
89.08617946
 30
0.0
 11
393.02290966
 21
89.08617946
 31
0.0
  0
LINE
  5
127
330
1F
100
AcDbEntity
  8
TOPOVERLAY
100
AcDbLine
 10
395.12245842
 20
89.08617946
 30
0.0
 11
395.12245842
 21
85.58693068
 31
0.0
  0
LINE
  5
128
330
1F
100
AcDbEntity
  8
TOPOVERLAY
100
AcDbLine
 10
395.12245842
 20
88.58628714
 30
0.0
 11
395.45572166
 21
88.91955037999999
 31
0.0
  0
LINE
  5
129
330
1F
100
AcDbEntity
  8
TOPOVERLAY
100
AcDbLine
 10
395.45572166
 20
88.91955037999999
 30
0.0
 11
395.78898236
 21
89.08617946
 31
0.0
  0
LINE
  5
12A
330
1F
100
AcDbEntity
  8
TOPOVERLAY
100
AcDbLine
 10
395.78898236
 20
89.08617946
 30
0.0
 11
396.28887468
 21
89.08617946
 31
0.0
  0
LINE
  5
12B
330
1F
100
AcDbEntity
  8
TOPOVERLAY
100
AcDbLine
 10
396.28887468
 20
89.08617946
 30
0.0
 11
396.62213792
 21
88.91955037999999
 31
0.0
  0
LINE
  5
12C
330
1F
100
AcDbEntity
  8
TOPOVERLAY
100
AcDbLine
 10
396.62213792
 20
88.91955037999999
 30
0.0
 11
396.95539862
 21
88.58628714
 31
0.0
  0
LINE
  5
12D
330
1F
100
AcDbEntity
  8
TOPOVERLAY
100
AcDbLine
 10
396.95539862
 20
88.58628714
 30
0.0
 11
397.12203024
 21
88.08639482
 31
0.0
  0
LINE
  5
12E
330
1F
100
AcDbEntity
  8
TOPOVERLAY
100
AcDbLine
 10
397.12203024
 20
88.08639482
 30
0.0
 11
397.12203024
 21
87.75313158
 31
0.0
  0
LINE
  5
12F
330
1F
100
AcDbEntity
  8
TOPOVERLAY
100
AcDbLine
 10
397.12203024
 20
87.75313158
 30
0.0
 11
396.95539862
 21
87.25323926
 31
0.0
  0
LINE
  5
130
330
1F
100
AcDbEntity
  8
TOPOVERLAY
100
AcDbLine
 10
396.95539862
 20
87.25323926
 30
0.0
 11
396.62213792
 21
86.91997855999999
 31
0.0
  0
LINE
  5
131
330
1F
100
AcDbEntity
  8
TOPOVERLAY
100
AcDbLine
 10
396.62213792
 20
86.91997855999999
 30
0.0
 11
396.28887468
 21
86.75334694
 31
0.0
  0
LINE
  5
132
330
1F
100
AcDbEntity
  8
TOPOVERLAY
100
AcDbLine
 10
396.28887468
 20
86.75334694
 30
0.0
 11
395.78898236
 21
86.75334694
 31
0.0
  0
LINE
  5
133
330
1F
100
AcDbEntity
  8
TOPOVERLAY
100
AcDbLine
 10
395.78898236
 20
86.75334694
 30
0.0
 11
395.45572166
 21
86.91997855999999
 31
0.0
  0
LINE
  5
134
330
1F
100
AcDbEntity
  8
TOPOVERLAY
100
AcDbLine
 10
395.45572166
 20
86.91997855999999
 30
0.0
 11
395.12245842
 21
87.25323926
 31
0.0
  0
LINE
  5
135
330
1F
100
AcDbEntity
  8
TOPOVERLAY
100
AcDbLine
 10
401.62106366
 20
90.25259826
 30
0.0
 11
401.28780296
 21
90.08596664
 31
0.0
  0
LINE
  5
136
330
1F
100
AcDbEntity
  8
TOPOVERLAY
100
AcDbLine
 10
401.28780296
 20
90.08596664
 30
0.0
 11
400.95454226
 21
89.75270594
 31
0.0
  0
LINE
  5
137
330
1F
100
AcDbEntity
  8
TOPOVERLAY
100
AcDbLine
 10
400.95454226
 20
89.75270594
 30
0.0
 11
400.78791064
 21
89.41944269999999
 31
0.0
  0
LINE
  5
138
330
1F
100
AcDbEntity
  8
TOPOVERLAY
100
AcDbLine
 10
400.78791064
 20
89.41944269999999
 30
0.0
 11
400.62127902
 21
88.91955037999999
 31
0.0
  0
LINE
  5
139
330
1F
100
AcDbEntity
  8
TOPOVERLAY
100
AcDbLine
 10
400.62127902
 20
88.91955037999999
 30
0.0
 11
400.62127902
 21
88.08639482
 31
0.0
  0
LINE
  5
13A
330
1F
100
AcDbEntity
  8
TOPOVERLAY
100
AcDbLine
 10
400.62127902
 20
88.08639482
 30
0.0
 11
400.78791064
 21
87.5865025
 31
0.0
  0
LINE
  5
13B
330
1F
100
AcDbEntity
  8
TOPOVERLAY
100
AcDbLine
 10
400.78791064
 20
87.5865025
 30
0.0
 11
400.95454226
 21
87.25323926
 31
0.0
  0
LINE
  5
13C
330
1F
100
AcDbEntity
  8
TOPOVERLAY
100
AcDbLine
 10
400.95454226
 20
87.25323926
 30
0.0
 11
401.28780296
 21
86.91997855999999
 31
0.0
  0
LINE
  5
13D
330
1F
100
AcDbEntity
  8
TOPOVERLAY
100
AcDbLine
 10
401.28780296
 20
86.91997855999999
 30
0.0
 11
401.62106366
 21
86.75334694
 31
0.0
  0
LINE
  5
13E
330
1F
100
AcDbEntity
  8
TOPOVERLAY
100
AcDbLine
 10
401.62106366
 20
86.75334694
 30
0.0
 11
402.28759014
 21
86.75334694
 31
0.0
  0
LINE
  5
13F
330
1F
100
AcDbEntity
  8
TOPOVERLAY
100
AcDbLine
 10
402.28759014
 20
86.75334694
 30
0.0
 11
402.62085084
 21
86.91997855999999
 31
0.0
  0
LINE
  5
140
330
1F
100
AcDbEntity
  8
TOPOVERLAY
100
AcDbLine
 10
402.62085084
 20
86.91997855999999
 30
0.0
 11
402.95411154
 21
87.25323926
 31
0.0
  0
LINE
  5
141
330
1F
100
AcDbEntity
  8
TOPOVERLAY
100
AcDbLine
 10
402.95411154
 20
87.25323926
 30
0.0
 11
403.12074316
 21
87.5865025
 31
0.0
  0
LINE
  5
142
330
1F
100
AcDbEntity
  8
TOPOVERLAY
100
AcDbLine
 10
403.12074316
 20
87.5865025
 30
0.0
 11
403.28737478
 21
88.08639482
 31
0.0
  0
LINE
  5
143
330
1F
100
AcDbEntity
  8
TOPOVERLAY
100
AcDbLine
 10
403.28737478
 20
88.08639482
 30
0.0
 11
403.28737478
 21
88.91955037999999
 31
0.0
  0
LINE
  5
144
330
1F
100
AcDbEntity
  8
TOPOVERLAY
100
AcDbLine
 10
403.28737478
 20
88.91955037999999
 30
0.0
 11
403.12074316
 21
89.41944269999999
 31
0.0
  0
LINE
  5
145
330
1F
100
AcDbEntity
  8
TOPOVERLAY
100
AcDbLine
 10
403.12074316
 20
89.41944269999999
 30
0.0
 11
402.95411154
 21
89.75270594
 31
0.0
  0
LINE
  5
146
330
1F
100
AcDbEntity
  8
TOPOVERLAY
100
AcDbLine
 10
402.95411154
 20
89.75270594
 30
0.0
 11
402.62085084
 21
90.08596664
 31
0.0
  0
LINE
  5
147
330
1F
100
AcDbEntity
  8
TOPOVERLAY
100
AcDbLine
 10
402.62085084
 20
90.08596664
 30
0.0
 11
402.28759014
 21
90.25259826
 31
0.0
  0
LINE
  5
148
330
1F
100
AcDbEntity
  8
TOPOVERLAY
100
AcDbLine
 10
402.28759014
 20
90.25259826
 30
0.0
 11
401.62106366
 21
90.25259826
 31
0.0
  0
LINE
  5
149
330
1F
100
AcDbEntity
  8
TOPOVERLAY
100
AcDbLine
 10
404.1038654
 20
89.08617946
 30
0.0
 11
405.10365004
 21
86.75334694
 31
0.0
  0
LINE
  5
14A
330
1F
100
AcDbEntity
  8
TOPOVERLAY
100
AcDbLine
 10
406.10343722
 20
89.08617946
 30
0.0
 11
405.10365004
 21
86.75334694
 31
0.0
  0
LINE
  5
14B
330
1F
100
AcDbEntity
  8
TOPOVERLAY
100
AcDbLine
 10
406.66998168
 20
88.08639482
 30
0.0
 11
408.6695534999999
 21
88.08639482
 31
0.0
  0
LINE
  5
14C
330
1F
100
AcDbEntity
  8
TOPOVERLAY
100
AcDbLine
 10
408.6695534999999
 20
88.08639482
 30
0.0
 11
408.6695534999999
 21
88.41965805999999
 31
0.0
  0
LINE
  5
14D
330
1F
100
AcDbEntity
  8
TOPOVERLAY
100
AcDbLine
 10
408.6695534999999
 20
88.41965805999999
 30
0.0
 11
408.50292188
 21
88.75291876
 31
0.0
  0
LINE
  5
14E
330
1F
100
AcDbEntity
  8
TOPOVERLAY
100
AcDbLine
 10
408.50292188
 20
88.75291876
 30
0.0
 11
408.3362928
 21
88.91955037999999
 31
0.0
  0
LINE
  5
14F
330
1F
100
AcDbEntity
  8
TOPOVERLAY
100
AcDbLine
 10
408.3362928
 20
88.91955037999999
 30
0.0
 11
408.00302956
 21
89.08617946
 31
0.0
  0
LINE
  5
150
330
1F
100
AcDbEntity
  8
TOPOVERLAY
100
AcDbLine
 10
408.00302956
 20
89.08617946
 30
0.0
 11
407.50313724
 21
89.08617946
 31
0.0
  0
LINE
  5
151
330
1F
100
AcDbEntity
  8
TOPOVERLAY
100
AcDbLine
 10
407.50313724
 20
89.08617946
 30
0.0
 11
407.169874
 21
88.91955037999999
 31
0.0
  0
LINE
  5
152
330
1F
100
AcDbEntity
  8
TOPOVERLAY
100
AcDbLine
 10
407.169874
 20
88.91955037999999
 30
0.0
 11
406.8366133
 21
88.58628714
 31
0.0
  0
LINE
  5
153
330
1F
100
AcDbEntity
  8
TOPOVERLAY
100
AcDbLine
 10
406.8366133
 20
88.58628714
 30
0.0
 11
406.66998168
 21
88.08639482
 31
0.0
  0
LINE
  5
154
330
1F
100
AcDbEntity
  8
TOPOVERLAY
100
AcDbLine
 10
406.66998168
 20
88.08639482
 30
0.0
 11
406.66998168
 21
87.75313158
 31
0.0
  0
LINE
  5
155
330
1F
100
AcDbEntity
  8
TOPOVERLAY
100
AcDbLine
 10
406.66998168
 20
87.75313158
 30
0.0
 11
406.8366133
 21
87.25323926
 31
0.0
  0
LINE
  5
156
330
1F
100
AcDbEntity
  8
TOPOVERLAY
100
AcDbLine
 10
406.8366133
 20
87.25323926
 30
0.0
 11
407.169874
 21
86.91997855999999
 31
0.0
  0
LINE
  5
157
330
1F
100
AcDbEntity
  8
TOPOVERLAY
100
AcDbLine
 10
407.169874
 20
86.91997855999999
 30
0.0
 11
407.50313724
 21
86.75334694
 31
0.0
  0
LINE
  5
158
330
1F
100
AcDbEntity
  8
TOPOVERLAY
100
AcDbLine
 10
407.50313724
 20
86.75334694
 30
0.0
 11
408.00302956
 21
86.75334694
 31
0.0
  0
LINE
  5
159
330
1F
100
AcDbEntity
  8
TOPOVERLAY
100
AcDbLine
 10
408.00302956
 20
86.75334694
 30
0.0
 11
408.3362928
 21
86.91997855999999
 31
0.0
  0
LINE
  5
15A
330
1F
100
AcDbEntity
  8
TOPOVERLAY
100
AcDbLine
 10
408.3362928
 20
86.91997855999999
 30
0.0
 11
408.6695534999999
 21
87.25323926
 31
0.0
  0
LINE
  5
15B
330
1F
100
AcDbEntity
  8
TOPOVERLAY
100
AcDbLine
 10
409.41939198
 20
89.08617946
 30
0.0
 11
409.41939198
 21
86.75334694
 31
0.0
  0
LINE
  5
15C
330
1F
100
AcDbEntity
  8
TOPOVERLAY
100
AcDbLine
 10
409.41939198
 20
88.08639482
 30
0.0
 11
409.5860236
 21
88.58628714
 31
0.0
  0
LINE
  5
15D
330
1F
100
AcDbEntity
  8
TOPOVERLAY
100
AcDbLine
 10
409.5860236
 20
88.58628714
 30
0.0
 11
409.9192843
 21
88.91955037999999
 31
0.0
  0
LINE
  5
15E
330
1F
100
AcDbEntity
  8
TOPOVERLAY
100
AcDbLine
 10
409.9192843
 20
88.91955037999999
 30
0.0
 11
410.25254754
 21
89.08617946
 31
0.0
  0
LINE
  5
15F
330
1F
100
AcDbEntity
  8
TOPOVERLAY
100
AcDbLine
 10
410.25254754
 20
89.08617946
 30
0.0
 11
410.75243986
 21
89.08617946
 31
0.0
  0
LINE
  5
160
330
1F
100
AcDbEntity
  8
TOPOVERLAY
100
AcDbLine
 10
411.06903816
 20
90.25259826
 30
0.0
 11
411.06903816
 21
86.75334694
 31
0.0
  0
LINE
  5
161
330
1F
100
AcDbEntity
  8
TOPOVERLAY
100
AcDbLine
 10
413.80178606
 20
89.08617946
 30
0.0
 11
413.80178606
 21
86.75334694
 31
0.0
  0
LINE
  5
162
330
1F
100
AcDbEntity
  8
TOPOVERLAY
100
AcDbLine
 10
413.80178606
 20
88.58628714
 30
0.0
 11
413.46852536
 21
88.91955037999999
 31
0.0
  0
LINE
  5
163
330
1F
100
AcDbEntity
  8
TOPOVERLAY
100
AcDbLine
 10
413.46852536
 20
88.91955037999999
 30
0.0
 11
413.13526212
 21
89.08617946
 31
0.0
  0
LINE
  5
164
330
1F
100
AcDbEntity
  8
TOPOVERLAY
100
AcDbLine
 10
413.13526212
 20
89.08617946
 30
0.0
 11
412.6353698
 21
89.08617946
 31
0.0
  0
LINE
  5
165
330
1F
100
AcDbEntity
  8
TOPOVERLAY
100
AcDbLine
 10
412.6353698
 20
89.08617946
 30
0.0
 11
412.30210656
 21
88.91955037999999
 31
0.0
  0
LINE
  5
166
330
1F
100
AcDbEntity
  8
TOPOVERLAY
100
AcDbLine
 10
412.30210656
 20
88.91955037999999
 30
0.0
 11
411.96884586
 21
88.58628714
 31
0.0
  0
LINE
  5
167
330
1F
100
AcDbEntity
  8
TOPOVERLAY
100
AcDbLine
 10
411.96884586
 20
88.58628714
 30
0.0
 11
411.80221424
 21
88.08639482
 31
0.0
  0
LINE
  5
168
330
1F
100
AcDbEntity
  8
TOPOVERLAY
100
AcDbLine
 10
411.80221424
 20
88.08639482
 30
0.0
 11
411.80221424
 21
87.75313158
 31
0.0
  0
LINE
  5
169
330
1F
100
AcDbEntity
  8
TOPOVERLAY
100
AcDbLine
 10
411.80221424
 20
87.75313158
 30
0.0
 11
411.96884586
 21
87.25323926
 31
0.0
  0
LINE
  5
16A
330
1F
100
AcDbEntity
  8
TOPOVERLAY
100
AcDbLine
 10
411.96884586
 20
87.25323926
 30
0.0
 11
412.30210656
 21
86.91997855999999
 31
0.0
  0
LINE
  5
16B
330
1F
100
AcDbEntity
  8
TOPOVERLAY
100
AcDbLine
 10
412.30210656
 20
86.91997855999999
 30
0.0
 11
412.6353698
 21
86.75334694
 31
0.0
  0
LINE
  5
16C
330
1F
100
AcDbEntity
  8
TOPOVERLAY
100
AcDbLine
 10
412.6353698
 20
86.75334694
 30
0.0
 11
413.13526212
 21
86.75334694
 31
0.0
  0
LINE
  5
16D
330
1F
100
AcDbEntity
  8
TOPOVERLAY
100
AcDbLine
 10
413.13526212
 20
86.75334694
 30
0.0
 11
413.46852536
 21
86.91997855999999
 31
0.0
  0
LINE
  5
16E
330
1F
100
AcDbEntity
  8
TOPOVERLAY
100
AcDbLine
 10
413.46852536
 20
86.91997855999999
 30
0.0
 11
413.80178606
 21
87.25323926
 31
0.0
  0
LINE
  5
16F
330
1F
100
AcDbEntity
  8
TOPOVERLAY
100
AcDbLine
 10
414.90155018
 20
89.08617946
 30
0.0
 11
415.90133482
 21
86.75334694
 31
0.0
  0
LINE
  5
170
330
1F
100
AcDbEntity
  8
TOPOVERLAY
100
AcDbLine
 10
416.901122
 20
89.08617946
 30
0.0
 11
415.90133482
 21
86.75334694
 31
0.0
  0
LINE
  5
171
330
1F
100
AcDbEntity
  8
TOPOVERLAY
100
AcDbLine
 10
415.90133482
 20
86.75334694
 30
0.0
 11
415.5680741199999
 21
86.086823
 31
0.0
  0
LINE
  5
172
330
1F
100
AcDbEntity
  8
TOPOVERLAY
100
AcDbLine
 10
415.5680741199999
 20
86.086823
 30
0.0
 11
415.23481088
 21
85.7535623
 31
0.0
  0
LINE
  5
173
330
1F
100
AcDbEntity
  8
TOPOVERLAY
100
AcDbLine
 10
415.23481088
 20
85.7535623
 30
0.0
 11
414.90155018
 21
85.58693068
 31
0.0
  0
LINE
  5
174
330
1F
100
AcDbEntity
  8
TOPOVERLAY
100
AcDbLine
 10
414.90155018
 20
85.58693068
 30
0.0
 11
414.73491856
 21
85.58693068
 31
0.0
  0
LINE
  5
175
330
1F
100
AcDbEntity
  8
TOPOVERLAY
100
AcDbLine
 10
420.73685474
 20
167.58610628
 30
0.0
 11
421.1367244
 21
167.58610628
 31
0.0
  0
LINE
  5
176
330
1F
100
AcDbEntity
  8
TOPOVERLAY
100
AcDbLine
 10
421.1367244
 20
167.58610628
 30
0.0
 11
420.93679084
 21
167.58610628
 31
0.0
  0
LINE
  5
177
330
1F
100
AcDbEntity
  8
TOPOVERLAY
100
AcDbLine
 10
420.93679084
 20
167.58610628
 30
0.0
 11
420.93679084
 21
168.7857178
 31
0.0
  0
LINE
  5
178
330
1F
100
AcDbEntity
  8
TOPOVERLAY
100
AcDbLine
 10
420.93679084
 20
168.7857178
 30
0.0
 11
420.73685474
 21
168.58578424
 31
0.0
  0
LINE
  5
179
330
1F
100
AcDbEntity
  8
TOPOVERLAY
100
AcDbLine
 10
421.7365327
 20
168.58578424
 30
0.0
 11
421.9364688
 21
168.7857178
 31
0.0
  0
LINE
  5
17A
330
1F
100
AcDbEntity
  8
TOPOVERLAY
100
AcDbLine
 10
421.9364688
 20
168.7857178
 30
0.0
 11
422.33633846
 21
168.7857178
 31
0.0
  0
LINE
  5
17B
330
1F
100
AcDbEntity
  8
TOPOVERLAY
100
AcDbLine
 10
422.33633846
 20
168.7857178
 30
0.0
 11
422.53627456
 21
168.58578424
 31
0.0
  0
LINE
  5
17C
330
1F
100
AcDbEntity
  8
TOPOVERLAY
100
AcDbLine
 10
422.53627456
 20
168.58578424
 30
0.0
 11
422.53627456
 21
167.78604238
 31
0.0
  0
LINE
  5
17D
330
1F
100
AcDbEntity
  8
TOPOVERLAY
100
AcDbLine
 10
422.53627456
 20
167.78604238
 30
0.0
 11
422.33633846
 21
167.58610628
 31
0.0
  0
LINE
  5
17E
330
1F
100
AcDbEntity
  8
TOPOVERLAY
100
AcDbLine
 10
422.33633846
 20
167.58610628
 30
0.0
 11
421.9364688
 21
167.58610628
 31
0.0
  0
LINE
  5
17F
330
1F
100
AcDbEntity
  8
TOPOVERLAY
100
AcDbLine
 10
421.9364688
 20
167.58610628
 30
0.0
 11
421.7365327
 21
167.78604238
 31
0.0
  0
LINE
  5
180
330
1F
100
AcDbEntity
  8
TOPOVERLAY
100
AcDbLine
 10
421.7365327
 20
167.78604238
 30
0.0
 11
421.7365327
 21
168.58578424
 31
0.0
  0
LINE
  5
181
330
1F
100
AcDbEntity
  8
TOPOVERLAY
100
AcDbLine
 10
422.93614422
 20
168.58578424
 30
0.0
 11
423.13608032
 21
168.7857178
 31
0.0
  0
LINE
  5
182
330
1F
100
AcDbEntity
  8
TOPOVERLAY
100
AcDbLine
 10
423.13608032
 20
168.7857178
 30
0.0
 11
423.53594998
 21
168.7857178
 31
0.0
  0
LINE
  5
183
330
1F
100
AcDbEntity
  8
TOPOVERLAY
100
AcDbLine
 10
423.53594998
 20
168.7857178
 30
0.0
 11
423.73588608
 21
168.58578424
 31
0.0
  0
LINE
  5
184
330
1F
100
AcDbEntity
  8
TOPOVERLAY
100
AcDbLine
 10
423.73588608
 20
168.58578424
 30
0.0
 11
423.73588608
 21
167.78604238
 31
0.0
  0
LINE
  5
185
330
1F
100
AcDbEntity
  8
TOPOVERLAY
100
AcDbLine
 10
423.73588608
 20
167.78604238
 30
0.0
 11
423.53594998
 21
167.58610628
 31
0.0
  0
LINE
  5
186
330
1F
100
AcDbEntity
  8
TOPOVERLAY
100
AcDbLine
 10
423.53594998
 20
167.58610628
 30
0.0
 11
423.13608032
 21
167.58610628
 31
0.0
  0
LINE
  5
187
330
1F
100
AcDbEntity
  8
TOPOVERLAY
100
AcDbLine
 10
423.13608032
 20
167.58610628
 30
0.0
 11
422.93614422
 21
167.78604238
 31
0.0
  0
LINE
  5
188
330
1F
100
AcDbEntity
  8
TOPOVERLAY
100
AcDbLine
 10
422.93614422
 20
167.78604238
 30
0.0
 11
422.93614422
 21
168.58578424
 31
0.0
  0
LINE
  5
189
330
1F
100
AcDbEntity
  8
TOPOVERLAY
100
AcDbLine
 10
424.13575574
 20
168.58578424
 30
0.0
 11
424.33569184
 21
168.7857178
 31
0.0
  0
LINE
  5
18A
330
1F
100
AcDbEntity
  8
TOPOVERLAY
100
AcDbLine
 10
424.33569184
 20
168.7857178
 30
0.0
 11
424.7355615
 21
168.7857178
 31
0.0
  0
LINE
  5
18B
330
1F
100
AcDbEntity
  8
TOPOVERLAY
100
AcDbLine
 10
424.7355615
 20
168.7857178
 30
0.0
 11
424.9354976
 21
168.58578424
 31
0.0
  0
LINE
  5
18C
330
1F
100
AcDbEntity
  8
TOPOVERLAY
100
AcDbLine
 10
424.9354976
 20
168.58578424
 30
0.0
 11
424.9354976
 21
168.38584814
 31
0.0
  0
LINE
  5
18D
330
1F
100
AcDbEntity
  8
TOPOVERLAY
100
AcDbLine
 10
424.9354976
 20
168.38584814
 30
0.0
 11
424.7355615
 21
168.18591204
 31
0.0
  0
LINE
  5
18E
330
1F
100
AcDbEntity
  8
TOPOVERLAY
100
AcDbLine
 10
424.7355615
 20
168.18591204
 30
0.0
 11
424.9354976
 21
167.98597594
 31
0.0
  0
LINE
  5
18F
330
1F
100
AcDbEntity
  8
TOPOVERLAY
100
AcDbLine
 10
424.9354976
 20
167.98597594
 30
0.0
 11
424.9354976
 21
167.78604238
 31
0.0
  0
LINE
  5
190
330
1F
100
AcDbEntity
  8
TOPOVERLAY
100
AcDbLine
 10
424.9354976
 20
167.78604238
 30
0.0
 11
424.7355615
 21
167.58610628
 31
0.0
  0
LINE
  5
191
330
1F
100
AcDbEntity
  8
TOPOVERLAY
100
AcDbLine
 10
424.7355615
 20
167.58610628
 30
0.0
 11
424.33569184
 21
167.58610628
 31
0.0
  0
LINE
  5
192
330
1F
100
AcDbEntity
  8
TOPOVERLAY
100
AcDbLine
 10
424.33569184
 20
167.58610628
 30
0.0
 11
424.13575574
 21
167.78604238
 31
0.0
  0
LINE
  5
193
330
1F
100
AcDbEntity
  8
TOPOVERLAY
100
AcDbLine
 10
424.13575574
 20
167.78604238
 30
0.0
 11
424.13575574
 21
167.98597594
 31
0.0
  0
LINE
  5
194
330
1F
100
AcDbEntity
  8
TOPOVERLAY
100
AcDbLine
 10
424.13575574
 20
167.98597594
 30
0.0
 11
424.33569184
 21
168.18591204
 31
0.0
  0
LINE
  5
195
330
1F
100
AcDbEntity
  8
TOPOVERLAY
100
AcDbLine
 10
424.33569184
 20
168.18591204
 30
0.0
 11
424.13575574
 21
168.38584814
 31
0.0
  0
LINE
  5
196
330
1F
100
AcDbEntity
  8
TOPOVERLAY
100
AcDbLine
 10
424.13575574
 20
168.38584814
 30
0.0
 11
424.13575574
 21
168.58578424
 31
0.0
  0
LINE
  5
197
330
1F
100
AcDbEntity
  8
TOPOVERLAY
100
AcDbLine
 10
424.33569184
 20
168.18591204
 30
0.0
 11
424.7355615
 21
168.18591204
 31
0.0
  0
LINE
  5
198
330
1F
100
AcDbEntity
  8
TOPOVERLAY
100
AcDbLine
 10
425.33536726
 20
168.7857178
 30
0.0
 11
426.13510912
 21
168.7857178
 31
0.0
  0
LINE
  5
199
330
1F
100
AcDbEntity
  8
TOPOVERLAY
100
AcDbLine
 10
426.13510912
 20
168.7857178
 30
0.0
 11
426.13510912
 21
168.58578424
 31
0.0
  0
LINE
  5
19A
330
1F
100
AcDbEntity
  8
TOPOVERLAY
100
AcDbLine
 10
426.13510912
 20
168.58578424
 30
0.0
 11
425.33536726
 21
167.78604238
 31
0.0
  0
LINE
  5
19B
330
1F
100
AcDbEntity
  8
TOPOVERLAY
100
AcDbLine
 10
425.33536726
 20
167.78604238
 30
0.0
 11
425.33536726
 21
167.58610628
 31
0.0
  0
LINE
  5
19C
330
1F
100
AcDbEntity
  8
TOPOVERLAY
100
AcDbLine
 10
426.53497878
 20
168.58578424
 30
0.0
 11
426.73491488
 21
168.7857178
 31
0.0
  0
LINE
  5
19D
330
1F
100
AcDbEntity
  8
TOPOVERLAY
100
AcDbLine
 10
426.73491488
 20
168.7857178
 30
0.0
 11
427.13478454
 21
168.7857178
 31
0.0
  0
LINE
  5
19E
330
1F
100
AcDbEntity
  8
TOPOVERLAY
100
AcDbLine
 10
427.13478454
 20
168.7857178
 30
0.0
 11
427.33472064
 21
168.58578424
 31
0.0
  0
LINE
  5
19F
330
1F
100
AcDbEntity
  8
TOPOVERLAY
100
AcDbLine
 10
427.33472064
 20
168.58578424
 30
0.0
 11
427.33472064
 21
167.78604238
 31
0.0
  0
LINE
  5
1A0
330
1F
100
AcDbEntity
  8
TOPOVERLAY
100
AcDbLine
 10
427.33472064
 20
167.78604238
 30
0.0
 11
427.13478454
 21
167.58610628
 31
0.0
  0
LINE
  5
1A1
330
1F
100
AcDbEntity
  8
TOPOVERLAY
100
AcDbLine
 10
427.13478454
 20
167.58610628
 30
0.0
 11
426.73491488
 21
167.58610628
 31
0.0
  0
LINE
  5
1A2
330
1F
100
AcDbEntity
  8
TOPOVERLAY
100
AcDbLine
 10
426.73491488
 20
167.58610628
 30
0.0
 11
426.53497878
 21
167.78604238
 31
0.0
  0
LINE
  5
1A3
330
1F
100
AcDbEntity
  8
TOPOVERLAY
100
AcDbLine
 10
426.53497878
 20
167.78604238
 30
0.0
 11
426.53497878
 21
168.58578424
 31
0.0
  0
LINE
  5
1A4
330
1F
100
AcDbEntity
  8
TOPOVERLAY
100
AcDbLine
 10
429.00939598
 20
167.67023362
 30
0.0
 11
429.00939598
 21
168.86984514
 31
0.0
  0
LINE
  5
1A5
330
1F
100
AcDbEntity
  8
TOPOVERLAY
100
AcDbLine
 10
429.00939598
 20
168.86984514
 30
0.0
 11
429.60920174
 21
168.86984514
 31
0.0
  0
LINE
  5
1A6
330
1F
100
AcDbEntity
  8
TOPOVERLAY
100
AcDbLine
 10
429.60920174
 20
168.86984514
 30
0.0
 11
429.8091378399999
 21
168.66991158
 31
0.0
  0
LINE
  5
1A7
330
1F
100
AcDbEntity
  8
TOPOVERLAY
100
AcDbLine
 10
429.8091378399999
 20
168.66991158
 30
0.0
 11
429.8091378399999
 21
168.27003938
 31
0.0
  0
LINE
  5
1A8
330
1F
100
AcDbEntity
  8
TOPOVERLAY
100
AcDbLine
 10
429.8091378399999
 20
168.27003938
 30
0.0
 11
429.60920174
 21
168.07010328
 31
0.0
  0
LINE
  5
1A9
330
1F
100
AcDbEntity
  8
TOPOVERLAY
100
AcDbLine
 10
429.60920174
 20
168.07010328
 30
0.0
 11
429.00939598
 21
168.07010328
 31
0.0
  0
LINE
  5
1AA
330
1F
100
AcDbEntity
  8
TOPOVERLAY
100
AcDbLine
 10
429.40926564
 20
168.07010328
 30
0.0
 11
429.8091378399999
 21
167.67023362
 31
0.0
  0
LINE
  5
1AB
330
1F
100
AcDbEntity
  8
TOPOVERLAY
100
AcDbLine
 10
431.00874936
 20
168.86984514
 30
0.0
 11
430.2090075
 21
168.86984514
 31
0.0
  0
LINE
  5
1AC
330
1F
100
AcDbEntity
  8
TOPOVERLAY
100
AcDbLine
 10
430.2090075
 20
168.86984514
 30
0.0
 11
430.2090075
 21
167.67023362
 31
0.0
  0
LINE
  5
1AD
330
1F
100
AcDbEntity
  8
TOPOVERLAY
100
AcDbLine
 10
430.2090075
 20
167.67023362
 30
0.0
 11
431.00874936
 21
167.67023362
 31
0.0
  0
LINE
  5
1AE
330
1F
100
AcDbEntity
  8
TOPOVERLAY
100
AcDbLine
 10
430.2090075
 20
168.27003938
 30
0.0
 11
430.60887716
 21
168.27003938
 31
0.0
  0
LINE
  5
1AF
330
1F
100
AcDbEntity
  8
TOPOVERLAY
100
AcDbLine
 10
431.40861902
 20
168.86984514
 30
0.0
 11
431.40861902
 21
168.07010328
 31
0.0
  0
LINE
  5
1B0
330
1F
100
AcDbEntity
  8
TOPOVERLAY
100
AcDbLine
 10
431.40861902
 20
168.07010328
 30
0.0
 11
431.80848868
 21
167.67023362
 31
0.0
  0
LINE
  5
1B1
330
1F
100
AcDbEntity
  8
TOPOVERLAY
100
AcDbLine
 10
431.80848868
 20
167.67023362
 30
0.0
 11
432.20836088
 21
168.07010328
 31
0.0
  0
LINE
  5
1B2
330
1F
100
AcDbEntity
  8
TOPOVERLAY
100
AcDbLine
 10
432.20836088
 20
168.07010328
 30
0.0
 11
432.20836088
 21
168.86984514
 31
0.0
  0
LINE
  5
1B3
330
1F
100
AcDbEntity
  8
TOPOVERLAY
100
AcDbLine
 10
420.73685474
 20
170.85733926
 30
0.0
 11
420.73685474
 21
169.65772774
 31
0.0
  0
LINE
  5
1B4
330
1F
100
AcDbEntity
  8
TOPOVERLAY
100
AcDbLine
 10
420.73685474
 20
169.65772774
 30
0.0
 11
420.73685474
 21
170.2575335
 31
0.0
  0
LINE
  5
1B5
330
1F
100
AcDbEntity
  8
TOPOVERLAY
100
AcDbLine
 10
420.73685474
 20
170.2575335
 30
0.0
 11
421.5365966
 21
170.2575335
 31
0.0
  0
LINE
  5
1B6
330
1F
100
AcDbEntity
  8
TOPOVERLAY
100
AcDbLine
 10
421.5365966
 20
170.2575335
 30
0.0
 11
421.5365966
 21
170.85733926
 31
0.0
  0
LINE
  5
1B7
330
1F
100
AcDbEntity
  8
TOPOVERLAY
100
AcDbLine
 10
421.5365966
 20
170.85733926
 30
0.0
 11
421.5365966
 21
169.65772774
 31
0.0
  0
LINE
  5
1B8
330
1F
100
AcDbEntity
  8
TOPOVERLAY
100
AcDbLine
 10
422.13640236
 20
170.4574696
 30
0.0
 11
422.53627202
 21
170.4574696
 31
0.0
  0
LINE
  5
1B9
330
1F
100
AcDbEntity
  8
TOPOVERLAY
100
AcDbLine
 10
422.53627202
 20
170.4574696
 30
0.0
 11
422.73620812
 21
170.2575335
 31
0.0
  0
LINE
  5
1BA
330
1F
100
AcDbEntity
  8
TOPOVERLAY
100
AcDbLine
 10
422.73620812
 20
170.2575335
 30
0.0
 11
422.73620812
 21
169.65772774
 31
0.0
  0
LINE
  5
1BB
330
1F
100
AcDbEntity
  8
TOPOVERLAY
100
AcDbLine
 10
422.73620812
 20
169.65772774
 30
0.0
 11
422.13640236
 21
169.65772774
 31
0.0
  0
LINE
  5
1BC
330
1F
100
AcDbEntity
  8
TOPOVERLAY
100
AcDbLine
 10
422.13640236
 20
169.65772774
 30
0.0
 11
421.93646626
 21
169.85766384
 31
0.0
  0
LINE
  5
1BD
330
1F
100
AcDbEntity
  8
TOPOVERLAY
100
AcDbLine
 10
421.93646626
 20
169.85766384
 30
0.0
 11
422.13640236
 21
170.0575974
 31
0.0
  0
LINE
  5
1BE
330
1F
100
AcDbEntity
  8
TOPOVERLAY
100
AcDbLine
 10
422.13640236
 20
170.0575974
 30
0.0
 11
422.73620812
 21
170.0575974
 31
0.0
  0
LINE
  5
1BF
330
1F
100
AcDbEntity
  8
TOPOVERLAY
100
AcDbLine
 10
423.13607778
 20
169.65772774
 30
0.0
 11
423.13607778
 21
170.4574696
 31
0.0
  0
LINE
  5
1C0
330
1F
100
AcDbEntity
  8
TOPOVERLAY
100
AcDbLine
 10
423.13607778
 20
170.4574696
 30
0.0
 11
423.73588354
 21
170.4574696
 31
0.0
  0
LINE
  5
1C1
330
1F
100
AcDbEntity
  8
TOPOVERLAY
100
AcDbLine
 10
423.73588354
 20
170.4574696
 30
0.0
 11
423.93581964
 21
170.2575335
 31
0.0
  0
LINE
  5
1C2
330
1F
100
AcDbEntity
  8
TOPOVERLAY
100
AcDbLine
 10
423.93581964
 20
170.2575335
 30
0.0
 11
423.93581964
 21
169.65772774
 31
0.0
  0
LINE
  5
1C3
330
1F
100
AcDbEntity
  8
TOPOVERLAY
100
AcDbLine
 10
425.13543116
 20
170.85733926
 30
0.0
 11
425.13543116
 21
169.65772774
 31
0.0
  0
LINE
  5
1C4
330
1F
100
AcDbEntity
  8
TOPOVERLAY
100
AcDbLine
 10
425.13543116
 20
169.65772774
 30
0.0
 11
424.5356254
 21
169.65772774
 31
0.0
  0
LINE
  5
1C5
330
1F
100
AcDbEntity
  8
TOPOVERLAY
100
AcDbLine
 10
424.5356254
 20
169.65772774
 30
0.0
 11
424.3356893
 21
169.85766384
 31
0.0
  0
LINE
  5
1C6
330
1F
100
AcDbEntity
  8
TOPOVERLAY
100
AcDbLine
 10
424.3356893
 20
169.85766384
 30
0.0
 11
424.3356893
 21
170.2575335
 31
0.0
  0
LINE
  5
1C7
330
1F
100
AcDbEntity
  8
TOPOVERLAY
100
AcDbLine
 10
424.3356893
 20
170.2575335
 30
0.0
 11
424.5356254
 21
170.4574696
 31
0.0
  0
LINE
  5
1C8
330
1F
100
AcDbEntity
  8
TOPOVERLAY
100
AcDbLine
 10
424.5356254
 20
170.4574696
 30
0.0
 11
425.13543116
 21
170.4574696
 31
0.0
  0
LINE
  5
1C9
330
1F
100
AcDbEntity
  8
TOPOVERLAY
100
AcDbLine
 10
425.53530082
 20
169.65772774
 30
0.0
 11
425.93517048
 21
169.65772774
 31
0.0
  0
LINE
  5
1CA
330
1F
100
AcDbEntity
  8
TOPOVERLAY
100
AcDbLine
 10
425.93517048
 20
169.65772774
 30
0.0
 11
425.73523692
 21
169.65772774
 31
0.0
  0
LINE
  5
1CB
330
1F
100
AcDbEntity
  8
TOPOVERLAY
100
AcDbLine
 10
425.73523692
 20
169.65772774
 30
0.0
 11
425.73523692
 21
170.85733926
 31
0.0
  0
LINE
  5
1CC
330
1F
100
AcDbEntity
  8
TOPOVERLAY
100
AcDbLine
 10
425.73523692
 20
170.85733926
 30
0.0
 11
425.53530082
 21
170.85733926
 31
0.0
  0
LINE
  5
1CD
330
1F
100
AcDbEntity
  8
TOPOVERLAY
100
AcDbLine
 10
427.13478454
 20
169.65772774
 30
0.0
 11
426.73491488
 21
169.65772774
 31
0.0
  0
LINE
  5
1CE
330
1F
100
AcDbEntity
  8
TOPOVERLAY
100
AcDbLine
 10
426.73491488
 20
169.65772774
 30
0.0
 11
426.53497878
 21
169.85766384
 31
0.0
  0
LINE
  5
1CF
330
1F
100
AcDbEntity
  8
TOPOVERLAY
100
AcDbLine
 10
426.53497878
 20
169.85766384
 30
0.0
 11
426.53497878
 21
170.2575335
 31
0.0
  0
LINE
  5
1D0
330
1F
100
AcDbEntity
  8
TOPOVERLAY
100
AcDbLine
 10
426.53497878
 20
170.2575335
 30
0.0
 11
426.73491488
 21
170.4574696
 31
0.0
  0
LINE
  5
1D1
330
1F
100
AcDbEntity
  8
TOPOVERLAY
100
AcDbLine
 10
426.73491488
 20
170.4574696
 30
0.0
 11
427.13478454
 21
170.4574696
 31
0.0
  0
LINE
  5
1D2
330
1F
100
AcDbEntity
  8
TOPOVERLAY
100
AcDbLine
 10
427.13478454
 20
170.4574696
 30
0.0
 11
427.33472064
 21
170.2575335
 31
0.0
  0
LINE
  5
1D3
330
1F
100
AcDbEntity
  8
TOPOVERLAY
100
AcDbLine
 10
427.33472064
 20
170.2575335
 30
0.0
 11
427.33472064
 21
170.0575974
 31
0.0
  0
LINE
  5
1D4
330
1F
100
AcDbEntity
  8
TOPOVERLAY
100
AcDbLine
 10
427.33472064
 20
170.0575974
 30
0.0
 11
426.53497878
 21
170.0575974
 31
0.0
  0
LINE
  5
1D5
330
1F
100
AcDbEntity
  8
TOPOVERLAY
100
AcDbLine
 10
428.93420182
 20
170.85733926
 30
0.0
 11
428.93420182
 21
169.65772774
 31
0.0
  0
LINE
  5
1D6
330
1F
100
AcDbEntity
  8
TOPOVERLAY
100
AcDbLine
 10
428.93420182
 20
169.65772774
 30
0.0
 11
429.53400758
 21
169.65772774
 31
0.0
  0
LINE
  5
1D7
330
1F
100
AcDbEntity
  8
TOPOVERLAY
100
AcDbLine
 10
429.53400758
 20
169.65772774
 30
0.0
 11
429.73394368
 21
169.85766384
 31
0.0
  0
LINE
  5
1D8
330
1F
100
AcDbEntity
  8
TOPOVERLAY
100
AcDbLine
 10
429.73394368
 20
169.85766384
 30
0.0
 11
429.73394368
 21
170.0575974
 31
0.0
  0
LINE
  5
1D9
330
1F
100
AcDbEntity
  8
TOPOVERLAY
100
AcDbLine
 10
429.73394368
 20
170.0575974
 30
0.0
 11
429.53400758
 21
170.2575335
 31
0.0
  0
LINE
  5
1DA
330
1F
100
AcDbEntity
  8
TOPOVERLAY
100
AcDbLine
 10
429.53400758
 20
170.2575335
 30
0.0
 11
428.93420182
 21
170.2575335
 31
0.0
  0
LINE
  5
1DB
330
1F
100
AcDbEntity
  8
TOPOVERLAY
100
AcDbLine
 10
428.93420182
 20
170.2575335
 30
0.0
 11
429.53400758
 21
170.2575335
 31
0.0
  0
LINE
  5
1DC
330
1F
100
AcDbEntity
  8
TOPOVERLAY
100
AcDbLine
 10
429.53400758
 20
170.2575335
 30
0.0
 11
429.73394368
 21
170.4574696
 31
0.0
  0
LINE
  5
1DD
330
1F
100
AcDbEntity
  8
TOPOVERLAY
100
AcDbLine
 10
429.73394368
 20
170.4574696
 30
0.0
 11
429.73394368
 21
170.6574057
 31
0.0
  0
LINE
  5
1DE
330
1F
100
AcDbEntity
  8
TOPOVERLAY
100
AcDbLine
 10
429.73394368
 20
170.6574057
 30
0.0
 11
429.53400758
 21
170.85733926
 31
0.0
  0
LINE
  5
1DF
330
1F
100
AcDbEntity
  8
TOPOVERLAY
100
AcDbLine
 10
429.53400758
 20
170.85733926
 30
0.0
 11
428.93420182
 21
170.85733926
 31
0.0
  0
LINE
  5
1E0
330
1F
100
AcDbEntity
  8
TOPOVERLAY
100
AcDbLine
 10
430.13381334
 20
170.4574696
 30
0.0
 11
430.13381334
 21
169.85766384
 31
0.0
  0
LINE
  5
1E1
330
1F
100
AcDbEntity
  8
TOPOVERLAY
100
AcDbLine
 10
430.13381334
 20
169.85766384
 30
0.0
 11
430.33374944
 21
169.65772774
 31
0.0
  0
LINE
  5
1E2
330
1F
100
AcDbEntity
  8
TOPOVERLAY
100
AcDbLine
 10
430.33374944
 20
169.65772774
 30
0.0
 11
430.9335552
 21
169.65772774
 31
0.0
  0
LINE
  5
1E3
330
1F
100
AcDbEntity
  8
TOPOVERLAY
100
AcDbLine
 10
430.9335552
 20
169.65772774
 30
0.0
 11
430.9335552
 21
170.4574696
 31
0.0
  0
LINE
  5
1E4
330
1F
100
AcDbEntity
  8
TOPOVERLAY
100
AcDbLine
 10
431.53336096
 20
170.6574057
 30
0.0
 11
431.53336096
 21
170.4574696
 31
0.0
  0
LINE
  5
1E5
330
1F
100
AcDbEntity
  8
TOPOVERLAY
100
AcDbLine
 10
431.53336096
 20
170.4574696
 30
0.0
 11
431.33342486
 21
170.4574696
 31
0.0
  0
LINE
  5
1E6
330
1F
100
AcDbEntity
  8
TOPOVERLAY
100
AcDbLine
 10
431.33342486
 20
170.4574696
 30
0.0
 11
431.73329452
 21
170.4574696
 31
0.0
  0
LINE
  5
1E7
330
1F
100
AcDbEntity
  8
TOPOVERLAY
100
AcDbLine
 10
431.73329452
 20
170.4574696
 30
0.0
 11
431.53336096
 21
170.4574696
 31
0.0
  0
LINE
  5
1E8
330
1F
100
AcDbEntity
  8
TOPOVERLAY
100
AcDbLine
 10
431.53336096
 20
170.4574696
 30
0.0
 11
431.53336096
 21
169.85766384
 31
0.0
  0
LINE
  5
1E9
330
1F
100
AcDbEntity
  8
TOPOVERLAY
100
AcDbLine
 10
431.53336096
 20
169.85766384
 30
0.0
 11
431.73329452
 21
169.65772774
 31
0.0
  0
LINE
  5
1EA
330
1F
100
AcDbEntity
  8
TOPOVERLAY
100
AcDbLine
 10
432.53303892
 20
170.6574057
 30
0.0
 11
432.53303892
 21
170.4574696
 31
0.0
  0
LINE
  5
1EB
330
1F
100
AcDbEntity
  8
TOPOVERLAY
100
AcDbLine
 10
432.53303892
 20
170.4574696
 30
0.0
 11
432.33310282
 21
170.4574696
 31
0.0
  0
LINE
  5
1EC
330
1F
100
AcDbEntity
  8
TOPOVERLAY
100
AcDbLine
 10
432.33310282
 20
170.4574696
 30
0.0
 11
432.73297248
 21
170.4574696
 31
0.0
  0
LINE
  5
1ED
330
1F
100
AcDbEntity
  8
TOPOVERLAY
100
AcDbLine
 10
432.73297248
 20
170.4574696
 30
0.0
 11
432.53303892
 21
170.4574696
 31
0.0
  0
LINE
  5
1EE
330
1F
100
AcDbEntity
  8
TOPOVERLAY
100
AcDbLine
 10
432.53303892
 20
170.4574696
 30
0.0
 11
432.53303892
 21
169.85766384
 31
0.0
  0
LINE
  5
1EF
330
1F
100
AcDbEntity
  8
TOPOVERLAY
100
AcDbLine
 10
432.53303892
 20
169.85766384
 30
0.0
 11
432.73297248
 21
169.65772774
 31
0.0
  0
LINE
  5
1F0
330
1F
100
AcDbEntity
  8
TOPOVERLAY
100
AcDbLine
 10
433.53271688
 20
169.65772774
 30
0.0
 11
433.93258654
 21
169.65772774
 31
0.0
  0
LINE
  5
1F1
330
1F
100
AcDbEntity
  8
TOPOVERLAY
100
AcDbLine
 10
433.93258654
 20
169.65772774
 30
0.0
 11
434.13252264
 21
169.85766384
 31
0.0
  0
LINE
  5
1F2
330
1F
100
AcDbEntity
  8
TOPOVERLAY
100
AcDbLine
 10
434.13252264
 20
169.85766384
 30
0.0
 11
434.13252264
 21
170.2575335
 31
0.0
  0
LINE
  5
1F3
330
1F
100
AcDbEntity
  8
TOPOVERLAY
100
AcDbLine
 10
434.13252264
 20
170.2575335
 30
0.0
 11
433.93258654
 21
170.4574696
 31
0.0
  0
LINE
  5
1F4
330
1F
100
AcDbEntity
  8
TOPOVERLAY
100
AcDbLine
 10
433.93258654
 20
170.4574696
 30
0.0
 11
433.53271688
 21
170.4574696
 31
0.0
  0
LINE
  5
1F5
330
1F
100
AcDbEntity
  8
TOPOVERLAY
100
AcDbLine
 10
433.53271688
 20
170.4574696
 30
0.0
 11
433.33278078
 21
170.2575335
 31
0.0
  0
LINE
  5
1F6
330
1F
100
AcDbEntity
  8
TOPOVERLAY
100
AcDbLine
 10
433.33278078
 20
170.2575335
 30
0.0
 11
433.33278078
 21
169.85766384
 31
0.0
  0
LINE
  5
1F7
330
1F
100
AcDbEntity
  8
TOPOVERLAY
100
AcDbLine
 10
433.33278078
 20
169.85766384
 30
0.0
 11
433.53271688
 21
169.65772774
 31
0.0
  0
LINE
  5
1F8
330
1F
100
AcDbEntity
  8
TOPOVERLAY
100
AcDbLine
 10
434.5323923
 20
169.65772774
 30
0.0
 11
434.5323923
 21
170.4574696
 31
0.0
  0
LINE
  5
1F9
330
1F
100
AcDbEntity
  8
TOPOVERLAY
100
AcDbLine
 10
434.5323923
 20
170.4574696
 30
0.0
 11
435.13219806
 21
170.4574696
 31
0.0
  0
LINE
  5
1FA
330
1F
100
AcDbEntity
  8
TOPOVERLAY
100
AcDbLine
 10
435.13219806
 20
170.4574696
 30
0.0
 11
435.33213416
 21
170.2575335
 31
0.0
  0
LINE
  5
1FB
330
1F
100
AcDbEntity
  8
TOPOVERLAY
100
AcDbLine
 10
435.33213416
 20
170.2575335
 30
0.0
 11
435.33213416
 21
169.65772774
 31
0.0
  0
LINE
  5
1FC
330
1F
100
AcDbEntity
  8
TOPOVERLAY
100
AcDbLine
 10
436.93161534
 20
170.85733926
 30
0.0
 11
436.93161534
 21
169.65772774
 31
0.0
  0
LINE
  5
1FD
330
1F
100
AcDbEntity
  8
TOPOVERLAY
100
AcDbLine
 10
436.93161534
 20
169.65772774
 30
0.0
 11
437.5314211
 21
169.65772774
 31
0.0
  0
LINE
  5
1FE
330
1F
100
AcDbEntity
  8
TOPOVERLAY
100
AcDbLine
 10
437.5314211
 20
169.65772774
 30
0.0
 11
437.7313572
 21
169.85766384
 31
0.0
  0
LINE
  5
1FF
330
1F
100
AcDbEntity
  8
TOPOVERLAY
100
AcDbLine
 10
437.7313572
 20
169.85766384
 30
0.0
 11
437.7313572
 21
170.0575974
 31
0.0
  0
LINE
  5
200
330
1F
100
AcDbEntity
  8
TOPOVERLAY
100
AcDbLine
 10
437.7313572
 20
170.0575974
 30
0.0
 11
437.5314211
 21
170.2575335
 31
0.0
  0
LINE
  5
201
330
1F
100
AcDbEntity
  8
TOPOVERLAY
100
AcDbLine
 10
437.5314211
 20
170.2575335
 30
0.0
 11
436.93161534
 21
170.2575335
 31
0.0
  0
LINE
  5
202
330
1F
100
AcDbEntity
  8
TOPOVERLAY
100
AcDbLine
 10
436.93161534
 20
170.2575335
 30
0.0
 11
437.5314211
 21
170.2575335
 31
0.0
  0
LINE
  5
203
330
1F
100
AcDbEntity
  8
TOPOVERLAY
100
AcDbLine
 10
437.5314211
 20
170.2575335
 30
0.0
 11
437.7313572
 21
170.4574696
 31
0.0
  0
LINE
  5
204
330
1F
100
AcDbEntity
  8
TOPOVERLAY
100
AcDbLine
 10
437.7313572
 20
170.4574696
 30
0.0
 11
437.7313572
 21
170.6574057
 31
0.0
  0
LINE
  5
205
330
1F
100
AcDbEntity
  8
TOPOVERLAY
100
AcDbLine
 10
437.7313572
 20
170.6574057
 30
0.0
 11
437.5314211
 21
170.85733926
 31
0.0
  0
LINE
  5
206
330
1F
100
AcDbEntity
  8
TOPOVERLAY
100
AcDbLine
 10
437.5314211
 20
170.85733926
 30
0.0
 11
436.93161534
 21
170.85733926
 31
0.0
  0
LINE
  5
207
330
1F
100
AcDbEntity
  8
TOPOVERLAY
100
AcDbLine
 10
438.33116296
 20
169.65772774
 30
0.0
 11
438.73103262
 21
169.65772774
 31
0.0
  0
LINE
  5
208
330
1F
100
AcDbEntity
  8
TOPOVERLAY
100
AcDbLine
 10
438.73103262
 20
169.65772774
 30
0.0
 11
438.93096872
 21
169.85766384
 31
0.0
  0
LINE
  5
209
330
1F
100
AcDbEntity
  8
TOPOVERLAY
100
AcDbLine
 10
438.93096872
 20
169.85766384
 30
0.0
 11
438.93096872
 21
170.2575335
 31
0.0
  0
LINE
  5
20A
330
1F
100
AcDbEntity
  8
TOPOVERLAY
100
AcDbLine
 10
438.93096872
 20
170.2575335
 30
0.0
 11
438.73103262
 21
170.4574696
 31
0.0
  0
LINE
  5
20B
330
1F
100
AcDbEntity
  8
TOPOVERLAY
100
AcDbLine
 10
438.73103262
 20
170.4574696
 30
0.0
 11
438.33116296
 21
170.4574696
 31
0.0
  0
LINE
  5
20C
330
1F
100
AcDbEntity
  8
TOPOVERLAY
100
AcDbLine
 10
438.33116296
 20
170.4574696
 30
0.0
 11
438.13122686
 21
170.2575335
 31
0.0
  0
LINE
  5
20D
330
1F
100
AcDbEntity
  8
TOPOVERLAY
100
AcDbLine
 10
438.13122686
 20
170.2575335
 30
0.0
 11
438.13122686
 21
169.85766384
 31
0.0
  0
LINE
  5
20E
330
1F
100
AcDbEntity
  8
TOPOVERLAY
100
AcDbLine
 10
438.13122686
 20
169.85766384
 30
0.0
 11
438.33116296
 21
169.65772774
 31
0.0
  0
LINE
  5
20F
330
1F
100
AcDbEntity
  8
TOPOVERLAY
100
AcDbLine
 10
439.53077448
 20
170.4574696
 30
0.0
 11
439.93064414
 21
170.4574696
 31
0.0
  0
LINE
  5
210
330
1F
100
AcDbEntity
  8
TOPOVERLAY
100
AcDbLine
 10
439.93064414
 20
170.4574696
 30
0.0
 11
440.13058024
 21
170.2575335
 31
0.0
  0
LINE
  5
211
330
1F
100
AcDbEntity
  8
TOPOVERLAY
100
AcDbLine
 10
440.13058024
 20
170.2575335
 30
0.0
 11
440.13058024
 21
169.65772774
 31
0.0
  0
LINE
  5
212
330
1F
100
AcDbEntity
  8
TOPOVERLAY
100
AcDbLine
 10
440.13058024
 20
169.65772774
 30
0.0
 11
439.53077448
 21
169.65772774
 31
0.0
  0
LINE
  5
213
330
1F
100
AcDbEntity
  8
TOPOVERLAY
100
AcDbLine
 10
439.53077448
 20
169.65772774
 30
0.0
 11
439.33083838
 21
169.85766384
 31
0.0
  0
LINE
  5
214
330
1F
100
AcDbEntity
  8
TOPOVERLAY
100
AcDbLine
 10
439.33083838
 20
169.85766384
 30
0.0
 11
439.53077448
 21
170.0575974
 31
0.0
  0
LINE
  5
215
330
1F
100
AcDbEntity
  8
TOPOVERLAY
100
AcDbLine
 10
439.53077448
 20
170.0575974
 30
0.0
 11
440.13058024
 21
170.0575974
 31
0.0
  0
LINE
  5
216
330
1F
100
AcDbEntity
  8
TOPOVERLAY
100
AcDbLine
 10
440.5304499
 20
170.4574696
 30
0.0
 11
440.5304499
 21
169.65772774
 31
0.0
  0
LINE
  5
217
330
1F
100
AcDbEntity
  8
TOPOVERLAY
100
AcDbLine
 10
440.5304499
 20
169.65772774
 30
0.0
 11
440.5304499
 21
170.0575974
 31
0.0
  0
LINE
  5
218
330
1F
100
AcDbEntity
  8
TOPOVERLAY
100
AcDbLine
 10
440.5304499
 20
170.0575974
 30
0.0
 11
440.730386
 21
170.2575335
 31
0.0
  0
LINE
  5
219
330
1F
100
AcDbEntity
  8
TOPOVERLAY
100
AcDbLine
 10
440.730386
 20
170.2575335
 30
0.0
 11
440.93031956
 21
170.4574696
 31
0.0
  0
LINE
  5
21A
330
1F
100
AcDbEntity
  8
TOPOVERLAY
100
AcDbLine
 10
440.93031956
 20
170.4574696
 30
0.0
 11
441.13025566
 21
170.4574696
 31
0.0
  0
LINE
  5
21B
330
1F
100
AcDbEntity
  8
TOPOVERLAY
100
AcDbLine
 10
442.52980328
 20
170.85733926
 30
0.0
 11
442.52980328
 21
169.65772774
 31
0.0
  0
LINE
  5
21C
330
1F
100
AcDbEntity
  8
TOPOVERLAY
100
AcDbLine
 10
442.52980328
 20
169.65772774
 30
0.0
 11
441.92999752
 21
169.65772774
 31
0.0
  0
LINE
  5
21D
330
1F
100
AcDbEntity
  8
TOPOVERLAY
100
AcDbLine
 10
441.92999752
 20
169.65772774
 30
0.0
 11
441.73006142
 21
169.85766384
 31
0.0
  0
LINE
  5
21E
330
1F
100
AcDbEntity
  8
TOPOVERLAY
100
AcDbLine
 10
441.73006142
 20
169.85766384
 30
0.0
 11
441.73006142
 21
170.2575335
 31
0.0
  0
LINE
  5
21F
330
1F
100
AcDbEntity
  8
TOPOVERLAY
100
AcDbLine
 10
441.73006142
 20
170.2575335
 30
0.0
 11
441.92999752
 21
170.4574696
 31
0.0
  0
LINE
  5
220
330
1F
100
AcDbEntity
  8
TOPOVERLAY
100
AcDbLine
 10
441.92999752
 20
170.4574696
 30
0.0
 11
442.52980328
 21
170.4574696
 31
0.0
  0
LINE
  5
221
330
1F
100
AcDbEntity
  8
TOPPASTE
100
AcDbLine
 10
390.73176108
 20
89.55259712
 30
0.0
 11
390.73176108
 21
86.05334579999999
 31
0.0
  0
LINE
  5
222
330
1F
100
AcDbEntity
  8
TOPPASTE
100
AcDbLine
 10
389.56534482
 20
89.55259712
 30
0.0
 11
391.89817734
 21
89.55259712
 31
0.0
  0
LINE
  5
223
330
1F
100
AcDbEntity
  8
TOPPASTE
100
AcDbLine
 10
393.14791068
 20
88.38617832
 30
0.0
 11
392.81464744
 21
88.21954923999999
 31
0.0
  0
LINE
  5
224
330
1F
100
AcDbEntity
  8
TOPPASTE
100
AcDbLine
 10
392.81464744
 20
88.21954923999999
 30
0.0
 11
392.48138674
 21
87.886286
 31
0.0
  0
LINE
  5
225
330
1F
100
AcDbEntity
  8
TOPPASTE
100
AcDbLine
 10
392.48138674
 20
87.886286
 30
0.0
 11
392.31475512
 21
87.38639368
 31
0.0
  0
LINE
  5
226
330
1F
100
AcDbEntity
  8
TOPPASTE
100
AcDbLine
 10
392.31475512
 20
87.38639368
 30
0.0
 11
392.31475512
 21
87.05313043999999
 31
0.0
  0
LINE
  5
227
330
1F
100
AcDbEntity
  8
TOPPASTE
100
AcDbLine
 10
392.31475512
 20
87.05313043999999
 30
0.0
 11
392.48138674
 21
86.55323811999999
 31
0.0
  0
LINE
  5
228
330
1F
100
AcDbEntity
  8
TOPPASTE
100
AcDbLine
 10
392.48138674
 20
86.55323811999999
 30
0.0
 11
392.81464744
 21
86.21997741999999
 31
0.0
  0
LINE
  5
229
330
1F
100
AcDbEntity
  8
TOPPASTE
100
AcDbLine
 10
392.81464744
 20
86.21997741999999
 30
0.0
 11
393.14791068
 21
86.05334579999999
 31
0.0
  0
LINE
  5
22A
330
1F
100
AcDbEntity
  8
TOPPASTE
100
AcDbLine
 10
393.14791068
 20
86.05334579999999
 30
0.0
 11
393.647803
 21
86.05334579999999
 31
0.0
  0
LINE
  5
22B
330
1F
100
AcDbEntity
  8
TOPPASTE
100
AcDbLine
 10
393.647803
 20
86.05334579999999
 30
0.0
 11
393.98106624
 21
86.21997741999999
 31
0.0
  0
LINE
  5
22C
330
1F
100
AcDbEntity
  8
TOPPASTE
100
AcDbLine
 10
393.98106624
 20
86.21997741999999
 30
0.0
 11
394.31432694
 21
86.55323811999999
 31
0.0
  0
LINE
  5
22D
330
1F
100
AcDbEntity
  8
TOPPASTE
100
AcDbLine
 10
394.31432694
 20
86.55323811999999
 30
0.0
 11
394.48095856
 21
87.05313043999999
 31
0.0
  0
LINE
  5
22E
330
1F
100
AcDbEntity
  8
TOPPASTE
100
AcDbLine
 10
394.48095856
 20
87.05313043999999
 30
0.0
 11
394.48095856
 21
87.38639368
 31
0.0
  0
LINE
  5
22F
330
1F
100
AcDbEntity
  8
TOPPASTE
100
AcDbLine
 10
394.48095856
 20
87.38639368
 30
0.0
 11
394.31432694
 21
87.886286
 31
0.0
  0
LINE
  5
230
330
1F
100
AcDbEntity
  8
TOPPASTE
100
AcDbLine
 10
394.31432694
 20
87.886286
 30
0.0
 11
393.98106624
 21
88.21954923999999
 31
0.0
  0
LINE
  5
231
330
1F
100
AcDbEntity
  8
TOPPASTE
100
AcDbLine
 10
393.98106624
 20
88.21954923999999
 30
0.0
 11
393.647803
 21
88.38617832
 31
0.0
  0
LINE
  5
232
330
1F
100
AcDbEntity
  8
TOPPASTE
100
AcDbLine
 10
393.647803
 20
88.38617832
 30
0.0
 11
393.14791068
 21
88.38617832
 31
0.0
  0
LINE
  5
233
330
1F
100
AcDbEntity
  8
TOPPASTE
100
AcDbLine
 10
395.24745944
 20
88.38617832
 30
0.0
 11
395.24745944
 21
84.88692954
 31
0.0
  0
LINE
  5
234
330
1F
100
AcDbEntity
  8
TOPPASTE
100
AcDbLine
 10
395.24745944
 20
87.886286
 30
0.0
 11
395.58072268
 21
88.21954923999999
 31
0.0
  0
LINE
  5
235
330
1F
100
AcDbEntity
  8
TOPPASTE
100
AcDbLine
 10
395.58072268
 20
88.21954923999999
 30
0.0
 11
395.91398338
 21
88.38617832
 31
0.0
  0
LINE
  5
236
330
1F
100
AcDbEntity
  8
TOPPASTE
100
AcDbLine
 10
395.91398338
 20
88.38617832
 30
0.0
 11
396.4138757
 21
88.38617832
 31
0.0
  0
LINE
  5
237
330
1F
100
AcDbEntity
  8
TOPPASTE
100
AcDbLine
 10
396.4138757
 20
88.38617832
 30
0.0
 11
396.74713894
 21
88.21954923999999
 31
0.0
  0
LINE
  5
238
330
1F
100
AcDbEntity
  8
TOPPASTE
100
AcDbLine
 10
396.74713894
 20
88.21954923999999
 30
0.0
 11
397.08039964
 21
87.886286
 31
0.0
  0
LINE
  5
239
330
1F
100
AcDbEntity
  8
TOPPASTE
100
AcDbLine
 10
397.08039964
 20
87.886286
 30
0.0
 11
397.24703126
 21
87.38639368
 31
0.0
  0
LINE
  5
23A
330
1F
100
AcDbEntity
  8
TOPPASTE
100
AcDbLine
 10
397.24703126
 20
87.38639368
 30
0.0
 11
397.24703126
 21
87.05313043999999
 31
0.0
  0
LINE
  5
23B
330
1F
100
AcDbEntity
  8
TOPPASTE
100
AcDbLine
 10
397.24703126
 20
87.05313043999999
 30
0.0
 11
397.08039964
 21
86.55323811999999
 31
0.0
  0
LINE
  5
23C
330
1F
100
AcDbEntity
  8
TOPPASTE
100
AcDbLine
 10
397.08039964
 20
86.55323811999999
 30
0.0
 11
396.74713894
 21
86.21997741999999
 31
0.0
  0
LINE
  5
23D
330
1F
100
AcDbEntity
  8
TOPPASTE
100
AcDbLine
 10
396.74713894
 20
86.21997741999999
 30
0.0
 11
396.4138757
 21
86.05334579999999
 31
0.0
  0
LINE
  5
23E
330
1F
100
AcDbEntity
  8
TOPPASTE
100
AcDbLine
 10
396.4138757
 20
86.05334579999999
 30
0.0
 11
395.91398338
 21
86.05334579999999
 31
0.0
  0
LINE
  5
23F
330
1F
100
AcDbEntity
  8
TOPPASTE
100
AcDbLine
 10
395.91398338
 20
86.05334579999999
 30
0.0
 11
395.58072268
 21
86.21997741999999
 31
0.0
  0
LINE
  5
240
330
1F
100
AcDbEntity
  8
TOPPASTE
100
AcDbLine
 10
395.58072268
 20
86.21997741999999
 30
0.0
 11
395.24745944
 21
86.55323811999999
 31
0.0
  0
LINE
  5
241
330
1F
100
AcDbEntity
  8
TOPPASTE
100
AcDbLine
 10
400.74628004
 20
87.71965691999999
 30
0.0
 11
402.24595954
 21
87.71965691999999
 31
0.0
  0
LINE
  5
242
330
1F
100
AcDbEntity
  8
TOPPASTE
100
AcDbLine
 10
402.24595954
 20
87.71965691999999
 30
0.0
 11
402.74585186
 21
87.886286
 31
0.0
  0
LINE
  5
243
330
1F
100
AcDbEntity
  8
TOPPASTE
100
AcDbLine
 10
402.74585186
 20
87.886286
 30
0.0
 11
402.91248348
 21
88.05291761999999
 31
0.0
  0
LINE
  5
244
330
1F
100
AcDbEntity
  8
TOPPASTE
100
AcDbLine
 10
402.91248348
 20
88.05291761999999
 30
0.0
 11
403.07911256
 21
88.38617832
 31
0.0
  0
LINE
  5
245
330
1F
100
AcDbEntity
  8
TOPPASTE
100
AcDbLine
 10
403.07911256
 20
88.38617832
 30
0.0
 11
403.07911256
 21
88.88607318
 31
0.0
  0
LINE
  5
246
330
1F
100
AcDbEntity
  8
TOPPASTE
100
AcDbLine
 10
403.07911256
 20
88.88607318
 30
0.0
 11
402.91248348
 21
89.21933388
 31
0.0
  0
LINE
  5
247
330
1F
100
AcDbEntity
  8
TOPPASTE
100
AcDbLine
 10
402.91248348
 20
89.21933388
 30
0.0
 11
402.74585186
 21
89.3859655
 31
0.0
  0
LINE
  5
248
330
1F
100
AcDbEntity
  8
TOPPASTE
100
AcDbLine
 10
402.74585186
 20
89.3859655
 30
0.0
 11
402.24595954
 21
89.55259712
 31
0.0
  0
LINE
  5
249
330
1F
100
AcDbEntity
  8
TOPPASTE
100
AcDbLine
 10
402.24595954
 20
89.55259712
 30
0.0
 11
400.74628004
 21
89.55259712
 31
0.0
  0
LINE
  5
24A
330
1F
100
AcDbEntity
  8
TOPPASTE
100
AcDbLine
 10
400.74628004
 20
89.55259712
 30
0.0
 11
400.74628004
 21
86.05334579999999
 31
0.0
  0
LINE
  5
24B
330
1F
100
AcDbEntity
  8
TOPPASTE
100
AcDbLine
 10
405.8618502
 20
88.38617832
 30
0.0
 11
405.8618502
 21
86.05334579999999
 31
0.0
  0
LINE
  5
24C
330
1F
100
AcDbEntity
  8
TOPPASTE
100
AcDbLine
 10
405.8618502
 20
87.886286
 30
0.0
 11
405.5285895
 21
88.21954923999999
 31
0.0
  0
LINE
  5
24D
330
1F
100
AcDbEntity
  8
TOPPASTE
100
AcDbLine
 10
405.5285895
 20
88.21954923999999
 30
0.0
 11
405.19532626
 21
88.38617832
 31
0.0
  0
LINE
  5
24E
330
1F
100
AcDbEntity
  8
TOPPASTE
100
AcDbLine
 10
405.19532626
 20
88.38617832
 30
0.0
 11
404.69543394
 21
88.38617832
 31
0.0
  0
LINE
  5
24F
330
1F
100
AcDbEntity
  8
TOPPASTE
100
AcDbLine
 10
404.69543394
 20
88.38617832
 30
0.0
 11
404.3621707
 21
88.21954923999999
 31
0.0
  0
LINE
  5
250
330
1F
100
AcDbEntity
  8
TOPPASTE
100
AcDbLine
 10
404.3621707
 20
88.21954923999999
 30
0.0
 11
404.02891
 21
87.886286
 31
0.0
  0
LINE
  5
251
330
1F
100
AcDbEntity
  8
TOPPASTE
100
AcDbLine
 10
404.02891
 20
87.886286
 30
0.0
 11
403.86227838
 21
87.38639368
 31
0.0
  0
LINE
  5
252
330
1F
100
AcDbEntity
  8
TOPPASTE
100
AcDbLine
 10
403.86227838
 20
87.38639368
 30
0.0
 11
403.86227838
 21
87.05313043999999
 31
0.0
  0
LINE
  5
253
330
1F
100
AcDbEntity
  8
TOPPASTE
100
AcDbLine
 10
403.86227838
 20
87.05313043999999
 30
0.0
 11
404.02891
 21
86.55323811999999
 31
0.0
  0
LINE
  5
254
330
1F
100
AcDbEntity
  8
TOPPASTE
100
AcDbLine
 10
404.02891
 20
86.55323811999999
 30
0.0
 11
404.3621707
 21
86.21997741999999
 31
0.0
  0
LINE
  5
255
330
1F
100
AcDbEntity
  8
TOPPASTE
100
AcDbLine
 10
404.3621707
 20
86.21997741999999
 30
0.0
 11
404.69543394
 21
86.05334579999999
 31
0.0
  0
LINE
  5
256
330
1F
100
AcDbEntity
  8
TOPPASTE
100
AcDbLine
 10
404.69543394
 20
86.05334579999999
 30
0.0
 11
405.19532626
 21
86.05334579999999
 31
0.0
  0
LINE
  5
257
330
1F
100
AcDbEntity
  8
TOPPASTE
100
AcDbLine
 10
405.19532626
 20
86.05334579999999
 30
0.0
 11
405.5285895
 21
86.21997741999999
 31
0.0
  0
LINE
  5
258
330
1F
100
AcDbEntity
  8
TOPPASTE
100
AcDbLine
 10
405.5285895
 20
86.21997741999999
 30
0.0
 11
405.8618502
 21
86.55323811999999
 31
0.0
  0
LINE
  5
259
330
1F
100
AcDbEntity
  8
TOPPASTE
100
AcDbLine
 10
408.6279229
 20
87.886286
 30
0.0
 11
408.46129382
 21
88.21954923999999
 31
0.0
  0
LINE
  5
25A
330
1F
100
AcDbEntity
  8
TOPPASTE
100
AcDbLine
 10
408.46129382
 20
88.21954923999999
 30
0.0
 11
407.96139896
 21
88.38617832
 31
0.0
  0
LINE
  5
25B
330
1F
100
AcDbEntity
  8
TOPPASTE
100
AcDbLine
 10
407.96139896
 20
88.38617832
 30
0.0
 11
407.46150664
 21
88.38617832
 31
0.0
  0
LINE
  5
25C
330
1F
100
AcDbEntity
  8
TOPPASTE
100
AcDbLine
 10
407.46150664
 20
88.38617832
 30
0.0
 11
406.96161432
 21
88.21954923999999
 31
0.0
  0
LINE
  5
25D
330
1F
100
AcDbEntity
  8
TOPPASTE
100
AcDbLine
 10
406.96161432
 20
88.21954923999999
 30
0.0
 11
406.7949827
 21
87.886286
 31
0.0
  0
LINE
  5
25E
330
1F
100
AcDbEntity
  8
TOPPASTE
100
AcDbLine
 10
406.7949827
 20
87.886286
 30
0.0
 11
406.96161432
 21
87.5530253
 31
0.0
  0
LINE
  5
25F
330
1F
100
AcDbEntity
  8
TOPPASTE
100
AcDbLine
 10
406.96161432
 20
87.5530253
 30
0.0
 11
407.2948750199999
 21
87.38639368
 31
0.0
  0
LINE
  5
260
330
1F
100
AcDbEntity
  8
TOPPASTE
100
AcDbLine
 10
407.2948750199999
 20
87.38639368
 30
0.0
 11
408.12803058
 21
87.21976206
 31
0.0
  0
LINE
  5
261
330
1F
100
AcDbEntity
  8
TOPPASTE
100
AcDbLine
 10
408.12803058
 20
87.21976206
 30
0.0
 11
408.46129382
 21
87.05313043999999
 31
0.0
  0
LINE
  5
262
330
1F
100
AcDbEntity
  8
TOPPASTE
100
AcDbLine
 10
408.46129382
 20
87.05313043999999
 30
0.0
 11
408.6279229
 21
86.71986974
 31
0.0
  0
LINE
  5
263
330
1F
100
AcDbEntity
  8
TOPPASTE
100
AcDbLine
 10
408.6279229
 20
86.71986974
 30
0.0
 11
408.6279229
 21
86.55323811999999
 31
0.0
  0
LINE
  5
264
330
1F
100
AcDbEntity
  8
TOPPASTE
100
AcDbLine
 10
408.6279229
 20
86.55323811999999
 30
0.0
 11
408.46129382
 21
86.21997741999999
 31
0.0
  0
LINE
  5
265
330
1F
100
AcDbEntity
  8
TOPPASTE
100
AcDbLine
 10
408.46129382
 20
86.21997741999999
 30
0.0
 11
407.96139896
 21
86.05334579999999
 31
0.0
  0
LINE
  5
266
330
1F
100
AcDbEntity
  8
TOPPASTE
100
AcDbLine
 10
407.96139896
 20
86.05334579999999
 30
0.0
 11
407.46150664
 21
86.05334579999999
 31
0.0
  0
LINE
  5
267
330
1F
100
AcDbEntity
  8
TOPPASTE
100
AcDbLine
 10
407.46150664
 20
86.05334579999999
 30
0.0
 11
406.96161432
 21
86.21997741999999
 31
0.0
  0
LINE
  5
268
330
1F
100
AcDbEntity
  8
TOPPASTE
100
AcDbLine
 10
406.96161432
 20
86.21997741999999
 30
0.0
 11
406.7949827
 21
86.55323811999999
 31
0.0
  0
LINE
  5
269
330
1F
100
AcDbEntity
  8
TOPPASTE
100
AcDbLine
 10
409.8609913
 20
89.55259712
 30
0.0
 11
409.8609913
 21
86.71986974
 31
0.0
  0
LINE
  5
26A
330
1F
100
AcDbEntity
  8
TOPPASTE
100
AcDbLine
 10
409.8609913
 20
86.71986974
 30
0.0
 11
410.02762292
 21
86.21997741999999
 31
0.0
  0
LINE
  5
26B
330
1F
100
AcDbEntity
  8
TOPPASTE
100
AcDbLine
 10
410.02762292
 20
86.21997741999999
 30
0.0
 11
410.36088362
 21
86.05334579999999
 31
0.0
  0
LINE
  5
26C
330
1F
100
AcDbEntity
  8
TOPPASTE
100
AcDbLine
 10
410.36088362
 20
86.05334579999999
 30
0.0
 11
410.69414686
 21
86.05334579999999
 31
0.0
  0
LINE
  5
26D
330
1F
100
AcDbEntity
  8
TOPPASTE
100
AcDbLine
 10
409.36109898
 20
88.38617832
 30
0.0
 11
410.52751524
 21
88.38617832
 31
0.0
  0
LINE
  5
26E
330
1F
100
AcDbEntity
  8
TOPPASTE
100
AcDbLine
 10
411.19403918
 20
87.38639368
 30
0.0
 11
413.193611
 21
87.38639368
 31
0.0
  0
LINE
  5
26F
330
1F
100
AcDbEntity
  8
TOPPASTE
100
AcDbLine
 10
413.193611
 20
87.38639368
 30
0.0
 11
413.193611
 21
87.71965691999999
 31
0.0
  0
LINE
  5
270
330
1F
100
AcDbEntity
  8
TOPPASTE
100
AcDbLine
 10
413.193611
 20
87.71965691999999
 30
0.0
 11
413.02697938
 21
88.05291761999999
 31
0.0
  0
LINE
  5
271
330
1F
100
AcDbEntity
  8
TOPPASTE
100
AcDbLine
 10
413.02697938
 20
88.05291761999999
 30
0.0
 11
412.8603503
 21
88.21954923999999
 31
0.0
  0
LINE
  5
272
330
1F
100
AcDbEntity
  8
TOPPASTE
100
AcDbLine
 10
412.8603503
 20
88.21954923999999
 30
0.0
 11
412.52708706
 21
88.38617832
 31
0.0
  0
LINE
  5
273
330
1F
100
AcDbEntity
  8
TOPPASTE
100
AcDbLine
 10
412.52708706
 20
88.38617832
 30
0.0
 11
412.02719474
 21
88.38617832
 31
0.0
  0
LINE
  5
274
330
1F
100
AcDbEntity
  8
TOPPASTE
100
AcDbLine
 10
412.02719474
 20
88.38617832
 30
0.0
 11
411.6939315
 21
88.21954923999999
 31
0.0
  0
LINE
  5
275
330
1F
100
AcDbEntity
  8
TOPPASTE
100
AcDbLine
 10
411.6939315
 20
88.21954923999999
 30
0.0
 11
411.3606708
 21
87.886286
 31
0.0
  0
LINE
  5
276
330
1F
100
AcDbEntity
  8
TOPPASTE
100
AcDbLine
 10
411.3606708
 20
87.886286
 30
0.0
 11
411.19403918
 21
87.38639368
 31
0.0
  0
LINE
  5
277
330
1F
100
AcDbEntity
  8
TOPPASTE
100
AcDbLine
 10
411.19403918
 20
87.38639368
 30
0.0
 11
411.19403918
 21
87.05313043999999
 31
0.0
  0
LINE
  5
278
330
1F
100
AcDbEntity
  8
TOPPASTE
100
AcDbLine
 10
411.19403918
 20
87.05313043999999
 30
0.0
 11
411.3606708
 21
86.55323811999999
 31
0.0
  0
LINE
  5
279
330
1F
100
AcDbEntity
  8
TOPPASTE
100
AcDbLine
 10
411.3606708
 20
86.55323811999999
 30
0.0
 11
411.6939315
 21
86.21997741999999
 31
0.0
  0
LINE
  5
27A
330
1F
100
AcDbEntity
  8
TOPPASTE
100
AcDbLine
 10
411.6939315
 20
86.21997741999999
 30
0.0
 11
412.02719474
 21
86.05334579999999
 31
0.0
  0
LINE
  5
27B
330
1F
100
AcDbEntity
  8
TOPPASTE
100
AcDbLine
 10
412.02719474
 20
86.05334579999999
 30
0.0
 11
412.52708706
 21
86.05334579999999
 31
0.0
  0
LINE
  5
27C
330
1F
100
AcDbEntity
  8
TOPPASTE
100
AcDbLine
 10
412.52708706
 20
86.05334579999999
 30
0.0
 11
412.8603503
 21
86.21997741999999
 31
0.0
  0
LINE
  5
27D
330
1F
100
AcDbEntity
  8
TOPPASTE
100
AcDbLine
 10
412.8603503
 20
86.21997741999999
 30
0.0
 11
413.193611
 21
86.55323811999999
 31
0.0
  0
LWPOLYLINE
  5
27E
330
1F
100
AcDbEntity
  8
TOPOVERLAY
100
AcDbPolyline
 90
        2
 70
     0
 43
0.1499997
 10
386.23439644
 20
162.97023032
 10
391.8343954
 20
162.9702354
  0
LWPOLYLINE
  5
27F
330
1F
100
AcDbEntity
  8
TOPOVERLAY
100
AcDbPolyline
 90
        2
 70
     1
 43
0.07499858
 10
386.19689588
 20
162.97023032
 42
1.0
 10
386.271897
 20
162.97023032
 42
1.0
  0
LWPOLYLINE
  5
280
330
1F
100
AcDbEntity
  8
TOPOVERLAY
100
AcDbPolyline
 90
        2
 70
     1
 43
0.07499858
 10
391.79689484
 20
162.9702354
 42
1.0
 10
391.87189596
 20
162.9702354
 42
1.0
  0
LWPOLYLINE
  5
281
330
1F
100
AcDbEntity
  8
TOPOVERLAY
100
AcDbPolyline
 90
        2
 70
     0
 43
0.1499997
 10
386.23439644
 20
154.37023482
 10
386.23439644
 20
162.97023032
  0
LWPOLYLINE
  5
282
330
1F
100
AcDbEntity
  8
TOPOVERLAY
100
AcDbPolyline
 90
        2
 70
     1
 43
0.07499858
 10
386.19689588
 20
154.37023482
 42
1.0
 10
386.271897
 20
154.37023482
 42
1.0
  0
LWPOLYLINE
  5
283
330
1F
100
AcDbEntity
  8
TOPOVERLAY
100
AcDbPolyline
 90
        2
 70
     1
 43
0.07499858
 10
386.19689588
 20
162.97023032
 42
1.0
 10
386.271897
 20
162.97023032
 42
1.0
  0
LWPOLYLINE
  5
284
330
1F
100
AcDbEntity
  8
TOPOVERLAY
100
AcDbPolyline
 90
        2
 70
     0
 43
0.1499997
 10
386.23439644
 20
154.37023482
 10
391.8343954
 20
154.37023482
  0
LWPOLYLINE
  5
285
330
1F
100
AcDbEntity
  8
TOPOVERLAY
100
AcDbPolyline
 90
        2
 70
     1
 43
0.07499858
 10
386.19689588
 20
154.37023482
 42
1.0
 10
386.271897
 20
154.37023482
 42
1.0
  0
LWPOLYLINE
  5
286
330
1F
100
AcDbEntity
  8
TOPOVERLAY
100
AcDbPolyline
 90
        2
 70
     1
 43
0.07499858
 10
391.79689484
 20
154.37023482
 42
1.0
 10
391.87189596
 20
154.37023482
 42
1.0
  0
LWPOLYLINE
  5
287
330
1F
100
AcDbEntity
  8
TOPOVERLAY
100
AcDbPolyline
 90
        2
 70
     0
 43
0.17999964
 10
392.33838728
 20
155.25956756
 42
-89.63201485624919
 10
392.33439694
 20
155.25965646
  0
LWPOLYLINE
  5
288
330
1F
100
AcDbEntity
  8
TOPOVERLAY
100
AcDbPolyline
 90
        2
 70
     1
 43
0.08999982
 10
392.29338864
 20
155.25956756
 42
1.0
 10
392.38338592
 20
155.25956756
 42
1.0
  0
LWPOLYLINE
  5
289
330
1F
100
AcDbEntity
  8
TOPOVERLAY
100
AcDbPolyline
 90
        2
 70
     1
 43
0.08999982
 10
392.2893983
 20
155.25965646
 42
1.0
 10
392.37939558
 20
155.25965646
 42
1.0
  0
SOLID
  5
28A
330
1F
100
AcDbEntity
  8
TOPPASTE
100
AcDbTrace
 10
392.33439694
 20
161.47023332
 30
0.0
 11
390.33439586
 21
161.47023332
 31
0.0
 12
392.33439694
 22
160.87023452
 32
0.0
 13
390.33439586
 23
160.87023452
 33
0.0
  0
SOLID
  5
28B
330
1F
100
AcDbEntity
  8
TOPPASTE
100
AcDbTrace
 10
392.33439694
 20
160.47023532
 30
0.0
 11
390.33439586
 21
160.47023532
 31
0.0
 12
392.33439694
 22
159.87023652
 32
0.0
 13
390.33439586
 23
159.87023652
 33
0.0
  0
SOLID
  5
28C
330
1F
100
AcDbEntity
  8
TOPPASTE
100
AcDbTrace
 10
392.33439694
 20
159.47023478
 30
0.0
 11
390.33439586
 21
159.47023478
 31
0.0
 12
392.33439694
 22
158.87023598
 32
0.0
 13
390.33439586
 23
158.87023598
 33
0.0
  0
SOLID
  5
28D
330
1F
100
AcDbEntity
  8
TOPPASTE
100
AcDbTrace
 10
392.33439694
 20
158.47023424
 30
0.0
 11
390.33439586
 21
158.47023424
 31
0.0
 12
392.33439694
 22
157.87023544
 32
0.0
 13
390.33439586
 23
157.87023544
 33
0.0
  0
SOLID
  5
28E
330
1F
100
AcDbEntity
  8
TOPPASTE
100
AcDbTrace
 10
392.33439694
 20
157.4702337
 30
0.0
 11
390.33439586
 21
157.4702337
 31
0.0
 12
392.33439694
 22
156.8702349
 32
0.0
 13
390.33439586
 23
156.8702349
 33
0.0
  0
SOLID
  5
28F
330
1F
100
AcDbEntity
  8
TOPPASTE
100
AcDbTrace
 10
392.33439694
 20
156.47023316
 30
0.0
 11
390.33439586
 21
156.47023316
 31
0.0
 12
392.33439694
 22
155.87023436
 32
0.0
 13
390.33439586
 23
155.87023436
 33
0.0
  0
SOLID
  5
290
330
1F
100
AcDbEntity
  8
TOPPASTE
100
AcDbTrace
 10
387.13439718
 20
161.82023516
 30
0.0
 11
391.33439386
 21
161.82023516
 31
0.0
 12
387.13439718
 22
162.52023376
 32
0.0
 13
391.33439386
 23
162.52023376
 33
0.0
  0
SOLID
  5
291
330
1F
100
AcDbEntity
  8
TOPPASTE
100
AcDbTrace
 10
387.13439718
 20
154.82023392
 30
0.0
 11
391.33439386
 21
154.82023392
 31
0.0
 12
387.13439718
 22
155.52023252
 32
0.0
 13
391.33439386
 23
155.52023252
 33
0.0
  0
TEXT
  5
292
330
1F
100
AcDbEntity
  8
TOPOVERLAY
100
AcDbText
 10
394.94153168
 20
160.1452347
 30
0.0
 40
1.524
  1
J1
 50
90.0
100
AcDbText
  0
LWPOLYLINE
  5
293
330
1F
100
AcDbEntity
  8
PADHOLELAYER
100
AcDbPolyline
 90
        2
 70
     1
 43
1.07499912
 10
444.6543939
 20
158.6807342
 42
1.0
 10
445.72939302
 20
158.6807342
 42
1.0
  0
TEXT
  5
294
330
1F
100
AcDbEntity
  8
TOPOVERLAY
100
AcDbText
 10
444.33439708
 20
162.17023446
 30
0.0
 40
1.524
  1
M1
100
AcDbText
  0
LWPOLYLINE
  5
295
330
1F
100
AcDbEntity
  8
PADHOLELAYER
100
AcDbPolyline
 90
        2
 70
     1
 43
1.07499912
 10
398.94689578
 20
158.67023384
 42
1.0
 10
400.0218948999999
 20
158.67023384
 42
1.0
  0
TEXT
  5
296
330
1F
100
AcDbEntity
  8
TOPOVERLAY
100
AcDbText
 10
398.22689722
 20
161.65973256
 30
0.0
 40
1.524
  1
M2
100
AcDbText
  0
LWPOLYLINE
  5
297
330
1F
100
AcDbEntity
  8
TOPOVERLAY
100
AcDbPolyline
 90
        2
 70
     0
 43
0.1499997
 10
412.83439658
 20
154.42023472
 10
412.83439658
 20
162.92023296
  0
LWPOLYLINE
  5
298
330
1F
100
AcDbEntity
  8
TOPOVERLAY
100
AcDbPolyline
 90
        2
 70
     1
 43
0.07499858
 10
412.79689602
 20
154.42023472
 42
1.0
 10
412.87189714
 20
154.42023472
 42
1.0
  0
LWPOLYLINE
  5
299
330
1F
100
AcDbEntity
  8
TOPOVERLAY
100
AcDbPolyline
 90
        2
 70
     1
 43
0.07499858
 10
412.79689602
 20
162.92023296
 42
1.0
 10
412.87189714
 20
162.92023296
 42
1.0
  0
LWPOLYLINE
  5
29A
330
1F
100
AcDbEntity
  8
TOPOVERLAY
100
AcDbPolyline
 90
        2
 70
     0
 43
0.1499997
 10
407.83439642
 20
154.42023472
 10
407.83439642
 20
162.92023296
  0
LWPOLYLINE
  5
29B
330
1F
100
AcDbEntity
  8
TOPOVERLAY
100
AcDbPolyline
 90
        2
 70
     1
 43
0.07499858
 10
407.7968958599999
 20
154.42023472
 42
1.0
 10
407.87189698
 20
154.42023472
 42
1.0
  0
LWPOLYLINE
  5
29C
330
1F
100
AcDbEntity
  8
TOPOVERLAY
100
AcDbPolyline
 90
        2
 70
     1
 43
0.07499858
 10
407.7968958599999
 20
162.92023296
 42
1.0
 10
407.87189698
 20
162.92023296
 42
1.0
  0
LWPOLYLINE
  5
29D
330
1F
100
AcDbEntity
  8
TOPOVERLAY
100
AcDbPolyline
 90
        2
 70
     1
 43
0.254
 10
411.95939706
 20
153.67023368
 42
1.0
 10
411.70939502
 20
153.67023368
 42
1.0
  0
LWPOLYLINE
  5
29E
330
1F
100
AcDbEntity
  8
TOPOVERLAY
100
AcDbPolyline
 90
        2
 70
     1
 43
0.127
 10
411.89589706
 20
153.67023368
 42
1.0
 10
412.02289706
 20
153.67023368
 42
1.0
  0
LWPOLYLINE
  5
29F
330
1F
100
AcDbEntity
  8
TOPOVERLAY
100
AcDbPolyline
 90
        2
 70
     1
 43
0.127
 10
411.64589502
 20
153.67023368
 42
1.0
 10
411.77289502
 20
153.67023368
 42
1.0
  0
SOLID
  5
2A0
330
1F
100
AcDbEntity
  8
TOPPASTE
100
AcDbTrace
 10
412.53439464
 20
154.27023502
 30
0.0
 11
412.53439464
 21
155.87023182
 31
0.0
 12
411.13439744
 22
154.27023502
 32
0.0
 13
411.13439744
 23
155.87023182
 33
0.0
  0
SOLID
  5
2A1
330
1F
100
AcDbEntity
  8
TOPPASTE
100
AcDbTrace
 10
412.53439464
 20
161.47023586
 30
0.0
 11
412.53439464
 21
163.07023266
 31
0.0
 12
411.13439744
 22
161.47023586
 32
0.0
 13
411.13439744
 23
163.07023266
 33
0.0
  0
SOLID
  5
2A2
330
1F
100
AcDbEntity
  8
TOPPASTE
100
AcDbTrace
 10
409.53439556
 20
161.47023586
 30
0.0
 11
409.53439556
 21
163.07023266
 31
0.0
 12
408.13439836
 22
161.47023586
 32
0.0
 13
408.13439836
 23
163.07023266
 33
0.0
  0
SOLID
  5
2A3
330
1F
100
AcDbEntity
  8
TOPPASTE
100
AcDbTrace
 10
409.53439556
 20
154.27023502
 30
0.0
 11
409.53439556
 21
155.87023182
 31
0.0
 12
408.13439836
 22
154.27023502
 32
0.0
 13
408.13439836
 23
155.87023182
 33
0.0
  0
TEXT
  5
2A4
330
1F
100
AcDbEntity
  8
TOPOVERLAY
100
AcDbText
 10
408.0102965
 20
163.88993384
 30
0.0
 40
1.524
  1
S1
100
AcDbText
  0
LWPOLYLINE
  5
2A5
330
1F
100
AcDbEntity
  8
TOPOVERLAY
100
AcDbPolyline
 90
        2
 70
     0
 43
0.1499997
 10
424.8343979799999
 20
154.42015344
 10
424.8343979799999
 20
162.92015168
  0
LWPOLYLINE
  5
2A6
330
1F
100
AcDbEntity
  8
TOPOVERLAY
100
AcDbPolyline
 90
        2
 70
     1
 43
0.07499858
 10
424.79689742
 20
154.42015344
 42
1.0
 10
424.87189854
 20
154.42015344
 42
1.0
  0
LWPOLYLINE
  5
2A7
330
1F
100
AcDbEntity
  8
TOPOVERLAY
100
AcDbPolyline
 90
        2
 70
     1
 43
0.07499858
 10
424.79689742
 20
162.92015168
 42
1.0
 10
424.87189854
 20
162.92015168
 42
1.0
  0
LWPOLYLINE
  5
2A8
330
1F
100
AcDbEntity
  8
TOPOVERLAY
100
AcDbPolyline
 90
        2
 70
     0
 43
0.1499997
 10
419.83439782
 20
154.42015344
 10
419.83439782
 20
162.92015168
  0
LWPOLYLINE
  5
2A9
330
1F
100
AcDbEntity
  8
TOPOVERLAY
100
AcDbPolyline
 90
        2
 70
     1
 43
0.07499858
 10
419.79689726
 20
154.42015344
 42
1.0
 10
419.87189838
 20
154.42015344
 42
1.0
  0
LWPOLYLINE
  5
2AA
330
1F
100
AcDbEntity
  8
TOPOVERLAY
100
AcDbPolyline
 90
        2
 70
     1
 43
0.07499858
 10
419.79689726
 20
162.92015168
 42
1.0
 10
419.87189838
 20
162.92015168
 42
1.0
  0
LWPOLYLINE
  5
2AB
330
1F
100
AcDbEntity
  8
TOPOVERLAY
100
AcDbPolyline
 90
        2
 70
     1
 43
0.254
 10
423.95939846
 20
153.6701524
 42
1.0
 10
423.70939642
 20
153.6701524
 42
1.0
  0
LWPOLYLINE
  5
2AC
330
1F
100
AcDbEntity
  8
TOPOVERLAY
100
AcDbPolyline
 90
        2
 70
     1
 43
0.127
 10
423.89589846
 20
153.6701524
 42
1.0
 10
424.02289846
 20
153.6701524
 42
1.0
  0
LWPOLYLINE
  5
2AD
330
1F
100
AcDbEntity
  8
TOPOVERLAY
100
AcDbPolyline
 90
        2
 70
     1
 43
0.127
 10
423.64589642
 20
153.6701524
 42
1.0
 10
423.77289642
 20
153.6701524
 42
1.0
  0
SOLID
  5
2AE
330
1F
100
AcDbEntity
  8
TOPPASTE
100
AcDbTrace
 10
424.53439604
 20
154.27015374
 30
0.0
 11
424.53439604
 21
155.87015054
 31
0.0
 12
423.13439884
 22
154.27015374
 32
0.0
 13
423.13439884
 23
155.87015054
 33
0.0
  0
SOLID
  5
2AF
330
1F
100
AcDbEntity
  8
TOPPASTE
100
AcDbTrace
 10
424.53439604
 20
161.47015458
 30
0.0
 11
424.53439604
 21
163.07015138
 31
0.0
 12
423.13439884
 22
161.47015458
 32
0.0
 13
423.13439884
 23
163.07015138
 33
0.0
  0
SOLID
  5
2B0
330
1F
100
AcDbEntity
  8
TOPPASTE
100
AcDbTrace
 10
421.53439696
 20
161.47015458
 30
0.0
 11
421.53439696
 21
163.07015138
 31
0.0
 12
420.13439976
 22
161.47015458
 32
0.0
 13
420.13439976
 23
163.07015138
 33
0.0
  0
SOLID
  5
2B1
330
1F
100
AcDbEntity
  8
TOPPASTE
100
AcDbTrace
 10
421.53439696
 20
154.27015374
 30
0.0
 11
421.53439696
 21
155.87015054
 31
0.0
 12
420.13439976
 22
154.27015374
 32
0.0
 13
420.13439976
 23
155.87015054
 33
0.0
  0
TEXT
  5
2B2
330
1F
100
AcDbEntity
  8
TOPOVERLAY
100
AcDbText
 10
420.0102979
 20
163.88985256
 30
0.0
 40
1.524
  1
S3
100
AcDbText
  0
LWPOLYLINE
  5
2B3
330
1F
100
AcDbEntity
  8
TOPOVERLAY
100
AcDbPolyline
 90
        2
 70
     0
 43
0.1499997
 10
436.83439684
 20
154.42023472
 10
436.83439684
 20
162.92023296
  0
LWPOLYLINE
  5
2B4
330
1F
100
AcDbEntity
  8
TOPOVERLAY
100
AcDbPolyline
 90
        2
 70
     1
 43
0.07499858
 10
436.79689628
 20
154.42023472
 42
1.0
 10
436.8718974
 20
154.42023472
 42
1.0
  0
LWPOLYLINE
  5
2B5
330
1F
100
AcDbEntity
  8
TOPOVERLAY
100
AcDbPolyline
 90
        2
 70
     1
 43
0.07499858
 10
436.79689628
 20
162.92023296
 42
1.0
 10
436.8718974
 20
162.92023296
 42
1.0
  0
LWPOLYLINE
  5
2B6
330
1F
100
AcDbEntity
  8
TOPOVERLAY
100
AcDbPolyline
 90
        2
 70
     0
 43
0.1499997
 10
431.83439668
 20
154.42023472
 10
431.83439668
 20
162.92023296
  0
LWPOLYLINE
  5
2B7
330
1F
100
AcDbEntity
  8
TOPOVERLAY
100
AcDbPolyline
 90
        2
 70
     1
 43
0.07499858
 10
431.79689612
 20
154.42023472
 42
1.0
 10
431.87189724
 20
154.42023472
 42
1.0
  0
LWPOLYLINE
  5
2B8
330
1F
100
AcDbEntity
  8
TOPOVERLAY
100
AcDbPolyline
 90
        2
 70
     1
 43
0.07499858
 10
431.79689612
 20
162.92023296
 42
1.0
 10
431.87189724
 20
162.92023296
 42
1.0
  0
LWPOLYLINE
  5
2B9
330
1F
100
AcDbEntity
  8
TOPOVERLAY
100
AcDbPolyline
 90
        2
 70
     1
 43
0.254
 10
435.95939732
 20
153.67023368
 42
1.0
 10
435.70939528
 20
153.67023368
 42
1.0
  0
LWPOLYLINE
  5
2BA
330
1F
100
AcDbEntity
  8
TOPOVERLAY
100
AcDbPolyline
 90
        2
 70
     1
 43
0.127
 10
435.89589732
 20
153.67023368
 42
1.0
 10
436.02289732
 20
153.67023368
 42
1.0
  0
LWPOLYLINE
  5
2BB
330
1F
100
AcDbEntity
  8
TOPOVERLAY
100
AcDbPolyline
 90
        2
 70
     1
 43
0.127
 10
435.64589528
 20
153.67023368
 42
1.0
 10
435.77289528
 20
153.67023368
 42
1.0
  0
SOLID
  5
2BC
330
1F
100
AcDbEntity
  8
TOPPASTE
100
AcDbTrace
 10
436.5343949
 20
154.27023502
 30
0.0
 11
436.5343949
 21
155.87023182
 31
0.0
 12
435.1343977
 22
154.27023502
 32
0.0
 13
435.1343977
 23
155.87023182
 33
0.0
  0
SOLID
  5
2BD
330
1F
100
AcDbEntity
  8
TOPPASTE
100
AcDbTrace
 10
436.5343949
 20
161.47023586
 30
0.0
 11
436.5343949
 21
163.07023266
 31
0.0
 12
435.1343977
 22
161.47023586
 32
0.0
 13
435.1343977
 23
163.07023266
 33
0.0
  0
SOLID
  5
2BE
330
1F
100
AcDbEntity
  8
TOPPASTE
100
AcDbTrace
 10
433.53439582
 20
161.47023586
 30
0.0
 11
433.53439582
 21
163.07023266
 31
0.0
 12
432.13439862
 22
161.47023586
 32
0.0
 13
432.13439862
 23
163.07023266
 33
0.0
  0
SOLID
  5
2BF
330
1F
100
AcDbEntity
  8
TOPPASTE
100
AcDbTrace
 10
433.53439582
 20
154.27023502
 30
0.0
 11
433.53439582
 21
155.87023182
 31
0.0
 12
432.13439862
 22
154.27023502
 32
0.0
 13
432.13439862
 23
155.87023182
 33
0.0
  0
TEXT
  5
2C0
330
1F
100
AcDbEntity
  8
TOPOVERLAY
100
AcDbText
 10
432.01029676
 20
163.88993384
 30
0.0
 40
1.524
  1
S4
100
AcDbText
  0
TEXT
  5
2C1
330
1F
100
AcDbEntity
  8
TOPOVERLAY
100
AcDbText
 10
399.59488534
 20
168.18556406
 30
0.0
 40
1.524
  1

100
AcDbText
  0
TEXT
  5
2C2
330
1F
100
AcDbEntity
  8
TOPOVERLAY
100
AcDbText
 10
443.80500012
 20
150.19096708
 30
0.0
 40
1.524
  1

100
AcDbText
  0
TEXT
  5
2C3
330
1F
100
AcDbEntity
  8
TOPOVERLAY
100
AcDbText
 10
443.45729698
 20
171.20496366
 30
0.0
 40
1.524
  1

100
AcDbText
  0
ENDSEC
  0
SECTION
  2
OBJECTS
  0
DICTIONARY
  5
C
330
0
100
AcDbDictionary
  3
ACAD_GROUP
350
D
  3
ACAD_LAYOUT
350
1A
  3
ACAD_MATERIAL
350
43
  3
ACAD_MLEADERSTYLE
350
2E7
  3
ACAD_MLINESTYLE
350
17
  3
ACAD_PLOTSETTINGS
350
19
  3
ACAD_SCALELIST
350
47
  3
ACAD_VISUALSTYLE
350
2A
  3
ACDBHEADERROUNDTRIPXREC
350
2C4
  3
ACDBVARIABLEDICTIONARY
350
2E5
  0
DICTIONARY
  5
2EE
330
8
100
AcDbDictionary
280
     1
  3
ACAD_XREC_ROUNDTRIP
360
2EF
  0
DICTIONARY
  5
D
102
{ACAD_REACTORS
330
C
102
}
330
C
100
AcDbDictionary
  0
DICTIONARY
  5
1A
102
{ACAD_REACTORS
330
C
102
}
330
C
100
AcDbDictionary
  0
DICTIONARY
  5
43
102
{ACAD_REACTORS
330
C
102
}
330
C
100
AcDbDictionary
  3
BYBLOCK
350
45
  3
BYLAYER
350
44
  3
GLOBAL
350
46
  0
DICTIONARY
  5
2E7
102
{ACAD_REACTORS
330
C
102
}
330
C
100
AcDbDictionary
  0
DICTIONARY
  5
17
102
{ACAD_REACTORS
330
C
102
}
330
C
100
AcDbDictionary
  3
STANDARD
350
18
  0
DICTIONARY
  5
19
102
{ACAD_REACTORS
330
C
102
}
330
C
100
AcDbDictionary
  0
DICTIONARY
  5
47
102
{ACAD_REACTORS
330
C
102
}
330
C
100
AcDbDictionary
  3
A0
350
48
  3
A1
350
49
  3
A2
350
4A
  3
A3
350
4B
  3
A4
350
4C
  3
A5
350
4D
  3
A6
350
4E
  3
A7
350
4F
  3
A8
350
50
  3
A9
350
51
  3
B0
350
52
  3
B1
350
53
  3
B2
350
54
  3
B3
350
55
  3
B4
350
56
  3
B5
350
57
  3
B6
350
58
  3
B7
350
59
  3
B8
350
5A
  3
B9
350
5B
  3
C0
350
5C
  3
C1
350
5D
  3
C2
350
5E
  3
C3
350
5F
  3
C4
350
60
  3
C5
350
61
  3
C6
350
62
  3
C7
350
63
  3
C8
350
64
  3
C9
350
65
  3
D0
350
66
  3
D1
350
67
  3
D2
350
68
  0
DICTIONARY
  5
2A
102
{ACAD_REACTORS
330
C
102
}
330
C
100
AcDbDictionary
  3
2DWIREFRAME
350
2F
  3
BASIC
350
32
  3
BRIGHTEN
350
36
  3
COLORCHANGE
350
3A
  3
CONCEPTUAL
350
34
  3
DIM
350
35
  3
EDGECOLOROFF
350
3D
  3
FACEPATTERN
350
39
  3
FLAT
350
2B
  3
FLATWITHEDGES
350
2C
  3
GOURAUD
350
2D
  3
GOURAUDWITHEDGES
350
2E
  3
HIDDEN
350
31
  3
JITTEROFF
350
3B
  3
LINEPATTERN
350
38
  3
OVERHANGOFF
350
3C
  3
REALISTIC
350
33
  3
SHADED
350
42
  3
SHADED_WITH_EDGES
350
41
  3
SHADES_OF_GRAY
350
3E
  3
SKETCHY
350
3F
  3
THICKEN
350
37
  3
WIREFRAME
350
30
  3
X-RAY
350
40
  0
DICTIONARY
  5
2C4
102
{ACAD_REACTORS
330
C
102
}
330
C
100
AcDbDictionary
  3
CEPSNID
350
2CE
  3
CEPSNTYPE
350
2CD
  3
DIMSTYLEDATA
350
2E4
  3
FINGERPRINTGUID
350
2CF
  3
HYPERLINKBASE
350
2C7
  3
INSUNITS
350
2CC
  3
LAYOUTDICT
350
2C9
  3
LWETCUNION
350
2CB
  3
PLOTSETDICT
350
2CA
  3
PSVPSCALE
350
2D1
  3
PUCSBASE
350
2D4
  3
PUCSORGBACK
350
2DA
  3
PUCSORGBOTTOM
350
2D6
  3
PUCSORGFRONT
350
2D9
  3
PUCSORGLEFT
350
2D7
  3
PUCSORGRIGHT
350
2D8
  3
PUCSORGTOP
350
2D5
  3
PUCSORTHOREF
350
2D2
  3
PUCSORTHOVIEW
350
2D3
  3
STYLESHEET
350
2C8
  3
TSTACKALIGN
350
2C5
  3
TSTACKSIZE
350
2C6
  3
UCSBASE
350
2DD
  3
UCSORGBACK
350
2E3
  3
UCSORGBOTTOM
350
2DF
  3
UCSORGFRONT
350
2E2
  3
UCSORGLEFT
350
2E0
  3
UCSORGRIGHT
350
2E1
  3
UCSORGTOP
350
2DE
  3
UCSORTHOREF
350
2DB
  3
UCSORTHOVIEW
350
2DC
  3
VERSIONGUID
350
2D0
  0
DICTIONARY
  5
2E5
102
{ACAD_REACTORS
330
C
102
}
330
C
100
AcDbDictionary
  3
CANNOSCALE
350
2F0
  3
DIMASSOC
350
2EC
  3
HIDETEXT
350
2ED
  3
MSLTSCALE
350
2F1
  3
PSOLHEIGHT
350
2E9
  3
PSOLWIDTH
350
2E8
  0
XRECORD
  5
2EF
102
{ACAD_REACTORS
330
2EE
102
}
330
2EE
100
AcDbXrecord
102
VTR_0.000_0.000_1.000_1.000_GRIDDISPLAY
 70
     3
102
VTR_0.000_0.000_1.000_1.000_GRIDMAJOR
 70
     5
102
VTR_0.000_0.000_1.000_1.000_DEFAULTLIGHTING
280
     1
102
VTR_0.000_0.000_1.000_1.000_DEFAULTLIGHTINGTYPE
 70
     1
102
VTR_0.000_0.000_1.000_1.000_BRIGHTNESS
141
0.0
102
VTR_0.000_0.000_1.000_1.000_CONTRAST
142
0.0
  0
MATERIAL
  5
45
102
{ACAD_REACTORS
330
43
102
}
102
{ACAD_XDICTIONARY
360
2F4
102
}
330
43
100
AcDbMaterial
  1
BYBLOCK
  0
MATERIAL
  5
44
102
{ACAD_REACTORS
330
43
102
}
102
{ACAD_XDICTIONARY
360
2F2
102
}
330
43
100
AcDbMaterial
  1
BYLAYER
  0
MATERIAL
  5
46
102
{ACAD_REACTORS
330
43
102
}
102
{ACAD_XDICTIONARY
360
2F6
102
}
330
43
100
AcDbMaterial
  1
GLOBAL
  0
MLINESTYLE
  5
18
102
{ACAD_REACTORS
330
17
102
}
330
17
100
AcDbMlineStyle
  2
Standard
 70
     0
  3

 62
   256
 51
90.0
 52
90.0
 71
     2
 49
0.5
 62
   256
  6
BYLAYER
 49
-0.5
 62
   256
  6
BYLAYER
  0
ACAD_PROXY_OBJECT
  5
48
102
{ACAD_REACTORS
330
47
102
}
330
47
100
AcDbProxyObject
 90
      499
 91
      503
 93
       41
310
903313A31580
  0
ACAD_PROXY_OBJECT
  5
49
102
{ACAD_REACTORS
330
47
102
}
330
47
100
AcDbProxyObject
 90
      499
 91
      503
 93
      105
310
903313A324000000000000004000
  0
ACAD_PROXY_OBJECT
  5
4A
102
{ACAD_REACTORS
330
47
102
}
330
47
100
AcDbProxyObject
 90
      499
 91
      503
 93
      105
310
903313A344000000000000104000
  0
ACAD_PROXY_OBJECT
  5
4B
102
{ACAD_REACTORS
330
47
102
}
330
47
100
AcDbProxyObject
 90
      499
 91
      503
 93
      105
310
903313A354000000000000144000
  0
ACAD_PROXY_OBJECT
  5
4C
102
{ACAD_REACTORS
330
47
102
}
330
47
100
AcDbProxyObject
 90
      499
 91
      503
 93
      105
310
903313A384000000000000204000
  0
ACAD_PROXY_OBJECT
  5
4D
102
{ACAD_REACTORS
330
47
102
}
330
47
100
AcDbProxyObject
 90
      499
 91
      503
 93
      113
310
904313A31304000000000000244000
  0
ACAD_PROXY_OBJECT
  5
4E
102
{ACAD_REACTORS
330
47
102
}
330
47
100
AcDbProxyObject
 90
      499
 91
      503
 93
      113
310
904313A31364000000000000304000
  0
ACAD_PROXY_OBJECT
  5
4F
102
{ACAD_REACTORS
330
47
102
}
330
47
100
AcDbProxyObject
 90
      499
 91
      503
 93
      113
310
904313A32304000000000000344000
  0
ACAD_PROXY_OBJECT
  5
50
102
{ACAD_REACTORS
330
47
102
}
330
47
100
AcDbProxyObject
 90
      499
 91
      503
 93
      113
310
904313A333040000000000003E4000
  0
ACAD_PROXY_OBJECT
  5
51
102
{ACAD_REACTORS
330
47
102
}
330
47
100
AcDbProxyObject
 90
      499
 91
      503
 93
      113
310
904313A34304000000000000444000
  0
ACAD_PROXY_OBJECT
  5
52
102
{ACAD_REACTORS
330
47
102
}
330
47
100
AcDbProxyObject
 90
      499
 91
      503
 93
      113
310
904313A35304000000000000494000
  0
ACAD_PROXY_OBJECT
  5
53
102
{ACAD_REACTORS
330
47
102
}
330
47
100
AcDbProxyObject
 90
      499
 91
      503
 93
      121
310
905313A3130304000000000000594000
  0
ACAD_PROXY_OBJECT
  5
54
102
{ACAD_REACTORS
330
47
102
}
330
47
100
AcDbProxyObject
 90
      499
 91
      503
 93
      105
310
903323A310000000000000010100
  0
ACAD_PROXY_OBJECT
  5
55
102
{ACAD_REACTORS
330
47
102
}
330
47
100
AcDbProxyObject
 90
      499
 91
      503
 93
      105
310
903343A310000000000000410100
  0
ACAD_PROXY_OBJECT
  5
56
102
{ACAD_REACTORS
330
47
102
}
330
47
100
AcDbProxyObject
 90
      499
 91
      503
 93
      105
310
903383A310000000000000810100
  0
ACAD_PROXY_OBJECT
  5
57
102
{ACAD_REACTORS
330
47
102
}
330
47
100
AcDbProxyObject
 90
      499
 91
      503
 93
      113
310
90431303A310000000000000910100
  0
ACAD_PROXY_OBJECT
  5
58
102
{ACAD_REACTORS
330
47
102
}
330
47
100
AcDbProxyObject
 90
      499
 91
      503
 93
      121
310
9053130303A310000000000001650100
  0
ACAD_PROXY_OBJECT
  5
59
102
{ACAD_REACTORS
330
47
102
}
330
47
100
AcDbProxyObject
 90
      499
 91
      503
 93
      257
310
90E312F31323822203D2031272D3022000000000000200FC000000000000284000
  0
ACAD_PROXY_OBJECT
  5
5A
102
{ACAD_REACTORS
330
47
102
}
330
47
100
AcDbProxyObject
 90
      499
 91
      503
 93
      249
310
90D312F363422203D2031272D3022000000000000240FC000000000000284000
  0
ACAD_PROXY_OBJECT
  5
5B
102
{ACAD_REACTORS
330
47
102
}
330
47
100
AcDbProxyObject
 90
      499
 91
      503
 93
      249
310
90D312F333222203D2031272D3022000000000000280FC000000000000284000
  0
ACAD_PROXY_OBJECT
  5
5C
102
{ACAD_REACTORS
330
47
102
}
330
47
100
AcDbProxyObject
 90
      499
 91
      503
 93
      249
310
90D312F313622203D2031272D30220000000000002C0FC000000000000284000
  0
ACAD_PROXY_OBJECT
  5
5D
102
{ACAD_REACTORS
330
47
102
}
330
47
100
AcDbProxyObject
 90
      499
 91
      503
 93
      249
310
90D332F333222203D2031272D30220000000000002E0FC000000000000284000
  0
ACAD_PROXY_OBJECT
  5
5E
102
{ACAD_REACTORS
330
47
102
}
330
47
100
AcDbProxyObject
 90
      499
 91
      503
 93
      241
310
90C312F3822203D2031272D3022000000000000300FC000000000000284000
  0
ACAD_PROXY_OBJECT
  5
5F
102
{ACAD_REACTORS
330
47
102
}
330
47
100
AcDbProxyObject
 90
      499
 91
      503
 93
      249
310
90D332F313622203D2031272D3022000000000000320FC000000000000284000
  0
ACAD_PROXY_OBJECT
  5
60
102
{ACAD_REACTORS
330
47
102
}
330
47
100
AcDbProxyObject
 90
      499
 91
      503
 93
      241
310
90C312F3422203D2031272D3022000000000000340FC000000000000284000
  0
ACAD_PROXY_OBJECT
  5
61
102
{ACAD_REACTORS
330
47
102
}
330
47
100
AcDbProxyObject
 90
      499
 91
      503
 93
      241
310
90C332F3822203D2031272D3022000000000000360FC000000000000284000
  0
ACAD_PROXY_OBJECT
  5
62
102
{ACAD_REACTORS
330
47
102
}
330
47
100
AcDbProxyObject
 90
      499
 91
      503
 93
      241
310
90C312F3222203D2031272D3022000000000000380FC000000000000284000
  0
ACAD_PROXY_OBJECT
  5
63
102
{ACAD_REACTORS
330
47
102
}
330
47
100
AcDbProxyObject
 90
      499
 91
      503
 93
      241
310
90C332F3422203D2031272D30220000000000003A0FC000000000000284000
  0
ACAD_PROXY_OBJECT
  5
64
102
{ACAD_REACTORS
330
47
102
}
330
47
100
AcDbProxyObject
 90
      499
 91
      503
 93
      161
310
90A3122203D2031272D30224000000000000284000
  0
ACAD_PROXY_OBJECT
  5
65
102
{ACAD_REACTORS
330
47
102
}
330
47
100
AcDbProxyObject
 90
      499
 91
      503
 93
      257
310
90E312D312F3222203D2031272D30220000000000003E0FC000000000000284000
  0
ACAD_PROXY_OBJECT
  5
66
102
{ACAD_REACTORS
330
47
102
}
330
47
100
AcDbProxyObject
 90
      499
 91
      503
 93
      225
310
90A3322203D2031272D302200000000000002100000000000000284000
  0
ACAD_PROXY_OBJECT
  5
67
102
{ACAD_REACTORS
330
47
102
}
330
47
100
AcDbProxyObject
 90
      499
 91
      503
 93
      225
310
90A3622203D2031272D302200000000000006100000000000000284000
  0
ACAD_PROXY_OBJECT
  5
68
102
{ACAD_REACTORS
330
47
102
}
330
47
100
AcDbProxyObject
 90
      499
 91
      503
 93
      249
310
90D31272D3022203D2031272D30220000000000000A100000000000000284000
  0
ACAD_PROXY_OBJECT
  5
2F
102
{ACAD_REACTORS
330
2A
102
}
330
2A
100
AcDbProxyObject
 90
      499
 91
      501
 93
      436
310
42CC9915DA5C99599C985B595049028333333333333E33F0000000000000F90107901411070040501600405405064090741402480A0340
1001
ACAD
1000
AcDbSavedByObjectVersion
1070
     0
  0
ACAD_PROXY_OBJECT
  5
32
102
{ACAD_REACTORS
330
2A
102
}
330
2A
100
AcDbProxyObject
 90
      499
 91
      501
 93
      388
310
4150985CDA58D07406404333333333333E33F0000000000000F90107A41107004050150841D405064090741402480A0350
1001
ACAD
1000
AcDbSavedByObjectVersion
1070
     0
  0
ACAD_PROXY_OBJECT
  5
36
102
{ACAD_REACTORS
330
2A
102
}
330
2A
100
AcDbProxyObject
 90
      499
 91
      501
 93
      428
310
42109C9A59DA1D195B90C409028333333333333E33F0000000000000F9010790141107004050150841D405064090741402480A029950
1001
ACAD
1000
AcDbSavedByObjectVersion
1070
     0
  0
ACAD_PROXY_OBJECT
  5
3A
102
{ACAD_REACTORS
330
2A
102
}
330
2A
100
AcDbProxyObject
 90
      499
 91
      501
 93
      452
310
42D0DBDB1BDC90DA185B99D95104090240C333333333333E33F0000000000000F90108901411070040501508421405064090741402480A0350
1001
ACAD
1000
AcDbSavedByObjectVersion
1070
     0
  0
ACAD_PROXY_OBJECT
  5
34
102
{ACAD_REACTORS
330
2A
102
}
330
2A
100
AcDbProxyObject
 90
      499
 91
      501
 93
      500
310
4290DBDB98D95C1D1D585B10940D028333333333333E33F0000000000000F90107902409070040501000000000018199010841D405064090740C02480A0340
1001
ACAD
1000
AcDbSavedByObjectVersion
1070
     0
  0
ACAD_PROXY_OBJECT
  5
35
102
{ACAD_REACTORS
330
2A
102
}
330
2A
100
AcDbProxyObject
 90
      499
 91
      501
 93
      412
310
40D11A5B50B409028333333333333E33F0000000000000F9010790141107004050150841D405064090741402480A02677FFFFFD0
1001
ACAD
1000
AcDbSavedByObjectVersion
1070
     0
  0
ACAD_PROXY_OBJECT
  5
3D
102
{ACAD_REACTORS
330
2A
102
}
330
2A
100
AcDbProxyObject
 90
      499
 91
      501
 93
      452
310
43115919D950DBDB1BDC93D999916409028333333333333E33F0000000000000F9010790141107004050150841D405064090741402480A0350
1001
ACAD
1000
AcDbSavedByObjectVersion
1070
     0
  0
ACAD_PROXY_OBJECT
  5
39
102
{ACAD_REACTORS
330
2A
102
}
330
2A
100
AcDbProxyObject
 90
      499
 91
      501
 93
      444
310
42D19858D95C185D1D195C9B90F409028333333333333E33F0000000000000F9010790141107004050150841D405064090741402480A0350
1001
ACAD
1000
AcDbSavedByObjectVersion
1070
     0
  0
ACAD_PROXY_OBJECT
  5
2B
102
{ACAD_REACTORS
330
2A
102
}
330
2A
100
AcDbProxyObject
 90
      499
 91
      501
 93
      380
310
41119B185D240901404333333333333E33F0000000000000F9010740A907004050150841D405064090741402480A1B50
1001
ACAD
1000
AcDbSavedByObjectVersion
1070
     0
  0
ACAD_PROXY_OBJECT
  5
2C
102
{ACAD_REACTORS
330
2A
102
}
330
2A
100
AcDbProxyObject
 90
      499
 91
      501
 93
      468
310
43519B185D15DA5D1A115919D95CD0140901404333333333333E33F0000000000000F90107409019070040501600405405064090741402480A1B50
1001
ACAD
1000
AcDbSavedByObjectVersion
1070
     0
  0
ACAD_PROXY_OBJECT
  5
2D
102
{ACAD_REACTORS
330
2A
102
}
330
2A
100
AcDbProxyObject
 90
      499
 91
      501
 93
      404
310
41D1DBDD5C985D5910240902404333333333333E33F0000000000000F9010740A9070040501641D405064090741402480A1B50
1001
ACAD
1000
AcDbSavedByObjectVersion
1070
     0
  0
ACAD_PROXY_OBJECT
  5
2E
102
{ACAD_REACTORS
330
2A
102
}
330
2A
100
AcDbProxyObject
 90
      499
 91
      501
 93
      492
310
4411DBDD5C985D5915DA5D1A115919D95CD0340902404333333333333E33F0000000000000F90107409019070040501600405405064090741402480A1B50
1001
ACAD
1000
AcDbSavedByObjectVersion
1070
     0
  0
ACAD_PROXY_OBJECT
  5
31
102
{ACAD_REACTORS
330
2A
102
}
330
2A
100
AcDbProxyObject
 90
      499
 91
      501
 93
      476
310
41921A5919195B90640502408333333333333E33F0000000000000F901079024090700405020000000000001110200405405064090740C02480A0340
1001
ACAD
1000
AcDbSavedByObjectVersion
1070
     0
  0
ACAD_PROXY_OBJECT
  5
3B
102
{ACAD_REACTORS
330
2A
102
}
330
2A
100
AcDbProxyObject
 90
      499
 91
      501
 93
      428
310
42529A5D1D195C93D999914409028333333333333E33F0000000000000F9010790141107004050150A41D405064090741402480A0350
1001
ACAD
1000
AcDbSavedByObjectVersion
1070
     0
  0
ACAD_PROXY_OBJECT
  5
38
102
{ACAD_REACTORS
330
2A
102
}
330
2A
100
AcDbProxyObject
 90
      499
 91
      501
 93
      444
310
42D31A5B995C185D1D195C9B90E409028333333333333E33F0000000000000F9010790141107004050750841D405064090741402483A0350
1001
ACAD
1000
AcDbSavedByObjectVersion
1070
     0
  0
ACAD_PROXY_OBJECT
  5
3C
102
{ACAD_REACTORS
330
2A
102
}
330
2A
100
AcDbProxyObject
 90
      499
 91
      501
 93
      444
310
42D3DD995C9A185B99D3D999915409028333333333333E33F0000000000000F9010790141107004050150941D405064090741402480A0350
1001
ACAD
1000
AcDbSavedByObjectVersion
1070
     0
  0
ACAD_PROXY_OBJECT
  5
33
102
{ACAD_REACTORS
330
2A
102
}
330
2A
100
AcDbProxyObject
 90
      499
 91
      501
 93
      428
310
425499585B1A5CDD1A58D08409038333333333333E33F0000000000000F9010740A907004050150800405405064090740C02480A1B40
1001
ACAD
1000
AcDbSavedByObjectVersion
1070
     0
  0
ACAD_PROXY_OBJECT
  5
42
102
{ACAD_REACTORS
330
2A
102
}
330
2A
100
AcDbProxyObject
 90
      499
 91
      501
 93
      420
310
4194DA1859195911B40902404333333333333E33F0000000000000F9010740A41107004050150800405405064090840C02480A0B40
1001
ACAD
1000
AcDbSavedByObjectVersion
1070
     0
  0
ACAD_PROXY_OBJECT
  5
41
102
{ACAD_REACTORS
330
2A
102
}
330
2A
100
AcDbProxyObject
 90
      499
 91
      501
 93
      516
310
4454DA18591959081DDA5D1A08195919D95CD1A40902404333333333333E33F0000000000000F901074090142907004050250800405405064090740C02480A0B40
1001
ACAD
1000
AcDbSavedByObjectVersion
1070
     0
  0
ACAD_PROXY_OBJECT
  5
3E
102
{ACAD_REACTORS
330
2A
102
}
330
2A
100
AcDbProxyObject
 90
      499
 91
      501
 93
      532
310
4394DA1859195CC81BD98811DC985E5174090240C333333333333E33F0000000000000F901079024090741D01000000000000111010841D405064090740C02480A0340
1001
ACAD
1000
AcDbSavedByObjectVersion
1070
     0
  0
ACAD_PROXY_OBJECT
  5
3F
102
{ACAD_REACTORS
330
2A
102
}
330
2A
100
AcDbProxyObject
 90
      499
 91
      501
 93
      476
310
41D4DAD95D18DA1E51840502408333333333333E33F0000000000000F901079024090741D01000000000000111010B41D405064090741802480A0340
1001
ACAD
1000
AcDbSavedByObjectVersion
1070
     0
  0
ACAD_PROXY_OBJECT
  5
37
102
{ACAD_REACTORS
330
2A
102
}
330
2A
100
AcDbProxyObject
 90
      499
 91
      501
 93
      412
310
41D51A1A58DAD95B90D409028333333333333E33F0000000000000F9010790141107004050150C41D405064090741402480A0350
1001
ACAD
1000
AcDbSavedByObjectVersion
1070
     0
  0
ACAD_PROXY_OBJECT
  5
30
102
{ACAD_REACTORS
330
2A
102
}
330
2A
100
AcDbProxyObject
 90
      499
 91
      501
 93
      420
310
4255DA5C99599C985B595059028333333333333E33F0000000000000F90107901411070040501600405405064090740C02480A0340
1001
ACAD
1000
AcDbSavedByObjectVersion
1070
     0
  0
ACAD_PROXY_OBJECT
  5
40
102
{ACAD_REACTORS
330
2A
102
}
330
2A
100
AcDbProxyObject
 90
      499
 91
      501
 93
      404
310
41560B54985E51940902404000000000000E03F0000000000000F9010740501907004050150841D405064090740C02480A1B40
1001
ACAD
1000
AcDbSavedByObjectVersion
1070
     0
  0
XRECORD
  5
2CE
102
{ACAD_REACTORS
330
2C4
102
}
330
2C4
100
AcDbXrecord
340
0
  0
XRECORD
  5
2CD
102
{ACAD_REACTORS
330
2C4
102
}
330
2C4
100
AcDbXrecord
 90
        0
  0
XRECORD
  5
2E4
102
{ACAD_REACTORS
330
2C4
102
}
330
2C4
100
AcDbXrecord
1000
DSTYLE
1002
{
1070
   340
340
11
1002
}
  0
XRECORD
  5
2CF
102
{ACAD_REACTORS
330
2C4
102
}
330
2C4
100
AcDbXrecord
  1
{175DC201-6082-4F44-8B72-2CF9415D2A3C}
  0
XRECORD
  5
2C7
102
{ACAD_REACTORS
330
2C4
102
}
330
2C4
100
AcDbXrecord
  1

  0
XRECORD
  5
2CC
102
{ACAD_REACTORS
330
2C4
102
}
330
2C4
100
AcDbXrecord
 90
        4
  0
XRECORD
  5
2C9
102
{ACAD_REACTORS
330
2C4
102
}
330
2C4
100
AcDbXrecord
340
1A
  0
XRECORD
  5
2CB
102
{ACAD_REACTORS
330
2C4
102
}
330
2C4
100
AcDbXrecord
 90
    10781
  0
XRECORD
  5
2CA
102
{ACAD_REACTORS
330
2C4
102
}
330
2C4
100
AcDbXrecord
340
19
  0
XRECORD
  5
2D1
102
{ACAD_REACTORS
330
2C4
102
}
330
2C4
100
AcDbXrecord
 40
0.0
  0
XRECORD
  5
2D4
102
{ACAD_REACTORS
330
2C4
102
}
330
2C4
100
AcDbXrecord
340
0
  0
XRECORD
  5
2DA
102
{ACAD_REACTORS
330
2C4
102
}
330
2C4
100
AcDbXrecord
 10
0.0
 20
0.0
 30
0.0
  0
XRECORD
  5
2D6
102
{ACAD_REACTORS
330
2C4
102
}
330
2C4
100
AcDbXrecord
 10
0.0
 20
0.0
 30
0.0
  0
XRECORD
  5
2D9
102
{ACAD_REACTORS
330
2C4
102
}
330
2C4
100
AcDbXrecord
 10
0.0
 20
0.0
 30
0.0
  0
XRECORD
  5
2D7
102
{ACAD_REACTORS
330
2C4
102
}
330
2C4
100
AcDbXrecord
 10
0.0
 20
0.0
 30
0.0
  0
XRECORD
  5
2D8
102
{ACAD_REACTORS
330
2C4
102
}
330
2C4
100
AcDbXrecord
 10
0.0
 20
0.0
 30
0.0
  0
XRECORD
  5
2D5
102
{ACAD_REACTORS
330
2C4
102
}
330
2C4
100
AcDbXrecord
 10
0.0
 20
0.0
 30
0.0
  0
XRECORD
  5
2D2
102
{ACAD_REACTORS
330
2C4
102
}
330
2C4
100
AcDbXrecord
340
0
  0
XRECORD
  5
2D3
102
{ACAD_REACTORS
330
2C4
102
}
330
2C4
100
AcDbXrecord
 70
     0
  0
XRECORD
  5
2C8
102
{ACAD_REACTORS
330
2C4
102
}
330
2C4
100
AcDbXrecord
  1

  0
XRECORD
  5
2C5
102
{ACAD_REACTORS
330
2C4
102
}
330
2C4
100
AcDbXrecord
 90
        1
  0
XRECORD
  5
2C6
102
{ACAD_REACTORS
330
2C4
102
}
330
2C4
100
AcDbXrecord
 90
       70
  0
XRECORD
  5
2DD
102
{ACAD_REACTORS
330
2C4
102
}
330
2C4
100
AcDbXrecord
340
0
  0
XRECORD
  5
2E3
102
{ACAD_REACTORS
330
2C4
102
}
330
2C4
100
AcDbXrecord
 10
0.0
 20
0.0
 30
0.0
  0
XRECORD
  5
2DF
102
{ACAD_REACTORS
330
2C4
102
}
330
2C4
100
AcDbXrecord
 10
0.0
 20
0.0
 30
0.0
  0
XRECORD
  5
2E2
102
{ACAD_REACTORS
330
2C4
102
}
330
2C4
100
AcDbXrecord
 10
0.0
 20
0.0
 30
0.0
  0
XRECORD
  5
2E0
102
{ACAD_REACTORS
330
2C4
102
}
330
2C4
100
AcDbXrecord
 10
0.0
 20
0.0
 30
0.0
  0
XRECORD
  5
2E1
102
{ACAD_REACTORS
330
2C4
102
}
330
2C4
100
AcDbXrecord
 10
0.0
 20
0.0
 30
0.0
  0
XRECORD
  5
2DE
102
{ACAD_REACTORS
330
2C4
102
}
330
2C4
100
AcDbXrecord
 10
0.0
 20
0.0
 30
0.0
  0
XRECORD
  5
2DB
102
{ACAD_REACTORS
330
2C4
102
}
330
2C4
100
AcDbXrecord
340
0
  0
XRECORD
  5
2DC
102
{ACAD_REACTORS
330
2C4
102
}
330
2C4
100
AcDbXrecord
 70
     0
  0
XRECORD
  5
2D0
102
{ACAD_REACTORS
330
2C4
102
}
330
2C4
100
AcDbXrecord
  1
{FAEB1C32-E019-11D5-929B-00C0DF256EC4}
  0
DICTIONARYVAR
  5
2F0
102
{ACAD_REACTORS
330
2E5
102
}
330
2E5
100
DictionaryVariables
280
     0
  1
1:1
  0
DICTIONARYVAR
  5
2EC
102
{ACAD_REACTORS
330
2E5
102
}
330
2E5
100
DictionaryVariables
280
     0
  1
2
  0
DICTIONARYVAR
  5
2ED
102
{ACAD_REACTORS
330
2E5
102
}
330
2E5
100
DictionaryVariables
280
     0
  1
1
  0
DICTIONARYVAR
  5
2F1
102
{ACAD_REACTORS
330
2E5
102
}
330
2E5
100
DictionaryVariables
280
     0
  1
1
  0
DICTIONARYVAR
  5
2E9
102
{ACAD_REACTORS
330
2E5
102
}
330
2E5
100
DictionaryVariables
280
     0
  1
80.000000
  0
DICTIONARYVAR
  5
2E8
102
{ACAD_REACTORS
330
2E5
102
}
330
2E5
100
DictionaryVariables
280
     0
  1
5.000000
  0
DICTIONARY
  5
2F4
330
45
100
AcDbDictionary
280
     1
  3
ACAD_XREC_ROUNDTRIP
360
2F5
  0
DICTIONARY
  5
2F2
330
44
100
AcDbDictionary
280
     1
  3
ACAD_XREC_ROUNDTRIP
360
2F3
  0
DICTIONARY
  5
2F6
330
46
100
AcDbDictionary
280
     1
  3
ACAD_XREC_ROUNDTRIP
360
2F7
  0
XRECORD
  5
2F5
102
{ACAD_REACTORS
330
2F4
102
}
330
2F4
100
AcDbXrecord
102
MATERIAL
148
0.0
149
0.0
149
0.0
 93
        0
 94
      127
282
     0
 72
     1
 77
     1
171
     1
175
     1
179
     1
273
     0
  0
XRECORD
  5
2F3
102
{ACAD_REACTORS
330
2F2
102
}
330
2F2
100
AcDbXrecord
102
MATERIAL
148
0.0
149
0.0
149
0.0
 93
        0
 94
      127
282
     0
 72
     1
 77
     1
171
     1
175
     1
179
     1
273
     0
  0
XRECORD
  5
2F7
102
{ACAD_REACTORS
330
2F6
102
}
330
2F6
100
AcDbXrecord
102
MATERIAL
148
0.0
149
0.0
149
0.0
 93
        0
 94
      127
282
     0
 72
     1
 77
     1
171
     1
175
     1
179
     1
273
     0
  0
ENDSEC
  0
EOF
