**ABCDEFGHIJKLMNOPQRSTUVWXYZabcdefghijklmnopqrstuvwxyz**************************
**PARASOLID !"#$%&'()*+,-./:;<=>?@[\]^_`{|}~0123456789**************************
**PART1;
MC=AMD64;
MC_MODEL=Intel64 Family 6 Model 58 Stepping 9, GenuineIntel;
MC_ID=unknown;
OS=Windows_NT;
OS_RELEASE=unknown;
FRU=Parasolid Version 28.0, build 204, 11- 9-2015;
APPL=SOLIDWORKS 2016-2016040;
SITE=;
USER=unknown;
FORMAT=text;
GUISE=transmit;
KEY=310-020729-REV-A;
FILE=310-020729-REV-A.x_t;
DATE=Thu Dec 15 16:17:55 2016;
**PART2;
SCH=SCH_2800204_28002;
USFLD_SIZE=0;
**PART3;
**END_OF_HEADER*****************************************************************
T51 : TRANSMIT FILE created by modeller version 280020423 SCH_2800204_28002_1300
6200 0 12 30 CCCCCCCCCCCCCDI5 owner1040 0 CCCCCCCCCA13 boundary_mesh1006 0 A16 i
ndex_map_offset0 0 1 dA9 index_map82 0 A17 node_id_index_map82 0 A20 schema_embe
dding_map82 0 A5 child12 0 A14 lowest_node_id0 0 1 dZ1 2006 0 2 0 0 0 0 1e3 1e-8
 0 3 0 1 0 1 1 4 5 6 7 8 9 10 0 0 0 0 0 0 0 70 11 CI9 list_type0 0 1 uI10 notran
smit0 0 1 lCCCDCCDI12 finger_index0 0 1 dI12 finger_block1012 0 CZ2 0 4 T1 0 0 2
 20 1 11 11 13 255 4 48 0 1 0 12 0 0 13 0 50 255 5 421 0 14 15 0 0 +.0402272 .08
42242510935632 .001653118902391275 1 309215897352597e-31 35343538795856e-29 3547
854537226315e-31 -.0871557427476554 -.996194698091746 30 255 6 425 0 16 17 0 0 +
.0402272 .0842242510935632 .001653118902391275 3547854537226315e-31 -.0871557427
476554 -.996194698091746 29 255 7 396 0 10 18 0 .0402272 .0831841389519474 -.008
5143602901645 19 8 CCCCCCCA5 owner12 0 Z8 47 0 1 13 0 19 V0 16 255 9 388 0 ?20 0
 21 22 0 0 1 18 255 10 394 0 23 0 24 7 ?1 17 255 23 0 25 26 27 10 28 29 0 30 -18
 24 382 0 31 10 32 18 ?1 17 31 0 33 34 35 24 36 37 0 26 +18 32 235 0 38 24 39 40
 ?1 29 18 384 0 24 40 7 .0322272 .0831841389519474 -.0085143602901645 29 40 237
 0 32 41 18 .0402272 .0833335681566611 -.00852743365157664 29 41 96 0 42 43 40 .
0402272 .0823702298721908 -.01781738364147495 18 42 84 0 28 44 45 41 ?1 29 43 97
 0 44 46 41 .0322272 .0823702298721908 -.01781738364147495 18 44 83 0 35 47 42 4
3 ?1 29 46 35 0 39 48 43 .0322272 .0825196590769045 -.0178304570028871 18 39 33
 0 49 32 47 46 ?1 29 48 32 0 47 50 46 .0402272 .0825196590769046 -.0178304570028
871 18 47 30 0 51 39 44 48 ?1 29 50 582 0 52 53 48 .0322272 .083095617625046 -.0
0818399420061513 18 52 482 0 54 55 56 50 ?1 29 53 583 0 55 57 50 .0402272 .07758
7108443133 -55510773002361e-18 18 55 467 0 58 59 52 53 ?1 29 57 584 0 59 60 53 -
.0235 .0774642356364897 -.0001415472384550184 18 59 468 0 61 62 55 57 ?1 29 60 5
85 0 62 63 57 -.0235 .0820528471272981 -.00669476359276693 18 62 469 0 64 65 59
 60 ?1 29 63 586 0 65 66 60 -.0235 .077587108443133 -55510773002361e-18 18 65 47
0 0 67 68 62 63 ?1 29 66 587 0 68 69 63 -.0235 .0821757199339414 -.0066087271273
1428 18 68 471 0 70 71 65 66 ?1 29 69 588 0 71 72 66 .0322272 .0821757199339414
 -.00660872712731428 18 71 472 0 73 74 68 69 ?1 29 72 589 0 74 75 69 .0322272 .0
820528471272981 -.00669476359276693 18 74 473 0 76 45 71 72 ?1 29 75 590 0 45 77
 72 .0402272 .0774642356364897 -.0001415472384550184 18 45 474 0 78 42 74 75 ?1
 29 77 591 0 79 80 75 .0402272 .083095617625046 -.00818399420061514 18 79 475 0
 81 82 0 77 ?1 29 80 594 0 56 83 77 .0322272 .0832184904316893 -.008097957735162
49 18 56 481 0 84 52 85 80 ?1 29 83 595 0 85 86 80 .0322272 .0833335681566611 -.
00852743365157664 18 85 479 0 34 56 82 83 ?1 29 86 597 0 82 0 83 .0402272 .08321
84904316893 -.00809795773516249 18 82 477 0 87 85 79 86 ?1 17 87 0 88 81 20 82 8
9 90 0 91 -15 255 88 520 0 81 92 0 17 81 0 88 93 87 79 94 95 0 96 -17 20 0 88 87
 93 32 30 9 0 89 +17 89 0 97 98 91 32 87 90 0 0 +16 90 461 0 ?89 99 100 101 0 0
 1 17 91 0 97 89 102 82 103 104 0 105 -15 97 536 0 102 106 0 17 102 0 97 91 98 5
6 107 99 0 103 +17 103 0 108 73 105 56 91 104 0 109 +16 104 439 0 ?103 110 111 1
12 0 0 1 17 105 0 108 103 113 82 114 111 0 94 +15 108 501 0 105 115 0 17 113 0 1
08 105 116 55 117 118 0 114 +17 114 0 119 78 94 55 105 111 0 0 -16 111 438 0 ?10
5 104 120 121 0 0 1 17 94 0 119 114 122 82 81 95 0 0 +15 119 515 0 122 123 0 17
 122 0 119 94 78 79 124 125 0 126 +16 95 452 0 ?94 29 125 127 0 0 1 16 29 223 0
 ?28 128 95 129 0 0 1 16 125 451 0 ?122 95 130 131 0 0 1 30 127 573 0 95 132 131
 0 +.0402272 .0832184904316893 -.00809795773516249 246519032881566e-46 .81915204
4288989 .57357643635105 31 255 132 576 0 133 134 127 0 +.0402272 .08268604160290
15 -.00847078241879067 -1 0 0 0 0 1 5e-4 30 131 572 0 125 127 135 0 -.0402272 .0
519127768580129 .03634971768537955 0 -.57357643635105 .819152044288989 30 135 57
1 0 130 131 136 0 +.0322272 .0821757199339414 -.00660872712731428 0 .81915204428
8989 .57357643635105 16 130 450 0 ?137 125 138 135 0 0 1 30 136 570 0 138 135 13
9 0 +.0322272 .0519127768580129 .03634971768537955 0 -.57357643635105 .819152044
288989 16 138 449 0 ?76 130 140 136 0 0 1 30 139 569 0 140 136 141 0 +.0322272 .
0832184904316893 -.0080979577351625 -986076131526265e-46 -.819152044288989 -.573
57643635105 16 140 446 0 ?142 138 118 139 0 0 1 30 141 568 0 118 139 143 0 +-.02
35 .077587108443133 -55510773002361e-18 1 0 0 16 118 445 0 ?113 140 144 141 0 0
 1 30 143 567 0 144 141 145 0 +-.0235 .0821757199339414 -.00660872712731428 -433
6808689942015e-31 -.57357643635105 .819152044288989 16 144 444 0 ?116 118 146 14
3 0 0 1 30 145 566 0 146 143 147 0 +.0322272 .0821757199339414 -.006608727127314
28 -1 0 1245153875290204e-31 16 146 443 0 ?148 144 110 145 0 0 1 30 147 565 0 11
0 145 112 0 +.0322272 .0888051163852868 -.0160764864552064 -600354205217792e-30
 -.573576436351049 .81915204428899 16 110 442 0 ?73 146 104 147 0 0 1 30 112 564
 0 104 147 121 0 +0 .0832184904316893 -.00809795773516248 -1 0 0 30 121 563 0 11
1 112 149 0 +.0402272 .077587108443133 -55510773002361e-18 3547854537226315e-31
 .57357643635105 -.819152044288989 30 149 562 0 120 121 150 0 +-.0235 .082175719
9339414 -.00660872712731428 0 .819152044288989 .57357643635105 16 120 437 0 ?70
 111 151 149 0 0 1 30 150 561 0 151 149 152 0 -0 .0820528471272981 -.00669476359
276693 1 0 0 16 151 436 0 ?153 120 154 150 0 0 1 30 152 560 0 154 150 155 0 +-.0
235 .077587108443133 -55510773002361e-18 0 .819152044288989 .57357643635105 16 1
54 435 0 ?67 151 156 152 0 0 1 30 155 559 0 156 152 157 0 +-.0235 .0519127768580
129 .03634971768537955 0 -.57357643635105 .819152044288989 16 156 434 0 ?158 154
 159 155 0 0 1 30 157 558 0 159 155 160 0 +.0402272 .077587108443133 -5551077300
2361e-18 0 .819152044288989 .57357643635105 16 159 433 0 ?58 156 161 157 0 0 1 3
0 160 557 0 161 157 162 0 +0 .0774642356364897 -.0001415472384550184 1 0 0 16 16
1 432 0 ?163 159 164 160 0 0 1 30 162 556 0 164 160 165 0 +0 .083095617625046 -.
00818399420061514 -1 0 0 16 164 464 0 ?54 161 99 162 0 0 1 30 165 16 0 166 162 1
67 0 +.0402272 .0825196590769046 -.0178304570028871 -1 -77134590082494e-29 17794
96396150295e-30 16 166 15 0 ?168 169 16 165 0 0 1 30 167 90 0 128 165 170 0 -0 .
0823702298721908 -.01781738364147495 1 0 0 16 128 73 0 ?171 37 29 167 0 0 1 30 1
70 124 0 172 167 173 0 +.0322272 .0825196590769045 -.0178304570028871 0 .9961946
98091746 -.087155742747655 16 172 107 0 ?49 174 169 170 0 0 1 30 173 125 0 174 1
70 175 0 +.0402272 .0825196590769046 -.0178304570028871 0 .996194698091746 -.087
155742747655 16 174 110 0 ?176 177 172 173 0 0 1 30 175 360 0 177 173 178 0 +0 .
0833335681566611 -.00852743365157664 -1 0 0 16 177 355 0 ?98 179 174 175 0 0 1 3
0 178 369 0 179 175 180 0 +.0322272 .0833335681566611 -.00852743365157665 -98607
6131526265e-46 -.996194698091746 .087155742747655 16 179 364 0 ?181 21 177 178 0
 0 1 30 180 381 0 21 178 22 0 +0 .0831841389519474 -.0085143602901645 -1 0 0 16
 21 376 0 ?26 9 179 180 0 0 1 30 22 393 0 9 180 129 0 +.0402272 .083333568156661
2 -.00852743365157665 246519032881566e-46 .996194698091746 -.087155742747655 30
 129 422 0 29 22 182 0 -.0402272 .0879574018328436 .0460442840933106 0 .08715574
2747655 .996194698091746 30 182 423 0 37 129 17 0 +.0322272 .0879574018328436 .0
460442840933106 0 .087155742747655 .996194698091746 16 37 71 0 ?31 16 128 182 0
 0 1 30 17 424 0 169 182 6 0 +.0322272 .0825196590769045 -.0178304570028871 -600
354205217792e-30 .0871557427476561 .996194698091746 16 169 18 0 ?183 172 166 17
 0 0 1 17 183 0 184 38 168 85 185 169 0 98 +15 184 256 0 38 186 0 17 38 0 184 51
 183 32 98 177 0 187 -17 168 0 184 183 51 39 188 166 0 185 +17 185 0 33 35 34 39
 183 169 0 0 -17 98 0 97 102 89 85 38 177 0 107 +17 107 0 189 181 84 85 102 99 0
 0 -15 189 531 0 181 190 0 17 181 0 189 191 107 24 34 179 0 192 +17 84 0 189 107
 191 56 142 140 0 102 -16 99 460 0 ?102 164 90 193 0 0 1 31 193 579 0 99 101 134
 0 +.0322272 .0826860416029015 -.00847078241879067 1 0 0 0 0 -1 65e-5 31 101 581
 0 90 0 193 0 +.0402272 .0826860416029015 -.00847078241879067 -1 0 0 0 0 1 65e-5
 31 134 578 0 100 193 132 0 -.0322272 .0826860416029015 -.00847078241879067 -1 0
 0 0 0 1 5e-4 16 100 459 0 ?191 90 133 134 0 0 1 17 191 0 189 84 181 52 192 100
 0 194 +16 133 455 0 ?93 100 0 132 0 0 1 17 93 0 88 20 81 10 96 133 0 0 +17 96 0
 195 54 196 79 93 133 0 122 -15 195 541 0 192 197 0 17 54 0 195 192 96 52 126 16
4 0 191 +17 196 0 195 96 192 10 26 21 0 93 -17 192 0 195 196 54 24 191 100 0 0 -
17 26 0 25 36 23 24 196 21 0 181 +15 25 68 0 23 12 0 17 36 0 25 27 26 44 31 37 0
 171 -17 27 0 25 23 36 42 171 128 0 0 -17 171 0 198 49 199 44 27 128 0 0 +15 198
 111 0 199 200 0 17 49 0 198 188 171 39 35 172 0 168 +17 199 0 198 171 188 42 17
6 174 0 27 -17 188 0 198 199 49 47 168 166 0 0 -17 176 0 201 187 28 47 199 174 0
 188 +15 201 239 0 30 14 0 17 187 0 201 30 176 32 51 16 0 20 -17 28 0 201 176 30
 42 23 29 0 199 +17 30 0 201 28 187 10 20 9 0 196 -17 51 0 184 168 38 47 187 16
 0 176 +16 16 236 0 ?51 166 37 6 0 0 1 14 255 14 115 202 ?200 12 201 4 5 +0 0 20
0 12 19 81 255 1 202 1976 203 14 204 0 0 205 206 14 200 112 205 ?207 14 198 4 20
8 +0 0 207 14 19 14 12 230 209 ?14 0 25 4 15 -0 0 14 0 19 13 19 57 0 0 0 0 0 0 8
 12 81 1 209 1980 203 12 210 0 205 211 212 50 15 420 0 12 213 5 0 +0 .0879574018
328436 .0460442840933106 0 .996194698091746 -.087155742747655 0 .087155742747655
 .996194698091746 50 213 419 0 207 214 15 0 +.0322272 .0825196590769045 -.017830
4570028871 -1 -523243166674347e-31 -598069676215048e-30 -600354205217792e-30 .08
71557427476561 .996194698091746 14 207 109 211 ?186 200 33 4 213 +0 0 186 200 19
 50 214 418 0 186 208 213 0 +0 .0881068310375574 .0460312107318985 0 .9961946980
91746 -.087155742747655 0 .087155742747655 .996194698091746 14 186 1 215 ?216 20
7 184 4 214 +0 0 216 207 19 50 208 119 0 200 217 214 0 +.0402272 .08251965907690
46 -.0178304570028871 -1705497650216535e-30 -.087155742747655 -.996194698091746
 -1 -77134590082494e-29 1779496396150295e-30 50 217 544 0 123 218 208 0 +.040227
2 .077587108443133 -55510773002361e-18 1 -2034965762154175e-31 29062322970089e-2
9 3547854537226315e-31 .57357643635105 -.819152044288989 14 123 511 219 ?92 220
 119 4 217 +0 0 92 220 19 50 218 545 0 220 221 217 0 +0 .0519127768580129 .03634
971768537955 0 .819152044288989 .57357643635105 0 -.57357643635105 .819152044288
989 14 220 507 222 ?123 223 224 4 218 -0 0 123 223 19 50 221 546 0 223 225 218 0
 +.0322272 .0888051163852868 -.0160764864552064 -1 344349025577188e-30 -49178137
4501646e-30 -600354205217792e-30 -.573576436351049 .81915204428899 14 223 502 22
6 ?220 115 227 4 221 +0 0 220 115 19 50 225 547 0 115 228 221 0 +0 .052035649664
6562 .0364357541508322 0 .819152044288989 .57357643635105 0 -.57357643635105 .81
9152044288989 14 115 498 229 ?223 230 108 4 225 +0 0 223 230 19 50 228 548 0 230
 231 225 0 +.0322272 .0821757199339414 -.00660872712731428 -1019970342398328e-31
 .57357643635105 -.819152044288989 -1 0 1245153875290204e-31 14 230 493 232 ?115
 233 234 4 228 +0 0 115 233 19 50 231 549 0 233 235 228 0 +-.0235 .0821757199339
414 -.00660872712731428 -1 2487491273513205e-31 -3552505704056255e-31 -433680868
9942015e-31 -.57357643635105 .819152044288989 14 233 488 236 ?230 216 237 4 231
 +0 0 230 216 19 50 235 550 0 216 238 231 0 +-.0235 .077587108443133 -5551077300
2361e-18 0 -.57357643635105 .819152044288989 1 0 0 14 216 483 239 ?233 186 240 4
 235 +0 0 233 186 19 50 238 551 0 92 241 235 0 +.0402272 .0826860416029015 -.008
47078241879067 1 0 0 0 0 -1 14 92 516 242 ?190 123 88 4 238 +0 0 190 123 19 50 2
41 553 0 190 243 238 0 +.0322272 .0826860416029015 -.00847078241879067 -1 0 0 0
 0 1 14 190 527 244 ?106 92 189 4 241 +0 0 106 92 19 51 255 243 554 0 197 245 24
1 0 +.04424572902054825 .0826860416029015 -.00847078241879067 -1 0 0 5e-4 0 0 1
 14 197 537 246 ?0 106 195 4 243 -0 0 0 106 19 51 245 555 0 106 0 243 0 +.044245
72902054825 .0826860416029015 -.00847078241879067 -1 0 0 65e-5 0 0 1 14 106 532
 247 ?197 190 97 4 245 +0 0 197 190 19 81 1 247 2006 203 106 248 0 246 0 249 80
 255 1 203 250 251 9000 1 1 1 1 1 1 1 1 0 FFFFTFTFFFFFFF1 81 1 248 1915 252 106
 0 247 253 254 255 81 1 246 2004 203 197 254 0 244 247 256 82 255 1 249 -9857880
79 81 1 254 1916 252 197 0 246 248 0 257 81 1 244 2002 203 190 253 0 242 246 258
 82 1 256 -983035567 81 1 253 1914 252 190 0 244 259 248 260 81 1 242 2000 203 9
2 259 0 239 244 261 82 1 258 -979693231 81 1 259 1913 252 92 0 242 262 253 263 8
1 1 239 1998 203 216 264 0 236 242 265 82 1 261 -979037871 81 1 264 1906 252 216
 0 239 266 267 268 81 1 236 1996 203 233 267 0 232 239 269 82 1 265 -1093004975
 81 1 267 1907 252 233 0 236 264 270 271 81 1 232 1994 203 230 270 0 229 236 272
 82 1 269 -1092349615 81 1 270 1908 252 230 0 232 267 273 274 81 1 229 1992 203
 115 273 0 226 232 275 82 1 272 -1092021935 81 1 273 1909 252 115 0 229 270 276
 277 81 1 226 1990 203 223 276 0 222 229 278 82 1 275 -1029959343 81 1 276 1910
 252 223 0 226 273 279 280 81 1 222 1988 203 220 279 0 219 226 281 82 1 278 -103
0549167 81 1 279 1911 252 220 0 222 276 262 282 81 1 219 1986 203 123 262 0 215
 222 283 82 1 281 -1095626415 81 1 262 1912 252 123 0 219 279 259 284 81 1 215 1
984 203 186 266 0 211 219 285 82 1 283 -1031794351 81 1 266 1905 252 186 0 215 2
86 264 287 81 1 211 1982 203 207 286 0 209 215 288 82 1 285 -1102835375 81 1 286
 1904 252 207 0 211 289 266 290 82 1 288 -1091694255 80 1 252 0 291 8001 0 0 0 0
 3 5 0 0 0 FFFFTFTFFFFFFF2 81 1 289 1903 252 200 0 205 204 286 292 83 255 3 290
 .501960784313726 .501960784313726 .501960784313726 81 1 205 1978 203 200 289 0
 202 209 293 81 1 204 1902 252 14 0 202 210 289 294 83 3 292 .501960784313726 .5
01960784313726 .501960784313726 81 1 210 1901 252 12 0 209 0 204 295 83 3 294 .5
01960784313726 .501960784313726 .501960784313726 83 3 295 .501960784313726 .5019
60784313726 .501960784313726 82 1 293 -1091366575 79 255 15 291 SDL/TYSA_COLOUR8
3 3 287 .501960784313726 .501960784313726 .501960784313726 83 3 284 .50196078431
3726 .501960784313726 .501960784313726 83 3 282 .501960784313726 .50196078431372
6 .501960784313726 83 3 280 .501960784313726 .501960784313726 .501960784313726 8
3 3 277 .501960784313726 .501960784313726 .501960784313726 83 3 274 .50196078431
3726 .501960784313726 .501960784313726 83 3 271 .501960784313726 .50196078431372
6 .501960784313726 83 3 268 .501960784313726 .501960784313726 .501960784313726 8
3 3 263 .501960784313726 .501960784313726 .501960784313726 83 3 260 .50196078431
3726 .501960784313726 .501960784313726 83 3 257 .501960784313726 .50196078431372
6 .501960784313726 83 3 255 .501960784313726 .501960784313726 .501960784313726 7
9 14 251 SWEntUnchanged15 240 487 0 163 216 0 17 163 0 240 58 61 45 296 161 0 0
 +17 58 0 240 117 163 55 78 159 0 113 +17 61 0 240 163 117 59 67 154 0 296 -17 2
96 0 224 297 124 59 163 161 0 158 -15 224 510 0 126 220 0 17 297 0 224 298 296 6
2 158 156 0 153 -17 124 0 224 296 126 45 122 125 0 163 -17 158 0 237 67 64 59 29
7 156 0 0 +15 237 492 0 64 233 0 17 67 0 237 299 158 65 61 154 0 116 +17 64 0 23
7 158 299 62 70 120 0 297 -17 299 0 237 64 67 68 116 144 0 148 -17 70 0 234 300
 153 68 64 120 0 299 +15 234 497 0 301 230 0 17 300 0 234 301 70 71 148 146 0 0
 -17 153 0 234 70 301 62 298 151 0 0 +17 301 0 234 153 300 74 137 130 0 298 -17
 298 0 224 194 297 74 153 151 0 0 -17 194 0 224 126 298 52 76 138 0 142 -17 126
 0 224 124 194 79 54 164 0 0 -17 76 0 227 137 142 74 194 138 0 301 +17 142 0 227
 76 109 52 84 140 0 0 +15 227 506 0 109 223 0 17 109 0 227 142 137 56 73 110 0 0
 -17 137 0 227 109 76 71 301 130 0 300 +17 73 0 108 148 103 71 109 110 0 137 +17
 148 0 108 116 73 68 300 146 0 0 +17 116 0 108 113 148 65 299 144 0 117 +17 117
 0 240 61 58 65 113 118 0 0 -17 78 0 119 122 114 45 58 159 0 124 -15 33 249 0 34
 207 0 17 34 0 33 185 31 85 181 179 0 183 -82 1 212 -1021177519 82 1 206 -109103
8895 17 35 0 33 31 185 44 49 172 0 36 -19 13 60 0 1 0 8 4 S0 74 4 CI16 index_map
_offset0 0 1 dCCZ20 11 2 0 0 247 254 0 0 0 0 0 0 0 0 0 0 0 0 0 0 0 0 0 0 1 0 
