**ABCDEFGHIJKLMNOPQRSTUVWXYZabcdefghijklmnopqrstuvwxyz**************************
**PARASOLID !"#$%&'()*+,-./:;<=>?@[\]^_`{|}~0123456789**************************
**PART1;
MC=AMD64;
MC_MODEL=Intel64 Family 6 Model 58 Stepping 9, GenuineIntel;
MC_ID=unknown;
OS=Windows_NT;
OS_RELEASE=unknown;
FRU=Parasolid Version 28.0, build 204, 11- 9-2015;
APPL=SOLIDWORKS 2016-2016040;
SITE=;
USER=unknown;
FORMAT=text;
GUISE=transmit;
KEY=310-019626-REV-A;
FILE=310-019626-REV-A.x_t;
DATE=Wed Oct 05 16:13:19 2016;
**PART2;
SCH=SCH_2800204_28002;
USFLD_SIZE=0;
**PART3;
**END_OF_HEADER*****************************************************************
T51 : TRANSMIT FILE created by modeller version 280020423 SCH_2800204_28002_1300
6200 0 12 30 CCCCCCCCCCCCCDI5 owner1040 0 CCCCCCCCCA13 boundary_mesh1006 0 A16 i
ndex_map_offset0 0 1 dA9 index_map82 0 A17 node_id_index_map82 0 A20 schema_embe
dding_map82 0 A5 child12 0 A14 lowest_node_id0 0 1 dZ1 595 2 3 0 0 0 0 1e3 1e-8
 0 4 0 1 0 1 1 5 6 7 8 9 10 11 0 0 0 0 0 0 0 81 255 2 2 169 12 1 0 0 0 0 13 0 70
 11 CI9 list_type0 0 1 uI10 notransmit0 0 1 lCCCDCCDI12 finger_index0 0 1 dI12 f
inger_block1012 0 CZ3 0 4 T1 0 0 3 20 1 14 14 13 255 5 94 0 1 0 15 0 0 16 0 50 2
55 6 89 0 15 17 0 0 +.0544 .007 -.05536 -1 -153176465869917e-30 0 15317646586991
7e-30 -1 0 30 255 7 93 0 18 19 0 0 +.0544 -.0383 -.05536 0 0 1 29 255 8 70 0 20
 21 0 .0544 .007 -.053 19 8 CCCCCCCA5 owner12 0 Z9 28 0 1 16 0 22 V0 16 255 10 7
4 0 ?23 0 24 25 0 0 1 18 255 11 25 0 26 0 27 28 ?1 17 255 26 0 29 30 31 11 23 10
 0 32 -18 27 22 0 33 11 34 35 ?1 29 28 27 0 11 35 36 .0544 .007 -.05536 29 35 24
 0 27 37 28 .0719 .007 -.05536 29 36 73 0 38 28 39 .0544 -.0383 -.053 18 38 64 0
 40 41 0 36 ?1 29 39 72 0 41 36 21 .0719 -.0383 -.053 18 41 63 0 42 43 38 39 ?1
 29 21 71 0 43 39 8 .0719 .007 -.053 18 43 62 0 44 20 41 21 ?1 17 44 0 45 46 47
 43 33 24 0 48 +18 20 61 0 23 49 43 8 ?1 17 23 0 50 51 52 20 26 10 0 31 +18 49 1
6 0 53 34 20 54 ?1 17 53 0 55 56 57 49 40 18 0 58 -18 34 19 0 59 27 49 37 ?1 29
 54 18 0 49 0 37 .0544 -.0383 -.05536 29 37 21 0 34 54 35 .0719 -.0383 -.05536 1
7 59 0 45 47 46 34 42 60 0 61 -15 255 45 80 0 46 62 0 17 47 0 45 44 59 27 61 63
 0 64 +17 46 0 45 59 44 41 48 65 0 66 -17 42 0 55 57 56 41 59 60 0 46 +16 60 76
 0 ?42 24 18 19 0 0 1 17 61 0 67 58 64 34 47 63 0 56 -15 67 3 0 32 68 0 17 58 0
 67 32 61 49 56 69 0 30 -17 64 0 67 61 32 27 52 70 0 0 -16 63 10 0 ?47 70 69 71
 0 0 1 17 56 0 55 42 53 34 58 69 0 0 +15 55 82 0 57 72 0 16 69 7 0 ?56 63 73 74
 0 0 1 16 73 4 0 ?30 69 75 76 0 0 1 30 74 8 0 69 76 71 0 +.0544 -.0383 -.05536 1
 0 0 30 76 5 0 73 0 74 0 +.0544 .007 -.05536 153176465869917e-30 -1 0 30 71 11 0
 63 74 77 0 +.0719 .007 -.05536 0 1 0 30 77 14 0 70 71 78 0 +.0544 .007 -.05536
 -1 495635278850516e-31 0 16 70 13 0 ?52 18 63 77 0 0 1 30 78 69 0 79 77 80 0 +.
0544 .007 -.053 153176465869917e-30 -1 0 16 79 57 0 ?81 82 0 78 0 0 1 30 80 68 0
 82 78 83 0 +.0544 -.0383 -.053 1 0 0 16 82 53 0 ?66 65 79 80 0 0 1 30 83 67 0 6
5 80 84 0 +.0719 .007 -.053 0 1 0 16 65 49 0 ?48 75 82 83 0 0 1 30 84 66 0 75 83
 25 0 +.0544 .007 -.053 -1 495635278850516e-31 0 16 75 45 0 ?85 73 65 84 0 0 1 3
0 25 90 0 10 84 86 0 +.0544 .007 -.05536 0 0 1 30 86 91 0 24 25 19 0 +.0719 .007
 -.05536 0 0 1 16 24 75 0 ?44 10 60 86 0 0 1 30 19 92 0 60 86 7 0 +.0719 -.0383
 -.05536 0 0 1 17 85 0 87 81 48 20 51 75 0 0 +15 87 44 0 81 88 0 17 81 0 87 66 8
5 38 31 79 0 0 +17 48 0 87 85 66 43 46 65 0 51 +17 51 0 50 33 23 43 85 75 0 0 -1
5 50 78 0 51 89 0 17 33 0 50 52 51 27 44 24 0 47 -17 52 0 50 23 33 11 64 70 0 0
 +14 255 89 79 90 ?62 15 50 5 91 +0 0 62 15 22 81 1 90 590 92 89 93 0 0 94 95 14
 62 81 94 ?72 89 45 5 96 +0 0 72 89 22 14 15 85 97 ?89 0 29 5 6 +0 0 89 0 22 50
 91 86 0 89 98 96 0 +.0544 .007 -.05536 495635278850516e-31 1 0 -1 4956352788505
16e-31 0 13 22 29 0 0 0 0 0 0 9 15 50 98 65 0 88 99 91 0 +0 0 -.053 0 0 1 1 0 0
 50 96 87 0 62 91 17 0 +.0719 .007 -.05536 1 0 0 0 0 -1 50 17 88 0 72 96 6 0 +.0
544 -.0383 -.05536 0 -1 0 0 0 -1 14 72 83 100 ?68 62 55 5 17 +0 0 68 62 22 81 1
 100 593 92 72 101 0 97 102 103 14 68 1 102 ?88 72 67 5 99 -0 0 88 72 22 81 1 10
2 594 92 68 104 0 100 105 106 14 88 43 105 ?0 68 87 5 98 +0 0 0 68 22 50 99 2 0
 68 0 98 0 +0 0 -.05536 0 0 1 1 0 0 81 1 105 595 92 88 107 0 102 0 108 80 255 1
 92 109 110 9000 1 1 1 1 1 1 1 1 0 FFFFTFTFFFFFFF1 81 1 107 575 111 88 0 105 104
 0 112 82 255 1 108 341585908 80 1 111 0 113 8001 0 0 0 0 3 5 0 0 0 FFFFTFTFFFFF
FF2 81 1 104 574 111 68 0 102 101 107 114 83 255 3 112 .250980392156863 .2509803
92156863 .250980392156863 81 1 101 573 111 72 0 100 115 104 116 83 3 114 .250980
392156863 .250980392156863 .250980392156863 81 1 115 572 111 62 0 94 93 101 117
 83 3 116 .250980392156863 .250980392156863 .250980392156863 81 1 94 591 92 62 1
15 0 90 97 118 81 1 93 571 111 89 0 90 119 115 120 83 3 117 .250980392156863 .25
0980392156863 .250980392156863 81 1 119 570 111 15 0 97 0 93 121 83 3 120 .25098
0392156863 .250980392156863 .250980392156863 81 1 97 592 92 15 119 0 94 100 122
 83 3 121 .250980392156863 .250980392156863 .250980392156863 82 1 122 342896628
 82 1 118 342634484 79 255 15 113 SDL/TYSA_COLOUR79 14 110 SWEntUnchanged82 1 10
6 335949812 82 1 103 342765556 15 29 84 0 31 15 0 17 31 0 29 26 40 20 81 79 0 85
 -17 40 0 29 31 30 38 53 18 0 57 +17 30 0 29 40 26 49 32 73 0 0 +16 18 77 0 ?40
 60 70 7 0 0 1 17 57 0 55 53 42 38 66 82 0 81 -17 66 0 87 48 81 41 57 82 0 0 +17
 32 0 67 64 58 11 30 73 0 52 -82 1 95 342503412 19 16 95 0 1 0 9 5 S0 74 4 CI16
 index_map_offset0 0 1 dCCZ20 14 3 0 0 105 2 107 0 0 0 0 0 0 0 0 0 0 0 0 0 0 0 0
 0 80 2 12 123 124 8004 0 0 0 0 3 5 0 0 0 FFTFFFFFFFFFFF2 3 83 1 13 7999.4947176
3306 79 16 124 SDL/TYSA_DENSITY1 0 
