  0
SECTION
  2
HEADER
  9
$ACADVER
  1
AC1014
  9
$ACADMAINTVER
 70
     9
  9
$DWGCODEPAGE
  3
ANSI_1252
  9
$INSBASE
 10
0.0
 20
0.0
 30
0.0
  9
$EXTMIN
 10
1.000000000000000E+20
 20
1.000000000000000E+20
 30
1.000000000000000E+20
  9
$EXTMAX
 10
-1.000000000000000E+20
 20
-1.000000000000000E+20
 30
-1.000000000000000E+20
  9
$LIMMIN
 10
19.86122774
 20
17.59500926
  9
$LIMMAX
 10
830.5471857399999
 20
545.71201246
  9
$ORTHOMODE
 70
     0
  9
$REGENMODE
 70
     1
  9
$FILLMODE
 70
     1
  9
$QTEXTMODE
 70
     0
  9
$MIRRTEXT
 70
     1
  9
$DRAGMODE
 70
     2
  9
$LTSCALE
 40
1.0
  9
$OSMODE
 70
    37
  9
$ATTMODE
 70
     1
  9
$TEXTSIZE
 40
2.5
  9
$TRACEWID
 40
1.0
  9
$TEXTSTYLE
  7
STANDARD
  9
$CLAYER
  8
0
  9
$CELTYPE
  6
BYLAYER
  9
$CECOLOR
 62
   256
  9
$CELTSCALE
 40
1.0
  9
$DELOBJ
 70
     1
  9
$DISPSILH
 70
     0
  9
$DIMSCALE
 40
1.0
  9
$DIMASZ
 40
2.5
  9
$DIMEXO
 40
0.625
  9
$DIMDLI
 40
3.75
  9
$DIMRND
 40
0.0
  9
$DIMDLE
 40
0.0
  9
$DIMEXE
 40
1.25
  9
$DIMTP
 40
0.0
  9
$DIMTM
 40
0.0
  9
$DIMTXT
 40
2.5
  9
$DIMCEN
 40
2.5
  9
$DIMTSZ
 40
0.0
  9
$DIMTOL
 70
     0
  9
$DIMLIM
 70
     0
  9
$DIMTIH
 70
     0
  9
$DIMTOH
 70
     0
  9
$DIMSE1
 70
     0
  9
$DIMSE2
 70
     0
  9
$DIMTAD
 70
     1
  9
$DIMZIN
 70
     8
  9
$DIMBLK
  1

  9
$DIMASO
 70
     1
  9
$DIMSHO
 70
     1
  9
$DIMPOST
  1

  9
$DIMAPOST
  1

  9
$DIMALT
 70
     0
  9
$DIMALTD
 70
     3
  9
$DIMALTF
 40
0.03937007874016
  9
$DIMLFAC
 40
1.0
  9
$DIMTOFL
 70
     1
  9
$DIMTVP
 40
0.0
  9
$DIMTIX
 70
     0
  9
$DIMSOXD
 70
     0
  9
$DIMSAH
 70
     0
  9
$DIMBLK1
  1

  9
$DIMBLK2
  1

  9
$DIMSTYLE
  2
ISO-25
  9
$DIMCLRD
 70
     0
  9
$DIMCLRE
 70
     0
  9
$DIMCLRT
 70
     0
  9
$DIMTFAC
 40
1.0
  9
$DIMGAP
 40
0.625
  9
$DIMJUST
 70
     0
  9
$DIMSD1
 70
     0
  9
$DIMSD2
 70
     0
  9
$DIMTOLJ
 70
     0
  9
$DIMTZIN
 70
     8
  9
$DIMALTZ
 70
     0
  9
$DIMALTTZ
 70
     0
  9
$DIMFIT
 70
     3
  9
$DIMUPT
 70
     0
  9
$DIMUNIT
 70
     2
  9
$DIMDEC
 70
     2
  9
$DIMTDEC
 70
     2
  9
$DIMALTU
 70
     2
  9
$DIMALTTD
 70
     3
  9
$DIMTXSTY
  7
STANDARD
  9
$DIMAUNIT
 70
     0
  9
$LUNITS
 70
     2
  9
$LUPREC
 70
     4
  9
$SKETCHINC
 40
1.0
  9
$FILLETRAD
 40
10.0
  9
$AUNITS
 70
     0
  9
$AUPREC
 70
     0
  9
$MENU
  1
.
  9
$ELEVATION
 40
0.0
  9
$PELEVATION
 40
0.0
  9
$THICKNESS
 40
0.0
  9
$LIMCHECK
 70
     0
  9
$CHAMFERA
 40
0.0
  9
$CHAMFERB
 40
0.0
  9
$CHAMFERC
 40
0.0
  9
$CHAMFERD
 40
0.0
  9
$SKPOLY
 70
     0
  9
$TDCREATE
 40
2457655.583852651
  9
$TDUPDATE
 40
2457655.583853194
  9
$TDINDWG
 40
0.0000000116
  9
$TDUSRTIMER
 40
0.0000000116
  9
$USRTIMER
 70
     1
  9
$ANGBASE
 50
0.0
  9
$ANGDIR
 70
     0
  9
$PDMODE
 70
     0
  9
$PDSIZE
 40
0.0
  9
$PLINEWID
 40
0.0
  9
$COORDS
 70
     1
  9
$SPLFRAME
 70
     0
  9
$SPLINETYPE
 70
     6
  9
$SPLINESEGS
 70
     8
  9
$ATTDIA
 70
     0
  9
$ATTREQ
 70
     1
  9
$HANDLING
 70
     1
  9
$HANDSEED
  5
236
  9
$SURFTAB1
 70
     6
  9
$SURFTAB2
 70
     6
  9
$SURFTYPE
 70
     6
  9
$SURFU
 70
     6
  9
$SURFV
 70
     6
  9
$UCSNAME
  2

  9
$UCSORG
 10
0.0
 20
0.0
 30
0.0
  9
$UCSXDIR
 10
1.0
 20
0.0
 30
0.0
  9
$UCSYDIR
 10
0.0
 20
1.0
 30
0.0
  9
$PUCSNAME
  2

  9
$PUCSORG
 10
0.0
 20
0.0
 30
0.0
  9
$PUCSXDIR
 10
1.0
 20
0.0
 30
0.0
  9
$PUCSYDIR
 10
0.0
 20
1.0
 30
0.0
  9
$USERI1
 70
     0
  9
$USERI2
 70
     0
  9
$USERI3
 70
     0
  9
$USERI4
 70
     0
  9
$USERI5
 70
     0
  9
$USERR1
 40
0.0
  9
$USERR2
 40
0.0
  9
$USERR3
 40
0.0
  9
$USERR4
 40
0.0
  9
$USERR5
 40
0.0
  9
$WORLDVIEW
 70
     1
  9
$SHADEDGE
 70
     3
  9
$SHADEDIF
 70
    70
  9
$TILEMODE
 70
     1
  9
$MAXACTVP
 70
    64
  9
$PINSBASE
 10
0.0
 20
0.0
 30
0.0
  9
$PLIMCHECK
 70
     0
  9
$PEXTMIN
 10
1.000000000000000E+20
 20
1.000000000000000E+20
 30
1.000000000000000E+20
  9
$PEXTMAX
 10
-1.000000000000000E+20
 20
-1.000000000000000E+20
 30
-1.000000000000000E+20
  9
$PLIMMIN
 10
0.0
 20
0.0
  9
$PLIMMAX
 10
420.0
 20
297.0
  9
$UNITMODE
 70
     0
  9
$VISRETAIN
 70
     1
  9
$PLINEGEN
 70
     0
  9
$PSLTSCALE
 70
     1
  9
$TREEDEPTH
 70
  3020
  9
$PICKSTYLE
 70
     1
  9
$CMLSTYLE
  2
STANDARD
  9
$CMLJUST
 70
     0
  9
$CMLSCALE
 40
20.0
  9
$PROXYGRAPHICS
 70
     1
  9
$MEASUREMENT
 70
     1
  0
ENDSEC
  0
SECTION
  2
CLASSES
  0
CLASS
  1
ACDBDICTIONARYWDFLT
  2
AcDbDictionaryWithDefault
  3
ObjectDBX Classes
 90
        0
280
     0
281
     0
  0
CLASS
  1
VISUALSTYLE
  2
AcDbVisualStyle
  3
ObjectDBX Classes
 90
     4095
280
     0
281
     0
  0
CLASS
  1
MATERIAL
  2
AcDbMaterial
  3
ObjectDBX Classes
 90
     1153
280
     0
281
     0
  0
CLASS
  1
SCALE
  2
AcDbScale
  3
ObjectDBX Classes
 90
     1153
280
     0
281
     0
  0
CLASS
  1
SUN
  2
AcDbSun
  3
SCENEOE
 90
     1153
280
     0
281
     0
  0
CLASS
  1
DICTIONARYVAR
  2
AcDbDictionaryVar
  3
ObjectDBX Classes
 90
        0
280
     0
281
     0
  0
CLASS
  1
XRECORD
  2
AcDbXrecord
  3
ObjectDBX Classes
 90
        0
280
     0
281
     0
  0
CLASS
  1
LWPOLYLINE
  2
AcDbPolyline
  3
ObjectDBX Classes
 90
        0
280
     0
281
     1
  0
CLASS
  1
HATCH
  2
AcDbHatch
  3
ObjectDBX Classes
 90
        0
280
     0
281
     1
  0
CLASS
  1
ACDBPLACEHOLDER
  2
AcDbPlaceHolder
  3
ObjectDBX Classes
 90
        0
280
     0
281
     0
  0
CLASS
  1
LAYOUT
  2
AcDbLayout
  3
ObjectDBX Classes
 90
        0
280
     0
281
     0
  0
ENDSEC
  0
SECTION
  2
TABLES
  0
TABLE
  2
VPORT
  5
8
102
{ACAD_XDICTIONARY
360
22C
102
}
330
0
100
AcDbSymbolTable
 70
     1
  0
VPORT
  5
29
330
8
100
AcDbSymbolTableRecord
100
AcDbViewportTableRecord
  2
*ACTIVE
 70
     0
 10
0.0
 20
0.0
 11
1.0
 21
1.0
 12
344.1869158878504
 22
148.5
 13
0.0
 23
0.0
 14
10.0
 24
10.0
 15
10.0
 25
10.0
 16
0.0
 26
0.0
 36
1.0
 17
0.0
 27
0.0
 37
0.0
 40
297.0
 41
1.972972972850329
 42
50.0
 43
0.0
 44
0.0
 50
0.0
 51
0.0
 71
     0
 72
   100
 73
     1
 74
     3
 75
     0
 76
     0
 77
     0
 78
     0
  0
ENDTAB
  0
TABLE
  2
LTYPE
  5
5
330
0
100
AcDbSymbolTable
 70
     1
  0
LTYPE
  5
14
330
5
100
AcDbSymbolTableRecord
100
AcDbLinetypeTableRecord
  2
BYBLOCK
 70
     0
  3

 72
    65
 73
     0
 40
0.0
  0
LTYPE
  5
15
330
5
100
AcDbSymbolTableRecord
100
AcDbLinetypeTableRecord
  2
BYLAYER
 70
     0
  3

 72
    65
 73
     0
 40
0.0
  0
LTYPE
  5
16
330
5
100
AcDbSymbolTableRecord
100
AcDbLinetypeTableRecord
  2
CONTINUOUS
 70
     0
  3
Solid line
 72
    65
 73
     0
 40
0.0
  0
ENDTAB
  0
TABLE
  2
LAYER
  5
2
330
0
100
AcDbSymbolTable
 70
     5
  0
LAYER
  5
10
330
2
100
AcDbSymbolTableRecord
100
AcDbLayerTableRecord
  2
0
 70
     0
 62
     7
  6
CONTINUOUS
  0
LAYER
  5
6A
330
2
100
AcDbSymbolTableRecord
100
AcDbLayerTableRecord
  2
MECHANICAL1
 70
     0
 62
     6
  6
CONTINUOUS
  0
LAYER
  5
6B
330
2
100
AcDbSymbolTableRecord
100
AcDbLayerTableRecord
  2
TOPOVERLAY
 70
     0
 62
     2
  6
CONTINUOUS
  0
LAYER
  5
6C
330
2
100
AcDbSymbolTableRecord
100
AcDbLayerTableRecord
  2
TOPPASTE
 70
     0
 62
     8
  6
CONTINUOUS
  0
LAYER
  5
6D
330
2
100
AcDbSymbolTableRecord
100
AcDbLayerTableRecord
  2
PADHOLELAYER
 70
     0
 62
   156
  6
CONTINUOUS
  0
ENDTAB
  0
TABLE
  2
STYLE
  5
3
330
0
100
AcDbSymbolTable
 70
     1
  0
STYLE
  5
11
330
3
100
AcDbSymbolTableRecord
100
AcDbTextStyleTableRecord
  2
STANDARD
 70
     0
 40
0.0
 41
1.0
 50
0.0
 71
     0
 42
2.5
  3
txt
  4

  0
ENDTAB
  0
TABLE
  2
VIEW
  5
6
330
0
100
AcDbSymbolTable
 70
     0
  0
ENDTAB
  0
TABLE
  2
UCS
  5
7
330
0
100
AcDbSymbolTable
 70
     0
  0
ENDTAB
  0
TABLE
  2
APPID
  5
9
330
0
100
AcDbSymbolTable
 70
     1
  0
APPID
  5
12
330
9
100
AcDbSymbolTableRecord
100
AcDbRegAppTableRecord
  2
ACAD
 70
     0
  0
ENDTAB
  0
TABLE
  2
DIMSTYLE
  5
A
330
0
100
AcDbSymbolTable
 70
     1
  0
DIMSTYLE
105
27
330
A
100
AcDbSymbolTableRecord
100
AcDbDimStyleTableRecord
  2
ISO-25
 70
     0
  3

  4

  5

  6

  7

 40
1.0
 41
2.5
 42
0.625
 43
3.75
 44
1.25
 45
0.0
 46
0.0
 47
0.0
 48
0.0
140
2.5
141
2.5
142
0.0
143
0.03937007874016
144
1.0
145
0.0
146
1.0
147
0.625
 71
     0
 72
     0
 73
     0
 74
     0
 75
     0
 76
     0
 77
     1
 78
     8
170
     0
171
     3
172
     1
173
     0
174
     0
175
     0
176
     0
177
     0
178
     0
270
     2
271
     2
272
     2
273
     2
274
     3
340
11
275
     0
280
     0
281
     0
282
     0
283
     0
284
     8
285
     0
286
     0
287
     3
288
     0
  0
ENDTAB
  0
TABLE
  2
BLOCK_RECORD
  5
1
330
0
100
AcDbSymbolTable
 70
     1
  0
BLOCK_RECORD
  5
1F
330
1
100
AcDbSymbolTableRecord
100
AcDbBlockTableRecord
  2
*MODEL_SPACE
  0
BLOCK_RECORD
  5
1B
330
1
100
AcDbSymbolTableRecord
100
AcDbBlockTableRecord
  2
*PAPER_SPACE
  0
ENDTAB
  0
ENDSEC
  0
SECTION
  2
BLOCKS
  0
BLOCK
  5
20
330
1F
100
AcDbEntity
  8
0
100
AcDbBlockBegin
  2
*MODEL_SPACE
 70
     0
 10
0.0
 20
0.0
 30
0.0
  3
*MODEL_SPACE
  1

  0
ENDBLK
  5
21
330
1F
100
AcDbEntity
  8
0
100
AcDbBlockEnd
  0
BLOCK
  5
1C
330
1B
100
AcDbEntity
 67
     1
  8
0
100
AcDbBlockBegin
  2
*PAPER_SPACE
 70
     0
 10
0.0
 20
0.0
 30
0.0
  3
*PAPER_SPACE
  1

  0
ENDBLK
  5
1D
330
1B
100
AcDbEntity
 67
     1
  8
0
100
AcDbBlockEnd
  0
ENDSEC
  0
SECTION
  2
ENTITIES
  0
LWPOLYLINE
  5
6E
330
1F
100
AcDbEntity
  8
MECHANICAL1
100
AcDbPolyline
 90
        2
 70
     0
 43
0.0127
 10
387.33439678
 20
154.67023422
 10
437.33439584
 20
154.67023422
  0
LWPOLYLINE
  5
6F
330
1F
100
AcDbEntity
  8
MECHANICAL1
100
AcDbPolyline
 90
        2
 70
     1
 43
0.00635
 10
387.33122178
 20
154.67023422
 42
1.0
 10
387.33757178
 20
154.67023422
 42
1.0
  0
LWPOLYLINE
  5
70
330
1F
100
AcDbEntity
  8
MECHANICAL1
100
AcDbPolyline
 90
        2
 70
     1
 43
0.00635
 10
437.33122084
 20
154.67023422
 42
1.0
 10
437.33757084
 20
154.67023422
 42
1.0
  0
LWPOLYLINE
  5
71
330
1F
100
AcDbEntity
  8
MECHANICAL1
100
AcDbPolyline
 90
        2
 70
     0
 43
0.0127
 10
387.33439678
 20
144.6702339
 10
387.33439678
 20
154.67023422
  0
LWPOLYLINE
  5
72
330
1F
100
AcDbEntity
  8
MECHANICAL1
100
AcDbPolyline
 90
        2
 70
     1
 43
0.00635
 10
387.33122178
 20
144.6702339
 42
1.0
 10
387.33757178
 20
144.6702339
 42
1.0
  0
LWPOLYLINE
  5
73
330
1F
100
AcDbEntity
  8
MECHANICAL1
100
AcDbPolyline
 90
        2
 70
     1
 43
0.00635
 10
387.33122178
 20
154.67023422
 42
1.0
 10
387.33757178
 20
154.67023422
 42
1.0
  0
LWPOLYLINE
  5
74
330
1F
100
AcDbEntity
  8
MECHANICAL1
100
AcDbPolyline
 90
        2
 70
     0
 43
0.0127
 10
387.33439678
 20
144.6702339
 10
437.33439584
 20
144.6702339
  0
LWPOLYLINE
  5
75
330
1F
100
AcDbEntity
  8
MECHANICAL1
100
AcDbPolyline
 90
        2
 70
     1
 43
0.00635
 10
387.33122178
 20
144.6702339
 42
1.0
 10
387.33757178
 20
144.6702339
 42
1.0
  0
LWPOLYLINE
  5
76
330
1F
100
AcDbEntity
  8
MECHANICAL1
100
AcDbPolyline
 90
        2
 70
     1
 43
0.00635
 10
437.33122084
 20
144.6702339
 42
1.0
 10
437.33757084
 20
144.6702339
 42
1.0
  0
LWPOLYLINE
  5
77
330
1F
100
AcDbEntity
  8
MECHANICAL1
100
AcDbPolyline
 90
        2
 70
     0
 43
0.0127
 10
437.33439584
 20
144.6702339
 10
437.33439584
 20
154.67023422
  0
LWPOLYLINE
  5
78
330
1F
100
AcDbEntity
  8
MECHANICAL1
100
AcDbPolyline
 90
        2
 70
     1
 43
0.00635
 10
437.33122084
 20
144.6702339
 42
1.0
 10
437.33757084
 20
144.6702339
 42
1.0
  0
LWPOLYLINE
  5
79
330
1F
100
AcDbEntity
  8
MECHANICAL1
100
AcDbPolyline
 90
        2
 70
     1
 43
0.00635
 10
437.33122084
 20
154.67023422
 42
1.0
 10
437.33757084
 20
154.67023422
 42
1.0
  0
LWPOLYLINE
  5
7A
330
1F
100
AcDbEntity
  8
MECHANICAL1
100
AcDbPolyline
 90
        2
 70
     0
 43
0.0127
 10
387.33439678
 20
154.67023422
 10
437.33439838
 20
154.67023422
  0
LWPOLYLINE
  5
7B
330
1F
100
AcDbEntity
  8
MECHANICAL1
100
AcDbPolyline
 90
        2
 70
     1
 43
0.00635
 10
387.33122178
 20
154.67023422
 42
1.0
 10
387.33757178
 20
154.67023422
 42
1.0
  0
LWPOLYLINE
  5
7C
330
1F
100
AcDbEntity
  8
MECHANICAL1
100
AcDbPolyline
 90
        2
 70
     1
 43
0.00635
 10
437.33122338
 20
154.67023422
 42
1.0
 10
437.33757338
 20
154.67023422
 42
1.0
  0
LWPOLYLINE
  5
7D
330
1F
100
AcDbEntity
  8
MECHANICAL1
100
AcDbPolyline
 90
        2
 70
     0
 43
0.0127
 10
387.33439678
 20
144.6702339
 10
387.33439678
 20
154.67023422
  0
LWPOLYLINE
  5
7E
330
1F
100
AcDbEntity
  8
MECHANICAL1
100
AcDbPolyline
 90
        2
 70
     1
 43
0.00635
 10
387.33122178
 20
144.6702339
 42
1.0
 10
387.33757178
 20
144.6702339
 42
1.0
  0
LWPOLYLINE
  5
7F
330
1F
100
AcDbEntity
  8
MECHANICAL1
100
AcDbPolyline
 90
        2
 70
     1
 43
0.00635
 10
387.33122178
 20
154.67023422
 42
1.0
 10
387.33757178
 20
154.67023422
 42
1.0
  0
LWPOLYLINE
  5
80
330
1F
100
AcDbEntity
  8
MECHANICAL1
100
AcDbPolyline
 90
        2
 70
     0
 43
0.0127
 10
387.33439678
 20
144.6702339
 10
437.33439838
 20
144.6702339
  0
LWPOLYLINE
  5
81
330
1F
100
AcDbEntity
  8
MECHANICAL1
100
AcDbPolyline
 90
        2
 70
     1
 43
0.00635
 10
387.33122178
 20
144.6702339
 42
1.0
 10
387.33757178
 20
144.6702339
 42
1.0
  0
LWPOLYLINE
  5
82
330
1F
100
AcDbEntity
  8
MECHANICAL1
100
AcDbPolyline
 90
        2
 70
     1
 43
0.00635
 10
437.33122338
 20
144.6702339
 42
1.0
 10
437.33757338
 20
144.6702339
 42
1.0
  0
LWPOLYLINE
  5
83
330
1F
100
AcDbEntity
  8
MECHANICAL1
100
AcDbPolyline
 90
        2
 70
     0
 43
0.0127
 10
437.33439838
 20
144.6702339
 10
437.33439838
 20
154.67023422
  0
LWPOLYLINE
  5
84
330
1F
100
AcDbEntity
  8
MECHANICAL1
100
AcDbPolyline
 90
        2
 70
     1
 43
0.00635
 10
437.33122338
 20
144.6702339
 42
1.0
 10
437.33757338
 20
144.6702339
 42
1.0
  0
LWPOLYLINE
  5
85
330
1F
100
AcDbEntity
  8
MECHANICAL1
100
AcDbPolyline
 90
        2
 70
     1
 43
0.00635
 10
437.33122338
 20
154.67023422
 42
1.0
 10
437.33757338
 20
154.67023422
 42
1.0
  0
SOLID
  5
86
330
1F
100
AcDbEntity
  8
TOPOVERLAY
100
AcDbTrace
 10
419.48439598
 20
145.85949746
 30
0.0
 11
423.48439306
 21
145.85949746
 31
0.0
 12
419.48439598
 22
149.85949454
 32
0.0
 13
423.48439306
 23
149.85949454
 33
0.0
  0
LWPOLYLINE
  5
87
330
1F
100
AcDbEntity
  8
PADHOLELAYER
100
AcDbPolyline
 90
        2
 70
     1
 43
1.07499912
 10
389.94689854
 20
149.67023406
 42
1.0
 10
391.02189766
 20
149.67023406
 42
1.0
  0
LWPOLYLINE
  5
88
330
1F
100
AcDbEntity
  8
PADHOLELAYER
100
AcDbPolyline
 90
        2
 70
     1
 43
1.07499912
 10
433.6468975
 20
149.67023406
 42
1.0
 10
434.72189662
 20
149.67023406
 42
1.0
  0
LWPOLYLINE
  5
89
330
1F
100
AcDbEntity
  8
PADHOLELAYER
100
AcDbPolyline
 90
        2
 70
     1
 43
0.5999987999999999
 10
394.18439832
 20
149.67023406
 42
1.0
 10
394.78439712
 20
149.67023406
 42
1.0
  0
LWPOLYLINE
  5
8A
330
1F
100
AcDbEntity
  8
PADHOLELAYER
100
AcDbPolyline
 90
        2
 70
     1
 43
0.5999987999999999
 10
429.88439804
 20
149.67023406
 42
1.0
 10
430.48439684
 20
149.67023406
 42
1.0
  0
LINE
  5
8B
330
1F
100
AcDbEntity
  8
TOPOVERLAY
100
AcDbLine
 10
388.18439508
 20
153.912951
 30
0.0
 11
388.18439508
 21
152.71333948
 31
0.0
  0
LINE
  5
8C
330
1F
100
AcDbEntity
  8
TOPOVERLAY
100
AcDbLine
 10
388.18439508
 20
152.71333948
 30
0.0
 11
388.18439508
 21
153.31314524
 31
0.0
  0
LINE
  5
8D
330
1F
100
AcDbEntity
  8
TOPOVERLAY
100
AcDbLine
 10
388.18439508
 20
153.31314524
 30
0.0
 11
388.98413694
 21
153.31314524
 31
0.0
  0
LINE
  5
8E
330
1F
100
AcDbEntity
  8
TOPOVERLAY
100
AcDbLine
 10
388.98413694
 20
153.31314524
 30
0.0
 11
388.98413694
 21
153.912951
 31
0.0
  0
LINE
  5
8F
330
1F
100
AcDbEntity
  8
TOPOVERLAY
100
AcDbLine
 10
388.98413694
 20
153.912951
 30
0.0
 11
388.98413694
 21
152.71333948
 31
0.0
  0
LINE
  5
90
330
1F
100
AcDbEntity
  8
TOPOVERLAY
100
AcDbLine
 10
389.5839427
 20
153.51308134
 30
0.0
 11
389.98381236
 21
153.51308134
 31
0.0
  0
LINE
  5
91
330
1F
100
AcDbEntity
  8
TOPOVERLAY
100
AcDbLine
 10
389.98381236
 20
153.51308134
 30
0.0
 11
390.18374846
 21
153.31314524
 31
0.0
  0
LINE
  5
92
330
1F
100
AcDbEntity
  8
TOPOVERLAY
100
AcDbLine
 10
390.18374846
 20
153.31314524
 30
0.0
 11
390.18374846
 21
152.71333948
 31
0.0
  0
LINE
  5
93
330
1F
100
AcDbEntity
  8
TOPOVERLAY
100
AcDbLine
 10
390.18374846
 20
152.71333948
 30
0.0
 11
389.5839427
 21
152.71333948
 31
0.0
  0
LINE
  5
94
330
1F
100
AcDbEntity
  8
TOPOVERLAY
100
AcDbLine
 10
389.5839427
 20
152.71333948
 30
0.0
 11
389.3840066
 21
152.91327558
 31
0.0
  0
LINE
  5
95
330
1F
100
AcDbEntity
  8
TOPOVERLAY
100
AcDbLine
 10
389.3840066
 20
152.91327558
 30
0.0
 11
389.5839427
 21
153.11320914
 31
0.0
  0
LINE
  5
96
330
1F
100
AcDbEntity
  8
TOPOVERLAY
100
AcDbLine
 10
389.5839427
 20
153.11320914
 30
0.0
 11
390.18374846
 21
153.11320914
 31
0.0
  0
LINE
  5
97
330
1F
100
AcDbEntity
  8
TOPOVERLAY
100
AcDbLine
 10
390.58361812
 20
152.71333948
 30
0.0
 11
390.58361812
 21
153.51308134
 31
0.0
  0
LINE
  5
98
330
1F
100
AcDbEntity
  8
TOPOVERLAY
100
AcDbLine
 10
390.58361812
 20
153.51308134
 30
0.0
 11
391.18342388
 21
153.51308134
 31
0.0
  0
LINE
  5
99
330
1F
100
AcDbEntity
  8
TOPOVERLAY
100
AcDbLine
 10
391.18342388
 20
153.51308134
 30
0.0
 11
391.38335998
 21
153.31314524
 31
0.0
  0
LINE
  5
9A
330
1F
100
AcDbEntity
  8
TOPOVERLAY
100
AcDbLine
 10
391.38335998
 20
153.31314524
 30
0.0
 11
391.38335998
 21
152.71333948
 31
0.0
  0
LINE
  5
9B
330
1F
100
AcDbEntity
  8
TOPOVERLAY
100
AcDbLine
 10
392.5829715
 20
153.912951
 30
0.0
 11
392.5829715
 21
152.71333948
 31
0.0
  0
LINE
  5
9C
330
1F
100
AcDbEntity
  8
TOPOVERLAY
100
AcDbLine
 10
392.5829715
 20
152.71333948
 30
0.0
 11
391.98316574
 21
152.71333948
 31
0.0
  0
LINE
  5
9D
330
1F
100
AcDbEntity
  8
TOPOVERLAY
100
AcDbLine
 10
391.98316574
 20
152.71333948
 30
0.0
 11
391.78322964
 21
152.91327558
 31
0.0
  0
LINE
  5
9E
330
1F
100
AcDbEntity
  8
TOPOVERLAY
100
AcDbLine
 10
391.78322964
 20
152.91327558
 30
0.0
 11
391.78322964
 21
153.31314524
 31
0.0
  0
LINE
  5
9F
330
1F
100
AcDbEntity
  8
TOPOVERLAY
100
AcDbLine
 10
391.78322964
 20
153.31314524
 30
0.0
 11
391.98316574
 21
153.51308134
 31
0.0
  0
LINE
  5
A0
330
1F
100
AcDbEntity
  8
TOPOVERLAY
100
AcDbLine
 10
391.98316574
 20
153.51308134
 30
0.0
 11
392.5829715
 21
153.51308134
 31
0.0
  0
LINE
  5
A1
330
1F
100
AcDbEntity
  8
TOPOVERLAY
100
AcDbLine
 10
392.98284116
 20
152.71333948
 30
0.0
 11
393.38271082
 21
152.71333948
 31
0.0
  0
LINE
  5
A2
330
1F
100
AcDbEntity
  8
TOPOVERLAY
100
AcDbLine
 10
393.38271082
 20
152.71333948
 30
0.0
 11
393.18277726
 21
152.71333948
 31
0.0
  0
LINE
  5
A3
330
1F
100
AcDbEntity
  8
TOPOVERLAY
100
AcDbLine
 10
393.18277726
 20
152.71333948
 30
0.0
 11
393.18277726
 21
153.912951
 31
0.0
  0
LINE
  5
A4
330
1F
100
AcDbEntity
  8
TOPOVERLAY
100
AcDbLine
 10
393.18277726
 20
153.912951
 30
0.0
 11
392.98284116
 21
153.912951
 31
0.0
  0
LINE
  5
A5
330
1F
100
AcDbEntity
  8
TOPOVERLAY
100
AcDbLine
 10
394.58232488
 20
152.71333948
 30
0.0
 11
394.18245522
 21
152.71333948
 31
0.0
  0
LINE
  5
A6
330
1F
100
AcDbEntity
  8
TOPOVERLAY
100
AcDbLine
 10
394.18245522
 20
152.71333948
 30
0.0
 11
393.98251912
 21
152.91327558
 31
0.0
  0
LINE
  5
A7
330
1F
100
AcDbEntity
  8
TOPOVERLAY
100
AcDbLine
 10
393.98251912
 20
152.91327558
 30
0.0
 11
393.98251912
 21
153.31314524
 31
0.0
  0
LINE
  5
A8
330
1F
100
AcDbEntity
  8
TOPOVERLAY
100
AcDbLine
 10
393.98251912
 20
153.31314524
 30
0.0
 11
394.18245522
 21
153.51308134
 31
0.0
  0
LINE
  5
A9
330
1F
100
AcDbEntity
  8
TOPOVERLAY
100
AcDbLine
 10
394.18245522
 20
153.51308134
 30
0.0
 11
394.58232488
 21
153.51308134
 31
0.0
  0
LINE
  5
AA
330
1F
100
AcDbEntity
  8
TOPOVERLAY
100
AcDbLine
 10
394.58232488
 20
153.51308134
 30
0.0
 11
394.78226098
 21
153.31314524
 31
0.0
  0
LINE
  5
AB
330
1F
100
AcDbEntity
  8
TOPOVERLAY
100
AcDbLine
 10
394.78226098
 20
153.31314524
 30
0.0
 11
394.78226098
 21
153.11320914
 31
0.0
  0
LINE
  5
AC
330
1F
100
AcDbEntity
  8
TOPOVERLAY
100
AcDbLine
 10
394.78226098
 20
153.11320914
 30
0.0
 11
393.98251912
 21
153.11320914
 31
0.0
  0
LINE
  5
AD
330
1F
100
AcDbEntity
  8
TOPOVERLAY
100
AcDbLine
 10
396.38174216
 20
153.912951
 30
0.0
 11
396.78161182
 21
153.912951
 31
0.0
  0
LINE
  5
AE
330
1F
100
AcDbEntity
  8
TOPOVERLAY
100
AcDbLine
 10
396.78161182
 20
153.912951
 30
0.0
 11
396.58167826
 21
153.912951
 31
0.0
  0
LINE
  5
AF
330
1F
100
AcDbEntity
  8
TOPOVERLAY
100
AcDbLine
 10
396.58167826
 20
153.912951
 30
0.0
 11
396.58167826
 21
152.71333948
 31
0.0
  0
LINE
  5
B0
330
1F
100
AcDbEntity
  8
TOPOVERLAY
100
AcDbLine
 10
396.58167826
 20
152.71333948
 30
0.0
 11
396.38174216
 21
152.71333948
 31
0.0
  0
LINE
  5
B1
330
1F
100
AcDbEntity
  8
TOPOVERLAY
100
AcDbLine
 10
396.38174216
 20
152.71333948
 30
0.0
 11
396.78161182
 21
152.71333948
 31
0.0
  0
LINE
  5
B2
330
1F
100
AcDbEntity
  8
TOPOVERLAY
100
AcDbLine
 10
397.38142012
 20
152.71333948
 30
0.0
 11
397.38142012
 21
153.51308134
 31
0.0
  0
LINE
  5
B3
330
1F
100
AcDbEntity
  8
TOPOVERLAY
100
AcDbLine
 10
397.38142012
 20
153.51308134
 30
0.0
 11
397.98122588
 21
153.51308134
 31
0.0
  0
LINE
  5
B4
330
1F
100
AcDbEntity
  8
TOPOVERLAY
100
AcDbLine
 10
397.98122588
 20
153.51308134
 30
0.0
 11
398.18116198
 21
153.31314524
 31
0.0
  0
LINE
  5
B5
330
1F
100
AcDbEntity
  8
TOPOVERLAY
100
AcDbLine
 10
398.18116198
 20
153.31314524
 30
0.0
 11
398.18116198
 21
152.71333948
 31
0.0
  0
LINE
  5
B6
330
1F
100
AcDbEntity
  8
TOPOVERLAY
100
AcDbLine
 10
398.78096774
 20
153.71301744
 30
0.0
 11
398.78096774
 21
153.51308134
 31
0.0
  0
LINE
  5
B7
330
1F
100
AcDbEntity
  8
TOPOVERLAY
100
AcDbLine
 10
398.78096774
 20
153.51308134
 30
0.0
 11
398.58103164
 21
153.51308134
 31
0.0
  0
LINE
  5
B8
330
1F
100
AcDbEntity
  8
TOPOVERLAY
100
AcDbLine
 10
398.58103164
 20
153.51308134
 30
0.0
 11
398.9809013
 21
153.51308134
 31
0.0
  0
LINE
  5
B9
330
1F
100
AcDbEntity
  8
TOPOVERLAY
100
AcDbLine
 10
398.9809013
 20
153.51308134
 30
0.0
 11
398.78096774
 21
153.51308134
 31
0.0
  0
LINE
  5
BA
330
1F
100
AcDbEntity
  8
TOPOVERLAY
100
AcDbLine
 10
398.78096774
 20
153.51308134
 30
0.0
 11
398.78096774
 21
152.91327558
 31
0.0
  0
LINE
  5
BB
330
1F
100
AcDbEntity
  8
TOPOVERLAY
100
AcDbLine
 10
398.78096774
 20
152.91327558
 30
0.0
 11
398.9809013
 21
152.71333948
 31
0.0
  0
LINE
  5
BC
330
1F
100
AcDbEntity
  8
TOPOVERLAY
100
AcDbLine
 10
400.18051536
 20
152.71333948
 30
0.0
 11
399.7806457
 21
152.71333948
 31
0.0
  0
LINE
  5
BD
330
1F
100
AcDbEntity
  8
TOPOVERLAY
100
AcDbLine
 10
399.7806457
 20
152.71333948
 30
0.0
 11
399.5807096
 21
152.91327558
 31
0.0
  0
LINE
  5
BE
330
1F
100
AcDbEntity
  8
TOPOVERLAY
100
AcDbLine
 10
399.5807096
 20
152.91327558
 30
0.0
 11
399.5807096
 21
153.31314524
 31
0.0
  0
LINE
  5
BF
330
1F
100
AcDbEntity
  8
TOPOVERLAY
100
AcDbLine
 10
399.5807096
 20
153.31314524
 30
0.0
 11
399.7806457
 21
153.51308134
 31
0.0
  0
LINE
  5
C0
330
1F
100
AcDbEntity
  8
TOPOVERLAY
100
AcDbLine
 10
399.7806457
 20
153.51308134
 30
0.0
 11
400.18051536
 21
153.51308134
 31
0.0
  0
LINE
  5
C1
330
1F
100
AcDbEntity
  8
TOPOVERLAY
100
AcDbLine
 10
400.18051536
 20
153.51308134
 30
0.0
 11
400.38045146
 21
153.31314524
 31
0.0
  0
LINE
  5
C2
330
1F
100
AcDbEntity
  8
TOPOVERLAY
100
AcDbLine
 10
400.38045146
 20
153.31314524
 30
0.0
 11
400.38045146
 21
153.11320914
 31
0.0
  0
LINE
  5
C3
330
1F
100
AcDbEntity
  8
TOPOVERLAY
100
AcDbLine
 10
400.38045146
 20
153.11320914
 30
0.0
 11
399.5807096
 21
153.11320914
 31
0.0
  0
LINE
  5
C4
330
1F
100
AcDbEntity
  8
TOPOVERLAY
100
AcDbLine
 10
400.78032112
 20
153.51308134
 30
0.0
 11
400.78032112
 21
152.71333948
 31
0.0
  0
LINE
  5
C5
330
1F
100
AcDbEntity
  8
TOPOVERLAY
100
AcDbLine
 10
400.78032112
 20
152.71333948
 30
0.0
 11
400.78032112
 21
153.11320914
 31
0.0
  0
LINE
  5
C6
330
1F
100
AcDbEntity
  8
TOPOVERLAY
100
AcDbLine
 10
400.78032112
 20
153.11320914
 30
0.0
 11
400.98025722
 21
153.31314524
 31
0.0
  0
LINE
  5
C7
330
1F
100
AcDbEntity
  8
TOPOVERLAY
100
AcDbLine
 10
400.98025722
 20
153.31314524
 30
0.0
 11
401.18019078
 21
153.51308134
 31
0.0
  0
LINE
  5
C8
330
1F
100
AcDbEntity
  8
TOPOVERLAY
100
AcDbLine
 10
401.18019078
 20
153.51308134
 30
0.0
 11
401.38012688
 21
153.51308134
 31
0.0
  0
LINE
  5
C9
330
1F
100
AcDbEntity
  8
TOPOVERLAY
100
AcDbLine
 10
402.7796745
 20
153.51308134
 30
0.0
 11
402.17986874
 21
153.51308134
 31
0.0
  0
LINE
  5
CA
330
1F
100
AcDbEntity
  8
TOPOVERLAY
100
AcDbLine
 10
402.17986874
 20
153.51308134
 30
0.0
 11
401.97993264
 21
153.31314524
 31
0.0
  0
LINE
  5
CB
330
1F
100
AcDbEntity
  8
TOPOVERLAY
100
AcDbLine
 10
401.97993264
 20
153.31314524
 30
0.0
 11
401.97993264
 21
152.91327558
 31
0.0
  0
LINE
  5
CC
330
1F
100
AcDbEntity
  8
TOPOVERLAY
100
AcDbLine
 10
401.97993264
 20
152.91327558
 30
0.0
 11
402.17986874
 21
152.71333948
 31
0.0
  0
LINE
  5
CD
330
1F
100
AcDbEntity
  8
TOPOVERLAY
100
AcDbLine
 10
402.17986874
 20
152.71333948
 30
0.0
 11
402.7796745
 21
152.71333948
 31
0.0
  0
LINE
  5
CE
330
1F
100
AcDbEntity
  8
TOPOVERLAY
100
AcDbLine
 10
403.37948026
 20
152.71333948
 30
0.0
 11
403.77934992
 21
152.71333948
 31
0.0
  0
LINE
  5
CF
330
1F
100
AcDbEntity
  8
TOPOVERLAY
100
AcDbLine
 10
403.77934992
 20
152.71333948
 30
0.0
 11
403.97928602
 21
152.91327558
 31
0.0
  0
LINE
  5
D0
330
1F
100
AcDbEntity
  8
TOPOVERLAY
100
AcDbLine
 10
403.97928602
 20
152.91327558
 30
0.0
 11
403.97928602
 21
153.31314524
 31
0.0
  0
LINE
  5
D1
330
1F
100
AcDbEntity
  8
TOPOVERLAY
100
AcDbLine
 10
403.97928602
 20
153.31314524
 30
0.0
 11
403.77934992
 21
153.51308134
 31
0.0
  0
LINE
  5
D2
330
1F
100
AcDbEntity
  8
TOPOVERLAY
100
AcDbLine
 10
403.77934992
 20
153.51308134
 30
0.0
 11
403.37948026
 21
153.51308134
 31
0.0
  0
LINE
  5
D3
330
1F
100
AcDbEntity
  8
TOPOVERLAY
100
AcDbLine
 10
403.37948026
 20
153.51308134
 30
0.0
 11
403.17954416
 21
153.31314524
 31
0.0
  0
LINE
  5
D4
330
1F
100
AcDbEntity
  8
TOPOVERLAY
100
AcDbLine
 10
403.17954416
 20
153.31314524
 30
0.0
 11
403.17954416
 21
152.91327558
 31
0.0
  0
LINE
  5
D5
330
1F
100
AcDbEntity
  8
TOPOVERLAY
100
AcDbLine
 10
403.17954416
 20
152.91327558
 30
0.0
 11
403.37948026
 21
152.71333948
 31
0.0
  0
LINE
  5
D6
330
1F
100
AcDbEntity
  8
TOPOVERLAY
100
AcDbLine
 10
404.37915568
 20
152.71333948
 30
0.0
 11
404.37915568
 21
153.51308134
 31
0.0
  0
LINE
  5
D7
330
1F
100
AcDbEntity
  8
TOPOVERLAY
100
AcDbLine
 10
404.37915568
 20
153.51308134
 30
0.0
 11
404.97896144
 21
153.51308134
 31
0.0
  0
LINE
  5
D8
330
1F
100
AcDbEntity
  8
TOPOVERLAY
100
AcDbLine
 10
404.97896144
 20
153.51308134
 30
0.0
 11
405.17889754
 21
153.31314524
 31
0.0
  0
LINE
  5
D9
330
1F
100
AcDbEntity
  8
TOPOVERLAY
100
AcDbLine
 10
405.17889754
 20
153.31314524
 30
0.0
 11
405.17889754
 21
152.71333948
 31
0.0
  0
LINE
  5
DA
330
1F
100
AcDbEntity
  8
TOPOVERLAY
100
AcDbLine
 10
405.5787672
 20
152.71333948
 30
0.0
 11
405.5787672
 21
153.51308134
 31
0.0
  0
LINE
  5
DB
330
1F
100
AcDbEntity
  8
TOPOVERLAY
100
AcDbLine
 10
405.5787672
 20
153.51308134
 30
0.0
 11
406.17857296
 21
153.51308134
 31
0.0
  0
LINE
  5
DC
330
1F
100
AcDbEntity
  8
TOPOVERLAY
100
AcDbLine
 10
406.17857296
 20
153.51308134
 30
0.0
 11
406.37850906
 21
153.31314524
 31
0.0
  0
LINE
  5
DD
330
1F
100
AcDbEntity
  8
TOPOVERLAY
100
AcDbLine
 10
406.37850906
 20
153.31314524
 30
0.0
 11
406.37850906
 21
152.71333948
 31
0.0
  0
LINE
  5
DE
330
1F
100
AcDbEntity
  8
TOPOVERLAY
100
AcDbLine
 10
407.37818448
 20
152.71333948
 30
0.0
 11
406.97831482
 21
152.71333948
 31
0.0
  0
LINE
  5
DF
330
1F
100
AcDbEntity
  8
TOPOVERLAY
100
AcDbLine
 10
406.97831482
 20
152.71333948
 30
0.0
 11
406.77837872
 21
152.91327558
 31
0.0
  0
LINE
  5
E0
330
1F
100
AcDbEntity
  8
TOPOVERLAY
100
AcDbLine
 10
406.77837872
 20
152.91327558
 30
0.0
 11
406.77837872
 21
153.31314524
 31
0.0
  0
LINE
  5
E1
330
1F
100
AcDbEntity
  8
TOPOVERLAY
100
AcDbLine
 10
406.77837872
 20
153.31314524
 30
0.0
 11
406.97831482
 21
153.51308134
 31
0.0
  0
LINE
  5
E2
330
1F
100
AcDbEntity
  8
TOPOVERLAY
100
AcDbLine
 10
406.97831482
 20
153.51308134
 30
0.0
 11
407.37818448
 21
153.51308134
 31
0.0
  0
LINE
  5
E3
330
1F
100
AcDbEntity
  8
TOPOVERLAY
100
AcDbLine
 10
407.37818448
 20
153.51308134
 30
0.0
 11
407.57812058
 21
153.31314524
 31
0.0
  0
LINE
  5
E4
330
1F
100
AcDbEntity
  8
TOPOVERLAY
100
AcDbLine
 10
407.57812058
 20
153.31314524
 30
0.0
 11
407.57812058
 21
153.11320914
 31
0.0
  0
LINE
  5
E5
330
1F
100
AcDbEntity
  8
TOPOVERLAY
100
AcDbLine
 10
407.57812058
 20
153.11320914
 30
0.0
 11
406.77837872
 21
153.11320914
 31
0.0
  0
LINE
  5
E6
330
1F
100
AcDbEntity
  8
TOPOVERLAY
100
AcDbLine
 10
408.7777321
 20
153.51308134
 30
0.0
 11
408.17792634
 21
153.51308134
 31
0.0
  0
LINE
  5
E7
330
1F
100
AcDbEntity
  8
TOPOVERLAY
100
AcDbLine
 10
408.17792634
 20
153.51308134
 30
0.0
 11
407.97799024
 21
153.31314524
 31
0.0
  0
LINE
  5
E8
330
1F
100
AcDbEntity
  8
TOPOVERLAY
100
AcDbLine
 10
407.97799024
 20
153.31314524
 30
0.0
 11
407.97799024
 21
152.91327558
 31
0.0
  0
LINE
  5
E9
330
1F
100
AcDbEntity
  8
TOPOVERLAY
100
AcDbLine
 10
407.97799024
 20
152.91327558
 30
0.0
 11
408.17792634
 21
152.71333948
 31
0.0
  0
LINE
  5
EA
330
1F
100
AcDbEntity
  8
TOPOVERLAY
100
AcDbLine
 10
408.17792634
 20
152.71333948
 30
0.0
 11
408.7777321
 21
152.71333948
 31
0.0
  0
LINE
  5
EB
330
1F
100
AcDbEntity
  8
TOPOVERLAY
100
AcDbLine
 10
409.37753786
 20
153.71301744
 30
0.0
 11
409.37753786
 21
153.51308134
 31
0.0
  0
LINE
  5
EC
330
1F
100
AcDbEntity
  8
TOPOVERLAY
100
AcDbLine
 10
409.37753786
 20
153.51308134
 30
0.0
 11
409.17760176
 21
153.51308134
 31
0.0
  0
LINE
  5
ED
330
1F
100
AcDbEntity
  8
TOPOVERLAY
100
AcDbLine
 10
409.17760176
 20
153.51308134
 30
0.0
 11
409.57747142
 21
153.51308134
 31
0.0
  0
LINE
  5
EE
330
1F
100
AcDbEntity
  8
TOPOVERLAY
100
AcDbLine
 10
409.57747142
 20
153.51308134
 30
0.0
 11
409.37753786
 21
153.51308134
 31
0.0
  0
LINE
  5
EF
330
1F
100
AcDbEntity
  8
TOPOVERLAY
100
AcDbLine
 10
409.37753786
 20
153.51308134
 30
0.0
 11
409.37753786
 21
152.91327558
 31
0.0
  0
LINE
  5
F0
330
1F
100
AcDbEntity
  8
TOPOVERLAY
100
AcDbLine
 10
409.37753786
 20
152.91327558
 30
0.0
 11
409.57747142
 21
152.71333948
 31
0.0
  0
LINE
  5
F1
330
1F
100
AcDbEntity
  8
TOPOVERLAY
100
AcDbLine
 10
419.48439598
 20
150.30351956
 30
0.0
 11
419.48439598
 21
151.50313108
 31
0.0
  0
LINE
  5
F2
330
1F
100
AcDbEntity
  8
TOPOVERLAY
100
AcDbLine
 10
419.48439598
 20
151.50313108
 30
0.0
 11
420.08420174
 21
151.50313108
 31
0.0
  0
LINE
  5
F3
330
1F
100
AcDbEntity
  8
TOPOVERLAY
100
AcDbLine
 10
420.08420174
 20
151.50313108
 30
0.0
 11
420.28413784
 21
151.30319752
 31
0.0
  0
LINE
  5
F4
330
1F
100
AcDbEntity
  8
TOPOVERLAY
100
AcDbLine
 10
420.28413784
 20
151.30319752
 30
0.0
 11
420.28413784
 21
150.90332532
 31
0.0
  0
LINE
  5
F5
330
1F
100
AcDbEntity
  8
TOPOVERLAY
100
AcDbLine
 10
420.28413784
 20
150.90332532
 30
0.0
 11
420.08420174
 21
150.70338922
 31
0.0
  0
LINE
  5
F6
330
1F
100
AcDbEntity
  8
TOPOVERLAY
100
AcDbLine
 10
420.08420174
 20
150.70338922
 30
0.0
 11
419.48439598
 21
150.70338922
 31
0.0
  0
LINE
  5
F7
330
1F
100
AcDbEntity
  8
TOPOVERLAY
100
AcDbLine
 10
419.88426564
 20
150.70338922
 30
0.0
 11
420.28413784
 21
150.30351956
 31
0.0
  0
LINE
  5
F8
330
1F
100
AcDbEntity
  8
TOPOVERLAY
100
AcDbLine
 10
421.48374936
 20
151.50313108
 30
0.0
 11
420.6840075
 21
151.50313108
 31
0.0
  0
LINE
  5
F9
330
1F
100
AcDbEntity
  8
TOPOVERLAY
100
AcDbLine
 10
420.6840075
 20
151.50313108
 30
0.0
 11
420.6840075
 21
150.30351956
 31
0.0
  0
LINE
  5
FA
330
1F
100
AcDbEntity
  8
TOPOVERLAY
100
AcDbLine
 10
420.6840075
 20
150.30351956
 30
0.0
 11
421.48374936
 21
150.30351956
 31
0.0
  0
LINE
  5
FB
330
1F
100
AcDbEntity
  8
TOPOVERLAY
100
AcDbLine
 10
420.6840075
 20
150.90332532
 30
0.0
 11
421.08387716
 21
150.90332532
 31
0.0
  0
LINE
  5
FC
330
1F
100
AcDbEntity
  8
TOPOVERLAY
100
AcDbLine
 10
421.88361902
 20
151.50313108
 30
0.0
 11
421.88361902
 21
150.70338922
 31
0.0
  0
LINE
  5
FD
330
1F
100
AcDbEntity
  8
TOPOVERLAY
100
AcDbLine
 10
421.88361902
 20
150.70338922
 30
0.0
 11
422.2834886799999
 21
150.30351956
 31
0.0
  0
LINE
  5
FE
330
1F
100
AcDbEntity
  8
TOPOVERLAY
100
AcDbLine
 10
422.2834886799999
 20
150.30351956
 30
0.0
 11
422.68336088
 21
150.70338922
 31
0.0
  0
LINE
  5
FF
330
1F
100
AcDbEntity
  8
TOPOVERLAY
100
AcDbLine
 10
422.68336088
 20
150.70338922
 30
0.0
 11
422.68336088
 21
151.50313108
 31
0.0
  0
LINE
  5
100
330
1F
100
AcDbEntity
  8
TOPOVERLAY
100
AcDbLine
 10
419.48439598
 20
152.26200688
 30
0.0
 11
419.88426564
 21
152.26200688
 31
0.0
  0
LINE
  5
101
330
1F
100
AcDbEntity
  8
TOPOVERLAY
100
AcDbLine
 10
419.88426564
 20
152.26200688
 30
0.0
 11
419.68433208
 21
152.26200688
 31
0.0
  0
LINE
  5
102
330
1F
100
AcDbEntity
  8
TOPOVERLAY
100
AcDbLine
 10
419.68433208
 20
152.26200688
 30
0.0
 11
419.68433208
 21
153.4616184
 31
0.0
  0
LINE
  5
103
330
1F
100
AcDbEntity
  8
TOPOVERLAY
100
AcDbLine
 10
419.68433208
 20
153.4616184
 30
0.0
 11
419.48439598
 21
153.26168484
 31
0.0
  0
LINE
  5
104
330
1F
100
AcDbEntity
  8
TOPOVERLAY
100
AcDbLine
 10
420.48407394
 20
153.26168484
 30
0.0
 11
420.68401004
 21
153.4616184
 31
0.0
  0
LINE
  5
105
330
1F
100
AcDbEntity
  8
TOPOVERLAY
100
AcDbLine
 10
420.68401004
 20
153.4616184
 30
0.0
 11
421.0838797
 21
153.4616184
 31
0.0
  0
LINE
  5
106
330
1F
100
AcDbEntity
  8
TOPOVERLAY
100
AcDbLine
 10
421.0838797
 20
153.4616184
 30
0.0
 11
421.2838158
 21
153.26168484
 31
0.0
  0
LINE
  5
107
330
1F
100
AcDbEntity
  8
TOPOVERLAY
100
AcDbLine
 10
421.2838158
 20
153.26168484
 30
0.0
 11
421.2838158
 21
152.46194298
 31
0.0
  0
LINE
  5
108
330
1F
100
AcDbEntity
  8
TOPOVERLAY
100
AcDbLine
 10
421.2838158
 20
152.46194298
 30
0.0
 11
421.0838797
 21
152.26200688
 31
0.0
  0
LINE
  5
109
330
1F
100
AcDbEntity
  8
TOPOVERLAY
100
AcDbLine
 10
421.0838797
 20
152.26200688
 30
0.0
 11
420.68401004
 21
152.26200688
 31
0.0
  0
LINE
  5
10A
330
1F
100
AcDbEntity
  8
TOPOVERLAY
100
AcDbLine
 10
420.68401004
 20
152.26200688
 30
0.0
 11
420.48407394
 21
152.46194298
 31
0.0
  0
LINE
  5
10B
330
1F
100
AcDbEntity
  8
TOPOVERLAY
100
AcDbLine
 10
420.48407394
 20
152.46194298
 30
0.0
 11
420.48407394
 21
153.26168484
 31
0.0
  0
LINE
  5
10C
330
1F
100
AcDbEntity
  8
TOPOVERLAY
100
AcDbLine
 10
421.68368546
 20
153.26168484
 30
0.0
 11
421.88362156
 21
153.4616184
 31
0.0
  0
LINE
  5
10D
330
1F
100
AcDbEntity
  8
TOPOVERLAY
100
AcDbLine
 10
421.88362156
 20
153.4616184
 30
0.0
 11
422.28349122
 21
153.4616184
 31
0.0
  0
LINE
  5
10E
330
1F
100
AcDbEntity
  8
TOPOVERLAY
100
AcDbLine
 10
422.28349122
 20
153.4616184
 30
0.0
 11
422.48342732
 21
153.26168484
 31
0.0
  0
LINE
  5
10F
330
1F
100
AcDbEntity
  8
TOPOVERLAY
100
AcDbLine
 10
422.48342732
 20
153.26168484
 30
0.0
 11
422.48342732
 21
152.46194298
 31
0.0
  0
LINE
  5
110
330
1F
100
AcDbEntity
  8
TOPOVERLAY
100
AcDbLine
 10
422.48342732
 20
152.46194298
 30
0.0
 11
422.28349122
 21
152.26200688
 31
0.0
  0
LINE
  5
111
330
1F
100
AcDbEntity
  8
TOPOVERLAY
100
AcDbLine
 10
422.28349122
 20
152.26200688
 30
0.0
 11
421.88362156
 21
152.26200688
 31
0.0
  0
LINE
  5
112
330
1F
100
AcDbEntity
  8
TOPOVERLAY
100
AcDbLine
 10
421.88362156
 20
152.26200688
 30
0.0
 11
421.68368546
 21
152.46194298
 31
0.0
  0
LINE
  5
113
330
1F
100
AcDbEntity
  8
TOPOVERLAY
100
AcDbLine
 10
421.68368546
 20
152.46194298
 30
0.0
 11
421.68368546
 21
153.26168484
 31
0.0
  0
LINE
  5
114
330
1F
100
AcDbEntity
  8
TOPOVERLAY
100
AcDbLine
 10
422.88329698
 20
153.26168484
 30
0.0
 11
423.08323308
 21
153.4616184
 31
0.0
  0
LINE
  5
115
330
1F
100
AcDbEntity
  8
TOPOVERLAY
100
AcDbLine
 10
423.08323308
 20
153.4616184
 30
0.0
 11
423.48310274
 21
153.4616184
 31
0.0
  0
LINE
  5
116
330
1F
100
AcDbEntity
  8
TOPOVERLAY
100
AcDbLine
 10
423.48310274
 20
153.4616184
 30
0.0
 11
423.68303884
 21
153.26168484
 31
0.0
  0
LINE
  5
117
330
1F
100
AcDbEntity
  8
TOPOVERLAY
100
AcDbLine
 10
423.68303884
 20
153.26168484
 30
0.0
 11
423.68303884
 21
153.06174874
 31
0.0
  0
LINE
  5
118
330
1F
100
AcDbEntity
  8
TOPOVERLAY
100
AcDbLine
 10
423.68303884
 20
153.06174874
 30
0.0
 11
423.48310274
 21
152.86181264
 31
0.0
  0
LINE
  5
119
330
1F
100
AcDbEntity
  8
TOPOVERLAY
100
AcDbLine
 10
423.48310274
 20
152.86181264
 30
0.0
 11
423.68303884
 21
152.66187654
 31
0.0
  0
LINE
  5
11A
330
1F
100
AcDbEntity
  8
TOPOVERLAY
100
AcDbLine
 10
423.68303884
 20
152.66187654
 30
0.0
 11
423.68303884
 21
152.46194298
 31
0.0
  0
LINE
  5
11B
330
1F
100
AcDbEntity
  8
TOPOVERLAY
100
AcDbLine
 10
423.68303884
 20
152.46194298
 30
0.0
 11
423.48310274
 21
152.26200688
 31
0.0
  0
LINE
  5
11C
330
1F
100
AcDbEntity
  8
TOPOVERLAY
100
AcDbLine
 10
423.48310274
 20
152.26200688
 30
0.0
 11
423.08323308
 21
152.26200688
 31
0.0
  0
LINE
  5
11D
330
1F
100
AcDbEntity
  8
TOPOVERLAY
100
AcDbLine
 10
423.08323308
 20
152.26200688
 30
0.0
 11
422.88329698
 21
152.46194298
 31
0.0
  0
LINE
  5
11E
330
1F
100
AcDbEntity
  8
TOPOVERLAY
100
AcDbLine
 10
422.88329698
 20
152.46194298
 30
0.0
 11
422.88329698
 21
152.66187654
 31
0.0
  0
LINE
  5
11F
330
1F
100
AcDbEntity
  8
TOPOVERLAY
100
AcDbLine
 10
422.88329698
 20
152.66187654
 30
0.0
 11
423.08323308
 21
152.86181264
 31
0.0
  0
LINE
  5
120
330
1F
100
AcDbEntity
  8
TOPOVERLAY
100
AcDbLine
 10
423.08323308
 20
152.86181264
 30
0.0
 11
422.88329698
 21
153.06174874
 31
0.0
  0
LINE
  5
121
330
1F
100
AcDbEntity
  8
TOPOVERLAY
100
AcDbLine
 10
422.88329698
 20
153.06174874
 30
0.0
 11
422.88329698
 21
153.26168484
 31
0.0
  0
LINE
  5
122
330
1F
100
AcDbEntity
  8
TOPOVERLAY
100
AcDbLine
 10
423.08323308
 20
152.86181264
 30
0.0
 11
423.48310274
 21
152.86181264
 31
0.0
  0
LINE
  5
123
330
1F
100
AcDbEntity
  8
TOPOVERLAY
100
AcDbLine
 10
424.0829085
 20
153.4616184
 30
0.0
 11
424.88265036
 21
153.4616184
 31
0.0
  0
LINE
  5
124
330
1F
100
AcDbEntity
  8
TOPOVERLAY
100
AcDbLine
 10
424.88265036
 20
153.4616184
 30
0.0
 11
424.88265036
 21
153.26168484
 31
0.0
  0
LINE
  5
125
330
1F
100
AcDbEntity
  8
TOPOVERLAY
100
AcDbLine
 10
424.88265036
 20
153.26168484
 30
0.0
 11
424.0829085
 21
152.46194298
 31
0.0
  0
LINE
  5
126
330
1F
100
AcDbEntity
  8
TOPOVERLAY
100
AcDbLine
 10
424.0829085
 20
152.46194298
 30
0.0
 11
424.0829085
 21
152.26200688
 31
0.0
  0
LINE
  5
127
330
1F
100
AcDbEntity
  8
TOPOVERLAY
100
AcDbLine
 10
426.08226188
 20
152.26200688
 30
0.0
 11
425.28252002
 21
152.26200688
 31
0.0
  0
LINE
  5
128
330
1F
100
AcDbEntity
  8
TOPOVERLAY
100
AcDbLine
 10
425.28252002
 20
152.26200688
 30
0.0
 11
426.08226188
 21
153.06174874
 31
0.0
  0
LINE
  5
129
330
1F
100
AcDbEntity
  8
TOPOVERLAY
100
AcDbLine
 10
426.08226188
 20
153.06174874
 30
0.0
 11
426.08226188
 21
153.26168484
 31
0.0
  0
LINE
  5
12A
330
1F
100
AcDbEntity
  8
TOPOVERLAY
100
AcDbLine
 10
426.08226188
 20
153.26168484
 30
0.0
 11
425.88232578
 21
153.4616184
 31
0.0
  0
LINE
  5
12B
330
1F
100
AcDbEntity
  8
TOPOVERLAY
100
AcDbLine
 10
425.88232578
 20
153.4616184
 30
0.0
 11
425.48245612
 21
153.4616184
 31
0.0
  0
LINE
  5
12C
330
1F
100
AcDbEntity
  8
TOPOVERLAY
100
AcDbLine
 10
425.48245612
 20
153.4616184
 30
0.0
 11
425.28252002
 21
153.26168484
 31
0.0
  0
LINE
  5
12D
330
1F
100
AcDbEntity
  8
TOPOVERLAY
100
AcDbLine
 10
390.60676006
 20
90.25259826
 30
0.0
 11
390.60676006
 21
86.75334694
 31
0.0
  0
LINE
  5
12E
330
1F
100
AcDbEntity
  8
TOPOVERLAY
100
AcDbLine
 10
389.4403438
 20
90.25259826
 30
0.0
 11
391.77317632
 21
90.25259826
 31
0.0
  0
LINE
  5
12F
330
1F
100
AcDbEntity
  8
TOPOVERLAY
100
AcDbLine
 10
393.02290966
 20
89.08617946
 30
0.0
 11
392.68964642
 21
88.91955037999999
 31
0.0
  0
LINE
  5
130
330
1F
100
AcDbEntity
  8
TOPOVERLAY
100
AcDbLine
 10
392.68964642
 20
88.91955037999999
 30
0.0
 11
392.35638572
 21
88.58628714
 31
0.0
  0
LINE
  5
131
330
1F
100
AcDbEntity
  8
TOPOVERLAY
100
AcDbLine
 10
392.35638572
 20
88.58628714
 30
0.0
 11
392.1897541
 21
88.08639482
 31
0.0
  0
LINE
  5
132
330
1F
100
AcDbEntity
  8
TOPOVERLAY
100
AcDbLine
 10
392.1897541
 20
88.08639482
 30
0.0
 11
392.1897541
 21
87.75313158
 31
0.0
  0
LINE
  5
133
330
1F
100
AcDbEntity
  8
TOPOVERLAY
100
AcDbLine
 10
392.1897541
 20
87.75313158
 30
0.0
 11
392.35638572
 21
87.25323926
 31
0.0
  0
LINE
  5
134
330
1F
100
AcDbEntity
  8
TOPOVERLAY
100
AcDbLine
 10
392.35638572
 20
87.25323926
 30
0.0
 11
392.68964642
 21
86.91997855999999
 31
0.0
  0
LINE
  5
135
330
1F
100
AcDbEntity
  8
TOPOVERLAY
100
AcDbLine
 10
392.68964642
 20
86.91997855999999
 30
0.0
 11
393.02290966
 21
86.75334694
 31
0.0
  0
LINE
  5
136
330
1F
100
AcDbEntity
  8
TOPOVERLAY
100
AcDbLine
 10
393.02290966
 20
86.75334694
 30
0.0
 11
393.52280198
 21
86.75334694
 31
0.0
  0
LINE
  5
137
330
1F
100
AcDbEntity
  8
TOPOVERLAY
100
AcDbLine
 10
393.52280198
 20
86.75334694
 30
0.0
 11
393.85606522
 21
86.91997855999999
 31
0.0
  0
LINE
  5
138
330
1F
100
AcDbEntity
  8
TOPOVERLAY
100
AcDbLine
 10
393.85606522
 20
86.91997855999999
 30
0.0
 11
394.18932592
 21
87.25323926
 31
0.0
  0
LINE
  5
139
330
1F
100
AcDbEntity
  8
TOPOVERLAY
100
AcDbLine
 10
394.18932592
 20
87.25323926
 30
0.0
 11
394.35595754
 21
87.75313158
 31
0.0
  0
LINE
  5
13A
330
1F
100
AcDbEntity
  8
TOPOVERLAY
100
AcDbLine
 10
394.35595754
 20
87.75313158
 30
0.0
 11
394.35595754
 21
88.08639482
 31
0.0
  0
LINE
  5
13B
330
1F
100
AcDbEntity
  8
TOPOVERLAY
100
AcDbLine
 10
394.35595754
 20
88.08639482
 30
0.0
 11
394.18932592
 21
88.58628714
 31
0.0
  0
LINE
  5
13C
330
1F
100
AcDbEntity
  8
TOPOVERLAY
100
AcDbLine
 10
394.18932592
 20
88.58628714
 30
0.0
 11
393.85606522
 21
88.91955037999999
 31
0.0
  0
LINE
  5
13D
330
1F
100
AcDbEntity
  8
TOPOVERLAY
100
AcDbLine
 10
393.85606522
 20
88.91955037999999
 30
0.0
 11
393.52280198
 21
89.08617946
 31
0.0
  0
LINE
  5
13E
330
1F
100
AcDbEntity
  8
TOPOVERLAY
100
AcDbLine
 10
393.52280198
 20
89.08617946
 30
0.0
 11
393.02290966
 21
89.08617946
 31
0.0
  0
LINE
  5
13F
330
1F
100
AcDbEntity
  8
TOPOVERLAY
100
AcDbLine
 10
395.12245842
 20
89.08617946
 30
0.0
 11
395.12245842
 21
85.58693068
 31
0.0
  0
LINE
  5
140
330
1F
100
AcDbEntity
  8
TOPOVERLAY
100
AcDbLine
 10
395.12245842
 20
88.58628714
 30
0.0
 11
395.45572166
 21
88.91955037999999
 31
0.0
  0
LINE
  5
141
330
1F
100
AcDbEntity
  8
TOPOVERLAY
100
AcDbLine
 10
395.45572166
 20
88.91955037999999
 30
0.0
 11
395.78898236
 21
89.08617946
 31
0.0
  0
LINE
  5
142
330
1F
100
AcDbEntity
  8
TOPOVERLAY
100
AcDbLine
 10
395.78898236
 20
89.08617946
 30
0.0
 11
396.28887468
 21
89.08617946
 31
0.0
  0
LINE
  5
143
330
1F
100
AcDbEntity
  8
TOPOVERLAY
100
AcDbLine
 10
396.28887468
 20
89.08617946
 30
0.0
 11
396.62213792
 21
88.91955037999999
 31
0.0
  0
LINE
  5
144
330
1F
100
AcDbEntity
  8
TOPOVERLAY
100
AcDbLine
 10
396.62213792
 20
88.91955037999999
 30
0.0
 11
396.95539862
 21
88.58628714
 31
0.0
  0
LINE
  5
145
330
1F
100
AcDbEntity
  8
TOPOVERLAY
100
AcDbLine
 10
396.95539862
 20
88.58628714
 30
0.0
 11
397.12203024
 21
88.08639482
 31
0.0
  0
LINE
  5
146
330
1F
100
AcDbEntity
  8
TOPOVERLAY
100
AcDbLine
 10
397.12203024
 20
88.08639482
 30
0.0
 11
397.12203024
 21
87.75313158
 31
0.0
  0
LINE
  5
147
330
1F
100
AcDbEntity
  8
TOPOVERLAY
100
AcDbLine
 10
397.12203024
 20
87.75313158
 30
0.0
 11
396.95539862
 21
87.25323926
 31
0.0
  0
LINE
  5
148
330
1F
100
AcDbEntity
  8
TOPOVERLAY
100
AcDbLine
 10
396.95539862
 20
87.25323926
 30
0.0
 11
396.62213792
 21
86.91997855999999
 31
0.0
  0
LINE
  5
149
330
1F
100
AcDbEntity
  8
TOPOVERLAY
100
AcDbLine
 10
396.62213792
 20
86.91997855999999
 30
0.0
 11
396.28887468
 21
86.75334694
 31
0.0
  0
LINE
  5
14A
330
1F
100
AcDbEntity
  8
TOPOVERLAY
100
AcDbLine
 10
396.28887468
 20
86.75334694
 30
0.0
 11
395.78898236
 21
86.75334694
 31
0.0
  0
LINE
  5
14B
330
1F
100
AcDbEntity
  8
TOPOVERLAY
100
AcDbLine
 10
395.78898236
 20
86.75334694
 30
0.0
 11
395.45572166
 21
86.91997855999999
 31
0.0
  0
LINE
  5
14C
330
1F
100
AcDbEntity
  8
TOPOVERLAY
100
AcDbLine
 10
395.45572166
 20
86.91997855999999
 30
0.0
 11
395.12245842
 21
87.25323926
 31
0.0
  0
LINE
  5
14D
330
1F
100
AcDbEntity
  8
TOPOVERLAY
100
AcDbLine
 10
401.62106366
 20
90.25259826
 30
0.0
 11
401.28780296
 21
90.08596664
 31
0.0
  0
LINE
  5
14E
330
1F
100
AcDbEntity
  8
TOPOVERLAY
100
AcDbLine
 10
401.28780296
 20
90.08596664
 30
0.0
 11
400.95454226
 21
89.75270594
 31
0.0
  0
LINE
  5
14F
330
1F
100
AcDbEntity
  8
TOPOVERLAY
100
AcDbLine
 10
400.95454226
 20
89.75270594
 30
0.0
 11
400.78791064
 21
89.41944269999999
 31
0.0
  0
LINE
  5
150
330
1F
100
AcDbEntity
  8
TOPOVERLAY
100
AcDbLine
 10
400.78791064
 20
89.41944269999999
 30
0.0
 11
400.62127902
 21
88.91955037999999
 31
0.0
  0
LINE
  5
151
330
1F
100
AcDbEntity
  8
TOPOVERLAY
100
AcDbLine
 10
400.62127902
 20
88.91955037999999
 30
0.0
 11
400.62127902
 21
88.08639482
 31
0.0
  0
LINE
  5
152
330
1F
100
AcDbEntity
  8
TOPOVERLAY
100
AcDbLine
 10
400.62127902
 20
88.08639482
 30
0.0
 11
400.78791064
 21
87.5865025
 31
0.0
  0
LINE
  5
153
330
1F
100
AcDbEntity
  8
TOPOVERLAY
100
AcDbLine
 10
400.78791064
 20
87.5865025
 30
0.0
 11
400.95454226
 21
87.25323926
 31
0.0
  0
LINE
  5
154
330
1F
100
AcDbEntity
  8
TOPOVERLAY
100
AcDbLine
 10
400.95454226
 20
87.25323926
 30
0.0
 11
401.28780296
 21
86.91997855999999
 31
0.0
  0
LINE
  5
155
330
1F
100
AcDbEntity
  8
TOPOVERLAY
100
AcDbLine
 10
401.28780296
 20
86.91997855999999
 30
0.0
 11
401.62106366
 21
86.75334694
 31
0.0
  0
LINE
  5
156
330
1F
100
AcDbEntity
  8
TOPOVERLAY
100
AcDbLine
 10
401.62106366
 20
86.75334694
 30
0.0
 11
402.28759014
 21
86.75334694
 31
0.0
  0
LINE
  5
157
330
1F
100
AcDbEntity
  8
TOPOVERLAY
100
AcDbLine
 10
402.28759014
 20
86.75334694
 30
0.0
 11
402.62085084
 21
86.91997855999999
 31
0.0
  0
LINE
  5
158
330
1F
100
AcDbEntity
  8
TOPOVERLAY
100
AcDbLine
 10
402.62085084
 20
86.91997855999999
 30
0.0
 11
402.95411154
 21
87.25323926
 31
0.0
  0
LINE
  5
159
330
1F
100
AcDbEntity
  8
TOPOVERLAY
100
AcDbLine
 10
402.95411154
 20
87.25323926
 30
0.0
 11
403.12074316
 21
87.5865025
 31
0.0
  0
LINE
  5
15A
330
1F
100
AcDbEntity
  8
TOPOVERLAY
100
AcDbLine
 10
403.12074316
 20
87.5865025
 30
0.0
 11
403.28737478
 21
88.08639482
 31
0.0
  0
LINE
  5
15B
330
1F
100
AcDbEntity
  8
TOPOVERLAY
100
AcDbLine
 10
403.28737478
 20
88.08639482
 30
0.0
 11
403.28737478
 21
88.91955037999999
 31
0.0
  0
LINE
  5
15C
330
1F
100
AcDbEntity
  8
TOPOVERLAY
100
AcDbLine
 10
403.28737478
 20
88.91955037999999
 30
0.0
 11
403.12074316
 21
89.41944269999999
 31
0.0
  0
LINE
  5
15D
330
1F
100
AcDbEntity
  8
TOPOVERLAY
100
AcDbLine
 10
403.12074316
 20
89.41944269999999
 30
0.0
 11
402.95411154
 21
89.75270594
 31
0.0
  0
LINE
  5
15E
330
1F
100
AcDbEntity
  8
TOPOVERLAY
100
AcDbLine
 10
402.95411154
 20
89.75270594
 30
0.0
 11
402.62085084
 21
90.08596664
 31
0.0
  0
LINE
  5
15F
330
1F
100
AcDbEntity
  8
TOPOVERLAY
100
AcDbLine
 10
402.62085084
 20
90.08596664
 30
0.0
 11
402.28759014
 21
90.25259826
 31
0.0
  0
LINE
  5
160
330
1F
100
AcDbEntity
  8
TOPOVERLAY
100
AcDbLine
 10
402.28759014
 20
90.25259826
 30
0.0
 11
401.62106366
 21
90.25259826
 31
0.0
  0
LINE
  5
161
330
1F
100
AcDbEntity
  8
TOPOVERLAY
100
AcDbLine
 10
404.1038654
 20
89.08617946
 30
0.0
 11
405.10365004
 21
86.75334694
 31
0.0
  0
LINE
  5
162
330
1F
100
AcDbEntity
  8
TOPOVERLAY
100
AcDbLine
 10
406.10343722
 20
89.08617946
 30
0.0
 11
405.10365004
 21
86.75334694
 31
0.0
  0
LINE
  5
163
330
1F
100
AcDbEntity
  8
TOPOVERLAY
100
AcDbLine
 10
406.66998168
 20
88.08639482
 30
0.0
 11
408.6695534999999
 21
88.08639482
 31
0.0
  0
LINE
  5
164
330
1F
100
AcDbEntity
  8
TOPOVERLAY
100
AcDbLine
 10
408.6695534999999
 20
88.08639482
 30
0.0
 11
408.6695534999999
 21
88.41965805999999
 31
0.0
  0
LINE
  5
165
330
1F
100
AcDbEntity
  8
TOPOVERLAY
100
AcDbLine
 10
408.6695534999999
 20
88.41965805999999
 30
0.0
 11
408.50292188
 21
88.75291876
 31
0.0
  0
LINE
  5
166
330
1F
100
AcDbEntity
  8
TOPOVERLAY
100
AcDbLine
 10
408.50292188
 20
88.75291876
 30
0.0
 11
408.3362928
 21
88.91955037999999
 31
0.0
  0
LINE
  5
167
330
1F
100
AcDbEntity
  8
TOPOVERLAY
100
AcDbLine
 10
408.3362928
 20
88.91955037999999
 30
0.0
 11
408.00302956
 21
89.08617946
 31
0.0
  0
LINE
  5
168
330
1F
100
AcDbEntity
  8
TOPOVERLAY
100
AcDbLine
 10
408.00302956
 20
89.08617946
 30
0.0
 11
407.50313724
 21
89.08617946
 31
0.0
  0
LINE
  5
169
330
1F
100
AcDbEntity
  8
TOPOVERLAY
100
AcDbLine
 10
407.50313724
 20
89.08617946
 30
0.0
 11
407.169874
 21
88.91955037999999
 31
0.0
  0
LINE
  5
16A
330
1F
100
AcDbEntity
  8
TOPOVERLAY
100
AcDbLine
 10
407.169874
 20
88.91955037999999
 30
0.0
 11
406.8366133
 21
88.58628714
 31
0.0
  0
LINE
  5
16B
330
1F
100
AcDbEntity
  8
TOPOVERLAY
100
AcDbLine
 10
406.8366133
 20
88.58628714
 30
0.0
 11
406.66998168
 21
88.08639482
 31
0.0
  0
LINE
  5
16C
330
1F
100
AcDbEntity
  8
TOPOVERLAY
100
AcDbLine
 10
406.66998168
 20
88.08639482
 30
0.0
 11
406.66998168
 21
87.75313158
 31
0.0
  0
LINE
  5
16D
330
1F
100
AcDbEntity
  8
TOPOVERLAY
100
AcDbLine
 10
406.66998168
 20
87.75313158
 30
0.0
 11
406.8366133
 21
87.25323926
 31
0.0
  0
LINE
  5
16E
330
1F
100
AcDbEntity
  8
TOPOVERLAY
100
AcDbLine
 10
406.8366133
 20
87.25323926
 30
0.0
 11
407.169874
 21
86.91997855999999
 31
0.0
  0
LINE
  5
16F
330
1F
100
AcDbEntity
  8
TOPOVERLAY
100
AcDbLine
 10
407.169874
 20
86.91997855999999
 30
0.0
 11
407.50313724
 21
86.75334694
 31
0.0
  0
LINE
  5
170
330
1F
100
AcDbEntity
  8
TOPOVERLAY
100
AcDbLine
 10
407.50313724
 20
86.75334694
 30
0.0
 11
408.00302956
 21
86.75334694
 31
0.0
  0
LINE
  5
171
330
1F
100
AcDbEntity
  8
TOPOVERLAY
100
AcDbLine
 10
408.00302956
 20
86.75334694
 30
0.0
 11
408.3362928
 21
86.91997855999999
 31
0.0
  0
LINE
  5
172
330
1F
100
AcDbEntity
  8
TOPOVERLAY
100
AcDbLine
 10
408.3362928
 20
86.91997855999999
 30
0.0
 11
408.6695534999999
 21
87.25323926
 31
0.0
  0
LINE
  5
173
330
1F
100
AcDbEntity
  8
TOPOVERLAY
100
AcDbLine
 10
409.41939198
 20
89.08617946
 30
0.0
 11
409.41939198
 21
86.75334694
 31
0.0
  0
LINE
  5
174
330
1F
100
AcDbEntity
  8
TOPOVERLAY
100
AcDbLine
 10
409.41939198
 20
88.08639482
 30
0.0
 11
409.5860236
 21
88.58628714
 31
0.0
  0
LINE
  5
175
330
1F
100
AcDbEntity
  8
TOPOVERLAY
100
AcDbLine
 10
409.5860236
 20
88.58628714
 30
0.0
 11
409.9192843
 21
88.91955037999999
 31
0.0
  0
LINE
  5
176
330
1F
100
AcDbEntity
  8
TOPOVERLAY
100
AcDbLine
 10
409.9192843
 20
88.91955037999999
 30
0.0
 11
410.25254754
 21
89.08617946
 31
0.0
  0
LINE
  5
177
330
1F
100
AcDbEntity
  8
TOPOVERLAY
100
AcDbLine
 10
410.25254754
 20
89.08617946
 30
0.0
 11
410.75243986
 21
89.08617946
 31
0.0
  0
LINE
  5
178
330
1F
100
AcDbEntity
  8
TOPOVERLAY
100
AcDbLine
 10
411.06903816
 20
90.25259826
 30
0.0
 11
411.06903816
 21
86.75334694
 31
0.0
  0
LINE
  5
179
330
1F
100
AcDbEntity
  8
TOPOVERLAY
100
AcDbLine
 10
413.80178606
 20
89.08617946
 30
0.0
 11
413.80178606
 21
86.75334694
 31
0.0
  0
LINE
  5
17A
330
1F
100
AcDbEntity
  8
TOPOVERLAY
100
AcDbLine
 10
413.80178606
 20
88.58628714
 30
0.0
 11
413.46852536
 21
88.91955037999999
 31
0.0
  0
LINE
  5
17B
330
1F
100
AcDbEntity
  8
TOPOVERLAY
100
AcDbLine
 10
413.46852536
 20
88.91955037999999
 30
0.0
 11
413.13526212
 21
89.08617946
 31
0.0
  0
LINE
  5
17C
330
1F
100
AcDbEntity
  8
TOPOVERLAY
100
AcDbLine
 10
413.13526212
 20
89.08617946
 30
0.0
 11
412.6353698
 21
89.08617946
 31
0.0
  0
LINE
  5
17D
330
1F
100
AcDbEntity
  8
TOPOVERLAY
100
AcDbLine
 10
412.6353698
 20
89.08617946
 30
0.0
 11
412.30210656
 21
88.91955037999999
 31
0.0
  0
LINE
  5
17E
330
1F
100
AcDbEntity
  8
TOPOVERLAY
100
AcDbLine
 10
412.30210656
 20
88.91955037999999
 30
0.0
 11
411.96884586
 21
88.58628714
 31
0.0
  0
LINE
  5
17F
330
1F
100
AcDbEntity
  8
TOPOVERLAY
100
AcDbLine
 10
411.96884586
 20
88.58628714
 30
0.0
 11
411.80221424
 21
88.08639482
 31
0.0
  0
LINE
  5
180
330
1F
100
AcDbEntity
  8
TOPOVERLAY
100
AcDbLine
 10
411.80221424
 20
88.08639482
 30
0.0
 11
411.80221424
 21
87.75313158
 31
0.0
  0
LINE
  5
181
330
1F
100
AcDbEntity
  8
TOPOVERLAY
100
AcDbLine
 10
411.80221424
 20
87.75313158
 30
0.0
 11
411.96884586
 21
87.25323926
 31
0.0
  0
LINE
  5
182
330
1F
100
AcDbEntity
  8
TOPOVERLAY
100
AcDbLine
 10
411.96884586
 20
87.25323926
 30
0.0
 11
412.30210656
 21
86.91997855999999
 31
0.0
  0
LINE
  5
183
330
1F
100
AcDbEntity
  8
TOPOVERLAY
100
AcDbLine
 10
412.30210656
 20
86.91997855999999
 30
0.0
 11
412.6353698
 21
86.75334694
 31
0.0
  0
LINE
  5
184
330
1F
100
AcDbEntity
  8
TOPOVERLAY
100
AcDbLine
 10
412.6353698
 20
86.75334694
 30
0.0
 11
413.13526212
 21
86.75334694
 31
0.0
  0
LINE
  5
185
330
1F
100
AcDbEntity
  8
TOPOVERLAY
100
AcDbLine
 10
413.13526212
 20
86.75334694
 30
0.0
 11
413.46852536
 21
86.91997855999999
 31
0.0
  0
LINE
  5
186
330
1F
100
AcDbEntity
  8
TOPOVERLAY
100
AcDbLine
 10
413.46852536
 20
86.91997855999999
 30
0.0
 11
413.80178606
 21
87.25323926
 31
0.0
  0
LINE
  5
187
330
1F
100
AcDbEntity
  8
TOPOVERLAY
100
AcDbLine
 10
414.90155018
 20
89.08617946
 30
0.0
 11
415.90133482
 21
86.75334694
 31
0.0
  0
LINE
  5
188
330
1F
100
AcDbEntity
  8
TOPOVERLAY
100
AcDbLine
 10
416.901122
 20
89.08617946
 30
0.0
 11
415.90133482
 21
86.75334694
 31
0.0
  0
LINE
  5
189
330
1F
100
AcDbEntity
  8
TOPOVERLAY
100
AcDbLine
 10
415.90133482
 20
86.75334694
 30
0.0
 11
415.5680741199999
 21
86.086823
 31
0.0
  0
LINE
  5
18A
330
1F
100
AcDbEntity
  8
TOPOVERLAY
100
AcDbLine
 10
415.5680741199999
 20
86.086823
 30
0.0
 11
415.23481088
 21
85.7535623
 31
0.0
  0
LINE
  5
18B
330
1F
100
AcDbEntity
  8
TOPOVERLAY
100
AcDbLine
 10
415.23481088
 20
85.7535623
 30
0.0
 11
414.90155018
 21
85.58693068
 31
0.0
  0
LINE
  5
18C
330
1F
100
AcDbEntity
  8
TOPOVERLAY
100
AcDbLine
 10
414.90155018
 20
85.58693068
 30
0.0
 11
414.73491856
 21
85.58693068
 31
0.0
  0
LINE
  5
18D
330
1F
100
AcDbEntity
  8
TOPPASTE
100
AcDbLine
 10
390.73176108
 20
89.55259712
 30
0.0
 11
390.73176108
 21
86.05334579999999
 31
0.0
  0
LINE
  5
18E
330
1F
100
AcDbEntity
  8
TOPPASTE
100
AcDbLine
 10
389.56534482
 20
89.55259712
 30
0.0
 11
391.89817734
 21
89.55259712
 31
0.0
  0
LINE
  5
18F
330
1F
100
AcDbEntity
  8
TOPPASTE
100
AcDbLine
 10
393.14791068
 20
88.38617832
 30
0.0
 11
392.81464744
 21
88.21954923999999
 31
0.0
  0
LINE
  5
190
330
1F
100
AcDbEntity
  8
TOPPASTE
100
AcDbLine
 10
392.81464744
 20
88.21954923999999
 30
0.0
 11
392.48138674
 21
87.886286
 31
0.0
  0
LINE
  5
191
330
1F
100
AcDbEntity
  8
TOPPASTE
100
AcDbLine
 10
392.48138674
 20
87.886286
 30
0.0
 11
392.31475512
 21
87.38639368
 31
0.0
  0
LINE
  5
192
330
1F
100
AcDbEntity
  8
TOPPASTE
100
AcDbLine
 10
392.31475512
 20
87.38639368
 30
0.0
 11
392.31475512
 21
87.05313043999999
 31
0.0
  0
LINE
  5
193
330
1F
100
AcDbEntity
  8
TOPPASTE
100
AcDbLine
 10
392.31475512
 20
87.05313043999999
 30
0.0
 11
392.48138674
 21
86.55323811999999
 31
0.0
  0
LINE
  5
194
330
1F
100
AcDbEntity
  8
TOPPASTE
100
AcDbLine
 10
392.48138674
 20
86.55323811999999
 30
0.0
 11
392.81464744
 21
86.21997741999999
 31
0.0
  0
LINE
  5
195
330
1F
100
AcDbEntity
  8
TOPPASTE
100
AcDbLine
 10
392.81464744
 20
86.21997741999999
 30
0.0
 11
393.14791068
 21
86.05334579999999
 31
0.0
  0
LINE
  5
196
330
1F
100
AcDbEntity
  8
TOPPASTE
100
AcDbLine
 10
393.14791068
 20
86.05334579999999
 30
0.0
 11
393.647803
 21
86.05334579999999
 31
0.0
  0
LINE
  5
197
330
1F
100
AcDbEntity
  8
TOPPASTE
100
AcDbLine
 10
393.647803
 20
86.05334579999999
 30
0.0
 11
393.98106624
 21
86.21997741999999
 31
0.0
  0
LINE
  5
198
330
1F
100
AcDbEntity
  8
TOPPASTE
100
AcDbLine
 10
393.98106624
 20
86.21997741999999
 30
0.0
 11
394.31432694
 21
86.55323811999999
 31
0.0
  0
LINE
  5
199
330
1F
100
AcDbEntity
  8
TOPPASTE
100
AcDbLine
 10
394.31432694
 20
86.55323811999999
 30
0.0
 11
394.48095856
 21
87.05313043999999
 31
0.0
  0
LINE
  5
19A
330
1F
100
AcDbEntity
  8
TOPPASTE
100
AcDbLine
 10
394.48095856
 20
87.05313043999999
 30
0.0
 11
394.48095856
 21
87.38639368
 31
0.0
  0
LINE
  5
19B
330
1F
100
AcDbEntity
  8
TOPPASTE
100
AcDbLine
 10
394.48095856
 20
87.38639368
 30
0.0
 11
394.31432694
 21
87.886286
 31
0.0
  0
LINE
  5
19C
330
1F
100
AcDbEntity
  8
TOPPASTE
100
AcDbLine
 10
394.31432694
 20
87.886286
 30
0.0
 11
393.98106624
 21
88.21954923999999
 31
0.0
  0
LINE
  5
19D
330
1F
100
AcDbEntity
  8
TOPPASTE
100
AcDbLine
 10
393.98106624
 20
88.21954923999999
 30
0.0
 11
393.647803
 21
88.38617832
 31
0.0
  0
LINE
  5
19E
330
1F
100
AcDbEntity
  8
TOPPASTE
100
AcDbLine
 10
393.647803
 20
88.38617832
 30
0.0
 11
393.14791068
 21
88.38617832
 31
0.0
  0
LINE
  5
19F
330
1F
100
AcDbEntity
  8
TOPPASTE
100
AcDbLine
 10
395.24745944
 20
88.38617832
 30
0.0
 11
395.24745944
 21
84.88692954
 31
0.0
  0
LINE
  5
1A0
330
1F
100
AcDbEntity
  8
TOPPASTE
100
AcDbLine
 10
395.24745944
 20
87.886286
 30
0.0
 11
395.58072268
 21
88.21954923999999
 31
0.0
  0
LINE
  5
1A1
330
1F
100
AcDbEntity
  8
TOPPASTE
100
AcDbLine
 10
395.58072268
 20
88.21954923999999
 30
0.0
 11
395.91398338
 21
88.38617832
 31
0.0
  0
LINE
  5
1A2
330
1F
100
AcDbEntity
  8
TOPPASTE
100
AcDbLine
 10
395.91398338
 20
88.38617832
 30
0.0
 11
396.4138757
 21
88.38617832
 31
0.0
  0
LINE
  5
1A3
330
1F
100
AcDbEntity
  8
TOPPASTE
100
AcDbLine
 10
396.4138757
 20
88.38617832
 30
0.0
 11
396.74713894
 21
88.21954923999999
 31
0.0
  0
LINE
  5
1A4
330
1F
100
AcDbEntity
  8
TOPPASTE
100
AcDbLine
 10
396.74713894
 20
88.21954923999999
 30
0.0
 11
397.08039964
 21
87.886286
 31
0.0
  0
LINE
  5
1A5
330
1F
100
AcDbEntity
  8
TOPPASTE
100
AcDbLine
 10
397.08039964
 20
87.886286
 30
0.0
 11
397.24703126
 21
87.38639368
 31
0.0
  0
LINE
  5
1A6
330
1F
100
AcDbEntity
  8
TOPPASTE
100
AcDbLine
 10
397.24703126
 20
87.38639368
 30
0.0
 11
397.24703126
 21
87.05313043999999
 31
0.0
  0
LINE
  5
1A7
330
1F
100
AcDbEntity
  8
TOPPASTE
100
AcDbLine
 10
397.24703126
 20
87.05313043999999
 30
0.0
 11
397.08039964
 21
86.55323811999999
 31
0.0
  0
LINE
  5
1A8
330
1F
100
AcDbEntity
  8
TOPPASTE
100
AcDbLine
 10
397.08039964
 20
86.55323811999999
 30
0.0
 11
396.74713894
 21
86.21997741999999
 31
0.0
  0
LINE
  5
1A9
330
1F
100
AcDbEntity
  8
TOPPASTE
100
AcDbLine
 10
396.74713894
 20
86.21997741999999
 30
0.0
 11
396.4138757
 21
86.05334579999999
 31
0.0
  0
LINE
  5
1AA
330
1F
100
AcDbEntity
  8
TOPPASTE
100
AcDbLine
 10
396.4138757
 20
86.05334579999999
 30
0.0
 11
395.91398338
 21
86.05334579999999
 31
0.0
  0
LINE
  5
1AB
330
1F
100
AcDbEntity
  8
TOPPASTE
100
AcDbLine
 10
395.91398338
 20
86.05334579999999
 30
0.0
 11
395.58072268
 21
86.21997741999999
 31
0.0
  0
LINE
  5
1AC
330
1F
100
AcDbEntity
  8
TOPPASTE
100
AcDbLine
 10
395.58072268
 20
86.21997741999999
 30
0.0
 11
395.24745944
 21
86.55323811999999
 31
0.0
  0
LINE
  5
1AD
330
1F
100
AcDbEntity
  8
TOPPASTE
100
AcDbLine
 10
400.74628004
 20
87.71965691999999
 30
0.0
 11
402.24595954
 21
87.71965691999999
 31
0.0
  0
LINE
  5
1AE
330
1F
100
AcDbEntity
  8
TOPPASTE
100
AcDbLine
 10
402.24595954
 20
87.71965691999999
 30
0.0
 11
402.74585186
 21
87.886286
 31
0.0
  0
LINE
  5
1AF
330
1F
100
AcDbEntity
  8
TOPPASTE
100
AcDbLine
 10
402.74585186
 20
87.886286
 30
0.0
 11
402.91248348
 21
88.05291761999999
 31
0.0
  0
LINE
  5
1B0
330
1F
100
AcDbEntity
  8
TOPPASTE
100
AcDbLine
 10
402.91248348
 20
88.05291761999999
 30
0.0
 11
403.07911256
 21
88.38617832
 31
0.0
  0
LINE
  5
1B1
330
1F
100
AcDbEntity
  8
TOPPASTE
100
AcDbLine
 10
403.07911256
 20
88.38617832
 30
0.0
 11
403.07911256
 21
88.88607318
 31
0.0
  0
LINE
  5
1B2
330
1F
100
AcDbEntity
  8
TOPPASTE
100
AcDbLine
 10
403.07911256
 20
88.88607318
 30
0.0
 11
402.91248348
 21
89.21933388
 31
0.0
  0
LINE
  5
1B3
330
1F
100
AcDbEntity
  8
TOPPASTE
100
AcDbLine
 10
402.91248348
 20
89.21933388
 30
0.0
 11
402.74585186
 21
89.3859655
 31
0.0
  0
LINE
  5
1B4
330
1F
100
AcDbEntity
  8
TOPPASTE
100
AcDbLine
 10
402.74585186
 20
89.3859655
 30
0.0
 11
402.24595954
 21
89.55259712
 31
0.0
  0
LINE
  5
1B5
330
1F
100
AcDbEntity
  8
TOPPASTE
100
AcDbLine
 10
402.24595954
 20
89.55259712
 30
0.0
 11
400.74628004
 21
89.55259712
 31
0.0
  0
LINE
  5
1B6
330
1F
100
AcDbEntity
  8
TOPPASTE
100
AcDbLine
 10
400.74628004
 20
89.55259712
 30
0.0
 11
400.74628004
 21
86.05334579999999
 31
0.0
  0
LINE
  5
1B7
330
1F
100
AcDbEntity
  8
TOPPASTE
100
AcDbLine
 10
405.8618502
 20
88.38617832
 30
0.0
 11
405.8618502
 21
86.05334579999999
 31
0.0
  0
LINE
  5
1B8
330
1F
100
AcDbEntity
  8
TOPPASTE
100
AcDbLine
 10
405.8618502
 20
87.886286
 30
0.0
 11
405.5285895
 21
88.21954923999999
 31
0.0
  0
LINE
  5
1B9
330
1F
100
AcDbEntity
  8
TOPPASTE
100
AcDbLine
 10
405.5285895
 20
88.21954923999999
 30
0.0
 11
405.19532626
 21
88.38617832
 31
0.0
  0
LINE
  5
1BA
330
1F
100
AcDbEntity
  8
TOPPASTE
100
AcDbLine
 10
405.19532626
 20
88.38617832
 30
0.0
 11
404.69543394
 21
88.38617832
 31
0.0
  0
LINE
  5
1BB
330
1F
100
AcDbEntity
  8
TOPPASTE
100
AcDbLine
 10
404.69543394
 20
88.38617832
 30
0.0
 11
404.3621707
 21
88.21954923999999
 31
0.0
  0
LINE
  5
1BC
330
1F
100
AcDbEntity
  8
TOPPASTE
100
AcDbLine
 10
404.3621707
 20
88.21954923999999
 30
0.0
 11
404.02891
 21
87.886286
 31
0.0
  0
LINE
  5
1BD
330
1F
100
AcDbEntity
  8
TOPPASTE
100
AcDbLine
 10
404.02891
 20
87.886286
 30
0.0
 11
403.86227838
 21
87.38639368
 31
0.0
  0
LINE
  5
1BE
330
1F
100
AcDbEntity
  8
TOPPASTE
100
AcDbLine
 10
403.86227838
 20
87.38639368
 30
0.0
 11
403.86227838
 21
87.05313043999999
 31
0.0
  0
LINE
  5
1BF
330
1F
100
AcDbEntity
  8
TOPPASTE
100
AcDbLine
 10
403.86227838
 20
87.05313043999999
 30
0.0
 11
404.02891
 21
86.55323811999999
 31
0.0
  0
LINE
  5
1C0
330
1F
100
AcDbEntity
  8
TOPPASTE
100
AcDbLine
 10
404.02891
 20
86.55323811999999
 30
0.0
 11
404.3621707
 21
86.21997741999999
 31
0.0
  0
LINE
  5
1C1
330
1F
100
AcDbEntity
  8
TOPPASTE
100
AcDbLine
 10
404.3621707
 20
86.21997741999999
 30
0.0
 11
404.69543394
 21
86.05334579999999
 31
0.0
  0
LINE
  5
1C2
330
1F
100
AcDbEntity
  8
TOPPASTE
100
AcDbLine
 10
404.69543394
 20
86.05334579999999
 30
0.0
 11
405.19532626
 21
86.05334579999999
 31
0.0
  0
LINE
  5
1C3
330
1F
100
AcDbEntity
  8
TOPPASTE
100
AcDbLine
 10
405.19532626
 20
86.05334579999999
 30
0.0
 11
405.5285895
 21
86.21997741999999
 31
0.0
  0
LINE
  5
1C4
330
1F
100
AcDbEntity
  8
TOPPASTE
100
AcDbLine
 10
405.5285895
 20
86.21997741999999
 30
0.0
 11
405.8618502
 21
86.55323811999999
 31
0.0
  0
LINE
  5
1C5
330
1F
100
AcDbEntity
  8
TOPPASTE
100
AcDbLine
 10
408.6279229
 20
87.886286
 30
0.0
 11
408.46129382
 21
88.21954923999999
 31
0.0
  0
LINE
  5
1C6
330
1F
100
AcDbEntity
  8
TOPPASTE
100
AcDbLine
 10
408.46129382
 20
88.21954923999999
 30
0.0
 11
407.96139896
 21
88.38617832
 31
0.0
  0
LINE
  5
1C7
330
1F
100
AcDbEntity
  8
TOPPASTE
100
AcDbLine
 10
407.96139896
 20
88.38617832
 30
0.0
 11
407.46150664
 21
88.38617832
 31
0.0
  0
LINE
  5
1C8
330
1F
100
AcDbEntity
  8
TOPPASTE
100
AcDbLine
 10
407.46150664
 20
88.38617832
 30
0.0
 11
406.96161432
 21
88.21954923999999
 31
0.0
  0
LINE
  5
1C9
330
1F
100
AcDbEntity
  8
TOPPASTE
100
AcDbLine
 10
406.96161432
 20
88.21954923999999
 30
0.0
 11
406.7949827
 21
87.886286
 31
0.0
  0
LINE
  5
1CA
330
1F
100
AcDbEntity
  8
TOPPASTE
100
AcDbLine
 10
406.7949827
 20
87.886286
 30
0.0
 11
406.96161432
 21
87.5530253
 31
0.0
  0
LINE
  5
1CB
330
1F
100
AcDbEntity
  8
TOPPASTE
100
AcDbLine
 10
406.96161432
 20
87.5530253
 30
0.0
 11
407.2948750199999
 21
87.38639368
 31
0.0
  0
LINE
  5
1CC
330
1F
100
AcDbEntity
  8
TOPPASTE
100
AcDbLine
 10
407.2948750199999
 20
87.38639368
 30
0.0
 11
408.12803058
 21
87.21976206
 31
0.0
  0
LINE
  5
1CD
330
1F
100
AcDbEntity
  8
TOPPASTE
100
AcDbLine
 10
408.12803058
 20
87.21976206
 30
0.0
 11
408.46129382
 21
87.05313043999999
 31
0.0
  0
LINE
  5
1CE
330
1F
100
AcDbEntity
  8
TOPPASTE
100
AcDbLine
 10
408.46129382
 20
87.05313043999999
 30
0.0
 11
408.6279229
 21
86.71986974
 31
0.0
  0
LINE
  5
1CF
330
1F
100
AcDbEntity
  8
TOPPASTE
100
AcDbLine
 10
408.6279229
 20
86.71986974
 30
0.0
 11
408.6279229
 21
86.55323811999999
 31
0.0
  0
LINE
  5
1D0
330
1F
100
AcDbEntity
  8
TOPPASTE
100
AcDbLine
 10
408.6279229
 20
86.55323811999999
 30
0.0
 11
408.46129382
 21
86.21997741999999
 31
0.0
  0
LINE
  5
1D1
330
1F
100
AcDbEntity
  8
TOPPASTE
100
AcDbLine
 10
408.46129382
 20
86.21997741999999
 30
0.0
 11
407.96139896
 21
86.05334579999999
 31
0.0
  0
LINE
  5
1D2
330
1F
100
AcDbEntity
  8
TOPPASTE
100
AcDbLine
 10
407.96139896
 20
86.05334579999999
 30
0.0
 11
407.46150664
 21
86.05334579999999
 31
0.0
  0
LINE
  5
1D3
330
1F
100
AcDbEntity
  8
TOPPASTE
100
AcDbLine
 10
407.46150664
 20
86.05334579999999
 30
0.0
 11
406.96161432
 21
86.21997741999999
 31
0.0
  0
LINE
  5
1D4
330
1F
100
AcDbEntity
  8
TOPPASTE
100
AcDbLine
 10
406.96161432
 20
86.21997741999999
 30
0.0
 11
406.7949827
 21
86.55323811999999
 31
0.0
  0
LINE
  5
1D5
330
1F
100
AcDbEntity
  8
TOPPASTE
100
AcDbLine
 10
409.8609913
 20
89.55259712
 30
0.0
 11
409.8609913
 21
86.71986974
 31
0.0
  0
LINE
  5
1D6
330
1F
100
AcDbEntity
  8
TOPPASTE
100
AcDbLine
 10
409.8609913
 20
86.71986974
 30
0.0
 11
410.02762292
 21
86.21997741999999
 31
0.0
  0
LINE
  5
1D7
330
1F
100
AcDbEntity
  8
TOPPASTE
100
AcDbLine
 10
410.02762292
 20
86.21997741999999
 30
0.0
 11
410.36088362
 21
86.05334579999999
 31
0.0
  0
LINE
  5
1D8
330
1F
100
AcDbEntity
  8
TOPPASTE
100
AcDbLine
 10
410.36088362
 20
86.05334579999999
 30
0.0
 11
410.69414686
 21
86.05334579999999
 31
0.0
  0
LINE
  5
1D9
330
1F
100
AcDbEntity
  8
TOPPASTE
100
AcDbLine
 10
409.36109898
 20
88.38617832
 30
0.0
 11
410.52751524
 21
88.38617832
 31
0.0
  0
LINE
  5
1DA
330
1F
100
AcDbEntity
  8
TOPPASTE
100
AcDbLine
 10
411.19403918
 20
87.38639368
 30
0.0
 11
413.193611
 21
87.38639368
 31
0.0
  0
LINE
  5
1DB
330
1F
100
AcDbEntity
  8
TOPPASTE
100
AcDbLine
 10
413.193611
 20
87.38639368
 30
0.0
 11
413.193611
 21
87.71965691999999
 31
0.0
  0
LINE
  5
1DC
330
1F
100
AcDbEntity
  8
TOPPASTE
100
AcDbLine
 10
413.193611
 20
87.71965691999999
 30
0.0
 11
413.02697938
 21
88.05291761999999
 31
0.0
  0
LINE
  5
1DD
330
1F
100
AcDbEntity
  8
TOPPASTE
100
AcDbLine
 10
413.02697938
 20
88.05291761999999
 30
0.0
 11
412.8603503
 21
88.21954923999999
 31
0.0
  0
LINE
  5
1DE
330
1F
100
AcDbEntity
  8
TOPPASTE
100
AcDbLine
 10
412.8603503
 20
88.21954923999999
 30
0.0
 11
412.52708706
 21
88.38617832
 31
0.0
  0
LINE
  5
1DF
330
1F
100
AcDbEntity
  8
TOPPASTE
100
AcDbLine
 10
412.52708706
 20
88.38617832
 30
0.0
 11
412.02719474
 21
88.38617832
 31
0.0
  0
LINE
  5
1E0
330
1F
100
AcDbEntity
  8
TOPPASTE
100
AcDbLine
 10
412.02719474
 20
88.38617832
 30
0.0
 11
411.6939315
 21
88.21954923999999
 31
0.0
  0
LINE
  5
1E1
330
1F
100
AcDbEntity
  8
TOPPASTE
100
AcDbLine
 10
411.6939315
 20
88.21954923999999
 30
0.0
 11
411.3606708
 21
87.886286
 31
0.0
  0
LINE
  5
1E2
330
1F
100
AcDbEntity
  8
TOPPASTE
100
AcDbLine
 10
411.3606708
 20
87.886286
 30
0.0
 11
411.19403918
 21
87.38639368
 31
0.0
  0
LINE
  5
1E3
330
1F
100
AcDbEntity
  8
TOPPASTE
100
AcDbLine
 10
411.19403918
 20
87.38639368
 30
0.0
 11
411.19403918
 21
87.05313043999999
 31
0.0
  0
LINE
  5
1E4
330
1F
100
AcDbEntity
  8
TOPPASTE
100
AcDbLine
 10
411.19403918
 20
87.05313043999999
 30
0.0
 11
411.3606708
 21
86.55323811999999
 31
0.0
  0
LINE
  5
1E5
330
1F
100
AcDbEntity
  8
TOPPASTE
100
AcDbLine
 10
411.3606708
 20
86.55323811999999
 30
0.0
 11
411.6939315
 21
86.21997741999999
 31
0.0
  0
LINE
  5
1E6
330
1F
100
AcDbEntity
  8
TOPPASTE
100
AcDbLine
 10
411.6939315
 20
86.21997741999999
 30
0.0
 11
412.02719474
 21
86.05334579999999
 31
0.0
  0
LINE
  5
1E7
330
1F
100
AcDbEntity
  8
TOPPASTE
100
AcDbLine
 10
412.02719474
 20
86.05334579999999
 30
0.0
 11
412.52708706
 21
86.05334579999999
 31
0.0
  0
LINE
  5
1E8
330
1F
100
AcDbEntity
  8
TOPPASTE
100
AcDbLine
 10
412.52708706
 20
86.05334579999999
 30
0.0
 11
412.8603503
 21
86.21997741999999
 31
0.0
  0
LINE
  5
1E9
330
1F
100
AcDbEntity
  8
TOPPASTE
100
AcDbLine
 10
412.8603503
 20
86.21997741999999
 30
0.0
 11
413.193611
 21
86.55323811999999
 31
0.0
  0
TEXT
  5
1EA
330
1F
100
AcDbEntity
  8
TOPOVERLAY
100
AcDbText
 10
392.98600092
 20
148.9052775
 30
0.0
 40
1.524
  1

100
AcDbText
  0
TEXT
  5
1EB
330
1F
100
AcDbEntity
  8
TOPOVERLAY
100
AcDbText
 10
428.62534544
 20
154.4842351
 30
0.0
 40
1.524
  1

100
AcDbText
  0
TEXT
  5
1EC
330
1F
100
AcDbEntity
  8
TOPOVERLAY
100
AcDbText
 10
428.6063437
 20
148.92594548
 30
0.0
 40
1.524
  1

100
AcDbText
  0
LWPOLYLINE
  5
1ED
330
1F
100
AcDbEntity
  8
TOPOVERLAY
100
AcDbPolyline
 90
        2
 70
     0
 43
0.1499997
 10
416.6343966
 20
145.57023464
 10
416.6343966
 20
151.1702336
  0
LWPOLYLINE
  5
1EE
330
1F
100
AcDbEntity
  8
TOPOVERLAY
100
AcDbPolyline
 90
        2
 70
     1
 43
0.07499858
 10
416.59689604
 20
145.57023464
 42
1.0
 10
416.67189716
 20
145.57023464
 42
1.0
  0
LWPOLYLINE
  5
1EF
330
1F
100
AcDbEntity
  8
TOPOVERLAY
100
AcDbPolyline
 90
        2
 70
     1
 43
0.07499858
 10
416.59689604
 20
151.1702336
 42
1.0
 10
416.67189716
 20
151.1702336
 42
1.0
  0
LWPOLYLINE
  5
1F0
330
1F
100
AcDbEntity
  8
TOPOVERLAY
100
AcDbPolyline
 90
        2
 70
     0
 43
0.1499997
 10
408.0344011
 20
145.57023464
 10
416.6343966
 20
145.57023464
  0
LWPOLYLINE
  5
1F1
330
1F
100
AcDbEntity
  8
TOPOVERLAY
100
AcDbPolyline
 90
        2
 70
     1
 43
0.07499858
 10
407.99690054
 20
145.57023464
 42
1.0
 10
408.07190166
 20
145.57023464
 42
1.0
  0
LWPOLYLINE
  5
1F2
330
1F
100
AcDbEntity
  8
TOPOVERLAY
100
AcDbPolyline
 90
        2
 70
     1
 43
0.07499858
 10
416.59689604
 20
145.57023464
 42
1.0
 10
416.67189716
 20
145.57023464
 42
1.0
  0
LWPOLYLINE
  5
1F3
330
1F
100
AcDbEntity
  8
TOPOVERLAY
100
AcDbPolyline
 90
        2
 70
     0
 43
0.1499997
 10
408.03439602
 20
151.1702336
 10
408.0344011
 20
145.57023464
  0
LWPOLYLINE
  5
1F4
330
1F
100
AcDbEntity
  8
TOPOVERLAY
100
AcDbPolyline
 90
        2
 70
     1
 43
0.07499858
 10
407.99689546
 20
151.1702336
 42
1.0
 10
408.07189658
 20
151.1702336
 42
1.0
  0
LWPOLYLINE
  5
1F5
330
1F
100
AcDbEntity
  8
TOPOVERLAY
100
AcDbPolyline
 90
        2
 70
     1
 43
0.07499858
 10
407.99690054
 20
145.57023464
 42
1.0
 10
408.07190166
 20
145.57023464
 42
1.0
  0
LWPOLYLINE
  5
1F6
330
1F
100
AcDbEntity
  8
TOPOVERLAY
100
AcDbPolyline
 90
        2
 70
     0
 43
0.17999964
 10
415.74506386
 20
151.67422548
 42
-89.63201485624919
 10
415.74497496
 20
151.67023514
  0
LWPOLYLINE
  5
1F7
330
1F
100
AcDbEntity
  8
TOPOVERLAY
100
AcDbPolyline
 90
        2
 70
     1
 43
0.08999982
 10
415.70006522
 20
151.67422548
 42
1.0
 10
415.7900625
 20
151.67422548
 42
1.0
  0
LWPOLYLINE
  5
1F8
330
1F
100
AcDbEntity
  8
TOPOVERLAY
100
AcDbPolyline
 90
        2
 70
     1
 43
0.08999982
 10
415.69997632
 20
151.67023514
 42
1.0
 10
415.7899736
 20
151.67023514
 42
1.0
  0
SOLID
  5
1F9
330
1F
100
AcDbEntity
  8
TOPPASTE
100
AcDbTrace
 10
416.1843975
 20
146.47023538
 30
0.0
 11
416.1843975
 21
150.67023206
 31
0.0
 12
415.4843989
 22
146.47023538
 32
0.0
 13
415.4843989
 23
150.67023206
 33
0.0
  0
SOLID
  5
1FA
330
1F
100
AcDbEntity
  8
TOPPASTE
100
AcDbTrace
 10
409.18439626
 20
146.47023538
 30
0.0
 11
409.18439626
 21
150.67023206
 31
0.0
 12
408.48439766
 22
146.47023538
 32
0.0
 13
408.48439766
 23
150.67023206
 33
0.0
  0
SOLID
  5
1FB
330
1F
100
AcDbEntity
  8
TOPPASTE
100
AcDbTrace
 10
414.53439826
 20
151.67023514
 30
0.0
 11
414.53439826
 21
149.67023406
 31
0.0
 12
415.13439706
 22
151.67023514
 32
0.0
 13
415.13439706
 23
149.67023406
 33
0.0
  0
SOLID
  5
1FC
330
1F
100
AcDbEntity
  8
TOPPASTE
100
AcDbTrace
 10
413.53439772
 20
151.67023514
 30
0.0
 11
413.53439772
 21
149.67023406
 31
0.0
 12
414.13439652
 22
151.67023514
 32
0.0
 13
414.13439652
 23
149.67023406
 33
0.0
  0
SOLID
  5
1FD
330
1F
100
AcDbEntity
  8
TOPPASTE
100
AcDbTrace
 10
412.53439718
 20
151.67023514
 30
0.0
 11
412.53439718
 21
149.67023406
 31
0.0
 12
413.13439598
 22
151.67023514
 32
0.0
 13
413.13439598
 23
149.67023406
 33
0.0
  0
SOLID
  5
1FE
330
1F
100
AcDbEntity
  8
TOPPASTE
100
AcDbTrace
 10
411.53439664
 20
151.67023514
 30
0.0
 11
411.53439664
 21
149.67023406
 31
0.0
 12
412.13439544
 22
151.67023514
 32
0.0
 13
412.13439544
 23
149.67023406
 33
0.0
  0
SOLID
  5
1FF
330
1F
100
AcDbEntity
  8
TOPPASTE
100
AcDbTrace
 10
410.5343961
 20
151.67023514
 30
0.0
 11
410.5343961
 21
149.67023406
 31
0.0
 12
411.1343949
 22
151.67023514
 32
0.0
 13
411.1343949
 23
149.67023406
 33
0.0
  0
SOLID
  5
200
330
1F
100
AcDbEntity
  8
TOPPASTE
100
AcDbTrace
 10
409.5343981
 20
151.67023514
 30
0.0
 11
409.5343981
 21
149.67023406
 31
0.0
 12
410.1343969
 22
151.67023514
 32
0.0
 13
410.1343969
 23
149.67023406
 33
0.0
  0
TEXT
  5
201
330
1F
100
AcDbEntity
  8
TOPOVERLAY
100
AcDbText
 10
405.49637468
 20
145.87023404
 30
0.0
 40
1.524
  1
J1
100
AcDbText
  0
ENDSEC
  0
SECTION
  2
OBJECTS
  0
DICTIONARY
  5
C
330
0
100
AcDbDictionary
  3
ACAD_GROUP
350
D
  3
ACAD_LAYOUT
350
1A
  3
ACAD_MATERIAL
350
43
  3
ACAD_MLEADERSTYLE
350
225
  3
ACAD_MLINESTYLE
350
17
  3
ACAD_PLOTSETTINGS
350
19
  3
ACAD_SCALELIST
350
47
  3
ACAD_VISUALSTYLE
350
2A
  3
ACDBHEADERROUNDTRIPXREC
350
202
  3
ACDBVARIABLEDICTIONARY
350
223
  0
DICTIONARY
  5
22C
330
8
100
AcDbDictionary
280
     1
  3
ACAD_XREC_ROUNDTRIP
360
22D
  0
DICTIONARY
  5
D
102
{ACAD_REACTORS
330
C
102
}
330
C
100
AcDbDictionary
  0
DICTIONARY
  5
1A
102
{ACAD_REACTORS
330
C
102
}
330
C
100
AcDbDictionary
  0
DICTIONARY
  5
43
102
{ACAD_REACTORS
330
C
102
}
330
C
100
AcDbDictionary
  3
BYBLOCK
350
45
  3
BYLAYER
350
44
  3
GLOBAL
350
46
  0
DICTIONARY
  5
225
102
{ACAD_REACTORS
330
C
102
}
330
C
100
AcDbDictionary
  0
DICTIONARY
  5
17
102
{ACAD_REACTORS
330
C
102
}
330
C
100
AcDbDictionary
  3
STANDARD
350
18
  0
DICTIONARY
  5
19
102
{ACAD_REACTORS
330
C
102
}
330
C
100
AcDbDictionary
  0
DICTIONARY
  5
47
102
{ACAD_REACTORS
330
C
102
}
330
C
100
AcDbDictionary
  3
A0
350
48
  3
A1
350
49
  3
A2
350
4A
  3
A3
350
4B
  3
A4
350
4C
  3
A5
350
4D
  3
A6
350
4E
  3
A7
350
4F
  3
A8
350
50
  3
A9
350
51
  3
B0
350
52
  3
B1
350
53
  3
B2
350
54
  3
B3
350
55
  3
B4
350
56
  3
B5
350
57
  3
B6
350
58
  3
B7
350
59
  3
B8
350
5A
  3
B9
350
5B
  3
C0
350
5C
  3
C1
350
5D
  3
C2
350
5E
  3
C3
350
5F
  3
C4
350
60
  3
C5
350
61
  3
C6
350
62
  3
C7
350
63
  3
C8
350
64
  3
C9
350
65
  3
D0
350
66
  3
D1
350
67
  3
D2
350
68
  0
DICTIONARY
  5
2A
102
{ACAD_REACTORS
330
C
102
}
330
C
100
AcDbDictionary
  3
2DWIREFRAME
350
2F
  3
BASIC
350
32
  3
BRIGHTEN
350
36
  3
COLORCHANGE
350
3A
  3
CONCEPTUAL
350
34
  3
DIM
350
35
  3
EDGECOLOROFF
350
3D
  3
FACEPATTERN
350
39
  3
FLAT
350
2B
  3
FLATWITHEDGES
350
2C
  3
GOURAUD
350
2D
  3
GOURAUDWITHEDGES
350
2E
  3
HIDDEN
350
31
  3
JITTEROFF
350
3B
  3
LINEPATTERN
350
38
  3
OVERHANGOFF
350
3C
  3
REALISTIC
350
33
  3
SHADED
350
42
  3
SHADED_WITH_EDGES
350
41
  3
SHADES_OF_GRAY
350
3E
  3
SKETCHY
350
3F
  3
THICKEN
350
37
  3
WIREFRAME
350
30
  3
X-RAY
350
40
  0
DICTIONARY
  5
202
102
{ACAD_REACTORS
330
C
102
}
330
C
100
AcDbDictionary
  3
CEPSNID
350
20C
  3
CEPSNTYPE
350
20B
  3
DIMSTYLEDATA
350
222
  3
FINGERPRINTGUID
350
20D
  3
HYPERLINKBASE
350
205
  3
INSUNITS
350
20A
  3
LAYOUTDICT
350
207
  3
LWETCUNION
350
209
  3
PLOTSETDICT
350
208
  3
PSVPSCALE
350
20F
  3
PUCSBASE
350
212
  3
PUCSORGBACK
350
218
  3
PUCSORGBOTTOM
350
214
  3
PUCSORGFRONT
350
217
  3
PUCSORGLEFT
350
215
  3
PUCSORGRIGHT
350
216
  3
PUCSORGTOP
350
213
  3
PUCSORTHOREF
350
210
  3
PUCSORTHOVIEW
350
211
  3
STYLESHEET
350
206
  3
TSTACKALIGN
350
203
  3
TSTACKSIZE
350
204
  3
UCSBASE
350
21B
  3
UCSORGBACK
350
221
  3
UCSORGBOTTOM
350
21D
  3
UCSORGFRONT
350
220
  3
UCSORGLEFT
350
21E
  3
UCSORGRIGHT
350
21F
  3
UCSORGTOP
350
21C
  3
UCSORTHOREF
350
219
  3
UCSORTHOVIEW
350
21A
  3
VERSIONGUID
350
20E
  0
DICTIONARY
  5
223
102
{ACAD_REACTORS
330
C
102
}
330
C
100
AcDbDictionary
  3
CANNOSCALE
350
22E
  3
DIMASSOC
350
22A
  3
HIDETEXT
350
22B
  3
MSLTSCALE
350
22F
  3
PSOLHEIGHT
350
227
  3
PSOLWIDTH
350
226
  0
XRECORD
  5
22D
102
{ACAD_REACTORS
330
22C
102
}
330
22C
100
AcDbXrecord
102
VTR_0.000_0.000_1.000_1.000_GRIDDISPLAY
 70
     3
102
VTR_0.000_0.000_1.000_1.000_GRIDMAJOR
 70
     5
102
VTR_0.000_0.000_1.000_1.000_DEFAULTLIGHTING
280
     1
102
VTR_0.000_0.000_1.000_1.000_DEFAULTLIGHTINGTYPE
 70
     1
102
VTR_0.000_0.000_1.000_1.000_BRIGHTNESS
141
0.0
102
VTR_0.000_0.000_1.000_1.000_CONTRAST
142
0.0
  0
MATERIAL
  5
45
102
{ACAD_REACTORS
330
43
102
}
102
{ACAD_XDICTIONARY
360
232
102
}
330
43
100
AcDbMaterial
  1
BYBLOCK
  0
MATERIAL
  5
44
102
{ACAD_REACTORS
330
43
102
}
102
{ACAD_XDICTIONARY
360
230
102
}
330
43
100
AcDbMaterial
  1
BYLAYER
  0
MATERIAL
  5
46
102
{ACAD_REACTORS
330
43
102
}
102
{ACAD_XDICTIONARY
360
234
102
}
330
43
100
AcDbMaterial
  1
GLOBAL
  0
MLINESTYLE
  5
18
102
{ACAD_REACTORS
330
17
102
}
330
17
100
AcDbMlineStyle
  2
Standard
 70
     0
  3

 62
   256
 51
90.0
 52
90.0
 71
     2
 49
0.5
 62
   256
  6
BYLAYER
 49
-0.5
 62
   256
  6
BYLAYER
  0
ACAD_PROXY_OBJECT
  5
48
102
{ACAD_REACTORS
330
47
102
}
330
47
100
AcDbProxyObject
 90
      499
 91
      503
 93
       41
310
903313A31580
  0
ACAD_PROXY_OBJECT
  5
49
102
{ACAD_REACTORS
330
47
102
}
330
47
100
AcDbProxyObject
 90
      499
 91
      503
 93
      105
310
903313A324000000000000004000
  0
ACAD_PROXY_OBJECT
  5
4A
102
{ACAD_REACTORS
330
47
102
}
330
47
100
AcDbProxyObject
 90
      499
 91
      503
 93
      105
310
903313A344000000000000104000
  0
ACAD_PROXY_OBJECT
  5
4B
102
{ACAD_REACTORS
330
47
102
}
330
47
100
AcDbProxyObject
 90
      499
 91
      503
 93
      105
310
903313A354000000000000144000
  0
ACAD_PROXY_OBJECT
  5
4C
102
{ACAD_REACTORS
330
47
102
}
330
47
100
AcDbProxyObject
 90
      499
 91
      503
 93
      105
310
903313A384000000000000204000
  0
ACAD_PROXY_OBJECT
  5
4D
102
{ACAD_REACTORS
330
47
102
}
330
47
100
AcDbProxyObject
 90
      499
 91
      503
 93
      113
310
904313A31304000000000000244000
  0
ACAD_PROXY_OBJECT
  5
4E
102
{ACAD_REACTORS
330
47
102
}
330
47
100
AcDbProxyObject
 90
      499
 91
      503
 93
      113
310
904313A31364000000000000304000
  0
ACAD_PROXY_OBJECT
  5
4F
102
{ACAD_REACTORS
330
47
102
}
330
47
100
AcDbProxyObject
 90
      499
 91
      503
 93
      113
310
904313A32304000000000000344000
  0
ACAD_PROXY_OBJECT
  5
50
102
{ACAD_REACTORS
330
47
102
}
330
47
100
AcDbProxyObject
 90
      499
 91
      503
 93
      113
310
904313A333040000000000003E4000
  0
ACAD_PROXY_OBJECT
  5
51
102
{ACAD_REACTORS
330
47
102
}
330
47
100
AcDbProxyObject
 90
      499
 91
      503
 93
      113
310
904313A34304000000000000444000
  0
ACAD_PROXY_OBJECT
  5
52
102
{ACAD_REACTORS
330
47
102
}
330
47
100
AcDbProxyObject
 90
      499
 91
      503
 93
      113
310
904313A35304000000000000494000
  0
ACAD_PROXY_OBJECT
  5
53
102
{ACAD_REACTORS
330
47
102
}
330
47
100
AcDbProxyObject
 90
      499
 91
      503
 93
      121
310
905313A3130304000000000000594000
  0
ACAD_PROXY_OBJECT
  5
54
102
{ACAD_REACTORS
330
47
102
}
330
47
100
AcDbProxyObject
 90
      499
 91
      503
 93
      105
310
903323A310000000000000010100
  0
ACAD_PROXY_OBJECT
  5
55
102
{ACAD_REACTORS
330
47
102
}
330
47
100
AcDbProxyObject
 90
      499
 91
      503
 93
      105
310
903343A310000000000000410100
  0
ACAD_PROXY_OBJECT
  5
56
102
{ACAD_REACTORS
330
47
102
}
330
47
100
AcDbProxyObject
 90
      499
 91
      503
 93
      105
310
903383A310000000000000810100
  0
ACAD_PROXY_OBJECT
  5
57
102
{ACAD_REACTORS
330
47
102
}
330
47
100
AcDbProxyObject
 90
      499
 91
      503
 93
      113
310
90431303A310000000000000910100
  0
ACAD_PROXY_OBJECT
  5
58
102
{ACAD_REACTORS
330
47
102
}
330
47
100
AcDbProxyObject
 90
      499
 91
      503
 93
      121
310
9053130303A310000000000001650100
  0
ACAD_PROXY_OBJECT
  5
59
102
{ACAD_REACTORS
330
47
102
}
330
47
100
AcDbProxyObject
 90
      499
 91
      503
 93
      257
310
90E312F31323822203D2031272D3022000000000000200FC000000000000284000
  0
ACAD_PROXY_OBJECT
  5
5A
102
{ACAD_REACTORS
330
47
102
}
330
47
100
AcDbProxyObject
 90
      499
 91
      503
 93
      249
310
90D312F363422203D2031272D3022000000000000240FC000000000000284000
  0
ACAD_PROXY_OBJECT
  5
5B
102
{ACAD_REACTORS
330
47
102
}
330
47
100
AcDbProxyObject
 90
      499
 91
      503
 93
      249
310
90D312F333222203D2031272D3022000000000000280FC000000000000284000
  0
ACAD_PROXY_OBJECT
  5
5C
102
{ACAD_REACTORS
330
47
102
}
330
47
100
AcDbProxyObject
 90
      499
 91
      503
 93
      249
310
90D312F313622203D2031272D30220000000000002C0FC000000000000284000
  0
ACAD_PROXY_OBJECT
  5
5D
102
{ACAD_REACTORS
330
47
102
}
330
47
100
AcDbProxyObject
 90
      499
 91
      503
 93
      249
310
90D332F333222203D2031272D30220000000000002E0FC000000000000284000
  0
ACAD_PROXY_OBJECT
  5
5E
102
{ACAD_REACTORS
330
47
102
}
330
47
100
AcDbProxyObject
 90
      499
 91
      503
 93
      241
310
90C312F3822203D2031272D3022000000000000300FC000000000000284000
  0
ACAD_PROXY_OBJECT
  5
5F
102
{ACAD_REACTORS
330
47
102
}
330
47
100
AcDbProxyObject
 90
      499
 91
      503
 93
      249
310
90D332F313622203D2031272D3022000000000000320FC000000000000284000
  0
ACAD_PROXY_OBJECT
  5
60
102
{ACAD_REACTORS
330
47
102
}
330
47
100
AcDbProxyObject
 90
      499
 91
      503
 93
      241
310
90C312F3422203D2031272D3022000000000000340FC000000000000284000
  0
ACAD_PROXY_OBJECT
  5
61
102
{ACAD_REACTORS
330
47
102
}
330
47
100
AcDbProxyObject
 90
      499
 91
      503
 93
      241
310
90C332F3822203D2031272D3022000000000000360FC000000000000284000
  0
ACAD_PROXY_OBJECT
  5
62
102
{ACAD_REACTORS
330
47
102
}
330
47
100
AcDbProxyObject
 90
      499
 91
      503
 93
      241
310
90C312F3222203D2031272D3022000000000000380FC000000000000284000
  0
ACAD_PROXY_OBJECT
  5
63
102
{ACAD_REACTORS
330
47
102
}
330
47
100
AcDbProxyObject
 90
      499
 91
      503
 93
      241
310
90C332F3422203D2031272D30220000000000003A0FC000000000000284000
  0
ACAD_PROXY_OBJECT
  5
64
102
{ACAD_REACTORS
330
47
102
}
330
47
100
AcDbProxyObject
 90
      499
 91
      503
 93
      161
310
90A3122203D2031272D30224000000000000284000
  0
ACAD_PROXY_OBJECT
  5
65
102
{ACAD_REACTORS
330
47
102
}
330
47
100
AcDbProxyObject
 90
      499
 91
      503
 93
      257
310
90E312D312F3222203D2031272D30220000000000003E0FC000000000000284000
  0
ACAD_PROXY_OBJECT
  5
66
102
{ACAD_REACTORS
330
47
102
}
330
47
100
AcDbProxyObject
 90
      499
 91
      503
 93
      225
310
90A3322203D2031272D302200000000000002100000000000000284000
  0
ACAD_PROXY_OBJECT
  5
67
102
{ACAD_REACTORS
330
47
102
}
330
47
100
AcDbProxyObject
 90
      499
 91
      503
 93
      225
310
90A3622203D2031272D302200000000000006100000000000000284000
  0
ACAD_PROXY_OBJECT
  5
68
102
{ACAD_REACTORS
330
47
102
}
330
47
100
AcDbProxyObject
 90
      499
 91
      503
 93
      249
310
90D31272D3022203D2031272D30220000000000000A100000000000000284000
  0
ACAD_PROXY_OBJECT
  5
2F
102
{ACAD_REACTORS
330
2A
102
}
330
2A
100
AcDbProxyObject
 90
      499
 91
      501
 93
      436
310
42CC9915DA5C99599C985B595049028333333333333E33F0000000000000F90107901411070040501600405405064090741402480A0340
1001
ACAD
1000
AcDbSavedByObjectVersion
1070
     0
  0
ACAD_PROXY_OBJECT
  5
32
102
{ACAD_REACTORS
330
2A
102
}
330
2A
100
AcDbProxyObject
 90
      499
 91
      501
 93
      388
310
4150985CDA58D07406404333333333333E33F0000000000000F90107A41107004050150841D405064090741402480A0350
1001
ACAD
1000
AcDbSavedByObjectVersion
1070
     0
  0
ACAD_PROXY_OBJECT
  5
36
102
{ACAD_REACTORS
330
2A
102
}
330
2A
100
AcDbProxyObject
 90
      499
 91
      501
 93
      428
310
42109C9A59DA1D195B90C409028333333333333E33F0000000000000F9010790141107004050150841D405064090741402480A029950
1001
ACAD
1000
AcDbSavedByObjectVersion
1070
     0
  0
ACAD_PROXY_OBJECT
  5
3A
102
{ACAD_REACTORS
330
2A
102
}
330
2A
100
AcDbProxyObject
 90
      499
 91
      501
 93
      452
310
42D0DBDB1BDC90DA185B99D95104090240C333333333333E33F0000000000000F90108901411070040501508421405064090741402480A0350
1001
ACAD
1000
AcDbSavedByObjectVersion
1070
     0
  0
ACAD_PROXY_OBJECT
  5
34
102
{ACAD_REACTORS
330
2A
102
}
330
2A
100
AcDbProxyObject
 90
      499
 91
      501
 93
      500
310
4290DBDB98D95C1D1D585B10940D028333333333333E33F0000000000000F90107902409070040501000000000018199010841D405064090740C02480A0340
1001
ACAD
1000
AcDbSavedByObjectVersion
1070
     0
  0
ACAD_PROXY_OBJECT
  5
35
102
{ACAD_REACTORS
330
2A
102
}
330
2A
100
AcDbProxyObject
 90
      499
 91
      501
 93
      412
310
40D11A5B50B409028333333333333E33F0000000000000F9010790141107004050150841D405064090741402480A02677FFFFFD0
1001
ACAD
1000
AcDbSavedByObjectVersion
1070
     0
  0
ACAD_PROXY_OBJECT
  5
3D
102
{ACAD_REACTORS
330
2A
102
}
330
2A
100
AcDbProxyObject
 90
      499
 91
      501
 93
      452
310
43115919D950DBDB1BDC93D999916409028333333333333E33F0000000000000F9010790141107004050150841D405064090741402480A0350
1001
ACAD
1000
AcDbSavedByObjectVersion
1070
     0
  0
ACAD_PROXY_OBJECT
  5
39
102
{ACAD_REACTORS
330
2A
102
}
330
2A
100
AcDbProxyObject
 90
      499
 91
      501
 93
      444
310
42D19858D95C185D1D195C9B90F409028333333333333E33F0000000000000F9010790141107004050150841D405064090741402480A0350
1001
ACAD
1000
AcDbSavedByObjectVersion
1070
     0
  0
ACAD_PROXY_OBJECT
  5
2B
102
{ACAD_REACTORS
330
2A
102
}
330
2A
100
AcDbProxyObject
 90
      499
 91
      501
 93
      380
310
41119B185D240901404333333333333E33F0000000000000F9010740A907004050150841D405064090741402480A1B50
1001
ACAD
1000
AcDbSavedByObjectVersion
1070
     0
  0
ACAD_PROXY_OBJECT
  5
2C
102
{ACAD_REACTORS
330
2A
102
}
330
2A
100
AcDbProxyObject
 90
      499
 91
      501
 93
      468
310
43519B185D15DA5D1A115919D95CD0140901404333333333333E33F0000000000000F90107409019070040501600405405064090741402480A1B50
1001
ACAD
1000
AcDbSavedByObjectVersion
1070
     0
  0
ACAD_PROXY_OBJECT
  5
2D
102
{ACAD_REACTORS
330
2A
102
}
330
2A
100
AcDbProxyObject
 90
      499
 91
      501
 93
      404
310
41D1DBDD5C985D5910240902404333333333333E33F0000000000000F9010740A9070040501641D405064090741402480A1B50
1001
ACAD
1000
AcDbSavedByObjectVersion
1070
     0
  0
ACAD_PROXY_OBJECT
  5
2E
102
{ACAD_REACTORS
330
2A
102
}
330
2A
100
AcDbProxyObject
 90
      499
 91
      501
 93
      492
310
4411DBDD5C985D5915DA5D1A115919D95CD0340902404333333333333E33F0000000000000F90107409019070040501600405405064090741402480A1B50
1001
ACAD
1000
AcDbSavedByObjectVersion
1070
     0
  0
ACAD_PROXY_OBJECT
  5
31
102
{ACAD_REACTORS
330
2A
102
}
330
2A
100
AcDbProxyObject
 90
      499
 91
      501
 93
      476
310
41921A5919195B90640502408333333333333E33F0000000000000F901079024090700405020000000000001110200405405064090740C02480A0340
1001
ACAD
1000
AcDbSavedByObjectVersion
1070
     0
  0
ACAD_PROXY_OBJECT
  5
3B
102
{ACAD_REACTORS
330
2A
102
}
330
2A
100
AcDbProxyObject
 90
      499
 91
      501
 93
      428
310
42529A5D1D195C93D999914409028333333333333E33F0000000000000F9010790141107004050150A41D405064090741402480A0350
1001
ACAD
1000
AcDbSavedByObjectVersion
1070
     0
  0
ACAD_PROXY_OBJECT
  5
38
102
{ACAD_REACTORS
330
2A
102
}
330
2A
100
AcDbProxyObject
 90
      499
 91
      501
 93
      444
310
42D31A5B995C185D1D195C9B90E409028333333333333E33F0000000000000F9010790141107004050750841D405064090741402483A0350
1001
ACAD
1000
AcDbSavedByObjectVersion
1070
     0
  0
ACAD_PROXY_OBJECT
  5
3C
102
{ACAD_REACTORS
330
2A
102
}
330
2A
100
AcDbProxyObject
 90
      499
 91
      501
 93
      444
310
42D3DD995C9A185B99D3D999915409028333333333333E33F0000000000000F9010790141107004050150941D405064090741402480A0350
1001
ACAD
1000
AcDbSavedByObjectVersion
1070
     0
  0
ACAD_PROXY_OBJECT
  5
33
102
{ACAD_REACTORS
330
2A
102
}
330
2A
100
AcDbProxyObject
 90
      499
 91
      501
 93
      428
310
425499585B1A5CDD1A58D08409038333333333333E33F0000000000000F9010740A907004050150800405405064090740C02480A1B40
1001
ACAD
1000
AcDbSavedByObjectVersion
1070
     0
  0
ACAD_PROXY_OBJECT
  5
42
102
{ACAD_REACTORS
330
2A
102
}
330
2A
100
AcDbProxyObject
 90
      499
 91
      501
 93
      420
310
4194DA1859195911B40902404333333333333E33F0000000000000F9010740A41107004050150800405405064090840C02480A0B40
1001
ACAD
1000
AcDbSavedByObjectVersion
1070
     0
  0
ACAD_PROXY_OBJECT
  5
41
102
{ACAD_REACTORS
330
2A
102
}
330
2A
100
AcDbProxyObject
 90
      499
 91
      501
 93
      516
310
4454DA18591959081DDA5D1A08195919D95CD1A40902404333333333333E33F0000000000000F901074090142907004050250800405405064090740C02480A0B40
1001
ACAD
1000
AcDbSavedByObjectVersion
1070
     0
  0
ACAD_PROXY_OBJECT
  5
3E
102
{ACAD_REACTORS
330
2A
102
}
330
2A
100
AcDbProxyObject
 90
      499
 91
      501
 93
      532
310
4394DA1859195CC81BD98811DC985E5174090240C333333333333E33F0000000000000F901079024090741D01000000000000111010841D405064090740C02480A0340
1001
ACAD
1000
AcDbSavedByObjectVersion
1070
     0
  0
ACAD_PROXY_OBJECT
  5
3F
102
{ACAD_REACTORS
330
2A
102
}
330
2A
100
AcDbProxyObject
 90
      499
 91
      501
 93
      476
310
41D4DAD95D18DA1E51840502408333333333333E33F0000000000000F901079024090741D01000000000000111010B41D405064090741802480A0340
1001
ACAD
1000
AcDbSavedByObjectVersion
1070
     0
  0
ACAD_PROXY_OBJECT
  5
37
102
{ACAD_REACTORS
330
2A
102
}
330
2A
100
AcDbProxyObject
 90
      499
 91
      501
 93
      412
310
41D51A1A58DAD95B90D409028333333333333E33F0000000000000F9010790141107004050150C41D405064090741402480A0350
1001
ACAD
1000
AcDbSavedByObjectVersion
1070
     0
  0
ACAD_PROXY_OBJECT
  5
30
102
{ACAD_REACTORS
330
2A
102
}
330
2A
100
AcDbProxyObject
 90
      499
 91
      501
 93
      420
310
4255DA5C99599C985B595059028333333333333E33F0000000000000F90107901411070040501600405405064090740C02480A0340
1001
ACAD
1000
AcDbSavedByObjectVersion
1070
     0
  0
ACAD_PROXY_OBJECT
  5
40
102
{ACAD_REACTORS
330
2A
102
}
330
2A
100
AcDbProxyObject
 90
      499
 91
      501
 93
      404
310
41560B54985E51940902404000000000000E03F0000000000000F9010740501907004050150841D405064090740C02480A1B40
1001
ACAD
1000
AcDbSavedByObjectVersion
1070
     0
  0
XRECORD
  5
20C
102
{ACAD_REACTORS
330
202
102
}
330
202
100
AcDbXrecord
340
0
  0
XRECORD
  5
20B
102
{ACAD_REACTORS
330
202
102
}
330
202
100
AcDbXrecord
 90
        0
  0
XRECORD
  5
222
102
{ACAD_REACTORS
330
202
102
}
330
202
100
AcDbXrecord
1000
DSTYLE
1002
{
1070
   340
340
11
1002
}
  0
XRECORD
  5
20D
102
{ACAD_REACTORS
330
202
102
}
330
202
100
AcDbXrecord
  1
{5A577ABC-C305-454C-802D-73876608D759}
  0
XRECORD
  5
205
102
{ACAD_REACTORS
330
202
102
}
330
202
100
AcDbXrecord
  1

  0
XRECORD
  5
20A
102
{ACAD_REACTORS
330
202
102
}
330
202
100
AcDbXrecord
 90
        4
  0
XRECORD
  5
207
102
{ACAD_REACTORS
330
202
102
}
330
202
100
AcDbXrecord
340
1A
  0
XRECORD
  5
209
102
{ACAD_REACTORS
330
202
102
}
330
202
100
AcDbXrecord
 90
    10781
  0
XRECORD
  5
208
102
{ACAD_REACTORS
330
202
102
}
330
202
100
AcDbXrecord
340
19
  0
XRECORD
  5
20F
102
{ACAD_REACTORS
330
202
102
}
330
202
100
AcDbXrecord
 40
0.0
  0
XRECORD
  5
212
102
{ACAD_REACTORS
330
202
102
}
330
202
100
AcDbXrecord
340
0
  0
XRECORD
  5
218
102
{ACAD_REACTORS
330
202
102
}
330
202
100
AcDbXrecord
 10
0.0
 20
0.0
 30
0.0
  0
XRECORD
  5
214
102
{ACAD_REACTORS
330
202
102
}
330
202
100
AcDbXrecord
 10
0.0
 20
0.0
 30
0.0
  0
XRECORD
  5
217
102
{ACAD_REACTORS
330
202
102
}
330
202
100
AcDbXrecord
 10
0.0
 20
0.0
 30
0.0
  0
XRECORD
  5
215
102
{ACAD_REACTORS
330
202
102
}
330
202
100
AcDbXrecord
 10
0.0
 20
0.0
 30
0.0
  0
XRECORD
  5
216
102
{ACAD_REACTORS
330
202
102
}
330
202
100
AcDbXrecord
 10
0.0
 20
0.0
 30
0.0
  0
XRECORD
  5
213
102
{ACAD_REACTORS
330
202
102
}
330
202
100
AcDbXrecord
 10
0.0
 20
0.0
 30
0.0
  0
XRECORD
  5
210
102
{ACAD_REACTORS
330
202
102
}
330
202
100
AcDbXrecord
340
0
  0
XRECORD
  5
211
102
{ACAD_REACTORS
330
202
102
}
330
202
100
AcDbXrecord
 70
     0
  0
XRECORD
  5
206
102
{ACAD_REACTORS
330
202
102
}
330
202
100
AcDbXrecord
  1

  0
XRECORD
  5
203
102
{ACAD_REACTORS
330
202
102
}
330
202
100
AcDbXrecord
 90
        1
  0
XRECORD
  5
204
102
{ACAD_REACTORS
330
202
102
}
330
202
100
AcDbXrecord
 90
       70
  0
XRECORD
  5
21B
102
{ACAD_REACTORS
330
202
102
}
330
202
100
AcDbXrecord
340
0
  0
XRECORD
  5
221
102
{ACAD_REACTORS
330
202
102
}
330
202
100
AcDbXrecord
 10
0.0
 20
0.0
 30
0.0
  0
XRECORD
  5
21D
102
{ACAD_REACTORS
330
202
102
}
330
202
100
AcDbXrecord
 10
0.0
 20
0.0
 30
0.0
  0
XRECORD
  5
220
102
{ACAD_REACTORS
330
202
102
}
330
202
100
AcDbXrecord
 10
0.0
 20
0.0
 30
0.0
  0
XRECORD
  5
21E
102
{ACAD_REACTORS
330
202
102
}
330
202
100
AcDbXrecord
 10
0.0
 20
0.0
 30
0.0
  0
XRECORD
  5
21F
102
{ACAD_REACTORS
330
202
102
}
330
202
100
AcDbXrecord
 10
0.0
 20
0.0
 30
0.0
  0
XRECORD
  5
21C
102
{ACAD_REACTORS
330
202
102
}
330
202
100
AcDbXrecord
 10
0.0
 20
0.0
 30
0.0
  0
XRECORD
  5
219
102
{ACAD_REACTORS
330
202
102
}
330
202
100
AcDbXrecord
340
0
  0
XRECORD
  5
21A
102
{ACAD_REACTORS
330
202
102
}
330
202
100
AcDbXrecord
 70
     0
  0
XRECORD
  5
20E
102
{ACAD_REACTORS
330
202
102
}
330
202
100
AcDbXrecord
  1
{FAEB1C32-E019-11D5-929B-00C0DF256EC4}
  0
DICTIONARYVAR
  5
22E
102
{ACAD_REACTORS
330
223
102
}
330
223
100
DictionaryVariables
280
     0
  1
1:1
  0
DICTIONARYVAR
  5
22A
102
{ACAD_REACTORS
330
223
102
}
330
223
100
DictionaryVariables
280
     0
  1
2
  0
DICTIONARYVAR
  5
22B
102
{ACAD_REACTORS
330
223
102
}
330
223
100
DictionaryVariables
280
     0
  1
1
  0
DICTIONARYVAR
  5
22F
102
{ACAD_REACTORS
330
223
102
}
330
223
100
DictionaryVariables
280
     0
  1
1
  0
DICTIONARYVAR
  5
227
102
{ACAD_REACTORS
330
223
102
}
330
223
100
DictionaryVariables
280
     0
  1
80.000000
  0
DICTIONARYVAR
  5
226
102
{ACAD_REACTORS
330
223
102
}
330
223
100
DictionaryVariables
280
     0
  1
5.000000
  0
DICTIONARY
  5
232
330
45
100
AcDbDictionary
280
     1
  3
ACAD_XREC_ROUNDTRIP
360
233
  0
DICTIONARY
  5
230
330
44
100
AcDbDictionary
280
     1
  3
ACAD_XREC_ROUNDTRIP
360
231
  0
DICTIONARY
  5
234
330
46
100
AcDbDictionary
280
     1
  3
ACAD_XREC_ROUNDTRIP
360
235
  0
XRECORD
  5
233
102
{ACAD_REACTORS
330
232
102
}
330
232
100
AcDbXrecord
102
MATERIAL
148
0.0
149
0.0
149
0.0
 93
        0
 94
      127
282
     0
 72
     1
 77
     1
171
     1
175
     1
179
     1
273
     0
  0
XRECORD
  5
231
102
{ACAD_REACTORS
330
230
102
}
330
230
100
AcDbXrecord
102
MATERIAL
148
0.0
149
0.0
149
0.0
 93
        0
 94
      127
282
     0
 72
     1
 77
     1
171
     1
175
     1
179
     1
273
     0
  0
XRECORD
  5
235
102
{ACAD_REACTORS
330
234
102
}
330
234
100
AcDbXrecord
102
MATERIAL
148
0.0
149
0.0
149
0.0
 93
        0
 94
      127
282
     0
 72
     1
 77
     1
171
     1
175
     1
179
     1
273
     0
  0
ENDSEC
  0
EOF
