  0
SECTION
  2
HEADER
  9
$ACADVER
  1
AC1014
  9
$ACADMAINTVER
 70
     9
  9
$DWGCODEPAGE
  3
ANSI_1252
  9
$INSBASE
 10
0.0
 20
0.0
 30
0.0
  9
$EXTMIN
 10
1.000000000000000E+20
 20
1.000000000000000E+20
 30
1.000000000000000E+20
  9
$EXTMAX
 10
-1.000000000000000E+20
 20
-1.000000000000000E+20
 30
-1.000000000000000E+20
  9
$LIMMIN
 10
41.10546515999999
 20
55.3084873
  9
$LIMMAX
 10
851.7914231599999
 20
583.7949639799999
  9
$ORTHOMODE
 70
     0
  9
$REGENMODE
 70
     1
  9
$FILLMODE
 70
     1
  9
$QTEXTMODE
 70
     0
  9
$MIRRTEXT
 70
     1
  9
$DRAGMODE
 70
     2
  9
$LTSCALE
 40
1.0
  9
$OSMODE
 70
    37
  9
$ATTMODE
 70
     1
  9
$TEXTSIZE
 40
2.5
  9
$TRACEWID
 40
1.0
  9
$TEXTSTYLE
  7
STANDARD
  9
$CLAYER
  8
0
  9
$CELTYPE
  6
BYLAYER
  9
$CECOLOR
 62
   256
  9
$CELTSCALE
 40
1.0
  9
$DELOBJ
 70
     1
  9
$DISPSILH
 70
     0
  9
$DIMSCALE
 40
1.0
  9
$DIMASZ
 40
2.5
  9
$DIMEXO
 40
0.625
  9
$DIMDLI
 40
3.75
  9
$DIMRND
 40
0.0
  9
$DIMDLE
 40
0.0
  9
$DIMEXE
 40
1.25
  9
$DIMTP
 40
0.0
  9
$DIMTM
 40
0.0
  9
$DIMTXT
 40
2.5
  9
$DIMCEN
 40
2.5
  9
$DIMTSZ
 40
0.0
  9
$DIMTOL
 70
     0
  9
$DIMLIM
 70
     0
  9
$DIMTIH
 70
     0
  9
$DIMTOH
 70
     0
  9
$DIMSE1
 70
     0
  9
$DIMSE2
 70
     0
  9
$DIMTAD
 70
     1
  9
$DIMZIN
 70
     8
  9
$DIMBLK
  1

  9
$DIMASO
 70
     1
  9
$DIMSHO
 70
     1
  9
$DIMPOST
  1

  9
$DIMAPOST
  1

  9
$DIMALT
 70
     0
  9
$DIMALTD
 70
     3
  9
$DIMALTF
 40
0.03937007874016
  9
$DIMLFAC
 40
1.0
  9
$DIMTOFL
 70
     1
  9
$DIMTVP
 40
0.0
  9
$DIMTIX
 70
     0
  9
$DIMSOXD
 70
     0
  9
$DIMSAH
 70
     0
  9
$DIMBLK1
  1

  9
$DIMBLK2
  1

  9
$DIMSTYLE
  2
ISO-25
  9
$DIMCLRD
 70
     0
  9
$DIMCLRE
 70
     0
  9
$DIMCLRT
 70
     0
  9
$DIMTFAC
 40
1.0
  9
$DIMGAP
 40
0.625
  9
$DIMJUST
 70
     0
  9
$DIMSD1
 70
     0
  9
$DIMSD2
 70
     0
  9
$DIMTOLJ
 70
     0
  9
$DIMTZIN
 70
     8
  9
$DIMALTZ
 70
     0
  9
$DIMALTTZ
 70
     0
  9
$DIMFIT
 70
     3
  9
$DIMUPT
 70
     0
  9
$DIMUNIT
 70
     2
  9
$DIMDEC
 70
     2
  9
$DIMTDEC
 70
     2
  9
$DIMALTU
 70
     2
  9
$DIMALTTD
 70
     3
  9
$DIMTXSTY
  7
STANDARD
  9
$DIMAUNIT
 70
     0
  9
$LUNITS
 70
     2
  9
$LUPREC
 70
     4
  9
$SKETCHINC
 40
1.0
  9
$FILLETRAD
 40
10.0
  9
$AUNITS
 70
     0
  9
$AUPREC
 70
     0
  9
$MENU
  1
.
  9
$ELEVATION
 40
0.0
  9
$PELEVATION
 40
0.0
  9
$THICKNESS
 40
0.0
  9
$LIMCHECK
 70
     0
  9
$CHAMFERA
 40
0.0
  9
$CHAMFERB
 40
0.0
  9
$CHAMFERC
 40
0.0
  9
$CHAMFERD
 40
0.0
  9
$SKPOLY
 70
     0
  9
$TDCREATE
 40
2457639.902712546
  9
$TDUPDATE
 40
2457639.902713206
  9
$TDINDWG
 40
0.0000000116
  9
$TDUSRTIMER
 40
0.0000000116
  9
$USRTIMER
 70
     1
  9
$ANGBASE
 50
0.0
  9
$ANGDIR
 70
     0
  9
$PDMODE
 70
     0
  9
$PDSIZE
 40
0.0
  9
$PLINEWID
 40
0.0
  9
$COORDS
 70
     1
  9
$SPLFRAME
 70
     0
  9
$SPLINETYPE
 70
     6
  9
$SPLINESEGS
 70
     8
  9
$ATTDIA
 70
     0
  9
$ATTREQ
 70
     1
  9
$HANDLING
 70
     1
  9
$HANDSEED
  5
232
  9
$SURFTAB1
 70
     6
  9
$SURFTAB2
 70
     6
  9
$SURFTYPE
 70
     6
  9
$SURFU
 70
     6
  9
$SURFV
 70
     6
  9
$UCSNAME
  2

  9
$UCSORG
 10
0.0
 20
0.0
 30
0.0
  9
$UCSXDIR
 10
1.0
 20
0.0
 30
0.0
  9
$UCSYDIR
 10
0.0
 20
1.0
 30
0.0
  9
$PUCSNAME
  2

  9
$PUCSORG
 10
0.0
 20
0.0
 30
0.0
  9
$PUCSXDIR
 10
1.0
 20
0.0
 30
0.0
  9
$PUCSYDIR
 10
0.0
 20
1.0
 30
0.0
  9
$USERI1
 70
     0
  9
$USERI2
 70
     0
  9
$USERI3
 70
     0
  9
$USERI4
 70
     0
  9
$USERI5
 70
     0
  9
$USERR1
 40
0.0
  9
$USERR2
 40
0.0
  9
$USERR3
 40
0.0
  9
$USERR4
 40
0.0
  9
$USERR5
 40
0.0
  9
$WORLDVIEW
 70
     1
  9
$SHADEDGE
 70
     3
  9
$SHADEDIF
 70
    70
  9
$TILEMODE
 70
     1
  9
$MAXACTVP
 70
    64
  9
$PINSBASE
 10
0.0
 20
0.0
 30
0.0
  9
$PLIMCHECK
 70
     0
  9
$PEXTMIN
 10
1.000000000000000E+20
 20
1.000000000000000E+20
 30
1.000000000000000E+20
  9
$PEXTMAX
 10
-1.000000000000000E+20
 20
-1.000000000000000E+20
 30
-1.000000000000000E+20
  9
$PLIMMIN
 10
0.0
 20
0.0
  9
$PLIMMAX
 10
420.0
 20
297.0
  9
$UNITMODE
 70
     0
  9
$VISRETAIN
 70
     1
  9
$PLINEGEN
 70
     0
  9
$PSLTSCALE
 70
     1
  9
$TREEDEPTH
 70
  3020
  9
$PICKSTYLE
 70
     1
  9
$CMLSTYLE
  2
STANDARD
  9
$CMLJUST
 70
     0
  9
$CMLSCALE
 40
20.0
  9
$PROXYGRAPHICS
 70
     1
  9
$MEASUREMENT
 70
     1
  0
ENDSEC
  0
SECTION
  2
CLASSES
  0
CLASS
  1
ACDBDICTIONARYWDFLT
  2
AcDbDictionaryWithDefault
  3
ObjectDBX Classes
 90
        0
280
     0
281
     0
  0
CLASS
  1
VISUALSTYLE
  2
AcDbVisualStyle
  3
ObjectDBX Classes
 90
     4095
280
     0
281
     0
  0
CLASS
  1
MATERIAL
  2
AcDbMaterial
  3
ObjectDBX Classes
 90
     1153
280
     0
281
     0
  0
CLASS
  1
SCALE
  2
AcDbScale
  3
ObjectDBX Classes
 90
     1153
280
     0
281
     0
  0
CLASS
  1
SUN
  2
AcDbSun
  3
SCENEOE
 90
     1153
280
     0
281
     0
  0
CLASS
  1
DICTIONARYVAR
  2
AcDbDictionaryVar
  3
ObjectDBX Classes
 90
        0
280
     0
281
     0
  0
CLASS
  1
XRECORD
  2
AcDbXrecord
  3
ObjectDBX Classes
 90
        0
280
     0
281
     0
  0
CLASS
  1
LWPOLYLINE
  2
AcDbPolyline
  3
ObjectDBX Classes
 90
        0
280
     0
281
     1
  0
CLASS
  1
HATCH
  2
AcDbHatch
  3
ObjectDBX Classes
 90
        0
280
     0
281
     1
  0
CLASS
  1
ACDBPLACEHOLDER
  2
AcDbPlaceHolder
  3
ObjectDBX Classes
 90
        0
280
     0
281
     0
  0
CLASS
  1
LAYOUT
  2
AcDbLayout
  3
ObjectDBX Classes
 90
        0
280
     0
281
     0
  0
ENDSEC
  0
SECTION
  2
TABLES
  0
TABLE
  2
VPORT
  5
8
102
{ACAD_XDICTIONARY
360
228
102
}
330
0
100
AcDbSymbolTable
 70
     1
  0
VPORT
  5
29
330
8
100
AcDbSymbolTableRecord
100
AcDbViewportTableRecord
  2
*ACTIVE
 70
     0
 10
0.0
 20
0.0
 11
1.0
 21
1.0
 12
344.1869158878504
 22
148.5
 13
0.0
 23
0.0
 14
10.0
 24
10.0
 15
10.0
 25
10.0
 16
0.0
 26
0.0
 36
1.0
 17
0.0
 27
0.0
 37
0.0
 40
297.0
 41
1.972972972850329
 42
50.0
 43
0.0
 44
0.0
 50
0.0
 51
0.0
 71
     0
 72
   100
 73
     1
 74
     3
 75
     0
 76
     0
 77
     0
 78
     0
  0
ENDTAB
  0
TABLE
  2
LTYPE
  5
5
330
0
100
AcDbSymbolTable
 70
     1
  0
LTYPE
  5
14
330
5
100
AcDbSymbolTableRecord
100
AcDbLinetypeTableRecord
  2
BYBLOCK
 70
     0
  3

 72
    65
 73
     0
 40
0.0
  0
LTYPE
  5
15
330
5
100
AcDbSymbolTableRecord
100
AcDbLinetypeTableRecord
  2
BYLAYER
 70
     0
  3

 72
    65
 73
     0
 40
0.0
  0
LTYPE
  5
16
330
5
100
AcDbSymbolTableRecord
100
AcDbLinetypeTableRecord
  2
CONTINUOUS
 70
     0
  3
Solid line
 72
    65
 73
     0
 40
0.0
  0
ENDTAB
  0
TABLE
  2
LAYER
  5
2
330
0
100
AcDbSymbolTable
 70
     5
  0
LAYER
  5
10
330
2
100
AcDbSymbolTableRecord
100
AcDbLayerTableRecord
  2
0
 70
     0
 62
     7
  6
CONTINUOUS
  0
LAYER
  5
6A
330
2
100
AcDbSymbolTableRecord
100
AcDbLayerTableRecord
  2
MECHANICAL1
 70
     0
 62
     6
  6
CONTINUOUS
  0
LAYER
  5
6B
330
2
100
AcDbSymbolTableRecord
100
AcDbLayerTableRecord
  2
TOPOVERLAY
 70
     0
 62
     2
  6
CONTINUOUS
  0
LAYER
  5
6C
330
2
100
AcDbSymbolTableRecord
100
AcDbLayerTableRecord
  2
TOPPASTE
 70
     0
 62
     8
  6
CONTINUOUS
  0
LAYER
  5
6D
330
2
100
AcDbSymbolTableRecord
100
AcDbLayerTableRecord
  2
PADHOLELAYER
 70
     0
 62
   156
  6
CONTINUOUS
  0
ENDTAB
  0
TABLE
  2
STYLE
  5
3
330
0
100
AcDbSymbolTable
 70
     1
  0
STYLE
  5
11
330
3
100
AcDbSymbolTableRecord
100
AcDbTextStyleTableRecord
  2
STANDARD
 70
     0
 40
0.0
 41
1.0
 50
0.0
 71
     0
 42
2.5
  3
txt
  4

  0
ENDTAB
  0
TABLE
  2
VIEW
  5
6
330
0
100
AcDbSymbolTable
 70
     0
  0
ENDTAB
  0
TABLE
  2
UCS
  5
7
330
0
100
AcDbSymbolTable
 70
     0
  0
ENDTAB
  0
TABLE
  2
APPID
  5
9
330
0
100
AcDbSymbolTable
 70
     1
  0
APPID
  5
12
330
9
100
AcDbSymbolTableRecord
100
AcDbRegAppTableRecord
  2
ACAD
 70
     0
  0
ENDTAB
  0
TABLE
  2
DIMSTYLE
  5
A
330
0
100
AcDbSymbolTable
 70
     1
  0
DIMSTYLE
105
27
330
A
100
AcDbSymbolTableRecord
100
AcDbDimStyleTableRecord
  2
ISO-25
 70
     0
  3

  4

  5

  6

  7

 40
1.0
 41
2.5
 42
0.625
 43
3.75
 44
1.25
 45
0.0
 46
0.0
 47
0.0
 48
0.0
140
2.5
141
2.5
142
0.0
143
0.03937007874016
144
1.0
145
0.0
146
1.0
147
0.625
 71
     0
 72
     0
 73
     0
 74
     0
 75
     0
 76
     0
 77
     1
 78
     8
170
     0
171
     3
172
     1
173
     0
174
     0
175
     0
176
     0
177
     0
178
     0
270
     2
271
     2
272
     2
273
     2
274
     3
340
11
275
     0
280
     0
281
     0
282
     0
283
     0
284
     8
285
     0
286
     0
287
     3
288
     0
  0
ENDTAB
  0
TABLE
  2
BLOCK_RECORD
  5
1
330
0
100
AcDbSymbolTable
 70
     1
  0
BLOCK_RECORD
  5
1F
330
1
100
AcDbSymbolTableRecord
100
AcDbBlockTableRecord
  2
*MODEL_SPACE
  0
BLOCK_RECORD
  5
1B
330
1
100
AcDbSymbolTableRecord
100
AcDbBlockTableRecord
  2
*PAPER_SPACE
  0
ENDTAB
  0
ENDSEC
  0
SECTION
  2
BLOCKS
  0
BLOCK
  5
20
330
1F
100
AcDbEntity
  8
0
100
AcDbBlockBegin
  2
*MODEL_SPACE
 70
     0
 10
0.0
 20
0.0
 30
0.0
  3
*MODEL_SPACE
  1

  0
ENDBLK
  5
21
330
1F
100
AcDbEntity
  8
0
100
AcDbBlockEnd
  0
BLOCK
  5
1C
330
1B
100
AcDbEntity
 67
     1
  8
0
100
AcDbBlockBegin
  2
*PAPER_SPACE
 70
     0
 10
0.0
 20
0.0
 30
0.0
  3
*PAPER_SPACE
  1

  0
ENDBLK
  5
1D
330
1B
100
AcDbEntity
 67
     1
  8
0
100
AcDbBlockEnd
  0
ENDSEC
  0
SECTION
  2
ENTITIES
  0
LWPOLYLINE
  5
6E
330
1F
100
AcDbEntity
  8
MECHANICAL1
100
AcDbPolyline
 90
        2
 70
     0
 43
0.254
 10
354.78968412
 20
203.2079502
 10
354.78968412
 20
305.0619502
  0
LWPOLYLINE
  5
6F
330
1F
100
AcDbEntity
  8
MECHANICAL1
100
AcDbPolyline
 90
        2
 70
     1
 43
0.127
 10
354.72618412
 20
203.2079502
 42
1.0
 10
354.85318412
 20
203.2079502
 42
1.0
  0
LWPOLYLINE
  5
70
330
1F
100
AcDbEntity
  8
MECHANICAL1
100
AcDbPolyline
 90
        2
 70
     1
 43
0.127
 10
354.72618412
 20
305.0619502
 42
1.0
 10
354.85318412
 20
305.0619502
 42
1.0
  0
LWPOLYLINE
  5
71
330
1F
100
AcDbEntity
  8
MECHANICAL1
100
AcDbPolyline
 90
        2
 70
     0
 43
0.254
 10
354.78968412
 20
305.0619502
 10
529.00828412
 20
305.0619502
  0
LWPOLYLINE
  5
72
330
1F
100
AcDbEntity
  8
MECHANICAL1
100
AcDbPolyline
 90
        2
 70
     1
 43
0.127
 10
354.72618412
 20
305.0619502
 42
1.0
 10
354.85318412
 20
305.0619502
 42
1.0
  0
LWPOLYLINE
  5
73
330
1F
100
AcDbEntity
  8
MECHANICAL1
100
AcDbPolyline
 90
        2
 70
     1
 43
0.127
 10
528.94478412
 20
305.0619502
 42
1.0
 10
529.07178412
 20
305.0619502
 42
1.0
  0
LWPOLYLINE
  5
74
330
1F
100
AcDbEntity
  8
MECHANICAL1
100
AcDbPolyline
 90
        2
 70
     0
 43
0.254
 10
529.00828412
 20
203.2079502
 10
529.00828412
 20
305.0619502
  0
LWPOLYLINE
  5
75
330
1F
100
AcDbEntity
  8
MECHANICAL1
100
AcDbPolyline
 90
        2
 70
     1
 43
0.127
 10
528.94478412
 20
203.2079502
 42
1.0
 10
529.07178412
 20
203.2079502
 42
1.0
  0
LWPOLYLINE
  5
76
330
1F
100
AcDbEntity
  8
MECHANICAL1
100
AcDbPolyline
 90
        2
 70
     1
 43
0.127
 10
528.94478412
 20
305.0619502
 42
1.0
 10
529.07178412
 20
305.0619502
 42
1.0
  0
LWPOLYLINE
  5
77
330
1F
100
AcDbEntity
  8
MECHANICAL1
100
AcDbPolyline
 90
        2
 70
     0
 43
0.254
 10
354.78968412
 20
203.2079502
 10
529.00828412
 20
203.2079502
  0
LWPOLYLINE
  5
78
330
1F
100
AcDbEntity
  8
MECHANICAL1
100
AcDbPolyline
 90
        2
 70
     1
 43
0.127
 10
354.72618412
 20
203.2079502
 42
1.0
 10
354.85318412
 20
203.2079502
 42
1.0
  0
LWPOLYLINE
  5
79
330
1F
100
AcDbEntity
  8
MECHANICAL1
100
AcDbPolyline
 90
        2
 70
     1
 43
0.127
 10
528.94478412
 20
203.2079502
 42
1.0
 10
529.07178412
 20
203.2079502
 42
1.0
  0
LWPOLYLINE
  5
7A
330
1F
100
AcDbEntity
  8
TOPOVERLAY
100
AcDbPolyline
 90
        2
 70
     0
 43
0.254
 10
441.89918478
 20
203.2079502
 10
441.89918478
 20
305.0619502
  0
LWPOLYLINE
  5
7B
330
1F
100
AcDbEntity
  8
TOPOVERLAY
100
AcDbPolyline
 90
        2
 70
     1
 43
0.127
 10
441.83568478
 20
203.2079502
 42
1.0
 10
441.96268478
 20
203.2079502
 42
1.0
  0
LWPOLYLINE
  5
7C
330
1F
100
AcDbEntity
  8
TOPOVERLAY
100
AcDbPolyline
 90
        2
 70
     1
 43
0.127
 10
441.83568478
 20
305.0619502
 42
1.0
 10
441.96268478
 20
305.0619502
 42
1.0
  0
LWPOLYLINE
  5
7D
330
1F
100
AcDbEntity
  8
TOPOVERLAY
100
AcDbPolyline
 90
        2
 70
     0
 43
2.00000108
 10
422.89968506
 20
301.97795078
 10
427.16968414
 20
301.97795078
  0
LWPOLYLINE
  5
7E
330
1F
100
AcDbEntity
  8
TOPOVERLAY
100
AcDbPolyline
 90
        2
 70
     1
 43
1.00000054
 10
422.39968606
 20
301.97795078
 42
1.0
 10
423.39968406
 20
301.97795078
 42
1.0
  0
LWPOLYLINE
  5
7F
330
1F
100
AcDbEntity
  8
TOPOVERLAY
100
AcDbPolyline
 90
        2
 70
     1
 43
1.00000054
 10
426.66968514
 20
301.97795078
 42
1.0
 10
427.66968314
 20
301.97795078
 42
1.0
  0
LWPOLYLINE
  5
80
330
1F
100
AcDbEntity
  8
TOPOVERLAY
100
AcDbPolyline
 90
        2
 70
     0
 43
2.00000108
 10
457.68968406
 20
206.43795136
 10
461.95968314
 20
206.43795136
  0
LWPOLYLINE
  5
81
330
1F
100
AcDbEntity
  8
TOPOVERLAY
100
AcDbPolyline
 90
        2
 70
     1
 43
1.00000054
 10
457.18968506
 20
206.43795136
 42
1.0
 10
458.18968306
 20
206.43795136
 42
1.0
  0
LWPOLYLINE
  5
82
330
1F
100
AcDbEntity
  8
TOPOVERLAY
100
AcDbPolyline
 90
        2
 70
     1
 43
1.00000054
 10
461.45968414
 20
206.43795136
 42
1.0
 10
462.45968214
 20
206.43795136
 42
1.0
  0
LWPOLYLINE
  5
83
330
1F
100
AcDbEntity
  8
PADHOLELAYER
100
AcDbPolyline
 90
        2
 70
     1
 43
1.5875
 10
357.17093412
 20
206.3829502
 42
1.0
 10
358.75843412
 20
206.3829502
 42
1.0
  0
LWPOLYLINE
  5
84
330
1F
100
AcDbEntity
  8
PADHOLELAYER
100
AcDbPolyline
 90
        2
 70
     1
 43
1.5875
 10
357.17093412
 20
301.8869502
 42
1.0
 10
358.75843412
 20
301.8869502
 42
1.0
  0
LWPOLYLINE
  5
85
330
1F
100
AcDbEntity
  8
PADHOLELAYER
100
AcDbPolyline
 90
        2
 70
     1
 43
1.5875
 10
525.03953412
 20
301.8869502
 42
1.0
 10
526.62703412
 20
301.8869502
 42
1.0
  0
LWPOLYLINE
  5
86
330
1F
100
AcDbEntity
  8
PADHOLELAYER
100
AcDbPolyline
 90
        2
 70
     1
 43
1.5875
 10
525.03953412
 20
206.3829502
 42
1.0
 10
526.62703412
 20
206.3829502
 42
1.0
  0
LWPOLYLINE
  5
87
330
1F
100
AcDbEntity
  8
TOPPASTE
100
AcDbPolyline
 90
        2
 70
     1
 43
0.8889999999999999
 10
525.38878412
 20
295.5369502
 42
1.0
 10
526.27778412
 20
295.5369502
 42
1.0
  0
LWPOLYLINE
  5
88
330
1F
100
AcDbEntity
  8
TOPPASTE
100
AcDbPolyline
 90
        2
 70
     1
 43
0.8889999999999999
 10
357.52018412
 20
295.5369502
 42
1.0
 10
358.40918412
 20
295.5369502
 42
1.0
  0
LWPOLYLINE
  5
89
330
1F
100
AcDbEntity
  8
TOPPASTE
100
AcDbPolyline
 90
        2
 70
     1
 43
0.8889999999999999
 10
357.52018412
 20
212.7329502
 42
1.0
 10
358.40918412
 20
212.7329502
 42
1.0
  0
LINE
  5
8A
330
1F
100
AcDbEntity
  8
TOPOVERLAY
100
AcDbLine
 10
444.31319062
 20
259.20794996
 30
0.0
 11
443.29751828
 21
259.20794996
 31
0.0
  0
LINE
  5
8B
330
1F
100
AcDbEntity
  8
TOPOVERLAY
100
AcDbLine
 10
443.29751828
 20
259.20794996
 30
0.0
 11
442.78968338
 21
258.70011506
 31
0.0
  0
LINE
  5
8C
330
1F
100
AcDbEntity
  8
TOPOVERLAY
100
AcDbLine
 10
442.78968338
 20
258.70011506
 30
0.0
 11
443.29751828
 21
258.19227762
 31
0.0
  0
LINE
  5
8D
330
1F
100
AcDbEntity
  8
TOPOVERLAY
100
AcDbLine
 10
443.29751828
 20
258.19227762
 30
0.0
 11
444.31319062
 21
258.19227762
 31
0.0
  0
LINE
  5
8E
330
1F
100
AcDbEntity
  8
TOPOVERLAY
100
AcDbLine
 10
443.551437
 20
257.68444272
 30
0.0
 11
443.551437
 21
256.66877038
 31
0.0
  0
LINE
  5
8F
330
1F
100
AcDbEntity
  8
TOPOVERLAY
100
AcDbLine
 10
444.0592719
 20
255.14526314
 30
0.0
 11
444.31319062
 21
255.39918186
 31
0.0
  0
LINE
  5
90
330
1F
100
AcDbEntity
  8
TOPOVERLAY
100
AcDbLine
 10
444.31319062
 20
255.39918186
 30
0.0
 11
444.31319062
 21
255.90701676
 31
0.0
  0
LINE
  5
91
330
1F
100
AcDbEntity
  8
TOPOVERLAY
100
AcDbLine
 10
444.31319062
 20
255.90701676
 30
0.0
 11
444.0592719
 21
256.16093548
 31
0.0
  0
LINE
  5
92
330
1F
100
AcDbEntity
  8
TOPOVERLAY
100
AcDbLine
 10
444.0592719
 20
256.16093548
 30
0.0
 11
443.80535572
 21
256.16093548
 31
0.0
  0
LINE
  5
93
330
1F
100
AcDbEntity
  8
TOPOVERLAY
100
AcDbLine
 10
443.80535572
 20
256.16093548
 30
0.0
 11
443.551437
 21
255.90701676
 31
0.0
  0
LINE
  5
94
330
1F
100
AcDbEntity
  8
TOPOVERLAY
100
AcDbLine
 10
443.551437
 20
255.90701676
 30
0.0
 11
443.551437
 21
255.39918186
 31
0.0
  0
LINE
  5
95
330
1F
100
AcDbEntity
  8
TOPOVERLAY
100
AcDbLine
 10
443.551437
 20
255.39918186
 30
0.0
 11
443.29751828
 21
255.14526314
 31
0.0
  0
LINE
  5
96
330
1F
100
AcDbEntity
  8
TOPOVERLAY
100
AcDbLine
 10
443.29751828
 20
255.14526314
 30
0.0
 11
443.0436021
 21
255.14526314
 31
0.0
  0
LINE
  5
97
330
1F
100
AcDbEntity
  8
TOPOVERLAY
100
AcDbLine
 10
443.0436021
 20
255.14526314
 30
0.0
 11
442.78968338
 21
255.39918186
 31
0.0
  0
LINE
  5
98
330
1F
100
AcDbEntity
  8
TOPOVERLAY
100
AcDbLine
 10
442.78968338
 20
255.39918186
 30
0.0
 11
442.78968338
 21
255.90701676
 31
0.0
  0
LINE
  5
99
330
1F
100
AcDbEntity
  8
TOPOVERLAY
100
AcDbLine
 10
442.78968338
 20
255.90701676
 30
0.0
 11
443.0436021
 21
256.16093548
 31
0.0
  0
LINE
  5
9A
330
1F
100
AcDbEntity
  8
TOPOVERLAY
100
AcDbLine
 10
444.0592719
 20
253.6217559
 30
0.0
 11
444.31319062
 21
253.87567462
 31
0.0
  0
LINE
  5
9B
330
1F
100
AcDbEntity
  8
TOPOVERLAY
100
AcDbLine
 10
444.31319062
 20
253.87567462
 30
0.0
 11
444.31319062
 21
254.38350952
 31
0.0
  0
LINE
  5
9C
330
1F
100
AcDbEntity
  8
TOPOVERLAY
100
AcDbLine
 10
444.31319062
 20
254.38350952
 30
0.0
 11
444.0592719
 21
254.63742824
 31
0.0
  0
LINE
  5
9D
330
1F
100
AcDbEntity
  8
TOPOVERLAY
100
AcDbLine
 10
444.0592719
 20
254.63742824
 30
0.0
 11
443.0436021
 21
254.63742824
 31
0.0
  0
LINE
  5
9E
330
1F
100
AcDbEntity
  8
TOPOVERLAY
100
AcDbLine
 10
443.0436021
 20
254.63742824
 30
0.0
 11
442.78968338
 21
254.38350952
 31
0.0
  0
LINE
  5
9F
330
1F
100
AcDbEntity
  8
TOPOVERLAY
100
AcDbLine
 10
442.78968338
 20
254.38350952
 30
0.0
 11
442.78968338
 21
253.87567462
 31
0.0
  0
LINE
  5
A0
330
1F
100
AcDbEntity
  8
TOPOVERLAY
100
AcDbLine
 10
442.78968338
 20
253.87567462
 30
0.0
 11
443.0436021
 21
253.6217559
 31
0.0
  0
LINE
  5
A1
330
1F
100
AcDbEntity
  8
TOPOVERLAY
100
AcDbLine
 10
444.31319062
 20
252.35216738
 30
0.0
 11
444.31319062
 21
252.86000228
 31
0.0
  0
LINE
  5
A2
330
1F
100
AcDbEntity
  8
TOPOVERLAY
100
AcDbLine
 10
444.31319062
 20
252.86000228
 30
0.0
 11
444.0592719
 21
253.113921
 31
0.0
  0
LINE
  5
A3
330
1F
100
AcDbEntity
  8
TOPOVERLAY
100
AcDbLine
 10
444.0592719
 20
253.113921
 30
0.0
 11
443.0436021
 21
253.113921
 31
0.0
  0
LINE
  5
A4
330
1F
100
AcDbEntity
  8
TOPOVERLAY
100
AcDbLine
 10
443.0436021
 20
253.113921
 30
0.0
 11
442.78968338
 21
252.86000228
 31
0.0
  0
LINE
  5
A5
330
1F
100
AcDbEntity
  8
TOPOVERLAY
100
AcDbLine
 10
442.78968338
 20
252.86000228
 30
0.0
 11
442.78968338
 21
252.35216738
 31
0.0
  0
LINE
  5
A6
330
1F
100
AcDbEntity
  8
TOPOVERLAY
100
AcDbLine
 10
442.78968338
 20
252.35216738
 30
0.0
 11
443.0436021
 21
252.09824866
 31
0.0
  0
LINE
  5
A7
330
1F
100
AcDbEntity
  8
TOPOVERLAY
100
AcDbLine
 10
443.0436021
 20
252.09824866
 30
0.0
 11
444.0592719
 21
252.09824866
 31
0.0
  0
LINE
  5
A8
330
1F
100
AcDbEntity
  8
TOPOVERLAY
100
AcDbLine
 10
444.0592719
 20
252.09824866
 30
0.0
 11
444.31319062
 21
252.35216738
 31
0.0
  0
LINE
  5
A9
330
1F
100
AcDbEntity
  8
TOPOVERLAY
100
AcDbLine
 10
442.78968338
 20
251.59041376
 30
0.0
 11
444.31319062
 21
251.59041376
 31
0.0
  0
LINE
  5
AA
330
1F
100
AcDbEntity
  8
TOPOVERLAY
100
AcDbLine
 10
444.31319062
 20
251.59041376
 30
0.0
 11
444.31319062
 21
250.82866014
 31
0.0
  0
LINE
  5
AB
330
1F
100
AcDbEntity
  8
TOPOVERLAY
100
AcDbLine
 10
444.31319062
 20
250.82866014
 30
0.0
 11
444.0592719
 21
250.57474142
 31
0.0
  0
LINE
  5
AC
330
1F
100
AcDbEntity
  8
TOPOVERLAY
100
AcDbLine
 10
444.0592719
 20
250.57474142
 30
0.0
 11
443.551437
 21
250.57474142
 31
0.0
  0
LINE
  5
AD
330
1F
100
AcDbEntity
  8
TOPOVERLAY
100
AcDbLine
 10
443.551437
 20
250.57474142
 30
0.0
 11
443.29751828
 21
250.82866014
 31
0.0
  0
LINE
  5
AE
330
1F
100
AcDbEntity
  8
TOPOVERLAY
100
AcDbLine
 10
443.29751828
 20
250.82866014
 30
0.0
 11
443.29751828
 21
251.59041376
 31
0.0
  0
LINE
  5
AF
330
1F
100
AcDbEntity
  8
TOPOVERLAY
100
AcDbLine
 10
443.29751828
 20
251.08257886
 30
0.0
 11
442.78968338
 21
250.57474142
 31
0.0
  0
LINE
  5
B0
330
1F
100
AcDbEntity
  8
TOPOVERLAY
100
AcDbLine
 10
444.31319062
 20
249.05123418
 30
0.0
 11
444.31319062
 21
250.06690652
 31
0.0
  0
LINE
  5
B1
330
1F
100
AcDbEntity
  8
TOPOVERLAY
100
AcDbLine
 10
444.31319062
 20
250.06690652
 30
0.0
 11
442.78968338
 21
250.06690652
 31
0.0
  0
LINE
  5
B2
330
1F
100
AcDbEntity
  8
TOPOVERLAY
100
AcDbLine
 10
442.78968338
 20
250.06690652
 30
0.0
 11
442.78968338
 21
249.05123418
 31
0.0
  0
LINE
  5
B3
330
1F
100
AcDbEntity
  8
TOPOVERLAY
100
AcDbLine
 10
443.551437
 20
250.06690652
 30
0.0
 11
443.551437
 21
249.55907162
 31
0.0
  0
LINE
  5
B4
330
1F
100
AcDbEntity
  8
TOPOVERLAY
100
AcDbLine
 10
439.2661776
 20
249.20794964
 30
0.0
 11
440.28184994
 21
249.20794964
 31
0.0
  0
LINE
  5
B5
330
1F
100
AcDbEntity
  8
TOPOVERLAY
100
AcDbLine
 10
440.28184994
 20
249.20794964
 30
0.0
 11
440.7896848399999
 21
249.71578454
 31
0.0
  0
LINE
  5
B6
330
1F
100
AcDbEntity
  8
TOPOVERLAY
100
AcDbLine
 10
440.7896848399999
 20
249.71578454
 30
0.0
 11
440.28184994
 21
250.22362198
 31
0.0
  0
LINE
  5
B7
330
1F
100
AcDbEntity
  8
TOPOVERLAY
100
AcDbLine
 10
440.28184994
 20
250.22362198
 30
0.0
 11
439.2661776
 21
250.22362198
 31
0.0
  0
LINE
  5
B8
330
1F
100
AcDbEntity
  8
TOPOVERLAY
100
AcDbLine
 10
440.02793122
 20
250.73145688
 30
0.0
 11
440.02793122
 21
251.74712922
 31
0.0
  0
LINE
  5
B9
330
1F
100
AcDbEntity
  8
TOPOVERLAY
100
AcDbLine
 10
439.52009632
 20
253.27063646
 30
0.0
 11
439.2661776
 21
253.01671774
 31
0.0
  0
LINE
  5
BA
330
1F
100
AcDbEntity
  8
TOPOVERLAY
100
AcDbLine
 10
439.2661776
 20
253.01671774
 30
0.0
 11
439.2661776
 21
252.50888284
 31
0.0
  0
LINE
  5
BB
330
1F
100
AcDbEntity
  8
TOPOVERLAY
100
AcDbLine
 10
439.2661776
 20
252.50888284
 30
0.0
 11
439.52009632
 21
252.25496412
 31
0.0
  0
LINE
  5
BC
330
1F
100
AcDbEntity
  8
TOPOVERLAY
100
AcDbLine
 10
439.52009632
 20
252.25496412
 30
0.0
 11
439.7740125
 21
252.25496412
 31
0.0
  0
LINE
  5
BD
330
1F
100
AcDbEntity
  8
TOPOVERLAY
100
AcDbLine
 10
439.7740125
 20
252.25496412
 30
0.0
 11
440.02793122
 21
252.50888284
 31
0.0
  0
LINE
  5
BE
330
1F
100
AcDbEntity
  8
TOPOVERLAY
100
AcDbLine
 10
440.02793122
 20
252.50888284
 30
0.0
 11
440.02793122
 21
253.01671774
 31
0.0
  0
LINE
  5
BF
330
1F
100
AcDbEntity
  8
TOPOVERLAY
100
AcDbLine
 10
440.02793122
 20
253.01671774
 30
0.0
 11
440.28184994
 21
253.27063646
 31
0.0
  0
LINE
  5
C0
330
1F
100
AcDbEntity
  8
TOPOVERLAY
100
AcDbLine
 10
440.28184994
 20
253.27063646
 30
0.0
 11
440.5357661199999
 21
253.27063646
 31
0.0
  0
LINE
  5
C1
330
1F
100
AcDbEntity
  8
TOPOVERLAY
100
AcDbLine
 10
440.5357661199999
 20
253.27063646
 30
0.0
 11
440.7896848399999
 21
253.01671774
 31
0.0
  0
LINE
  5
C2
330
1F
100
AcDbEntity
  8
TOPOVERLAY
100
AcDbLine
 10
440.7896848399999
 20
253.01671774
 30
0.0
 11
440.7896848399999
 21
252.50888284
 31
0.0
  0
LINE
  5
C3
330
1F
100
AcDbEntity
  8
TOPOVERLAY
100
AcDbLine
 10
440.7896848399999
 20
252.50888284
 30
0.0
 11
440.5357661199999
 21
252.25496412
 31
0.0
  0
LINE
  5
C4
330
1F
100
AcDbEntity
  8
TOPOVERLAY
100
AcDbLine
 10
439.52009632
 20
254.7941437
 30
0.0
 11
439.2661776
 21
254.54022498
 31
0.0
  0
LINE
  5
C5
330
1F
100
AcDbEntity
  8
TOPOVERLAY
100
AcDbLine
 10
439.2661776
 20
254.54022498
 30
0.0
 11
439.2661776
 21
254.03239008
 31
0.0
  0
LINE
  5
C6
330
1F
100
AcDbEntity
  8
TOPOVERLAY
100
AcDbLine
 10
439.2661776
 20
254.03239008
 30
0.0
 11
439.52009632
 21
253.77847136
 31
0.0
  0
LINE
  5
C7
330
1F
100
AcDbEntity
  8
TOPOVERLAY
100
AcDbLine
 10
439.52009632
 20
253.77847136
 30
0.0
 11
440.5357661199999
 21
253.77847136
 31
0.0
  0
LINE
  5
C8
330
1F
100
AcDbEntity
  8
TOPOVERLAY
100
AcDbLine
 10
440.5357661199999
 20
253.77847136
 30
0.0
 11
440.7896848399999
 21
254.03239008
 31
0.0
  0
LINE
  5
C9
330
1F
100
AcDbEntity
  8
TOPOVERLAY
100
AcDbLine
 10
440.7896848399999
 20
254.03239008
 30
0.0
 11
440.7896848399999
 21
254.54022498
 31
0.0
  0
LINE
  5
CA
330
1F
100
AcDbEntity
  8
TOPOVERLAY
100
AcDbLine
 10
440.7896848399999
 20
254.54022498
 30
0.0
 11
440.5357661199999
 21
254.7941437
 31
0.0
  0
LINE
  5
CB
330
1F
100
AcDbEntity
  8
TOPOVERLAY
100
AcDbLine
 10
439.2661776
 20
256.06373222
 30
0.0
 11
439.2661776
 21
255.55589732
 31
0.0
  0
LINE
  5
CC
330
1F
100
AcDbEntity
  8
TOPOVERLAY
100
AcDbLine
 10
439.2661776
 20
255.55589732
 30
0.0
 11
439.52009632
 21
255.3019786
 31
0.0
  0
LINE
  5
CD
330
1F
100
AcDbEntity
  8
TOPOVERLAY
100
AcDbLine
 10
439.52009632
 20
255.3019786
 30
0.0
 11
440.5357661199999
 21
255.3019786
 31
0.0
  0
LINE
  5
CE
330
1F
100
AcDbEntity
  8
TOPOVERLAY
100
AcDbLine
 10
440.5357661199999
 20
255.3019786
 30
0.0
 11
440.7896848399999
 21
255.55589732
 31
0.0
  0
LINE
  5
CF
330
1F
100
AcDbEntity
  8
TOPOVERLAY
100
AcDbLine
 10
440.7896848399999
 20
255.55589732
 30
0.0
 11
440.7896848399999
 21
256.06373222
 31
0.0
  0
LINE
  5
D0
330
1F
100
AcDbEntity
  8
TOPOVERLAY
100
AcDbLine
 10
440.7896848399999
 20
256.06373222
 30
0.0
 11
440.5357661199999
 21
256.31765094
 31
0.0
  0
LINE
  5
D1
330
1F
100
AcDbEntity
  8
TOPOVERLAY
100
AcDbLine
 10
440.5357661199999
 20
256.31765094
 30
0.0
 11
439.52009632
 21
256.31765094
 31
0.0
  0
LINE
  5
D2
330
1F
100
AcDbEntity
  8
TOPOVERLAY
100
AcDbLine
 10
439.52009632
 20
256.31765094
 30
0.0
 11
439.2661776
 21
256.06373222
 31
0.0
  0
LINE
  5
D3
330
1F
100
AcDbEntity
  8
TOPOVERLAY
100
AcDbLine
 10
440.7896848399999
 20
256.82548584
 30
0.0
 11
439.2661776
 21
256.82548584
 31
0.0
  0
LINE
  5
D4
330
1F
100
AcDbEntity
  8
TOPOVERLAY
100
AcDbLine
 10
439.2661776
 20
256.82548584
 30
0.0
 11
439.2661776
 21
257.58723946
 31
0.0
  0
LINE
  5
D5
330
1F
100
AcDbEntity
  8
TOPOVERLAY
100
AcDbLine
 10
439.2661776
 20
257.58723946
 30
0.0
 11
439.52009632
 21
257.84115818
 31
0.0
  0
LINE
  5
D6
330
1F
100
AcDbEntity
  8
TOPOVERLAY
100
AcDbLine
 10
439.52009632
 20
257.84115818
 30
0.0
 11
440.02793122
 21
257.84115818
 31
0.0
  0
LINE
  5
D7
330
1F
100
AcDbEntity
  8
TOPOVERLAY
100
AcDbLine
 10
440.02793122
 20
257.84115818
 30
0.0
 11
440.28184994
 21
257.58723946
 31
0.0
  0
LINE
  5
D8
330
1F
100
AcDbEntity
  8
TOPOVERLAY
100
AcDbLine
 10
440.28184994
 20
257.58723946
 30
0.0
 11
440.28184994
 21
256.82548584
 31
0.0
  0
LINE
  5
D9
330
1F
100
AcDbEntity
  8
TOPOVERLAY
100
AcDbLine
 10
440.28184994
 20
257.33332074
 30
0.0
 11
440.7896848399999
 21
257.84115818
 31
0.0
  0
LINE
  5
DA
330
1F
100
AcDbEntity
  8
TOPOVERLAY
100
AcDbLine
 10
439.2661776
 20
259.36466542
 30
0.0
 11
439.2661776
 21
258.34899308
 31
0.0
  0
LINE
  5
DB
330
1F
100
AcDbEntity
  8
TOPOVERLAY
100
AcDbLine
 10
439.2661776
 20
258.34899308
 30
0.0
 11
440.7896848399999
 21
258.34899308
 31
0.0
  0
LINE
  5
DC
330
1F
100
AcDbEntity
  8
TOPOVERLAY
100
AcDbLine
 10
440.7896848399999
 20
258.34899308
 30
0.0
 11
440.7896848399999
 21
259.36466542
 31
0.0
  0
LINE
  5
DD
330
1F
100
AcDbEntity
  8
TOPOVERLAY
100
AcDbLine
 10
440.02793122
 20
258.34899308
 30
0.0
 11
440.02793122
 21
258.85682798
 31
0.0
  0
LINE
  5
DE
330
1F
100
AcDbEntity
  8
TOPOVERLAY
100
AcDbLine
 10
508.78968346
 20
207.20794982
 30
0.0
 11
508.28184856
 21
207.20794982
 31
0.0
  0
LINE
  5
DF
330
1F
100
AcDbEntity
  8
TOPOVERLAY
100
AcDbLine
 10
508.28184856
 20
207.20794982
 30
0.0
 11
508.53576474
 21
207.20794982
 31
0.0
  0
LINE
  5
E0
330
1F
100
AcDbEntity
  8
TOPOVERLAY
100
AcDbLine
 10
508.53576474
 20
207.20794982
 30
0.0
 11
508.53576474
 21
205.68444258
 31
0.0
  0
LINE
  5
E1
330
1F
100
AcDbEntity
  8
TOPOVERLAY
100
AcDbLine
 10
508.53576474
 20
205.68444258
 30
0.0
 11
508.78968346
 21
205.9383613
 31
0.0
  0
LINE
  5
E2
330
1F
100
AcDbEntity
  8
TOPOVERLAY
100
AcDbLine
 10
507.52009494
 20
205.9383613
 30
0.0
 11
507.26617622
 21
205.68444258
 31
0.0
  0
LINE
  5
E3
330
1F
100
AcDbEntity
  8
TOPOVERLAY
100
AcDbLine
 10
507.26617622
 20
205.68444258
 30
0.0
 11
506.75834132
 21
205.68444258
 31
0.0
  0
LINE
  5
E4
330
1F
100
AcDbEntity
  8
TOPOVERLAY
100
AcDbLine
 10
506.75834132
 20
205.68444258
 30
0.0
 11
506.5044226
 21
205.9383613
 31
0.0
  0
LINE
  5
E5
330
1F
100
AcDbEntity
  8
TOPOVERLAY
100
AcDbLine
 10
506.5044226
 20
205.9383613
 30
0.0
 11
506.5044226
 21
206.9540311
 31
0.0
  0
LINE
  5
E6
330
1F
100
AcDbEntity
  8
TOPOVERLAY
100
AcDbLine
 10
506.5044226
 20
206.9540311
 30
0.0
 11
506.75834132
 21
207.20794982
 31
0.0
  0
LINE
  5
E7
330
1F
100
AcDbEntity
  8
TOPOVERLAY
100
AcDbLine
 10
506.75834132
 20
207.20794982
 30
0.0
 11
507.26617622
 21
207.20794982
 31
0.0
  0
LINE
  5
E8
330
1F
100
AcDbEntity
  8
TOPOVERLAY
100
AcDbLine
 10
507.26617622
 20
207.20794982
 30
0.0
 11
507.52009494
 21
206.9540311
 31
0.0
  0
LINE
  5
E9
330
1F
100
AcDbEntity
  8
TOPOVERLAY
100
AcDbLine
 10
507.52009494
 20
206.9540311
 30
0.0
 11
507.52009494
 21
205.9383613
 31
0.0
  0
LINE
  5
EA
330
1F
100
AcDbEntity
  8
TOPOVERLAY
100
AcDbLine
 10
505.9965877
 20
205.9383613
 30
0.0
 11
505.74266898
 21
205.68444258
 31
0.0
  0
LINE
  5
EB
330
1F
100
AcDbEntity
  8
TOPOVERLAY
100
AcDbLine
 10
505.74266898
 20
205.68444258
 30
0.0
 11
505.23483408
 21
205.68444258
 31
0.0
  0
LINE
  5
EC
330
1F
100
AcDbEntity
  8
TOPOVERLAY
100
AcDbLine
 10
505.23483408
 20
205.68444258
 30
0.0
 11
504.98091536
 21
205.9383613
 31
0.0
  0
LINE
  5
ED
330
1F
100
AcDbEntity
  8
TOPOVERLAY
100
AcDbLine
 10
504.98091536
 20
205.9383613
 30
0.0
 11
504.98091536
 21
206.9540311
 31
0.0
  0
LINE
  5
EE
330
1F
100
AcDbEntity
  8
TOPOVERLAY
100
AcDbLine
 10
504.98091536
 20
206.9540311
 30
0.0
 11
505.23483408
 21
207.20794982
 31
0.0
  0
LINE
  5
EF
330
1F
100
AcDbEntity
  8
TOPOVERLAY
100
AcDbLine
 10
505.23483408
 20
207.20794982
 30
0.0
 11
505.74266898
 21
207.20794982
 31
0.0
  0
LINE
  5
F0
330
1F
100
AcDbEntity
  8
TOPOVERLAY
100
AcDbLine
 10
505.74266898
 20
207.20794982
 30
0.0
 11
505.9965877
 21
206.9540311
 31
0.0
  0
LINE
  5
F1
330
1F
100
AcDbEntity
  8
TOPOVERLAY
100
AcDbLine
 10
505.9965877
 20
206.9540311
 30
0.0
 11
505.9965877
 21
205.9383613
 31
0.0
  0
LINE
  5
F2
330
1F
100
AcDbEntity
  8
TOPOVERLAY
100
AcDbLine
 10
504.4730804599999
 20
205.9383613
 30
0.0
 11
504.2191617399999
 21
205.68444258
 31
0.0
  0
LINE
  5
F3
330
1F
100
AcDbEntity
  8
TOPOVERLAY
100
AcDbLine
 10
504.2191617399999
 20
205.68444258
 30
0.0
 11
503.71132684
 21
205.68444258
 31
0.0
  0
LINE
  5
F4
330
1F
100
AcDbEntity
  8
TOPOVERLAY
100
AcDbLine
 10
503.71132684
 20
205.68444258
 30
0.0
 11
503.45740812
 21
205.9383613
 31
0.0
  0
LINE
  5
F5
330
1F
100
AcDbEntity
  8
TOPOVERLAY
100
AcDbLine
 10
503.45740812
 20
205.9383613
 30
0.0
 11
503.45740812
 21
206.19227748
 31
0.0
  0
LINE
  5
F6
330
1F
100
AcDbEntity
  8
TOPOVERLAY
100
AcDbLine
 10
503.45740812
 20
206.19227748
 30
0.0
 11
503.71132684
 21
206.4461962
 31
0.0
  0
LINE
  5
F7
330
1F
100
AcDbEntity
  8
TOPOVERLAY
100
AcDbLine
 10
503.71132684
 20
206.4461962
 30
0.0
 11
503.45740812
 21
206.70011492
 31
0.0
  0
LINE
  5
F8
330
1F
100
AcDbEntity
  8
TOPOVERLAY
100
AcDbLine
 10
503.45740812
 20
206.70011492
 30
0.0
 11
503.45740812
 21
206.9540311
 31
0.0
  0
LINE
  5
F9
330
1F
100
AcDbEntity
  8
TOPOVERLAY
100
AcDbLine
 10
503.45740812
 20
206.9540311
 30
0.0
 11
503.71132684
 21
207.20794982
 31
0.0
  0
LINE
  5
FA
330
1F
100
AcDbEntity
  8
TOPOVERLAY
100
AcDbLine
 10
503.71132684
 20
207.20794982
 30
0.0
 11
504.2191617399999
 21
207.20794982
 31
0.0
  0
LINE
  5
FB
330
1F
100
AcDbEntity
  8
TOPOVERLAY
100
AcDbLine
 10
504.2191617399999
 20
207.20794982
 30
0.0
 11
504.4730804599999
 21
206.9540311
 31
0.0
  0
LINE
  5
FC
330
1F
100
AcDbEntity
  8
TOPOVERLAY
100
AcDbLine
 10
504.4730804599999
 20
206.9540311
 30
0.0
 11
504.4730804599999
 21
206.70011492
 31
0.0
  0
LINE
  5
FD
330
1F
100
AcDbEntity
  8
TOPOVERLAY
100
AcDbLine
 10
504.4730804599999
 20
206.70011492
 30
0.0
 11
504.2191617399999
 21
206.4461962
 31
0.0
  0
LINE
  5
FE
330
1F
100
AcDbEntity
  8
TOPOVERLAY
100
AcDbLine
 10
504.2191617399999
 20
206.4461962
 30
0.0
 11
504.4730804599999
 21
206.19227748
 31
0.0
  0
LINE
  5
FF
330
1F
100
AcDbEntity
  8
TOPOVERLAY
100
AcDbLine
 10
504.4730804599999
 20
206.19227748
 30
0.0
 11
504.4730804599999
 21
205.9383613
 31
0.0
  0
LINE
  5
100
330
1F
100
AcDbEntity
  8
TOPOVERLAY
100
AcDbLine
 10
504.2191617399999
 20
206.4461962
 30
0.0
 11
503.71132684
 21
206.4461962
 31
0.0
  0
LINE
  5
101
330
1F
100
AcDbEntity
  8
TOPOVERLAY
100
AcDbLine
 10
501.93390088
 20
205.68444258
 30
0.0
 11
502.94957322
 21
205.68444258
 31
0.0
  0
LINE
  5
102
330
1F
100
AcDbEntity
  8
TOPOVERLAY
100
AcDbLine
 10
502.94957322
 20
205.68444258
 30
0.0
 11
502.94957322
 21
206.4461962
 31
0.0
  0
LINE
  5
103
330
1F
100
AcDbEntity
  8
TOPOVERLAY
100
AcDbLine
 10
502.94957322
 20
206.4461962
 30
0.0
 11
502.44173832
 21
206.19227748
 31
0.0
  0
LINE
  5
104
330
1F
100
AcDbEntity
  8
TOPOVERLAY
100
AcDbLine
 10
502.44173832
 20
206.19227748
 30
0.0
 11
502.1878196
 21
206.19227748
 31
0.0
  0
LINE
  5
105
330
1F
100
AcDbEntity
  8
TOPOVERLAY
100
AcDbLine
 10
502.1878196
 20
206.19227748
 30
0.0
 11
501.93390088
 21
206.4461962
 31
0.0
  0
LINE
  5
106
330
1F
100
AcDbEntity
  8
TOPOVERLAY
100
AcDbLine
 10
501.93390088
 20
206.4461962
 30
0.0
 11
501.93390088
 21
206.9540311
 31
0.0
  0
LINE
  5
107
330
1F
100
AcDbEntity
  8
TOPOVERLAY
100
AcDbLine
 10
501.93390088
 20
206.9540311
 30
0.0
 11
502.1878196
 21
207.20794982
 31
0.0
  0
LINE
  5
108
330
1F
100
AcDbEntity
  8
TOPOVERLAY
100
AcDbLine
 10
502.1878196
 20
207.20794982
 30
0.0
 11
502.6956545
 21
207.20794982
 31
0.0
  0
LINE
  5
109
330
1F
100
AcDbEntity
  8
TOPOVERLAY
100
AcDbLine
 10
502.6956545
 20
207.20794982
 30
0.0
 11
502.94957322
 21
206.9540311
 31
0.0
  0
LINE
  5
10A
330
1F
100
AcDbEntity
  8
TOPOVERLAY
100
AcDbLine
 10
501.42606598
 20
205.68444258
 30
0.0
 11
500.41039364
 21
205.68444258
 31
0.0
  0
LINE
  5
10B
330
1F
100
AcDbEntity
  8
TOPOVERLAY
100
AcDbLine
 10
500.41039364
 20
205.68444258
 30
0.0
 11
500.41039364
 21
205.9383613
 31
0.0
  0
LINE
  5
10C
330
1F
100
AcDbEntity
  8
TOPOVERLAY
100
AcDbLine
 10
500.41039364
 20
205.9383613
 30
0.0
 11
501.42606598
 21
206.9540311
 31
0.0
  0
LINE
  5
10D
330
1F
100
AcDbEntity
  8
TOPOVERLAY
100
AcDbLine
 10
501.42606598
 20
206.9540311
 30
0.0
 11
501.42606598
 21
207.20794982
 31
0.0
  0
LINE
  5
10E
330
1F
100
AcDbEntity
  8
TOPOVERLAY
100
AcDbLine
 10
493.7740111799999
 20
205.9383613
 30
0.0
 11
494.0279298999999
 21
205.68444258
 31
0.0
  0
LINE
  5
10F
330
1F
100
AcDbEntity
  8
TOPOVERLAY
100
AcDbLine
 10
494.0279298999999
 20
205.68444258
 30
0.0
 11
494.5357648
 21
205.68444258
 31
0.0
  0
LINE
  5
110
330
1F
100
AcDbEntity
  8
TOPOVERLAY
100
AcDbLine
 10
494.5357648
 20
205.68444258
 30
0.0
 11
494.78968352
 21
205.9383613
 31
0.0
  0
LINE
  5
111
330
1F
100
AcDbEntity
  8
TOPOVERLAY
100
AcDbLine
 10
494.78968352
 20
205.9383613
 30
0.0
 11
494.78968352
 21
206.9540311
 31
0.0
  0
LINE
  5
112
330
1F
100
AcDbEntity
  8
TOPOVERLAY
100
AcDbLine
 10
494.78968352
 20
206.9540311
 30
0.0
 11
494.5357648
 21
207.20794982
 31
0.0
  0
LINE
  5
113
330
1F
100
AcDbEntity
  8
TOPOVERLAY
100
AcDbLine
 10
494.5357648
 20
207.20794982
 30
0.0
 11
494.0279298999999
 21
207.20794982
 31
0.0
  0
LINE
  5
114
330
1F
100
AcDbEntity
  8
TOPOVERLAY
100
AcDbLine
 10
494.0279298999999
 20
207.20794982
 30
0.0
 11
493.7740111799999
 21
206.9540311
 31
0.0
  0
LINE
  5
115
330
1F
100
AcDbEntity
  8
TOPOVERLAY
100
AcDbLine
 10
493.26617628
 20
205.68444258
 30
0.0
 11
493.26617628
 21
207.20794982
 31
0.0
  0
LINE
  5
116
330
1F
100
AcDbEntity
  8
TOPOVERLAY
100
AcDbLine
 10
493.26617628
 20
207.20794982
 30
0.0
 11
493.26617628
 21
206.4461962
 31
0.0
  0
LINE
  5
117
330
1F
100
AcDbEntity
  8
TOPOVERLAY
100
AcDbLine
 10
493.26617628
 20
206.4461962
 30
0.0
 11
493.01225756
 21
206.19227748
 31
0.0
  0
LINE
  5
118
330
1F
100
AcDbEntity
  8
TOPOVERLAY
100
AcDbLine
 10
493.01225756
 20
206.19227748
 30
0.0
 11
492.50442266
 21
206.19227748
 31
0.0
  0
LINE
  5
119
330
1F
100
AcDbEntity
  8
TOPOVERLAY
100
AcDbLine
 10
492.50442266
 20
206.19227748
 30
0.0
 11
492.25050394
 21
206.4461962
 31
0.0
  0
LINE
  5
11A
330
1F
100
AcDbEntity
  8
TOPOVERLAY
100
AcDbLine
 10
492.25050394
 20
206.4461962
 30
0.0
 11
492.25050394
 21
207.20794982
 31
0.0
  0
LINE
  5
11B
330
1F
100
AcDbEntity
  8
TOPOVERLAY
100
AcDbLine
 10
491.74266904
 20
207.20794982
 30
0.0
 11
491.23483414
 21
207.20794982
 31
0.0
  0
LINE
  5
11C
330
1F
100
AcDbEntity
  8
TOPOVERLAY
100
AcDbLine
 10
491.23483414
 20
207.20794982
 30
0.0
 11
491.48875032
 21
207.20794982
 31
0.0
  0
LINE
  5
11D
330
1F
100
AcDbEntity
  8
TOPOVERLAY
100
AcDbLine
 10
491.48875032
 20
207.20794982
 30
0.0
 11
491.48875032
 21
206.19227748
 31
0.0
  0
LINE
  5
11E
330
1F
100
AcDbEntity
  8
TOPOVERLAY
100
AcDbLine
 10
491.48875032
 20
206.19227748
 30
0.0
 11
491.74266904
 21
206.19227748
 31
0.0
  0
LINE
  5
11F
330
1F
100
AcDbEntity
  8
TOPOVERLAY
100
AcDbLine
 10
489.45740818
 20
206.19227748
 30
0.0
 11
490.2191618
 21
206.19227748
 31
0.0
  0
LINE
  5
120
330
1F
100
AcDbEntity
  8
TOPOVERLAY
100
AcDbLine
 10
490.2191618
 20
206.19227748
 30
0.0
 11
490.47308052
 21
206.4461962
 31
0.0
  0
LINE
  5
121
330
1F
100
AcDbEntity
  8
TOPOVERLAY
100
AcDbLine
 10
490.47308052
 20
206.4461962
 30
0.0
 11
490.47308052
 21
206.9540311
 31
0.0
  0
LINE
  5
122
330
1F
100
AcDbEntity
  8
TOPOVERLAY
100
AcDbLine
 10
490.47308052
 20
206.9540311
 30
0.0
 11
490.2191618
 21
207.20794982
 31
0.0
  0
LINE
  5
123
330
1F
100
AcDbEntity
  8
TOPOVERLAY
100
AcDbLine
 10
490.2191618
 20
207.20794982
 30
0.0
 11
489.45740818
 21
207.20794982
 31
0.0
  0
LINE
  5
124
330
1F
100
AcDbEntity
  8
TOPOVERLAY
100
AcDbLine
 10
488.94957328
 20
207.20794982
 30
0.0
 11
488.94957328
 21
205.68444258
 31
0.0
  0
LINE
  5
125
330
1F
100
AcDbEntity
  8
TOPOVERLAY
100
AcDbLine
 10
488.94957328
 20
206.70011492
 30
0.0
 11
488.1878196599999
 21
206.19227748
 31
0.0
  0
LINE
  5
126
330
1F
100
AcDbEntity
  8
TOPOVERLAY
100
AcDbLine
 10
488.94957328
 20
206.70011492
 30
0.0
 11
488.1878196599999
 21
207.20794982
 31
0.0
  0
LINE
  5
127
330
1F
100
AcDbEntity
  8
TOPOVERLAY
100
AcDbLine
 10
487.42606604
 20
207.20794982
 30
0.0
 11
486.91823114
 21
207.20794982
 31
0.0
  0
LINE
  5
128
330
1F
100
AcDbEntity
  8
TOPOVERLAY
100
AcDbLine
 10
486.91823114
 20
207.20794982
 30
0.0
 11
487.17214732
 21
207.20794982
 31
0.0
  0
LINE
  5
129
330
1F
100
AcDbEntity
  8
TOPOVERLAY
100
AcDbLine
 10
487.17214732
 20
207.20794982
 30
0.0
 11
487.17214732
 21
205.68444258
 31
0.0
  0
LINE
  5
12A
330
1F
100
AcDbEntity
  8
TOPOVERLAY
100
AcDbLine
 10
487.17214732
 20
205.68444258
 30
0.0
 11
487.42606604
 21
205.68444258
 31
0.0
  0
LINE
  5
12B
330
1F
100
AcDbEntity
  8
TOPOVERLAY
100
AcDbLine
 10
485.3947239
 20
207.20794982
 30
0.0
 11
485.9025588
 21
207.20794982
 31
0.0
  0
LINE
  5
12C
330
1F
100
AcDbEntity
  8
TOPOVERLAY
100
AcDbLine
 10
485.9025588
 20
207.20794982
 30
0.0
 11
486.15647752
 21
206.9540311
 31
0.0
  0
LINE
  5
12D
330
1F
100
AcDbEntity
  8
TOPOVERLAY
100
AcDbLine
 10
486.15647752
 20
206.9540311
 30
0.0
 11
486.15647752
 21
206.4461962
 31
0.0
  0
LINE
  5
12E
330
1F
100
AcDbEntity
  8
TOPOVERLAY
100
AcDbLine
 10
486.15647752
 20
206.4461962
 30
0.0
 11
485.9025588
 21
206.19227748
 31
0.0
  0
LINE
  5
12F
330
1F
100
AcDbEntity
  8
TOPOVERLAY
100
AcDbLine
 10
485.9025588
 20
206.19227748
 30
0.0
 11
485.3947239
 21
206.19227748
 31
0.0
  0
LINE
  5
130
330
1F
100
AcDbEntity
  8
TOPOVERLAY
100
AcDbLine
 10
485.3947239
 20
206.19227748
 30
0.0
 11
485.14080518
 21
206.4461962
 31
0.0
  0
LINE
  5
131
330
1F
100
AcDbEntity
  8
TOPOVERLAY
100
AcDbLine
 10
485.14080518
 20
206.4461962
 30
0.0
 11
485.14080518
 21
206.70011492
 31
0.0
  0
LINE
  5
132
330
1F
100
AcDbEntity
  8
TOPOVERLAY
100
AcDbLine
 10
485.14080518
 20
206.70011492
 30
0.0
 11
486.15647752
 21
206.70011492
 31
0.0
  0
LINE
  5
133
330
1F
100
AcDbEntity
  8
TOPOVERLAY
100
AcDbLine
 10
484.37905156
 20
205.9383613
 30
0.0
 11
484.37905156
 21
206.19227748
 31
0.0
  0
LINE
  5
134
330
1F
100
AcDbEntity
  8
TOPOVERLAY
100
AcDbLine
 10
484.37905156
 20
206.19227748
 30
0.0
 11
484.63297028
 21
206.19227748
 31
0.0
  0
LINE
  5
135
330
1F
100
AcDbEntity
  8
TOPOVERLAY
100
AcDbLine
 10
484.63297028
 20
206.19227748
 30
0.0
 11
484.12513538
 21
206.19227748
 31
0.0
  0
LINE
  5
136
330
1F
100
AcDbEntity
  8
TOPOVERLAY
100
AcDbLine
 10
484.12513538
 20
206.19227748
 30
0.0
 11
484.37905156
 21
206.19227748
 31
0.0
  0
LINE
  5
137
330
1F
100
AcDbEntity
  8
TOPOVERLAY
100
AcDbLine
 10
484.37905156
 20
206.19227748
 30
0.0
 11
484.37905156
 21
206.9540311
 31
0.0
  0
LINE
  5
138
330
1F
100
AcDbEntity
  8
TOPOVERLAY
100
AcDbLine
 10
484.37905156
 20
206.9540311
 30
0.0
 11
484.12513538
 21
207.20794982
 31
0.0
  0
LINE
  5
139
330
1F
100
AcDbEntity
  8
TOPOVERLAY
100
AcDbLine
 10
481.83987452
 20
205.68444258
 30
0.0
 11
481.33203962
 21
205.68444258
 31
0.0
  0
LINE
  5
13A
330
1F
100
AcDbEntity
  8
TOPOVERLAY
100
AcDbLine
 10
481.33203962
 20
205.68444258
 30
0.0
 11
481.5859558
 21
205.68444258
 31
0.0
  0
LINE
  5
13B
330
1F
100
AcDbEntity
  8
TOPOVERLAY
100
AcDbLine
 10
481.5859558
 20
205.68444258
 30
0.0
 11
481.5859558
 21
207.20794982
 31
0.0
  0
LINE
  5
13C
330
1F
100
AcDbEntity
  8
TOPOVERLAY
100
AcDbLine
 10
481.5859558
 20
207.20794982
 30
0.0
 11
481.83987452
 21
207.20794982
 31
0.0
  0
LINE
  5
13D
330
1F
100
AcDbEntity
  8
TOPOVERLAY
100
AcDbLine
 10
481.83987452
 20
207.20794982
 30
0.0
 11
481.33203962
 21
207.20794982
 31
0.0
  0
LINE
  5
13E
330
1F
100
AcDbEntity
  8
TOPOVERLAY
100
AcDbLine
 10
480.570286
 20
207.20794982
 30
0.0
 11
480.570286
 21
206.19227748
 31
0.0
  0
LINE
  5
13F
330
1F
100
AcDbEntity
  8
TOPOVERLAY
100
AcDbLine
 10
480.570286
 20
206.19227748
 30
0.0
 11
479.80853238
 21
206.19227748
 31
0.0
  0
LINE
  5
140
330
1F
100
AcDbEntity
  8
TOPOVERLAY
100
AcDbLine
 10
479.80853238
 20
206.19227748
 30
0.0
 11
479.55461366
 21
206.4461962
 31
0.0
  0
LINE
  5
141
330
1F
100
AcDbEntity
  8
TOPOVERLAY
100
AcDbLine
 10
479.55461366
 20
206.4461962
 30
0.0
 11
479.55461366
 21
207.20794982
 31
0.0
  0
LINE
  5
142
330
1F
100
AcDbEntity
  8
TOPOVERLAY
100
AcDbLine
 10
478.03110642
 20
205.68444258
 30
0.0
 11
478.03110642
 21
207.20794982
 31
0.0
  0
LINE
  5
143
330
1F
100
AcDbEntity
  8
TOPOVERLAY
100
AcDbLine
 10
478.03110642
 20
207.20794982
 30
0.0
 11
478.79286004
 21
207.20794982
 31
0.0
  0
LINE
  5
144
330
1F
100
AcDbEntity
  8
TOPOVERLAY
100
AcDbLine
 10
478.79286004
 20
207.20794982
 30
0.0
 11
479.04677876
 21
206.9540311
 31
0.0
  0
LINE
  5
145
330
1F
100
AcDbEntity
  8
TOPOVERLAY
100
AcDbLine
 10
479.04677876
 20
206.9540311
 30
0.0
 11
479.04677876
 21
206.4461962
 31
0.0
  0
LINE
  5
146
330
1F
100
AcDbEntity
  8
TOPOVERLAY
100
AcDbLine
 10
479.04677876
 20
206.4461962
 30
0.0
 11
478.79286004
 21
206.19227748
 31
0.0
  0
LINE
  5
147
330
1F
100
AcDbEntity
  8
TOPOVERLAY
100
AcDbLine
 10
478.79286004
 20
206.19227748
 30
0.0
 11
478.03110642
 21
206.19227748
 31
0.0
  0
LINE
  5
148
330
1F
100
AcDbEntity
  8
TOPOVERLAY
100
AcDbLine
 10
477.52327152
 20
207.20794982
 30
0.0
 11
477.0154366199999
 21
207.20794982
 31
0.0
  0
LINE
  5
149
330
1F
100
AcDbEntity
  8
TOPOVERLAY
100
AcDbLine
 10
477.0154366199999
 20
207.20794982
 30
0.0
 11
477.2693528
 21
207.20794982
 31
0.0
  0
LINE
  5
14A
330
1F
100
AcDbEntity
  8
TOPOVERLAY
100
AcDbLine
 10
477.2693528
 20
207.20794982
 30
0.0
 11
477.2693528
 21
206.19227748
 31
0.0
  0
LINE
  5
14B
330
1F
100
AcDbEntity
  8
TOPOVERLAY
100
AcDbLine
 10
477.2693528
 20
206.19227748
 30
0.0
 11
477.52327152
 21
206.19227748
 31
0.0
  0
LINE
  5
14C
330
1F
100
AcDbEntity
  8
TOPOVERLAY
100
AcDbLine
 10
475.99976428
 20
206.19227748
 30
0.0
 11
475.49192938
 21
206.19227748
 31
0.0
  0
LINE
  5
14D
330
1F
100
AcDbEntity
  8
TOPOVERLAY
100
AcDbLine
 10
475.49192938
 20
206.19227748
 30
0.0
 11
475.23801066
 21
206.4461962
 31
0.0
  0
LINE
  5
14E
330
1F
100
AcDbEntity
  8
TOPOVERLAY
100
AcDbLine
 10
475.23801066
 20
206.4461962
 30
0.0
 11
475.23801066
 21
207.20794982
 31
0.0
  0
LINE
  5
14F
330
1F
100
AcDbEntity
  8
TOPOVERLAY
100
AcDbLine
 10
475.23801066
 20
207.20794982
 30
0.0
 11
475.99976428
 21
207.20794982
 31
0.0
  0
LINE
  5
150
330
1F
100
AcDbEntity
  8
TOPOVERLAY
100
AcDbLine
 10
475.99976428
 20
207.20794982
 30
0.0
 11
476.253683
 21
206.9540311
 31
0.0
  0
LINE
  5
151
330
1F
100
AcDbEntity
  8
TOPOVERLAY
100
AcDbLine
 10
476.253683
 20
206.9540311
 30
0.0
 11
475.99976428
 21
206.70011492
 31
0.0
  0
LINE
  5
152
330
1F
100
AcDbEntity
  8
TOPOVERLAY
100
AcDbLine
 10
475.99976428
 20
206.70011492
 30
0.0
 11
475.23801066
 21
206.70011492
 31
0.0
  0
LINE
  5
153
330
1F
100
AcDbEntity
  8
TOPOVERLAY
100
AcDbLine
 10
474.73017576
 20
207.20794982
 30
0.0
 11
474.73017576
 21
206.19227748
 31
0.0
  0
LINE
  5
154
330
1F
100
AcDbEntity
  8
TOPOVERLAY
100
AcDbLine
 10
474.73017576
 20
206.19227748
 30
0.0
 11
473.96842214
 21
206.19227748
 31
0.0
  0
LINE
  5
155
330
1F
100
AcDbEntity
  8
TOPOVERLAY
100
AcDbLine
 10
473.96842214
 20
206.19227748
 30
0.0
 11
473.71450342
 21
206.4461962
 31
0.0
  0
LINE
  5
156
330
1F
100
AcDbEntity
  8
TOPOVERLAY
100
AcDbLine
 10
473.71450342
 20
206.4461962
 30
0.0
 11
473.71450342
 21
207.20794982
 31
0.0
  0
LINE
  5
157
330
1F
100
AcDbEntity
  8
TOPOVERLAY
100
AcDbLine
 10
471.68316128
 20
207.20794982
 30
0.0
 11
471.68316128
 21
205.68444258
 31
0.0
  0
LINE
  5
158
330
1F
100
AcDbEntity
  8
TOPOVERLAY
100
AcDbLine
 10
471.68316128
 20
205.68444258
 30
0.0
 11
470.92140766
 21
205.68444258
 31
0.0
  0
LINE
  5
159
330
1F
100
AcDbEntity
  8
TOPOVERLAY
100
AcDbLine
 10
470.92140766
 20
205.68444258
 30
0.0
 11
470.66748894
 21
205.9383613
 31
0.0
  0
LINE
  5
15A
330
1F
100
AcDbEntity
  8
TOPOVERLAY
100
AcDbLine
 10
470.66748894
 20
205.9383613
 30
0.0
 11
470.66748894
 21
206.4461962
 31
0.0
  0
LINE
  5
15B
330
1F
100
AcDbEntity
  8
TOPOVERLAY
100
AcDbLine
 10
470.66748894
 20
206.4461962
 30
0.0
 11
470.92140766
 21
206.70011492
 31
0.0
  0
LINE
  5
15C
330
1F
100
AcDbEntity
  8
TOPOVERLAY
100
AcDbLine
 10
470.92140766
 20
206.70011492
 30
0.0
 11
471.68316128
 21
206.70011492
 31
0.0
  0
LINE
  5
15D
330
1F
100
AcDbEntity
  8
TOPOVERLAY
100
AcDbLine
 10
471.17532638
 20
206.70011492
 30
0.0
 11
470.66748894
 21
207.20794982
 31
0.0
  0
LINE
  5
15E
330
1F
100
AcDbEntity
  8
TOPOVERLAY
100
AcDbLine
 10
469.39790042
 20
207.20794982
 30
0.0
 11
469.90573532
 21
207.20794982
 31
0.0
  0
LINE
  5
15F
330
1F
100
AcDbEntity
  8
TOPOVERLAY
100
AcDbLine
 10
469.90573532
 20
207.20794982
 30
0.0
 11
470.15965404
 21
206.9540311
 31
0.0
  0
LINE
  5
160
330
1F
100
AcDbEntity
  8
TOPOVERLAY
100
AcDbLine
 10
470.15965404
 20
206.9540311
 30
0.0
 11
470.15965404
 21
206.4461962
 31
0.0
  0
LINE
  5
161
330
1F
100
AcDbEntity
  8
TOPOVERLAY
100
AcDbLine
 10
470.15965404
 20
206.4461962
 30
0.0
 11
469.90573532
 21
206.19227748
 31
0.0
  0
LINE
  5
162
330
1F
100
AcDbEntity
  8
TOPOVERLAY
100
AcDbLine
 10
469.90573532
 20
206.19227748
 30
0.0
 11
469.39790042
 21
206.19227748
 31
0.0
  0
LINE
  5
163
330
1F
100
AcDbEntity
  8
TOPOVERLAY
100
AcDbLine
 10
469.39790042
 20
206.19227748
 30
0.0
 11
469.1439817
 21
206.4461962
 31
0.0
  0
LINE
  5
164
330
1F
100
AcDbEntity
  8
TOPOVERLAY
100
AcDbLine
 10
469.1439817
 20
206.4461962
 30
0.0
 11
469.1439817
 21
206.70011492
 31
0.0
  0
LINE
  5
165
330
1F
100
AcDbEntity
  8
TOPOVERLAY
100
AcDbLine
 10
469.1439817
 20
206.70011492
 30
0.0
 11
470.15965404
 21
206.70011492
 31
0.0
  0
LINE
  5
166
330
1F
100
AcDbEntity
  8
TOPOVERLAY
100
AcDbLine
 10
468.6361467999999
 20
206.19227748
 30
0.0
 11
468.1283119
 21
207.20794982
 31
0.0
  0
LINE
  5
167
330
1F
100
AcDbEntity
  8
TOPOVERLAY
100
AcDbLine
 10
468.1283119
 20
207.20794982
 30
0.0
 11
467.62047446
 21
206.19227748
 31
0.0
  0
LINE
  5
168
330
1F
100
AcDbEntity
  8
TOPOVERLAY
100
AcDbLine
 10
465.58913232
 20
205.68444258
 30
0.0
 11
465.58913232
 21
207.20794982
 31
0.0
  0
LINE
  5
169
330
1F
100
AcDbEntity
  8
TOPOVERLAY
100
AcDbLine
 10
465.58913232
 20
207.20794982
 30
0.0
 11
464.8273787
 21
207.20794982
 31
0.0
  0
LINE
  5
16A
330
1F
100
AcDbEntity
  8
TOPOVERLAY
100
AcDbLine
 10
464.8273787
 20
207.20794982
 30
0.0
 11
464.57345998
 21
206.9540311
 31
0.0
  0
LINE
  5
16B
330
1F
100
AcDbEntity
  8
TOPOVERLAY
100
AcDbLine
 10
464.57345998
 20
206.9540311
 30
0.0
 11
464.57345998
 21
205.9383613
 31
0.0
  0
LINE
  5
16C
330
1F
100
AcDbEntity
  8
TOPOVERLAY
100
AcDbLine
 10
464.57345998
 20
205.9383613
 30
0.0
 11
464.8273787
 21
205.68444258
 31
0.0
  0
LINE
  5
16D
330
1F
100
AcDbEntity
  8
TOPOVERLAY
100
AcDbLine
 10
464.8273787
 20
205.68444258
 30
0.0
 11
465.58913232
 21
205.68444258
 31
0.0
  0
LINE
  5
16E
330
1F
100
AcDbEntity
  8
TOPOVERLAY
100
AcDbLine
 10
390.80535758
 20
302.4775383
 30
0.0
 11
390.55143886
 21
302.73145702
 31
0.0
  0
LINE
  5
16F
330
1F
100
AcDbEntity
  8
TOPOVERLAY
100
AcDbLine
 10
390.55143886
 20
302.73145702
 30
0.0
 11
390.04360396
 21
302.73145702
 31
0.0
  0
LINE
  5
170
330
1F
100
AcDbEntity
  8
TOPOVERLAY
100
AcDbLine
 10
390.04360396
 20
302.73145702
 30
0.0
 11
389.78968524
 21
302.4775383
 31
0.0
  0
LINE
  5
171
330
1F
100
AcDbEntity
  8
TOPOVERLAY
100
AcDbLine
 10
389.78968524
 20
302.4775383
 30
0.0
 11
389.78968524
 21
301.4618685
 31
0.0
  0
LINE
  5
172
330
1F
100
AcDbEntity
  8
TOPOVERLAY
100
AcDbLine
 10
389.78968524
 20
301.4618685
 30
0.0
 11
390.04360396
 21
301.20794978
 31
0.0
  0
LINE
  5
173
330
1F
100
AcDbEntity
  8
TOPOVERLAY
100
AcDbLine
 10
390.04360396
 20
301.20794978
 30
0.0
 11
390.55143886
 21
301.20794978
 31
0.0
  0
LINE
  5
174
330
1F
100
AcDbEntity
  8
TOPOVERLAY
100
AcDbLine
 10
390.55143886
 20
301.20794978
 30
0.0
 11
390.80535758
 21
301.4618685
 31
0.0
  0
LINE
  5
175
330
1F
100
AcDbEntity
  8
TOPOVERLAY
100
AcDbLine
 10
391.31319248
 20
302.73145702
 30
0.0
 11
391.31319248
 21
301.20794978
 31
0.0
  0
LINE
  5
176
330
1F
100
AcDbEntity
  8
TOPOVERLAY
100
AcDbLine
 10
391.31319248
 20
301.20794978
 30
0.0
 11
391.31319248
 21
301.9697034
 31
0.0
  0
LINE
  5
177
330
1F
100
AcDbEntity
  8
TOPOVERLAY
100
AcDbLine
 10
391.31319248
 20
301.9697034
 30
0.0
 11
391.5671112
 21
302.22362212
 31
0.0
  0
LINE
  5
178
330
1F
100
AcDbEntity
  8
TOPOVERLAY
100
AcDbLine
 10
391.5671112
 20
302.22362212
 30
0.0
 11
392.0749461
 21
302.22362212
 31
0.0
  0
LINE
  5
179
330
1F
100
AcDbEntity
  8
TOPOVERLAY
100
AcDbLine
 10
392.0749461
 20
302.22362212
 30
0.0
 11
392.32886482
 21
301.9697034
 31
0.0
  0
LINE
  5
17A
330
1F
100
AcDbEntity
  8
TOPOVERLAY
100
AcDbLine
 10
392.32886482
 20
301.9697034
 30
0.0
 11
392.32886482
 21
301.20794978
 31
0.0
  0
LINE
  5
17B
330
1F
100
AcDbEntity
  8
TOPOVERLAY
100
AcDbLine
 10
392.83669972
 20
301.20794978
 30
0.0
 11
393.34453462
 21
301.20794978
 31
0.0
  0
LINE
  5
17C
330
1F
100
AcDbEntity
  8
TOPOVERLAY
100
AcDbLine
 10
393.34453462
 20
301.20794978
 30
0.0
 11
393.09061844
 21
301.20794978
 31
0.0
  0
LINE
  5
17D
330
1F
100
AcDbEntity
  8
TOPOVERLAY
100
AcDbLine
 10
393.09061844
 20
301.20794978
 30
0.0
 11
393.09061844
 21
302.22362212
 31
0.0
  0
LINE
  5
17E
330
1F
100
AcDbEntity
  8
TOPOVERLAY
100
AcDbLine
 10
393.09061844
 20
302.22362212
 30
0.0
 11
392.83669972
 21
302.22362212
 31
0.0
  0
LINE
  5
17F
330
1F
100
AcDbEntity
  8
TOPOVERLAY
100
AcDbLine
 10
395.1219605799999
 20
302.22362212
 30
0.0
 11
394.36020696
 21
302.22362212
 31
0.0
  0
LINE
  5
180
330
1F
100
AcDbEntity
  8
TOPOVERLAY
100
AcDbLine
 10
394.36020696
 20
302.22362212
 30
0.0
 11
394.10628824
 21
301.9697034
 31
0.0
  0
LINE
  5
181
330
1F
100
AcDbEntity
  8
TOPOVERLAY
100
AcDbLine
 10
394.10628824
 20
301.9697034
 30
0.0
 11
394.10628824
 21
301.4618685
 31
0.0
  0
LINE
  5
182
330
1F
100
AcDbEntity
  8
TOPOVERLAY
100
AcDbLine
 10
394.10628824
 20
301.4618685
 30
0.0
 11
394.36020696
 21
301.20794978
 31
0.0
  0
LINE
  5
183
330
1F
100
AcDbEntity
  8
TOPOVERLAY
100
AcDbLine
 10
394.36020696
 20
301.20794978
 30
0.0
 11
395.1219605799999
 21
301.20794978
 31
0.0
  0
LINE
  5
184
330
1F
100
AcDbEntity
  8
TOPOVERLAY
100
AcDbLine
 10
395.62979548
 20
301.20794978
 30
0.0
 11
395.62979548
 21
302.73145702
 31
0.0
  0
LINE
  5
185
330
1F
100
AcDbEntity
  8
TOPOVERLAY
100
AcDbLine
 10
395.62979548
 20
301.71578468
 30
0.0
 11
396.3915491
 21
302.22362212
 31
0.0
  0
LINE
  5
186
330
1F
100
AcDbEntity
  8
TOPOVERLAY
100
AcDbLine
 10
395.62979548
 20
301.71578468
 30
0.0
 11
396.3915491
 21
301.20794978
 31
0.0
  0
LINE
  5
187
330
1F
100
AcDbEntity
  8
TOPOVERLAY
100
AcDbLine
 10
397.15330272
 20
301.20794978
 30
0.0
 11
397.66113762
 21
301.20794978
 31
0.0
  0
LINE
  5
188
330
1F
100
AcDbEntity
  8
TOPOVERLAY
100
AcDbLine
 10
397.66113762
 20
301.20794978
 30
0.0
 11
397.40722144
 21
301.20794978
 31
0.0
  0
LINE
  5
189
330
1F
100
AcDbEntity
  8
TOPOVERLAY
100
AcDbLine
 10
397.40722144
 20
301.20794978
 30
0.0
 11
397.40722144
 21
302.73145702
 31
0.0
  0
LINE
  5
18A
330
1F
100
AcDbEntity
  8
TOPOVERLAY
100
AcDbLine
 10
397.40722144
 20
302.73145702
 30
0.0
 11
397.15330272
 21
302.73145702
 31
0.0
  0
LINE
  5
18B
330
1F
100
AcDbEntity
  8
TOPOVERLAY
100
AcDbLine
 10
399.18464486
 20
301.20794978
 30
0.0
 11
398.67680996
 21
301.20794978
 31
0.0
  0
LINE
  5
18C
330
1F
100
AcDbEntity
  8
TOPOVERLAY
100
AcDbLine
 10
398.67680996
 20
301.20794978
 30
0.0
 11
398.42289124
 21
301.4618685
 31
0.0
  0
LINE
  5
18D
330
1F
100
AcDbEntity
  8
TOPOVERLAY
100
AcDbLine
 10
398.42289124
 20
301.4618685
 30
0.0
 11
398.42289124
 21
301.9697034
 31
0.0
  0
LINE
  5
18E
330
1F
100
AcDbEntity
  8
TOPOVERLAY
100
AcDbLine
 10
398.42289124
 20
301.9697034
 30
0.0
 11
398.67680996
 21
302.22362212
 31
0.0
  0
LINE
  5
18F
330
1F
100
AcDbEntity
  8
TOPOVERLAY
100
AcDbLine
 10
398.67680996
 20
302.22362212
 30
0.0
 11
399.18464486
 21
302.22362212
 31
0.0
  0
LINE
  5
190
330
1F
100
AcDbEntity
  8
TOPOVERLAY
100
AcDbLine
 10
399.18464486
 20
302.22362212
 30
0.0
 11
399.43856358
 21
301.9697034
 31
0.0
  0
LINE
  5
191
330
1F
100
AcDbEntity
  8
TOPOVERLAY
100
AcDbLine
 10
399.43856358
 20
301.9697034
 30
0.0
 11
399.43856358
 21
301.71578468
 31
0.0
  0
LINE
  5
192
330
1F
100
AcDbEntity
  8
TOPOVERLAY
100
AcDbLine
 10
399.43856358
 20
301.71578468
 30
0.0
 11
398.42289124
 21
301.71578468
 31
0.0
  0
LINE
  5
193
330
1F
100
AcDbEntity
  8
TOPOVERLAY
100
AcDbLine
 10
400.2003172
 20
302.4775383
 30
0.0
 11
400.2003172
 21
302.22362212
 31
0.0
  0
LINE
  5
194
330
1F
100
AcDbEntity
  8
TOPOVERLAY
100
AcDbLine
 10
400.2003172
 20
302.22362212
 30
0.0
 11
399.94639848
 21
302.22362212
 31
0.0
  0
LINE
  5
195
330
1F
100
AcDbEntity
  8
TOPOVERLAY
100
AcDbLine
 10
399.94639848
 20
302.22362212
 30
0.0
 11
400.45423338
 21
302.22362212
 31
0.0
  0
LINE
  5
196
330
1F
100
AcDbEntity
  8
TOPOVERLAY
100
AcDbLine
 10
400.45423338
 20
302.22362212
 30
0.0
 11
400.2003172
 21
302.22362212
 31
0.0
  0
LINE
  5
197
330
1F
100
AcDbEntity
  8
TOPOVERLAY
100
AcDbLine
 10
400.2003172
 20
302.22362212
 30
0.0
 11
400.2003172
 21
301.4618685
 31
0.0
  0
LINE
  5
198
330
1F
100
AcDbEntity
  8
TOPOVERLAY
100
AcDbLine
 10
400.2003172
 20
301.4618685
 30
0.0
 11
400.45423338
 21
301.20794978
 31
0.0
  0
LINE
  5
199
330
1F
100
AcDbEntity
  8
TOPOVERLAY
100
AcDbLine
 10
402.73949424
 20
302.73145702
 30
0.0
 11
403.24732914
 21
302.73145702
 31
0.0
  0
LINE
  5
19A
330
1F
100
AcDbEntity
  8
TOPOVERLAY
100
AcDbLine
 10
403.24732914
 20
302.73145702
 30
0.0
 11
402.99341296
 21
302.73145702
 31
0.0
  0
LINE
  5
19B
330
1F
100
AcDbEntity
  8
TOPOVERLAY
100
AcDbLine
 10
402.99341296
 20
302.73145702
 30
0.0
 11
402.99341296
 21
301.20794978
 31
0.0
  0
LINE
  5
19C
330
1F
100
AcDbEntity
  8
TOPOVERLAY
100
AcDbLine
 10
402.99341296
 20
301.20794978
 30
0.0
 11
402.73949424
 21
301.20794978
 31
0.0
  0
LINE
  5
19D
330
1F
100
AcDbEntity
  8
TOPOVERLAY
100
AcDbLine
 10
402.73949424
 20
301.20794978
 30
0.0
 11
403.24732914
 21
301.20794978
 31
0.0
  0
LINE
  5
19E
330
1F
100
AcDbEntity
  8
TOPOVERLAY
100
AcDbLine
 10
404.00908276
 20
301.20794978
 30
0.0
 11
404.00908276
 21
302.22362212
 31
0.0
  0
LINE
  5
19F
330
1F
100
AcDbEntity
  8
TOPOVERLAY
100
AcDbLine
 10
404.00908276
 20
302.22362212
 30
0.0
 11
404.77083638
 21
302.22362212
 31
0.0
  0
LINE
  5
1A0
330
1F
100
AcDbEntity
  8
TOPOVERLAY
100
AcDbLine
 10
404.77083638
 20
302.22362212
 30
0.0
 11
405.0247551
 21
301.9697034
 31
0.0
  0
LINE
  5
1A1
330
1F
100
AcDbEntity
  8
TOPOVERLAY
100
AcDbLine
 10
405.0247551
 20
301.9697034
 30
0.0
 11
405.0247551
 21
301.20794978
 31
0.0
  0
LINE
  5
1A2
330
1F
100
AcDbEntity
  8
TOPOVERLAY
100
AcDbLine
 10
406.54826234
 20
302.73145702
 30
0.0
 11
406.54826234
 21
301.20794978
 31
0.0
  0
LINE
  5
1A3
330
1F
100
AcDbEntity
  8
TOPOVERLAY
100
AcDbLine
 10
406.54826234
 20
301.20794978
 30
0.0
 11
405.78650872
 21
301.20794978
 31
0.0
  0
LINE
  5
1A4
330
1F
100
AcDbEntity
  8
TOPOVERLAY
100
AcDbLine
 10
405.78650872
 20
301.20794978
 30
0.0
 11
405.53259
 21
301.4618685
 31
0.0
  0
LINE
  5
1A5
330
1F
100
AcDbEntity
  8
TOPOVERLAY
100
AcDbLine
 10
405.53259
 20
301.4618685
 30
0.0
 11
405.53259
 21
301.9697034
 31
0.0
  0
LINE
  5
1A6
330
1F
100
AcDbEntity
  8
TOPOVERLAY
100
AcDbLine
 10
405.53259
 20
301.9697034
 30
0.0
 11
405.78650872
 21
302.22362212
 31
0.0
  0
LINE
  5
1A7
330
1F
100
AcDbEntity
  8
TOPOVERLAY
100
AcDbLine
 10
405.78650872
 20
302.22362212
 30
0.0
 11
406.54826234
 21
302.22362212
 31
0.0
  0
LINE
  5
1A8
330
1F
100
AcDbEntity
  8
TOPOVERLAY
100
AcDbLine
 10
407.05609724
 20
301.20794978
 30
0.0
 11
407.56393214
 21
301.20794978
 31
0.0
  0
LINE
  5
1A9
330
1F
100
AcDbEntity
  8
TOPOVERLAY
100
AcDbLine
 10
407.56393214
 20
301.20794978
 30
0.0
 11
407.31001596
 21
301.20794978
 31
0.0
  0
LINE
  5
1AA
330
1F
100
AcDbEntity
  8
TOPOVERLAY
100
AcDbLine
 10
407.31001596
 20
301.20794978
 30
0.0
 11
407.31001596
 21
302.22362212
 31
0.0
  0
LINE
  5
1AB
330
1F
100
AcDbEntity
  8
TOPOVERLAY
100
AcDbLine
 10
407.31001596
 20
302.22362212
 30
0.0
 11
407.05609724
 21
302.22362212
 31
0.0
  0
LINE
  5
1AC
330
1F
100
AcDbEntity
  8
TOPOVERLAY
100
AcDbLine
 10
408.57960448
 20
302.22362212
 30
0.0
 11
409.08743938
 21
302.22362212
 31
0.0
  0
LINE
  5
1AD
330
1F
100
AcDbEntity
  8
TOPOVERLAY
100
AcDbLine
 10
409.08743938
 20
302.22362212
 30
0.0
 11
409.3413581
 21
301.9697034
 31
0.0
  0
LINE
  5
1AE
330
1F
100
AcDbEntity
  8
TOPOVERLAY
100
AcDbLine
 10
409.3413581
 20
301.9697034
 30
0.0
 11
409.3413581
 21
301.20794978
 31
0.0
  0
LINE
  5
1AF
330
1F
100
AcDbEntity
  8
TOPOVERLAY
100
AcDbLine
 10
409.3413581
 20
301.20794978
 30
0.0
 11
408.57960448
 21
301.20794978
 31
0.0
  0
LINE
  5
1B0
330
1F
100
AcDbEntity
  8
TOPOVERLAY
100
AcDbLine
 10
408.57960448
 20
301.20794978
 30
0.0
 11
408.32568576
 21
301.4618685
 31
0.0
  0
LINE
  5
1B1
330
1F
100
AcDbEntity
  8
TOPOVERLAY
100
AcDbLine
 10
408.32568576
 20
301.4618685
 30
0.0
 11
408.57960448
 21
301.71578468
 31
0.0
  0
LINE
  5
1B2
330
1F
100
AcDbEntity
  8
TOPOVERLAY
100
AcDbLine
 10
408.57960448
 20
301.71578468
 30
0.0
 11
409.3413581
 21
301.71578468
 31
0.0
  0
LINE
  5
1B3
330
1F
100
AcDbEntity
  8
TOPOVERLAY
100
AcDbLine
 10
409.849193
 20
301.20794978
 30
0.0
 11
409.849193
 21
302.22362212
 31
0.0
  0
LINE
  5
1B4
330
1F
100
AcDbEntity
  8
TOPOVERLAY
100
AcDbLine
 10
409.849193
 20
302.22362212
 30
0.0
 11
410.61094662
 21
302.22362212
 31
0.0
  0
LINE
  5
1B5
330
1F
100
AcDbEntity
  8
TOPOVERLAY
100
AcDbLine
 10
410.61094662
 20
302.22362212
 30
0.0
 11
410.86486534
 21
301.9697034
 31
0.0
  0
LINE
  5
1B6
330
1F
100
AcDbEntity
  8
TOPOVERLAY
100
AcDbLine
 10
410.86486534
 20
301.9697034
 30
0.0
 11
410.86486534
 21
301.20794978
 31
0.0
  0
LINE
  5
1B7
330
1F
100
AcDbEntity
  8
TOPOVERLAY
100
AcDbLine
 10
412.89620748
 20
301.20794978
 30
0.0
 11
412.89620748
 21
302.73145702
 31
0.0
  0
LINE
  5
1B8
330
1F
100
AcDbEntity
  8
TOPOVERLAY
100
AcDbLine
 10
412.89620748
 20
302.73145702
 30
0.0
 11
413.6579611
 21
302.73145702
 31
0.0
  0
LINE
  5
1B9
330
1F
100
AcDbEntity
  8
TOPOVERLAY
100
AcDbLine
 10
413.6579611
 20
302.73145702
 30
0.0
 11
413.91187982
 21
302.4775383
 31
0.0
  0
LINE
  5
1BA
330
1F
100
AcDbEntity
  8
TOPOVERLAY
100
AcDbLine
 10
413.91187982
 20
302.4775383
 30
0.0
 11
413.91187982
 21
301.9697034
 31
0.0
  0
LINE
  5
1BB
330
1F
100
AcDbEntity
  8
TOPOVERLAY
100
AcDbLine
 10
413.91187982
 20
301.9697034
 30
0.0
 11
413.6579611
 21
301.71578468
 31
0.0
  0
LINE
  5
1BC
330
1F
100
AcDbEntity
  8
TOPOVERLAY
100
AcDbLine
 10
413.6579611
 20
301.71578468
 30
0.0
 11
412.89620748
 21
301.71578468
 31
0.0
  0
LINE
  5
1BD
330
1F
100
AcDbEntity
  8
TOPOVERLAY
100
AcDbLine
 10
413.40404238
 20
301.71578468
 30
0.0
 11
413.91187982
 21
301.20794978
 31
0.0
  0
LINE
  5
1BE
330
1F
100
AcDbEntity
  8
TOPOVERLAY
100
AcDbLine
 10
415.18146834
 20
301.20794978
 30
0.0
 11
414.67363344
 21
301.20794978
 31
0.0
  0
LINE
  5
1BF
330
1F
100
AcDbEntity
  8
TOPOVERLAY
100
AcDbLine
 10
414.67363344
 20
301.20794978
 30
0.0
 11
414.41971472
 21
301.4618685
 31
0.0
  0
LINE
  5
1C0
330
1F
100
AcDbEntity
  8
TOPOVERLAY
100
AcDbLine
 10
414.41971472
 20
301.4618685
 30
0.0
 11
414.41971472
 21
301.9697034
 31
0.0
  0
LINE
  5
1C1
330
1F
100
AcDbEntity
  8
TOPOVERLAY
100
AcDbLine
 10
414.41971472
 20
301.9697034
 30
0.0
 11
414.67363344
 21
302.22362212
 31
0.0
  0
LINE
  5
1C2
330
1F
100
AcDbEntity
  8
TOPOVERLAY
100
AcDbLine
 10
414.67363344
 20
302.22362212
 30
0.0
 11
415.18146834
 21
302.22362212
 31
0.0
  0
LINE
  5
1C3
330
1F
100
AcDbEntity
  8
TOPOVERLAY
100
AcDbLine
 10
415.18146834
 20
302.22362212
 30
0.0
 11
415.43538706
 21
301.9697034
 31
0.0
  0
LINE
  5
1C4
330
1F
100
AcDbEntity
  8
TOPOVERLAY
100
AcDbLine
 10
415.43538706
 20
301.9697034
 30
0.0
 11
415.43538706
 21
301.71578468
 31
0.0
  0
LINE
  5
1C5
330
1F
100
AcDbEntity
  8
TOPOVERLAY
100
AcDbLine
 10
415.43538706
 20
301.71578468
 30
0.0
 11
414.41971472
 21
301.71578468
 31
0.0
  0
LINE
  5
1C6
330
1F
100
AcDbEntity
  8
TOPOVERLAY
100
AcDbLine
 10
415.94322196
 20
302.22362212
 30
0.0
 11
416.45105686
 21
301.20794978
 31
0.0
  0
LINE
  5
1C7
330
1F
100
AcDbEntity
  8
TOPOVERLAY
100
AcDbLine
 10
416.45105686
 20
301.20794978
 30
0.0
 11
416.9588943
 21
302.22362212
 31
0.0
  0
LINE
  5
1C8
330
1F
100
AcDbEntity
  8
TOPOVERLAY
100
AcDbLine
 10
418.99023644
 20
302.73145702
 30
0.0
 11
418.99023644
 21
301.20794978
 31
0.0
  0
LINE
  5
1C9
330
1F
100
AcDbEntity
  8
TOPOVERLAY
100
AcDbLine
 10
418.99023644
 20
301.20794978
 30
0.0
 11
419.75199006
 21
301.20794978
 31
0.0
  0
LINE
  5
1CA
330
1F
100
AcDbEntity
  8
TOPOVERLAY
100
AcDbLine
 10
419.75199006
 20
301.20794978
 30
0.0
 11
420.00590878
 21
301.4618685
 31
0.0
  0
LINE
  5
1CB
330
1F
100
AcDbEntity
  8
TOPOVERLAY
100
AcDbLine
 10
420.00590878
 20
301.4618685
 30
0.0
 11
420.00590878
 21
302.4775383
 31
0.0
  0
LINE
  5
1CC
330
1F
100
AcDbEntity
  8
TOPOVERLAY
100
AcDbLine
 10
420.00590878
 20
302.4775383
 30
0.0
 11
419.75199006
 21
302.73145702
 31
0.0
  0
LINE
  5
1CD
330
1F
100
AcDbEntity
  8
TOPOVERLAY
100
AcDbLine
 10
419.75199006
 20
302.73145702
 30
0.0
 11
418.99023644
 21
302.73145702
 31
0.0
  0
LINE
  5
1CE
330
1F
100
AcDbEntity
  8
TOPOVERLAY
100
AcDbLine
 10
375.7896853
 20
301.20794978
 30
0.0
 11
376.2975202
 21
301.20794978
 31
0.0
  0
LINE
  5
1CF
330
1F
100
AcDbEntity
  8
TOPOVERLAY
100
AcDbLine
 10
376.2975202
 20
301.20794978
 30
0.0
 11
376.04360402
 21
301.20794978
 31
0.0
  0
LINE
  5
1D0
330
1F
100
AcDbEntity
  8
TOPOVERLAY
100
AcDbLine
 10
376.04360402
 20
301.20794978
 30
0.0
 11
376.04360402
 21
302.73145702
 31
0.0
  0
LINE
  5
1D1
330
1F
100
AcDbEntity
  8
TOPOVERLAY
100
AcDbLine
 10
376.04360402
 20
302.73145702
 30
0.0
 11
375.7896853
 21
302.4775383
 31
0.0
  0
LINE
  5
1D2
330
1F
100
AcDbEntity
  8
TOPOVERLAY
100
AcDbLine
 10
377.05927382
 20
302.4775383
 30
0.0
 11
377.31319254
 21
302.73145702
 31
0.0
  0
LINE
  5
1D3
330
1F
100
AcDbEntity
  8
TOPOVERLAY
100
AcDbLine
 10
377.31319254
 20
302.73145702
 30
0.0
 11
377.82102744
 21
302.73145702
 31
0.0
  0
LINE
  5
1D4
330
1F
100
AcDbEntity
  8
TOPOVERLAY
100
AcDbLine
 10
377.82102744
 20
302.73145702
 30
0.0
 11
378.07494616
 21
302.4775383
 31
0.0
  0
LINE
  5
1D5
330
1F
100
AcDbEntity
  8
TOPOVERLAY
100
AcDbLine
 10
378.07494616
 20
302.4775383
 30
0.0
 11
378.07494616
 21
301.4618685
 31
0.0
  0
LINE
  5
1D6
330
1F
100
AcDbEntity
  8
TOPOVERLAY
100
AcDbLine
 10
378.07494616
 20
301.4618685
 30
0.0
 11
377.82102744
 21
301.20794978
 31
0.0
  0
LINE
  5
1D7
330
1F
100
AcDbEntity
  8
TOPOVERLAY
100
AcDbLine
 10
377.82102744
 20
301.20794978
 30
0.0
 11
377.31319254
 21
301.20794978
 31
0.0
  0
LINE
  5
1D8
330
1F
100
AcDbEntity
  8
TOPOVERLAY
100
AcDbLine
 10
377.31319254
 20
301.20794978
 30
0.0
 11
377.05927382
 21
301.4618685
 31
0.0
  0
LINE
  5
1D9
330
1F
100
AcDbEntity
  8
TOPOVERLAY
100
AcDbLine
 10
377.05927382
 20
301.4618685
 30
0.0
 11
377.05927382
 21
302.4775383
 31
0.0
  0
LINE
  5
1DA
330
1F
100
AcDbEntity
  8
TOPOVERLAY
100
AcDbLine
 10
378.58278106
 20
302.4775383
 30
0.0
 11
378.83669978
 21
302.73145702
 31
0.0
  0
LINE
  5
1DB
330
1F
100
AcDbEntity
  8
TOPOVERLAY
100
AcDbLine
 10
378.83669978
 20
302.73145702
 30
0.0
 11
379.34453468
 21
302.73145702
 31
0.0
  0
LINE
  5
1DC
330
1F
100
AcDbEntity
  8
TOPOVERLAY
100
AcDbLine
 10
379.34453468
 20
302.73145702
 30
0.0
 11
379.5984534
 21
302.4775383
 31
0.0
  0
LINE
  5
1DD
330
1F
100
AcDbEntity
  8
TOPOVERLAY
100
AcDbLine
 10
379.5984534
 20
302.4775383
 30
0.0
 11
379.5984534
 21
301.4618685
 31
0.0
  0
LINE
  5
1DE
330
1F
100
AcDbEntity
  8
TOPOVERLAY
100
AcDbLine
 10
379.5984534
 20
301.4618685
 30
0.0
 11
379.34453468
 21
301.20794978
 31
0.0
  0
LINE
  5
1DF
330
1F
100
AcDbEntity
  8
TOPOVERLAY
100
AcDbLine
 10
379.34453468
 20
301.20794978
 30
0.0
 11
378.83669978
 21
301.20794978
 31
0.0
  0
LINE
  5
1E0
330
1F
100
AcDbEntity
  8
TOPOVERLAY
100
AcDbLine
 10
378.83669978
 20
301.20794978
 30
0.0
 11
378.58278106
 21
301.4618685
 31
0.0
  0
LINE
  5
1E1
330
1F
100
AcDbEntity
  8
TOPOVERLAY
100
AcDbLine
 10
378.58278106
 20
301.4618685
 30
0.0
 11
378.58278106
 21
302.4775383
 31
0.0
  0
LINE
  5
1E2
330
1F
100
AcDbEntity
  8
TOPOVERLAY
100
AcDbLine
 10
380.1062883
 20
302.4775383
 30
0.0
 11
380.36020702
 21
302.73145702
 31
0.0
  0
LINE
  5
1E3
330
1F
100
AcDbEntity
  8
TOPOVERLAY
100
AcDbLine
 10
380.36020702
 20
302.73145702
 30
0.0
 11
380.86804192
 21
302.73145702
 31
0.0
  0
LINE
  5
1E4
330
1F
100
AcDbEntity
  8
TOPOVERLAY
100
AcDbLine
 10
380.86804192
 20
302.73145702
 30
0.0
 11
381.12196064
 21
302.4775383
 31
0.0
  0
LINE
  5
1E5
330
1F
100
AcDbEntity
  8
TOPOVERLAY
100
AcDbLine
 10
381.12196064
 20
302.4775383
 30
0.0
 11
381.12196064
 21
302.22362212
 31
0.0
  0
LINE
  5
1E6
330
1F
100
AcDbEntity
  8
TOPOVERLAY
100
AcDbLine
 10
381.12196064
 20
302.22362212
 30
0.0
 11
380.86804192
 21
301.9697034
 31
0.0
  0
LINE
  5
1E7
330
1F
100
AcDbEntity
  8
TOPOVERLAY
100
AcDbLine
 10
380.86804192
 20
301.9697034
 30
0.0
 11
381.12196064
 21
301.71578468
 31
0.0
  0
LINE
  5
1E8
330
1F
100
AcDbEntity
  8
TOPOVERLAY
100
AcDbLine
 10
381.12196064
 20
301.71578468
 30
0.0
 11
381.12196064
 21
301.4618685
 31
0.0
  0
LINE
  5
1E9
330
1F
100
AcDbEntity
  8
TOPOVERLAY
100
AcDbLine
 10
381.12196064
 20
301.4618685
 30
0.0
 11
380.86804192
 21
301.20794978
 31
0.0
  0
LINE
  5
1EA
330
1F
100
AcDbEntity
  8
TOPOVERLAY
100
AcDbLine
 10
380.86804192
 20
301.20794978
 30
0.0
 11
380.36020702
 21
301.20794978
 31
0.0
  0
LINE
  5
1EB
330
1F
100
AcDbEntity
  8
TOPOVERLAY
100
AcDbLine
 10
380.36020702
 20
301.20794978
 30
0.0
 11
380.1062883
 21
301.4618685
 31
0.0
  0
LINE
  5
1EC
330
1F
100
AcDbEntity
  8
TOPOVERLAY
100
AcDbLine
 10
380.1062883
 20
301.4618685
 30
0.0
 11
380.1062883
 21
301.71578468
 31
0.0
  0
LINE
  5
1ED
330
1F
100
AcDbEntity
  8
TOPOVERLAY
100
AcDbLine
 10
380.1062883
 20
301.71578468
 30
0.0
 11
380.36020702
 21
301.9697034
 31
0.0
  0
LINE
  5
1EE
330
1F
100
AcDbEntity
  8
TOPOVERLAY
100
AcDbLine
 10
380.36020702
 20
301.9697034
 30
0.0
 11
380.1062883
 21
302.22362212
 31
0.0
  0
LINE
  5
1EF
330
1F
100
AcDbEntity
  8
TOPOVERLAY
100
AcDbLine
 10
380.1062883
 20
302.22362212
 30
0.0
 11
380.1062883
 21
302.4775383
 31
0.0
  0
LINE
  5
1F0
330
1F
100
AcDbEntity
  8
TOPOVERLAY
100
AcDbLine
 10
380.36020702
 20
301.9697034
 30
0.0
 11
380.86804192
 21
301.9697034
 31
0.0
  0
LINE
  5
1F1
330
1F
100
AcDbEntity
  8
TOPOVERLAY
100
AcDbLine
 10
382.64546788
 20
302.73145702
 30
0.0
 11
381.62979554
 21
302.73145702
 31
0.0
  0
LINE
  5
1F2
330
1F
100
AcDbEntity
  8
TOPOVERLAY
100
AcDbLine
 10
381.62979554
 20
302.73145702
 30
0.0
 11
381.62979554
 21
301.9697034
 31
0.0
  0
LINE
  5
1F3
330
1F
100
AcDbEntity
  8
TOPOVERLAY
100
AcDbLine
 10
381.62979554
 20
301.9697034
 30
0.0
 11
382.13763044
 21
302.22362212
 31
0.0
  0
LINE
  5
1F4
330
1F
100
AcDbEntity
  8
TOPOVERLAY
100
AcDbLine
 10
382.13763044
 20
302.22362212
 30
0.0
 11
382.39154916
 21
302.22362212
 31
0.0
  0
LINE
  5
1F5
330
1F
100
AcDbEntity
  8
TOPOVERLAY
100
AcDbLine
 10
382.39154916
 20
302.22362212
 30
0.0
 11
382.64546788
 21
301.9697034
 31
0.0
  0
LINE
  5
1F6
330
1F
100
AcDbEntity
  8
TOPOVERLAY
100
AcDbLine
 10
382.64546788
 20
301.9697034
 30
0.0
 11
382.64546788
 21
301.4618685
 31
0.0
  0
LINE
  5
1F7
330
1F
100
AcDbEntity
  8
TOPOVERLAY
100
AcDbLine
 10
382.64546788
 20
301.4618685
 30
0.0
 11
382.39154916
 21
301.20794978
 31
0.0
  0
LINE
  5
1F8
330
1F
100
AcDbEntity
  8
TOPOVERLAY
100
AcDbLine
 10
382.39154916
 20
301.20794978
 30
0.0
 11
381.88371426
 21
301.20794978
 31
0.0
  0
LINE
  5
1F9
330
1F
100
AcDbEntity
  8
TOPOVERLAY
100
AcDbLine
 10
381.88371426
 20
301.20794978
 30
0.0
 11
381.62979554
 21
301.4618685
 31
0.0
  0
LINE
  5
1FA
330
1F
100
AcDbEntity
  8
TOPOVERLAY
100
AcDbLine
 10
383.15330278
 20
302.73145702
 30
0.0
 11
384.16897512
 21
302.73145702
 31
0.0
  0
LINE
  5
1FB
330
1F
100
AcDbEntity
  8
TOPOVERLAY
100
AcDbLine
 10
384.16897512
 20
302.73145702
 30
0.0
 11
384.16897512
 21
302.4775383
 31
0.0
  0
LINE
  5
1FC
330
1F
100
AcDbEntity
  8
TOPOVERLAY
100
AcDbLine
 10
384.16897512
 20
302.4775383
 30
0.0
 11
383.15330278
 21
301.4618685
 31
0.0
  0
LINE
  5
1FD
330
1F
100
AcDbEntity
  8
TOPOVERLAY
100
AcDbLine
 10
383.15330278
 20
301.4618685
 30
0.0
 11
383.15330278
 21
301.20794978
 31
0.0
  0
ENDSEC
  0
SECTION
  2
OBJECTS
  0
DICTIONARY
  5
C
330
0
100
AcDbDictionary
  3
ACAD_GROUP
350
D
  3
ACAD_LAYOUT
350
1A
  3
ACAD_MATERIAL
350
43
  3
ACAD_MLEADERSTYLE
350
221
  3
ACAD_MLINESTYLE
350
17
  3
ACAD_PLOTSETTINGS
350
19
  3
ACAD_SCALELIST
350
47
  3
ACAD_VISUALSTYLE
350
2A
  3
ACDBHEADERROUNDTRIPXREC
350
1FE
  3
ACDBVARIABLEDICTIONARY
350
21F
  0
DICTIONARY
  5
228
330
8
100
AcDbDictionary
280
     1
  3
ACAD_XREC_ROUNDTRIP
360
229
  0
DICTIONARY
  5
D
102
{ACAD_REACTORS
330
C
102
}
330
C
100
AcDbDictionary
  0
DICTIONARY
  5
1A
102
{ACAD_REACTORS
330
C
102
}
330
C
100
AcDbDictionary
  0
DICTIONARY
  5
43
102
{ACAD_REACTORS
330
C
102
}
330
C
100
AcDbDictionary
  3
BYBLOCK
350
45
  3
BYLAYER
350
44
  3
GLOBAL
350
46
  0
DICTIONARY
  5
221
102
{ACAD_REACTORS
330
C
102
}
330
C
100
AcDbDictionary
  0
DICTIONARY
  5
17
102
{ACAD_REACTORS
330
C
102
}
330
C
100
AcDbDictionary
  3
STANDARD
350
18
  0
DICTIONARY
  5
19
102
{ACAD_REACTORS
330
C
102
}
330
C
100
AcDbDictionary
  0
DICTIONARY
  5
47
102
{ACAD_REACTORS
330
C
102
}
330
C
100
AcDbDictionary
  3
A0
350
48
  3
A1
350
49
  3
A2
350
4A
  3
A3
350
4B
  3
A4
350
4C
  3
A5
350
4D
  3
A6
350
4E
  3
A7
350
4F
  3
A8
350
50
  3
A9
350
51
  3
B0
350
52
  3
B1
350
53
  3
B2
350
54
  3
B3
350
55
  3
B4
350
56
  3
B5
350
57
  3
B6
350
58
  3
B7
350
59
  3
B8
350
5A
  3
B9
350
5B
  3
C0
350
5C
  3
C1
350
5D
  3
C2
350
5E
  3
C3
350
5F
  3
C4
350
60
  3
C5
350
61
  3
C6
350
62
  3
C7
350
63
  3
C8
350
64
  3
C9
350
65
  3
D0
350
66
  3
D1
350
67
  3
D2
350
68
  0
DICTIONARY
  5
2A
102
{ACAD_REACTORS
330
C
102
}
330
C
100
AcDbDictionary
  3
2DWIREFRAME
350
2F
  3
BASIC
350
32
  3
BRIGHTEN
350
36
  3
COLORCHANGE
350
3A
  3
CONCEPTUAL
350
34
  3
DIM
350
35
  3
EDGECOLOROFF
350
3D
  3
FACEPATTERN
350
39
  3
FLAT
350
2B
  3
FLATWITHEDGES
350
2C
  3
GOURAUD
350
2D
  3
GOURAUDWITHEDGES
350
2E
  3
HIDDEN
350
31
  3
JITTEROFF
350
3B
  3
LINEPATTERN
350
38
  3
OVERHANGOFF
350
3C
  3
REALISTIC
350
33
  3
SHADED
350
42
  3
SHADED_WITH_EDGES
350
41
  3
SHADES_OF_GRAY
350
3E
  3
SKETCHY
350
3F
  3
THICKEN
350
37
  3
WIREFRAME
350
30
  3
X-RAY
350
40
  0
DICTIONARY
  5
1FE
102
{ACAD_REACTORS
330
C
102
}
330
C
100
AcDbDictionary
  3
CEPSNID
350
208
  3
CEPSNTYPE
350
207
  3
DIMSTYLEDATA
350
21E
  3
FINGERPRINTGUID
350
209
  3
HYPERLINKBASE
350
201
  3
INSUNITS
350
206
  3
LAYOUTDICT
350
203
  3
LWETCUNION
350
205
  3
PLOTSETDICT
350
204
  3
PSVPSCALE
350
20B
  3
PUCSBASE
350
20E
  3
PUCSORGBACK
350
214
  3
PUCSORGBOTTOM
350
210
  3
PUCSORGFRONT
350
213
  3
PUCSORGLEFT
350
211
  3
PUCSORGRIGHT
350
212
  3
PUCSORGTOP
350
20F
  3
PUCSORTHOREF
350
20C
  3
PUCSORTHOVIEW
350
20D
  3
STYLESHEET
350
202
  3
TSTACKALIGN
350
1FF
  3
TSTACKSIZE
350
200
  3
UCSBASE
350
217
  3
UCSORGBACK
350
21D
  3
UCSORGBOTTOM
350
219
  3
UCSORGFRONT
350
21C
  3
UCSORGLEFT
350
21A
  3
UCSORGRIGHT
350
21B
  3
UCSORGTOP
350
218
  3
UCSORTHOREF
350
215
  3
UCSORTHOVIEW
350
216
  3
VERSIONGUID
350
20A
  0
DICTIONARY
  5
21F
102
{ACAD_REACTORS
330
C
102
}
330
C
100
AcDbDictionary
  3
CANNOSCALE
350
22A
  3
DIMASSOC
350
226
  3
HIDETEXT
350
227
  3
MSLTSCALE
350
22B
  3
PSOLHEIGHT
350
223
  3
PSOLWIDTH
350
222
  0
XRECORD
  5
229
102
{ACAD_REACTORS
330
228
102
}
330
228
100
AcDbXrecord
102
VTR_0.000_0.000_1.000_1.000_GRIDDISPLAY
 70
     3
102
VTR_0.000_0.000_1.000_1.000_GRIDMAJOR
 70
     5
102
VTR_0.000_0.000_1.000_1.000_DEFAULTLIGHTING
280
     1
102
VTR_0.000_0.000_1.000_1.000_DEFAULTLIGHTINGTYPE
 70
     1
102
VTR_0.000_0.000_1.000_1.000_BRIGHTNESS
141
0.0
102
VTR_0.000_0.000_1.000_1.000_CONTRAST
142
0.0
  0
MATERIAL
  5
45
102
{ACAD_REACTORS
330
43
102
}
102
{ACAD_XDICTIONARY
360
22E
102
}
330
43
100
AcDbMaterial
  1
BYBLOCK
  0
MATERIAL
  5
44
102
{ACAD_REACTORS
330
43
102
}
102
{ACAD_XDICTIONARY
360
22C
102
}
330
43
100
AcDbMaterial
  1
BYLAYER
  0
MATERIAL
  5
46
102
{ACAD_REACTORS
330
43
102
}
102
{ACAD_XDICTIONARY
360
230
102
}
330
43
100
AcDbMaterial
  1
GLOBAL
  0
MLINESTYLE
  5
18
102
{ACAD_REACTORS
330
17
102
}
330
17
100
AcDbMlineStyle
  2
Standard
 70
     0
  3

 62
   256
 51
90.0
 52
90.0
 71
     2
 49
0.5
 62
   256
  6
BYLAYER
 49
-0.5
 62
   256
  6
BYLAYER
  0
ACAD_PROXY_OBJECT
  5
48
102
{ACAD_REACTORS
330
47
102
}
330
47
100
AcDbProxyObject
 90
      499
 91
      503
 93
       41
310
903313A31580
  0
ACAD_PROXY_OBJECT
  5
49
102
{ACAD_REACTORS
330
47
102
}
330
47
100
AcDbProxyObject
 90
      499
 91
      503
 93
      105
310
903313A324000000000000004000
  0
ACAD_PROXY_OBJECT
  5
4A
102
{ACAD_REACTORS
330
47
102
}
330
47
100
AcDbProxyObject
 90
      499
 91
      503
 93
      105
310
903313A344000000000000104000
  0
ACAD_PROXY_OBJECT
  5
4B
102
{ACAD_REACTORS
330
47
102
}
330
47
100
AcDbProxyObject
 90
      499
 91
      503
 93
      105
310
903313A354000000000000144000
  0
ACAD_PROXY_OBJECT
  5
4C
102
{ACAD_REACTORS
330
47
102
}
330
47
100
AcDbProxyObject
 90
      499
 91
      503
 93
      105
310
903313A384000000000000204000
  0
ACAD_PROXY_OBJECT
  5
4D
102
{ACAD_REACTORS
330
47
102
}
330
47
100
AcDbProxyObject
 90
      499
 91
      503
 93
      113
310
904313A31304000000000000244000
  0
ACAD_PROXY_OBJECT
  5
4E
102
{ACAD_REACTORS
330
47
102
}
330
47
100
AcDbProxyObject
 90
      499
 91
      503
 93
      113
310
904313A31364000000000000304000
  0
ACAD_PROXY_OBJECT
  5
4F
102
{ACAD_REACTORS
330
47
102
}
330
47
100
AcDbProxyObject
 90
      499
 91
      503
 93
      113
310
904313A32304000000000000344000
  0
ACAD_PROXY_OBJECT
  5
50
102
{ACAD_REACTORS
330
47
102
}
330
47
100
AcDbProxyObject
 90
      499
 91
      503
 93
      113
310
904313A333040000000000003E4000
  0
ACAD_PROXY_OBJECT
  5
51
102
{ACAD_REACTORS
330
47
102
}
330
47
100
AcDbProxyObject
 90
      499
 91
      503
 93
      113
310
904313A34304000000000000444000
  0
ACAD_PROXY_OBJECT
  5
52
102
{ACAD_REACTORS
330
47
102
}
330
47
100
AcDbProxyObject
 90
      499
 91
      503
 93
      113
310
904313A35304000000000000494000
  0
ACAD_PROXY_OBJECT
  5
53
102
{ACAD_REACTORS
330
47
102
}
330
47
100
AcDbProxyObject
 90
      499
 91
      503
 93
      121
310
905313A3130304000000000000594000
  0
ACAD_PROXY_OBJECT
  5
54
102
{ACAD_REACTORS
330
47
102
}
330
47
100
AcDbProxyObject
 90
      499
 91
      503
 93
      105
310
903323A310000000000000010100
  0
ACAD_PROXY_OBJECT
  5
55
102
{ACAD_REACTORS
330
47
102
}
330
47
100
AcDbProxyObject
 90
      499
 91
      503
 93
      105
310
903343A310000000000000410100
  0
ACAD_PROXY_OBJECT
  5
56
102
{ACAD_REACTORS
330
47
102
}
330
47
100
AcDbProxyObject
 90
      499
 91
      503
 93
      105
310
903383A310000000000000810100
  0
ACAD_PROXY_OBJECT
  5
57
102
{ACAD_REACTORS
330
47
102
}
330
47
100
AcDbProxyObject
 90
      499
 91
      503
 93
      113
310
90431303A310000000000000910100
  0
ACAD_PROXY_OBJECT
  5
58
102
{ACAD_REACTORS
330
47
102
}
330
47
100
AcDbProxyObject
 90
      499
 91
      503
 93
      121
310
9053130303A310000000000001650100
  0
ACAD_PROXY_OBJECT
  5
59
102
{ACAD_REACTORS
330
47
102
}
330
47
100
AcDbProxyObject
 90
      499
 91
      503
 93
      257
310
90E312F31323822203D2031272D3022000000000000200FC000000000000284000
  0
ACAD_PROXY_OBJECT
  5
5A
102
{ACAD_REACTORS
330
47
102
}
330
47
100
AcDbProxyObject
 90
      499
 91
      503
 93
      249
310
90D312F363422203D2031272D3022000000000000240FC000000000000284000
  0
ACAD_PROXY_OBJECT
  5
5B
102
{ACAD_REACTORS
330
47
102
}
330
47
100
AcDbProxyObject
 90
      499
 91
      503
 93
      249
310
90D312F333222203D2031272D3022000000000000280FC000000000000284000
  0
ACAD_PROXY_OBJECT
  5
5C
102
{ACAD_REACTORS
330
47
102
}
330
47
100
AcDbProxyObject
 90
      499
 91
      503
 93
      249
310
90D312F313622203D2031272D30220000000000002C0FC000000000000284000
  0
ACAD_PROXY_OBJECT
  5
5D
102
{ACAD_REACTORS
330
47
102
}
330
47
100
AcDbProxyObject
 90
      499
 91
      503
 93
      249
310
90D332F333222203D2031272D30220000000000002E0FC000000000000284000
  0
ACAD_PROXY_OBJECT
  5
5E
102
{ACAD_REACTORS
330
47
102
}
330
47
100
AcDbProxyObject
 90
      499
 91
      503
 93
      241
310
90C312F3822203D2031272D3022000000000000300FC000000000000284000
  0
ACAD_PROXY_OBJECT
  5
5F
102
{ACAD_REACTORS
330
47
102
}
330
47
100
AcDbProxyObject
 90
      499
 91
      503
 93
      249
310
90D332F313622203D2031272D3022000000000000320FC000000000000284000
  0
ACAD_PROXY_OBJECT
  5
60
102
{ACAD_REACTORS
330
47
102
}
330
47
100
AcDbProxyObject
 90
      499
 91
      503
 93
      241
310
90C312F3422203D2031272D3022000000000000340FC000000000000284000
  0
ACAD_PROXY_OBJECT
  5
61
102
{ACAD_REACTORS
330
47
102
}
330
47
100
AcDbProxyObject
 90
      499
 91
      503
 93
      241
310
90C332F3822203D2031272D3022000000000000360FC000000000000284000
  0
ACAD_PROXY_OBJECT
  5
62
102
{ACAD_REACTORS
330
47
102
}
330
47
100
AcDbProxyObject
 90
      499
 91
      503
 93
      241
310
90C312F3222203D2031272D3022000000000000380FC000000000000284000
  0
ACAD_PROXY_OBJECT
  5
63
102
{ACAD_REACTORS
330
47
102
}
330
47
100
AcDbProxyObject
 90
      499
 91
      503
 93
      241
310
90C332F3422203D2031272D30220000000000003A0FC000000000000284000
  0
ACAD_PROXY_OBJECT
  5
64
102
{ACAD_REACTORS
330
47
102
}
330
47
100
AcDbProxyObject
 90
      499
 91
      503
 93
      161
310
90A3122203D2031272D30224000000000000284000
  0
ACAD_PROXY_OBJECT
  5
65
102
{ACAD_REACTORS
330
47
102
}
330
47
100
AcDbProxyObject
 90
      499
 91
      503
 93
      257
310
90E312D312F3222203D2031272D30220000000000003E0FC000000000000284000
  0
ACAD_PROXY_OBJECT
  5
66
102
{ACAD_REACTORS
330
47
102
}
330
47
100
AcDbProxyObject
 90
      499
 91
      503
 93
      225
310
90A3322203D2031272D302200000000000002100000000000000284000
  0
ACAD_PROXY_OBJECT
  5
67
102
{ACAD_REACTORS
330
47
102
}
330
47
100
AcDbProxyObject
 90
      499
 91
      503
 93
      225
310
90A3622203D2031272D302200000000000006100000000000000284000
  0
ACAD_PROXY_OBJECT
  5
68
102
{ACAD_REACTORS
330
47
102
}
330
47
100
AcDbProxyObject
 90
      499
 91
      503
 93
      249
310
90D31272D3022203D2031272D30220000000000000A100000000000000284000
  0
ACAD_PROXY_OBJECT
  5
2F
102
{ACAD_REACTORS
330
2A
102
}
330
2A
100
AcDbProxyObject
 90
      499
 91
      501
 93
      436
310
42CC9915DA5C99599C985B595049028333333333333E33F0000000000000F90107901411070040501600405405064090741402480A0340
1001
ACAD
1000
AcDbSavedByObjectVersion
1070
     0
  0
ACAD_PROXY_OBJECT
  5
32
102
{ACAD_REACTORS
330
2A
102
}
330
2A
100
AcDbProxyObject
 90
      499
 91
      501
 93
      388
310
4150985CDA58D07406404333333333333E33F0000000000000F90107A41107004050150841D405064090741402480A0350
1001
ACAD
1000
AcDbSavedByObjectVersion
1070
     0
  0
ACAD_PROXY_OBJECT
  5
36
102
{ACAD_REACTORS
330
2A
102
}
330
2A
100
AcDbProxyObject
 90
      499
 91
      501
 93
      428
310
42109C9A59DA1D195B90C409028333333333333E33F0000000000000F9010790141107004050150841D405064090741402480A029950
1001
ACAD
1000
AcDbSavedByObjectVersion
1070
     0
  0
ACAD_PROXY_OBJECT
  5
3A
102
{ACAD_REACTORS
330
2A
102
}
330
2A
100
AcDbProxyObject
 90
      499
 91
      501
 93
      452
310
42D0DBDB1BDC90DA185B99D95104090240C333333333333E33F0000000000000F90108901411070040501508421405064090741402480A0350
1001
ACAD
1000
AcDbSavedByObjectVersion
1070
     0
  0
ACAD_PROXY_OBJECT
  5
34
102
{ACAD_REACTORS
330
2A
102
}
330
2A
100
AcDbProxyObject
 90
      499
 91
      501
 93
      500
310
4290DBDB98D95C1D1D585B10940D028333333333333E33F0000000000000F90107902409070040501000000000018199010841D405064090740C02480A0340
1001
ACAD
1000
AcDbSavedByObjectVersion
1070
     0
  0
ACAD_PROXY_OBJECT
  5
35
102
{ACAD_REACTORS
330
2A
102
}
330
2A
100
AcDbProxyObject
 90
      499
 91
      501
 93
      412
310
40D11A5B50B409028333333333333E33F0000000000000F9010790141107004050150841D405064090741402480A02677FFFFFD0
1001
ACAD
1000
AcDbSavedByObjectVersion
1070
     0
  0
ACAD_PROXY_OBJECT
  5
3D
102
{ACAD_REACTORS
330
2A
102
}
330
2A
100
AcDbProxyObject
 90
      499
 91
      501
 93
      452
310
43115919D950DBDB1BDC93D999916409028333333333333E33F0000000000000F9010790141107004050150841D405064090741402480A0350
1001
ACAD
1000
AcDbSavedByObjectVersion
1070
     0
  0
ACAD_PROXY_OBJECT
  5
39
102
{ACAD_REACTORS
330
2A
102
}
330
2A
100
AcDbProxyObject
 90
      499
 91
      501
 93
      444
310
42D19858D95C185D1D195C9B90F409028333333333333E33F0000000000000F9010790141107004050150841D405064090741402480A0350
1001
ACAD
1000
AcDbSavedByObjectVersion
1070
     0
  0
ACAD_PROXY_OBJECT
  5
2B
102
{ACAD_REACTORS
330
2A
102
}
330
2A
100
AcDbProxyObject
 90
      499
 91
      501
 93
      380
310
41119B185D240901404333333333333E33F0000000000000F9010740A907004050150841D405064090741402480A1B50
1001
ACAD
1000
AcDbSavedByObjectVersion
1070
     0
  0
ACAD_PROXY_OBJECT
  5
2C
102
{ACAD_REACTORS
330
2A
102
}
330
2A
100
AcDbProxyObject
 90
      499
 91
      501
 93
      468
310
43519B185D15DA5D1A115919D95CD0140901404333333333333E33F0000000000000F90107409019070040501600405405064090741402480A1B50
1001
ACAD
1000
AcDbSavedByObjectVersion
1070
     0
  0
ACAD_PROXY_OBJECT
  5
2D
102
{ACAD_REACTORS
330
2A
102
}
330
2A
100
AcDbProxyObject
 90
      499
 91
      501
 93
      404
310
41D1DBDD5C985D5910240902404333333333333E33F0000000000000F9010740A9070040501641D405064090741402480A1B50
1001
ACAD
1000
AcDbSavedByObjectVersion
1070
     0
  0
ACAD_PROXY_OBJECT
  5
2E
102
{ACAD_REACTORS
330
2A
102
}
330
2A
100
AcDbProxyObject
 90
      499
 91
      501
 93
      492
310
4411DBDD5C985D5915DA5D1A115919D95CD0340902404333333333333E33F0000000000000F90107409019070040501600405405064090741402480A1B50
1001
ACAD
1000
AcDbSavedByObjectVersion
1070
     0
  0
ACAD_PROXY_OBJECT
  5
31
102
{ACAD_REACTORS
330
2A
102
}
330
2A
100
AcDbProxyObject
 90
      499
 91
      501
 93
      476
310
41921A5919195B90640502408333333333333E33F0000000000000F901079024090700405020000000000001110200405405064090740C02480A0340
1001
ACAD
1000
AcDbSavedByObjectVersion
1070
     0
  0
ACAD_PROXY_OBJECT
  5
3B
102
{ACAD_REACTORS
330
2A
102
}
330
2A
100
AcDbProxyObject
 90
      499
 91
      501
 93
      428
310
42529A5D1D195C93D999914409028333333333333E33F0000000000000F9010790141107004050150A41D405064090741402480A0350
1001
ACAD
1000
AcDbSavedByObjectVersion
1070
     0
  0
ACAD_PROXY_OBJECT
  5
38
102
{ACAD_REACTORS
330
2A
102
}
330
2A
100
AcDbProxyObject
 90
      499
 91
      501
 93
      444
310
42D31A5B995C185D1D195C9B90E409028333333333333E33F0000000000000F9010790141107004050750841D405064090741402483A0350
1001
ACAD
1000
AcDbSavedByObjectVersion
1070
     0
  0
ACAD_PROXY_OBJECT
  5
3C
102
{ACAD_REACTORS
330
2A
102
}
330
2A
100
AcDbProxyObject
 90
      499
 91
      501
 93
      444
310
42D3DD995C9A185B99D3D999915409028333333333333E33F0000000000000F9010790141107004050150941D405064090741402480A0350
1001
ACAD
1000
AcDbSavedByObjectVersion
1070
     0
  0
ACAD_PROXY_OBJECT
  5
33
102
{ACAD_REACTORS
330
2A
102
}
330
2A
100
AcDbProxyObject
 90
      499
 91
      501
 93
      428
310
425499585B1A5CDD1A58D08409038333333333333E33F0000000000000F9010740A907004050150800405405064090740C02480A1B40
1001
ACAD
1000
AcDbSavedByObjectVersion
1070
     0
  0
ACAD_PROXY_OBJECT
  5
42
102
{ACAD_REACTORS
330
2A
102
}
330
2A
100
AcDbProxyObject
 90
      499
 91
      501
 93
      420
310
4194DA1859195911B40902404333333333333E33F0000000000000F9010740A41107004050150800405405064090840C02480A0B40
1001
ACAD
1000
AcDbSavedByObjectVersion
1070
     0
  0
ACAD_PROXY_OBJECT
  5
41
102
{ACAD_REACTORS
330
2A
102
}
330
2A
100
AcDbProxyObject
 90
      499
 91
      501
 93
      516
310
4454DA18591959081DDA5D1A08195919D95CD1A40902404333333333333E33F0000000000000F901074090142907004050250800405405064090740C02480A0B40
1001
ACAD
1000
AcDbSavedByObjectVersion
1070
     0
  0
ACAD_PROXY_OBJECT
  5
3E
102
{ACAD_REACTORS
330
2A
102
}
330
2A
100
AcDbProxyObject
 90
      499
 91
      501
 93
      532
310
4394DA1859195CC81BD98811DC985E5174090240C333333333333E33F0000000000000F901079024090741D01000000000000111010841D405064090740C02480A0340
1001
ACAD
1000
AcDbSavedByObjectVersion
1070
     0
  0
ACAD_PROXY_OBJECT
  5
3F
102
{ACAD_REACTORS
330
2A
102
}
330
2A
100
AcDbProxyObject
 90
      499
 91
      501
 93
      476
310
41D4DAD95D18DA1E51840502408333333333333E33F0000000000000F901079024090741D01000000000000111010B41D405064090741802480A0340
1001
ACAD
1000
AcDbSavedByObjectVersion
1070
     0
  0
ACAD_PROXY_OBJECT
  5
37
102
{ACAD_REACTORS
330
2A
102
}
330
2A
100
AcDbProxyObject
 90
      499
 91
      501
 93
      412
310
41D51A1A58DAD95B90D409028333333333333E33F0000000000000F9010790141107004050150C41D405064090741402480A0350
1001
ACAD
1000
AcDbSavedByObjectVersion
1070
     0
  0
ACAD_PROXY_OBJECT
  5
30
102
{ACAD_REACTORS
330
2A
102
}
330
2A
100
AcDbProxyObject
 90
      499
 91
      501
 93
      420
310
4255DA5C99599C985B595059028333333333333E33F0000000000000F90107901411070040501600405405064090740C02480A0340
1001
ACAD
1000
AcDbSavedByObjectVersion
1070
     0
  0
ACAD_PROXY_OBJECT
  5
40
102
{ACAD_REACTORS
330
2A
102
}
330
2A
100
AcDbProxyObject
 90
      499
 91
      501
 93
      404
310
41560B54985E51940902404000000000000E03F0000000000000F9010740501907004050150841D405064090740C02480A1B40
1001
ACAD
1000
AcDbSavedByObjectVersion
1070
     0
  0
XRECORD
  5
208
102
{ACAD_REACTORS
330
1FE
102
}
330
1FE
100
AcDbXrecord
340
0
  0
XRECORD
  5
207
102
{ACAD_REACTORS
330
1FE
102
}
330
1FE
100
AcDbXrecord
 90
        0
  0
XRECORD
  5
21E
102
{ACAD_REACTORS
330
1FE
102
}
330
1FE
100
AcDbXrecord
1000
DSTYLE
1002
{
1070
   340
340
11
1002
}
  0
XRECORD
  5
209
102
{ACAD_REACTORS
330
1FE
102
}
330
1FE
100
AcDbXrecord
  1
{EF3F3917-D2C9-4515-970A-983223B99628}
  0
XRECORD
  5
201
102
{ACAD_REACTORS
330
1FE
102
}
330
1FE
100
AcDbXrecord
  1

  0
XRECORD
  5
206
102
{ACAD_REACTORS
330
1FE
102
}
330
1FE
100
AcDbXrecord
 90
        4
  0
XRECORD
  5
203
102
{ACAD_REACTORS
330
1FE
102
}
330
1FE
100
AcDbXrecord
340
1A
  0
XRECORD
  5
205
102
{ACAD_REACTORS
330
1FE
102
}
330
1FE
100
AcDbXrecord
 90
    10781
  0
XRECORD
  5
204
102
{ACAD_REACTORS
330
1FE
102
}
330
1FE
100
AcDbXrecord
340
19
  0
XRECORD
  5
20B
102
{ACAD_REACTORS
330
1FE
102
}
330
1FE
100
AcDbXrecord
 40
0.0
  0
XRECORD
  5
20E
102
{ACAD_REACTORS
330
1FE
102
}
330
1FE
100
AcDbXrecord
340
0
  0
XRECORD
  5
214
102
{ACAD_REACTORS
330
1FE
102
}
330
1FE
100
AcDbXrecord
 10
0.0
 20
0.0
 30
0.0
  0
XRECORD
  5
210
102
{ACAD_REACTORS
330
1FE
102
}
330
1FE
100
AcDbXrecord
 10
0.0
 20
0.0
 30
0.0
  0
XRECORD
  5
213
102
{ACAD_REACTORS
330
1FE
102
}
330
1FE
100
AcDbXrecord
 10
0.0
 20
0.0
 30
0.0
  0
XRECORD
  5
211
102
{ACAD_REACTORS
330
1FE
102
}
330
1FE
100
AcDbXrecord
 10
0.0
 20
0.0
 30
0.0
  0
XRECORD
  5
212
102
{ACAD_REACTORS
330
1FE
102
}
330
1FE
100
AcDbXrecord
 10
0.0
 20
0.0
 30
0.0
  0
XRECORD
  5
20F
102
{ACAD_REACTORS
330
1FE
102
}
330
1FE
100
AcDbXrecord
 10
0.0
 20
0.0
 30
0.0
  0
XRECORD
  5
20C
102
{ACAD_REACTORS
330
1FE
102
}
330
1FE
100
AcDbXrecord
340
0
  0
XRECORD
  5
20D
102
{ACAD_REACTORS
330
1FE
102
}
330
1FE
100
AcDbXrecord
 70
     0
  0
XRECORD
  5
202
102
{ACAD_REACTORS
330
1FE
102
}
330
1FE
100
AcDbXrecord
  1

  0
XRECORD
  5
1FF
102
{ACAD_REACTORS
330
1FE
102
}
330
1FE
100
AcDbXrecord
 90
        1
  0
XRECORD
  5
200
102
{ACAD_REACTORS
330
1FE
102
}
330
1FE
100
AcDbXrecord
 90
       70
  0
XRECORD
  5
217
102
{ACAD_REACTORS
330
1FE
102
}
330
1FE
100
AcDbXrecord
340
0
  0
XRECORD
  5
21D
102
{ACAD_REACTORS
330
1FE
102
}
330
1FE
100
AcDbXrecord
 10
0.0
 20
0.0
 30
0.0
  0
XRECORD
  5
219
102
{ACAD_REACTORS
330
1FE
102
}
330
1FE
100
AcDbXrecord
 10
0.0
 20
0.0
 30
0.0
  0
XRECORD
  5
21C
102
{ACAD_REACTORS
330
1FE
102
}
330
1FE
100
AcDbXrecord
 10
0.0
 20
0.0
 30
0.0
  0
XRECORD
  5
21A
102
{ACAD_REACTORS
330
1FE
102
}
330
1FE
100
AcDbXrecord
 10
0.0
 20
0.0
 30
0.0
  0
XRECORD
  5
21B
102
{ACAD_REACTORS
330
1FE
102
}
330
1FE
100
AcDbXrecord
 10
0.0
 20
0.0
 30
0.0
  0
XRECORD
  5
218
102
{ACAD_REACTORS
330
1FE
102
}
330
1FE
100
AcDbXrecord
 10
0.0
 20
0.0
 30
0.0
  0
XRECORD
  5
215
102
{ACAD_REACTORS
330
1FE
102
}
330
1FE
100
AcDbXrecord
340
0
  0
XRECORD
  5
216
102
{ACAD_REACTORS
330
1FE
102
}
330
1FE
100
AcDbXrecord
 70
     0
  0
XRECORD
  5
20A
102
{ACAD_REACTORS
330
1FE
102
}
330
1FE
100
AcDbXrecord
  1
{FAEB1C32-E019-11D5-929B-00C0DF256EC4}
  0
DICTIONARYVAR
  5
22A
102
{ACAD_REACTORS
330
21F
102
}
330
21F
100
DictionaryVariables
280
     0
  1
1:1
  0
DICTIONARYVAR
  5
226
102
{ACAD_REACTORS
330
21F
102
}
330
21F
100
DictionaryVariables
280
     0
  1
2
  0
DICTIONARYVAR
  5
227
102
{ACAD_REACTORS
330
21F
102
}
330
21F
100
DictionaryVariables
280
     0
  1
1
  0
DICTIONARYVAR
  5
22B
102
{ACAD_REACTORS
330
21F
102
}
330
21F
100
DictionaryVariables
280
     0
  1
1
  0
DICTIONARYVAR
  5
223
102
{ACAD_REACTORS
330
21F
102
}
330
21F
100
DictionaryVariables
280
     0
  1
80.000000
  0
DICTIONARYVAR
  5
222
102
{ACAD_REACTORS
330
21F
102
}
330
21F
100
DictionaryVariables
280
     0
  1
5.000000
  0
DICTIONARY
  5
22E
330
45
100
AcDbDictionary
280
     1
  3
ACAD_XREC_ROUNDTRIP
360
22F
  0
DICTIONARY
  5
22C
330
44
100
AcDbDictionary
280
     1
  3
ACAD_XREC_ROUNDTRIP
360
22D
  0
DICTIONARY
  5
230
330
46
100
AcDbDictionary
280
     1
  3
ACAD_XREC_ROUNDTRIP
360
231
  0
XRECORD
  5
22F
102
{ACAD_REACTORS
330
22E
102
}
330
22E
100
AcDbXrecord
102
MATERIAL
148
0.0
149
0.0
149
0.0
 93
        0
 94
      127
282
     0
 72
     1
 77
     1
171
     1
175
     1
179
     1
273
     0
  0
XRECORD
  5
22D
102
{ACAD_REACTORS
330
22C
102
}
330
22C
100
AcDbXrecord
102
MATERIAL
148
0.0
149
0.0
149
0.0
 93
        0
 94
      127
282
     0
 72
     1
 77
     1
171
     1
175
     1
179
     1
273
     0
  0
XRECORD
  5
231
102
{ACAD_REACTORS
330
230
102
}
330
230
100
AcDbXrecord
102
MATERIAL
148
0.0
149
0.0
149
0.0
 93
        0
 94
      127
282
     0
 72
     1
 77
     1
171
     1
175
     1
179
     1
273
     0
  0
ENDSEC
  0
EOF
