**ABCDEFGHIJKLMNOPQRSTUVWXYZabcdefghijklmnopqrstuvwxyz**************************
**PARASOLID !"#$%&'()*+,-./:;<=>?@[\]^_`{|}~0123456789**************************
**PART1;
MC=AMD64;
MC_MODEL=Intel64 Family 6 Model 58 Stepping 9, GenuineIntel;
MC_ID=unknown;
OS=Windows_NT;
OS_RELEASE=unknown;
FRU=Parasolid Version 28.0, build 204, 11- 9-2015;
APPL=SOLIDWORKS 2016-2016040;
SITE=;
USER=unknown;
FORMAT=text;
GUISE=transmit;
KEY=310-019640;
FILE=310-019640.x_t;
DATE=Mon Sep 19 16:03:35 2016;
**PART2;
SCH=SCH_2800204_28002;
USFLD_SIZE=0;
**PART3;
**END_OF_HEADER*****************************************************************
T51 : TRANSMIT FILE created by modeller version 280020423 SCH_2800204_28002_1300
6200 0 10 255 1 7 2 3 0 0 0 0 0 1e3 1e-8 0 0 0 1 0 1 4 81 255 2 2 7 5 1 0 0 0 0
 0 0 70 11 CI9 list_type0 0 1 uI10 notransmit0 0 1 lCCCDCCDI12 finger_index0 0 1
 dI12 finger_block1012 0 CZ3 0 4 T1 0 0 1 20 1 6 6 11 255 4 5 0 1 7 8 1 9 0 0 0
 12 30 CCCCCCCCCCCCCDI5 owner1040 0 CCCCCCCCCA13 boundary_mesh1006 0 A16 index_m
ap_offset0 0 1 dA9 index_map82 0 A17 node_id_index_map82 0 A20 schema_embedding_
map82 0 A5 child12 0 A14 lowest_node_id0 0 1 dZ7 1528 10 11 0 0 0 0 1e3 1e-8 4 1
2 0 1 0 1 1 13 14 15 16 17 18 19 0 0 0 0 0 0 0 100 255 8 6 4 0 0 1 0 0 0 1 0 0 0
 1 0 0 0 1 0 ?11 9 3 0 1 12 20 1 21 4 0 0 12 12 1511 22 23 0 0 0 0 1e3 1e-8 9 24
 7 1 0 1 1 25 26 27 28 29 30 31 0 0 0 0 0 0 0 100 20 4 9 0 0 1 0 0 0 1 0 0 0 1 0
 0 0 1 0 ?11 21 1 0 1 24 32 1 0 9 0 0 12 24 685 33 34 0 0 0 0 1e3 1e-8 21 35 12
 1 0 1 1 36 37 38 39 40 41 42 0 0 0 0 0 0 0 100 32 2 21 0 0 1 0 0 0 1 0 0 0 1 0
 0 0 1 0 ?81 1 33 685 43 24 44 0 0 0 0 70 34 0 4 T24 0 0 4 20 1 45 45 13 255 36
 174 0 24 0 46 0 0 47 0 50 255 37 163 0 46 48 0 0 +.0055 .0075 11e-5 -1 57824115
8658936e-30 0 -578241158658936e-30 -1 0 30 255 38 171 0 41 49 0 0 +.0055 .0105 1
1e-5 0 0 -1 29 255 39 126 0 50 51 0 .0055 -.0105 0 19 8 CCCCCCCA5 owner12 0 Z40
 52 0 24 47 0 52 V0 16 255 41 139 0 ?53 0 54 38 0 0 24 18 255 42 49 0 55 0 56 57
 ?24 17 255 55 0 58 59 60 42 61 62 0 63 +18 56 46 0 60 42 64 65 ?24 29 57 51 0 4
2 65 66 .0055 -.0105 11e-5 29 65 48 0 56 67 57 -.0055 -.0105 11e-5 29 66 131 0 6
8 57 69 .0055 .0105 0 18 68 114 0 70 71 0 66 ?24 29 69 130 0 71 66 51 -.0055 .01
05 0 18 71 113 0 72 73 68 69 ?24 29 51 127 0 73 69 39 -.0055 -.0105 0 18 73 110
 0 74 50 71 51 ?24 17 74 0 75 76 77 73 72 78 0 79 +18 50 109 0 80 81 73 39 ?24 1
7 80 0 82 83 84 50 70 85 0 86 -18 81 34 0 59 64 50 87 ?24 17 59 0 58 88 55 81 89
 90 0 91 +18 64 37 0 88 56 81 67 ?24 29 87 36 0 81 0 67 .0055 .0105 11e-5 29 67
 39 0 64 87 65 -.0055 .0105 11e-5 17 88 0 58 60 59 64 92 93 0 94 +15 255 58 3 0
 59 95 0 17 60 0 58 55 88 56 96 97 0 76 +17 92 0 98 53 94 81 88 93 0 0 -16 93 13
 0 ?88 97 90 99 0 0 24 17 94 0 98 92 100 64 77 54 0 96 -15 98 150 0 100 101 0 17
 100 0 98 94 53 71 84 102 0 77 +17 77 0 75 74 96 71 94 54 0 0 +16 54 138 0 ?77 4
1 103 49 0 0 24 17 96 0 75 77 76 64 60 97 0 0 -15 75 144 0 74 104 0 17 76 0 75 9
6 74 56 79 103 0 61 -16 97 16 0 ?60 62 93 105 0 0 24 16 62 25 0 ?55 106 97 107 0
 0 24 30 105 17 0 97 99 107 0 +-.0055 .0075 11e-5 -578241158658936e-30 -1 0 134
 255 99 14 0 93 108 105 109 +110 111 134 107 26 0 62 105 112 113 +114 115 30 112
 123 0 85 107 116 0 +.0055 .0075 0 578241158658936e-30 1 0 141 255 113 117 113 1
13 107 136 255 114 3 5 3 3 6 FFF1 118 119 120 135 255 115 2 0 45 255 15 118 -.00
55 -.0105 11e-5 -.004292512660367555 -.00758783621145591 11e-5 -.000371195095819
796 -.01297289135025152 11e-5 .00336172281588739 -.00703558238703073 11e-5 .0055
 -.0105 11e-5 127 255 3 119 4 1 4 128 255 3 120 0 .445700426842566 1 67 255 117
 158 0 121 122 123 0 +107 0 0 -1 ?14 255 121 143 124 ?95 104 125 36 117 -0 0 95
 104 52 50 122 117 0 126 127 117 0 +-.0002109202402230225 -.01010354419874456 0
 0 0 1 1 0 0 50 123 159 0 104 117 48 0 +-.0055 -.0075 11e-5 1 0 0 0 0 -1 14 104
 145 128 ?121 101 75 36 123 -0 0 121 101 52 67 48 162 0 101 123 37 0 +99 0 0 -1
 ?14 101 151 129 ?104 46 98 36 48 -0 0 104 46 52 81 1 129 681 130 101 131 0 128
 132 133 14 46 153 132 ?101 0 134 36 37 -0 0 101 0 52 13 52 53 0 0 0 0 0 0 40 46
 81 1 132 682 130 46 135 0 129 136 137 15 134 152 0 70 46 0 17 70 0 134 91 138 6
8 80 85 0 53 +17 91 0 134 89 70 81 53 41 0 92 -17 138 0 134 70 89 50 63 106 0 0
 +16 85 97 0 ?70 102 0 112 0 0 24 17 53 0 98 100 92 68 91 41 0 84 +17 84 0 82 80
 72 68 100 102 0 0 -15 82 76 0 80 126 0 17 72 0 82 84 83 71 74 78 0 100 -16 102
 93 0 ?100 78 85 116 0 0 24 16 78 81 0 ?74 139 102 140 0 0 24 134 116 122 0 102
 112 140 0 +141 142 30 140 119 0 78 116 143 0 +-.0055 -.0075 0 0 -1 0 136 141 3
 5 3 3 6 FFF1 144 145 146 135 142 2 0 45 15 144 .0055 .0105 0 .00336172281588738
5 .00703558238703073 0 -.000371195095819799 .01297289135025152 0 -.0042925126603
67555 .00758783621145591 0 -.0055 .0105 0 127 3 145 4 1 4 128 3 146 0 .554299573
157434 1 134 143 118 0 139 140 147 0 +148 149 16 139 77 0 ?86 90 78 143 0 0 24 3
0 147 166 0 106 143 150 0 +.0055 -.0105 11e-5 0 0 -1 136 148 3 5 3 3 6 FFF1 151
 152 153 135 149 2 0 45 15 151 -.0055 -.0105 0 -.004292512660367555 -.0075878362
1145591 0 -.000371195095819796 -.01297289135025152 0 .00336172281588739 -.007035
58238703073 0 .0055 -.0105 0 127 3 152 4 1 4 128 3 153 0 .445700426842566 1 16 1
06 134 0 ?138 103 62 147 0 0 24 30 150 167 0 103 147 49 0 +-.0055 -.0105 11e-5 0
 0 -1 16 103 135 0 ?79 54 106 150 0 0 24 30 49 170 0 54 150 38 0 +-.0055 .0105 1
1e-5 0 0 -1 17 79 0 125 86 61 73 76 103 0 83 +15 125 142 0 86 121 0 17 86 0 125
 63 79 50 83 139 0 138 +17 61 0 125 79 63 56 55 62 0 0 -17 83 0 82 72 80 73 86 1
39 0 0 -17 63 0 125 61 86 42 138 106 0 89 -17 89 0 134 138 91 42 59 90 0 0 -16 9
0 4 0 ?59 93 139 108 0 0 24 30 108 5 0 90 0 99 0 +.0055 -.0075 11e-5 0 1 0 14 12
6 75 136 ?0 95 82 36 122 -0 0 0 95 52 81 1 136 683 130 126 154 0 132 155 156 14
 95 1 155 ?126 121 58 36 127 +0 0 126 121 52 81 1 155 684 130 95 157 0 136 0 158
 50 127 2 0 95 0 122 0 +-.0002109202402230225 -.01010354419874456 11e-5 0 0 1 1
 0 0 80 255 1 130 159 160 9000 1 1 1 1 1 1 1 1 0 FFFFTFTFFFFFFF1 81 1 157 659 16
1 95 0 155 162 154 163 82 255 1 158 162660897 80 1 161 0 164 8001 0 0 0 0 3 5 0
 0 0 FFFFTFTFFFFFFF2 81 1 162 658 161 121 0 124 165 157 166 81 1 154 660 161 126
 0 136 157 0 167 83 255 3 163 .996078431372549 .870588235294118 .76078431372549
 83 3 167 .996078431372549 .870588235294118 .76078431372549 81 1 124 679 130 121
 162 0 0 128 168 81 1 165 657 161 104 0 128 131 162 169 83 3 166 .99607843137254
9 .870588235294118 .76078431372549 81 1 128 680 130 104 165 0 124 129 170 81 1 1
31 656 161 101 0 129 135 165 171 83 3 169 .996078431372549 .870588235294118 .760
78431372549 81 1 135 655 161 46 0 132 0 131 172 83 3 171 .996078431372549 .87058
8235294118 .76078431372549 83 3 172 .996078431372549 .870588235294118 .760784313
72549 82 1 170 174981665 82 1 168 174719521 79 255 15 164 SDL/TYSA_COLOUR79 14 1
60 SWEntUnchanged82 1 156 173015585 82 1 137 176030241 82 1 133 175768097 141 10
9 48 109 109 99 136 110 3 5 3 3 6 FFF1 173 174 175 135 111 2 0 45 15 173 .0055 .
0105 11e-5 .003361722815887385 .00703558238703073 11e-5 -.000371195095819799 .01
297289135025152 11e-5 -.004292512660367555 .00758783621145591 11e-5 -.0055 .0105
 11e-5 127 3 174 4 1 4 128 3 175 0 .554299573157434 1 19 47 175 0 24 0 40 36 S0
 74 4 CI16 index_map_offset0 0 1 dCCZ20 45 4 0 0 155 44 154 33 0 0 0 0 0 0 0 0 0
 0 0 0 0 0 0 0 81 2 44 264 176 24 0 33 0 0 177 0 80 2 176 178 179 8004 0 0 0 0 3
 5 0 0 0 FFTFFFFFFFFFFF2 3 83 1 177 7999.49471763306 79 16 179 SDL/TYSA_DENSITY8
0 1 43 180 181 8017 0 0 0 0 0 0 0 0 0 TTTTTTTTTTTTTT3 79 13 181 SDL/TYSA_NAME81
 1 22 1511 43 12 182 0 0 0 0 70 23 0 4 T12 0 0 4 20 1 183 183 13 25 94 0 12 0 18
4 0 0 185 0 51 255 26 741 0 186 187 0 0 +-.0025 .0045 -13e-5 0 0 1 5e-4 1 0 0 31
 255 27 554 0 30 188 0 0 -.0017 .0035 -13e-5 0 0 -1 -1 0 0 5e-4 29 28 434 0 31 1
89 0 -.0017 -.004 -13e-5 19 29 28 0 12 185 0 190 V0 16 30 543 0 ?191 0 192 27 0
 0 12 18 31 432 0 193 0 194 28 ?12 17 193 0 195 196 197 31 198 199 0 200 +18 194
 429 0 201 31 202 189 ?12 17 201 0 203 200 204 194 205 206 0 196 +18 202 426 0 2
07 194 208 209 ?12 29 189 431 0 194 209 28 .0017 -.004 -13e-5 29 209 428 0 202 2
10 189 -.0022 .0035 -13e-5 29 210 425 0 208 211 209 -.0022 -.0035 -13e-5 18 208
 423 0 212 202 213 210 ?12 29 211 422 0 213 214 210 .0017 .004 -13e-5 18 213 420
 0 191 208 215 211 ?12 29 214 419 0 215 216 211 -.0017 .004 -13e-5 18 215 417 0
 217 213 218 214 ?12 29 216 416 0 218 219 214 .0022 -.0035 -13e-5 18 218 414 0 2
20 215 221 216 ?12 29 219 413 0 221 222 216 .0022 .0035 -13e-5 18 221 411 0 223
 218 224 219 ?12 29 222 410 0 224 225 219 -.003 .0045 -13e-5 18 224 408 0 226 22
1 227 222 ?12 29 225 407 0 227 228 222 -.003 -.0045 -13e-5 18 227 405 0 229 224
 230 225 ?12 29 228 404 0 230 231 225 .0025 .005 -13e-5 18 230 402 0 232 227 233
 228 ?12 29 231 401 0 233 234 228 -.0025 .005 -13e-5 18 233 399 0 235 230 236 23
1 ?12 29 234 388 0 236 237 231 .003 -.0045 -13e-5 18 236 386 0 238 233 239 234 ?
12 29 237 385 0 239 240 234 .003 .0045 -13e-5 18 239 383 0 241 236 242 237 ?12 2
9 240 362 0 242 243 237 -.0022 .0035 0 18 242 360 0 244 239 245 240 ?12 29 243 3
59 0 245 246 240 -.0022 -.0035 0 18 245 357 0 247 242 248 243 ?12 29 246 356 0 2
48 249 243 -.0017 -.004 0 18 248 354 0 250 245 251 246 ?12 29 249 353 0 251 252
 246 .0017 -.004 0 18 251 351 0 253 248 254 249 ?12 29 252 350 0 254 255 249 .00
22 -.0035 0 18 254 348 0 256 251 257 252 ?12 29 255 347 0 257 258 252 .0022 .003
5 0 18 257 345 0 259 254 260 255 ?12 29 258 344 0 260 261 255 .0017 .004 0 18 26
0 342 0 262 257 263 258 ?12 29 261 341 0 263 264 258 -.0017 .004 0 18 263 339 0
 265 260 266 261 ?12 29 264 338 0 266 267 261 .003 -.0045 0 18 266 336 0 268 263
 269 264 ?12 29 267 335 0 269 270 264 .003 .0045 0 18 269 333 0 271 266 272 267
 ?12 29 270 332 0 272 273 267 -.003 .0045 0 18 272 330 0 274 269 275 270 ?12 29
 273 329 0 275 276 270 -.003 -.0045 0 18 275 327 0 277 272 278 273 ?12 29 276 32
6 0 278 279 273 .0025 .005 0 18 278 324 0 280 275 281 276 ?12 29 279 323 0 281 2
82 276 -.0025 .005 0 18 281 321 0 283 278 284 279 ?12 29 282 310 0 284 285 279 -
.0025 -.005 -13e-5 18 284 308 0 286 281 287 282 ?12 29 285 307 0 287 288 282 .00
25 -.005 -13e-5 18 287 305 0 289 284 290 285 ?12 29 288 304 0 290 291 285 -.0025
 -.005 0 18 290 302 0 292 287 293 288 ?12 29 291 301 0 293 0 288 .0025 -.005 0 1
8 293 299 0 294 290 0 291 ?12 17 294 0 295 296 297 293 268 298 0 299 -15 295 583
 0 300 301 0 17 296 0 295 300 294 287 299 302 0 0 -17 297 0 295 294 300 266 238
 303 0 0 -17 268 0 304 305 306 266 294 298 0 307 +16 298 378 0 ?268 308 309 310
 0 0 12 17 299 0 311 312 313 293 296 302 0 306 +15 311 80 0 313 314 0 17 312 0 3
11 286 299 290 306 315 0 316 +17 313 0 311 299 286 287 317 318 0 296 -16 302 316
 0 ?299 319 320 321 0 0 12 17 306 0 304 268 292 293 312 315 0 0 -15 304 44 0 306
 322 323 17 292 0 304 306 324 290 277 309 0 312 +16 315 300 0 ?312 325 326 327 0
 0 12 16 325 328 0 ?328 329 315 330 0 0 12 16 326 334 0 ?307 315 331 332 0 0 12
 30 327 67 0 315 332 330 0 +.003 -.005 0 -1 -289120579329468e-30 0 30 332 68 0 3
26 333 327 0 +.003 .005 0 1301042606982606e-31 -1 0 30 330 66 0 325 327 334 0 +-
.003 -.005 0 -1734723475976805e-31 1 0 30 334 313 0 320 330 321 0 --.0025 -.005
 -13e-5 0 0 1 16 320 311 0 ?286 302 335 334 0 0 12 30 321 318 0 302 334 336 0 +.
0025 -.005 -13e-5 0 0 1 31 336 365 0 319 321 337 0 --.0025 .0045 0 0 0 -1 -1 0 0
 5e-4 16 319 363 0 ?274 338 302 336 0 0 12 31 337 370 0 338 336 339 0 -.0025 .00
45 0 0 0 -1 -1 0 0 5e-4 16 338 368 0 ?280 309 319 337 0 0 12 31 339 375 0 309 33
7 310 0 --.0025 -.0045 0 0 0 -1 -1 0 0 5e-4 16 309 373 0 ?292 298 338 339 0 0 12
 31 310 380 0 298 339 340 0 -.0025 -.0045 0 0 0 -1 -1 0 0 5e-4 30 340 391 0 308
 310 341 0 +.003 .0045 -13e-5 0 0 1 16 308 389 0 ?342 303 298 340 0 0 12 30 341
 396 0 303 340 343 0 -.003 -.0045 -13e-5 0 0 1 16 303 394 0 ?238 344 308 341 0 0
 12 31 343 437 0 344 341 345 0 +-.0025 .0045 -13e-5 0 0 -1 -1 0 0 5e-4 16 344 43
5 0 ?235 346 303 343 0 0 12 31 345 442 0 346 343 347 0 +.0025 .0045 -13e-5 0 0 -
1 -1 0 0 5e-4 16 346 440 0 ?241 348 344 345 0 0 12 31 347 447 0 348 345 349 0 +-
.0025 -.0045 -13e-5 0 0 -1 -1 0 0 5e-4 16 348 445 0 ?229 350 346 347 0 0 12 31 3
49 452 0 350 347 351 0 +.0025 -.0045 -13e-5 0 0 -1 -1 0 0 5e-4 16 350 450 0 ?289
 352 348 349 0 0 12 30 351 457 0 352 349 353 0 --.003 .0045 -13e-5 0 0 1 16 352
 455 0 ?226 354 350 351 0 0 12 30 353 462 0 354 351 355 0 +-.003 -.0045 -13e-5 0
 0 1 16 354 460 0 ?356 206 352 353 0 0 12 30 355 467 0 206 353 357 0 -.0017 -.00
4 -13e-5 0 0 1 16 206 465 0 ?201 358 354 355 0 0 12 30 357 472 0 358 355 359 0 +
-.0017 -.004 0 0 0 1 16 358 470 0 ?360 361 206 357 0 0 12 30 359 477 0 361 357 3
62 0 +-.0022 .0035 0 0 0 1 16 361 475 0 ?363 364 358 359 0 0 12 30 362 482 0 364
 359 365 0 --.0022 -.0035 -13e-5 0 0 1 16 364 480 0 ?212 366 361 362 0 0 12 30 3
65 487 0 366 362 367 0 -.0022 .0035 -13e-5 0 0 1 16 366 485 0 ?223 368 364 365 0
 0 12 30 367 492 0 368 365 369 0 +.0022 -.0035 0 0 0 1 16 368 490 0 ?370 371 366
 367 0 0 12 30 369 497 0 371 367 372 0 +.0017 .004 0 0 0 1 16 371 495 0 ?373 374
 368 369 0 0 12 30 372 502 0 374 369 375 0 --.0017 .004 -13e-5 0 0 1 16 374 500
 0 ?217 376 371 372 0 0 12 30 375 507 0 376 372 377 0 +-.0025 .005 -13e-5 0 0 1
 16 376 505 0 ?378 379 374 375 0 0 12 30 377 512 0 379 375 380 0 -.0025 .005 -13
e-5 0 0 1 16 379 510 0 ?232 381 376 377 0 0 12 31 380 547 0 381 377 382 0 +-.001
7 -.0035 0 0 0 -1 -1 0 0 5e-4 16 381 515 0 ?247 199 379 380 0 0 12 31 382 548 0
 199 380 383 0 --.0017 -.0035 -13e-5 0 0 -1 -1 0 0 5e-4 16 199 519 0 ?193 384 38
1 382 0 0 12 31 383 549 0 384 382 385 0 +.0017 -.0035 0 0 0 -1 -1 0 0 5e-4 16 38
4 523 0 ?253 386 199 383 0 0 12 31 385 550 0 386 383 387 0 -.0017 -.0035 -13e-5
 0 0 -1 -1 0 0 5e-4 16 386 527 0 ?220 388 384 385 0 0 12 31 387 551 0 388 385 38
9 0 +-.0017 .0035 0 0 0 -1 -1 0 0 5e-4 16 388 531 0 ?265 390 386 387 0 0 12 31 3
89 552 0 390 387 188 0 --.0017 .0035 -13e-5 0 0 -1 -1 0 0 5e-4 16 390 535 0 ?207
 192 388 389 0 0 12 31 188 553 0 192 389 27 0 +.0017 .0035 0 0 0 -1 -1 0 0 5e-4
 16 192 539 0 ?259 30 390 188 0 0 12 17 259 0 323 391 392 257 262 192 0 393 +15
 323 123 0 394 322 0 17 391 0 323 253 259 254 393 395 0 0 +17 392 0 323 259 265
 260 396 397 0 0 +17 262 0 398 399 400 260 259 192 0 373 -17 393 0 401 223 370 2
57 391 395 0 400 -15 401 191 0 402 403 0 17 223 0 401 402 393 221 400 366 0 404
 +17 370 0 401 393 402 254 405 368 0 391 +16 395 346 0 ?391 406 397 407 0 0 12 1
7 400 0 398 262 408 257 223 366 0 0 -15 398 688 0 408 409 0 17 408 0 398 400 399
 221 191 30 0 0 -17 399 0 398 408 262 213 373 371 0 0 -17 191 0 195 410 404 213
 408 30 0 411 +15 195 128 0 404 184 0 17 410 0 195 207 191 215 411 412 0 413 -17
 404 0 195 191 220 221 402 414 0 408 -17 411 0 415 373 217 213 410 412 0 399 +15
 415 187 0 396 416 0 17 373 0 415 396 411 260 399 371 0 392 +17 217 0 415 411 39
6 215 417 374 0 410 +16 412 418 0 ?411 414 418 419 0 0 12 16 414 412 0 ?402 420
 412 421 0 0 12 16 418 358 0 ?394 412 406 422 0 0 12 30 419 225 0 412 0 421 0 +.
0022 .004 -13e-5 1 0 0 30 421 224 0 414 419 423 0 +.0022 .004 -13e-5 -1626303258
728255e-31 -1 0 30 423 223 0 420 421 424 0 +-.0022 -.004 -13e-5 -1 1971276677246
375e-31 0 16 420 430 0 ?200 425 414 423 0 0 12 30 424 222 0 425 423 426 0 +-.002
2 .004 -13e-5 1084202172485504e-31 1 0 16 425 424 0 ?427 331 420 424 0 0 12 30 4
26 221 0 397 424 407 0 +.0022 .004 0 1 0 0 16 397 340 0 ?392 395 0 426 0 0 12 30
 407 220 0 395 426 428 0 +.0022 .004 0 -1626303258728255e-31 -1 0 30 428 219 0 4
06 407 422 0 +-.0022 -.004 0 -1 1971276677246375e-31 0 16 406 352 0 ?429 418 395
 428 0 0 12 30 422 218 0 418 428 430 0 +-.0022 .004 0 1084202172485504e-31 1 0 3
0 430 5 0 329 422 431 0 +-.003 .005 -13e-5 1 0 0 16 329 400 0 ?432 433 325 430 0
 0 12 30 431 8 0 433 430 434 0 +.003 .005 -13e-5 1301042606982606e-31 -1 0 16 43
3 384 0 ?435 318 329 431 0 0 12 30 434 11 0 318 431 436 0 +.003 -.005 -13e-5 -1
 -289120579329468e-30 0 16 318 306 0 ?317 335 433 434 0 0 12 30 436 14 0 335 434
 333 0 +-.003 -.005 -13e-5 -1734723475976805e-31 1 0 16 335 406 0 ?437 320 318 4
36 0 0 12 30 333 69 0 331 436 332 0 +-.003 .005 0 1 0 0 16 331 322 0 ?438 326 42
5 333 0 0 12 17 438 0 439 232 378 278 440 331 0 441 +15 439 84 0 438 442 0 17 23
2 0 439 443 438 230 441 379 0 432 +17 378 0 439 438 443 281 444 376 0 440 +17 44
0 0 304 274 280 281 438 331 0 0 -17 441 0 445 271 446 278 232 379 0 0 -15 445 70
9 0 446 447 0 17 271 0 445 448 441 269 280 338 0 342 -17 446 0 445 441 448 230 2
41 346 0 0 -17 448 0 445 446 271 239 342 308 0 0 -17 241 0 449 435 432 239 446 3
46 0 450 +15 449 3 0 435 184 195 17 435 0 449 289 241 236 450 433 0 300 +17 432
 0 449 241 235 230 443 329 0 446 +17 450 0 451 342 238 239 435 433 0 448 -15 451
 82 0 307 452 0 17 342 0 451 307 450 269 448 308 0 305 +17 238 0 451 450 307 236
 297 303 0 435 +17 307 0 451 238 342 266 305 326 0 297 +17 305 0 304 280 268 269
 307 326 0 0 -17 280 0 304 440 305 278 271 338 0 438 +14 452 83 453 ?314 442 451
 25 454 -0 0 314 442 190 81 1 453 1493 130 452 455 0 0 456 457 14 314 81 456 ?45
8 452 311 25 459 -0 0 458 452 190 14 442 85 460 ?452 322 439 25 461 -0 0 452 322
 190 50 454 88 0 452 459 461 0 +.003 .005 -13e-5 -1 -1301042606982606e-31 0 1301
042606982606e-31 -1 0 13 190 29 0 0 0 0 0 0 29 184 14 184 145 462 ?322 0 449 25
 463 +0 0 322 0 190 81 1 462 1496 130 184 464 0 460 465 466 14 322 125 465 ?442
 184 304 25 467 -0 0 442 184 190 50 463 2 0 184 468 467 0 +0 0 -13e-5 0 0 -1 -1
 0 0 50 468 208 0 416 469 463 0 +.0022 .004 -13e-5 0 -1 0 0 0 -1 50 467 65 0 322
 463 470 0 +0 0 0 0 0 -1 -1 0 0 50 470 86 0 458 467 459 0 +-.003 -.005 -13e-5 1
 1734723475976805e-31 0 -1734723475976805e-31 1 0 14 458 79 471 ?416 314 472 25
 470 -0 0 416 314 190 50 459 87 0 314 470 454 0 +.003 -.005 -13e-5 -289120579329
468e-30 1 0 -1 -289120579329468e-30 0 81 1 471 1498 130 458 473 0 465 474 475 14
 416 184 474 ?403 458 415 25 468 +0 0 403 458 190 15 472 78 0 476 458 0 17 476 0
 472 356 226 227 437 335 0 477 -17 356 0 472 328 476 275 477 354 0 324 +17 226 0
 472 476 328 224 478 352 0 437 +17 437 0 449 235 229 224 476 335 0 479 +17 477 0
 480 481 277 227 356 354 0 0 -15 480 604 0 481 482 0 17 481 0 480 316 477 284 22
9 348 0 0 -17 277 0 480 477 316 275 292 309 0 356 -17 316 0 480 277 481 290 286
 320 0 0 -17 286 0 311 313 312 284 316 320 0 317 +17 317 0 449 229 289 284 313 3
18 0 481 +17 229 0 449 437 317 227 481 348 0 476 +17 289 0 449 317 435 287 300 3
50 0 313 +17 300 0 295 297 296 236 289 350 0 0 -14 482 603 483 ?484 301 480 25 4
85 +0 0 484 301 190 81 1 483 1500 130 482 486 0 474 487 488 14 484 624 487 ?489
 482 490 25 491 -0 0 489 482 190 14 301 582 492 ?482 493 295 25 494 +0 0 482 493
 190 51 485 615 0 482 494 491 0 +-.0025 -.0045 -13e-5 0 0 1 5e-4 1 0 0 51 494 59
4 0 301 461 485 0 +.0025 -.0045 -13e-5 0 0 1 5e-4 1 0 0 51 491 636 0 484 485 495
 0 +-.0017 -.0035 -13e-5 0 0 -1 5e-4 -1 0 0 51 495 657 0 489 491 496 0 +.0017 -.
0035 -13e-5 0 0 -1 5e-4 -1 0 0 14 489 645 497 ?498 484 499 25 495 -0 0 498 484 1
90 51 496 678 0 498 495 500 0 +-.0017 .0035 -13e-5 0 0 -1 5e-4 -1 0 0 14 498 666
 501 ?409 489 502 25 496 -0 0 409 489 190 51 500 699 0 409 496 187 0 +.0017 .003
5 -13e-5 0 0 -1 5e-4 -1 0 0 14 409 687 503 ?447 498 398 25 500 -0 0 447 498 190
 51 187 720 0 447 500 26 0 +.0025 .0045 -13e-5 0 0 1 5e-4 1 0 0 14 447 708 504 ?
186 409 445 25 187 +0 0 186 409 190 81 1 504 1506 130 447 505 0 503 506 507 14 1
86 729 506 ?0 447 508 25 26 +0 0 0 447 190 81 1 506 1507 130 186 509 0 504 510 5
11 15 508 730 0 479 186 0 17 479 0 508 478 444 224 235 344 0 0 -17 478 0 508 283
 479 272 226 352 0 0 -17 444 0 508 479 283 233 378 376 0 0 -17 235 0 449 432 437
 233 479 344 0 443 +17 443 0 439 378 232 233 432 329 0 444 -17 283 0 508 444 478
 281 274 319 0 378 -17 274 0 304 324 440 272 283 319 0 328 +17 324 0 304 292 274
 275 328 325 0 0 -17 328 0 472 226 356 272 324 325 0 478 +81 1 509 1454 161 186
 0 506 505 0 512 81 1 510 1508 130 493 513 0 506 514 515 82 1 511 1967325445 14
 493 196 510 ?301 516 517 25 518 +0 0 301 516 190 81 1 513 1446 161 493 0 510 51
9 520 521 81 1 514 1509 130 516 519 0 510 522 523 82 1 515 1850016005 14 516 192
 514 ?493 403 203 25 524 +0 0 493 403 190 81 1 519 1445 161 516 0 514 525 513 52
6 81 1 522 1510 130 403 525 0 514 0 527 82 1 523 1850278149 14 403 188 522 ?516
 416 401 25 469 +0 0 516 416 190 81 1 525 1444 161 403 0 522 528 519 529 82 1 52
7 1850540293 81 1 528 1443 161 416 0 474 473 525 530 83 3 529 1 1 1 81 1 474 149
9 130 416 528 0 471 483 531 81 1 473 1442 161 458 0 471 532 528 533 83 3 530 1 1
 1 81 1 532 1441 161 314 0 456 455 473 534 83 3 533 1 1 1 81 1 456 1494 130 314
 532 0 453 460 535 81 1 455 1440 161 452 0 453 536 532 537 83 3 534 1 1 1 81 1 5
36 1439 161 442 0 460 538 455 539 83 3 537 1 1 1 81 1 460 1495 130 442 536 0 456
 462 540 81 1 538 1438 161 322 0 465 464 536 541 83 3 539 1 1 1 81 1 465 1497 13
0 322 538 0 462 471 542 81 1 464 1437 161 184 0 462 0 538 543 83 3 541 1 1 1 83
 3 543 1 1 1 82 1 542 1854537989 82 1 540 1839071493 82 1 535 1838547205 82 1 53
1 1850802437 50 469 209 0 403 524 468 0 +.0022 .004 -13e-5 -1 1626303258728255e-
31 0 -1626303258728255e-31 -1 0 50 524 210 0 516 518 469 0 +-.0022 -.004 -13e-5
 1971276677246375e-31 1 0 -1 1971276677246375e-31 0 50 518 211 0 493 0 524 0 +-.
0022 .004 -13e-5 1 -1084202172485504e-31 0 1084202172485504e-31 1 0 83 3 526 1 1
 1 15 203 195 0 200 516 0 17 200 0 203 360 201 31 196 420 0 544 +17 360 0 203 20
4 200 248 544 358 0 429 +17 196 0 195 220 193 194 200 420 0 545 -17 544 0 490 19
8 250 31 360 358 0 0 -15 490 625 0 198 484 0 17 198 0 490 546 544 208 193 199 0
 0 -17 250 0 490 544 546 248 247 381 0 360 -17 546 0 490 250 198 245 212 364 0 0
 -17 247 0 323 394 429 245 250 381 0 547 +17 394 0 323 265 247 242 547 418 0 0 +
17 429 0 323 247 253 248 204 406 0 0 +17 547 0 517 212 363 245 394 418 0 546 -15
 517 199 0 547 493 0 17 212 0 517 427 547 208 546 364 0 197 +17 363 0 517 547 42
7 242 548 361 0 394 +17 427 0 517 363 212 202 197 425 0 548 +17 548 0 502 413 24
4 202 363 361 0 0 -15 502 667 0 413 498 0 17 413 0 502 417 548 215 207 390 0 0 -
17 244 0 502 548 417 242 265 388 0 363 -17 417 0 502 244 413 263 217 374 0 0 -17
 265 0 323 392 394 263 244 388 0 396 +17 396 0 415 217 373 263 392 397 0 417 -17
 207 0 195 197 410 202 413 390 0 427 +17 197 0 195 193 207 208 427 425 0 198 -17
 253 0 323 429 391 251 256 384 0 204 +17 204 0 203 201 360 251 429 406 0 205 -17
 205 0 499 256 545 251 201 206 0 0 -15 499 646 0 545 489 0 17 256 0 499 405 205
 254 253 384 0 370 -17 545 0 499 205 405 194 220 386 0 0 -17 405 0 499 545 256 2
18 370 368 0 0 -17 220 0 195 404 196 218 545 386 0 402 +17 402 0 401 370 223 218
 404 414 0 405 +81 1 520 1447 161 301 0 492 513 486 549 83 3 521 1 1 1 81 1 492
 1502 130 301 520 0 487 497 550 81 1 486 1448 161 482 0 483 520 551 552 83 3 549
 1 1 1 81 1 551 1449 161 484 0 487 486 553 554 83 3 552 1 1 1 81 1 487 1501 130
 484 551 0 483 492 555 81 1 553 1450 161 489 0 497 551 556 557 83 3 554 1 1 1 81
 1 497 1503 130 489 553 0 492 501 558 81 1 556 1451 161 498 0 501 553 559 560 83
 3 557 1 1 1 81 1 501 1504 130 498 556 0 497 503 561 81 1 559 1452 161 409 0 503
 556 505 562 83 3 560 1 1 1 81 1 503 1505 130 409 559 0 501 504 563 81 1 505 145
3 161 447 0 504 559 509 564 83 3 562 1 1 1 83 3 564 1 1 1 82 1 563 1963393285 82
 1 561 1961427205 82 1 558 1959461125 82 1 555 1957495045 82 1 550 1953562885 83
 3 512 1 1 1 82 1 507 1965359365 50 461 89 0 442 454 494 0 +-.003 .005 -13e-5 0
 -1 0 0 0 -1 82 1 488 1955528965 82 1 475 1838285061 82 1 466 1856372997 82 1 45
7 1838809349 19 185 95 0 12 0 29 25 S0 74 20 183 4 0 0 522 182 509 22 0 0 0 0 0
 0 0 0 0 0 0 0 0 0 0 0 81 2 182 913 176 12 0 22 0 0 565 0 83 1 565 7999.49471763
306 81 1 10 1528 43 7 566 0 0 0 0 70 11 0 4 T7 0 0 4 20 1 567 567 13 13 94 0 7 0
 568 0 0 569 0 51 14 862 0 570 571 0 0 +-.005 -.007 -24e-5 0 0 1 5e-4 1 0 0 31 1
5 675 0 18 572 0 0 -.0017 -.0035 -24e-5 0 0 -1 -1 0 0 5e-4 29 16 555 0 19 573 0
 -.005 -.0075 -24e-5 19 17 28 0 7 569 0 574 V0 16 18 664 0 ?575 0 576 15 0 0 7 1
8 19 553 0 577 0 578 16 ?7 17 577 0 579 580 581 19 582 583 0 584 +18 578 550 0 5
85 19 586 573 ?7 17 585 0 587 584 588 578 589 590 0 580 +18 586 547 0 591 578 59
2 593 ?7 29 573 552 0 578 593 16 .005 -.0075 -24e-5 29 593 549 0 586 594 573 .00
55 -.007 -24e-5 29 594 546 0 592 595 593 .0055 .007 -24e-5 18 592 544 0 596 586
 597 594 ?7 29 595 543 0 597 598 594 -.0022 -.0035 -24e-5 18 597 541 0 599 592 6
00 595 ?7 29 598 540 0 600 601 595 -.0022 .0035 -24e-5 18 600 538 0 602 597 603
 598 ?7 29 601 537 0 603 604 598 -.0017 .004 -24e-5 18 603 535 0 605 600 606 601
 ?7 29 604 534 0 606 607 601 .0017 .004 -24e-5 18 606 532 0 608 603 609 604 ?7 2
9 607 531 0 609 610 604 .0022 .0035 -24e-5 18 609 529 0 611 606 612 607 ?7 29 61
0 528 0 612 613 607 .0022 -.0035 -24e-5 18 612 526 0 575 609 614 610 ?7 29 613 5
25 0 614 615 610 .0017 -.004 -24e-5 18 614 523 0 616 612 617 613 ?7 29 615 522 0
 617 618 613 -.0017 -.004 -24e-5 18 617 520 0 619 614 620 615 ?7 29 618 509 0 62
0 621 615 -.0055 .007 -24e-5 18 620 507 0 622 617 623 618 ?7 29 621 506 0 623 62
4 618 -.0055 -.007 -24e-5 18 623 504 0 625 620 626 621 ?7 29 624 483 0 626 627 6
21 -.005 -.0075 -13e-5 18 626 481 0 628 623 629 624 ?7 29 627 480 0 629 630 624
 .005 -.0075 -13e-5 18 629 478 0 631 626 632 627 ?7 29 630 477 0 632 633 627 -.0
055 .007 -13e-5 18 632 475 0 634 629 635 630 ?7 29 633 474 0 635 636 630 -.0055
 -.007 -13e-5 18 635 472 0 637 632 638 633 ?7 29 636 471 0 638 639 633 .0055 -.0
07 -13e-5 18 638 469 0 640 635 641 636 ?7 29 639 468 0 641 642 636 .0055 .007 -1
3e-5 18 641 466 0 643 638 644 639 ?7 29 642 465 0 644 645 639 -.0017 .004 -13e-5
 18 644 463 0 646 641 647 642 ?7 29 645 462 0 647 648 642 .0017 .004 -13e-5 18 6
47 460 0 649 644 650 645 ?7 29 648 459 0 650 651 645 -.0022 -.0035 -13e-5 18 650
 457 0 652 647 653 648 ?7 29 651 456 0 653 654 648 -.0022 .0035 -13e-5 18 653 45
4 0 655 650 656 651 ?7 29 654 453 0 656 657 651 .0017 -.004 -13e-5 18 656 451 0
 658 653 659 654 ?7 29 657 450 0 659 660 654 -.0017 -.004 -13e-5 18 659 448 0 66
1 656 662 657 ?7 29 660 447 0 662 663 657 .0022 .0035 -13e-5 18 662 445 0 664 65
9 665 660 ?7 29 663 444 0 665 666 660 .0022 -.0035 -13e-5 18 665 442 0 667 662 6
68 663 ?7 29 666 431 0 668 669 663 .005 .0075 -24e-5 18 668 429 0 670 665 671 66
6 ?7 29 669 428 0 671 672 666 -.005 .0075 -24e-5 18 671 426 0 673 668 674 669 ?7
 29 672 425 0 674 675 669 .005 .0075 -13e-5 18 674 423 0 676 671 677 672 ?7 29 6
75 422 0 677 0 672 -.005 .0075 -13e-5 18 677 420 0 678 674 0 675 ?7 17 678 0 679
 680 681 677 634 682 0 683 -15 679 704 0 684 685 0 17 680 0 679 684 678 671 683
 686 0 0 -17 681 0 679 678 684 632 622 687 0 0 -17 634 0 688 689 690 632 678 682
 0 691 +16 682 499 0 ?634 692 693 694 0 0 7 17 683 0 695 696 697 677 680 686 0 6
90 +15 695 78 0 697 698 0 17 696 0 695 670 683 674 690 699 0 700 +17 697 0 695 6
83 670 671 701 702 0 680 -16 686 437 0 ?683 703 704 705 0 0 7 17 690 0 688 634 6
76 677 696 699 0 0 -15 688 44 0 690 706 707 17 676 0 688 690 708 674 643 693 0 6
96 +16 699 421 0 ?696 709 710 711 0 0 7 16 709 545 0 ?588 712 699 713 0 0 7 16 7
10 473 0 ?691 699 714 715 0 0 7 30 711 66 0 699 715 716 0 +.0055 .0075 -13e-5 1
 0 0 30 715 67 0 710 717 711 0 +-.0055 .0075 -13e-5 0 1 0 30 716 434 0 704 711 7
05 0 -.005 .0075 -24e-5 0 0 1 16 704 432 0 ?670 686 702 716 0 0 7 30 705 439 0 6
86 716 718 0 +-.005 .0075 -24e-5 0 0 1 31 718 486 0 703 705 719 0 --.005 -.007 -
13e-5 0 0 -1 -1 0 0 5e-4 16 703 484 0 ?628 720 686 718 0 0 7 31 719 491 0 720 71
8 721 0 -.005 -.007 -13e-5 0 0 -1 -1 0 0 5e-4 16 720 489 0 ?640 693 703 719 0 0
 7 31 721 496 0 693 719 694 0 -.005 .007 -13e-5 0 0 -1 -1 0 0 5e-4 16 693 494 0
 ?676 682 720 721 0 0 7 31 694 501 0 682 721 722 0 --.005 .007 -13e-5 0 0 -1 -1
 0 0 5e-4 30 722 512 0 692 694 723 0 +-.0055 -.007 -24e-5 0 0 1 16 692 510 0 ?72
4 687 682 722 0 0 7 30 723 517 0 687 722 725 0 --.0055 .007 -24e-5 0 0 1 16 687
 515 0 ?622 726 692 723 0 0 7 31 725 558 0 726 723 727 0 +-.005 -.007 -24e-5 0 0
 -1 -1 0 0 5e-4 16 726 556 0 ?625 590 687 725 0 0 7 31 727 563 0 590 725 728 0 +
.005 -.007 -24e-5 0 0 -1 -1 0 0 5e-4 16 590 561 0 ?585 729 726 727 0 0 7 31 728
 568 0 729 727 730 0 +.005 .007 -24e-5 0 0 -1 -1 0 0 5e-4 16 729 566 0 ?596 731
 590 728 0 0 7 31 730 573 0 731 728 732 0 +-.005 .007 -24e-5 0 0 -1 -1 0 0 5e-4
 16 731 571 0 ?673 733 729 730 0 0 7 30 732 578 0 733 730 734 0 -.0055 -.007 -24
e-5 0 0 1 16 733 576 0 ?591 735 731 732 0 0 7 30 734 583 0 735 732 736 0 +.0055
 .007 -24e-5 0 0 1 16 735 581 0 ?737 738 733 734 0 0 7 30 736 588 0 738 734 739
 0 --.0022 -.0035 -24e-5 0 0 1 16 738 586 0 ?599 740 735 736 0 0 7 30 739 593 0
 740 736 741 0 +-.0022 .0035 -13e-5 0 0 1 16 740 591 0 ?742 743 738 739 0 0 7 30
 741 598 0 743 739 744 0 +.0017 .004 -13e-5 0 0 1 16 743 596 0 ?745 746 740 741
 0 0 7 30 744 603 0 746 741 747 0 --.0017 .004 -24e-5 0 0 1 16 746 601 0 ?605 74
8 743 744 0 0 7 30 747 608 0 748 744 749 0 +.0022 -.0035 -13e-5 0 0 1 16 748 606
 0 ?750 751 746 747 0 0 7 30 749 613 0 751 747 752 0 -.0022 .0035 -24e-5 0 0 1 1
6 751 611 0 ?611 753 748 749 0 0 7 30 752 618 0 753 749 754 0 -.0017 -.004 -24e-
5 0 0 1 16 753 616 0 ?616 755 751 752 0 0 7 30 754 623 0 755 752 756 0 +-.0017 -
.004 -13e-5 0 0 1 16 755 621 0 ?757 583 753 754 0 0 7 30 756 628 0 583 754 758 0
 --.005 -.0075 -24e-5 0 0 1 16 583 626 0 ?577 759 755 756 0 0 7 30 758 633 0 759
 756 760 0 +.005 -.0075 -24e-5 0 0 1 16 759 631 0 ?761 762 583 758 0 0 7 31 760
 668 0 762 758 763 0 +-.0017 .0035 -13e-5 0 0 -1 -1 0 0 5e-4 16 762 636 0 ?646 7
64 759 760 0 0 7 31 763 669 0 764 760 765 0 --.0017 .0035 -24e-5 0 0 -1 -1 0 0 5
e-4 16 764 640 0 ?602 766 762 763 0 0 7 31 765 670 0 766 763 767 0 +.0017 .0035
 -13e-5 0 0 -1 -1 0 0 5e-4 16 766 644 0 ?664 768 764 765 0 0 7 31 767 671 0 768
 765 769 0 -.0017 .0035 -24e-5 0 0 -1 -1 0 0 5e-4 16 768 648 0 ?608 770 766 767
 0 0 7 31 769 672 0 770 767 771 0 +-.0017 -.0035 -13e-5 0 0 -1 -1 0 0 5e-4 16 77
0 652 0 ?652 772 768 769 0 0 7 31 771 673 0 772 769 572 0 --.0017 -.0035 -24e-5
 0 0 -1 -1 0 0 5e-4 16 772 656 0 ?619 576 770 771 0 0 7 31 572 674 0 576 771 15
 0 +.0017 -.0035 -13e-5 0 0 -1 -1 0 0 5e-4 16 576 660 0 ?658 18 772 572 0 0 7 17
 658 0 773 774 775 656 667 576 0 776 +15 773 228 0 775 706 688 17 774 0 773 652
 658 659 776 777 0 0 -17 775 0 773 658 664 665 778 779 0 0 -17 667 0 780 781 782
 665 658 576 0 750 -17 776 0 783 616 757 656 774 777 0 782 +15 783 307 0 784 785
 0 17 616 0 783 784 776 614 782 753 0 786 +17 757 0 783 776 784 659 787 755 0 77
4 +16 777 449 0 ?776 779 0 788 0 0 7 17 782 0 780 667 789 656 616 753 0 0 -15 78
0 809 0 789 790 0 17 789 0 780 782 781 614 575 18 0 0 -17 781 0 780 789 667 612
 750 748 0 0 -17 575 0 791 792 786 612 789 18 0 793 +15 791 263 0 794 568 795 17
 792 0 791 608 575 609 793 796 0 797 +17 786 0 791 575 619 614 784 798 0 789 +17
 793 0 799 750 611 612 792 796 0 781 -15 799 319 0 778 800 0 17 750 0 799 778 79
3 665 781 748 0 775 +17 611 0 799 793 778 609 801 751 0 792 +16 796 527 0 ?792 8
02 798 803 0 0 7 16 802 533 0 ?804 805 796 806 0 0 7 16 798 521 0 ?786 796 807 8
08 0 0 7 30 803 344 0 796 808 806 0 +.0022 -.004 -24e-5 -1084202172485504e-31 1
 0 30 808 345 0 798 0 803 0 +-.0022 -.004 -24e-5 1 197127667724637e-30 0 30 806
 343 0 802 803 809 0 +.0022 .004 -24e-5 -1 197127667724637e-30 0 30 809 342 0 80
5 806 788 0 +-.0022 .004 -24e-5 0 -1 0 16 805 539 0 ?794 810 802 809 0 0 7 30 78
8 341 0 777 809 811 0 +-.0022 -.004 -13e-5 1 197127667724637e-30 0 30 811 340 0
 779 788 812 0 +.0022 -.004 -13e-5 -1084202172485504e-31 1 0 16 779 443 0 ?778 8
13 777 811 0 0 7 30 812 339 0 813 811 814 0 +.0022 .004 -13e-5 -1 19712766772463
7e-30 0 16 813 461 0 ?815 807 779 812 0 0 7 30 814 338 0 807 812 816 0 +-.0022 .
004 -13e-5 0 -1 0 16 807 455 0 ?817 798 813 814 0 0 7 31 816 181 0 818 814 819 0
 +-.004 -.006 -24e-5 0 0 -1 -1 0 0 5e-4 16 818 161 0 ?820 821 810 816 0 0 7 31 8
19 180 0 810 816 822 0 +-.004 -.006 -13e-5 0 0 -1 -1 0 0 5e-4 16 810 158 0 ?823
 818 805 819 0 0 7 31 822 143 0 824 819 825 0 +.004 .006 -24e-5 0 0 -1 -1 0 0 5e
-4 16 824 123 0 ?826 827 821 822 0 0 7 31 825 142 0 821 822 713 0 +.004 .006 -13
e-5 0 0 -1 -1 0 0 5e-4 16 821 120 0 ?828 824 818 825 0 0 7 30 713 5 0 709 825 82
9 0 +.0055 .0075 -24e-5 0 -1 0 30 829 8 0 712 713 830 0 +.0055 -.0075 -24e-5 -1
 0 0 16 712 551 0 ?584 831 709 829 0 0 7 30 830 11 0 831 829 832 0 +-.0055 .0075
 -24e-5 0 1 0 16 831 505 0 ?833 702 712 830 0 0 7 30 832 14 0 702 830 834 0 +.00
55 .0075 -24e-5 1 0 0 16 702 427 0 ?701 704 831 832 0 0 7 30 834 69 0 827 832 71
7 0 +.0055 .0075 -13e-5 0 -1 0 16 827 467 0 ?835 714 824 834 0 0 7 30 717 68 0 7
14 834 715 0 +.0055 -.0075 -13e-5 -1 0 0 16 714 479 0 ?581 710 827 717 0 0 7 17
 581 0 579 577 761 626 836 714 0 582 +15 579 82 0 580 837 0 17 761 0 579 581 580
 629 838 759 0 836 +17 836 0 688 640 628 629 581 714 0 0 -17 582 0 839 637 840 6
26 577 583 0 0 -15 839 851 0 840 570 0 17 637 0 839 841 582 635 628 703 0 724 -1
7 840 0 839 582 841 19 625 726 0 0 -17 841 0 839 840 637 623 724 692 0 0 -17 625
 0 587 833 584 623 840 726 0 842 +15 587 3 0 833 568 843 17 833 0 587 673 625 62
0 842 831 0 684 +17 584 0 587 625 585 19 580 712 0 840 +17 842 0 844 724 622 623
 833 831 0 841 -15 844 80 0 691 845 0 17 724 0 844 691 842 635 841 692 0 689 +17
 622 0 844 842 691 620 681 687 0 833 +17 691 0 844 622 724 632 689 710 0 681 +17
 689 0 688 628 634 635 691 710 0 0 -17 628 0 688 836 689 626 637 703 0 581 +14 8
45 81 846 ?698 837 844 13 847 -0 0 698 837 574 81 1 846 1508 130 845 848 0 0 849
 850 14 698 79 849 ?851 845 695 13 852 -0 0 851 845 574 14 837 83 853 ?845 854 5
79 13 855 -0 0 845 854 574 50 847 87 0 845 852 855 0 +-.0055 .0075 -24e-5 1 0 0
 0 0 -1 13 574 29 0 0 0 0 0 0 17 568 14 568 155 856 ?706 0 791 13 857 +0 0 706 0
 574 81 1 856 1511 130 568 858 0 853 859 860 14 706 149 859 ?854 568 773 13 861
 -0 0 854 568 574 50 857 2 0 568 862 861 0 +0 0 -24e-5 0 0 -1 -1 0 0 51 862 139
 0 851 863 857 0 -.004 .006 -24e-5 0 0 1 5e-4 1 0 0 50 861 65 0 706 857 852 0 +0
 0 -13e-5 0 0 -1 -1 0 0 50 852 86 0 698 861 847 0 +.0055 .0075 -24e-5 0 -1 0 0 0
 -1 14 851 126 864 ?865 698 866 13 862 +0 0 865 698 574 51 863 177 0 865 867 862
 0 --.004 -.006 -24e-5 0 0 1 5e-4 1 0 0 14 865 164 868 ?785 851 869 13 863 +0 0
 785 851 574 50 867 328 0 785 870 863 0 +-.0022 -.004 -24e-5 197127667724637e-30
 -1 0 1 197127667724637e-30 0 14 785 304 871 ?872 865 783 13 867 -0 0 872 865 57
4 50 870 329 0 800 873 867 0 +.0022 -.004 -24e-5 1 1084202172485504e-31 0 -10842
02172485504e-31 1 0 14 800 316 874 ?685 875 799 13 870 -0 0 685 875 574 50 873 3
30 0 875 876 870 0 +.0022 .004 -24e-5 1971276677246375e-31 1 0 -1 19712766772463
75e-31 0 14 875 312 877 ?800 872 878 13 873 -0 0 800 872 574 50 876 331 0 872 0
 873 0 +-.0022 .004 -24e-5 -1 0 0 0 0 1 14 872 308 879 ?875 785 880 13 876 -0 0
 875 785 574 81 1 879 1518 130 872 881 0 877 882 883 15 880 311 0 884 872 0 17 8
84 0 880 742 599 600 794 805 0 885 -17 742 0 880 817 884 653 885 740 0 886 +17 5
99 0 880 884 817 597 887 738 0 794 +17 794 0 791 619 602 597 884 805 0 888 +17 8
85 0 889 890 655 600 742 740 0 0 -15 889 746 0 890 891 0 17 890 0 889 892 885 60
3 602 764 0 0 -17 655 0 889 885 892 653 646 762 0 742 -17 892 0 889 655 890 644
 605 746 0 0 -17 646 0 773 893 886 644 655 762 0 815 +17 893 0 773 664 646 647 8
15 813 0 0 -17 886 0 773 646 652 653 817 807 0 0 -17 815 0 878 605 745 644 893 8
13 0 892 +15 878 315 0 815 875 0 17 605 0 878 894 815 603 892 746 0 804 +17 745
 0 878 815 894 647 895 743 0 893 +17 894 0 878 745 605 606 804 802 0 895 -17 895
 0 896 797 649 606 745 743 0 0 -15 896 767 0 797 897 0 17 797 0 896 801 895 609
 608 768 0 0 -17 649 0 896 895 801 647 664 766 0 745 -17 801 0 896 649 797 662 6
11 751 0 0 -17 664 0 773 775 893 662 649 766 0 778 +17 778 0 799 611 750 662 775
 779 0 801 +17 608 0 791 804 792 606 797 768 0 894 +17 804 0 791 602 608 603 894
 802 0 890 +17 602 0 791 794 804 600 890 764 0 884 +14 897 766 882 ?898 891 896
 13 899 -0 0 898 891 574 81 1 882 1519 130 897 900 0 879 901 902 14 898 787 901
 ?790 897 903 13 904 -0 0 790 897 574 14 891 745 905 ?897 906 889 13 907 -0 0 89
7 906 574 51 899 778 0 897 907 904 0 +.0017 .0035 -24e-5 0 0 -1 5e-4 -1 0 0 51 9
07 757 0 891 908 899 0 +-.0017 .0035 -24e-5 0 0 -1 5e-4 -1 0 0 51 904 799 0 898
 899 909 0 +-.0017 -.0035 -24e-5 0 0 -1 5e-4 -1 0 0 51 909 820 0 790 904 571 0 +
.0017 -.0035 -24e-5 0 0 -1 5e-4 -1 0 0 14 790 808 910 ?911 898 780 13 909 -0 0 9
11 898 574 51 571 841 0 911 909 14 0 +.005 -.007 -24e-5 0 0 1 5e-4 1 0 0 14 911
 829 912 ?570 790 913 13 571 +0 0 570 790 574 81 1 912 1523 130 911 914 0 910 91
5 916 14 570 850 915 ?0 911 839 13 14 +0 0 0 911 574 15 913 830 0 589 911 0 17 5
89 0 913 917 838 586 585 590 0 0 -17 917 0 913 631 589 638 591 733 0 0 -17 838 0
 913 589 631 578 761 759 0 0 -17 631 0 913 838 917 629 640 720 0 761 -17 640 0 6
88 708 836 638 631 720 0 835 +17 708 0 688 676 640 641 835 827 0 0 -17 835 0 918
 591 737 638 708 827 0 917 +15 918 84 0 919 854 0 17 591 0 918 919 835 586 917 7
33 0 588 +17 737 0 918 835 919 641 920 735 0 708 +17 919 0 918 737 591 592 588 7
09 0 920 -17 920 0 921 922 643 592 737 735 0 0 -15 921 725 0 922 906 0 17 922 0
 921 700 920 668 596 729 0 0 -17 643 0 921 920 700 641 676 693 0 737 -17 700 0 9
21 643 922 674 670 704 0 0 -17 670 0 695 697 696 668 700 704 0 701 +17 701 0 587
 596 673 668 697 702 0 922 +17 596 0 587 588 701 592 922 729 0 919 +17 673 0 587
 701 833 671 684 731 0 697 +17 684 0 679 681 680 620 673 731 0 0 -17 588 0 587 5
85 596 586 919 709 0 589 +14 906 724 923 ?891 685 921 13 908 +0 0 891 685 574 81
 1 923 1525 130 906 924 0 915 925 926 14 685 703 925 ?906 800 679 13 927 +0 0 90
6 800 574 51 908 736 0 906 927 907 0 +.005 .007 -24e-5 0 0 1 5e-4 1 0 0 51 927 7
15 0 685 928 908 0 +-.005 .007 -24e-5 0 0 1 5e-4 1 0 0 50 928 89 0 854 855 927 0
 +.0055 .0075 -24e-5 -1 0 0 0 0 1 14 854 85 929 ?837 706 918 13 928 -0 0 837 706
 574 50 855 88 0 837 847 928 0 +.0055 -.0075 -24e-5 0 1 0 0 0 1 81 1 929 1527 13
0 854 930 0 925 0 931 81 1 930 1448 161 854 0 929 932 933 934 81 1 925 1526 130
 685 935 0 923 929 936 82 1 931 652935729 81 1 935 1458 161 685 0 925 937 924 93
8 82 1 936 664797745 81 1 937 1457 161 800 0 874 939 935 940 81 1 924 1459 161 9
06 0 923 935 941 942 83 3 938 1 1 1 81 1 941 1460 161 891 0 905 924 900 943 83 3
 942 1 1 1 81 1 905 1521 130 891 941 0 901 910 944 81 1 900 1461 161 897 0 882 9
41 945 946 83 3 943 1 1 1 81 1 945 1462 161 898 0 901 900 947 948 83 3 946 1 1 1
 81 1 901 1520 130 898 945 0 882 905 949 81 1 947 1463 161 790 0 910 945 914 950
 83 3 948 1 1 1 81 1 910 1522 130 790 947 0 905 912 951 81 1 914 1464 161 911 0
 912 947 952 953 83 3 950 1 1 1 81 1 952 1465 161 570 0 915 914 0 954 83 3 953 1
 1 1 81 1 915 1524 130 570 952 0 912 923 955 83 3 954 1 1 1 82 1 955 678560305 8
2 1 951 674628145 82 1 949 672662065 82 1 944 668729905 81 1 874 1516 130 800 93
7 0 871 877 956 81 1 939 1456 161 875 0 877 881 937 957 83 3 940 1 1 1 81 1 877
 1517 130 875 939 0 874 879 958 81 1 881 1455 161 872 0 879 959 939 960 83 3 957
 1 1 1 81 1 959 1454 161 785 0 871 961 881 962 83 3 960 1 1 1 81 1 871 1515 130
 785 959 0 868 874 963 81 1 961 1453 161 865 0 868 964 959 965 83 3 962 1 1 1 81
 1 868 1514 130 865 961 0 864 871 966 81 1 964 1452 161 851 0 864 967 961 968 83
 3 965 1 1 1 81 1 864 1513 130 851 964 0 859 868 969 81 1 967 1451 161 698 0 849
 848 964 970 83 3 968 1 1 1 81 1 849 1509 130 698 967 0 846 853 971 81 1 848 145
0 161 845 0 846 933 967 972 83 3 970 1 1 1 81 1 933 1449 161 837 0 853 930 848 9
73 83 3 972 1 1 1 81 1 853 1510 130 837 933 0 849 856 974 83 3 973 1 1 1 82 1 97
4 652739121 82 1 971 653591089 81 1 859 1512 130 706 932 0 856 864 975 82 1 969
 653787696 81 1 932 1447 161 706 0 859 858 930 976 82 1 975 653263409 81 1 858 1
446 161 568 0 856 0 932 977 83 3 976 1 1 1 83 3 977 1 1 1 82 1 966 653918768 82
 1 963 654836273 82 1 958 655295025 82 1 956 655163953 83 3 934 1 1 1 82 1 926 6
66763825 82 1 916 676594225 15 903 788 0 888 898 0 17 888 0 903 887 787 597 619
 772 0 0 -17 887 0 903 661 888 650 599 738 0 0 -17 787 0 903 888 661 617 757 755
 0 0 -17 619 0 791 786 794 617 888 772 0 784 +17 784 0 783 757 616 617 786 798 0
 787 -17 661 0 903 787 887 659 652 770 0 757 -17 652 0 773 886 774 650 661 770 0
 817 +17 817 0 880 599 742 650 886 807 0 887 +82 1 902 670695985 82 1 883 655426
097 15 869 167 0 820 865 978 17 820 0 869 820 820 0 979 818 0 0 +15 978 168 0 98
0 865 0 17 980 0 978 980 980 0 823 810 0 0 -17 823 0 981 823 823 0 980 810 0 0 +
15 981 147 0 823 706 0 17 979 0 843 979 979 0 820 818 0 0 -15 843 152 0 979 568
 0 15 866 129 0 826 851 982 17 826 0 866 826 826 0 983 824 0 0 +15 982 130 0 984
 851 0 17 984 0 982 984 984 0 828 821 0 0 -17 828 0 707 828 828 0 984 821 0 0 +1
5 707 109 0 828 706 981 17 983 0 795 983 983 0 826 824 0 0 -15 795 114 0 983 568
 587 82 1 860 653132337 82 1 850 652870193 17 580 0 579 761 577 578 584 712 0 83
8 -19 569 95 0 7 0 17 13 S0 74 20 567 4 0 0 929 566 952 10 0 0 0 0 0 0 0 0 0 0 0
 0 0 0 0 0 81 2 566 905 176 7 0 10 0 0 985 0 83 1 985 7999.49471763306 74 20 6 1
 0 0 2 0 0 0 0 0 0 0 0 0 0 0 0 0 0 0 0 0 0 0 80 2 5 986 987 9000 0 0 0 0 3 5 0 0
 0 TFFFFFFFFFFFFF9 1 79 18 987 MULTI_BODY_ID_20011 0 
