  0
SECTION
  2
HEADER
  9
$ACADVER
  1
AC1014
  9
$INSBASE
 10
0.000000
 20
0.000000
  9
$LIMMIN
 10
-431.800000
 20
-285.573400
  9
$LIMMAX
 10
656.953300
 20
731.665700
  9
$EXTMIN
 10
-431.800000
 20
-285.573400
  9
$EXTMAX
 10
656.953300
 20
731.665700
  9
$ATTMODE
 70
0
  9
$LUNITS
 70
2
  9
$LUPREC
 70
4
  9
$THICKNESS
 40
0.777200
  9
$MEASUREMENT
 70
1
  9
$HANDSEED
  5
208
  0
ENDSEC
  0
SECTION
  2
TABLES
  0
TABLE
  2
LTYPE
  5
4
100
AcDbSymbolTable
 70
3
  0
LTYPE
  5
1
100
AcDbSymbolTableRecord
100
AcDbLinetypeTableRecord
  3

  2
BYBLOCK
 70
0
 72
65
 73
0
 40
0.000000
  0
LTYPE
  5
2
100
AcDbSymbolTableRecord
100
AcDbLinetypeTableRecord
  3

  2
BYLAYER
 70
0
 72
65
 73
0
 40
0.000000
  0
LTYPE
  5
3
100
AcDbSymbolTableRecord
100
AcDbLinetypeTableRecord
  3
Solid Line
  2
CONTINUOUS
 70
0
 72
65
 73
0
 40
0.000000
  0
ENDTAB
  0
TABLE
  2
LAYER
  5
7
100
AcDbSymbolTable
 70
2
  0
LAYER
  5
5
100
AcDbSymbolTableRecord
100
AcDbLayerTableRecord
  2
0
 70
0
 62
7
  6
CONTINUOUS
  0
LAYER
  5
6
100
AcDbSymbolTableRecord
100
AcDbLayerTableRecord
  2
PIN_TOP
 70
0
 62
240
  6
CONTINUOUS
  0
ENDTAB
  0
TABLE
  2
STYLE
  5
9
100
AcDbSymbolTable
 70
1
  0
STYLE
  5
8
100
AcDbSymbolTableRecord
100
AcDbTextStyleTableRecord
  2
STANDARD
 70
0
 40
0.000000
 41
1.000000
 50
0.000000
 71
0
 42
0.200000
  3
txt
  0
ENDTAB
  0
TABLE
  2
VPORT
  5
a
100
AcDbSymbolTable
 70
1
  0
ENDTAB
  0
TABLE
  2
VIEW
  5
b
100
AcDbSymbolTable
 70
1
  0
ENDTAB
  0
TABLE
  2
APPID
  5
d
100
AcDbSymbolTable
 70
1
  0
APPID
  5
c
100
AcDbSymbolTableRecord
100
AcDbRegAppTableRecord
  2
ACAD
 70
0
  0
ENDTAB
  0
TABLE
  2
UCS
  5
e
100
AcDbSymbolTable
 70
1
  0
ENDTAB
  0
TABLE
  2
BLOCK_RECORD
  5
f
100
AcDbSymbolTable
 70
10
  0
BLOCK_RECORD
  5
6b
100
AcDbSymbolTableRecord
100
AcDbBlockTableRecord
  2
FIGURE_DIAMOND
  0
BLOCK_RECORD
  5
62
100
AcDbSymbolTableRecord
100
AcDbBlockTableRecord
  2
FIGURE_CROSS
  0
BLOCK_RECORD
  5
57
100
AcDbSymbolTableRecord
100
AcDbBlockTableRecord
  2
FIGURE_TRI
  0
BLOCK_RECORD
  5
4f
100
AcDbSymbolTableRecord
100
AcDbBlockTableRecord
  2
FIGURE_OBLONG
  0
BLOCK_RECORD
  5
3e
100
AcDbSymbolTableRecord
100
AcDbBlockTableRecord
  2
FIGURE_OCT
  0
BLOCK_RECORD
  5
31
100
AcDbSymbolTableRecord
100
AcDbBlockTableRecord
  2
FIGURE_HEX
  0
BLOCK_RECORD
  5
26
100
AcDbSymbolTableRecord
100
AcDbBlockTableRecord
  2
FIGURE_SQUARE
  0
BLOCK_RECORD
  5
1d
100
AcDbSymbolTableRecord
100
AcDbBlockTableRecord
  2
FIGURE_CIRCLE
  0
BLOCK_RECORD
  5
19
100
AcDbSymbolTableRecord
100
AcDbBlockTableRecord
  2
*PAPER_SPACE
  0
BLOCK_RECORD
  5
16
100
AcDbSymbolTableRecord
100
AcDbBlockTableRecord
  2
*MODEL_SPACE
  0
ENDTAB
  0
TABLE
  2
DIMSTYLE
  5
10
100
AcDbSymbolTable
 70
1
  0
ENDTAB
  0
ENDSEC
  0
SECTION
  2
BLOCKS
  0
BLOCK
  5
14
100
AcDbEntity
  8
0
100
AcDbBlockBegin
  2
*MODEL_SPACE
 70
0
 10
0.000000
 20
0.000000
  3
*MODEL_SPACE
  0
ENDBLK
  5
15
100
AcDbEntity
  8
0
100
AcDbBlockEnd
  0
BLOCK
  5
17
100
AcDbEntity
  8
0
100
AcDbBlockBegin
  2
*PAPER_SPACE
 70
0
 10
0.000000
 20
0.000000
  3
*PAPER_SPACE
  0
ENDBLK
  5
18
100
AcDbEntity
  8
0
100
AcDbBlockEnd
  0
BLOCK
  5
1a
100
AcDbEntity
  8
0
100
AcDbBlockBegin
  2
FIGURE_CIRCLE
 70
0
 10
0.000000
 20
0.000000
  3
FIGURE_CIRCLE
  0
CIRCLE
  5
1c
100
AcDbEntity
  8
0
100
AcDbCircle
 10
0.000000
 20
0.000000
 40
0.500000
  0
ENDBLK
  5
1b
100
AcDbEntity
  8
0
100
AcDbBlockEnd
  0
BLOCK
  5
1e
100
AcDbEntity
  8
0
100
AcDbBlockBegin
  2
FIGURE_SQUARE
 70
0
 10
0.000000
 20
0.000000
  3
FIGURE_SQUARE
  0
POLYLINE
  5
20
100
AcDbEntity
  8
0
100
AcDb2dPolyline
 66
1
 70
1
 40
0.000000
 41
0.000000
 39
0.000000
  0
VERTEX
  5
22
100
AcDbEntity
  8
0
100
AcDbVertex
100
AcDb2dVertex
 10
-0.500000
 20
-0.500000
 40
0.000000
 41
0.000000
 42
0.000000
  0
VERTEX
  5
23
100
AcDbEntity
  8
0
100
AcDbVertex
100
AcDb2dVertex
 10
-0.500000
 20
0.500000
 40
0.000000
 41
0.000000
 42
0.000000
  0
VERTEX
  5
24
100
AcDbEntity
  8
0
100
AcDbVertex
100
AcDb2dVertex
 10
0.500000
 20
0.500000
 40
0.000000
 41
0.000000
 42
0.000000
  0
VERTEX
  5
25
100
AcDbEntity
  8
0
100
AcDbVertex
100
AcDb2dVertex
 10
0.500000
 20
-0.500000
 40
0.000000
 41
0.000000
 42
0.000000
  0
SEQEND
  5
21
100
AcDbEntity
  0
ENDBLK
  5
1f
100
AcDbEntity
  8
0
100
AcDbBlockEnd
  0
BLOCK
  5
27
100
AcDbEntity
  8
0
100
AcDbBlockBegin
  2
FIGURE_HEX
 70
0
 10
0.000000
 20
0.000000
  3
FIGURE_HEX
  0
POLYLINE
  5
29
100
AcDbEntity
  8
0
100
AcDb2dPolyline
 66
1
 70
1
 40
0.000000
 41
0.000000
 39
0.000000
  0
VERTEX
  5
2b
100
AcDbEntity
  8
0
100
AcDbVertex
100
AcDb2dVertex
 10
-0.500000
 20
0.000000
 40
0.000000
 41
0.000000
 42
0.000000
  0
VERTEX
  5
2c
100
AcDbEntity
  8
0
100
AcDbVertex
100
AcDb2dVertex
 10
-0.250000
 20
0.500000
 40
0.000000
 41
0.000000
 42
0.000000
  0
VERTEX
  5
2d
100
AcDbEntity
  8
0
100
AcDbVertex
100
AcDb2dVertex
 10
0.250000
 20
0.500000
 40
0.000000
 41
0.000000
 42
0.000000
  0
VERTEX
  5
2e
100
AcDbEntity
  8
0
100
AcDbVertex
100
AcDb2dVertex
 10
0.500000
 20
0.000000
 40
0.000000
 41
0.000000
 42
0.000000
  0
VERTEX
  5
2f
100
AcDbEntity
  8
0
100
AcDbVertex
100
AcDb2dVertex
 10
0.250000
 20
-0.500000
 40
0.000000
 41
0.000000
 42
0.000000
  0
VERTEX
  5
30
100
AcDbEntity
  8
0
100
AcDbVertex
100
AcDb2dVertex
 10
-0.250000
 20
-0.500000
 40
0.000000
 41
0.000000
 42
0.000000
  0
SEQEND
  5
2a
100
AcDbEntity
  0
ENDBLK
  5
28
100
AcDbEntity
  8
0
100
AcDbBlockEnd
  0
BLOCK
  5
32
100
AcDbEntity
  8
0
100
AcDbBlockBegin
  2
FIGURE_OCT
 70
0
 10
0.000000
 20
0.000000
  3
FIGURE_OCT
  0
POLYLINE
  5
34
100
AcDbEntity
  8
0
100
AcDb2dPolyline
 66
1
 70
1
 40
0.000000
 41
0.000000
 39
0.000000
  0
VERTEX
  5
36
100
AcDbEntity
  8
0
100
AcDbVertex
100
AcDb2dVertex
 10
-0.500000
 20
-0.207100
 40
0.000000
 41
0.000000
 42
0.000000
  0
VERTEX
  5
37
100
AcDbEntity
  8
0
100
AcDbVertex
100
AcDb2dVertex
 10
-0.500000
 20
0.207100
 40
0.000000
 41
0.000000
 42
0.000000
  0
VERTEX
  5
38
100
AcDbEntity
  8
0
100
AcDbVertex
100
AcDb2dVertex
 10
-0.207100
 20
0.500000
 40
0.000000
 41
0.000000
 42
0.000000
  0
VERTEX
  5
39
100
AcDbEntity
  8
0
100
AcDbVertex
100
AcDb2dVertex
 10
0.207100
 20
0.500000
 40
0.000000
 41
0.000000
 42
0.000000
  0
VERTEX
  5
3a
100
AcDbEntity
  8
0
100
AcDbVertex
100
AcDb2dVertex
 10
0.500000
 20
0.207100
 40
0.000000
 41
0.000000
 42
0.000000
  0
VERTEX
  5
3b
100
AcDbEntity
  8
0
100
AcDbVertex
100
AcDb2dVertex
 10
0.500000
 20
-0.207100
 40
0.000000
 41
0.000000
 42
0.000000
  0
VERTEX
  5
3c
100
AcDbEntity
  8
0
100
AcDbVertex
100
AcDb2dVertex
 10
0.207100
 20
-0.500000
 40
0.000000
 41
0.000000
 42
0.000000
  0
VERTEX
  5
3d
100
AcDbEntity
  8
0
100
AcDbVertex
100
AcDb2dVertex
 10
-0.207100
 20
-0.500000
 40
0.000000
 41
0.000000
 42
0.000000
  0
SEQEND
  5
35
100
AcDbEntity
  0
ENDBLK
  5
33
100
AcDbEntity
  8
0
100
AcDbBlockEnd
  0
BLOCK
  5
3f
100
AcDbEntity
  8
0
100
AcDbBlockBegin
  2
FIGURE_OBLONG
 70
0
 10
0.000000
 20
0.000000
  3
FIGURE_OBLONG
  0
POLYLINE
  5
41
100
AcDbEntity
  8
0
100
AcDb2dPolyline
 66
1
 70
1
 40
0.000000
 41
0.000000
 39
0.000000
  0
VERTEX
  5
43
100
AcDbEntity
  8
0
100
AcDbVertex
100
AcDb2dVertex
 10
-0.500000
 20
-0.125000
 40
0.000000
 41
0.000000
 42
0.000000
  0
VERTEX
  5
44
100
AcDbEntity
  8
0
100
AcDbVertex
100
AcDb2dVertex
 10
-0.500000
 20
0.125000
 40
0.000000
 41
0.000000
 42
0.000000
  0
VERTEX
  5
45
100
AcDbEntity
  8
0
100
AcDbVertex
100
AcDb2dVertex
 10
-0.416000
 20
0.375000
 40
0.000000
 41
0.000000
 42
0.000000
  0
VERTEX
  5
46
100
AcDbEntity
  8
0
100
AcDbVertex
100
AcDb2dVertex
 10
-0.250000
 20
0.500000
 40
0.000000
 41
0.000000
 42
0.000000
  0
VERTEX
  5
47
100
AcDbEntity
  8
0
100
AcDbVertex
100
AcDb2dVertex
 10
0.250000
 20
0.500000
 40
0.000000
 41
0.000000
 42
0.000000
  0
VERTEX
  5
48
100
AcDbEntity
  8
0
100
AcDbVertex
100
AcDb2dVertex
 10
0.416000
 20
0.375000
 40
0.000000
 41
0.000000
 42
0.000000
  0
VERTEX
  5
49
100
AcDbEntity
  8
0
100
AcDbVertex
100
AcDb2dVertex
 10
0.500000
 20
0.125000
 40
0.000000
 41
0.000000
 42
0.000000
  0
VERTEX
  5
4a
100
AcDbEntity
  8
0
100
AcDbVertex
100
AcDb2dVertex
 10
0.500000
 20
-0.125000
 40
0.000000
 41
0.000000
 42
0.000000
  0
VERTEX
  5
4b
100
AcDbEntity
  8
0
100
AcDbVertex
100
AcDb2dVertex
 10
0.416000
 20
-0.375000
 40
0.000000
 41
0.000000
 42
0.000000
  0
VERTEX
  5
4c
100
AcDbEntity
  8
0
100
AcDbVertex
100
AcDb2dVertex
 10
0.250000
 20
-0.500000
 40
0.000000
 41
0.000000
 42
0.000000
  0
VERTEX
  5
4d
100
AcDbEntity
  8
0
100
AcDbVertex
100
AcDb2dVertex
 10
-0.250000
 20
-0.500000
 40
0.000000
 41
0.000000
 42
0.000000
  0
VERTEX
  5
4e
100
AcDbEntity
  8
0
100
AcDbVertex
100
AcDb2dVertex
 10
-0.416000
 20
-0.375000
 40
0.000000
 41
0.000000
 42
0.000000
  0
SEQEND
  5
42
100
AcDbEntity
  0
ENDBLK
  5
40
100
AcDbEntity
  8
0
100
AcDbBlockEnd
  0
BLOCK
  5
50
100
AcDbEntity
  8
0
100
AcDbBlockBegin
  2
FIGURE_TRI
 70
0
 10
0.000000
 20
0.000000
  3
FIGURE_TRI
  0
POLYLINE
  5
52
100
AcDbEntity
  8
0
100
AcDb2dPolyline
 66
1
 70
1
 40
0.000000
 41
0.000000
 39
0.000000
  0
VERTEX
  5
54
100
AcDbEntity
  8
0
100
AcDbVertex
100
AcDb2dVertex
 10
-0.500000
 20
-0.500000
 40
0.000000
 41
0.000000
 42
0.000000
  0
VERTEX
  5
55
100
AcDbEntity
  8
0
100
AcDbVertex
100
AcDb2dVertex
 10
0.000000
 20
0.500000
 40
0.000000
 41
0.000000
 42
0.000000
  0
VERTEX
  5
56
100
AcDbEntity
  8
0
100
AcDbVertex
100
AcDb2dVertex
 10
0.500000
 20
-0.500000
 40
0.000000
 41
0.000000
 42
0.000000
  0
SEQEND
  5
53
100
AcDbEntity
  0
ENDBLK
  5
51
100
AcDbEntity
  8
0
100
AcDbBlockEnd
  0
BLOCK
  5
58
100
AcDbEntity
  8
0
100
AcDbBlockBegin
  2
FIGURE_CROSS
 70
0
 10
0.000000
 20
0.000000
  3
FIGURE_CROSS
  0
POLYLINE
  5
5a
100
AcDbEntity
  8
0
100
AcDb2dPolyline
 66
1
 70
0
 40
0.000000
 41
0.000000
 39
0.000000
  0
VERTEX
  5
5e
100
AcDbEntity
  8
0
100
AcDbVertex
100
AcDb2dVertex
 10
-0.500000
 20
0.000000
 40
0.000000
 41
0.000000
 42
0.000000
  0
VERTEX
  5
5f
100
AcDbEntity
  8
0
100
AcDbVertex
100
AcDb2dVertex
 10
0.500000
 20
0.000000
 40
0.000000
 41
0.000000
 42
0.000000
  0
SEQEND
  5
5b
100
AcDbEntity
  0
POLYLINE
  5
5c
100
AcDbEntity
  8
0
100
AcDb2dPolyline
 66
1
 70
0
 40
0.000000
 41
0.000000
 39
0.000000
  0
VERTEX
  5
60
100
AcDbEntity
  8
0
100
AcDbVertex
100
AcDb2dVertex
 10
0.000000
 20
0.500000
 40
0.000000
 41
0.000000
 42
0.000000
  0
VERTEX
  5
61
100
AcDbEntity
  8
0
100
AcDbVertex
100
AcDb2dVertex
 10
0.000000
 20
-0.500000
 40
0.000000
 41
0.000000
 42
0.000000
  0
SEQEND
  5
5d
100
AcDbEntity
  0
ENDBLK
  5
59
100
AcDbEntity
  8
0
100
AcDbBlockEnd
  0
BLOCK
  5
63
100
AcDbEntity
  8
0
100
AcDbBlockBegin
  2
FIGURE_DIAMOND
 70
0
 10
0.000000
 20
0.000000
  3
FIGURE_DIAMOND
  0
POLYLINE
  5
65
100
AcDbEntity
  8
0
100
AcDb2dPolyline
 66
1
 70
1
 40
0.000000
 41
0.000000
 39
0.000000
  0
VERTEX
  5
67
100
AcDbEntity
  8
0
100
AcDbVertex
100
AcDb2dVertex
 10
-0.500000
 20
0.000000
 40
0.000000
 41
0.000000
 42
0.000000
  0
VERTEX
  5
68
100
AcDbEntity
  8
0
100
AcDbVertex
100
AcDb2dVertex
 10
0.000000
 20
0.500000
 40
0.000000
 41
0.000000
 42
0.000000
  0
VERTEX
  5
69
100
AcDbEntity
  8
0
100
AcDbVertex
100
AcDb2dVertex
 10
0.500000
 20
0.000000
 40
0.000000
 41
0.000000
 42
0.000000
  0
VERTEX
  5
6a
100
AcDbEntity
  8
0
100
AcDbVertex
100
AcDb2dVertex
 10
0.000000
 20
-0.500000
 40
0.000000
 41
0.000000
 42
0.000000
  0
SEQEND
  5
66
100
AcDbEntity
  0
ENDBLK
  5
64
100
AcDbEntity
  8
0
100
AcDbBlockEnd
  0
ENDSEC
  0
SECTION
  2
ENTITIES
  0
HATCH
  5
71
100
AcDbEntity
  8
PIN_TOP
100
AcDbHatch
 10
0.000000
 20
0.000000
 30
0.000000
210
0.000000
220
0.000000
230
1.000000
  2
SOLID
 70
1
 71
0
 91
1
 92
2
 72
1
 73
1
 93
4
 10
2.973400
 20
7.971600
 42
0.000000
 10
3.973400
 20
7.971600
 42
0.000000
 10
3.973400
 20
6.971600
 42
0.000000
 10
2.973400
 20
6.971600
 42
0.000000
 97
0
 75
0
 76
1
 98
1
 10
0.000000
 20
0.000000
  0
HATCH
  5
77
100
AcDbEntity
  8
PIN_TOP
100
AcDbHatch
 10
0.000000
 20
0.000000
 30
0.000000
210
0.000000
220
0.000000
230
1.000000
  2
SOLID
 70
1
 71
0
 91
1
 92
2
 72
1
 73
1
 93
4
 10
4.623400
 20
7.971600
 42
0.000000
 10
5.623400
 20
7.971600
 42
0.000000
 10
5.623400
 20
6.971600
 42
0.000000
 10
4.623400
 20
6.971600
 42
0.000000
 97
0
 75
0
 76
1
 98
1
 10
0.000000
 20
0.000000
  0
HATCH
  5
7d
100
AcDbEntity
  8
PIN_TOP
100
AcDbHatch
 10
0.000000
 20
0.000000
 30
0.000000
210
0.000000
220
0.000000
230
1.000000
  2
SOLID
 70
1
 71
0
 91
1
 92
2
 72
1
 73
1
 93
4
 10
4.623400
 20
6.621600
 42
0.000000
 10
5.623400
 20
6.621600
 42
0.000000
 10
5.623400
 20
5.621600
 42
0.000000
 10
4.623400
 20
5.621600
 42
0.000000
 97
0
 75
0
 76
1
 98
1
 10
0.000000
 20
0.000000
  0
HATCH
  5
83
100
AcDbEntity
  8
PIN_TOP
100
AcDbHatch
 10
0.000000
 20
0.000000
 30
0.000000
210
0.000000
220
0.000000
230
1.000000
  2
SOLID
 70
1
 71
0
 91
1
 92
2
 72
1
 73
1
 93
4
 10
2.973400
 20
6.621600
 42
0.000000
 10
3.973400
 20
6.621600
 42
0.000000
 10
3.973400
 20
5.621600
 42
0.000000
 10
2.973400
 20
5.621600
 42
0.000000
 97
0
 75
0
 76
1
 98
1
 10
0.000000
 20
0.000000
  0
HATCH
  5
87
100
AcDbEntity
  8
PIN_TOP
100
AcDbHatch
 10
0.000000
 20
0.000000
 30
0.000000
210
0.000000
220
0.000000
230
1.000000
  2
SOLID
 70
1
 71
0
 91
1
 92
2
 72
1
 73
1
 93
2
 10
11.220000
 20
4.850000
 42
1.000000
 10
9.720000
 20
4.850000
 42
1.000000
 97
0
 75
0
 76
1
 98
1
 10
0.000000
 20
0.000000
  0
HATCH
  5
8b
100
AcDbEntity
  8
PIN_TOP
100
AcDbHatch
 10
0.000000
 20
0.000000
 30
0.000000
210
0.000000
220
0.000000
230
1.000000
  2
SOLID
 70
1
 71
0
 91
1
 92
2
 72
1
 73
1
 93
2
 10
0.256000
 20
-5.588000
 42
1.000000
 10
-0.764000
 20
-5.588000
 42
1.000000
 97
0
 75
0
 76
1
 98
1
 10
0.000000
 20
0.000000
  0
HATCH
  5
8f
100
AcDbEntity
  8
PIN_TOP
100
AcDbHatch
 10
0.000000
 20
0.000000
 30
0.000000
210
0.000000
220
0.000000
230
1.000000
  2
SOLID
 70
1
 71
0
 91
1
 92
2
 72
1
 73
1
 93
2
 10
12.448000
 20
11.176000
 42
1.000000
 10
11.428000
 20
11.176000
 42
1.000000
 97
0
 75
0
 76
1
 98
1
 10
0.000000
 20
0.000000
  0
HATCH
  5
95
100
AcDbEntity
  8
PIN_TOP
100
AcDbHatch
 10
0.000000
 20
0.000000
 30
0.000000
210
0.000000
220
0.000000
230
1.000000
  2
SOLID
 70
1
 71
0
 91
1
 92
2
 72
1
 73
1
 93
4
 10
0.400000
 20
5.900000
 42
-1.000000
 10
0.400000
 20
4.100000
 42
0.000000
 10
-0.400000
 20
4.100000
 42
-1.000000
 10
-0.400000
 20
5.900000
 42
0.000000
 97
0
 75
0
 76
1
 98
1
 10
0.000000
 20
0.000000
  0
HATCH
  5
9b
100
AcDbEntity
  8
PIN_TOP
100
AcDbHatch
 10
0.000000
 20
0.000000
 30
0.000000
210
0.000000
220
0.000000
230
1.000000
  2
SOLID
 70
1
 71
0
 91
1
 92
2
 72
1
 73
1
 93
4
 10
0.400000
 20
1.400000
 42
-1.000000
 10
0.400000
 20
-0.400000
 42
0.000000
 10
-0.400000
 20
-0.400000
 42
-1.000000
 10
-0.400000
 20
1.400000
 42
0.000000
 97
0
 75
0
 76
1
 98
1
 10
0.000000
 20
0.000000
  0
HATCH
  5
a1
100
AcDbEntity
  8
PIN_TOP
100
AcDbHatch
 10
0.000000
 20
0.000000
 30
0.000000
210
0.000000
220
0.000000
230
1.000000
  2
SOLID
 70
1
 71
0
 91
1
 92
2
 72
1
 73
1
 93
4
 10
1.565000
 20
3.406400
 42
0.000000
 10
2.428600
 20
3.406400
 42
0.000000
 10
2.428600
 20
3.101600
 42
0.000000
 10
1.565000
 20
3.101600
 42
0.000000
 97
0
 75
0
 76
1
 98
1
 10
0.000000
 20
0.000000
  0
HATCH
  5
a7
100
AcDbEntity
  8
PIN_TOP
100
AcDbHatch
 10
0.000000
 20
0.000000
 30
0.000000
210
0.000000
220
0.000000
230
1.000000
  2
SOLID
 70
1
 71
0
 91
1
 92
2
 72
1
 73
1
 93
4
 10
1.565000
 20
2.906200
 42
0.000000
 10
2.428600
 20
2.906200
 42
0.000000
 10
2.428600
 20
2.601400
 42
0.000000
 10
1.565000
 20
2.601400
 42
0.000000
 97
0
 75
0
 76
1
 98
1
 10
0.000000
 20
0.000000
  0
HATCH
  5
ad
100
AcDbEntity
  8
PIN_TOP
100
AcDbHatch
 10
0.000000
 20
0.000000
 30
0.000000
210
0.000000
220
0.000000
230
1.000000
  2
SOLID
 70
1
 71
0
 91
1
 92
2
 72
1
 73
1
 93
4
 10
1.565000
 20
2.406400
 42
0.000000
 10
2.428600
 20
2.406400
 42
0.000000
 10
2.428600
 20
2.101600
 42
0.000000
 10
1.565000
 20
2.101600
 42
0.000000
 97
0
 75
0
 76
1
 98
1
 10
0.000000
 20
0.000000
  0
HATCH
  5
b3
100
AcDbEntity
  8
PIN_TOP
100
AcDbHatch
 10
0.000000
 20
0.000000
 30
0.000000
210
0.000000
220
0.000000
230
1.000000
  2
SOLID
 70
1
 71
0
 91
1
 92
2
 72
1
 73
1
 93
4
 10
1.565000
 20
1.906200
 42
0.000000
 10
2.428600
 20
1.906200
 42
0.000000
 10
2.428600
 20
1.601400
 42
0.000000
 10
1.565000
 20
1.601400
 42
0.000000
 97
0
 75
0
 76
1
 98
1
 10
0.000000
 20
0.000000
  0
HATCH
  5
b9
100
AcDbEntity
  8
PIN_TOP
100
AcDbHatch
 10
0.000000
 20
0.000000
 30
0.000000
210
0.000000
220
0.000000
230
1.000000
  2
SOLID
 70
1
 71
0
 91
1
 92
2
 72
1
 73
1
 93
4
 10
1.565000
 20
1.406400
 42
0.000000
 10
2.428600
 20
1.406400
 42
0.000000
 10
2.428600
 20
1.101600
 42
0.000000
 10
1.565000
 20
1.101600
 42
0.000000
 97
0
 75
0
 76
1
 98
1
 10
0.000000
 20
0.000000
  0
HATCH
  5
bf
100
AcDbEntity
  8
PIN_TOP
100
AcDbHatch
 10
0.000000
 20
0.000000
 30
0.000000
210
0.000000
220
0.000000
230
1.000000
  2
SOLID
 70
1
 71
0
 91
1
 92
2
 72
1
 73
1
 93
4
 10
1.565000
 20
0.906200
 42
0.000000
 10
2.428600
 20
0.906200
 42
0.000000
 10
2.428600
 20
0.601400
 42
0.000000
 10
1.565000
 20
0.601400
 42
0.000000
 97
0
 75
0
 76
1
 98
1
 10
0.000000
 20
0.000000
  0
HATCH
  5
c5
100
AcDbEntity
  8
PIN_TOP
100
AcDbHatch
 10
0.000000
 20
0.000000
 30
0.000000
210
0.000000
220
0.000000
230
1.000000
  2
SOLID
 70
1
 71
0
 91
1
 92
2
 72
1
 73
1
 93
4
 10
1.565000
 20
0.406400
 42
0.000000
 10
2.428600
 20
0.406400
 42
0.000000
 10
2.428600
 20
0.101600
 42
0.000000
 10
1.565000
 20
0.101600
 42
0.000000
 97
0
 75
0
 76
1
 98
1
 10
0.000000
 20
0.000000
  0
HATCH
  5
cb
100
AcDbEntity
  8
PIN_TOP
100
AcDbHatch
 10
0.000000
 20
0.000000
 30
0.000000
210
0.000000
220
0.000000
230
1.000000
  2
SOLID
 70
1
 71
0
 91
1
 92
2
 72
1
 73
1
 93
4
 10
1.565000
 20
-0.093800
 42
0.000000
 10
2.428600
 20
-0.093800
 42
0.000000
 10
2.428600
 20
-0.398600
 42
0.000000
 10
1.565000
 20
-0.398600
 42
0.000000
 97
0
 75
0
 76
1
 98
1
 10
0.000000
 20
0.000000
  0
HATCH
  5
d1
100
AcDbEntity
  8
PIN_TOP
100
AcDbHatch
 10
0.000000
 20
0.000000
 30
0.000000
210
0.000000
220
0.000000
230
1.000000
  2
SOLID
 70
1
 71
0
 91
1
 92
2
 72
1
 73
1
 93
4
 10
2.619300
 20
-0.589300
 42
0.000000
 10
2.924100
 20
-0.589300
 42
0.000000
 10
2.924100
 20
-1.452900
 42
0.000000
 10
2.619300
 20
-1.452900
 42
0.000000
 97
0
 75
0
 76
1
 98
1
 10
0.000000
 20
0.000000
  0
HATCH
  5
d7
100
AcDbEntity
  8
PIN_TOP
100
AcDbHatch
 10
0.000000
 20
0.000000
 30
0.000000
210
0.000000
220
0.000000
230
1.000000
  2
SOLID
 70
1
 71
0
 91
1
 92
2
 72
1
 73
1
 93
4
 10
3.119500
 20
-0.589300
 42
0.000000
 10
3.424300
 20
-0.589300
 42
0.000000
 10
3.424300
 20
-1.452900
 42
0.000000
 10
3.119500
 20
-1.452900
 42
0.000000
 97
0
 75
0
 76
1
 98
1
 10
0.000000
 20
0.000000
  0
HATCH
  5
dd
100
AcDbEntity
  8
PIN_TOP
100
AcDbHatch
 10
0.000000
 20
0.000000
 30
0.000000
210
0.000000
220
0.000000
230
1.000000
  2
SOLID
 70
1
 71
0
 91
1
 92
2
 72
1
 73
1
 93
4
 10
3.619300
 20
-0.589300
 42
0.000000
 10
3.924100
 20
-0.589300
 42
0.000000
 10
3.924100
 20
-1.452900
 42
0.000000
 10
3.619300
 20
-1.452900
 42
0.000000
 97
0
 75
0
 76
1
 98
1
 10
0.000000
 20
0.000000
  0
HATCH
  5
e3
100
AcDbEntity
  8
PIN_TOP
100
AcDbHatch
 10
0.000000
 20
0.000000
 30
0.000000
210
0.000000
220
0.000000
230
1.000000
  2
SOLID
 70
1
 71
0
 91
1
 92
2
 72
1
 73
1
 93
4
 10
4.119500
 20
-0.589300
 42
0.000000
 10
4.424300
 20
-0.589300
 42
0.000000
 10
4.424300
 20
-1.452900
 42
0.000000
 10
4.119500
 20
-1.452900
 42
0.000000
 97
0
 75
0
 76
1
 98
1
 10
0.000000
 20
0.000000
  0
HATCH
  5
e9
100
AcDbEntity
  8
PIN_TOP
100
AcDbHatch
 10
0.000000
 20
0.000000
 30
0.000000
210
0.000000
220
0.000000
230
1.000000
  2
SOLID
 70
1
 71
0
 91
1
 92
2
 72
1
 73
1
 93
4
 10
4.619300
 20
-0.589300
 42
0.000000
 10
4.924100
 20
-0.589300
 42
0.000000
 10
4.924100
 20
-1.452900
 42
0.000000
 10
4.619300
 20
-1.452900
 42
0.000000
 97
0
 75
0
 76
1
 98
1
 10
0.000000
 20
0.000000
  0
HATCH
  5
ef
100
AcDbEntity
  8
PIN_TOP
100
AcDbHatch
 10
0.000000
 20
0.000000
 30
0.000000
210
0.000000
220
0.000000
230
1.000000
  2
SOLID
 70
1
 71
0
 91
1
 92
2
 72
1
 73
1
 93
4
 10
5.119500
 20
-0.589300
 42
0.000000
 10
5.424300
 20
-0.589300
 42
0.000000
 10
5.424300
 20
-1.452900
 42
0.000000
 10
5.119500
 20
-1.452900
 42
0.000000
 97
0
 75
0
 76
1
 98
1
 10
0.000000
 20
0.000000
  0
HATCH
  5
f5
100
AcDbEntity
  8
PIN_TOP
100
AcDbHatch
 10
0.000000
 20
0.000000
 30
0.000000
210
0.000000
220
0.000000
230
1.000000
  2
SOLID
 70
1
 71
0
 91
1
 92
2
 72
1
 73
1
 93
4
 10
5.619300
 20
-0.589300
 42
0.000000
 10
5.924100
 20
-0.589300
 42
0.000000
 10
5.924100
 20
-1.452900
 42
0.000000
 10
5.619300
 20
-1.452900
 42
0.000000
 97
0
 75
0
 76
1
 98
1
 10
0.000000
 20
0.000000
  0
HATCH
  5
fb
100
AcDbEntity
  8
PIN_TOP
100
AcDbHatch
 10
0.000000
 20
0.000000
 30
0.000000
210
0.000000
220
0.000000
230
1.000000
  2
SOLID
 70
1
 71
0
 91
1
 92
2
 72
1
 73
1
 93
4
 10
6.119500
 20
-0.589300
 42
0.000000
 10
6.424300
 20
-0.589300
 42
0.000000
 10
6.424300
 20
-1.452900
 42
0.000000
 10
6.119500
 20
-1.452900
 42
0.000000
 97
0
 75
0
 76
1
 98
1
 10
0.000000
 20
0.000000
  0
HATCH
  5
101
100
AcDbEntity
  8
PIN_TOP
100
AcDbHatch
 10
0.000000
 20
0.000000
 30
0.000000
210
0.000000
220
0.000000
230
1.000000
  2
SOLID
 70
1
 71
0
 91
1
 92
2
 72
1
 73
1
 93
4
 10
6.615000
 20
-0.093800
 42
0.000000
 10
7.478600
 20
-0.093800
 42
0.000000
 10
7.478600
 20
-0.398600
 42
0.000000
 10
6.615000
 20
-0.398600
 42
0.000000
 97
0
 75
0
 76
1
 98
1
 10
0.000000
 20
0.000000
  0
HATCH
  5
107
100
AcDbEntity
  8
PIN_TOP
100
AcDbHatch
 10
0.000000
 20
0.000000
 30
0.000000
210
0.000000
220
0.000000
230
1.000000
  2
SOLID
 70
1
 71
0
 91
1
 92
2
 72
1
 73
1
 93
4
 10
6.615000
 20
0.406400
 42
0.000000
 10
7.478600
 20
0.406400
 42
0.000000
 10
7.478600
 20
0.101600
 42
0.000000
 10
6.615000
 20
0.101600
 42
0.000000
 97
0
 75
0
 76
1
 98
1
 10
0.000000
 20
0.000000
  0
HATCH
  5
10d
100
AcDbEntity
  8
PIN_TOP
100
AcDbHatch
 10
0.000000
 20
0.000000
 30
0.000000
210
0.000000
220
0.000000
230
1.000000
  2
SOLID
 70
1
 71
0
 91
1
 92
2
 72
1
 73
1
 93
4
 10
6.615000
 20
0.906200
 42
0.000000
 10
7.478600
 20
0.906200
 42
0.000000
 10
7.478600
 20
0.601400
 42
0.000000
 10
6.615000
 20
0.601400
 42
0.000000
 97
0
 75
0
 76
1
 98
1
 10
0.000000
 20
0.000000
  0
HATCH
  5
113
100
AcDbEntity
  8
PIN_TOP
100
AcDbHatch
 10
0.000000
 20
0.000000
 30
0.000000
210
0.000000
220
0.000000
230
1.000000
  2
SOLID
 70
1
 71
0
 91
1
 92
2
 72
1
 73
1
 93
4
 10
6.615000
 20
1.406400
 42
0.000000
 10
7.478600
 20
1.406400
 42
0.000000
 10
7.478600
 20
1.101600
 42
0.000000
 10
6.615000
 20
1.101600
 42
0.000000
 97
0
 75
0
 76
1
 98
1
 10
0.000000
 20
0.000000
  0
HATCH
  5
119
100
AcDbEntity
  8
PIN_TOP
100
AcDbHatch
 10
0.000000
 20
0.000000
 30
0.000000
210
0.000000
220
0.000000
230
1.000000
  2
SOLID
 70
1
 71
0
 91
1
 92
2
 72
1
 73
1
 93
4
 10
6.615000
 20
1.906200
 42
0.000000
 10
7.478600
 20
1.906200
 42
0.000000
 10
7.478600
 20
1.601400
 42
0.000000
 10
6.615000
 20
1.601400
 42
0.000000
 97
0
 75
0
 76
1
 98
1
 10
0.000000
 20
0.000000
  0
HATCH
  5
11f
100
AcDbEntity
  8
PIN_TOP
100
AcDbHatch
 10
0.000000
 20
0.000000
 30
0.000000
210
0.000000
220
0.000000
230
1.000000
  2
SOLID
 70
1
 71
0
 91
1
 92
2
 72
1
 73
1
 93
4
 10
6.615000
 20
2.406400
 42
0.000000
 10
7.478600
 20
2.406400
 42
0.000000
 10
7.478600
 20
2.101600
 42
0.000000
 10
6.615000
 20
2.101600
 42
0.000000
 97
0
 75
0
 76
1
 98
1
 10
0.000000
 20
0.000000
  0
HATCH
  5
125
100
AcDbEntity
  8
PIN_TOP
100
AcDbHatch
 10
0.000000
 20
0.000000
 30
0.000000
210
0.000000
220
0.000000
230
1.000000
  2
SOLID
 70
1
 71
0
 91
1
 92
2
 72
1
 73
1
 93
4
 10
6.615000
 20
2.906200
 42
0.000000
 10
7.478600
 20
2.906200
 42
0.000000
 10
7.478600
 20
2.601400
 42
0.000000
 10
6.615000
 20
2.601400
 42
0.000000
 97
0
 75
0
 76
1
 98
1
 10
0.000000
 20
0.000000
  0
HATCH
  5
12b
100
AcDbEntity
  8
PIN_TOP
100
AcDbHatch
 10
0.000000
 20
0.000000
 30
0.000000
210
0.000000
220
0.000000
230
1.000000
  2
SOLID
 70
1
 71
0
 91
1
 92
2
 72
1
 73
1
 93
4
 10
6.615000
 20
3.406400
 42
0.000000
 10
7.478600
 20
3.406400
 42
0.000000
 10
7.478600
 20
3.101600
 42
0.000000
 10
6.615000
 20
3.101600
 42
0.000000
 97
0
 75
0
 76
1
 98
1
 10
0.000000
 20
0.000000
  0
HATCH
  5
131
100
AcDbEntity
  8
PIN_TOP
100
AcDbHatch
 10
0.000000
 20
0.000000
 30
0.000000
210
0.000000
220
0.000000
230
1.000000
  2
SOLID
 70
1
 71
0
 91
1
 92
2
 72
1
 73
1
 93
4
 10
6.119500
 20
4.460700
 42
0.000000
 10
6.424300
 20
4.460700
 42
0.000000
 10
6.424300
 20
3.597100
 42
0.000000
 10
6.119500
 20
3.597100
 42
0.000000
 97
0
 75
0
 76
1
 98
1
 10
0.000000
 20
0.000000
  0
HATCH
  5
137
100
AcDbEntity
  8
PIN_TOP
100
AcDbHatch
 10
0.000000
 20
0.000000
 30
0.000000
210
0.000000
220
0.000000
230
1.000000
  2
SOLID
 70
1
 71
0
 91
1
 92
2
 72
1
 73
1
 93
4
 10
5.619300
 20
4.460700
 42
0.000000
 10
5.924100
 20
4.460700
 42
0.000000
 10
5.924100
 20
3.597100
 42
0.000000
 10
5.619300
 20
3.597100
 42
0.000000
 97
0
 75
0
 76
1
 98
1
 10
0.000000
 20
0.000000
  0
HATCH
  5
13d
100
AcDbEntity
  8
PIN_TOP
100
AcDbHatch
 10
0.000000
 20
0.000000
 30
0.000000
210
0.000000
220
0.000000
230
1.000000
  2
SOLID
 70
1
 71
0
 91
1
 92
2
 72
1
 73
1
 93
4
 10
5.119500
 20
4.460700
 42
0.000000
 10
5.424300
 20
4.460700
 42
0.000000
 10
5.424300
 20
3.597100
 42
0.000000
 10
5.119500
 20
3.597100
 42
0.000000
 97
0
 75
0
 76
1
 98
1
 10
0.000000
 20
0.000000
  0
HATCH
  5
143
100
AcDbEntity
  8
PIN_TOP
100
AcDbHatch
 10
0.000000
 20
0.000000
 30
0.000000
210
0.000000
220
0.000000
230
1.000000
  2
SOLID
 70
1
 71
0
 91
1
 92
2
 72
1
 73
1
 93
4
 10
4.619300
 20
4.460700
 42
0.000000
 10
4.924100
 20
4.460700
 42
0.000000
 10
4.924100
 20
3.597100
 42
0.000000
 10
4.619300
 20
3.597100
 42
0.000000
 97
0
 75
0
 76
1
 98
1
 10
0.000000
 20
0.000000
  0
HATCH
  5
149
100
AcDbEntity
  8
PIN_TOP
100
AcDbHatch
 10
0.000000
 20
0.000000
 30
0.000000
210
0.000000
220
0.000000
230
1.000000
  2
SOLID
 70
1
 71
0
 91
1
 92
2
 72
1
 73
1
 93
4
 10
4.119500
 20
4.460700
 42
0.000000
 10
4.424300
 20
4.460700
 42
0.000000
 10
4.424300
 20
3.597100
 42
0.000000
 10
4.119500
 20
3.597100
 42
0.000000
 97
0
 75
0
 76
1
 98
1
 10
0.000000
 20
0.000000
  0
HATCH
  5
14f
100
AcDbEntity
  8
PIN_TOP
100
AcDbHatch
 10
0.000000
 20
0.000000
 30
0.000000
210
0.000000
220
0.000000
230
1.000000
  2
SOLID
 70
1
 71
0
 91
1
 92
2
 72
1
 73
1
 93
4
 10
3.619300
 20
4.460700
 42
0.000000
 10
3.924100
 20
4.460700
 42
0.000000
 10
3.924100
 20
3.597100
 42
0.000000
 10
3.619300
 20
3.597100
 42
0.000000
 97
0
 75
0
 76
1
 98
1
 10
0.000000
 20
0.000000
  0
HATCH
  5
155
100
AcDbEntity
  8
PIN_TOP
100
AcDbHatch
 10
0.000000
 20
0.000000
 30
0.000000
210
0.000000
220
0.000000
230
1.000000
  2
SOLID
 70
1
 71
0
 91
1
 92
2
 72
1
 73
1
 93
4
 10
3.119500
 20
4.460700
 42
0.000000
 10
3.424300
 20
4.460700
 42
0.000000
 10
3.424300
 20
3.597100
 42
0.000000
 10
3.119500
 20
3.597100
 42
0.000000
 97
0
 75
0
 76
1
 98
1
 10
0.000000
 20
0.000000
  0
HATCH
  5
15b
100
AcDbEntity
  8
PIN_TOP
100
AcDbHatch
 10
0.000000
 20
0.000000
 30
0.000000
210
0.000000
220
0.000000
230
1.000000
  2
SOLID
 70
1
 71
0
 91
1
 92
2
 72
1
 73
1
 93
4
 10
2.619300
 20
4.460700
 42
0.000000
 10
2.924100
 20
4.460700
 42
0.000000
 10
2.924100
 20
3.597100
 42
0.000000
 10
2.619300
 20
3.597100
 42
0.000000
 97
0
 75
0
 76
1
 98
1
 10
0.000000
 20
0.000000
  0
HATCH
  5
15f
100
AcDbEntity
  8
PIN_TOP
100
AcDbHatch
 10
0.000000
 20
0.000000
 30
0.000000
210
0.000000
220
0.000000
230
1.000000
  2
SOLID
 70
1
 71
0
 91
1
 92
2
 72
1
 73
1
 93
2
 10
2.450000
 20
5.850000
 42
1.000000
 10
1.650000
 20
5.850000
 42
1.000000
 97
0
 75
0
 76
1
 98
1
 10
0.000000
 20
0.000000
  0
HATCH
  5
163
100
AcDbEntity
  8
PIN_TOP
100
AcDbHatch
 10
0.000000
 20
0.000000
 30
0.000000
210
0.000000
220
0.000000
230
1.000000
  2
SOLID
 70
1
 71
0
 91
1
 92
2
 72
1
 73
1
 93
2
 10
0.750000
 20
-2.400000
 42
1.000000
 10
-0.050000
 20
-2.400000
 42
1.000000
 97
0
 75
0
 76
1
 98
1
 10
0.000000
 20
0.000000
  0
HATCH
  5
167
100
AcDbEntity
  8
PIN_TOP
100
AcDbHatch
 10
0.000000
 20
0.000000
 30
0.000000
210
0.000000
220
0.000000
230
1.000000
  2
SOLID
 70
1
 71
0
 91
1
 92
2
 72
1
 73
1
 93
2
 10
6.870000
 20
-2.400000
 42
1.000000
 10
6.070000
 20
-2.400000
 42
1.000000
 97
0
 75
0
 76
1
 98
1
 10
0.000000
 20
0.000000
  0
HATCH
  5
16b
100
AcDbEntity
  8
PIN_TOP
100
AcDbHatch
 10
0.000000
 20
0.000000
 30
0.000000
210
0.000000
220
0.000000
230
1.000000
  2
SOLID
 70
1
 71
0
 91
1
 92
2
 72
1
 73
1
 93
2
 10
5.600000
 20
-2.400000
 42
1.000000
 10
4.800000
 20
-2.400000
 42
1.000000
 97
0
 75
0
 76
1
 98
1
 10
0.000000
 20
0.000000
  0
HATCH
  5
16f
100
AcDbEntity
  8
PIN_TOP
100
AcDbHatch
 10
0.000000
 20
0.000000
 30
0.000000
210
0.000000
220
0.000000
230
1.000000
  2
SOLID
 70
1
 71
0
 91
1
 92
2
 72
1
 73
1
 93
2
 10
4.070000
 20
-2.400000
 42
1.000000
 10
3.270000
 20
-2.400000
 42
1.000000
 97
0
 75
0
 76
1
 98
1
 10
0.000000
 20
0.000000
  0
HATCH
  5
173
100
AcDbEntity
  8
PIN_TOP
100
AcDbHatch
 10
0.000000
 20
0.000000
 30
0.000000
210
0.000000
220
0.000000
230
1.000000
  2
SOLID
 70
1
 71
0
 91
1
 92
2
 72
1
 73
1
 93
2
 10
2.800000
 20
-2.400000
 42
1.000000
 10
2.000000
 20
-2.400000
 42
1.000000
 97
0
 75
0
 76
1
 98
1
 10
0.000000
 20
0.000000
  0
HATCH
  5
177
100
AcDbEntity
  8
PIN_TOP
100
AcDbHatch
 10
0.000000
 20
0.000000
 30
0.000000
210
0.000000
220
0.000000
230
1.000000
  2
SOLID
 70
1
 71
0
 91
1
 92
2
 72
1
 73
1
 93
2
 10
-0.540000
 20
-1.070000
 42
1.000000
 10
-1.340000
 20
-1.070000
 42
1.000000
 97
0
 75
0
 76
1
 98
1
 10
0.000000
 20
0.000000
  0
HATCH
  5
17d
100
AcDbEntity
  8
PIN_TOP
100
AcDbHatch
 10
0.000000
 20
0.000000
 30
0.000000
210
0.000000
220
0.000000
230
1.000000
  2
SOLID
 70
1
 71
0
 91
1
 92
2
 72
1
 73
1
 93
4
 10
9.211800
 20
7.947500
 42
0.000000
 10
9.846800
 20
7.947500
 42
0.000000
 10
9.846800
 20
7.312500
 42
0.000000
 10
9.211800
 20
7.312500
 42
0.000000
 97
0
 75
0
 76
1
 98
1
 10
0.000000
 20
0.000000
  0
HATCH
  5
183
100
AcDbEntity
  8
PIN_TOP
100
AcDbHatch
 10
0.000000
 20
0.000000
 30
0.000000
210
0.000000
220
0.000000
230
1.000000
  2
SOLID
 70
1
 71
0
 91
1
 92
2
 72
1
 73
1
 93
4
 10
10.253200
 20
7.947500
 42
0.000000
 10
10.888200
 20
7.947500
 42
0.000000
 10
10.888200
 20
7.312500
 42
0.000000
 10
10.253200
 20
7.312500
 42
0.000000
 97
0
 75
0
 76
1
 98
1
 10
0.000000
 20
0.000000
  0
HATCH
  5
189
100
AcDbEntity
  8
PIN_TOP
100
AcDbHatch
 10
0.000000
 20
0.000000
 30
0.000000
210
0.000000
220
0.000000
230
1.000000
  2
SOLID
 70
1
 71
0
 91
1
 92
2
 72
1
 73
1
 93
4
 10
10.253200
 20
6.884100
 42
0.000000
 10
10.888200
 20
6.884100
 42
0.000000
 10
10.888200
 20
6.249100
 42
0.000000
 10
10.253200
 20
6.249100
 42
0.000000
 97
0
 75
0
 76
1
 98
1
 10
0.000000
 20
0.000000
  0
HATCH
  5
18f
100
AcDbEntity
  8
PIN_TOP
100
AcDbHatch
 10
0.000000
 20
0.000000
 30
0.000000
210
0.000000
220
0.000000
230
1.000000
  2
SOLID
 70
1
 71
0
 91
1
 92
2
 72
1
 73
1
 93
4
 10
9.211800
 20
6.884100
 42
0.000000
 10
9.846800
 20
6.884100
 42
0.000000
 10
9.846800
 20
6.249100
 42
0.000000
 10
9.211800
 20
6.249100
 42
0.000000
 97
0
 75
0
 76
1
 98
1
 10
0.000000
 20
0.000000
  0
HATCH
  5
195
100
AcDbEntity
  8
PIN_TOP
100
AcDbHatch
 10
0.000000
 20
0.000000
 30
0.000000
210
0.000000
220
0.000000
230
1.000000
  2
SOLID
 70
1
 71
0
 91
1
 92
2
 72
1
 73
1
 93
4
 10
7.965100
 20
1.749400
 42
0.000000
 10
8.600100
 20
1.749400
 42
0.000000
 10
8.600100
 20
1.114400
 42
0.000000
 10
7.965100
 20
1.114400
 42
0.000000
 97
0
 75
0
 76
1
 98
1
 10
0.000000
 20
0.000000
  0
HATCH
  5
19b
100
AcDbEntity
  8
PIN_TOP
100
AcDbHatch
 10
0.000000
 20
0.000000
 30
0.000000
210
0.000000
220
0.000000
230
1.000000
  2
SOLID
 70
1
 71
0
 91
1
 92
2
 72
1
 73
1
 93
4
 10
7.965100
 20
2.790800
 42
0.000000
 10
8.600100
 20
2.790800
 42
0.000000
 10
8.600100
 20
2.155800
 42
0.000000
 10
7.965100
 20
2.155800
 42
0.000000
 97
0
 75
0
 76
1
 98
1
 10
0.000000
 20
0.000000
  0
HATCH
  5
1a1
100
AcDbEntity
  8
PIN_TOP
100
AcDbHatch
 10
0.000000
 20
0.000000
 30
0.000000
210
0.000000
220
0.000000
230
1.000000
  2
SOLID
 70
1
 71
0
 91
1
 92
2
 72
1
 73
1
 93
4
 10
7.959300
 20
4.858200
 42
0.000000
 10
8.594300
 20
4.858200
 42
0.000000
 10
8.594300
 20
4.223200
 42
0.000000
 10
7.959300
 20
4.223200
 42
0.000000
 97
0
 75
0
 76
1
 98
1
 10
0.000000
 20
0.000000
  0
HATCH
  5
1a7
100
AcDbEntity
  8
PIN_TOP
100
AcDbHatch
 10
0.000000
 20
0.000000
 30
0.000000
210
0.000000
220
0.000000
230
1.000000
  2
SOLID
 70
1
 71
0
 91
1
 92
2
 72
1
 73
1
 93
4
 10
7.959300
 20
3.816800
 42
0.000000
 10
8.594300
 20
3.816800
 42
0.000000
 10
8.594300
 20
3.181800
 42
0.000000
 10
7.959300
 20
3.181800
 42
0.000000
 97
0
 75
0
 76
1
 98
1
 10
0.000000
 20
0.000000
  0
HATCH
  5
1ad
100
AcDbEntity
  8
PIN_TOP
100
AcDbHatch
 10
0.000000
 20
0.000000
 30
0.000000
210
0.000000
220
0.000000
230
1.000000
  2
SOLID
 70
1
 71
0
 91
1
 92
2
 72
1
 73
1
 93
4
 10
7.979300
 20
-0.443200
 42
0.000000
 10
8.614300
 20
-0.443200
 42
0.000000
 10
8.614300
 20
-1.078200
 42
0.000000
 10
7.979300
 20
-1.078200
 42
0.000000
 97
0
 75
0
 76
1
 98
1
 10
0.000000
 20
0.000000
  0
HATCH
  5
1b3
100
AcDbEntity
  8
PIN_TOP
100
AcDbHatch
 10
0.000000
 20
0.000000
 30
0.000000
210
0.000000
220
0.000000
230
1.000000
  2
SOLID
 70
1
 71
0
 91
1
 92
2
 72
1
 73
1
 93
4
 10
7.979300
 20
0.598200
 42
0.000000
 10
8.614300
 20
0.598200
 42
0.000000
 10
8.614300
 20
-0.036800
 42
0.000000
 10
7.979300
 20
-0.036800
 42
0.000000
 97
0
 75
0
 76
1
 98
1
 10
0.000000
 20
0.000000
  0
HATCH
  5
1b9
100
AcDbEntity
  8
PIN_TOP
100
AcDbHatch
 10
0.000000
 20
0.000000
 30
0.000000
210
0.000000
220
0.000000
230
1.000000
  2
SOLID
 70
1
 71
0
 91
1
 92
2
 72
1
 73
1
 93
4
 10
6.011800
 20
7.138100
 42
0.000000
 10
6.646800
 20
7.138100
 42
0.000000
 10
6.646800
 20
6.503100
 42
0.000000
 10
6.011800
 20
6.503100
 42
0.000000
 97
0
 75
0
 76
1
 98
1
 10
0.000000
 20
0.000000
  0
HATCH
  5
1bf
100
AcDbEntity
  8
PIN_TOP
100
AcDbHatch
 10
0.000000
 20
0.000000
 30
0.000000
210
0.000000
220
0.000000
230
1.000000
  2
SOLID
 70
1
 71
0
 91
1
 92
2
 72
1
 73
1
 93
4
 10
7.053200
 20
7.138100
 42
0.000000
 10
7.688200
 20
7.138100
 42
0.000000
 10
7.688200
 20
6.503100
 42
0.000000
 10
7.053200
 20
6.503100
 42
0.000000
 97
0
 75
0
 76
1
 98
1
 10
0.000000
 20
0.000000
  0
HATCH
  5
1c5
100
AcDbEntity
  8
PIN_TOP
100
AcDbHatch
 10
0.000000
 20
0.000000
 30
0.000000
210
0.000000
220
0.000000
230
1.000000
  2
SOLID
 70
1
 71
0
 91
1
 92
2
 72
1
 73
1
 93
4
 10
7.959300
 20
6.825200
 42
0.000000
 10
8.594300
 20
6.825200
 42
0.000000
 10
8.594300
 20
6.190200
 42
0.000000
 10
7.959300
 20
6.190200
 42
0.000000
 97
0
 75
0
 76
1
 98
1
 10
0.000000
 20
0.000000
  0
HATCH
  5
1cb
100
AcDbEntity
  8
PIN_TOP
100
AcDbHatch
 10
0.000000
 20
0.000000
 30
0.000000
210
0.000000
220
0.000000
230
1.000000
  2
SOLID
 70
1
 71
0
 91
1
 92
2
 72
1
 73
1
 93
4
 10
7.959300
 20
5.783800
 42
0.000000
 10
8.594300
 20
5.783800
 42
0.000000
 10
8.594300
 20
5.148800
 42
0.000000
 10
7.959300
 20
5.148800
 42
0.000000
 97
0
 75
0
 76
1
 98
1
 10
0.000000
 20
0.000000
  0
HATCH
  5
1d1
100
AcDbEntity
  8
PIN_TOP
100
AcDbHatch
 10
0.000000
 20
0.000000
 30
0.000000
210
0.000000
220
0.000000
230
1.000000
  2
SOLID
 70
1
 71
0
 91
1
 92
2
 72
1
 73
1
 93
4
 10
0.427000
 20
2.377800
 42
0.000000
 10
0.731800
 20
2.377800
 42
0.000000
 10
0.731800
 20
2.022200
 42
0.000000
 10
0.427000
 20
2.022200
 42
0.000000
 97
0
 75
0
 76
1
 98
1
 10
0.000000
 20
0.000000
  0
HATCH
  5
1d7
100
AcDbEntity
  8
PIN_TOP
100
AcDbHatch
 10
0.000000
 20
0.000000
 30
0.000000
210
0.000000
220
0.000000
230
1.000000
  2
SOLID
 70
1
 71
0
 91
1
 92
2
 72
1
 73
1
 93
4
 10
-0.131800
 20
2.377800
 42
0.000000
 10
0.173000
 20
2.377800
 42
0.000000
 10
0.173000
 20
2.022200
 42
0.000000
 10
-0.131800
 20
2.022200
 42
0.000000
 97
0
 75
0
 76
1
 98
1
 10
0.000000
 20
0.000000
  0
HATCH
  5
1dd
100
AcDbEntity
  8
PIN_TOP
100
AcDbHatch
 10
0.000000
 20
0.000000
 30
0.000000
210
0.000000
220
0.000000
230
1.000000
  2
SOLID
 70
1
 71
0
 91
1
 92
2
 72
1
 73
1
 93
4
 10
0.427000
 20
3.027800
 42
0.000000
 10
0.731800
 20
3.027800
 42
0.000000
 10
0.731800
 20
2.672200
 42
0.000000
 10
0.427000
 20
2.672200
 42
0.000000
 97
0
 75
0
 76
1
 98
1
 10
0.000000
 20
0.000000
  0
HATCH
  5
1e3
100
AcDbEntity
  8
PIN_TOP
100
AcDbHatch
 10
0.000000
 20
0.000000
 30
0.000000
210
0.000000
220
0.000000
230
1.000000
  2
SOLID
 70
1
 71
0
 91
1
 92
2
 72
1
 73
1
 93
4
 10
-0.131800
 20
3.027800
 42
0.000000
 10
0.173000
 20
3.027800
 42
0.000000
 10
0.173000
 20
2.672200
 42
0.000000
 10
-0.131800
 20
2.672200
 42
0.000000
 97
0
 75
0
 76
1
 98
1
 10
0.000000
 20
0.000000
  0
HATCH
  5
1e9
100
AcDbEntity
  8
PIN_TOP
100
AcDbHatch
 10
0.000000
 20
0.000000
 30
0.000000
210
0.000000
220
0.000000
230
1.000000
  2
SOLID
 70
1
 71
0
 91
1
 92
2
 72
1
 73
1
 93
4
 10
8.122200
 20
7.931800
 42
0.000000
 10
8.477800
 20
7.931800
 42
0.000000
 10
8.477800
 20
7.627000
 42
0.000000
 10
8.122200
 20
7.627000
 42
0.000000
 97
0
 75
0
 76
1
 98
1
 10
0.000000
 20
0.000000
  0
HATCH
  5
1ef
100
AcDbEntity
  8
PIN_TOP
100
AcDbHatch
 10
0.000000
 20
0.000000
 30
0.000000
210
0.000000
220
0.000000
230
1.000000
  2
SOLID
 70
1
 71
0
 91
1
 92
2
 72
1
 73
1
 93
4
 10
8.122200
 20
7.373000
 42
0.000000
 10
8.477800
 20
7.373000
 42
0.000000
 10
8.477800
 20
7.068200
 42
0.000000
 10
8.122200
 20
7.068200
 42
0.000000
 97
0
 75
0
 76
1
 98
1
 10
0.000000
 20
0.000000
  0
HATCH
  5
1f5
100
AcDbEntity
  8
PIN_TOP
100
AcDbHatch
 10
0.000000
 20
0.000000
 30
0.000000
210
0.000000
220
0.000000
230
1.000000
  2
SOLID
 70
1
 71
0
 91
1
 92
2
 72
1
 73
1
 93
4
 10
0.945000
 20
-1.572200
 42
0.000000
 10
1.249800
 20
-1.572200
 42
0.000000
 10
1.249800
 20
-1.927800
 42
0.000000
 10
0.945000
 20
-1.927800
 42
0.000000
 97
0
 75
0
 76
1
 98
1
 10
0.000000
 20
0.000000
  0
HATCH
  5
1fb
100
AcDbEntity
  8
PIN_TOP
100
AcDbHatch
 10
0.000000
 20
0.000000
 30
0.000000
210
0.000000
220
0.000000
230
1.000000
  2
SOLID
 70
1
 71
0
 91
1
 92
2
 72
1
 73
1
 93
4
 10
1.503800
 20
-1.572200
 42
0.000000
 10
1.808600
 20
-1.572200
 42
0.000000
 10
1.808600
 20
-1.927800
 42
0.000000
 10
1.503800
 20
-1.927800
 42
0.000000
 97
0
 75
0
 76
1
 98
1
 10
0.000000
 20
0.000000
  0
HATCH
  5
201
100
AcDbEntity
  8
PIN_TOP
100
AcDbHatch
 10
0.000000
 20
0.000000
 30
0.000000
210
0.000000
220
0.000000
230
1.000000
  2
SOLID
 70
1
 71
0
 91
1
 92
2
 72
1
 73
1
 93
4
 10
0.972200
 20
-1.027000
 42
0.000000
 10
1.327800
 20
-1.027000
 42
0.000000
 10
1.327800
 20
-1.331800
 42
0.000000
 10
0.972200
 20
-1.331800
 42
0.000000
 97
0
 75
0
 76
1
 98
1
 10
0.000000
 20
0.000000
  0
HATCH
  5
207
100
AcDbEntity
  8
PIN_TOP
100
AcDbHatch
 10
0.000000
 20
0.000000
 30
0.000000
210
0.000000
220
0.000000
230
1.000000
  2
SOLID
 70
1
 71
0
 91
1
 92
2
 72
1
 73
1
 93
4
 10
0.972200
 20
-0.468200
 42
0.000000
 10
1.327800
 20
-0.468200
 42
0.000000
 10
1.327800
 20
-0.773000
 42
0.000000
 10
0.972200
 20
-0.773000
 42
0.000000
 97
0
 75
0
 76
1
 98
1
 10
0.000000
 20
0.000000
  0
ENDSEC
  0
SECTION
  2
OBJECTS
  0
DICTIONARY
  5
11
100
AcDbDictionary
  3
ACAD_GROUP
350
12
  3
ACAD_MLINESTYLE
350
13
  0
DICTIONARY
  5
12
100
AcDbDictionary
  0
DICTIONARY
  5
13
100
AcDbDictionary
  0
ENDSEC
  0
EOF
