**ABCDEFGHIJKLMNOPQRSTUVWXYZabcdefghijklmnopqrstuvwxyz**************************
**PARASOLID !"#$%&'()*+,-./:;<=>?@[\]^_`{|}~0123456789**************************
**PART1;
MC=AMD64;
MC_MODEL=Intel64 Family 6 Model 58 Stepping 9, GenuineIntel;
MC_ID=unknown;
OS=Windows_NT;
OS_RELEASE=unknown;
FRU=Parasolid Version 28.0, build 204, 11- 9-2015;
APPL=SOLIDWORKS 2016-2016040;
SITE=;
USER=unknown;
FORMAT=text;
GUISE=transmit;
KEY=310-019728-REV-A;
FILE=310-019728-REV-A.x_t;
DATE=Wed Oct 05 17:24:03 2016;
**PART2;
SCH=SCH_2800204_28002;
USFLD_SIZE=0;
**PART3;
**END_OF_HEADER*****************************************************************
T51 : TRANSMIT FILE created by modeller version 280020423 SCH_2800204_28002_1300
6200 0 12 30 CCCCCCCCCCCCCDI5 owner1040 0 CCCCCCCCCA13 boundary_mesh1006 0 A16 i
ndex_map_offset0 0 1 dA9 index_map82 0 A17 node_id_index_map82 0 A20 schema_embe
dding_map82 0 A5 child12 0 A14 lowest_node_id0 0 1 dZ1 967 2 3 0 0 0 0 1e3 1e-8
 0 4 0 1 0 1 1 5 6 7 8 9 10 11 0 0 0 0 0 0 0 81 255 2 2 705 12 1 0 0 0 0 13 0 70
 11 CI9 list_type0 0 1 uI10 notransmit0 0 1 lCCCDCCDI12 finger_index0 0 1 dI12 f
inger_block1012 0 CZ3 0 4 T1 0 0 3 20 1 14 14 13 255 5 424 0 1 0 15 0 0 16 0 50
 255 6 283 0 17 18 0 0 +.0235 .07985 -.00841443623821773 0 0 -1 -1 0 0 30 255 7
 305 0 19 20 0 0 +.0235 .07985 -.00841443623821773 0 -1 0 29 255 8 364 0 21 22 0
 .0205 .07985 -.0175 19 8 CCCCCCCA5 owner12 0 Z9 35 0 1 16 0 23 V0 16 255 10 15
 0 ?24 0 25 26 0 0 1 18 255 11 27 0 27 0 28 29 ?1 17 255 27 0 30 31 32 11 33 34
 0 35 -18 28 24 0 36 11 37 38 ?1 29 29 29 0 11 38 39 -.0235 .0735 -.021585563761
78225 29 38 26 0 28 40 29 -.0235 .07985 -.02158556376178225 29 39 403 0 41 29 42
 .0155 .07985 -.0125 18 41 279 0 43 44 45 39 ?1 29 42 402 0 44 39 46 .0205 .0798
5 -.0125 18 44 278 0 47 48 41 42 ?1 29 46 401 0 48 42 49 .0155 .07985 -.0175 18
 48 277 0 50 51 44 46 ?1 29 49 400 0 52 46 53 .0155 .0735 -.0125 18 52 282 0 54
 55 0 49 ?1 29 53 399 0 55 49 56 .0205 .0735 -.0125 18 55 281 0 57 45 52 53 ?1 2
9 56 398 0 45 53 58 .0205 .0735 -.0175 18 45 280 0 59 41 55 56 ?1 29 58 397 0 60
 56 61 .0035 .07985 -.0125 18 60 273 0 62 63 64 58 ?1 29 61 396 0 63 58 65 .0085
 .07985 -.0125 18 63 272 0 66 67 60 61 ?1 29 65 395 0 67 61 68 .0035 .07985 -.01
75 18 67 271 0 69 70 63 65 ?1 29 68 394 0 51 65 71 .0035 .0735 -.0125 18 51 276
 0 72 73 48 68 ?1 29 71 393 0 73 68 74 .0085 .0735 -.0125 18 73 275 0 75 64 51 7
1 ?1 29 74 392 0 64 71 76 .0085 .0735 -.0175 18 64 274 0 77 60 73 74 ?1 29 76 39
1 0 78 74 79 -.0085 .07985 -.0125 18 78 267 0 80 81 82 76 ?1 29 79 390 0 81 76 8
3 -.0035 .07985 -.0125 18 81 266 0 84 85 78 79 ?1 29 83 389 0 85 79 86 -.0085 .0
7985 -.0175 18 85 265 0 87 88 81 83 ?1 29 86 388 0 70 83 89 -.0085 .0735 -.0125
 18 70 270 0 90 91 67 86 ?1 29 89 387 0 91 86 92 -.0035 .0735 -.0125 18 91 269 0
 93 82 70 89 ?1 29 92 386 0 82 89 94 -.0035 .0735 -.0175 18 82 268 0 95 78 91 92
 ?1 29 94 385 0 96 92 97 -.0205 .07985 -.0125 18 96 261 0 98 99 100 94 ?1 29 97
 384 0 99 94 101 -.0155 .07985 -.0125 18 99 260 0 102 103 96 97 ?1 29 101 383 0
 103 97 104 -.0205 .07985 -.0175 18 103 259 0 105 106 99 101 ?1 29 104 382 0 88
 101 107 -.0205 .0735 -.0125 18 88 264 0 108 109 85 104 ?1 29 107 381 0 109 104
 110 -.0155 .0735 -.0125 18 109 263 0 111 100 88 107 ?1 29 110 380 0 100 107 112
 -.0155 .0735 -.0175 18 100 262 0 113 96 109 110 ?1 29 112 378 0 114 110 115 .02
35 .07985 -.00841443623821773 18 114 247 0 116 117 118 112 ?1 29 115 377 0 117 1
12 119 .0235 .07985 -.02158556376178225 18 117 246 0 120 121 114 115 ?1 29 119 3
74 0 106 115 122 .0235 .0735 -.00841443623821773 18 106 255 0 123 118 103 119 ?1
 29 122 373 0 118 119 124 .0235 .0735 -.02158556376178225 18 118 254 0 125 114 1
06 122 ?1 29 124 371 0 121 122 126 -.0205 .0735 -.0175 18 121 242 0 127 128 117
 124 ?1 29 126 370 0 128 124 129 -.0155 .07985 -.0175 18 128 241 0 130 131 121 1
26 ?1 29 129 369 0 131 126 132 -.0085 .0735 -.0175 18 131 240 0 133 134 128 129
 ?1 29 132 368 0 134 129 135 -.0035 .07985 -.0175 18 134 239 0 136 137 131 132 ?
1 29 135 367 0 137 132 138 .0035 .0735 -.0175 18 137 238 0 139 140 134 135 ?1 29
 138 366 0 140 135 22 .0085 .07985 -.0175 18 140 237 0 141 142 137 138 ?1 29 22
 365 0 142 138 8 .0155 .0735 -.0175 18 142 236 0 143 21 140 22 ?1 17 143 0 144 1
45 146 142 147 148 0 149 -18 21 235 0 150 151 142 8 ?1 17 150 0 152 50 153 21 59
 154 0 155 -18 151 18 0 156 37 21 157 ?1 17 156 0 158 123 159 151 160 161 0 32 +
18 37 21 0 162 28 151 40 ?1 29 157 20 0 151 0 40 -.0235 .0735 -.0084144362382177
3 29 40 23 0 37 157 38 -.0235 .07985 -.00841443623821773 17 162 0 163 116 164 37
 165 25 0 159 +15 255 163 76 0 162 166 167 17 116 0 163 120 162 114 159 168 0 16
9 +17 164 0 163 162 120 28 170 171 0 165 +17 165 0 172 24 160 28 162 25 0 0 -16
 25 12 0 ?162 10 161 173 0 0 1 17 159 0 158 156 169 37 116 168 0 160 -15 158 90
 0 123 17 0 17 169 0 158 159 123 114 174 19 0 175 -16 168 175 0 ?116 176 177 178
 0 0 1 17 160 0 172 165 33 37 156 161 0 0 -15 172 5 0 33 179 0 17 33 0 172 160 2
4 151 27 34 0 0 +16 161 9 0 ?156 25 34 180 0 0 1 16 34 6 0 ?33 161 19 181 0 0 1
 30 180 10 0 161 181 173 0 +-.0235 .07985 -.00841443623821773 0 -1 0 30 181 7 0
 34 0 180 0 +-.0235 .0735 -.02158556376178225 0 0 1 30 173 13 0 25 180 26 0 +-.0
235 .07985 -.02158556376178225 0 0 1 30 26 16 0 10 173 182 0 +-.0235 .07985 -.02
158556376178225 0 -1 0 30 182 363 0 183 26 184 0 +.0155 .07985 -.0125 0 0 1 16 1
83 230 0 ?43 185 186 182 0 0 1 30 184 362 0 185 182 187 0 +.0205 .07985 -.0125 1
 0 0 16 185 229 0 ?47 188 183 184 0 0 1 30 187 361 0 188 184 189 0 +.0205 .07985
 -.0125 0 0 -1 16 188 228 0 ?155 190 185 187 0 0 1 30 189 360 0 190 187 191 0 +.
0205 .07985 -.0175 -1 0 0 16 190 227 0 ?50 192 188 189 0 0 1 30 191 359 0 148 18
9 193 0 +.0155 .0735 -.0125 0 0 1 16 148 234 0 ?147 194 0 191 0 0 1 30 193 358 0
 194 191 195 0 +.0205 .0735 -.0125 1 0 0 16 194 233 0 ?196 197 148 193 0 0 1 30
 195 357 0 197 193 198 0 +.0205 .0735 -.0125 0 0 -1 16 197 232 0 ?199 186 194 19
5 0 0 1 30 198 356 0 186 195 200 0 +.0205 .0735 -.0175 -1 0 0 16 186 231 0 ?201
 183 197 198 0 0 1 30 200 355 0 192 198 202 0 +.0155 .07985 -.0175 0 -1 0 16 192
 226 0 ?149 154 190 200 0 0 1 30 202 354 0 154 200 203 0 +.0205 .07985 -.0175 0
 -1 0 16 154 225 0 ?59 204 192 202 0 0 1 30 203 353 0 204 202 205 0 +.0205 .0798
5 -.0125 0 -1 0 16 204 224 0 ?57 206 154 203 0 0 1 30 205 352 0 206 203 207 0 +.
0155 .07985 -.0125 0 -1 0 16 206 223 0 ?146 208 204 205 0 0 1 30 207 351 0 209 2
05 210 0 +.0035 .07985 -.0125 0 0 1 16 209 218 0 ?62 211 212 207 0 0 1 30 210 35
0 0 211 207 213 0 +.0085 .07985 -.0125 1 0 -3469446951953615e-31 16 211 217 0 ?6
6 214 209 210 0 0 1 30 213 349 0 214 210 215 0 +.0085 .07985 -.0125 0 0 -1 16 21
4 216 0 ?216 217 211 213 0 0 1 30 215 348 0 217 213 218 0 +.0085 .07985 -.0175 -
1 0 693889390390723e-30 16 217 215 0 ?69 219 214 215 0 0 1 30 218 347 0 208 215
 220 0 +.0035 .0735 -.0125 0 0 1 16 208 222 0 ?221 222 206 218 0 0 1 30 220 346
 0 222 218 223 0 +.0085 .0735 -.0125 1 0 -3469446951953615e-31 16 222 221 0 ?224
 225 208 220 0 0 1 30 223 345 0 225 220 226 0 +.0085 .0735 -.0125 0 0 -1 16 225
 220 0 ?227 212 222 223 0 0 1 30 226 344 0 212 223 228 0 +.0085 .0735 -.0175 -1
 0 693889390390723e-30 16 212 219 0 ?229 209 225 226 0 0 1 30 228 343 0 219 226
 230 0 +.0035 .07985 -.0175 0 -1 0 16 219 214 0 ?231 232 217 228 0 0 1 30 230 34
2 0 232 228 233 0 +.0085 .07985 -.0175 0 -1 0 16 232 213 0 ?77 234 219 230 0 0 1
 30 233 341 0 234 230 235 0 +.0085 .07985 -.0125 0 -1 0 16 234 212 0 ?75 236 232
 233 0 0 1 30 235 340 0 236 233 237 0 +.0035 .07985 -.0125 0 -1 0 16 236 211 0 ?
238 239 234 235 0 0 1 30 237 339 0 240 235 241 0 +-.0085 .07985 -.0125 0 0 1 16
 240 206 0 ?80 242 243 237 0 0 1 30 241 338 0 242 237 244 0 +-.0035 .07985 -.012
5 1 0 -3469446951953615e-31 16 242 205 0 ?84 245 240 241 0 0 1 30 244 337 0 245
 241 246 0 +-.0035 .07985 -.0125 0 0 -1 16 245 204 0 ?247 248 242 244 0 0 1 30 2
46 336 0 248 244 249 0 +-.0035 .07985 -.0175 -1 0 693889390390723e-30 16 248 203
 0 ?87 250 245 246 0 0 1 30 249 335 0 239 246 251 0 +-.0085 .0735 -.0125 0 0 1 1
6 239 210 0 ?252 253 236 249 0 0 1 30 251 334 0 253 249 254 0 +-.0035 .0735 -.01
25 1 0 -3469446951953615e-31 16 253 209 0 ?255 256 239 251 0 0 1 30 254 333 0 25
6 251 257 0 +-.0035 .0735 -.0125 0 0 -1 16 256 208 0 ?258 243 253 254 0 0 1 30 2
57 332 0 243 254 259 0 +-.0035 .0735 -.0175 -1 0 693889390390723e-30 16 243 207
 0 ?260 240 256 257 0 0 1 30 259 331 0 250 257 261 0 +-.0085 .07985 -.0175 0 -1
 0 16 250 202 0 ?262 263 248 259 0 0 1 30 261 330 0 263 259 264 0 +-.0035 .07985
 -.0175 0 -1 0 16 263 201 0 ?95 265 250 261 0 0 1 30 264 329 0 265 261 266 0 +-.
0035 .07985 -.0125 0 -1 0 16 265 200 0 ?93 267 263 264 0 0 1 30 266 328 0 267 26
4 268 0 +-.0085 .07985 -.0125 0 -1 0 16 267 199 0 ?269 270 265 266 0 0 1 30 268
 327 0 271 266 272 0 +-.0205 .07985 -.0125 0 0 1 16 271 194 0 ?98 273 274 268 0
 0 1 30 272 326 0 273 268 275 0 +-.0155 .07985 -.0125 1 0 0 16 273 193 0 ?102 27
6 271 272 0 0 1 30 275 325 0 276 272 277 0 +-.0155 .07985 -.0125 0 0 -1 16 276 1
92 0 ?278 279 273 275 0 0 1 30 277 324 0 279 275 280 0 +-.0155 .07985 -.0175 -1
 0 0 16 279 191 0 ?105 281 276 277 0 0 1 30 280 323 0 270 277 282 0 +-.0205 .073
5 -.0125 0 0 1 16 270 198 0 ?283 284 267 280 0 0 1 30 282 322 0 284 280 285 0 +-
.0155 .0735 -.0125 1 0 0 16 284 197 0 ?286 287 270 282 0 0 1 30 285 321 0 287 28
2 288 0 +-.0155 .0735 -.0125 0 0 -1 16 287 196 0 ?289 274 284 285 0 0 1 30 288 3
20 0 274 285 290 0 +-.0155 .0735 -.0175 -1 0 0 16 274 195 0 ?291 271 287 288 0 0
 1 30 290 319 0 281 288 292 0 +-.0205 .07985 -.0175 0 -1 0 16 281 190 0 ?293 294
 279 290 0 0 1 30 292 318 0 294 290 295 0 +-.0155 .07985 -.0175 0 -1 0 16 294 18
9 0 ?113 296 281 292 0 0 1 30 295 317 0 296 292 297 0 +-.0155 .07985 -.0125 0 -1
 0 16 296 188 0 ?111 298 294 295 0 0 1 30 297 316 0 298 295 178 0 +-.0205 .07985
 -.0125 0 -1 0 16 298 187 0 ?299 300 296 297 0 0 1 30 178 314 0 168 297 301 0 +.
0235 .07985 -.00841443623821773 1 0 0 30 301 313 0 176 178 302 0 +.0235 .07985 -
.02158556376178225 0 0 -1 16 176 174 0 ?120 171 168 301 0 0 1 30 302 312 0 171 3
01 303 0 +.0235 .07985 -.02158556376178225 -1 0 0 16 171 173 0 ?164 304 176 302
 0 0 1 30 303 310 0 300 302 305 0 +.0235 .0735 -.00841443623821773 1 0 0 16 300
 182 0 ?123 306 298 303 0 0 1 30 305 309 0 306 303 307 0 +.0235 .0735 -.02158556
376178225 0 0 -1 16 306 181 0 ?125 177 300 305 0 0 1 30 307 308 0 177 305 20 0 +
.0235 .0735 -.02158556376178225 -1 0 0 16 177 180 0 ?35 168 306 307 0 0 1 30 20
 306 0 304 307 7 0 +.0235 .07985 -.02158556376178225 0 -1 0 16 304 168 0 ?308 19
 171 20 0 0 1 17 308 0 309 35 170 118 310 304 0 31 +16 19 167 0 ?174 34 304 7 0
 0 1 17 174 0 311 125 175 106 169 19 0 312 +15 311 94 0 125 313 0 17 125 0 311 3
10 174 118 312 306 0 308 +17 175 0 311 174 310 114 120 176 0 0 -17 312 0 30 32 3
1 106 125 306 0 0 -15 30 82 0 27 314 315 17 32 0 30 27 312 151 123 300 0 33 -17
 31 0 30 312 27 118 35 177 0 0 -17 35 0 309 36 308 11 31 177 0 24 +15 309 98 0 3
5 316 0 17 36 0 309 170 35 28 24 10 0 164 -17 24 0 172 33 165 11 36 10 0 0 +17 1
70 0 309 308 36 117 164 171 0 0 -14 255 316 95 317 ?313 318 309 5 319 -0 0 318 3
13 23 81 1 317 946 320 316 321 0 0 322 323 14 313 91 322 ?17 316 311 5 18 -0 0 3
16 17 23 14 318 99 324 ?316 325 326 5 327 +0 0 325 316 23 50 319 285 0 316 328 1
8 0 +.0235 .07985 -.02158556376178225 0 0 1 1 0 0 13 23 36 0 0 0 0 0 0 9 179 14
 179 1 329 ?0 166 172 5 330 -0 0 166 0 23 81 1 329 949 320 179 331 0 324 332 333
 14 166 71 332 ?179 314 334 5 335 -0 0 314 179 23 50 330 2 0 179 0 336 0 +-.0235
 .07985 -.02158556376178225 1 0 0 0 0 -1 50 336 303 0 15 330 337 0 +.0205 .07985
 -.0175 0 0 1 1 0 0 14 15 159 338 ?339 0 152 5 336 +0 0 0 339 23 50 337 302 0 33
9 336 340 0 +.0205 .07985 -.0125 -1 0 0 0 0 1 14 339 155 341 ?342 15 343 5 337 +
0 0 15 342 23 50 340 301 0 342 337 344 0 +.0205 .07985 -.0125 0 0 -1 -1 0 0 14 3
42 151 345 ?346 339 347 5 340 +0 0 339 346 23 50 344 300 0 346 340 348 0 +.0155
 .07985 -.0125 1 0 0 0 0 -1 14 346 147 349 ?350 342 144 5 344 +0 0 342 350 23 50
 348 299 0 350 344 351 0 +.0085 .07985 -.0175 693889390390723e-30 0 1 1 0 -69388
9390390723e-30 14 350 143 352 ?353 346 354 5 348 +0 0 346 353 23 50 351 298 0 35
3 348 355 0 +.0085 .07985 -.0125 -1 0 0 0 0 1 14 353 139 356 ?357 350 358 5 351
 +0 0 350 357 23 50 355 297 0 357 351 359 0 +.0085 .07985 -.0125 -34694469519536
15e-31 0 -1 -1 0 3469446951953615e-31 14 357 135 360 ?361 353 362 5 355 +0 0 353
 361 23 50 359 296 0 361 355 363 0 +.0035 .07985 -.0125 1 0 0 0 0 -1 14 361 131
 364 ?365 357 366 5 359 +0 0 357 365 23 50 363 295 0 365 359 367 0 +-.0035 .0798
5 -.0175 693889390390723e-30 0 1 1 0 -693889390390723e-30 14 365 127 368 ?369 36
1 370 5 363 +0 0 361 369 23 50 367 294 0 369 363 371 0 +-.0035 .07985 -.0125 -1
 0 0 0 0 1 14 369 123 372 ?373 365 374 5 367 +0 0 365 373 23 50 371 293 0 373 36
7 375 0 +-.0035 .07985 -.0125 -3469446951953615e-31 0 -1 -1 0 3469446951953615e-
31 14 373 119 376 ?377 369 378 5 371 +0 0 369 377 23 50 375 292 0 377 371 379 0
 +-.0085 .07985 -.0125 1 0 0 0 0 -1 14 377 115 380 ?381 373 382 5 375 +0 0 373 3
81 23 50 379 291 0 381 375 383 0 +-.0155 .07985 -.0175 0 0 1 1 0 0 14 381 111 38
4 ?385 377 386 5 379 +0 0 377 385 23 50 383 290 0 385 379 387 0 +-.0155 .07985 -
.0125 -1 0 0 0 0 1 14 385 107 388 ?325 381 389 5 383 +0 0 381 325 23 50 387 289
 0 325 383 327 0 +-.0155 .07985 -.0125 0 0 -1 -1 0 0 14 325 103 390 ?318 385 391
 5 387 +0 0 385 318 23 50 327 288 0 318 387 335 0 +-.0205 .07985 -.0125 1 0 0 0
 0 -1 50 335 287 0 166 327 328 0 +0 .07985 0 0 -1 0 0 0 -1 50 328 286 0 314 335
 319 0 +0 .0735 0 0 -1 0 0 0 -1 14 314 79 392 ?166 17 30 5 328 +0 0 17 166 23 81
 1 392 966 320 314 393 0 390 394 395 14 17 87 394 ?314 313 158 5 6 -0 0 313 314
 23 81 1 394 967 320 17 396 0 392 0 397 80 255 1 320 398 399 9000 1 1 1 1 1 1 1
 1 0 FFFFTFTFFFFFFF1 81 1 396 896 400 17 0 394 401 393 402 82 255 1 397 11284482
84 80 1 400 0 403 8001 0 0 0 0 3 5 0 0 0 FFFFTFTFFFFFFF2 81 1 401 895 400 313 0
 322 321 396 404 81 1 393 897 400 314 0 392 396 405 406 83 255 3 402 .5019607843
13726 .501960784313726 .501960784313726 81 1 405 898 400 166 0 332 393 331 407 8
3 3 406 .501960784313726 .501960784313726 .501960784313726 81 1 332 950 320 166
 405 0 329 338 408 81 1 331 899 400 179 0 329 405 0 409 83 3 407 .50196078431372
6 .501960784313726 .501960784313726 83 3 409 .501960784313726 .501960784313726 .
501960784313726 81 1 338 951 320 15 410 0 332 341 411 82 1 408 1193984284 81 1 4
10 878 400 15 0 338 0 412 413 81 1 341 952 320 339 412 0 338 345 414 82 1 411 11
74651164 81 1 412 879 400 339 0 341 410 415 416 81 1 345 953 320 342 415 0 341 3
49 417 82 1 414 1174913308 81 1 415 880 400 342 0 345 412 418 419 81 1 349 954 3
20 346 418 0 345 352 420 82 1 417 1175175452 81 1 418 881 400 346 0 349 415 421
 422 81 1 352 955 320 350 421 0 349 356 423 82 1 420 1175437596 81 1 421 882 400
 350 0 352 418 424 425 81 1 356 956 320 353 424 0 352 360 426 82 1 423 116298575
6 81 1 424 883 400 353 0 356 421 427 428 81 1 360 957 320 357 427 0 356 364 429
 82 1 426 1163247900 81 1 427 884 400 357 0 360 424 430 431 81 1 364 958 320 361
 430 0 360 368 432 82 1 429 1163510044 81 1 430 885 400 361 0 364 427 433 434 81
 1 368 959 320 365 433 0 364 372 435 82 1 432 1163772188 81 1 433 886 400 365 0
 368 430 436 437 81 1 372 960 320 369 436 0 368 376 438 82 1 435 1151320348 81 1
 436 887 400 369 0 372 433 439 440 81 1 376 961 320 373 439 0 372 380 441 82 1 4
38 1151582492 81 1 439 888 400 373 0 376 436 442 443 81 1 380 962 320 377 442 0
 376 384 444 82 1 441 1151844636 81 1 442 889 400 377 0 380 439 445 446 81 1 384
 963 320 381 445 0 380 388 447 82 1 444 1152106780 81 1 445 890 400 381 0 384 44
2 448 449 81 1 388 964 320 385 448 0 384 390 450 82 1 447 1139654940 81 1 448 89
1 400 385 0 388 445 451 452 81 1 390 965 320 325 451 0 388 392 453 82 1 450 1139
917084 81 1 451 892 400 325 0 390 448 454 455 82 1 453 1140179228 81 1 454 893 4
00 318 0 324 451 321 456 83 3 455 .501960784313726 .501960784313726 .50196078431
3726 81 1 324 948 320 318 454 0 322 329 457 81 1 321 894 400 316 0 317 454 401 4
58 83 3 456 .501960784313726 .501960784313726 .501960784313726 83 3 458 .5019607
84313726 .501960784313726 .501960784313726 81 1 322 947 320 313 401 0 317 324 45
9 82 1 457 1140441372 82 1 459 1128186140 83 3 452 .501960784313726 .50196078431
3726 .501960784313726 83 3 449 .501960784313726 .501960784313726 .50196078431372
6 83 3 446 .501960784313726 .501960784313726 .501960784313726 83 3 443 .50196078
4313726 .501960784313726 .501960784313726 83 3 440 .501960784313726 .50196078431
3726 .501960784313726 83 3 437 .501960784313726 .501960784313726 .50196078431372
6 83 3 434 .501960784313726 .501960784313726 .501960784313726 83 3 431 .50196078
4313726 .501960784313726 .501960784313726 83 3 428 .501960784313726 .50196078431
3726 .501960784313726 83 3 425 .501960784313726 .501960784313726 .50196078431372
6 83 3 422 .501960784313726 .501960784313726 .501960784313726 83 3 419 .50196078
4313726 .501960784313726 .501960784313726 83 3 416 .501960784313726 .50196078431
3726 .501960784313726 83 3 413 .501960784313726 .501960784313726 .50196078431372
6 83 3 404 .501960784313726 .501960784313726 .501960784313726 79 255 15 403 SDL/
TYSA_COLOUR79 14 399 SWEntUnchanged82 1 395 1192149276 15 391 106 0 108 325 0 17
 108 0 391 460 111 88 286 284 0 299 -17 460 0 391 102 108 96 299 298 0 461 -17 1
11 0 391 108 102 109 462 296 0 463 +17 286 0 315 289 283 109 108 284 0 0 +17 299
 0 326 127 98 88 460 298 0 283 +15 326 102 0 127 318 0 17 127 0 326 464 299 121
 283 270 0 293 -17 98 0 326 299 464 96 465 271 0 460 +17 283 0 315 286 291 88 12
7 270 0 0 +15 315 83 0 291 314 466 17 291 0 315 283 289 121 467 274 0 0 +17 289
 0 315 291 286 100 463 287 0 0 +17 467 0 386 130 293 100 291 274 0 289 -15 386 1
14 0 467 381 0 17 130 0 386 105 467 128 113 294 0 278 -17 293 0 386 467 105 121
 464 281 0 291 +17 105 0 386 293 130 103 468 279 0 464 +17 464 0 326 98 127 103
 293 281 0 465 -17 465 0 469 468 461 103 98 271 0 0 -15 469 75 0 465 166 163 17
 468 0 469 470 465 128 105 279 0 0 -17 461 0 469 465 470 96 102 273 0 0 -17 470
 0 469 461 468 99 278 276 0 0 -17 102 0 391 111 460 99 461 273 0 462 +17 462 0 3
89 278 463 99 111 296 0 470 -15 389 110 0 463 385 0 17 278 0 389 113 462 128 470
 276 0 468 +17 463 0 389 462 113 109 289 287 0 286 -17 113 0 389 463 278 100 130
 294 0 467 +15 466 84 0 260 314 471 17 260 0 466 252 258 131 472 243 0 0 +15 471
 85 0 229 314 473 17 229 0 471 221 227 137 474 212 0 0 +15 473 86 0 201 314 0 17
 201 0 473 147 199 142 153 186 0 0 +17 147 0 473 196 201 52 143 148 0 0 +17 199
 0 473 201 196 45 475 197 0 0 +17 153 0 152 150 149 45 201 186 0 199 -15 152 162
 0 153 15 0 17 149 0 152 153 50 142 145 192 0 201 +17 50 0 152 149 150 48 476 19
0 0 145 +17 145 0 144 43 143 48 149 192 0 477 -15 144 150 0 143 346 0 17 43 0 14
4 146 145 41 477 183 0 478 +17 477 0 479 476 480 48 43 183 0 0 -15 479 78 0 477
 166 0 17 476 0 479 481 477 21 50 190 0 0 -17 480 0 479 477 481 41 47 185 0 0 -1
7 481 0 479 480 476 44 155 188 0 0 -17 47 0 347 57 478 44 480 185 0 482 +15 347
 154 0 54 342 0 17 57 0 347 54 47 55 482 204 0 475 +17 478 0 347 47 54 41 146 20
6 0 480 -17 482 0 343 155 475 44 57 204 0 481 -15 343 158 0 475 339 0 17 155 0 3
43 59 482 21 481 188 0 476 +17 475 0 343 482 59 55 199 197 0 196 -17 59 0 343 47
5 155 45 150 154 0 153 +17 196 0 473 199 147 55 54 194 0 0 +17 54 0 347 478 57 5
2 196 194 0 146 -17 146 0 144 143 43 52 478 206 0 147 +17 221 0 471 224 229 51 1
39 208 0 0 +17 227 0 471 229 224 64 483 225 0 0 +17 474 0 354 141 231 64 229 212
 0 227 -15 354 146 0 474 350 0 17 141 0 354 69 474 140 77 232 0 216 -17 231 0 35
4 474 69 137 484 219 0 229 +17 69 0 354 231 141 67 485 217 0 484 +17 484 0 366 6
2 139 67 231 219 0 486 -15 366 134 0 139 361 0 17 62 0 366 238 484 60 486 209 0
 487 +17 139 0 366 484 238 137 221 208 0 231 -17 486 0 334 485 488 67 62 209 0 0
 -15 334 74 0 486 166 469 17 485 0 334 489 486 140 69 217 0 0 -17 488 0 334 486
 489 60 66 211 0 0 -17 489 0 334 488 485 63 216 214 0 0 -17 66 0 362 75 487 63 4
88 211 0 490 +15 362 138 0 72 357 0 17 75 0 362 72 66 73 490 234 0 483 +17 487 0
 362 66 72 60 238 236 0 488 -17 490 0 358 216 483 63 75 234 0 489 -15 358 142 0
 483 353 0 17 216 0 358 77 490 140 489 214 0 485 +17 483 0 358 490 77 73 227 225
 0 224 -17 77 0 358 483 216 64 141 232 0 474 +17 224 0 471 227 221 73 72 222 0 0
 +17 72 0 362 487 75 51 224 222 0 238 -17 238 0 366 139 62 51 487 236 0 221 +17
 252 0 466 255 260 70 133 239 0 0 +17 258 0 466 260 255 82 491 256 0 0 +17 472 0
 370 136 262 82 260 243 0 258 -15 370 130 0 472 365 0 17 136 0 370 87 472 134 95
 263 0 247 -17 262 0 370 472 87 131 492 250 0 260 +17 87 0 370 262 136 85 493 24
8 0 492 +17 492 0 382 80 133 85 262 250 0 494 -15 382 118 0 133 377 0 17 80 0 38
2 269 492 78 494 240 0 495 +17 133 0 382 492 269 131 252 239 0 262 -17 494 0 167
 493 496 85 80 240 0 0 -15 167 77 0 494 166 479 17 493 0 167 497 494 134 87 248
 0 0 -17 496 0 167 494 497 78 84 242 0 0 -17 497 0 167 496 493 81 247 245 0 0 -1
7 84 0 378 93 495 81 496 242 0 498 +15 378 122 0 90 373 0 17 93 0 378 90 84 91 4
98 265 0 491 +17 495 0 378 84 90 78 269 267 0 496 -17 498 0 374 247 491 81 93 26
5 0 497 -15 374 126 0 491 369 0 17 247 0 374 95 498 134 497 245 0 493 +17 491 0
 374 498 95 91 258 256 0 255 -17 95 0 374 491 247 82 136 263 0 472 +17 255 0 466
 258 252 91 90 253 0 0 +17 90 0 378 495 93 70 255 253 0 269 -17 269 0 382 133 80
 70 495 267 0 252 +82 1 333 2124202268 50 18 284 0 313 319 6 0 +.0235 .07985 -.0
2158556376178225 -1 0 0 0 0 1 82 1 323 1127923996 17 123 0 158 169 156 106 32 30
0 0 174 +17 310 0 311 175 125 117 308 304 0 170 -17 120 0 163 164 116 117 175 17
6 0 310 +19 16 425 0 1 0 9 5 S0 74 4 CI16 index_map_offset0 0 1 dCCZ20 14 3 0 0
 394 2 331 0 0 0 0 0 0 0 0 0 0 0 0 0 0 0 0 0 80 2 12 499 500 8004 0 0 0 0 3 5 0
 0 0 FFTFFFFFFFFFFF2 3 83 1 13 7999.49471763306 79 16 500 SDL/TYSA_DENSITY1 0 
