  0
SECTION
  2
HEADER
  9
$ACADVER
  1
AC1014
  9
$ACADMAINTVER
 70
     9
  9
$DWGCODEPAGE
  3
ANSI_1252
  9
$INSBASE
 10
0.0
 20
0.0
 30
0.0
  9
$EXTMIN
 10
1.000000000000000E+20
 20
1.000000000000000E+20
 30
1.000000000000000E+20
  9
$EXTMAX
 10
-1.000000000000000E+20
 20
-1.000000000000000E+20
 30
-1.000000000000000E+20
  9
$LIMMIN
 10
19.86122774
 20
17.59500926
  9
$LIMMAX
 10
830.5471857399999
 20
545.71201246
  9
$ORTHOMODE
 70
     0
  9
$REGENMODE
 70
     1
  9
$FILLMODE
 70
     1
  9
$QTEXTMODE
 70
     0
  9
$MIRRTEXT
 70
     1
  9
$DRAGMODE
 70
     2
  9
$LTSCALE
 40
1.0
  9
$OSMODE
 70
    37
  9
$ATTMODE
 70
     1
  9
$TEXTSIZE
 40
2.5
  9
$TRACEWID
 40
1.0
  9
$TEXTSTYLE
  7
STANDARD
  9
$CLAYER
  8
0
  9
$CELTYPE
  6
BYLAYER
  9
$CECOLOR
 62
   256
  9
$CELTSCALE
 40
1.0
  9
$DELOBJ
 70
     1
  9
$DISPSILH
 70
     0
  9
$DIMSCALE
 40
1.0
  9
$DIMASZ
 40
2.5
  9
$DIMEXO
 40
0.625
  9
$DIMDLI
 40
3.75
  9
$DIMRND
 40
0.0
  9
$DIMDLE
 40
0.0
  9
$DIMEXE
 40
1.25
  9
$DIMTP
 40
0.0
  9
$DIMTM
 40
0.0
  9
$DIMTXT
 40
2.5
  9
$DIMCEN
 40
2.5
  9
$DIMTSZ
 40
0.0
  9
$DIMTOL
 70
     0
  9
$DIMLIM
 70
     0
  9
$DIMTIH
 70
     0
  9
$DIMTOH
 70
     0
  9
$DIMSE1
 70
     0
  9
$DIMSE2
 70
     0
  9
$DIMTAD
 70
     1
  9
$DIMZIN
 70
     8
  9
$DIMBLK
  1

  9
$DIMASO
 70
     1
  9
$DIMSHO
 70
     1
  9
$DIMPOST
  1

  9
$DIMAPOST
  1

  9
$DIMALT
 70
     0
  9
$DIMALTD
 70
     3
  9
$DIMALTF
 40
0.03937007874016
  9
$DIMLFAC
 40
1.0
  9
$DIMTOFL
 70
     1
  9
$DIMTVP
 40
0.0
  9
$DIMTIX
 70
     0
  9
$DIMSOXD
 70
     0
  9
$DIMSAH
 70
     0
  9
$DIMBLK1
  1

  9
$DIMBLK2
  1

  9
$DIMSTYLE
  2
ISO-25
  9
$DIMCLRD
 70
     0
  9
$DIMCLRE
 70
     0
  9
$DIMCLRT
 70
     0
  9
$DIMTFAC
 40
1.0
  9
$DIMGAP
 40
0.625
  9
$DIMJUST
 70
     0
  9
$DIMSD1
 70
     0
  9
$DIMSD2
 70
     0
  9
$DIMTOLJ
 70
     0
  9
$DIMTZIN
 70
     8
  9
$DIMALTZ
 70
     0
  9
$DIMALTTZ
 70
     0
  9
$DIMFIT
 70
     3
  9
$DIMUPT
 70
     0
  9
$DIMUNIT
 70
     2
  9
$DIMDEC
 70
     2
  9
$DIMTDEC
 70
     2
  9
$DIMALTU
 70
     2
  9
$DIMALTTD
 70
     3
  9
$DIMTXSTY
  7
STANDARD
  9
$DIMAUNIT
 70
     0
  9
$LUNITS
 70
     2
  9
$LUPREC
 70
     4
  9
$SKETCHINC
 40
1.0
  9
$FILLETRAD
 40
10.0
  9
$AUNITS
 70
     0
  9
$AUPREC
 70
     0
  9
$MENU
  1
.
  9
$ELEVATION
 40
0.0
  9
$PELEVATION
 40
0.0
  9
$THICKNESS
 40
0.0
  9
$LIMCHECK
 70
     0
  9
$CHAMFERA
 40
0.0
  9
$CHAMFERB
 40
0.0
  9
$CHAMFERC
 40
0.0
  9
$CHAMFERD
 40
0.0
  9
$SKPOLY
 70
     0
  9
$TDCREATE
 40
2457659.495089503
  9
$TDUPDATE
 40
2457659.495090995
  9
$TDINDWG
 40
0.0000000116
  9
$TDUSRTIMER
 40
0.0000000116
  9
$USRTIMER
 70
     1
  9
$ANGBASE
 50
0.0
  9
$ANGDIR
 70
     0
  9
$PDMODE
 70
     0
  9
$PDSIZE
 40
0.0
  9
$PLINEWID
 40
0.0
  9
$COORDS
 70
     1
  9
$SPLFRAME
 70
     0
  9
$SPLINETYPE
 70
     6
  9
$SPLINESEGS
 70
     8
  9
$ATTDIA
 70
     0
  9
$ATTREQ
 70
     1
  9
$HANDLING
 70
     1
  9
$HANDSEED
  5
2D8
  9
$SURFTAB1
 70
     6
  9
$SURFTAB2
 70
     6
  9
$SURFTYPE
 70
     6
  9
$SURFU
 70
     6
  9
$SURFV
 70
     6
  9
$UCSNAME
  2

  9
$UCSORG
 10
0.0
 20
0.0
 30
0.0
  9
$UCSXDIR
 10
1.0
 20
0.0
 30
0.0
  9
$UCSYDIR
 10
0.0
 20
1.0
 30
0.0
  9
$PUCSNAME
  2

  9
$PUCSORG
 10
0.0
 20
0.0
 30
0.0
  9
$PUCSXDIR
 10
1.0
 20
0.0
 30
0.0
  9
$PUCSYDIR
 10
0.0
 20
1.0
 30
0.0
  9
$USERI1
 70
     0
  9
$USERI2
 70
     0
  9
$USERI3
 70
     0
  9
$USERI4
 70
     0
  9
$USERI5
 70
     0
  9
$USERR1
 40
0.0
  9
$USERR2
 40
0.0
  9
$USERR3
 40
0.0
  9
$USERR4
 40
0.0
  9
$USERR5
 40
0.0
  9
$WORLDVIEW
 70
     1
  9
$SHADEDGE
 70
     3
  9
$SHADEDIF
 70
    70
  9
$TILEMODE
 70
     1
  9
$MAXACTVP
 70
    64
  9
$PINSBASE
 10
0.0
 20
0.0
 30
0.0
  9
$PLIMCHECK
 70
     0
  9
$PEXTMIN
 10
1.000000000000000E+20
 20
1.000000000000000E+20
 30
1.000000000000000E+20
  9
$PEXTMAX
 10
-1.000000000000000E+20
 20
-1.000000000000000E+20
 30
-1.000000000000000E+20
  9
$PLIMMIN
 10
0.0
 20
0.0
  9
$PLIMMAX
 10
420.0
 20
297.0
  9
$UNITMODE
 70
     0
  9
$VISRETAIN
 70
     1
  9
$PLINEGEN
 70
     0
  9
$PSLTSCALE
 70
     1
  9
$TREEDEPTH
 70
  3020
  9
$PICKSTYLE
 70
     1
  9
$CMLSTYLE
  2
STANDARD
  9
$CMLJUST
 70
     0
  9
$CMLSCALE
 40
20.0
  9
$PROXYGRAPHICS
 70
     1
  9
$MEASUREMENT
 70
     1
  0
ENDSEC
  0
SECTION
  2
CLASSES
  0
CLASS
  1
ACDBDICTIONARYWDFLT
  2
AcDbDictionaryWithDefault
  3
ObjectDBX Classes
 90
        0
280
     0
281
     0
  0
CLASS
  1
VISUALSTYLE
  2
AcDbVisualStyle
  3
ObjectDBX Classes
 90
     4095
280
     0
281
     0
  0
CLASS
  1
MATERIAL
  2
AcDbMaterial
  3
ObjectDBX Classes
 90
     1153
280
     0
281
     0
  0
CLASS
  1
SCALE
  2
AcDbScale
  3
ObjectDBX Classes
 90
     1153
280
     0
281
     0
  0
CLASS
  1
SUN
  2
AcDbSun
  3
SCENEOE
 90
     1153
280
     0
281
     0
  0
CLASS
  1
DICTIONARYVAR
  2
AcDbDictionaryVar
  3
ObjectDBX Classes
 90
        0
280
     0
281
     0
  0
CLASS
  1
XRECORD
  2
AcDbXrecord
  3
ObjectDBX Classes
 90
        0
280
     0
281
     0
  0
CLASS
  1
LWPOLYLINE
  2
AcDbPolyline
  3
ObjectDBX Classes
 90
        0
280
     0
281
     1
  0
CLASS
  1
HATCH
  2
AcDbHatch
  3
ObjectDBX Classes
 90
        0
280
     0
281
     1
  0
CLASS
  1
ACDBPLACEHOLDER
  2
AcDbPlaceHolder
  3
ObjectDBX Classes
 90
        0
280
     0
281
     0
  0
CLASS
  1
LAYOUT
  2
AcDbLayout
  3
ObjectDBX Classes
 90
        0
280
     0
281
     0
  0
ENDSEC
  0
SECTION
  2
TABLES
  0
TABLE
  2
VPORT
  5
8
102
{ACAD_XDICTIONARY
360
2CE
102
}
330
0
100
AcDbSymbolTable
 70
     1
  0
VPORT
  5
29
330
8
100
AcDbSymbolTableRecord
100
AcDbViewportTableRecord
  2
*ACTIVE
 70
     0
 10
0.0
 20
0.0
 11
1.0
 21
1.0
 12
344.1869158878504
 22
148.5
 13
0.0
 23
0.0
 14
10.0
 24
10.0
 15
10.0
 25
10.0
 16
0.0
 26
0.0
 36
1.0
 17
0.0
 27
0.0
 37
0.0
 40
297.0
 41
1.972972972850329
 42
50.0
 43
0.0
 44
0.0
 50
0.0
 51
0.0
 71
     0
 72
   100
 73
     1
 74
     3
 75
     0
 76
     0
 77
     0
 78
     0
  0
ENDTAB
  0
TABLE
  2
LTYPE
  5
5
330
0
100
AcDbSymbolTable
 70
     1
  0
LTYPE
  5
14
330
5
100
AcDbSymbolTableRecord
100
AcDbLinetypeTableRecord
  2
BYBLOCK
 70
     0
  3

 72
    65
 73
     0
 40
0.0
  0
LTYPE
  5
15
330
5
100
AcDbSymbolTableRecord
100
AcDbLinetypeTableRecord
  2
BYLAYER
 70
     0
  3

 72
    65
 73
     0
 40
0.0
  0
LTYPE
  5
16
330
5
100
AcDbSymbolTableRecord
100
AcDbLinetypeTableRecord
  2
CONTINUOUS
 70
     0
  3
Solid line
 72
    65
 73
     0
 40
0.0
  0
ENDTAB
  0
TABLE
  2
LAYER
  5
2
330
0
100
AcDbSymbolTable
 70
     5
  0
LAYER
  5
10
330
2
100
AcDbSymbolTableRecord
100
AcDbLayerTableRecord
  2
0
 70
     0
 62
     7
  6
CONTINUOUS
  0
LAYER
  5
6A
330
2
100
AcDbSymbolTableRecord
100
AcDbLayerTableRecord
  2
MECHANICAL1
 70
     0
 62
     6
  6
CONTINUOUS
  0
LAYER
  5
6B
330
2
100
AcDbSymbolTableRecord
100
AcDbLayerTableRecord
  2
BOTTOMPASTE
 70
     0
 62
    16
  6
CONTINUOUS
  0
LAYER
  5
6C
330
2
100
AcDbSymbolTableRecord
100
AcDbLayerTableRecord
  2
BOTTOMOVERLAY
 70
     0
 62
    54
  6
CONTINUOUS
  0
LAYER
  5
6D
330
2
100
AcDbSymbolTableRecord
100
AcDbLayerTableRecord
  2
PADHOLELAYER
 70
     0
 62
   156
  6
CONTINUOUS
  0
ENDTAB
  0
TABLE
  2
STYLE
  5
3
330
0
100
AcDbSymbolTable
 70
     1
  0
STYLE
  5
11
330
3
100
AcDbSymbolTableRecord
100
AcDbTextStyleTableRecord
  2
STANDARD
 70
     0
 40
0.0
 41
1.0
 50
0.0
 71
     0
 42
2.5
  3
txt
  4

  0
ENDTAB
  0
TABLE
  2
VIEW
  5
6
330
0
100
AcDbSymbolTable
 70
     0
  0
ENDTAB
  0
TABLE
  2
UCS
  5
7
330
0
100
AcDbSymbolTable
 70
     0
  0
ENDTAB
  0
TABLE
  2
APPID
  5
9
330
0
100
AcDbSymbolTable
 70
     1
  0
APPID
  5
12
330
9
100
AcDbSymbolTableRecord
100
AcDbRegAppTableRecord
  2
ACAD
 70
     0
  0
ENDTAB
  0
TABLE
  2
DIMSTYLE
  5
A
330
0
100
AcDbSymbolTable
 70
     1
  0
DIMSTYLE
105
27
330
A
100
AcDbSymbolTableRecord
100
AcDbDimStyleTableRecord
  2
ISO-25
 70
     0
  3

  4

  5

  6

  7

 40
1.0
 41
2.5
 42
0.625
 43
3.75
 44
1.25
 45
0.0
 46
0.0
 47
0.0
 48
0.0
140
2.5
141
2.5
142
0.0
143
0.03937007874016
144
1.0
145
0.0
146
1.0
147
0.625
 71
     0
 72
     0
 73
     0
 74
     0
 75
     0
 76
     0
 77
     1
 78
     8
170
     0
171
     3
172
     1
173
     0
174
     0
175
     0
176
     0
177
     0
178
     0
270
     2
271
     2
272
     2
273
     2
274
     3
340
11
275
     0
280
     0
281
     0
282
     0
283
     0
284
     8
285
     0
286
     0
287
     3
288
     0
  0
ENDTAB
  0
TABLE
  2
BLOCK_RECORD
  5
1
330
0
100
AcDbSymbolTable
 70
     1
  0
BLOCK_RECORD
  5
1F
330
1
100
AcDbSymbolTableRecord
100
AcDbBlockTableRecord
  2
*MODEL_SPACE
  0
BLOCK_RECORD
  5
1B
330
1
100
AcDbSymbolTableRecord
100
AcDbBlockTableRecord
  2
*PAPER_SPACE
  0
ENDTAB
  0
ENDSEC
  0
SECTION
  2
BLOCKS
  0
BLOCK
  5
20
330
1F
100
AcDbEntity
  8
0
100
AcDbBlockBegin
  2
*MODEL_SPACE
 70
     0
 10
0.0
 20
0.0
 30
0.0
  3
*MODEL_SPACE
  1

  0
ENDBLK
  5
21
330
1F
100
AcDbEntity
  8
0
100
AcDbBlockEnd
  0
BLOCK
  5
1C
330
1B
100
AcDbEntity
 67
     1
  8
0
100
AcDbBlockBegin
  2
*PAPER_SPACE
 70
     0
 10
0.0
 20
0.0
 30
0.0
  3
*PAPER_SPACE
  1

  0
ENDBLK
  5
1D
330
1B
100
AcDbEntity
 67
     1
  8
0
100
AcDbBlockEnd
  0
ENDSEC
  0
SECTION
  2
ENTITIES
  0
LWPOLYLINE
  5
6E
330
1F
100
AcDbEntity
  8
MECHANICAL1
100
AcDbPolyline
 90
        2
 70
     0
 43
0.0127
 10
431.43784426
 20
210.09161182
 10
431.43784426
 20
211.19161216
  0
LWPOLYLINE
  5
6F
330
1F
100
AcDbEntity
  8
MECHANICAL1
100
AcDbPolyline
 90
        2
 70
     1
 43
0.00635
 10
431.43466926
 20
210.09161182
 42
1.0
 10
431.44101926
 20
210.09161182
 42
1.0
  0
LWPOLYLINE
  5
70
330
1F
100
AcDbEntity
  8
MECHANICAL1
100
AcDbPolyline
 90
        2
 70
     1
 43
0.00635
 10
431.43466926
 20
211.19161216
 42
1.0
 10
431.44101926
 20
211.19161216
 42
1.0
  0
LWPOLYLINE
  5
71
330
1F
100
AcDbEntity
  8
MECHANICAL1
100
AcDbPolyline
 90
        2
 70
     0
 43
0.0127
 10
430.93784526
 20
209.59161282
 10
431.43784426
 20
210.09161182
  0
LWPOLYLINE
  5
72
330
1F
100
AcDbEntity
  8
MECHANICAL1
100
AcDbPolyline
 90
        2
 70
     1
 43
0.00635
 10
430.93467026
 20
209.59161282
 42
1.0
 10
430.94102026
 20
209.59161282
 42
1.0
  0
LWPOLYLINE
  5
73
330
1F
100
AcDbEntity
  8
MECHANICAL1
100
AcDbPolyline
 90
        2
 70
     1
 43
0.00635
 10
431.43466926
 20
210.09161182
 42
1.0
 10
431.44101926
 20
210.09161182
 42
1.0
  0
LWPOLYLINE
  5
74
330
1F
100
AcDbEntity
  8
MECHANICAL1
100
AcDbPolyline
 90
        2
 70
     0
 43
0.0127
 10
437.08784566
 20
210.09161182
 10
437.58784466
 20
209.59161282
  0
LWPOLYLINE
  5
75
330
1F
100
AcDbEntity
  8
MECHANICAL1
100
AcDbPolyline
 90
        2
 70
     1
 43
0.00635
 10
437.08467066
 20
210.09161182
 42
1.0
 10
437.09102066
 20
210.09161182
 42
1.0
  0
LWPOLYLINE
  5
76
330
1F
100
AcDbEntity
  8
MECHANICAL1
100
AcDbPolyline
 90
        2
 70
     1
 43
0.00635
 10
437.58466966
 20
209.59161282
 42
1.0
 10
437.59101966
 20
209.59161282
 42
1.0
  0
LWPOLYLINE
  5
77
330
1F
100
AcDbEntity
  8
MECHANICAL1
100
AcDbPolyline
 90
        2
 70
     0
 43
0.0127
 10
437.08784566
 20
210.09161182
 10
437.08784566
 20
211.19161216
  0
LWPOLYLINE
  5
78
330
1F
100
AcDbEntity
  8
MECHANICAL1
100
AcDbPolyline
 90
        2
 70
     1
 43
0.00635
 10
437.08467066
 20
210.09161182
 42
1.0
 10
437.09102066
 20
210.09161182
 42
1.0
  0
LWPOLYLINE
  5
79
330
1F
100
AcDbEntity
  8
MECHANICAL1
100
AcDbPolyline
 90
        2
 70
     1
 43
0.00635
 10
437.08467066
 20
211.19161216
 42
1.0
 10
437.09102066
 20
211.19161216
 42
1.0
  0
LWPOLYLINE
  5
7A
330
1F
100
AcDbEntity
  8
MECHANICAL1
100
AcDbPolyline
 90
        2
 70
     0
 43
0.0127
 10
436.18784492
 20
210.09161182
 10
436.18784492
 20
211.19161216
  0
LWPOLYLINE
  5
7B
330
1F
100
AcDbEntity
  8
MECHANICAL1
100
AcDbPolyline
 90
        2
 70
     1
 43
0.00635
 10
436.18466992
 20
210.09161182
 42
1.0
 10
436.19101992
 20
210.09161182
 42
1.0
  0
LWPOLYLINE
  5
7C
330
1F
100
AcDbEntity
  8
MECHANICAL1
100
AcDbPolyline
 90
        2
 70
     1
 43
0.00635
 10
436.18466992
 20
211.19161216
 42
1.0
 10
436.19101992
 20
211.19161216
 42
1.0
  0
LWPOLYLINE
  5
7D
330
1F
100
AcDbEntity
  8
MECHANICAL1
100
AcDbPolyline
 90
        2
 70
     0
 43
0.0127
 10
435.68784592
 20
209.59161282
 10
436.18784492
 20
210.09161182
  0
LWPOLYLINE
  5
7E
330
1F
100
AcDbEntity
  8
MECHANICAL1
100
AcDbPolyline
 90
        2
 70
     1
 43
0.00635
 10
435.68467092
 20
209.59161282
 42
1.0
 10
435.69102092
 20
209.59161282
 42
1.0
  0
LWPOLYLINE
  5
7F
330
1F
100
AcDbEntity
  8
MECHANICAL1
100
AcDbPolyline
 90
        2
 70
     1
 43
0.00635
 10
436.18466992
 20
210.09161182
 42
1.0
 10
436.19101992
 20
210.09161182
 42
1.0
  0
LWPOLYLINE
  5
80
330
1F
100
AcDbEntity
  8
MECHANICAL1
100
AcDbPolyline
 90
        2
 70
     0
 43
0.0127
 10
432.337845
 20
210.09161182
 10
432.837844
 20
209.59161282
  0
LWPOLYLINE
  5
81
330
1F
100
AcDbEntity
  8
MECHANICAL1
100
AcDbPolyline
 90
        2
 70
     1
 43
0.00635
 10
432.33467
 20
210.09161182
 42
1.0
 10
432.34102
 20
210.09161182
 42
1.0
  0
LWPOLYLINE
  5
82
330
1F
100
AcDbEntity
  8
MECHANICAL1
100
AcDbPolyline
 90
        2
 70
     1
 43
0.00635
 10
432.834669
 20
209.59161282
 42
1.0
 10
432.841019
 20
209.59161282
 42
1.0
  0
LWPOLYLINE
  5
83
330
1F
100
AcDbEntity
  8
MECHANICAL1
100
AcDbPolyline
 90
        2
 70
     0
 43
0.0127
 10
432.337845
 20
210.09161182
 10
432.337845
 20
211.19161216
  0
LWPOLYLINE
  5
84
330
1F
100
AcDbEntity
  8
MECHANICAL1
100
AcDbPolyline
 90
        2
 70
     1
 43
0.00635
 10
432.33467
 20
210.09161182
 42
1.0
 10
432.34102
 20
210.09161182
 42
1.0
  0
LWPOLYLINE
  5
85
330
1F
100
AcDbEntity
  8
MECHANICAL1
100
AcDbPolyline
 90
        2
 70
     1
 43
0.00635
 10
432.33467
 20
211.19161216
 42
1.0
 10
432.34102
 20
211.19161216
 42
1.0
  0
LWPOLYLINE
  5
86
330
1F
100
AcDbEntity
  8
MECHANICAL1
100
AcDbPolyline
 90
        2
 70
     0
 43
0.0127
 10
438.51284408
 20
210.69161316
 10
438.51284408
 20
211.39161176
  0
LWPOLYLINE
  5
87
330
1F
100
AcDbEntity
  8
MECHANICAL1
100
AcDbPolyline
 90
        2
 70
     1
 43
0.00635
 10
438.50966908
 20
210.69161316
 42
1.0
 10
438.51601908
 20
210.69161316
 42
1.0
  0
LWPOLYLINE
  5
88
330
1F
100
AcDbEntity
  8
MECHANICAL1
100
AcDbPolyline
 90
        2
 70
     1
 43
0.00635
 10
438.50966908
 20
211.39161176
 42
1.0
 10
438.51601908
 20
211.39161176
 42
1.0
  0
LWPOLYLINE
  5
89
330
1F
100
AcDbEntity
  8
MECHANICAL1
100
AcDbPolyline
 90
        2
 70
     0
 43
0.0127
 10
437.91284528
 20
210.69161316
 10
437.91284528
 20
211.39161176
  0
LWPOLYLINE
  5
8A
330
1F
100
AcDbEntity
  8
MECHANICAL1
100
AcDbPolyline
 90
        2
 70
     1
 43
0.00635
 10
437.90967028
 20
210.69161316
 42
1.0
 10
437.91602028
 20
210.69161316
 42
1.0
  0
LWPOLYLINE
  5
8B
330
1F
100
AcDbEntity
  8
MECHANICAL1
100
AcDbPolyline
 90
        2
 70
     1
 43
0.00635
 10
437.90967028
 20
211.39161176
 42
1.0
 10
437.91602028
 20
211.39161176
 42
1.0
  0
LWPOLYLINE
  5
8C
330
1F
100
AcDbEntity
  8
MECHANICAL1
100
AcDbPolyline
 90
        2
 70
     0
 43
0.0127
 10
430.61284464
 20
210.69161316
 10
430.61284464
 20
211.39161176
  0
LWPOLYLINE
  5
8D
330
1F
100
AcDbEntity
  8
MECHANICAL1
100
AcDbPolyline
 90
        2
 70
     1
 43
0.00635
 10
430.60966964
 20
210.69161316
 42
1.0
 10
430.61601964
 20
210.69161316
 42
1.0
  0
LWPOLYLINE
  5
8E
330
1F
100
AcDbEntity
  8
MECHANICAL1
100
AcDbPolyline
 90
        2
 70
     1
 43
0.00635
 10
430.60966964
 20
211.39161176
 42
1.0
 10
430.61601964
 20
211.39161176
 42
1.0
  0
LWPOLYLINE
  5
8F
330
1F
100
AcDbEntity
  8
MECHANICAL1
100
AcDbPolyline
 90
        2
 70
     0
 43
0.0127
 10
430.01284584
 20
210.69161316
 10
430.01284584
 20
211.39161176
  0
LWPOLYLINE
  5
90
330
1F
100
AcDbEntity
  8
MECHANICAL1
100
AcDbPolyline
 90
        2
 70
     1
 43
0.00635
 10
430.00967084
 20
210.69161316
 42
1.0
 10
430.01602084
 20
210.69161316
 42
1.0
  0
LWPOLYLINE
  5
91
330
1F
100
AcDbEntity
  8
MECHANICAL1
100
AcDbPolyline
 90
        2
 70
     1
 43
0.00635
 10
430.00967084
 20
211.39161176
 42
1.0
 10
430.01602084
 20
211.39161176
 42
1.0
  0
LWPOLYLINE
  5
92
330
1F
100
AcDbEntity
  8
MECHANICAL1
100
AcDbPolyline
 90
        2
 70
     0
 43
0.0127
 10
458.26284522
 20
209.59161282
 10
458.26284522
 20
258.59161134
  0
LWPOLYLINE
  5
93
330
1F
100
AcDbEntity
  8
MECHANICAL1
100
AcDbPolyline
 90
        2
 70
     1
 43
0.00635
 10
458.25967022
 20
209.59161282
 42
1.0
 10
458.26602022
 20
209.59161282
 42
1.0
  0
LWPOLYLINE
  5
94
330
1F
100
AcDbEntity
  8
MECHANICAL1
100
AcDbPolyline
 90
        2
 70
     1
 43
0.00635
 10
458.25967022
 20
258.59161134
 42
1.0
 10
458.26602022
 20
258.59161134
 42
1.0
  0
LWPOLYLINE
  5
95
330
1F
100
AcDbEntity
  8
MECHANICAL1
100
AcDbPolyline
 90
        2
 70
     0
 43
0.0127
 10
410.2628447
 20
209.59161282
 10
430.93784526
 20
209.59161282
  0
LWPOLYLINE
  5
96
330
1F
100
AcDbEntity
  8
MECHANICAL1
100
AcDbPolyline
 90
        2
 70
     1
 43
0.00635
 10
410.2596697
 20
209.59161282
 42
1.0
 10
410.2660197
 20
209.59161282
 42
1.0
  0
LWPOLYLINE
  5
97
330
1F
100
AcDbEntity
  8
MECHANICAL1
100
AcDbPolyline
 90
        2
 70
     1
 43
0.00635
 10
430.93467026
 20
209.59161282
 42
1.0
 10
430.94102026
 20
209.59161282
 42
1.0
  0
LWPOLYLINE
  5
98
330
1F
100
AcDbEntity
  8
MECHANICAL1
100
AcDbPolyline
 90
        2
 70
     0
 43
0.0127
 10
410.2628447
 20
209.59161282
 10
410.2628447
 20
258.59161134
  0
LWPOLYLINE
  5
99
330
1F
100
AcDbEntity
  8
MECHANICAL1
100
AcDbPolyline
 90
        2
 70
     1
 43
0.00635
 10
410.2596697
 20
209.59161282
 42
1.0
 10
410.2660197
 20
209.59161282
 42
1.0
  0
LWPOLYLINE
  5
9A
330
1F
100
AcDbEntity
  8
MECHANICAL1
100
AcDbPolyline
 90
        2
 70
     1
 43
0.00635
 10
410.2596697
 20
258.59161134
 42
1.0
 10
410.2660197
 20
258.59161134
 42
1.0
  0
LWPOLYLINE
  5
9B
330
1F
100
AcDbEntity
  8
MECHANICAL1
100
AcDbPolyline
 90
        2
 70
     0
 43
0.0127
 10
411.26284524
 20
259.59161188
 10
457.26284722
 20
259.59161188
  0
LWPOLYLINE
  5
9C
330
1F
100
AcDbEntity
  8
MECHANICAL1
100
AcDbPolyline
 90
        2
 70
     1
 43
0.00635
 10
411.25967024
 20
259.59161188
 42
1.0
 10
411.26602024
 20
259.59161188
 42
1.0
  0
LWPOLYLINE
  5
9D
330
1F
100
AcDbEntity
  8
MECHANICAL1
100
AcDbPolyline
 90
        2
 70
     1
 43
0.00635
 10
457.25967222
 20
259.59161188
 42
1.0
 10
457.26602222
 20
259.59161188
 42
1.0
  0
LWPOLYLINE
  5
9E
330
1F
100
AcDbEntity
  8
MECHANICAL1
100
AcDbPolyline
 90
        2
 70
     0
 43
0.0127
 10
437.58784466
 20
209.59161282
 10
458.26284522
 20
209.59161282
  0
LWPOLYLINE
  5
9F
330
1F
100
AcDbEntity
  8
MECHANICAL1
100
AcDbPolyline
 90
        2
 70
     1
 43
0.00635
 10
437.58466966
 20
209.59161282
 42
1.0
 10
437.59101966
 20
209.59161282
 42
1.0
  0
LWPOLYLINE
  5
A0
330
1F
100
AcDbEntity
  8
MECHANICAL1
100
AcDbPolyline
 90
        2
 70
     1
 43
0.00635
 10
458.25967022
 20
209.59161282
 42
1.0
 10
458.26602022
 20
209.59161282
 42
1.0
  0
LWPOLYLINE
  5
A1
330
1F
100
AcDbEntity
  8
MECHANICAL1
100
AcDbPolyline
 90
        2
 70
     0
 43
0.0127
 10
432.837844
 20
209.59161282
 10
435.68784592
 20
209.59161282
  0
LWPOLYLINE
  5
A2
330
1F
100
AcDbEntity
  8
MECHANICAL1
100
AcDbPolyline
 90
        2
 70
     1
 43
0.00635
 10
432.834669
 20
209.59161282
 42
1.0
 10
432.841019
 20
209.59161282
 42
1.0
  0
LWPOLYLINE
  5
A3
330
1F
100
AcDbEntity
  8
MECHANICAL1
100
AcDbPolyline
 90
        2
 70
     1
 43
0.00635
 10
435.68467092
 20
209.59161282
 42
1.0
 10
435.69102092
 20
209.59161282
 42
1.0
  0
LWPOLYLINE
  5
A4
330
1F
100
AcDbEntity
  8
MECHANICAL1
100
AcDbPolyline
 90
        2
 70
     0
 43
0.01299972
 10
410.2628447
 20
258.59161134
 42
-0.414213562372877
 10
411.26284524
 20
259.59161188
  0
LWPOLYLINE
  5
A5
330
1F
100
AcDbEntity
  8
MECHANICAL1
100
AcDbPolyline
 90
        2
 70
     1
 43
0.00649986
 10
410.25959604
 20
258.59161134
 42
1.0
 10
410.26609336
 20
258.59161134
 42
1.0
  0
LWPOLYLINE
  5
A6
330
1F
100
AcDbEntity
  8
MECHANICAL1
100
AcDbPolyline
 90
        2
 70
     1
 43
0.00649986
 10
411.25959658
 20
259.59161188
 42
1.0
 10
411.2660939
 20
259.59161188
 42
1.0
  0
LWPOLYLINE
  5
A7
330
1F
100
AcDbEntity
  8
MECHANICAL1
100
AcDbPolyline
 90
        2
 70
     0
 43
0.01299972
 10
457.26284468
 20
259.59161442
 42
-0.414213562372877
 10
458.26284522
 20
258.59161388
  0
LWPOLYLINE
  5
A8
330
1F
100
AcDbEntity
  8
MECHANICAL1
100
AcDbPolyline
 90
        2
 70
     1
 43
0.00649986
 10
457.2595960199999
 20
259.59161442
 42
1.0
 10
457.26609334
 20
259.59161442
 42
1.0
  0
LWPOLYLINE
  5
A9
330
1F
100
AcDbEntity
  8
MECHANICAL1
100
AcDbPolyline
 90
        2
 70
     1
 43
0.00649986
 10
458.25959656
 20
258.59161388
 42
1.0
 10
458.26609388
 20
258.59161388
 42
1.0
  0
LWPOLYLINE
  5
AA
330
1F
100
AcDbEntity
  8
MECHANICAL1
100
AcDbPolyline
 90
        2
 70
     0
 43
0.0127
 10
431.4378468
 20
211.19161216
 42
-0.9999999999992556
 10
432.337845
 20
211.19161216
  0
LWPOLYLINE
  5
AB
330
1F
100
AcDbEntity
  8
MECHANICAL1
100
AcDbPolyline
 90
        2
 70
     1
 43
0.00635
 10
431.4346718
 20
211.19161216
 42
1.0
 10
431.4410218
 20
211.19161216
 42
1.0
  0
LWPOLYLINE
  5
AC
330
1F
100
AcDbEntity
  8
MECHANICAL1
100
AcDbPolyline
 90
        2
 70
     1
 43
0.00635
 10
432.33467
 20
211.19161216
 42
1.0
 10
432.34102
 20
211.19161216
 42
1.0
  0
LWPOLYLINE
  5
AD
330
1F
100
AcDbEntity
  8
MECHANICAL1
100
AcDbPolyline
 90
        2
 70
     0
 43
0.0127
 10
436.18784492
 20
211.19161216
 42
-0.9999999999992556
 10
437.08784312
 20
211.19161216
  0
LWPOLYLINE
  5
AE
330
1F
100
AcDbEntity
  8
MECHANICAL1
100
AcDbPolyline
 90
        2
 70
     1
 43
0.00635
 10
436.18466992
 20
211.19161216
 42
1.0
 10
436.19101992
 20
211.19161216
 42
1.0
  0
LWPOLYLINE
  5
AF
330
1F
100
AcDbEntity
  8
MECHANICAL1
100
AcDbPolyline
 90
        2
 70
     1
 43
0.00635
 10
437.08466812
 20
211.19161216
 42
1.0
 10
437.09101812
 20
211.19161216
 42
1.0
  0
LWPOLYLINE
  5
B0
330
1F
100
AcDbEntity
  8
MECHANICAL1
100
AcDbPolyline
 90
        2
 70
     0
 43
0.0127
 10
438.51284408
 20
210.69161316
 42
-0.9999999999992556
 10
437.91284528
 20
210.69161316
  0
LWPOLYLINE
  5
B1
330
1F
100
AcDbEntity
  8
MECHANICAL1
100
AcDbPolyline
 90
        2
 70
     1
 43
0.00635
 10
438.50966908
 20
210.69161316
 42
1.0
 10
438.51601908
 20
210.69161316
 42
1.0
  0
LWPOLYLINE
  5
B2
330
1F
100
AcDbEntity
  8
MECHANICAL1
100
AcDbPolyline
 90
        2
 70
     1
 43
0.00635
 10
437.90967028
 20
210.69161316
 42
1.0
 10
437.91602028
 20
210.69161316
 42
1.0
  0
LWPOLYLINE
  5
B3
330
1F
100
AcDbEntity
  8
MECHANICAL1
100
AcDbPolyline
 90
        2
 70
     0
 43
0.0127
 10
437.91284528
 20
211.39161176
 42
-0.9999999999992556
 10
438.51284408
 20
211.39161176
  0
LWPOLYLINE
  5
B4
330
1F
100
AcDbEntity
  8
MECHANICAL1
100
AcDbPolyline
 90
        2
 70
     1
 43
0.00635
 10
437.90967028
 20
211.39161176
 42
1.0
 10
437.91602028
 20
211.39161176
 42
1.0
  0
LWPOLYLINE
  5
B5
330
1F
100
AcDbEntity
  8
MECHANICAL1
100
AcDbPolyline
 90
        2
 70
     1
 43
0.00635
 10
438.50966908
 20
211.39161176
 42
1.0
 10
438.51601908
 20
211.39161176
 42
1.0
  0
LWPOLYLINE
  5
B6
330
1F
100
AcDbEntity
  8
MECHANICAL1
100
AcDbPolyline
 90
        2
 70
     0
 43
0.0127
 10
430.61284464
 20
210.69161316
 42
-0.9999999999992556
 10
430.01284584
 20
210.69161316
  0
LWPOLYLINE
  5
B7
330
1F
100
AcDbEntity
  8
MECHANICAL1
100
AcDbPolyline
 90
        2
 70
     1
 43
0.00635
 10
430.60966964
 20
210.69161316
 42
1.0
 10
430.61601964
 20
210.69161316
 42
1.0
  0
LWPOLYLINE
  5
B8
330
1F
100
AcDbEntity
  8
MECHANICAL1
100
AcDbPolyline
 90
        2
 70
     1
 43
0.00635
 10
430.00967084
 20
210.69161316
 42
1.0
 10
430.01602084
 20
210.69161316
 42
1.0
  0
LWPOLYLINE
  5
B9
330
1F
100
AcDbEntity
  8
MECHANICAL1
100
AcDbPolyline
 90
        2
 70
     0
 43
0.0127
 10
430.01284584
 20
211.39161176
 42
-0.9999999999992556
 10
430.61284464
 20
211.39161176
  0
LWPOLYLINE
  5
BA
330
1F
100
AcDbEntity
  8
MECHANICAL1
100
AcDbPolyline
 90
        2
 70
     1
 43
0.00635
 10
430.00967084
 20
211.39161176
 42
1.0
 10
430.01602084
 20
211.39161176
 42
1.0
  0
LWPOLYLINE
  5
BB
330
1F
100
AcDbEntity
  8
MECHANICAL1
100
AcDbPolyline
 90
        2
 70
     1
 43
0.00635
 10
430.60966964
 20
211.39161176
 42
1.0
 10
430.61601964
 20
211.39161176
 42
1.0
  0
LWPOLYLINE
  5
BC
330
1F
100
AcDbEntity
  8
PADHOLELAYER
100
AcDbPolyline
 90
        2
 70
     1
 43
0.5999987999999999
 10
454.8128445
 20
216.74161376
 42
1.0
 10
455.4128433
 20
216.74161376
 42
1.0
  0
LWPOLYLINE
  5
BD
330
1F
100
AcDbEntity
  8
PADHOLELAYER
100
AcDbPolyline
 90
        2
 70
     1
 43
0.5999987999999999
 10
413.11284662
 20
249.85411294
 42
1.0
 10
413.71284542
 20
249.85411294
 42
1.0
  0
LINE
  5
BE
330
1F
100
AcDbEntity
  8
BOTTOMPASTE
100
AcDbLine
 10
383.57464052
 20
89.57759834
 30
0.0
 11
383.57464052
 21
86.07834702
 31
0.0
  0
LINE
  5
BF
330
1F
100
AcDbEntity
  8
BOTTOMPASTE
100
AcDbLine
 10
383.57464052
 20
89.57759834
 30
0.0
 11
385.07432002
 21
89.57759834
 31
0.0
  0
LINE
  5
C0
330
1F
100
AcDbEntity
  8
BOTTOMPASTE
100
AcDbLine
 10
385.07432002
 20
89.57759834
 30
0.0
 11
385.57421234
 21
89.41096671999999
 31
0.0
  0
LINE
  5
C1
330
1F
100
AcDbEntity
  8
BOTTOMPASTE
100
AcDbLine
 10
385.57421234
 20
89.41096671999999
 30
0.0
 11
385.74084396
 21
89.2443351
 31
0.0
  0
LINE
  5
C2
330
1F
100
AcDbEntity
  8
BOTTOMPASTE
100
AcDbLine
 10
385.74084396
 20
89.2443351
 30
0.0
 11
385.90747304
 21
88.91107439999999
 31
0.0
  0
LINE
  5
C3
330
1F
100
AcDbEntity
  8
BOTTOMPASTE
100
AcDbLine
 10
385.90747304
 20
88.91107439999999
 30
0.0
 11
385.90747304
 21
88.57781116
 31
0.0
  0
LINE
  5
C4
330
1F
100
AcDbEntity
  8
BOTTOMPASTE
100
AcDbLine
 10
385.90747304
 20
88.57781116
 30
0.0
 11
385.74084396
 21
88.24455046
 31
0.0
  0
LINE
  5
C5
330
1F
100
AcDbEntity
  8
BOTTOMPASTE
100
AcDbLine
 10
385.74084396
 20
88.24455046
 30
0.0
 11
385.57421234
 21
88.07791884
 31
0.0
  0
LINE
  5
C6
330
1F
100
AcDbEntity
  8
BOTTOMPASTE
100
AcDbLine
 10
385.57421234
 20
88.07791884
 30
0.0
 11
385.07432002
 21
87.91128721999999
 31
0.0
  0
LINE
  5
C7
330
1F
100
AcDbEntity
  8
BOTTOMPASTE
100
AcDbLine
 10
383.57464052
 20
87.91128721999999
 30
0.0
 11
385.07432002
 21
87.91128721999999
 31
0.0
  0
LINE
  5
C8
330
1F
100
AcDbEntity
  8
BOTTOMPASTE
100
AcDbLine
 10
385.07432002
 20
87.91128721999999
 30
0.0
 11
385.57421234
 21
87.74465814
 31
0.0
  0
LINE
  5
C9
330
1F
100
AcDbEntity
  8
BOTTOMPASTE
100
AcDbLine
 10
385.57421234
 20
87.74465814
 30
0.0
 11
385.74084396
 21
87.57802652
 31
0.0
  0
LINE
  5
CA
330
1F
100
AcDbEntity
  8
BOTTOMPASTE
100
AcDbLine
 10
385.74084396
 20
87.57802652
 30
0.0
 11
385.90747304
 21
87.24476328
 31
0.0
  0
LINE
  5
CB
330
1F
100
AcDbEntity
  8
BOTTOMPASTE
100
AcDbLine
 10
385.90747304
 20
87.24476328
 30
0.0
 11
385.90747304
 21
86.74487096
 31
0.0
  0
LINE
  5
CC
330
1F
100
AcDbEntity
  8
BOTTOMPASTE
100
AcDbLine
 10
385.90747304
 20
86.74487096
 30
0.0
 11
385.74084396
 21
86.41161025999999
 31
0.0
  0
LINE
  5
CD
330
1F
100
AcDbEntity
  8
BOTTOMPASTE
100
AcDbLine
 10
385.74084396
 20
86.41161025999999
 30
0.0
 11
385.57421234
 21
86.24497864
 31
0.0
  0
LINE
  5
CE
330
1F
100
AcDbEntity
  8
BOTTOMPASTE
100
AcDbLine
 10
385.57421234
 20
86.24497864
 30
0.0
 11
385.07432002
 21
86.07834702
 31
0.0
  0
LINE
  5
CF
330
1F
100
AcDbEntity
  8
BOTTOMPASTE
100
AcDbLine
 10
385.07432002
 20
86.07834702
 30
0.0
 11
383.57464052
 21
86.07834702
 31
0.0
  0
LINE
  5
D0
330
1F
100
AcDbEntity
  8
BOTTOMPASTE
100
AcDbLine
 10
387.52379442
 20
88.41117953999999
 30
0.0
 11
387.19053118
 21
88.24455046
 31
0.0
  0
LINE
  5
D1
330
1F
100
AcDbEntity
  8
BOTTOMPASTE
100
AcDbLine
 10
387.19053118
 20
88.24455046
 30
0.0
 11
386.85727048
 21
87.91128721999999
 31
0.0
  0
LINE
  5
D2
330
1F
100
AcDbEntity
  8
BOTTOMPASTE
100
AcDbLine
 10
386.85727048
 20
87.91128721999999
 30
0.0
 11
386.69063886
 21
87.41139489999999
 31
0.0
  0
LINE
  5
D3
330
1F
100
AcDbEntity
  8
BOTTOMPASTE
100
AcDbLine
 10
386.69063886
 20
87.41139489999999
 30
0.0
 11
386.69063886
 21
87.07813166
 31
0.0
  0
LINE
  5
D4
330
1F
100
AcDbEntity
  8
BOTTOMPASTE
100
AcDbLine
 10
386.69063886
 20
87.07813166
 30
0.0
 11
386.85727048
 21
86.57823934
 31
0.0
  0
LINE
  5
D5
330
1F
100
AcDbEntity
  8
BOTTOMPASTE
100
AcDbLine
 10
386.85727048
 20
86.57823934
 30
0.0
 11
387.19053118
 21
86.24497864
 31
0.0
  0
LINE
  5
D6
330
1F
100
AcDbEntity
  8
BOTTOMPASTE
100
AcDbLine
 10
387.19053118
 20
86.24497864
 30
0.0
 11
387.52379442
 21
86.07834702
 31
0.0
  0
LINE
  5
D7
330
1F
100
AcDbEntity
  8
BOTTOMPASTE
100
AcDbLine
 10
387.52379442
 20
86.07834702
 30
0.0
 11
388.02368674
 21
86.07834702
 31
0.0
  0
LINE
  5
D8
330
1F
100
AcDbEntity
  8
BOTTOMPASTE
100
AcDbLine
 10
388.02368674
 20
86.07834702
 30
0.0
 11
388.35694998
 21
86.24497864
 31
0.0
  0
LINE
  5
D9
330
1F
100
AcDbEntity
  8
BOTTOMPASTE
100
AcDbLine
 10
388.35694998
 20
86.24497864
 30
0.0
 11
388.69021068
 21
86.57823934
 31
0.0
  0
LINE
  5
DA
330
1F
100
AcDbEntity
  8
BOTTOMPASTE
100
AcDbLine
 10
388.69021068
 20
86.57823934
 30
0.0
 11
388.8568423
 21
87.07813166
 31
0.0
  0
LINE
  5
DB
330
1F
100
AcDbEntity
  8
BOTTOMPASTE
100
AcDbLine
 10
388.8568423
 20
87.07813166
 30
0.0
 11
388.8568423
 21
87.41139489999999
 31
0.0
  0
LINE
  5
DC
330
1F
100
AcDbEntity
  8
BOTTOMPASTE
100
AcDbLine
 10
388.8568423
 20
87.41139489999999
 30
0.0
 11
388.69021068
 21
87.91128721999999
 31
0.0
  0
LINE
  5
DD
330
1F
100
AcDbEntity
  8
BOTTOMPASTE
100
AcDbLine
 10
388.69021068
 20
87.91128721999999
 30
0.0
 11
388.35694998
 21
88.24455046
 31
0.0
  0
LINE
  5
DE
330
1F
100
AcDbEntity
  8
BOTTOMPASTE
100
AcDbLine
 10
388.35694998
 20
88.24455046
 30
0.0
 11
388.02368674
 21
88.41117953999999
 31
0.0
  0
LINE
  5
DF
330
1F
100
AcDbEntity
  8
BOTTOMPASTE
100
AcDbLine
 10
388.02368674
 20
88.41117953999999
 30
0.0
 11
387.52379442
 21
88.41117953999999
 31
0.0
  0
LINE
  5
E0
330
1F
100
AcDbEntity
  8
BOTTOMPASTE
100
AcDbLine
 10
390.1232355
 20
89.57759834
 30
0.0
 11
390.1232355
 21
86.74487096
 31
0.0
  0
LINE
  5
E1
330
1F
100
AcDbEntity
  8
BOTTOMPASTE
100
AcDbLine
 10
390.1232355
 20
86.74487096
 30
0.0
 11
390.28986712
 21
86.24497864
 31
0.0
  0
LINE
  5
E2
330
1F
100
AcDbEntity
  8
BOTTOMPASTE
100
AcDbLine
 10
390.28986712
 20
86.24497864
 30
0.0
 11
390.62312782
 21
86.07834702
 31
0.0
  0
LINE
  5
E3
330
1F
100
AcDbEntity
  8
BOTTOMPASTE
100
AcDbLine
 10
390.62312782
 20
86.07834702
 30
0.0
 11
390.95639106
 21
86.07834702
 31
0.0
  0
LINE
  5
E4
330
1F
100
AcDbEntity
  8
BOTTOMPASTE
100
AcDbLine
 10
389.62334318
 20
88.41117953999999
 30
0.0
 11
390.78975944
 21
88.41117953999999
 31
0.0
  0
LINE
  5
E5
330
1F
100
AcDbEntity
  8
BOTTOMPASTE
100
AcDbLine
 10
391.9561757
 20
89.57759834
 30
0.0
 11
391.9561757
 21
86.74487096
 31
0.0
  0
LINE
  5
E6
330
1F
100
AcDbEntity
  8
BOTTOMPASTE
100
AcDbLine
 10
391.9561757
 20
86.74487096
 30
0.0
 11
392.12280732
 21
86.24497864
 31
0.0
  0
LINE
  5
E7
330
1F
100
AcDbEntity
  8
BOTTOMPASTE
100
AcDbLine
 10
392.12280732
 20
86.24497864
 30
0.0
 11
392.45606802
 21
86.07834702
 31
0.0
  0
LINE
  5
E8
330
1F
100
AcDbEntity
  8
BOTTOMPASTE
100
AcDbLine
 10
392.45606802
 20
86.07834702
 30
0.0
 11
392.78933126
 21
86.07834702
 31
0.0
  0
LINE
  5
E9
330
1F
100
AcDbEntity
  8
BOTTOMPASTE
100
AcDbLine
 10
391.45628338
 20
88.41117953999999
 30
0.0
 11
392.62269964
 21
88.41117953999999
 31
0.0
  0
LINE
  5
EA
330
1F
100
AcDbEntity
  8
BOTTOMPASTE
100
AcDbLine
 10
394.12237914
 20
88.41117953999999
 30
0.0
 11
393.7891159
 21
88.24455046
 31
0.0
  0
LINE
  5
EB
330
1F
100
AcDbEntity
  8
BOTTOMPASTE
100
AcDbLine
 10
393.7891159
 20
88.24455046
 30
0.0
 11
393.4558552
 21
87.91128721999999
 31
0.0
  0
LINE
  5
EC
330
1F
100
AcDbEntity
  8
BOTTOMPASTE
100
AcDbLine
 10
393.4558552
 20
87.91128721999999
 30
0.0
 11
393.28922358
 21
87.41139489999999
 31
0.0
  0
LINE
  5
ED
330
1F
100
AcDbEntity
  8
BOTTOMPASTE
100
AcDbLine
 10
393.28922358
 20
87.41139489999999
 30
0.0
 11
393.28922358
 21
87.07813166
 31
0.0
  0
LINE
  5
EE
330
1F
100
AcDbEntity
  8
BOTTOMPASTE
100
AcDbLine
 10
393.28922358
 20
87.07813166
 30
0.0
 11
393.4558552
 21
86.57823934
 31
0.0
  0
LINE
  5
EF
330
1F
100
AcDbEntity
  8
BOTTOMPASTE
100
AcDbLine
 10
393.4558552
 20
86.57823934
 30
0.0
 11
393.7891159
 21
86.24497864
 31
0.0
  0
LINE
  5
F0
330
1F
100
AcDbEntity
  8
BOTTOMPASTE
100
AcDbLine
 10
393.7891159
 20
86.24497864
 30
0.0
 11
394.12237914
 21
86.07834702
 31
0.0
  0
LINE
  5
F1
330
1F
100
AcDbEntity
  8
BOTTOMPASTE
100
AcDbLine
 10
394.12237914
 20
86.07834702
 30
0.0
 11
394.62227146
 21
86.07834702
 31
0.0
  0
LINE
  5
F2
330
1F
100
AcDbEntity
  8
BOTTOMPASTE
100
AcDbLine
 10
394.62227146
 20
86.07834702
 30
0.0
 11
394.9555347
 21
86.24497864
 31
0.0
  0
LINE
  5
F3
330
1F
100
AcDbEntity
  8
BOTTOMPASTE
100
AcDbLine
 10
394.9555347
 20
86.24497864
 30
0.0
 11
395.2887954
 21
86.57823934
 31
0.0
  0
LINE
  5
F4
330
1F
100
AcDbEntity
  8
BOTTOMPASTE
100
AcDbLine
 10
395.2887954
 20
86.57823934
 30
0.0
 11
395.45542702
 21
87.07813166
 31
0.0
  0
LINE
  5
F5
330
1F
100
AcDbEntity
  8
BOTTOMPASTE
100
AcDbLine
 10
395.45542702
 20
87.07813166
 30
0.0
 11
395.45542702
 21
87.41139489999999
 31
0.0
  0
LINE
  5
F6
330
1F
100
AcDbEntity
  8
BOTTOMPASTE
100
AcDbLine
 10
395.45542702
 20
87.41139489999999
 30
0.0
 11
395.2887954
 21
87.91128721999999
 31
0.0
  0
LINE
  5
F7
330
1F
100
AcDbEntity
  8
BOTTOMPASTE
100
AcDbLine
 10
395.2887954
 20
87.91128721999999
 30
0.0
 11
394.9555347
 21
88.24455046
 31
0.0
  0
LINE
  5
F8
330
1F
100
AcDbEntity
  8
BOTTOMPASTE
100
AcDbLine
 10
394.9555347
 20
88.24455046
 30
0.0
 11
394.62227146
 21
88.41117953999999
 31
0.0
  0
LINE
  5
F9
330
1F
100
AcDbEntity
  8
BOTTOMPASTE
100
AcDbLine
 10
394.62227146
 20
88.41117953999999
 30
0.0
 11
394.12237914
 21
88.41117953999999
 31
0.0
  0
LINE
  5
FA
330
1F
100
AcDbEntity
  8
BOTTOMPASTE
100
AcDbLine
 10
396.2219279
 20
88.41117953999999
 30
0.0
 11
396.2219279
 21
86.07834702
 31
0.0
  0
LINE
  5
FB
330
1F
100
AcDbEntity
  8
BOTTOMPASTE
100
AcDbLine
 10
396.2219279
 20
87.74465814
 30
0.0
 11
396.72182022
 21
88.24455046
 31
0.0
  0
LINE
  5
FC
330
1F
100
AcDbEntity
  8
BOTTOMPASTE
100
AcDbLine
 10
396.72182022
 20
88.24455046
 30
0.0
 11
397.05508346
 21
88.41117953999999
 31
0.0
  0
LINE
  5
FD
330
1F
100
AcDbEntity
  8
BOTTOMPASTE
100
AcDbLine
 10
397.05508346
 20
88.41117953999999
 30
0.0
 11
397.5549757799999
 21
88.41117953999999
 31
0.0
  0
LINE
  5
FE
330
1F
100
AcDbEntity
  8
BOTTOMPASTE
100
AcDbLine
 10
397.5549757799999
 20
88.41117953999999
 30
0.0
 11
397.88823902
 21
88.24455046
 31
0.0
  0
LINE
  5
FF
330
1F
100
AcDbEntity
  8
BOTTOMPASTE
100
AcDbLine
 10
397.88823902
 20
88.24455046
 30
0.0
 11
398.0548681
 21
87.74465814
 31
0.0
  0
LINE
  5
100
330
1F
100
AcDbEntity
  8
BOTTOMPASTE
100
AcDbLine
 10
398.0548681
 20
87.74465814
 30
0.0
 11
398.0548681
 21
86.07834702
 31
0.0
  0
LINE
  5
101
330
1F
100
AcDbEntity
  8
BOTTOMPASTE
100
AcDbLine
 10
398.0548681
 20
87.74465814
 30
0.0
 11
398.55476042
 21
88.24455046
 31
0.0
  0
LINE
  5
102
330
1F
100
AcDbEntity
  8
BOTTOMPASTE
100
AcDbLine
 10
398.55476042
 20
88.24455046
 30
0.0
 11
398.88802366
 21
88.41117953999999
 31
0.0
  0
LINE
  5
103
330
1F
100
AcDbEntity
  8
BOTTOMPASTE
100
AcDbLine
 10
398.88802366
 20
88.41117953999999
 30
0.0
 11
399.38791598
 21
88.41117953999999
 31
0.0
  0
LINE
  5
104
330
1F
100
AcDbEntity
  8
BOTTOMPASTE
100
AcDbLine
 10
399.38791598
 20
88.41117953999999
 30
0.0
 11
399.72117922
 21
88.24455046
 31
0.0
  0
LINE
  5
105
330
1F
100
AcDbEntity
  8
BOTTOMPASTE
100
AcDbLine
 10
399.72117922
 20
88.24455046
 30
0.0
 11
399.8878083
 21
87.74465814
 31
0.0
  0
LINE
  5
106
330
1F
100
AcDbEntity
  8
BOTTOMPASTE
100
AcDbLine
 10
399.8878083
 20
87.74465814
 30
0.0
 11
399.8878083
 21
86.07834702
 31
0.0
  0
LINE
  5
107
330
1F
100
AcDbEntity
  8
BOTTOMPASTE
100
AcDbLine
 10
403.73698526
 20
87.74465814
 30
0.0
 11
405.23666476
 21
87.74465814
 31
0.0
  0
LINE
  5
108
330
1F
100
AcDbEntity
  8
BOTTOMPASTE
100
AcDbLine
 10
405.23666476
 20
87.74465814
 30
0.0
 11
405.73655708
 21
87.91128721999999
 31
0.0
  0
LINE
  5
109
330
1F
100
AcDbEntity
  8
BOTTOMPASTE
100
AcDbLine
 10
405.73655708
 20
87.91128721999999
 30
0.0
 11
405.9031887
 21
88.07791884
 31
0.0
  0
LINE
  5
10A
330
1F
100
AcDbEntity
  8
BOTTOMPASTE
100
AcDbLine
 10
405.9031887
 20
88.07791884
 30
0.0
 11
406.06981778
 21
88.41117953999999
 31
0.0
  0
LINE
  5
10B
330
1F
100
AcDbEntity
  8
BOTTOMPASTE
100
AcDbLine
 10
406.06981778
 20
88.41117953999999
 30
0.0
 11
406.06981778
 21
88.91107439999999
 31
0.0
  0
LINE
  5
10C
330
1F
100
AcDbEntity
  8
BOTTOMPASTE
100
AcDbLine
 10
406.06981778
 20
88.91107439999999
 30
0.0
 11
405.9031887
 21
89.2443351
 31
0.0
  0
LINE
  5
10D
330
1F
100
AcDbEntity
  8
BOTTOMPASTE
100
AcDbLine
 10
405.9031887
 20
89.2443351
 30
0.0
 11
405.73655708
 21
89.41096671999999
 31
0.0
  0
LINE
  5
10E
330
1F
100
AcDbEntity
  8
BOTTOMPASTE
100
AcDbLine
 10
405.73655708
 20
89.41096671999999
 30
0.0
 11
405.23666476
 21
89.57759834
 31
0.0
  0
LINE
  5
10F
330
1F
100
AcDbEntity
  8
BOTTOMPASTE
100
AcDbLine
 10
405.23666476
 20
89.57759834
 30
0.0
 11
403.73698526
 21
89.57759834
 31
0.0
  0
LINE
  5
110
330
1F
100
AcDbEntity
  8
BOTTOMPASTE
100
AcDbLine
 10
403.73698526
 20
89.57759834
 30
0.0
 11
403.73698526
 21
86.07834702
 31
0.0
  0
LINE
  5
111
330
1F
100
AcDbEntity
  8
BOTTOMPASTE
100
AcDbLine
 10
408.85255542
 20
88.41117953999999
 30
0.0
 11
408.85255542
 21
86.07834702
 31
0.0
  0
LINE
  5
112
330
1F
100
AcDbEntity
  8
BOTTOMPASTE
100
AcDbLine
 10
408.85255542
 20
87.91128721999999
 30
0.0
 11
408.51929472
 21
88.24455046
 31
0.0
  0
LINE
  5
113
330
1F
100
AcDbEntity
  8
BOTTOMPASTE
100
AcDbLine
 10
408.51929472
 20
88.24455046
 30
0.0
 11
408.18603148
 21
88.41117953999999
 31
0.0
  0
LINE
  5
114
330
1F
100
AcDbEntity
  8
BOTTOMPASTE
100
AcDbLine
 10
408.18603148
 20
88.41117953999999
 30
0.0
 11
407.68613916
 21
88.41117953999999
 31
0.0
  0
LINE
  5
115
330
1F
100
AcDbEntity
  8
BOTTOMPASTE
100
AcDbLine
 10
407.68613916
 20
88.41117953999999
 30
0.0
 11
407.35287592
 21
88.24455046
 31
0.0
  0
LINE
  5
116
330
1F
100
AcDbEntity
  8
BOTTOMPASTE
100
AcDbLine
 10
407.35287592
 20
88.24455046
 30
0.0
 11
407.01961522
 21
87.91128721999999
 31
0.0
  0
LINE
  5
117
330
1F
100
AcDbEntity
  8
BOTTOMPASTE
100
AcDbLine
 10
407.01961522
 20
87.91128721999999
 30
0.0
 11
406.8529836
 21
87.41139489999999
 31
0.0
  0
LINE
  5
118
330
1F
100
AcDbEntity
  8
BOTTOMPASTE
100
AcDbLine
 10
406.8529836
 20
87.41139489999999
 30
0.0
 11
406.8529836
 21
87.07813166
 31
0.0
  0
LINE
  5
119
330
1F
100
AcDbEntity
  8
BOTTOMPASTE
100
AcDbLine
 10
406.8529836
 20
87.07813166
 30
0.0
 11
407.01961522
 21
86.57823934
 31
0.0
  0
LINE
  5
11A
330
1F
100
AcDbEntity
  8
BOTTOMPASTE
100
AcDbLine
 10
407.01961522
 20
86.57823934
 30
0.0
 11
407.35287592
 21
86.24497864
 31
0.0
  0
LINE
  5
11B
330
1F
100
AcDbEntity
  8
BOTTOMPASTE
100
AcDbLine
 10
407.35287592
 20
86.24497864
 30
0.0
 11
407.68613916
 21
86.07834702
 31
0.0
  0
LINE
  5
11C
330
1F
100
AcDbEntity
  8
BOTTOMPASTE
100
AcDbLine
 10
407.68613916
 20
86.07834702
 30
0.0
 11
408.18603148
 21
86.07834702
 31
0.0
  0
LINE
  5
11D
330
1F
100
AcDbEntity
  8
BOTTOMPASTE
100
AcDbLine
 10
408.18603148
 20
86.07834702
 30
0.0
 11
408.51929472
 21
86.24497864
 31
0.0
  0
LINE
  5
11E
330
1F
100
AcDbEntity
  8
BOTTOMPASTE
100
AcDbLine
 10
408.51929472
 20
86.24497864
 30
0.0
 11
408.85255542
 21
86.57823934
 31
0.0
  0
LINE
  5
11F
330
1F
100
AcDbEntity
  8
BOTTOMPASTE
100
AcDbLine
 10
411.61862812
 20
87.91128721999999
 30
0.0
 11
411.45199904
 21
88.24455046
 31
0.0
  0
LINE
  5
120
330
1F
100
AcDbEntity
  8
BOTTOMPASTE
100
AcDbLine
 10
411.45199904
 20
88.24455046
 30
0.0
 11
410.95210418
 21
88.41117953999999
 31
0.0
  0
LINE
  5
121
330
1F
100
AcDbEntity
  8
BOTTOMPASTE
100
AcDbLine
 10
410.95210418
 20
88.41117953999999
 30
0.0
 11
410.45221186
 21
88.41117953999999
 31
0.0
  0
LINE
  5
122
330
1F
100
AcDbEntity
  8
BOTTOMPASTE
100
AcDbLine
 10
410.45221186
 20
88.41117953999999
 30
0.0
 11
409.95231954
 21
88.24455046
 31
0.0
  0
LINE
  5
123
330
1F
100
AcDbEntity
  8
BOTTOMPASTE
100
AcDbLine
 10
409.95231954
 20
88.24455046
 30
0.0
 11
409.78568792
 21
87.91128721999999
 31
0.0
  0
LINE
  5
124
330
1F
100
AcDbEntity
  8
BOTTOMPASTE
100
AcDbLine
 10
409.78568792
 20
87.91128721999999
 30
0.0
 11
409.95231954
 21
87.57802652
 31
0.0
  0
LINE
  5
125
330
1F
100
AcDbEntity
  8
BOTTOMPASTE
100
AcDbLine
 10
409.95231954
 20
87.57802652
 30
0.0
 11
410.28558024
 21
87.41139489999999
 31
0.0
  0
LINE
  5
126
330
1F
100
AcDbEntity
  8
BOTTOMPASTE
100
AcDbLine
 10
410.28558024
 20
87.41139489999999
 30
0.0
 11
411.1187358
 21
87.24476328
 31
0.0
  0
LINE
  5
127
330
1F
100
AcDbEntity
  8
BOTTOMPASTE
100
AcDbLine
 10
411.1187358
 20
87.24476328
 30
0.0
 11
411.45199904
 21
87.07813166
 31
0.0
  0
LINE
  5
128
330
1F
100
AcDbEntity
  8
BOTTOMPASTE
100
AcDbLine
 10
411.45199904
 20
87.07813166
 30
0.0
 11
411.61862812
 21
86.74487096
 31
0.0
  0
LINE
  5
129
330
1F
100
AcDbEntity
  8
BOTTOMPASTE
100
AcDbLine
 10
411.61862812
 20
86.74487096
 30
0.0
 11
411.61862812
 21
86.57823934
 31
0.0
  0
LINE
  5
12A
330
1F
100
AcDbEntity
  8
BOTTOMPASTE
100
AcDbLine
 10
411.61862812
 20
86.57823934
 30
0.0
 11
411.45199904
 21
86.24497864
 31
0.0
  0
LINE
  5
12B
330
1F
100
AcDbEntity
  8
BOTTOMPASTE
100
AcDbLine
 10
411.45199904
 20
86.24497864
 30
0.0
 11
410.95210418
 21
86.07834702
 31
0.0
  0
LINE
  5
12C
330
1F
100
AcDbEntity
  8
BOTTOMPASTE
100
AcDbLine
 10
410.95210418
 20
86.07834702
 30
0.0
 11
410.45221186
 21
86.07834702
 31
0.0
  0
LINE
  5
12D
330
1F
100
AcDbEntity
  8
BOTTOMPASTE
100
AcDbLine
 10
410.45221186
 20
86.07834702
 30
0.0
 11
409.95231954
 21
86.24497864
 31
0.0
  0
LINE
  5
12E
330
1F
100
AcDbEntity
  8
BOTTOMPASTE
100
AcDbLine
 10
409.95231954
 20
86.24497864
 30
0.0
 11
409.78568792
 21
86.57823934
 31
0.0
  0
LINE
  5
12F
330
1F
100
AcDbEntity
  8
BOTTOMPASTE
100
AcDbLine
 10
412.85169652
 20
89.57759834
 30
0.0
 11
412.85169652
 21
86.74487096
 31
0.0
  0
LINE
  5
130
330
1F
100
AcDbEntity
  8
BOTTOMPASTE
100
AcDbLine
 10
412.85169652
 20
86.74487096
 30
0.0
 11
413.01832814
 21
86.24497864
 31
0.0
  0
LINE
  5
131
330
1F
100
AcDbEntity
  8
BOTTOMPASTE
100
AcDbLine
 10
413.01832814
 20
86.24497864
 30
0.0
 11
413.35158884
 21
86.07834702
 31
0.0
  0
LINE
  5
132
330
1F
100
AcDbEntity
  8
BOTTOMPASTE
100
AcDbLine
 10
413.35158884
 20
86.07834702
 30
0.0
 11
413.68485208
 21
86.07834702
 31
0.0
  0
LINE
  5
133
330
1F
100
AcDbEntity
  8
BOTTOMPASTE
100
AcDbLine
 10
412.3518042
 20
88.41117953999999
 30
0.0
 11
413.51822046
 21
88.41117953999999
 31
0.0
  0
LINE
  5
134
330
1F
100
AcDbEntity
  8
BOTTOMPASTE
100
AcDbLine
 10
414.1847444
 20
87.41139489999999
 30
0.0
 11
416.18431622
 21
87.41139489999999
 31
0.0
  0
LINE
  5
135
330
1F
100
AcDbEntity
  8
BOTTOMPASTE
100
AcDbLine
 10
416.18431622
 20
87.41139489999999
 30
0.0
 11
416.18431622
 21
87.74465814
 31
0.0
  0
LINE
  5
136
330
1F
100
AcDbEntity
  8
BOTTOMPASTE
100
AcDbLine
 10
416.18431622
 20
87.74465814
 30
0.0
 11
416.0176846
 21
88.07791884
 31
0.0
  0
LINE
  5
137
330
1F
100
AcDbEntity
  8
BOTTOMPASTE
100
AcDbLine
 10
416.0176846
 20
88.07791884
 30
0.0
 11
415.85105552
 21
88.24455046
 31
0.0
  0
LINE
  5
138
330
1F
100
AcDbEntity
  8
BOTTOMPASTE
100
AcDbLine
 10
415.85105552
 20
88.24455046
 30
0.0
 11
415.51779228
 21
88.41117953999999
 31
0.0
  0
LINE
  5
139
330
1F
100
AcDbEntity
  8
BOTTOMPASTE
100
AcDbLine
 10
415.51779228
 20
88.41117953999999
 30
0.0
 11
415.01789996
 21
88.41117953999999
 31
0.0
  0
LINE
  5
13A
330
1F
100
AcDbEntity
  8
BOTTOMPASTE
100
AcDbLine
 10
415.01789996
 20
88.41117953999999
 30
0.0
 11
414.68463672
 21
88.24455046
 31
0.0
  0
LINE
  5
13B
330
1F
100
AcDbEntity
  8
BOTTOMPASTE
100
AcDbLine
 10
414.68463672
 20
88.24455046
 30
0.0
 11
414.35137602
 21
87.91128721999999
 31
0.0
  0
LINE
  5
13C
330
1F
100
AcDbEntity
  8
BOTTOMPASTE
100
AcDbLine
 10
414.35137602
 20
87.91128721999999
 30
0.0
 11
414.1847444
 21
87.41139489999999
 31
0.0
  0
LINE
  5
13D
330
1F
100
AcDbEntity
  8
BOTTOMPASTE
100
AcDbLine
 10
414.1847444
 20
87.41139489999999
 30
0.0
 11
414.1847444
 21
87.07813166
 31
0.0
  0
LINE
  5
13E
330
1F
100
AcDbEntity
  8
BOTTOMPASTE
100
AcDbLine
 10
414.1847444
 20
87.07813166
 30
0.0
 11
414.35137602
 21
86.57823934
 31
0.0
  0
LINE
  5
13F
330
1F
100
AcDbEntity
  8
BOTTOMPASTE
100
AcDbLine
 10
414.35137602
 20
86.57823934
 30
0.0
 11
414.68463672
 21
86.24497864
 31
0.0
  0
LINE
  5
140
330
1F
100
AcDbEntity
  8
BOTTOMPASTE
100
AcDbLine
 10
414.68463672
 20
86.24497864
 30
0.0
 11
415.01789996
 21
86.07834702
 31
0.0
  0
LINE
  5
141
330
1F
100
AcDbEntity
  8
BOTTOMPASTE
100
AcDbLine
 10
415.01789996
 20
86.07834702
 30
0.0
 11
415.51779228
 21
86.07834702
 31
0.0
  0
LINE
  5
142
330
1F
100
AcDbEntity
  8
BOTTOMPASTE
100
AcDbLine
 10
415.51779228
 20
86.07834702
 30
0.0
 11
415.85105552
 21
86.24497864
 31
0.0
  0
LINE
  5
143
330
1F
100
AcDbEntity
  8
BOTTOMPASTE
100
AcDbLine
 10
415.85105552
 20
86.24497864
 30
0.0
 11
416.18431622
 21
86.57823934
 31
0.0
  0
LINE
  5
144
330
1F
100
AcDbEntity
  8
BOTTOMOVERLAY
100
AcDbLine
 10
448.638041
 20
216.01661394
 30
0.0
 11
448.638041
 21
215.61674428
 31
0.0
  0
LINE
  5
145
330
1F
100
AcDbEntity
  8
BOTTOMOVERLAY
100
AcDbLine
 10
448.638041
 20
215.61674428
 30
0.0
 11
448.638041
 21
215.81667784
 31
0.0
  0
LINE
  5
146
330
1F
100
AcDbEntity
  8
BOTTOMOVERLAY
100
AcDbLine
 10
448.638041
 20
215.81667784
 30
0.0
 11
449.23784676
 21
215.81667784
 31
0.0
  0
LINE
  5
147
330
1F
100
AcDbEntity
  8
BOTTOMOVERLAY
100
AcDbLine
 10
448.638041
 20
215.01693852
 30
0.0
 11
448.638041
 21
215.41680818
 31
0.0
  0
LINE
  5
148
330
1F
100
AcDbEntity
  8
BOTTOMOVERLAY
100
AcDbLine
 10
448.638041
 20
215.41680818
 30
0.0
 11
449.23784676
 21
215.41680818
 31
0.0
  0
LINE
  5
149
330
1F
100
AcDbEntity
  8
BOTTOMOVERLAY
100
AcDbLine
 10
449.23784676
 20
215.41680818
 30
0.0
 11
449.23784676
 21
215.01693852
 31
0.0
  0
LINE
  5
14A
330
1F
100
AcDbEntity
  8
BOTTOMOVERLAY
100
AcDbLine
 10
448.93794388
 20
215.41680818
 30
0.0
 11
448.93794388
 21
215.21687208
 31
0.0
  0
LINE
  5
14B
330
1F
100
AcDbEntity
  8
BOTTOMOVERLAY
100
AcDbLine
 10
449.23784676
 20
214.81700242
 30
0.0
 11
448.638041
 21
214.81700242
 31
0.0
  0
LINE
  5
14C
330
1F
100
AcDbEntity
  8
BOTTOMOVERLAY
100
AcDbLine
 10
448.638041
 20
214.81700242
 30
0.0
 11
448.8379771
 21
214.61706632
 31
0.0
  0
LINE
  5
14D
330
1F
100
AcDbEntity
  8
BOTTOMOVERLAY
100
AcDbLine
 10
448.8379771
 20
214.61706632
 30
0.0
 11
448.638041
 21
214.41713276
 31
0.0
  0
LINE
  5
14E
330
1F
100
AcDbEntity
  8
BOTTOMOVERLAY
100
AcDbLine
 10
448.638041
 20
214.41713276
 30
0.0
 11
449.23784676
 21
214.41713276
 31
0.0
  0
LINE
  5
14F
330
1F
100
AcDbEntity
  8
BOTTOMOVERLAY
100
AcDbLine
 10
449.23784676
 20
214.21719666
 30
0.0
 11
448.638041
 21
214.21719666
 31
0.0
  0
LINE
  5
150
330
1F
100
AcDbEntity
  8
BOTTOMOVERLAY
100
AcDbLine
 10
448.638041
 20
214.21719666
 30
0.0
 11
448.638041
 21
213.91729378
 31
0.0
  0
LINE
  5
151
330
1F
100
AcDbEntity
  8
BOTTOMOVERLAY
100
AcDbLine
 10
448.638041
 20
213.91729378
 30
0.0
 11
448.73801032
 21
213.817327
 31
0.0
  0
LINE
  5
152
330
1F
100
AcDbEntity
  8
BOTTOMOVERLAY
100
AcDbLine
 10
448.73801032
 20
213.817327
 30
0.0
 11
448.93794388
 21
213.817327
 31
0.0
  0
LINE
  5
153
330
1F
100
AcDbEntity
  8
BOTTOMOVERLAY
100
AcDbLine
 10
448.93794388
 20
213.817327
 30
0.0
 11
449.03791066
 21
213.91729378
 31
0.0
  0
LINE
  5
154
330
1F
100
AcDbEntity
  8
BOTTOMOVERLAY
100
AcDbLine
 10
449.03791066
 20
213.91729378
 30
0.0
 11
449.03791066
 21
214.21719666
 31
0.0
  0
LINE
  5
155
330
1F
100
AcDbEntity
  8
BOTTOMOVERLAY
100
AcDbLine
 10
451.46295788
 20
210.76860818
 30
0.0
 11
451.46295788
 21
211.2351249
 31
0.0
  0
LINE
  5
156
330
1F
100
AcDbEntity
  8
BOTTOMOVERLAY
100
AcDbLine
 10
445.53984298
 20
210.96649958
 30
0.0
 11
446.0063597
 21
210.96649958
 31
0.0
  0
LINE
  5
157
330
1F
100
AcDbEntity
  8
BOTTOMOVERLAY
100
AcDbLine
 10
445.77310134
 20
211.19975794
 30
0.0
 11
445.77310134
 21
210.73324122
 31
0.0
  0
LINE
  5
158
330
1F
100
AcDbEntity
  8
BOTTOMOVERLAY
100
AcDbLine
 10
383.80784554
 20
89.49209685999999
 30
0.0
 11
383.80784554
 21
85.99284553999999
 31
0.0
  0
LINE
  5
159
330
1F
100
AcDbEntity
  8
BOTTOMOVERLAY
100
AcDbLine
 10
383.80784554
 20
89.49209685999999
 30
0.0
 11
385.30752504
 21
89.49209685999999
 31
0.0
  0
LINE
  5
15A
330
1F
100
AcDbEntity
  8
BOTTOMOVERLAY
100
AcDbLine
 10
385.30752504
 20
89.49209685999999
 30
0.0
 11
385.80741736
 21
89.32546524
 31
0.0
  0
LINE
  5
15B
330
1F
100
AcDbEntity
  8
BOTTOMOVERLAY
100
AcDbLine
 10
385.80741736
 20
89.32546524
 30
0.0
 11
385.97404898
 21
89.15883362
 31
0.0
  0
LINE
  5
15C
330
1F
100
AcDbEntity
  8
BOTTOMOVERLAY
100
AcDbLine
 10
385.97404898
 20
89.15883362
 30
0.0
 11
386.14067806
 21
88.82557292
 31
0.0
  0
LINE
  5
15D
330
1F
100
AcDbEntity
  8
BOTTOMOVERLAY
100
AcDbLine
 10
386.14067806
 20
88.82557292
 30
0.0
 11
386.14067806
 21
88.49230967999999
 31
0.0
  0
LINE
  5
15E
330
1F
100
AcDbEntity
  8
BOTTOMOVERLAY
100
AcDbLine
 10
386.14067806
 20
88.49230967999999
 30
0.0
 11
385.97404898
 21
88.15904898
 31
0.0
  0
LINE
  5
15F
330
1F
100
AcDbEntity
  8
BOTTOMOVERLAY
100
AcDbLine
 10
385.97404898
 20
88.15904898
 30
0.0
 11
385.80741736
 21
87.99241735999999
 31
0.0
  0
LINE
  5
160
330
1F
100
AcDbEntity
  8
BOTTOMOVERLAY
100
AcDbLine
 10
385.80741736
 20
87.99241735999999
 30
0.0
 11
385.30752504
 21
87.82578574
 31
0.0
  0
LINE
  5
161
330
1F
100
AcDbEntity
  8
BOTTOMOVERLAY
100
AcDbLine
 10
383.80784554
 20
87.82578574
 30
0.0
 11
385.30752504
 21
87.82578574
 31
0.0
  0
LINE
  5
162
330
1F
100
AcDbEntity
  8
BOTTOMOVERLAY
100
AcDbLine
 10
385.30752504
 20
87.82578574
 30
0.0
 11
385.80741736
 21
87.65915666
 31
0.0
  0
LINE
  5
163
330
1F
100
AcDbEntity
  8
BOTTOMOVERLAY
100
AcDbLine
 10
385.80741736
 20
87.65915666
 30
0.0
 11
385.97404898
 21
87.49252503999999
 31
0.0
  0
LINE
  5
164
330
1F
100
AcDbEntity
  8
BOTTOMOVERLAY
100
AcDbLine
 10
385.97404898
 20
87.49252503999999
 30
0.0
 11
386.14067806
 21
87.1592618
 31
0.0
  0
LINE
  5
165
330
1F
100
AcDbEntity
  8
BOTTOMOVERLAY
100
AcDbLine
 10
386.14067806
 20
87.1592618
 30
0.0
 11
386.14067806
 21
86.65936948
 31
0.0
  0
LINE
  5
166
330
1F
100
AcDbEntity
  8
BOTTOMOVERLAY
100
AcDbLine
 10
386.14067806
 20
86.65936948
 30
0.0
 11
385.97404898
 21
86.32610878
 31
0.0
  0
LINE
  5
167
330
1F
100
AcDbEntity
  8
BOTTOMOVERLAY
100
AcDbLine
 10
385.97404898
 20
86.32610878
 30
0.0
 11
385.80741736
 21
86.15947716
 31
0.0
  0
LINE
  5
168
330
1F
100
AcDbEntity
  8
BOTTOMOVERLAY
100
AcDbLine
 10
385.80741736
 20
86.15947716
 30
0.0
 11
385.30752504
 21
85.99284553999999
 31
0.0
  0
LINE
  5
169
330
1F
100
AcDbEntity
  8
BOTTOMOVERLAY
100
AcDbLine
 10
385.30752504
 20
85.99284553999999
 30
0.0
 11
383.80784554
 21
85.99284553999999
 31
0.0
  0
LINE
  5
16A
330
1F
100
AcDbEntity
  8
BOTTOMOVERLAY
100
AcDbLine
 10
387.75699944
 20
88.32567806
 30
0.0
 11
387.4237362
 21
88.15904898
 31
0.0
  0
LINE
  5
16B
330
1F
100
AcDbEntity
  8
BOTTOMOVERLAY
100
AcDbLine
 10
387.4237362
 20
88.15904898
 30
0.0
 11
387.0904755
 21
87.82578574
 31
0.0
  0
LINE
  5
16C
330
1F
100
AcDbEntity
  8
BOTTOMOVERLAY
100
AcDbLine
 10
387.0904755
 20
87.82578574
 30
0.0
 11
386.92384388
 21
87.32589342
 31
0.0
  0
LINE
  5
16D
330
1F
100
AcDbEntity
  8
BOTTOMOVERLAY
100
AcDbLine
 10
386.92384388
 20
87.32589342
 30
0.0
 11
386.92384388
 21
86.99263017999999
 31
0.0
  0
LINE
  5
16E
330
1F
100
AcDbEntity
  8
BOTTOMOVERLAY
100
AcDbLine
 10
386.92384388
 20
86.99263017999999
 30
0.0
 11
387.0904755
 21
86.49273785999999
 31
0.0
  0
LINE
  5
16F
330
1F
100
AcDbEntity
  8
BOTTOMOVERLAY
100
AcDbLine
 10
387.0904755
 20
86.49273785999999
 30
0.0
 11
387.4237362
 21
86.15947716
 31
0.0
  0
LINE
  5
170
330
1F
100
AcDbEntity
  8
BOTTOMOVERLAY
100
AcDbLine
 10
387.4237362
 20
86.15947716
 30
0.0
 11
387.75699944
 21
85.99284553999999
 31
0.0
  0
LINE
  5
171
330
1F
100
AcDbEntity
  8
BOTTOMOVERLAY
100
AcDbLine
 10
387.75699944
 20
85.99284553999999
 30
0.0
 11
388.25689176
 21
85.99284553999999
 31
0.0
  0
LINE
  5
172
330
1F
100
AcDbEntity
  8
BOTTOMOVERLAY
100
AcDbLine
 10
388.25689176
 20
85.99284553999999
 30
0.0
 11
388.590155
 21
86.15947716
 31
0.0
  0
LINE
  5
173
330
1F
100
AcDbEntity
  8
BOTTOMOVERLAY
100
AcDbLine
 10
388.590155
 20
86.15947716
 30
0.0
 11
388.9234157
 21
86.49273785999999
 31
0.0
  0
LINE
  5
174
330
1F
100
AcDbEntity
  8
BOTTOMOVERLAY
100
AcDbLine
 10
388.9234157
 20
86.49273785999999
 30
0.0
 11
389.09004732
 21
86.99263017999999
 31
0.0
  0
LINE
  5
175
330
1F
100
AcDbEntity
  8
BOTTOMOVERLAY
100
AcDbLine
 10
389.09004732
 20
86.99263017999999
 30
0.0
 11
389.09004732
 21
87.32589342
 31
0.0
  0
LINE
  5
176
330
1F
100
AcDbEntity
  8
BOTTOMOVERLAY
100
AcDbLine
 10
389.09004732
 20
87.32589342
 30
0.0
 11
388.9234157
 21
87.82578574
 31
0.0
  0
LINE
  5
177
330
1F
100
AcDbEntity
  8
BOTTOMOVERLAY
100
AcDbLine
 10
388.9234157
 20
87.82578574
 30
0.0
 11
388.590155
 21
88.15904898
 31
0.0
  0
LINE
  5
178
330
1F
100
AcDbEntity
  8
BOTTOMOVERLAY
100
AcDbLine
 10
388.590155
 20
88.15904898
 30
0.0
 11
388.25689176
 21
88.32567806
 31
0.0
  0
LINE
  5
179
330
1F
100
AcDbEntity
  8
BOTTOMOVERLAY
100
AcDbLine
 10
388.25689176
 20
88.32567806
 30
0.0
 11
387.75699944
 21
88.32567806
 31
0.0
  0
LINE
  5
17A
330
1F
100
AcDbEntity
  8
BOTTOMOVERLAY
100
AcDbLine
 10
390.35644052
 20
89.49209685999999
 30
0.0
 11
390.35644052
 21
86.65936948
 31
0.0
  0
LINE
  5
17B
330
1F
100
AcDbEntity
  8
BOTTOMOVERLAY
100
AcDbLine
 10
390.35644052
 20
86.65936948
 30
0.0
 11
390.52307214
 21
86.15947716
 31
0.0
  0
LINE
  5
17C
330
1F
100
AcDbEntity
  8
BOTTOMOVERLAY
100
AcDbLine
 10
390.52307214
 20
86.15947716
 30
0.0
 11
390.85633284
 21
85.99284553999999
 31
0.0
  0
LINE
  5
17D
330
1F
100
AcDbEntity
  8
BOTTOMOVERLAY
100
AcDbLine
 10
390.85633284
 20
85.99284553999999
 30
0.0
 11
391.18959608
 21
85.99284553999999
 31
0.0
  0
LINE
  5
17E
330
1F
100
AcDbEntity
  8
BOTTOMOVERLAY
100
AcDbLine
 10
389.8565482
 20
88.32567806
 30
0.0
 11
391.02296446
 21
88.32567806
 31
0.0
  0
LINE
  5
17F
330
1F
100
AcDbEntity
  8
BOTTOMOVERLAY
100
AcDbLine
 10
392.18938072
 20
89.49209685999999
 30
0.0
 11
392.18938072
 21
86.65936948
 31
0.0
  0
LINE
  5
180
330
1F
100
AcDbEntity
  8
BOTTOMOVERLAY
100
AcDbLine
 10
392.18938072
 20
86.65936948
 30
0.0
 11
392.3560123399999
 21
86.15947716
 31
0.0
  0
LINE
  5
181
330
1F
100
AcDbEntity
  8
BOTTOMOVERLAY
100
AcDbLine
 10
392.3560123399999
 20
86.15947716
 30
0.0
 11
392.68927304
 21
85.99284553999999
 31
0.0
  0
LINE
  5
182
330
1F
100
AcDbEntity
  8
BOTTOMOVERLAY
100
AcDbLine
 10
392.68927304
 20
85.99284553999999
 30
0.0
 11
393.02253628
 21
85.99284553999999
 31
0.0
  0
LINE
  5
183
330
1F
100
AcDbEntity
  8
BOTTOMOVERLAY
100
AcDbLine
 10
391.6894884
 20
88.32567806
 30
0.0
 11
392.85590466
 21
88.32567806
 31
0.0
  0
LINE
  5
184
330
1F
100
AcDbEntity
  8
BOTTOMOVERLAY
100
AcDbLine
 10
394.35558416
 20
88.32567806
 30
0.0
 11
394.02232092
 21
88.15904898
 31
0.0
  0
LINE
  5
185
330
1F
100
AcDbEntity
  8
BOTTOMOVERLAY
100
AcDbLine
 10
394.02232092
 20
88.15904898
 30
0.0
 11
393.68906022
 21
87.82578574
 31
0.0
  0
LINE
  5
186
330
1F
100
AcDbEntity
  8
BOTTOMOVERLAY
100
AcDbLine
 10
393.68906022
 20
87.82578574
 30
0.0
 11
393.5224286
 21
87.32589342
 31
0.0
  0
LINE
  5
187
330
1F
100
AcDbEntity
  8
BOTTOMOVERLAY
100
AcDbLine
 10
393.5224286
 20
87.32589342
 30
0.0
 11
393.5224286
 21
86.99263017999999
 31
0.0
  0
LINE
  5
188
330
1F
100
AcDbEntity
  8
BOTTOMOVERLAY
100
AcDbLine
 10
393.5224286
 20
86.99263017999999
 30
0.0
 11
393.68906022
 21
86.49273785999999
 31
0.0
  0
LINE
  5
189
330
1F
100
AcDbEntity
  8
BOTTOMOVERLAY
100
AcDbLine
 10
393.68906022
 20
86.49273785999999
 30
0.0
 11
394.02232092
 21
86.15947716
 31
0.0
  0
LINE
  5
18A
330
1F
100
AcDbEntity
  8
BOTTOMOVERLAY
100
AcDbLine
 10
394.02232092
 20
86.15947716
 30
0.0
 11
394.35558416
 21
85.99284553999999
 31
0.0
  0
LINE
  5
18B
330
1F
100
AcDbEntity
  8
BOTTOMOVERLAY
100
AcDbLine
 10
394.35558416
 20
85.99284553999999
 30
0.0
 11
394.85547648
 21
85.99284553999999
 31
0.0
  0
LINE
  5
18C
330
1F
100
AcDbEntity
  8
BOTTOMOVERLAY
100
AcDbLine
 10
394.85547648
 20
85.99284553999999
 30
0.0
 11
395.18873972
 21
86.15947716
 31
0.0
  0
LINE
  5
18D
330
1F
100
AcDbEntity
  8
BOTTOMOVERLAY
100
AcDbLine
 10
395.18873972
 20
86.15947716
 30
0.0
 11
395.52200042
 21
86.49273785999999
 31
0.0
  0
LINE
  5
18E
330
1F
100
AcDbEntity
  8
BOTTOMOVERLAY
100
AcDbLine
 10
395.52200042
 20
86.49273785999999
 30
0.0
 11
395.68863204
 21
86.99263017999999
 31
0.0
  0
LINE
  5
18F
330
1F
100
AcDbEntity
  8
BOTTOMOVERLAY
100
AcDbLine
 10
395.68863204
 20
86.99263017999999
 30
0.0
 11
395.68863204
 21
87.32589342
 31
0.0
  0
LINE
  5
190
330
1F
100
AcDbEntity
  8
BOTTOMOVERLAY
100
AcDbLine
 10
395.68863204
 20
87.32589342
 30
0.0
 11
395.52200042
 21
87.82578574
 31
0.0
  0
LINE
  5
191
330
1F
100
AcDbEntity
  8
BOTTOMOVERLAY
100
AcDbLine
 10
395.52200042
 20
87.82578574
 30
0.0
 11
395.18873972
 21
88.15904898
 31
0.0
  0
LINE
  5
192
330
1F
100
AcDbEntity
  8
BOTTOMOVERLAY
100
AcDbLine
 10
395.18873972
 20
88.15904898
 30
0.0
 11
394.85547648
 21
88.32567806
 31
0.0
  0
LINE
  5
193
330
1F
100
AcDbEntity
  8
BOTTOMOVERLAY
100
AcDbLine
 10
394.85547648
 20
88.32567806
 30
0.0
 11
394.35558416
 21
88.32567806
 31
0.0
  0
LINE
  5
194
330
1F
100
AcDbEntity
  8
BOTTOMOVERLAY
100
AcDbLine
 10
396.45513292
 20
88.32567806
 30
0.0
 11
396.45513292
 21
85.99284553999999
 31
0.0
  0
LINE
  5
195
330
1F
100
AcDbEntity
  8
BOTTOMOVERLAY
100
AcDbLine
 10
396.45513292
 20
87.65915666
 30
0.0
 11
396.95502524
 21
88.15904898
 31
0.0
  0
LINE
  5
196
330
1F
100
AcDbEntity
  8
BOTTOMOVERLAY
100
AcDbLine
 10
396.95502524
 20
88.15904898
 30
0.0
 11
397.28828848
 21
88.32567806
 31
0.0
  0
LINE
  5
197
330
1F
100
AcDbEntity
  8
BOTTOMOVERLAY
100
AcDbLine
 10
397.28828848
 20
88.32567806
 30
0.0
 11
397.7881808
 21
88.32567806
 31
0.0
  0
LINE
  5
198
330
1F
100
AcDbEntity
  8
BOTTOMOVERLAY
100
AcDbLine
 10
397.7881808
 20
88.32567806
 30
0.0
 11
398.12144404
 21
88.15904898
 31
0.0
  0
LINE
  5
199
330
1F
100
AcDbEntity
  8
BOTTOMOVERLAY
100
AcDbLine
 10
398.12144404
 20
88.15904898
 30
0.0
 11
398.28807312
 21
87.65915666
 31
0.0
  0
LINE
  5
19A
330
1F
100
AcDbEntity
  8
BOTTOMOVERLAY
100
AcDbLine
 10
398.28807312
 20
87.65915666
 30
0.0
 11
398.28807312
 21
85.99284553999999
 31
0.0
  0
LINE
  5
19B
330
1F
100
AcDbEntity
  8
BOTTOMOVERLAY
100
AcDbLine
 10
398.28807312
 20
87.65915666
 30
0.0
 11
398.78796544
 21
88.15904898
 31
0.0
  0
LINE
  5
19C
330
1F
100
AcDbEntity
  8
BOTTOMOVERLAY
100
AcDbLine
 10
398.78796544
 20
88.15904898
 30
0.0
 11
399.12122868
 21
88.32567806
 31
0.0
  0
LINE
  5
19D
330
1F
100
AcDbEntity
  8
BOTTOMOVERLAY
100
AcDbLine
 10
399.12122868
 20
88.32567806
 30
0.0
 11
399.621121
 21
88.32567806
 31
0.0
  0
LINE
  5
19E
330
1F
100
AcDbEntity
  8
BOTTOMOVERLAY
100
AcDbLine
 10
399.621121
 20
88.32567806
 30
0.0
 11
399.95438424
 21
88.15904898
 31
0.0
  0
LINE
  5
19F
330
1F
100
AcDbEntity
  8
BOTTOMOVERLAY
100
AcDbLine
 10
399.95438424
 20
88.15904898
 30
0.0
 11
400.12101332
 21
87.65915666
 31
0.0
  0
LINE
  5
1A0
330
1F
100
AcDbEntity
  8
BOTTOMOVERLAY
100
AcDbLine
 10
400.12101332
 20
87.65915666
 30
0.0
 11
400.12101332
 21
85.99284553999999
 31
0.0
  0
LINE
  5
1A1
330
1F
100
AcDbEntity
  8
BOTTOMOVERLAY
100
AcDbLine
 10
404.96997492
 20
89.49209685999999
 30
0.0
 11
404.63671422
 21
89.32546524
 31
0.0
  0
LINE
  5
1A2
330
1F
100
AcDbEntity
  8
BOTTOMOVERLAY
100
AcDbLine
 10
404.63671422
 20
89.32546524
 30
0.0
 11
404.30345352
 21
88.99220453999999
 31
0.0
  0
LINE
  5
1A3
330
1F
100
AcDbEntity
  8
BOTTOMOVERLAY
100
AcDbLine
 10
404.30345352
 20
88.99220453999999
 30
0.0
 11
404.1368219
 21
88.6589413
 31
0.0
  0
LINE
  5
1A4
330
1F
100
AcDbEntity
  8
BOTTOMOVERLAY
100
AcDbLine
 10
404.1368219
 20
88.6589413
 30
0.0
 11
403.97019028
 21
88.15904898
 31
0.0
  0
LINE
  5
1A5
330
1F
100
AcDbEntity
  8
BOTTOMOVERLAY
100
AcDbLine
 10
403.97019028
 20
88.15904898
 30
0.0
 11
403.97019028
 21
87.32589342
 31
0.0
  0
LINE
  5
1A6
330
1F
100
AcDbEntity
  8
BOTTOMOVERLAY
100
AcDbLine
 10
403.97019028
 20
87.32589342
 30
0.0
 11
404.1368219
 21
86.8260011
 31
0.0
  0
LINE
  5
1A7
330
1F
100
AcDbEntity
  8
BOTTOMOVERLAY
100
AcDbLine
 10
404.1368219
 20
86.8260011
 30
0.0
 11
404.30345352
 21
86.49273785999999
 31
0.0
  0
LINE
  5
1A8
330
1F
100
AcDbEntity
  8
BOTTOMOVERLAY
100
AcDbLine
 10
404.30345352
 20
86.49273785999999
 30
0.0
 11
404.63671422
 21
86.15947716
 31
0.0
  0
LINE
  5
1A9
330
1F
100
AcDbEntity
  8
BOTTOMOVERLAY
100
AcDbLine
 10
404.63671422
 20
86.15947716
 30
0.0
 11
404.96997492
 21
85.99284553999999
 31
0.0
  0
LINE
  5
1AA
330
1F
100
AcDbEntity
  8
BOTTOMOVERLAY
100
AcDbLine
 10
404.96997492
 20
85.99284553999999
 30
0.0
 11
405.6365014
 21
85.99284553999999
 31
0.0
  0
LINE
  5
1AB
330
1F
100
AcDbEntity
  8
BOTTOMOVERLAY
100
AcDbLine
 10
405.6365014
 20
85.99284553999999
 30
0.0
 11
405.9697621
 21
86.15947716
 31
0.0
  0
LINE
  5
1AC
330
1F
100
AcDbEntity
  8
BOTTOMOVERLAY
100
AcDbLine
 10
405.9697621
 20
86.15947716
 30
0.0
 11
406.3030228
 21
86.49273785999999
 31
0.0
  0
LINE
  5
1AD
330
1F
100
AcDbEntity
  8
BOTTOMOVERLAY
100
AcDbLine
 10
406.3030228
 20
86.49273785999999
 30
0.0
 11
406.46965442
 21
86.8260011
 31
0.0
  0
LINE
  5
1AE
330
1F
100
AcDbEntity
  8
BOTTOMOVERLAY
100
AcDbLine
 10
406.46965442
 20
86.8260011
 30
0.0
 11
406.63628604
 21
87.32589342
 31
0.0
  0
LINE
  5
1AF
330
1F
100
AcDbEntity
  8
BOTTOMOVERLAY
100
AcDbLine
 10
406.63628604
 20
87.32589342
 30
0.0
 11
406.63628604
 21
88.15904898
 31
0.0
  0
LINE
  5
1B0
330
1F
100
AcDbEntity
  8
BOTTOMOVERLAY
100
AcDbLine
 10
406.63628604
 20
88.15904898
 30
0.0
 11
406.46965442
 21
88.6589413
 31
0.0
  0
LINE
  5
1B1
330
1F
100
AcDbEntity
  8
BOTTOMOVERLAY
100
AcDbLine
 10
406.46965442
 20
88.6589413
 30
0.0
 11
406.3030228
 21
88.99220453999999
 31
0.0
  0
LINE
  5
1B2
330
1F
100
AcDbEntity
  8
BOTTOMOVERLAY
100
AcDbLine
 10
406.3030228
 20
88.99220453999999
 30
0.0
 11
405.9697621
 21
89.32546524
 31
0.0
  0
LINE
  5
1B3
330
1F
100
AcDbEntity
  8
BOTTOMOVERLAY
100
AcDbLine
 10
405.9697621
 20
89.32546524
 30
0.0
 11
405.6365014
 21
89.49209685999999
 31
0.0
  0
LINE
  5
1B4
330
1F
100
AcDbEntity
  8
BOTTOMOVERLAY
100
AcDbLine
 10
405.6365014
 20
89.49209685999999
 30
0.0
 11
404.96997492
 21
89.49209685999999
 31
0.0
  0
LINE
  5
1B5
330
1F
100
AcDbEntity
  8
BOTTOMOVERLAY
100
AcDbLine
 10
407.45277666
 20
88.32567806
 30
0.0
 11
408.4525613
 21
85.99284553999999
 31
0.0
  0
LINE
  5
1B6
330
1F
100
AcDbEntity
  8
BOTTOMOVERLAY
100
AcDbLine
 10
409.45234848
 20
88.32567806
 30
0.0
 11
408.4525613
 21
85.99284553999999
 31
0.0
  0
LINE
  5
1B7
330
1F
100
AcDbEntity
  8
BOTTOMOVERLAY
100
AcDbLine
 10
410.01889294
 20
87.32589342
 30
0.0
 11
412.01846476
 21
87.32589342
 31
0.0
  0
LINE
  5
1B8
330
1F
100
AcDbEntity
  8
BOTTOMOVERLAY
100
AcDbLine
 10
412.01846476
 20
87.32589342
 30
0.0
 11
412.01846476
 21
87.65915666
 31
0.0
  0
LINE
  5
1B9
330
1F
100
AcDbEntity
  8
BOTTOMOVERLAY
100
AcDbLine
 10
412.01846476
 20
87.65915666
 30
0.0
 11
411.85183314
 21
87.99241735999999
 31
0.0
  0
LINE
  5
1BA
330
1F
100
AcDbEntity
  8
BOTTOMOVERLAY
100
AcDbLine
 10
411.85183314
 20
87.99241735999999
 30
0.0
 11
411.68520406
 21
88.15904898
 31
0.0
  0
LINE
  5
1BB
330
1F
100
AcDbEntity
  8
BOTTOMOVERLAY
100
AcDbLine
 10
411.68520406
 20
88.15904898
 30
0.0
 11
411.35194082
 21
88.32567806
 31
0.0
  0
LINE
  5
1BC
330
1F
100
AcDbEntity
  8
BOTTOMOVERLAY
100
AcDbLine
 10
411.35194082
 20
88.32567806
 30
0.0
 11
410.8520485
 21
88.32567806
 31
0.0
  0
LINE
  5
1BD
330
1F
100
AcDbEntity
  8
BOTTOMOVERLAY
100
AcDbLine
 10
410.8520485
 20
88.32567806
 30
0.0
 11
410.51878526
 21
88.15904898
 31
0.0
  0
LINE
  5
1BE
330
1F
100
AcDbEntity
  8
BOTTOMOVERLAY
100
AcDbLine
 10
410.51878526
 20
88.15904898
 30
0.0
 11
410.18552456
 21
87.82578574
 31
0.0
  0
LINE
  5
1BF
330
1F
100
AcDbEntity
  8
BOTTOMOVERLAY
100
AcDbLine
 10
410.18552456
 20
87.82578574
 30
0.0
 11
410.01889294
 21
87.32589342
 31
0.0
  0
LINE
  5
1C0
330
1F
100
AcDbEntity
  8
BOTTOMOVERLAY
100
AcDbLine
 10
410.01889294
 20
87.32589342
 30
0.0
 11
410.01889294
 21
86.99263017999999
 31
0.0
  0
LINE
  5
1C1
330
1F
100
AcDbEntity
  8
BOTTOMOVERLAY
100
AcDbLine
 10
410.01889294
 20
86.99263017999999
 30
0.0
 11
410.18552456
 21
86.49273785999999
 31
0.0
  0
LINE
  5
1C2
330
1F
100
AcDbEntity
  8
BOTTOMOVERLAY
100
AcDbLine
 10
410.18552456
 20
86.49273785999999
 30
0.0
 11
410.51878526
 21
86.15947716
 31
0.0
  0
LINE
  5
1C3
330
1F
100
AcDbEntity
  8
BOTTOMOVERLAY
100
AcDbLine
 10
410.51878526
 20
86.15947716
 30
0.0
 11
410.8520485
 21
85.99284553999999
 31
0.0
  0
LINE
  5
1C4
330
1F
100
AcDbEntity
  8
BOTTOMOVERLAY
100
AcDbLine
 10
410.8520485
 20
85.99284553999999
 30
0.0
 11
411.35194082
 21
85.99284553999999
 31
0.0
  0
LINE
  5
1C5
330
1F
100
AcDbEntity
  8
BOTTOMOVERLAY
100
AcDbLine
 10
411.35194082
 20
85.99284553999999
 30
0.0
 11
411.68520406
 21
86.15947716
 31
0.0
  0
LINE
  5
1C6
330
1F
100
AcDbEntity
  8
BOTTOMOVERLAY
100
AcDbLine
 10
411.68520406
 20
86.15947716
 30
0.0
 11
412.01846476
 21
86.49273785999999
 31
0.0
  0
LINE
  5
1C7
330
1F
100
AcDbEntity
  8
BOTTOMOVERLAY
100
AcDbLine
 10
412.76830324
 20
88.32567806
 30
0.0
 11
412.76830324
 21
85.99284553999999
 31
0.0
  0
LINE
  5
1C8
330
1F
100
AcDbEntity
  8
BOTTOMOVERLAY
100
AcDbLine
 10
412.76830324
 20
87.32589342
 30
0.0
 11
412.93493486
 21
87.82578574
 31
0.0
  0
LINE
  5
1C9
330
1F
100
AcDbEntity
  8
BOTTOMOVERLAY
100
AcDbLine
 10
412.93493486
 20
87.82578574
 30
0.0
 11
413.26819556
 21
88.15904898
 31
0.0
  0
LINE
  5
1CA
330
1F
100
AcDbEntity
  8
BOTTOMOVERLAY
100
AcDbLine
 10
413.26819556
 20
88.15904898
 30
0.0
 11
413.6014588
 21
88.32567806
 31
0.0
  0
LINE
  5
1CB
330
1F
100
AcDbEntity
  8
BOTTOMOVERLAY
100
AcDbLine
 10
413.6014588
 20
88.32567806
 30
0.0
 11
414.10135112
 21
88.32567806
 31
0.0
  0
LINE
  5
1CC
330
1F
100
AcDbEntity
  8
BOTTOMOVERLAY
100
AcDbLine
 10
414.41794942
 20
89.49209685999999
 30
0.0
 11
414.41794942
 21
85.99284553999999
 31
0.0
  0
LINE
  5
1CD
330
1F
100
AcDbEntity
  8
BOTTOMOVERLAY
100
AcDbLine
 10
417.1506973199999
 20
88.32567806
 30
0.0
 11
417.1506973199999
 21
85.99284553999999
 31
0.0
  0
LINE
  5
1CE
330
1F
100
AcDbEntity
  8
BOTTOMOVERLAY
100
AcDbLine
 10
417.1506973199999
 20
87.82578574
 30
0.0
 11
416.81743662
 21
88.15904898
 31
0.0
  0
LINE
  5
1CF
330
1F
100
AcDbEntity
  8
BOTTOMOVERLAY
100
AcDbLine
 10
416.81743662
 20
88.15904898
 30
0.0
 11
416.48417338
 21
88.32567806
 31
0.0
  0
LINE
  5
1D0
330
1F
100
AcDbEntity
  8
BOTTOMOVERLAY
100
AcDbLine
 10
416.48417338
 20
88.32567806
 30
0.0
 11
415.98428106
 21
88.32567806
 31
0.0
  0
LINE
  5
1D1
330
1F
100
AcDbEntity
  8
BOTTOMOVERLAY
100
AcDbLine
 10
415.98428106
 20
88.32567806
 30
0.0
 11
415.65101782
 21
88.15904898
 31
0.0
  0
LINE
  5
1D2
330
1F
100
AcDbEntity
  8
BOTTOMOVERLAY
100
AcDbLine
 10
415.65101782
 20
88.15904898
 30
0.0
 11
415.31775712
 21
87.82578574
 31
0.0
  0
LINE
  5
1D3
330
1F
100
AcDbEntity
  8
BOTTOMOVERLAY
100
AcDbLine
 10
415.31775712
 20
87.82578574
 30
0.0
 11
415.1511255
 21
87.32589342
 31
0.0
  0
LINE
  5
1D4
330
1F
100
AcDbEntity
  8
BOTTOMOVERLAY
100
AcDbLine
 10
415.1511255
 20
87.32589342
 30
0.0
 11
415.1511255
 21
86.99263017999999
 31
0.0
  0
LINE
  5
1D5
330
1F
100
AcDbEntity
  8
BOTTOMOVERLAY
100
AcDbLine
 10
415.1511255
 20
86.99263017999999
 30
0.0
 11
415.31775712
 21
86.49273785999999
 31
0.0
  0
LINE
  5
1D6
330
1F
100
AcDbEntity
  8
BOTTOMOVERLAY
100
AcDbLine
 10
415.31775712
 20
86.49273785999999
 30
0.0
 11
415.65101782
 21
86.15947716
 31
0.0
  0
LINE
  5
1D7
330
1F
100
AcDbEntity
  8
BOTTOMOVERLAY
100
AcDbLine
 10
415.65101782
 20
86.15947716
 30
0.0
 11
415.98428106
 21
85.99284553999999
 31
0.0
  0
LINE
  5
1D8
330
1F
100
AcDbEntity
  8
BOTTOMOVERLAY
100
AcDbLine
 10
415.98428106
 20
85.99284553999999
 30
0.0
 11
416.48417338
 21
85.99284553999999
 31
0.0
  0
LINE
  5
1D9
330
1F
100
AcDbEntity
  8
BOTTOMOVERLAY
100
AcDbLine
 10
416.48417338
 20
85.99284553999999
 30
0.0
 11
416.81743662
 21
86.15947716
 31
0.0
  0
LINE
  5
1DA
330
1F
100
AcDbEntity
  8
BOTTOMOVERLAY
100
AcDbLine
 10
416.81743662
 20
86.15947716
 30
0.0
 11
417.1506973199999
 21
86.49273785999999
 31
0.0
  0
LINE
  5
1DB
330
1F
100
AcDbEntity
  8
BOTTOMOVERLAY
100
AcDbLine
 10
418.25046144
 20
88.32567806
 30
0.0
 11
419.25024608
 21
85.99284553999999
 31
0.0
  0
LINE
  5
1DC
330
1F
100
AcDbEntity
  8
BOTTOMOVERLAY
100
AcDbLine
 10
420.25003326
 20
88.32567806
 30
0.0
 11
419.25024608
 21
85.99284553999999
 31
0.0
  0
LINE
  5
1DD
330
1F
100
AcDbEntity
  8
BOTTOMOVERLAY
100
AcDbLine
 10
419.25024608
 20
85.99284553999999
 30
0.0
 11
418.91698538
 21
85.3263216
 31
0.0
  0
LINE
  5
1DE
330
1F
100
AcDbEntity
  8
BOTTOMOVERLAY
100
AcDbLine
 10
418.91698538
 20
85.3263216
 30
0.0
 11
418.58372214
 21
84.99306089999999
 31
0.0
  0
LINE
  5
1DF
330
1F
100
AcDbEntity
  8
BOTTOMOVERLAY
100
AcDbLine
 10
418.58372214
 20
84.99306089999999
 30
0.0
 11
418.25046144
 21
84.82642928
 31
0.0
  0
LINE
  5
1E0
330
1F
100
AcDbEntity
  8
BOTTOMOVERLAY
100
AcDbLine
 10
418.25046144
 20
84.82642928
 30
0.0
 11
418.0838298199999
 21
84.82642928
 31
0.0
  0
LWPOLYLINE
  5
1E1
330
1F
100
AcDbEntity
  8
PADHOLELAYER
100
AcDbPolyline
 90
        2
 70
     1
 43
1.25000004
 10
445.1378448
 20
257.2416115
 42
1.0
 10
446.38784484
 20
257.2416115
 42
1.0
  0
LWPOLYLINE
  5
1E2
330
1F
100
AcDbEntity
  8
PADHOLELAYER
100
AcDbPolyline
 90
        2
 70
     1
 43
1.25000004
 10
422.13784508
 20
257.2416115
 42
1.0
 10
423.38784512
 20
257.2416115
 42
1.0
  0
LWPOLYLINE
  5
1E3
330
1F
100
AcDbEntity
  8
PADHOLELAYER
100
AcDbPolyline
 90
        2
 70
     1
 43
1.07499912
 10
412.87534392
 20
239.74161348
 42
1.0
 10
413.95034304
 20
239.74161348
 42
1.0
  0
LWPOLYLINE
  5
1E4
330
1F
100
AcDbEntity
  8
PADHOLELAYER
100
AcDbPolyline
 90
        2
 70
     1
 43
1.07499912
 10
412.87534646
 20
212.7416116
 42
1.0
 10
413.95034558
 20
212.7416116
 42
1.0
  0
LWPOLYLINE
  5
1E5
330
1F
100
AcDbEntity
  8
PADHOLELAYER
100
AcDbPolyline
 90
        2
 70
     1
 43
1.07499912
 10
454.57534434
 20
239.74161348
 42
1.0
 10
455.65034346
 20
239.74161348
 42
1.0
  0
LWPOLYLINE
  5
1E6
330
1F
100
AcDbEntity
  8
PADHOLELAYER
100
AcDbPolyline
 90
        2
 70
     1
 43
1.07499912
 10
454.57534688
 20
212.7416116
 42
1.0
 10
455.650346
 20
212.7416116
 42
1.0
  0
LWPOLYLINE
  5
1E7
330
1F
100
AcDbEntity
  8
BOTTOMPASTE
100
AcDbPolyline
 90
        2
 70
     1
 43
0.0
 10
426.33784684
 20
243.24161156
 42
1.0
 10
426.33784684
 20
243.24161156
 42
1.0
  0
TEXT
  5
1E8
330
1F
100
AcDbEntity
  8
BOTTOMOVERLAY
100
AcDbText
 10
426.63784624
 20
246.31661176
 30
0.0
 40
0.5999987999999999
  1
TP38
 50
90.0
 71
     2
100
AcDbText
  0
LWPOLYLINE
  5
1E9
330
1F
100
AcDbEntity
  8
BOTTOMPASTE
100
AcDbPolyline
 90
        2
 70
     1
 43
0.0
 10
436.66284524
 20
245.49161214
 42
1.0
 10
436.66284524
 20
245.49161214
 42
1.0
  0
TEXT
  5
1EA
330
1F
100
AcDbEntity
  8
BOTTOMOVERLAY
100
AcDbText
 10
439.01284562
 20
244.1416123
 30
0.0
 40
0.5999987999999999
  1
TP37
 71
     2
100
AcDbText
  0
LWPOLYLINE
  5
1EB
330
1F
100
AcDbEntity
  8
BOTTOMPASTE
100
AcDbPolyline
 90
        2
 70
     1
 43
0.0
 10
434.88784752
 20
245.51661082
 42
1.0
 10
434.88784752
 20
245.51661082
 42
1.0
  0
TEXT
  5
1EC
330
1F
100
AcDbEntity
  8
BOTTOMOVERLAY
100
AcDbText
 10
436.06284644
 20
244.1416123
 30
0.0
 40
0.5999987999999999
  1
TP36
 71
     2
100
AcDbText
  0
LWPOLYLINE
  5
1ED
330
1F
100
AcDbEntity
  8
BOTTOMPASTE
100
AcDbPolyline
 90
        2
 70
     1
 43
0.0
 10
434.36284476
 20
249.06661134
 42
1.0
 10
434.36284476
 20
249.06661134
 42
1.0
  0
TEXT
  5
1EE
330
1F
100
AcDbEntity
  8
BOTTOMOVERLAY
100
AcDbText
 10
435.4128452
 20
249.94161086
 30
0.0
 40
0.5999987999999999
  1
TP35
 71
     2
100
AcDbText
  0
LWPOLYLINE
  5
1EF
330
1F
100
AcDbEntity
  8
BOTTOMPASTE
100
AcDbPolyline
 90
        2
 70
     1
 43
0.0
 10
438.71284622
 20
248.54161112
 42
1.0
 10
438.71284622
 20
248.54161112
 42
1.0
  0
TEXT
  5
1F0
330
1F
100
AcDbEntity
  8
BOTTOMOVERLAY
100
AcDbText
 10
441.73784398
 20
248.2666104
 30
0.0
 40
0.5999987999999999
  1
TP34
 71
     2
100
AcDbText
  0
LWPOLYLINE
  5
1F1
330
1F
100
AcDbEntity
  8
BOTTOMPASTE
100
AcDbPolyline
 90
        2
 70
     1
 43
0.0
 10
436.31284594
 20
249.06661134
 42
1.0
 10
436.31284594
 20
249.06661134
 42
1.0
  0
TEXT
  5
1F2
330
1F
100
AcDbEntity
  8
BOTTOMOVERLAY
100
AcDbText
 10
438.81284602
 20
249.84161106
 30
0.0
 40
0.5999987999999999
  1
TP33
 71
     2
100
AcDbText
  0
LWPOLYLINE
  5
1F3
330
1F
100
AcDbEntity
  8
BOTTOMPASTE
100
AcDbPolyline
 90
        2
 70
     1
 43
0.0
 10
432.4378448
 20
249.06661134
 42
1.0
 10
432.4378448
 20
249.06661134
 42
1.0
  0
TEXT
  5
1F4
330
1F
100
AcDbEntity
  8
BOTTOMOVERLAY
100
AcDbText
 10
432.01284692
 20
249.84161106
 30
0.0
 40
0.5999987999999999
  1
TP32
 71
     2
100
AcDbText
  0
LWPOLYLINE
  5
1F5
330
1F
100
AcDbEntity
  8
BOTTOMPASTE
100
AcDbPolyline
 90
        2
 70
     1
 43
0.0
 10
425.71284682
 20
229.59161092
 42
1.0
 10
425.71284682
 20
229.59161092
 42
1.0
  0
TEXT
  5
1F6
330
1F
100
AcDbEntity
  8
BOTTOMOVERLAY
100
AcDbText
 10
428.53784498
 20
229.31661274
 30
0.0
 40
0.5999987999999999
  1
TP31
 71
     2
100
AcDbText
  0
LWPOLYLINE
  5
1F7
330
1F
100
AcDbEntity
  8
BOTTOMPASTE
100
AcDbPolyline
 90
        2
 70
     1
 43
0.0
 10
423.51284614
 20
229.34161142
 42
1.0
 10
423.51284614
 20
229.34161142
 42
1.0
  0
TEXT
  5
1F8
330
1F
100
AcDbEntity
  8
BOTTOMOVERLAY
100
AcDbText
 10
422.68784652
 20
229.09161192
 30
0.0
 40
0.5999987999999999
  1
TP30
 71
     2
100
AcDbText
  0
LWPOLYLINE
  5
1F9
330
1F
100
AcDbEntity
  8
BOTTOMPASTE
100
AcDbPolyline
 90
        2
 70
     1
 43
0.0
 10
421.9128468
 20
244.8416109
 42
1.0
 10
421.9128468
 20
244.8416109
 42
1.0
  0
TEXT
  5
1FA
330
1F
100
AcDbEntity
  8
BOTTOMOVERLAY
100
AcDbText
 10
422.18784498
 20
247.89160988
 30
0.0
 40
0.5999987999999999
  1
TP29
 50
90.0
 71
     2
100
AcDbText
  0
LWPOLYLINE
  5
1FB
330
1F
100
AcDbEntity
  8
BOTTOMPASTE
100
AcDbPolyline
 90
        2
 70
     1
 43
0.0
 10
421.93784548
 20
218.26661198
 42
1.0
 10
421.93784548
 20
218.26661198
 42
1.0
  0
TEXT
  5
1FC
330
1F
100
AcDbEntity
  8
BOTTOMOVERLAY
100
AcDbText
 10
421.11284586
 20
218.04161116
 30
0.0
 40
0.5999987999999999
  1
TP28
 71
     2
100
AcDbText
  0
LWPOLYLINE
  5
1FD
330
1F
100
AcDbEntity
  8
BOTTOMPASTE
100
AcDbPolyline
 90
        2
 70
     1
 43
0.0
 10
422.03784528
 20
243.31661268
 42
1.0
 10
422.03784528
 20
243.31661268
 42
1.0
  0
TEXT
  5
1FE
330
1F
100
AcDbEntity
  8
BOTTOMOVERLAY
100
AcDbText
 10
422.28784478
 20
242.46661184
 30
0.0
 40
0.5999987999999999
  1
TP27
 50
90.0
 71
     2
100
AcDbText
  0
LWPOLYLINE
  5
1FF
330
1F
100
AcDbEntity
  8
BOTTOMPASTE
100
AcDbPolyline
 90
        2
 70
     1
 43
0.0
 10
417.96284708
 20
243.61661208
 42
1.0
 10
417.96284708
 20
243.61661208
 42
1.0
  0
TEXT
  5
200
330
1F
100
AcDbEntity
  8
BOTTOMOVERLAY
100
AcDbText
 10
417.16284614
 20
243.49161106
 30
0.0
 40
0.5999987999999999
  1
TP26
 71
     2
100
AcDbText
  0
LWPOLYLINE
  5
201
330
1F
100
AcDbEntity
  8
BOTTOMPASTE
100
AcDbPolyline
 90
        2
 70
     1
 43
0.0
 10
446.21284646
 20
241.14161068
 42
1.0
 10
446.21284646
 20
241.14161068
 42
1.0
  0
TEXT
  5
202
330
1F
100
AcDbEntity
  8
BOTTOMOVERLAY
100
AcDbText
 10
445.43784674
 20
240.84160874
 30
0.0
 40
0.5999987999999999
  1
TP25
 71
     2
100
AcDbText
  0
LWPOLYLINE
  5
203
330
1F
100
AcDbEntity
  8
BOTTOMPASTE
100
AcDbPolyline
 90
        2
 70
     1
 43
0.0
 10
422.4628457
 20
222.84161172
 42
1.0
 10
422.4628457
 20
222.84161172
 42
1.0
  0
TEXT
  5
204
330
1F
100
AcDbEntity
  8
BOTTOMOVERLAY
100
AcDbText
 10
425.46284478
 20
222.49161242
 30
0.0
 40
0.5999987999999999
  1
TP24
 71
     2
100
AcDbText
  0
LWPOLYLINE
  5
205
330
1F
100
AcDbEntity
  8
BOTTOMPASTE
100
AcDbPolyline
 90
        2
 70
     1
 43
0.0
 10
417.03784512
 20
225.4916115
 42
1.0
 10
417.03784512
 20
225.4916115
 42
1.0
  0
TEXT
  5
206
330
1F
100
AcDbEntity
  8
BOTTOMOVERLAY
100
AcDbText
 10
416.3128453
 20
225.1416122
 30
0.0
 40
0.5999987999999999
  1
TP23
 71
     2
100
AcDbText
  0
LWPOLYLINE
  5
207
330
1F
100
AcDbEntity
  8
BOTTOMPASTE
100
AcDbPolyline
 90
        2
 70
     1
 43
0.0
 10
430.58784596
 20
240.64161168
 42
1.0
 10
430.58784596
 20
240.64161168
 42
1.0
  0
TEXT
  5
208
330
1F
100
AcDbEntity
  8
BOTTOMOVERLAY
100
AcDbText
 10
431.6378464
 20
243.46661238
 30
0.0
 40
0.5999987999999999
  1
TP22
 50
90.0
 71
     2
100
AcDbText
  0
LWPOLYLINE
  5
209
330
1F
100
AcDbEntity
  8
BOTTOMPASTE
100
AcDbPolyline
 90
        2
 70
     1
 43
0.0
 10
431.26284588
 20
238.5916107
 42
1.0
 10
431.26284588
 20
238.5916107
 42
1.0
  0
TEXT
  5
20A
330
1F
100
AcDbEntity
  8
BOTTOMOVERLAY
100
AcDbText
 10
434.03784668
 20
238.31661252
 30
0.0
 40
0.5999987999999999
  1
TP21
 71
     2
100
AcDbText
  0
LWPOLYLINE
  5
20B
330
1F
100
AcDbEntity
  8
BOTTOMPASTE
100
AcDbPolyline
 90
        2
 70
     1
 43
0.0
 10
427.38784728
 20
248.51661244
 42
1.0
 10
427.38784728
 20
248.51661244
 42
1.0
  0
TEXT
  5
20C
330
1F
100
AcDbEntity
  8
BOTTOMOVERLAY
100
AcDbText
 10
430.36284514
 20
248.2166105
 30
0.0
 40
0.5999987999999999
  1
TP20
 71
     2
100
AcDbText
  0
LWPOLYLINE
  5
20D
330
1F
100
AcDbEntity
  8
BOTTOMPASTE
100
AcDbPolyline
 90
        2
 70
     1
 43
0.0
 10
433.16284716
 20
245.56661072
 42
1.0
 10
433.16284716
 20
245.56661072
 42
1.0
  0
TEXT
  5
20E
330
1F
100
AcDbEntity
  8
BOTTOMOVERLAY
100
AcDbText
 10
432.91284512
 20
244.2416121
 30
0.0
 40
0.5999987999999999
  1
TP19
 71
     2
100
AcDbText
  0
LWPOLYLINE
  5
20F
330
1F
100
AcDbEntity
  8
BOTTOMPASTE
100
AcDbPolyline
 90
        2
 70
     1
 43
0.0
 10
427.38784728
 20
247.01661036
 42
1.0
 10
427.38784728
 20
247.01661036
 42
1.0
  0
TEXT
  5
210
330
1F
100
AcDbEntity
  8
BOTTOMOVERLAY
100
AcDbText
 10
426.63784878
 20
246.81661076
 30
0.0
 40
0.5999987999999999
  1
TP18
 71
     2
100
AcDbText
  0
LWPOLYLINE
  5
211
330
1F
100
AcDbEntity
  8
BOTTOMPASTE
100
AcDbPolyline
 90
        2
 70
     1
 43
0.0
 10
429.28784602
 20
236.26661154
 42
1.0
 10
429.28784602
 20
236.26661154
 42
1.0
  0
TEXT
  5
212
330
1F
100
AcDbEntity
  8
BOTTOMOVERLAY
100
AcDbText
 10
432.2378452
 20
235.91661224
 30
0.0
 40
0.5999987999999999
  1
TP13
 71
     2
100
AcDbText
  0
LWPOLYLINE
  5
213
330
1F
100
AcDbEntity
  8
BOTTOMPASTE
100
AcDbPolyline
 90
        2
 70
     1
 43
0.0
 10
427.16284646
 20
228.39161078
 42
1.0
 10
427.16284646
 20
228.39161078
 42
1.0
  0
TEXT
  5
214
330
1F
100
AcDbEntity
  8
BOTTOMOVERLAY
100
AcDbText
 10
429.53784552
 20
228.06661016
 30
0.0
 40
0.5999987999999999
  1
TP9
 71
     2
100
AcDbText
  0
LWPOLYLINE
  5
215
330
1F
100
AcDbEntity
  8
BOTTOMPASTE
100
AcDbPolyline
 90
        2
 70
     1
 43
0.0
 10
417.61284524
 20
233.84161258
 42
1.0
 10
417.61284524
 20
233.84161258
 42
1.0
  0
TEXT
  5
216
330
1F
100
AcDbEntity
  8
BOTTOMOVERLAY
100
AcDbText
 10
416.88784542
 20
233.64161298
 30
0.0
 40
0.5999987999999999
  1
TP8
 71
     2
100
AcDbText
  0
LWPOLYLINE
  5
217
330
1F
100
AcDbEntity
  8
BOTTOMPASTE
100
AcDbPolyline
 90
        2
 70
     1
 43
0.0
 10
432.51284592
 20
228.24161108
 42
1.0
 10
432.51284592
 20
228.24161108
 42
1.0
  0
TEXT
  5
218
330
1F
100
AcDbEntity
  8
BOTTOMOVERLAY
100
AcDbText
 10
431.71284498
 20
227.84161188
 30
0.0
 40
0.5999987999999999
  1
TP7
 71
     2
100
AcDbText
  0
LWPOLYLINE
  5
219
330
1F
100
AcDbEntity
  8
BOTTOMPASTE
100
AcDbPolyline
 90
        2
 70
     1
 43
0.0
 10
433.11284726
 20
233.44161084
 42
1.0
 10
433.11284726
 20
233.44161084
 42
1.0
  0
TEXT
  5
21A
330
1F
100
AcDbEntity
  8
BOTTOMOVERLAY
100
AcDbText
 10
433.8878469799999
 20
234.16661066
 30
0.0
 40
0.5999987999999999
  1
TP6
 71
     2
100
AcDbText
  0
LWPOLYLINE
  5
21B
330
1F
100
AcDbEntity
  8
BOTTOMPASTE
100
AcDbPolyline
 90
        2
 70
     1
 43
0.0
 10
422.38784712
 20
224.8416128
 42
1.0
 10
422.38784712
 20
224.8416128
 42
1.0
  0
TEXT
  5
21C
330
1F
100
AcDbEntity
  8
BOTTOMOVERLAY
100
AcDbText
 10
424.8878472
 20
224.5416134
 30
0.0
 40
0.5999987999999999
  1
TP5
 71
     2
100
AcDbText
  0
LWPOLYLINE
  5
21D
330
1F
100
AcDbEntity
  8
BOTTOMPASTE
100
AcDbPolyline
 90
        2
 70
     1
 43
0.0
 10
420.16284522
 20
241.7166108
 42
1.0
 10
420.16284522
 20
241.7166108
 42
1.0
  0
TEXT
  5
21E
330
1F
100
AcDbEntity
  8
BOTTOMOVERLAY
100
AcDbText
 10
419.36284428
 20
241.34161028
 30
0.0
 40
0.5999987999999999
  1
TP4
 71
     2
100
AcDbText
  0
LWPOLYLINE
  5
21F
330
1F
100
AcDbEntity
  8
BOTTOMPASTE
100
AcDbPolyline
 90
        2
 70
     1
 43
0.0
 10
425.16284538
 20
248.36661274
 42
1.0
 10
425.16284538
 20
248.36661274
 42
1.0
  0
TEXT
  5
220
330
1F
100
AcDbEntity
  8
BOTTOMOVERLAY
100
AcDbText
 10
424.31284708
 20
248.09161202
 30
0.0
 40
0.5999987999999999
  1
TP3
 71
     2
100
AcDbText
  0
LWPOLYLINE
  5
221
330
1F
100
AcDbEntity
  8
BOTTOMPASTE
100
AcDbPolyline
 90
        2
 70
     1
 43
0.0
 10
417.01284644
 20
222.64161212
 42
1.0
 10
417.01284644
 20
222.64161212
 42
1.0
  0
TEXT
  5
222
330
1F
100
AcDbEntity
  8
BOTTOMOVERLAY
100
AcDbText
 10
416.2128455
 20
222.34161272
 30
0.0
 40
0.5999987999999999
  1
TP17
 71
     2
100
AcDbText
  0
LWPOLYLINE
  5
223
330
1F
100
AcDbEntity
  8
BOTTOMPASTE
100
AcDbPolyline
 90
        2
 70
     1
 43
0.0
 10
455.01284664
 20
218.6416125
 42
1.0
 10
455.01284664
 20
218.6416125
 42
1.0
  0
TEXT
  5
224
330
1F
100
AcDbEntity
  8
BOTTOMOVERLAY
100
AcDbText
 10
454.2128457
 20
218.3416131
 30
0.0
 40
0.5999987999999999
  1
TP15
 71
     2
100
AcDbText
  0
LWPOLYLINE
  5
225
330
1F
100
AcDbEntity
  8
MECHANICAL1
100
AcDbPolyline
 90
        2
 70
     0
 43
0.0999998
 10
430.93785034
 20
209.6016128
 10
431.43784426
 20
210.10160672
  0
LWPOLYLINE
  5
226
330
1F
100
AcDbEntity
  8
MECHANICAL1
100
AcDbPolyline
 90
        2
 70
     1
 43
0.0499999
 10
430.91285166
 20
209.6016128
 42
1.0
 10
430.96284902
 20
209.6016128
 42
1.0
  0
LWPOLYLINE
  5
227
330
1F
100
AcDbEntity
  8
MECHANICAL1
100
AcDbPolyline
 90
        2
 70
     1
 43
0.0499999
 10
431.41284558
 20
210.10160672
 42
1.0
 10
431.46284294
 20
210.10160672
 42
1.0
  0
LWPOLYLINE
  5
228
330
1F
100
AcDbEntity
  8
MECHANICAL1
100
AcDbPolyline
 90
        2
 70
     0
 43
0.0999998
 10
437.08784566
 20
210.07661312
 10
437.57284342
 20
209.59161282
  0
LWPOLYLINE
  5
229
330
1F
100
AcDbEntity
  8
MECHANICAL1
100
AcDbPolyline
 90
        2
 70
     1
 43
0.0499999
 10
437.06284698
 20
210.07661312
 42
1.0
 10
437.11284434
 20
210.07661312
 42
1.0
  0
LWPOLYLINE
  5
22A
330
1F
100
AcDbEntity
  8
MECHANICAL1
100
AcDbPolyline
 90
        2
 70
     1
 43
0.0499999
 10
437.54784474
 20
209.59161282
 42
1.0
 10
437.5978421
 20
209.59161282
 42
1.0
  0
LWPOLYLINE
  5
22B
330
1F
100
AcDbEntity
  8
MECHANICAL1
100
AcDbPolyline
 90
        2
 70
     0
 43
0.0999998
 10
435.68784592
 20
209.59161282
 10
436.18784492
 20
210.09161182
  0
LWPOLYLINE
  5
22C
330
1F
100
AcDbEntity
  8
MECHANICAL1
100
AcDbPolyline
 90
        2
 70
     1
 43
0.0499999
 10
435.66284724
 20
209.59161282
 42
1.0
 10
435.7128446
 20
209.59161282
 42
1.0
  0
LWPOLYLINE
  5
22D
330
1F
100
AcDbEntity
  8
MECHANICAL1
100
AcDbPolyline
 90
        2
 70
     1
 43
0.0499999
 10
436.16284624
 20
210.09161182
 42
1.0
 10
436.2128436
 20
210.09161182
 42
1.0
  0
LWPOLYLINE
  5
22E
330
1F
100
AcDbEntity
  8
MECHANICAL1
100
AcDbPolyline
 90
        2
 70
     0
 43
0.0999998
 10
432.837844
 20
209.59161282
 10
435.68784592
 20
209.59161282
  0
LWPOLYLINE
  5
22F
330
1F
100
AcDbEntity
  8
MECHANICAL1
100
AcDbPolyline
 90
        2
 70
     1
 43
0.0499999
 10
432.81284532
 20
209.59161282
 42
1.0
 10
432.86284268
 20
209.59161282
 42
1.0
  0
LWPOLYLINE
  5
230
330
1F
100
AcDbEntity
  8
MECHANICAL1
100
AcDbPolyline
 90
        2
 70
     1
 43
0.0499999
 10
435.66284724
 20
209.59161282
 42
1.0
 10
435.7128446
 20
209.59161282
 42
1.0
  0
LWPOLYLINE
  5
231
330
1F
100
AcDbEntity
  8
MECHANICAL1
100
AcDbPolyline
 90
        2
 70
     0
 43
0.0999998
 10
437.57284342
 20
209.59161282
 10
438.8878446
 20
209.59161282
  0
LWPOLYLINE
  5
232
330
1F
100
AcDbEntity
  8
MECHANICAL1
100
AcDbPolyline
 90
        2
 70
     1
 43
0.0499999
 10
437.54784474
 20
209.59161282
 42
1.0
 10
437.5978421
 20
209.59161282
 42
1.0
  0
LWPOLYLINE
  5
233
330
1F
100
AcDbEntity
  8
MECHANICAL1
100
AcDbPolyline
 90
        2
 70
     1
 43
0.0499999
 10
438.86284592
 20
209.59161282
 42
1.0
 10
438.9128432799999
 20
209.59161282
 42
1.0
  0
LWPOLYLINE
  5
234
330
1F
100
AcDbEntity
  8
MECHANICAL1
100
AcDbPolyline
 90
        2
 70
     0
 43
0.0999998
 10
429.53784552
 20
209.59161282
 10
430.93785034
 20
209.59161282
  0
LWPOLYLINE
  5
235
330
1F
100
AcDbEntity
  8
MECHANICAL1
100
AcDbPolyline
 90
        2
 70
     1
 43
0.0499999
 10
429.51284684
 20
209.59161282
 42
1.0
 10
429.5628442
 20
209.59161282
 42
1.0
  0
LWPOLYLINE
  5
236
330
1F
100
AcDbEntity
  8
MECHANICAL1
100
AcDbPolyline
 90
        2
 70
     1
 43
0.0499999
 10
430.91285166
 20
209.59161282
 42
1.0
 10
430.96284902
 20
209.59161282
 42
1.0
  0
LWPOLYLINE
  5
237
330
1F
100
AcDbEntity
  8
MECHANICAL1
100
AcDbPolyline
 90
        2
 70
     0
 43
0.0999998
 10
436.18784492
 20
210.09161182
 10
436.18784492
 20
211.25161458
  0
LWPOLYLINE
  5
238
330
1F
100
AcDbEntity
  8
MECHANICAL1
100
AcDbPolyline
 90
        2
 70
     1
 43
0.0499999
 10
436.16284624
 20
210.09161182
 42
1.0
 10
436.2128436
 20
210.09161182
 42
1.0
  0
LWPOLYLINE
  5
239
330
1F
100
AcDbEntity
  8
MECHANICAL1
100
AcDbPolyline
 90
        2
 70
     1
 43
0.0499999
 10
436.16284624
 20
211.25161458
 42
1.0
 10
436.2128436
 20
211.25161458
 42
1.0
  0
LWPOLYLINE
  5
23A
330
1F
100
AcDbEntity
  8
MECHANICAL1
100
AcDbPolyline
 90
        2
 70
     0
 43
0.0999998
 10
437.08784566
 20
210.07661312
 10
437.08784566
 20
211.22661082
  0
LWPOLYLINE
  5
23B
330
1F
100
AcDbEntity
  8
MECHANICAL1
100
AcDbPolyline
 90
        2
 70
     1
 43
0.0499999
 10
437.06284698
 20
210.07661312
 42
1.0
 10
437.11284434
 20
210.07661312
 42
1.0
  0
LWPOLYLINE
  5
23C
330
1F
100
AcDbEntity
  8
MECHANICAL1
100
AcDbPolyline
 90
        2
 70
     1
 43
0.0499999
 10
437.06284698
 20
211.22661082
 42
1.0
 10
437.11284434
 20
211.22661082
 42
1.0
  0
LWPOLYLINE
  5
23D
330
1F
100
AcDbEntity
  8
MECHANICAL1
100
AcDbPolyline
 90
        2
 70
     0
 43
0.0999998
 10
436.6128428
 20
211.67661246
 10
436.63784402
 20
211.67661246
  0
LWPOLYLINE
  5
23E
330
1F
100
AcDbEntity
  8
MECHANICAL1
100
AcDbPolyline
 90
        2
 70
     1
 43
0.0499999
 10
436.58784412
 20
211.67661246
 42
1.0
 10
436.63784148
 20
211.67661246
 42
1.0
  0
LWPOLYLINE
  5
23F
330
1F
100
AcDbEntity
  8
MECHANICAL1
100
AcDbPolyline
 90
        2
 70
     1
 43
0.0499999
 10
436.61284534
 20
211.67661246
 42
1.0
 10
436.6628427
 20
211.67661246
 42
1.0
  0
LWPOLYLINE
  5
240
330
1F
100
AcDbEntity
  8
MECHANICAL1
100
AcDbPolyline
 90
        2
 70
     0
 43
0.0999998
 10
431.43784426
 20
210.10160672
 10
431.43784426
 20
211.22161464
  0
LWPOLYLINE
  5
241
330
1F
100
AcDbEntity
  8
MECHANICAL1
100
AcDbPolyline
 90
        2
 70
     1
 43
0.0499999
 10
431.41284558
 20
210.10160672
 42
1.0
 10
431.46284294
 20
210.10160672
 42
1.0
  0
LWPOLYLINE
  5
242
330
1F
100
AcDbEntity
  8
MECHANICAL1
100
AcDbPolyline
 90
        2
 70
     1
 43
0.0499999
 10
431.41284558
 20
211.22161464
 42
1.0
 10
431.46284294
 20
211.22161464
 42
1.0
  0
LWPOLYLINE
  5
243
330
1F
100
AcDbEntity
  8
MECHANICAL1
100
AcDbPolyline
 90
        2
 70
     0
 43
0.0999998
 10
432.337845
 20
210.0866131
 10
432.82284276
 20
209.60161534
  0
LWPOLYLINE
  5
244
330
1F
100
AcDbEntity
  8
MECHANICAL1
100
AcDbPolyline
 90
        2
 70
     1
 43
0.0499999
 10
432.3128463199999
 20
210.0866131
 42
1.0
 10
432.36284368
 20
210.0866131
 42
1.0
  0
LWPOLYLINE
  5
245
330
1F
100
AcDbEntity
  8
MECHANICAL1
100
AcDbPolyline
 90
        2
 70
     1
 43
0.0499999
 10
432.7978440799999
 20
209.60161534
 42
1.0
 10
432.84784144
 20
209.60161534
 42
1.0
  0
LWPOLYLINE
  5
246
330
1F
100
AcDbEntity
  8
MECHANICAL1
100
AcDbPolyline
 90
        2
 70
     0
 43
0.0999998
 10
432.337845
 20
210.0866131
 10
432.337845
 20
210.1016118
  0
LWPOLYLINE
  5
247
330
1F
100
AcDbEntity
  8
MECHANICAL1
100
AcDbPolyline
 90
        2
 70
     1
 43
0.0499999
 10
432.3128463199999
 20
210.0866131
 42
1.0
 10
432.36284368
 20
210.0866131
 42
1.0
  0
LWPOLYLINE
  5
248
330
1F
100
AcDbEntity
  8
MECHANICAL1
100
AcDbPolyline
 90
        2
 70
     1
 43
0.0499999
 10
432.3128463199999
 20
210.1016118
 42
1.0
 10
432.36284368
 20
210.1016118
 42
1.0
  0
LWPOLYLINE
  5
249
330
1F
100
AcDbEntity
  8
MECHANICAL1
100
AcDbPolyline
 90
        2
 70
     0
 43
0.0999998
 10
432.337845
 20
210.1016118
 10
432.337845
 20
211.21661338
  0
LWPOLYLINE
  5
24A
330
1F
100
AcDbEntity
  8
MECHANICAL1
100
AcDbPolyline
 90
        2
 70
     1
 43
0.0499999
 10
432.3128463199999
 20
210.1016118
 42
1.0
 10
432.36284368
 20
210.1016118
 42
1.0
  0
LWPOLYLINE
  5
24B
330
1F
100
AcDbEntity
  8
MECHANICAL1
100
AcDbPolyline
 90
        2
 70
     1
 43
0.0499999
 10
432.3128463199999
 20
211.21661338
 42
1.0
 10
432.36284368
 20
211.21661338
 42
1.0
  0
LWPOLYLINE
  5
24C
330
1F
100
AcDbEntity
  8
MECHANICAL1
100
AcDbPolyline
 90
        2
 70
     0
 43
0.07999984
 10
436.18784492
 20
211.22661336
 42
-0.9999999999992556
 10
437.08784312
 20
211.22661336
  0
LWPOLYLINE
  5
24D
330
1F
100
AcDbEntity
  8
MECHANICAL1
100
AcDbPolyline
 90
        2
 70
     1
 43
0.03999992
 10
436.16784496
 20
211.22661336
 42
1.0
 10
436.20784488
 20
211.22661336
 42
1.0
  0
LWPOLYLINE
  5
24E
330
1F
100
AcDbEntity
  8
MECHANICAL1
100
AcDbPolyline
 90
        2
 70
     1
 43
0.03999992
 10
437.06784316
 20
211.22661336
 42
1.0
 10
437.10784308
 20
211.22661336
 42
1.0
  0
LWPOLYLINE
  5
24F
330
1F
100
AcDbEntity
  8
MECHANICAL1
100
AcDbPolyline
 90
        2
 70
     0
 43
0.07999984
 10
431.4378468
 20
211.22661336
 42
-0.9999999999992556
 10
432.337845
 20
211.22661336
  0
LWPOLYLINE
  5
250
330
1F
100
AcDbEntity
  8
MECHANICAL1
100
AcDbPolyline
 90
        2
 70
     1
 43
0.03999992
 10
431.41784684
 20
211.22661336
 42
1.0
 10
431.45784676
 20
211.22661336
 42
1.0
  0
LWPOLYLINE
  5
251
330
1F
100
AcDbEntity
  8
MECHANICAL1
100
AcDbPolyline
 90
        2
 70
     1
 43
0.03999992
 10
432.31784504
 20
211.22661336
 42
1.0
 10
432.35784496
 20
211.22661336
 42
1.0
  0
LWPOLYLINE
  5
252
330
1F
100
AcDbEntity
  8
PADHOLELAYER
100
AcDbPolyline
 90
        4
 70
     1
 43
0.1499997
 10
437.98784386
 20
210.76661174
 10
437.98784386
 20
211.31661318
 42
-1.0
 10
438.4378455
 20
211.31661318
 10
438.4378455
 20
210.76661174
 42
-1.0
  0
LWPOLYLINE
  5
253
330
1F
100
AcDbEntity
  8
PADHOLELAYER
100
AcDbPolyline
 90
        4
 70
     1
 43
0.1499997
 10
430.08784442
 20
210.76661174
 10
430.08784442
 20
211.31661318
 42
-1.0
 10
430.53784606
 20
211.31661318
 10
430.53784606
 20
210.76661174
 42
-1.0
  0
LWPOLYLINE
  5
254
330
1F
100
AcDbEntity
  8
PADHOLELAYER
100
AcDbPolyline
 90
        2
 70
     1
 43
0.3999992
 10
446.9128476
 20
211.04161246
 42
1.0
 10
447.3128468
 20
211.04161246
 42
1.0
  0
TEXT
  5
255
330
1F
100
AcDbEntity
  8
BOTTOMOVERLAY
100
AcDbText
 10
447.2628469
 20
214.21661246
 30
0.0
 40
0.5999987999999999
  1
TP41
 50
90.0
 71
     2
100
AcDbText
  0
LWPOLYLINE
  5
256
330
1F
100
AcDbEntity
  8
PADHOLELAYER
100
AcDbPolyline
 90
        2
 70
     1
 43
0.3999992
 10
448.3628447
 20
212.69161424
 42
1.0
 10
448.7628439
 20
212.69161424
 42
1.0
  0
TEXT
  5
257
330
1F
100
AcDbEntity
  8
BOTTOMOVERLAY
100
AcDbText
 10
448.38784592
 20
216.0166114
 30
0.0
 40
0.5999987999999999
  1
TP40
 50
90.0
 71
     2
100
AcDbText
  0
LWPOLYLINE
  5
258
330
1F
100
AcDbEntity
  8
PADHOLELAYER
100
AcDbPolyline
 90
        2
 70
     1
 43
0.3999992
 10
450.01284648
 20
211.04161246
 42
1.0
 10
450.41284568
 20
211.04161246
 42
1.0
  0
TEXT
  5
259
330
1F
100
AcDbEntity
  8
BOTTOMOVERLAY
100
AcDbText
 10
450.5378467
 20
214.41661206
 30
0.0
 40
0.5999987999999999
  1
TP39
 50
90.0
 71
     2
100
AcDbText
  0
LWPOLYLINE
  5
25A
330
1F
100
AcDbEntity
  8
BOTTOMPASTE
100
AcDbPolyline
 90
        2
 70
     1
 43
0.0
 10
438.6378451
 20
246.69161228
 42
1.0
 10
438.6378451
 20
246.69161228
 42
1.0
  0
TEXT
  5
25B
330
1F
100
AcDbEntity
  8
BOTTOMOVERLAY
100
AcDbText
 10
441.6628454
 20
246.31661176
 30
0.0
 40
0.5999987999999999
  1
TP42
 71
     2
100
AcDbText
  0
LWPOLYLINE
  5
25C
330
1F
100
AcDbEntity
  8
PADHOLELAYER
100
AcDbPolyline
 90
        2
 70
     1
 43
0.3999992
 10
436.21284614
 20
217.86661278
 42
1.0
 10
436.61284534
 20
217.86661278
 42
1.0
  0
LWPOLYLINE
  5
25D
330
1F
100
AcDbEntity
  8
PADHOLELAYER
100
AcDbPolyline
 90
        2
 70
     1
 43
0.3999992
 10
445.23784714
 20
227.14161074
 42
1.0
 10
445.63784634
 20
227.14161074
 42
1.0
  0
LWPOLYLINE
  5
25E
330
1F
100
AcDbEntity
  8
BOTTOMPASTE
100
AcDbPolyline
 90
        2
 70
     1
 43
0.0
 10
444.4878461
 20
218.56661138
 42
1.0
 10
444.4878461
 20
218.56661138
 42
1.0
  0
TEXT
  5
25F
330
1F
100
AcDbEntity
  8
BOTTOMOVERLAY
100
AcDbText
 10
443.56284668
 20
218.26661198
 30
0.0
 40
0.5999987999999999
  1
TP78
 71
     2
100
AcDbText
  0
LWPOLYLINE
  5
260
330
1F
100
AcDbEntity
  8
BOTTOMPASTE
100
AcDbPolyline
 90
        2
 70
     1
 43
0.0
 10
452.06284492
 20
221.46661066
 42
1.0
 10
452.06284492
 20
221.46661066
 42
1.0
  0
TEXT
  5
261
330
1F
100
AcDbEntity
  8
BOTTOMOVERLAY
100
AcDbText
 10
451.1378455
 20
221.11661136
 30
0.0
 40
0.5999987999999999
  1
TP79
 71
     2
100
AcDbText
  0
LWPOLYLINE
  5
262
330
1F
100
AcDbEntity
  8
BOTTOMPASTE
100
AcDbPolyline
 90
        2
 70
     1
 43
0.0
 10
452.03784624
 20
223.44161052
 42
1.0
 10
452.03784624
 20
223.44161052
 42
1.0
  0
TEXT
  5
263
330
1F
100
AcDbEntity
  8
BOTTOMOVERLAY
100
AcDbText
 10
451.1378455
 20
223.14161112
 30
0.0
 40
0.5999987999999999
  1
TP80
 71
     2
100
AcDbText
  0
LWPOLYLINE
  5
264
330
1F
100
AcDbEntity
  8
BOTTOMPASTE
100
AcDbPolyline
 90
        2
 70
     1
 43
0.0
 10
438.93784704
 20
229.24161162
 42
1.0
 10
438.93784704
 20
229.24161162
 42
1.0
  0
TEXT
  5
265
330
1F
100
AcDbEntity
  8
BOTTOMOVERLAY
100
AcDbText
 10
438.16284732
 20
228.916611
 30
0.0
 40
0.5999987999999999
  1
TP81
 71
     2
100
AcDbText
  0
LWPOLYLINE
  5
266
330
1F
100
AcDbEntity
  8
BOTTOMPASTE
100
AcDbPolyline
 90
        2
 70
     1
 43
0.0
 10
449.46284504
 20
218.66661118
 42
1.0
 10
449.46284504
 20
218.66661118
 42
1.0
  0
TEXT
  5
267
330
1F
100
AcDbEntity
  8
BOTTOMOVERLAY
100
AcDbText
 10
448.56284684
 20
218.26660944
 30
0.0
 40
0.5999987999999999
  1
TP82
 71
     2
100
AcDbText
  0
LWPOLYLINE
  5
268
330
1F
100
AcDbEntity
  8
BOTTOMPASTE
100
AcDbPolyline
 90
        2
 70
     1
 43
0.0
 10
436.03784522
 20
236.06661194
 42
1.0
 10
436.03784522
 20
236.06661194
 42
1.0
  0
TEXT
  5
269
330
1F
100
AcDbEntity
  8
BOTTOMOVERLAY
100
AcDbText
 10
437.13784556
 20
236.76661054
 30
0.0
 40
0.5999987999999999
  1
TP84
 71
     2
100
AcDbText
  0
LWPOLYLINE
  5
26A
330
1F
100
AcDbEntity
  8
PADHOLELAYER
100
AcDbPolyline
 90
        2
 70
     1
 43
0.3999992
 10
448.36284724
 20
240.61661046
 42
1.0
 10
448.76284644
 20
240.61661046
 42
1.0
  0
LWPOLYLINE
  5
26B
330
1F
100
AcDbEntity
  8
PADHOLELAYER
100
AcDbPolyline
 90
        2
 70
     1
 43
0.3999992
 10
424.2128472799999
 20
227.24161054
 42
1.0
 10
424.61284648
 20
227.24161054
 42
1.0
  0
LWPOLYLINE
  5
26C
330
1F
100
AcDbEntity
  8
BOTTOMPASTE
100
AcDbPolyline
 90
        2
 70
     1
 43
0.0
 10
424.58784526
 20
218.51661148
 42
1.0
 10
424.58784526
 20
218.51661148
 42
1.0
  0
TEXT
  5
26D
330
1F
100
AcDbEntity
  8
BOTTOMOVERLAY
100
AcDbText
 10
427.33784484
 20
218.16661218
 30
0.0
 40
0.5999987999999999
  1
TP11
 71
     2
100
AcDbText
  0
LWPOLYLINE
  5
26E
330
1F
100
AcDbEntity
  8
BOTTOMPASTE
100
AcDbPolyline
 90
        2
 70
     1
 43
0.0
 10
454.1378471199999
 20
249.71661258
 42
1.0
 10
454.1378471199999
 20
249.71661258
 42
1.0
  0
TEXT
  5
26F
330
1F
100
AcDbEntity
  8
BOTTOMOVERLAY
100
AcDbText
 10
453.28784628
 20
249.51661298
 30
0.0
 40
0.5999987999999999
  1
TP12
 71
     2
100
AcDbText
  0
LWPOLYLINE
  5
270
330
1F
100
AcDbEntity
  8
BOTTOMPASTE
100
AcDbPolyline
 90
        2
 70
     1
 43
0.0
 10
415.1128451599999
 20
250.61661078
 42
1.0
 10
415.1128451599999
 20
250.61661078
 42
1.0
  0
TEXT
  5
271
330
1F
100
AcDbEntity
  8
BOTTOMOVERLAY
100
AcDbText
 10
418.31284638
 20
250.34161006
 30
0.0
 40
0.5999987999999999
  1
TP14
 71
     2
100
AcDbText
  0
LWPOLYLINE
  5
272
330
1F
100
AcDbEntity
  8
BOTTOMPASTE
100
AcDbPolyline
 90
        2
 70
     1
 43
0.0
 10
445.83784594
 20
248.49161122
 42
1.0
 10
445.83784594
 20
248.49161122
 42
1.0
  0
TEXT
  5
273
330
1F
100
AcDbEntity
  8
BOTTOMOVERLAY
100
AcDbText
 10
448.71284654
 20
248.2166105
 30
0.0
 40
0.5999987999999999
  1
TP16
 71
     2
100
AcDbText
  0
LWPOLYLINE
  5
274
330
1F
100
AcDbEntity
  8
PADHOLELAYER
100
AcDbPolyline
 90
        2
 70
     1
 43
0.3999992
 10
444.2878465
 20
236.89161156
 42
1.0
 10
444.6878457
 20
236.89161156
 42
1.0
  0
LWPOLYLINE
  5
275
330
1F
100
AcDbEntity
  8
BOTTOMPASTE
100
AcDbPolyline
 90
        2
 70
     1
 43
0.0
 10
420.68784544
 20
236.79161176
 42
1.0
 10
420.68784544
 20
236.79161176
 42
1.0
  0
TEXT
  5
276
330
1F
100
AcDbEntity
  8
BOTTOMOVERLAY
100
AcDbText
 10
419.81284592
 20
236.54161226
 30
0.0
 40
0.5999987999999999
  1
TP2
 71
     2
100
AcDbText
  0
LWPOLYLINE
  5
277
330
1F
100
AcDbEntity
  8
BOTTOMPASTE
100
AcDbPolyline
 90
        2
 70
     1
 43
0.0
 10
420.71284666
 20
238.71661172
 42
1.0
 10
420.71284666
 20
238.71661172
 42
1.0
  0
TEXT
  5
278
330
1F
100
AcDbEntity
  8
BOTTOMOVERLAY
100
AcDbText
 10
419.98784684
 20
238.41660978
 30
0.0
 40
0.5999987999999999
  1
TP43
 71
     2
100
AcDbText
  0
LWPOLYLINE
  5
279
330
1F
100
AcDbEntity
  8
BOTTOMPASTE
100
AcDbPolyline
 90
        2
 70
     1
 43
0.0
 10
423.71284574
 20
221.24161238
 42
1.0
 10
423.71284574
 20
221.24161238
 42
1.0
  0
TEXT
  5
27A
330
1F
100
AcDbEntity
  8
BOTTOMOVERLAY
100
AcDbText
 10
426.91284696
 20
220.94161044
 30
0.0
 40
0.5999987999999999
  1
TP44
 71
     2
100
AcDbText
  0
LWPOLYLINE
  5
27B
330
1F
100
AcDbEntity
  8
BOTTOMPASTE
100
AcDbPolyline
 90
        2
 70
     1
 43
0.0
 10
427.48784708
 20
237.8916121
 42
1.0
 10
427.48784708
 20
237.8916121
 42
1.0
  0
TEXT
  5
27C
330
1F
100
AcDbEntity
  8
BOTTOMOVERLAY
100
AcDbText
 10
427.81284516
 20
240.89161118
 30
0.0
 40
0.5999987999999999
  1
TP45
 50
90.0
 71
     2
100
AcDbText
  0
LWPOLYLINE
  5
27D
330
1F
100
AcDbEntity
  8
BOTTOMPASTE
100
AcDbPolyline
 90
        2
 70
     1
 43
0.0
 10
428.01284476
 20
243.24161156
 42
1.0
 10
428.01284476
 20
243.24161156
 42
1.0
  0
TEXT
  5
27E
330
1F
100
AcDbEntity
  8
BOTTOMOVERLAY
100
AcDbText
 10
428.2128469
 20
246.29161054
 30
0.0
 40
0.5999987999999999
  1
TP46
 50
90.0
 71
     2
100
AcDbText
  0
LWPOLYLINE
  5
27F
330
1F
100
AcDbEntity
  8
BOTTOMPASTE
100
AcDbPolyline
 90
        2
 70
     1
 43
0.0
 10
429.2628448
 20
237.8916121
 42
1.0
 10
429.2628448
 20
237.8916121
 42
1.0
  0
TEXT
  5
280
330
1F
100
AcDbEntity
  8
BOTTOMOVERLAY
100
AcDbText
 10
432.21284652
 20
236.94161146
 30
0.0
 40
0.5999987999999999
  1
TP47
 71
     2
100
AcDbText
  0
LWPOLYLINE
  5
281
330
1F
100
AcDbEntity
  8
BOTTOMPASTE
100
AcDbPolyline
 90
        2
 70
     1
 43
0.0
 10
429.78784502
 20
243.24161156
 42
1.0
 10
429.78784502
 20
243.24161156
 42
1.0
  0
TEXT
  5
282
330
1F
100
AcDbEntity
  8
BOTTOMOVERLAY
100
AcDbText
 10
430.11284564
 20
246.19161074
 30
0.0
 40
0.5999987999999999
  1
TP48
 50
90.0
 71
     2
100
AcDbText
  0
LWPOLYLINE
  5
283
330
1F
100
AcDbEntity
  8
BOTTOMPASTE
100
AcDbPolyline
 90
        2
 70
     1
 43
0.0
 10
429.2628448
 20
239.41661286
 42
1.0
 10
429.2628448
 20
239.41661286
 42
1.0
  0
TEXT
  5
284
330
1F
100
AcDbEntity
  8
BOTTOMOVERLAY
100
AcDbText
 10
429.46284694
 20
242.39161326
 30
0.0
 40
0.5999987999999999
  1
TP49
 50
90.0
 71
     2
100
AcDbText
  0
LWPOLYLINE
  5
285
330
1F
100
AcDbEntity
  8
BOTTOMPASTE
100
AcDbPolyline
 90
        2
 70
     1
 43
0.0
 10
415.1128451599999
 20
257.5416109
 42
1.0
 10
415.1128451599999
 20
257.5416109
 42
1.0
  0
TEXT
  5
286
330
1F
100
AcDbEntity
  8
BOTTOMOVERLAY
100
AcDbText
 10
418.31284638
 20
257.3416113
 30
0.0
 40
0.5999987999999999
  1
TP50
 71
     2
100
AcDbText
  0
LWPOLYLINE
  5
287
330
1F
100
AcDbEntity
  8
BOTTOMPASTE
100
AcDbPolyline
 90
        2
 70
     1
 43
0.0
 10
415.1128451599999
 20
255.94161156
 42
1.0
 10
415.1128451599999
 20
255.94161156
 42
1.0
  0
TEXT
  5
288
330
1F
100
AcDbEntity
  8
BOTTOMOVERLAY
100
AcDbText
 10
418.31284638
 20
255.64161216
 30
0.0
 40
0.5999987999999999
  1
TP51
 71
     2
100
AcDbText
  0
LWPOLYLINE
  5
289
330
1F
100
AcDbEntity
  8
BOTTOMPASTE
100
AcDbPolyline
 90
        2
 70
     1
 43
0.0
 10
415.1128451599999
 20
254.34161222
 42
1.0
 10
415.1128451599999
 20
254.34161222
 42
1.0
  0
TEXT
  5
28A
330
1F
100
AcDbEntity
  8
BOTTOMOVERLAY
100
AcDbText
 10
418.31284638
 20
254.04161282
 30
0.0
 40
0.5999987999999999
  1
TP52
 71
     2
100
AcDbText
  0
LWPOLYLINE
  5
28B
330
1F
100
AcDbEntity
  8
BOTTOMPASTE
100
AcDbPolyline
 90
        2
 70
     1
 43
0.0
 10
415.1128451599999
 20
252.44161094
 42
1.0
 10
415.1128451599999
 20
252.44161094
 42
1.0
  0
TEXT
  5
28C
330
1F
100
AcDbEntity
  8
BOTTOMOVERLAY
100
AcDbText
 10
418.31284638
 20
252.14161154
 30
0.0
 40
0.5999987999999999
  1
TP53
 71
     2
100
AcDbText
  0
LWPOLYLINE
  5
28D
330
1F
100
AcDbEntity
  8
BOTTOMPASTE
100
AcDbPolyline
 90
        2
 70
     1
 43
0.0
 10
451.73784684
 20
241.0166122
 42
1.0
 10
451.73784684
 20
241.0166122
 42
1.0
  0
TEXT
  5
28E
330
1F
100
AcDbEntity
  8
BOTTOMOVERLAY
100
AcDbText
 10
452.76284606
 20
241.99161152
 30
0.0
 40
0.5999987999999999
  1
TP54
 71
     2
100
AcDbText
  0
LWPOLYLINE
  5
28F
330
1F
100
AcDbEntity
  8
BOTTOMPASTE
100
AcDbPolyline
 90
        2
 70
     1
 43
0.0
 10
454.1378471199999
 20
251.81661092
 42
1.0
 10
454.1378471199999
 20
251.81661092
 42
1.0
  0
TEXT
  5
290
330
1F
100
AcDbEntity
  8
BOTTOMOVERLAY
100
AcDbText
 10
453.28784628
 20
251.54161274
 30
0.0
 40
0.5999987999999999
  1
TP55
 71
     2
100
AcDbText
  0
LWPOLYLINE
  5
291
330
1F
100
AcDbEntity
  8
BOTTOMPASTE
100
AcDbPolyline
 90
        2
 70
     1
 43
0.0
 10
423.81284554
 20
243.06661064
 42
1.0
 10
423.81284554
 20
243.06661064
 42
1.0
  0
TEXT
  5
292
330
1F
100
AcDbEntity
  8
BOTTOMOVERLAY
100
AcDbText
 10
424.16284484
 20
246.04161104
 30
0.0
 40
0.5999987999999999
  1
TP56
 50
90.0
 71
     2
100
AcDbText
  0
LWPOLYLINE
  5
293
330
1F
100
AcDbEntity
  8
BOTTOMPASTE
100
AcDbPolyline
 90
        2
 70
     1
 43
0.0
 10
454.1378471199999
 20
255.64161216
 42
1.0
 10
454.1378471199999
 20
255.64161216
 42
1.0
  0
TEXT
  5
294
330
1F
100
AcDbEntity
  8
BOTTOMOVERLAY
100
AcDbText
 10
453.28784628
 20
255.36661144
 30
0.0
 40
0.5999987999999999
  1
TP57
 71
     2
100
AcDbText
  0
LWPOLYLINE
  5
295
330
1F
100
AcDbEntity
  8
BOTTOMPASTE
100
AcDbPolyline
 90
        2
 70
     1
 43
0.0
 10
454.1378471199999
 20
257.51661222
 42
1.0
 10
454.1378471199999
 20
257.51661222
 42
1.0
  0
TEXT
  5
296
330
1F
100
AcDbEntity
  8
BOTTOMOVERLAY
100
AcDbText
 10
453.28784628
 20
257.2916114
 30
0.0
 40
0.5999987999999999
  1
TP58
 71
     2
100
AcDbText
  0
LWPOLYLINE
  5
297
330
1F
100
AcDbEntity
  8
BOTTOMPASTE
100
AcDbPolyline
 90
        2
 70
     1
 43
0.0
 10
454.1378471199999
 20
253.8666119
 42
1.0
 10
454.1378471199999
 20
253.8666119
 42
1.0
  0
TEXT
  5
298
330
1F
100
AcDbEntity
  8
BOTTOMOVERLAY
100
AcDbText
 10
453.28784628
 20
253.49161138
 30
0.0
 40
0.5999987999999999
  1
TP59
 71
     2
100
AcDbText
  0
LWPOLYLINE
  5
299
330
1F
100
AcDbEntity
  8
BOTTOMPASTE
100
AcDbPolyline
 90
        2
 70
     1
 43
0.0
 10
419.71284612
 20
244.1416123
 42
1.0
 10
419.71284612
 20
244.1416123
 42
1.0
  0
TEXT
  5
29A
330
1F
100
AcDbEntity
  8
BOTTOMOVERLAY
100
AcDbText
 10
419.91284572
 20
247.1666126
 30
0.0
 40
0.5999987999999999
  1
TP60
 50
90.0
 71
     2
100
AcDbText
  0
LWPOLYLINE
  5
29B
330
1F
100
AcDbEntity
  8
BOTTOMPASTE
100
AcDbPolyline
 90
        2
 70
     1
 43
0.0
 10
425.5878458
 20
240.21661126
 42
1.0
 10
425.5878458
 20
240.21661126
 42
1.0
  0
TEXT
  5
29C
330
1F
100
AcDbEntity
  8
BOTTOMOVERLAY
100
AcDbText
 10
424.81284608
 20
239.91661186
 30
0.0
 40
0.5999987999999999
  1
TP61
 71
     2
100
AcDbText
  0
LWPOLYLINE
  5
29D
330
1F
100
AcDbEntity
  8
BOTTOMPASTE
100
AcDbPolyline
 90
        2
 70
     1
 43
0.0
 10
429.83784492
 20
231.11661168
 42
1.0
 10
429.83784492
 20
231.11661168
 42
1.0
  0
TEXT
  5
29E
330
1F
100
AcDbEntity
  8
BOTTOMOVERLAY
100
AcDbText
 10
429.96284594
 20
234.19161188
 30
0.0
 40
0.5999987999999999
  1
TP62
 50
90.0
 71
     2
100
AcDbText
  0
LWPOLYLINE
  5
29F
330
1F
100
AcDbEntity
  8
BOTTOMPASTE
100
AcDbPolyline
 90
        2
 70
     1
 43
0.0
 10
451.76284552
 20
238.441611
 42
1.0
 10
451.76284552
 20
238.441611
 42
1.0
  0
TEXT
  5
2A0
330
1F
100
AcDbEntity
  8
BOTTOMOVERLAY
100
AcDbText
 10
452.86284586
 20
236.96661268
 30
0.0
 40
0.5999987999999999
  1
TP10
 71
     2
100
AcDbText
  0
LWPOLYLINE
  5
2A1
330
1F
100
AcDbEntity
  8
PADHOLELAYER
100
AcDbPolyline
 90
        2
 70
     1
 43
0.499999
 10
419.3228469
 20
214.64161034
 42
1.0
 10
419.8228459
 20
214.64161034
 42
1.0
  0
LWPOLYLINE
  5
2A2
330
1F
100
AcDbEntity
  8
PADHOLELAYER
100
AcDbPolyline
 90
        2
 70
     1
 43
0.499999
 10
421.8628469
 20
214.64161034
 42
1.0
 10
422.3628459
 20
214.64161034
 42
1.0
  0
LWPOLYLINE
  5
2A3
330
1F
100
AcDbEntity
  8
PADHOLELAYER
100
AcDbPolyline
 90
        2
 70
     1
 43
0.499999
 10
424.4028469
 20
214.64161034
 42
1.0
 10
424.9028459
 20
214.64161034
 42
1.0
  0
ENDSEC
  0
SECTION
  2
OBJECTS
  0
DICTIONARY
  5
C
330
0
100
AcDbDictionary
  3
ACAD_GROUP
350
D
  3
ACAD_LAYOUT
350
1A
  3
ACAD_MATERIAL
350
43
  3
ACAD_MLEADERSTYLE
350
2C7
  3
ACAD_MLINESTYLE
350
17
  3
ACAD_PLOTSETTINGS
350
19
  3
ACAD_SCALELIST
350
47
  3
ACAD_VISUALSTYLE
350
2A
  3
ACDBHEADERROUNDTRIPXREC
350
2A4
  3
ACDBVARIABLEDICTIONARY
350
2C5
  0
DICTIONARY
  5
2CE
330
8
100
AcDbDictionary
280
     1
  3
ACAD_XREC_ROUNDTRIP
360
2CF
  0
DICTIONARY
  5
D
102
{ACAD_REACTORS
330
C
102
}
330
C
100
AcDbDictionary
  0
DICTIONARY
  5
1A
102
{ACAD_REACTORS
330
C
102
}
330
C
100
AcDbDictionary
  0
DICTIONARY
  5
43
102
{ACAD_REACTORS
330
C
102
}
330
C
100
AcDbDictionary
  3
BYBLOCK
350
45
  3
BYLAYER
350
44
  3
GLOBAL
350
46
  0
DICTIONARY
  5
2C7
102
{ACAD_REACTORS
330
C
102
}
330
C
100
AcDbDictionary
  0
DICTIONARY
  5
17
102
{ACAD_REACTORS
330
C
102
}
330
C
100
AcDbDictionary
  3
STANDARD
350
18
  0
DICTIONARY
  5
19
102
{ACAD_REACTORS
330
C
102
}
330
C
100
AcDbDictionary
  0
DICTIONARY
  5
47
102
{ACAD_REACTORS
330
C
102
}
330
C
100
AcDbDictionary
  3
A0
350
48
  3
A1
350
49
  3
A2
350
4A
  3
A3
350
4B
  3
A4
350
4C
  3
A5
350
4D
  3
A6
350
4E
  3
A7
350
4F
  3
A8
350
50
  3
A9
350
51
  3
B0
350
52
  3
B1
350
53
  3
B2
350
54
  3
B3
350
55
  3
B4
350
56
  3
B5
350
57
  3
B6
350
58
  3
B7
350
59
  3
B8
350
5A
  3
B9
350
5B
  3
C0
350
5C
  3
C1
350
5D
  3
C2
350
5E
  3
C3
350
5F
  3
C4
350
60
  3
C5
350
61
  3
C6
350
62
  3
C7
350
63
  3
C8
350
64
  3
C9
350
65
  3
D0
350
66
  3
D1
350
67
  3
D2
350
68
  0
DICTIONARY
  5
2A
102
{ACAD_REACTORS
330
C
102
}
330
C
100
AcDbDictionary
  3
2DWIREFRAME
350
2F
  3
BASIC
350
32
  3
BRIGHTEN
350
36
  3
COLORCHANGE
350
3A
  3
CONCEPTUAL
350
34
  3
DIM
350
35
  3
EDGECOLOROFF
350
3D
  3
FACEPATTERN
350
39
  3
FLAT
350
2B
  3
FLATWITHEDGES
350
2C
  3
GOURAUD
350
2D
  3
GOURAUDWITHEDGES
350
2E
  3
HIDDEN
350
31
  3
JITTEROFF
350
3B
  3
LINEPATTERN
350
38
  3
OVERHANGOFF
350
3C
  3
REALISTIC
350
33
  3
SHADED
350
42
  3
SHADED_WITH_EDGES
350
41
  3
SHADES_OF_GRAY
350
3E
  3
SKETCHY
350
3F
  3
THICKEN
350
37
  3
WIREFRAME
350
30
  3
X-RAY
350
40
  0
DICTIONARY
  5
2A4
102
{ACAD_REACTORS
330
C
102
}
330
C
100
AcDbDictionary
  3
CEPSNID
350
2AE
  3
CEPSNTYPE
350
2AD
  3
DIMSTYLEDATA
350
2C4
  3
FINGERPRINTGUID
350
2AF
  3
HYPERLINKBASE
350
2A7
  3
INSUNITS
350
2AC
  3
LAYOUTDICT
350
2A9
  3
LWETCUNION
350
2AB
  3
PLOTSETDICT
350
2AA
  3
PSVPSCALE
350
2B1
  3
PUCSBASE
350
2B4
  3
PUCSORGBACK
350
2BA
  3
PUCSORGBOTTOM
350
2B6
  3
PUCSORGFRONT
350
2B9
  3
PUCSORGLEFT
350
2B7
  3
PUCSORGRIGHT
350
2B8
  3
PUCSORGTOP
350
2B5
  3
PUCSORTHOREF
350
2B2
  3
PUCSORTHOVIEW
350
2B3
  3
STYLESHEET
350
2A8
  3
TSTACKALIGN
350
2A5
  3
TSTACKSIZE
350
2A6
  3
UCSBASE
350
2BD
  3
UCSORGBACK
350
2C3
  3
UCSORGBOTTOM
350
2BF
  3
UCSORGFRONT
350
2C2
  3
UCSORGLEFT
350
2C0
  3
UCSORGRIGHT
350
2C1
  3
UCSORGTOP
350
2BE
  3
UCSORTHOREF
350
2BB
  3
UCSORTHOVIEW
350
2BC
  3
VERSIONGUID
350
2B0
  0
DICTIONARY
  5
2C5
102
{ACAD_REACTORS
330
C
102
}
330
C
100
AcDbDictionary
  3
CANNOSCALE
350
2D0
  3
DIMASSOC
350
2CC
  3
HIDETEXT
350
2CD
  3
MSLTSCALE
350
2D1
  3
PSOLHEIGHT
350
2C9
  3
PSOLWIDTH
350
2C8
  0
XRECORD
  5
2CF
102
{ACAD_REACTORS
330
2CE
102
}
330
2CE
100
AcDbXrecord
102
VTR_0.000_0.000_1.000_1.000_GRIDDISPLAY
 70
     3
102
VTR_0.000_0.000_1.000_1.000_GRIDMAJOR
 70
     5
102
VTR_0.000_0.000_1.000_1.000_DEFAULTLIGHTING
280
     1
102
VTR_0.000_0.000_1.000_1.000_DEFAULTLIGHTINGTYPE
 70
     1
102
VTR_0.000_0.000_1.000_1.000_BRIGHTNESS
141
0.0
102
VTR_0.000_0.000_1.000_1.000_CONTRAST
142
0.0
  0
MATERIAL
  5
45
102
{ACAD_REACTORS
330
43
102
}
102
{ACAD_XDICTIONARY
360
2D4
102
}
330
43
100
AcDbMaterial
  1
BYBLOCK
  0
MATERIAL
  5
44
102
{ACAD_REACTORS
330
43
102
}
102
{ACAD_XDICTIONARY
360
2D2
102
}
330
43
100
AcDbMaterial
  1
BYLAYER
  0
MATERIAL
  5
46
102
{ACAD_REACTORS
330
43
102
}
102
{ACAD_XDICTIONARY
360
2D6
102
}
330
43
100
AcDbMaterial
  1
GLOBAL
  0
MLINESTYLE
  5
18
102
{ACAD_REACTORS
330
17
102
}
330
17
100
AcDbMlineStyle
  2
Standard
 70
     0
  3

 62
   256
 51
90.0
 52
90.0
 71
     2
 49
0.5
 62
   256
  6
BYLAYER
 49
-0.5
 62
   256
  6
BYLAYER
  0
ACAD_PROXY_OBJECT
  5
48
102
{ACAD_REACTORS
330
47
102
}
330
47
100
AcDbProxyObject
 90
      499
 91
      503
 93
       41
310
903313A31580
  0
ACAD_PROXY_OBJECT
  5
49
102
{ACAD_REACTORS
330
47
102
}
330
47
100
AcDbProxyObject
 90
      499
 91
      503
 93
      105
310
903313A324000000000000004000
  0
ACAD_PROXY_OBJECT
  5
4A
102
{ACAD_REACTORS
330
47
102
}
330
47
100
AcDbProxyObject
 90
      499
 91
      503
 93
      105
310
903313A344000000000000104000
  0
ACAD_PROXY_OBJECT
  5
4B
102
{ACAD_REACTORS
330
47
102
}
330
47
100
AcDbProxyObject
 90
      499
 91
      503
 93
      105
310
903313A354000000000000144000
  0
ACAD_PROXY_OBJECT
  5
4C
102
{ACAD_REACTORS
330
47
102
}
330
47
100
AcDbProxyObject
 90
      499
 91
      503
 93
      105
310
903313A384000000000000204000
  0
ACAD_PROXY_OBJECT
  5
4D
102
{ACAD_REACTORS
330
47
102
}
330
47
100
AcDbProxyObject
 90
      499
 91
      503
 93
      113
310
904313A31304000000000000244000
  0
ACAD_PROXY_OBJECT
  5
4E
102
{ACAD_REACTORS
330
47
102
}
330
47
100
AcDbProxyObject
 90
      499
 91
      503
 93
      113
310
904313A31364000000000000304000
  0
ACAD_PROXY_OBJECT
  5
4F
102
{ACAD_REACTORS
330
47
102
}
330
47
100
AcDbProxyObject
 90
      499
 91
      503
 93
      113
310
904313A32304000000000000344000
  0
ACAD_PROXY_OBJECT
  5
50
102
{ACAD_REACTORS
330
47
102
}
330
47
100
AcDbProxyObject
 90
      499
 91
      503
 93
      113
310
904313A333040000000000003E4000
  0
ACAD_PROXY_OBJECT
  5
51
102
{ACAD_REACTORS
330
47
102
}
330
47
100
AcDbProxyObject
 90
      499
 91
      503
 93
      113
310
904313A34304000000000000444000
  0
ACAD_PROXY_OBJECT
  5
52
102
{ACAD_REACTORS
330
47
102
}
330
47
100
AcDbProxyObject
 90
      499
 91
      503
 93
      113
310
904313A35304000000000000494000
  0
ACAD_PROXY_OBJECT
  5
53
102
{ACAD_REACTORS
330
47
102
}
330
47
100
AcDbProxyObject
 90
      499
 91
      503
 93
      121
310
905313A3130304000000000000594000
  0
ACAD_PROXY_OBJECT
  5
54
102
{ACAD_REACTORS
330
47
102
}
330
47
100
AcDbProxyObject
 90
      499
 91
      503
 93
      105
310
903323A310000000000000010100
  0
ACAD_PROXY_OBJECT
  5
55
102
{ACAD_REACTORS
330
47
102
}
330
47
100
AcDbProxyObject
 90
      499
 91
      503
 93
      105
310
903343A310000000000000410100
  0
ACAD_PROXY_OBJECT
  5
56
102
{ACAD_REACTORS
330
47
102
}
330
47
100
AcDbProxyObject
 90
      499
 91
      503
 93
      105
310
903383A310000000000000810100
  0
ACAD_PROXY_OBJECT
  5
57
102
{ACAD_REACTORS
330
47
102
}
330
47
100
AcDbProxyObject
 90
      499
 91
      503
 93
      113
310
90431303A310000000000000910100
  0
ACAD_PROXY_OBJECT
  5
58
102
{ACAD_REACTORS
330
47
102
}
330
47
100
AcDbProxyObject
 90
      499
 91
      503
 93
      121
310
9053130303A310000000000001650100
  0
ACAD_PROXY_OBJECT
  5
59
102
{ACAD_REACTORS
330
47
102
}
330
47
100
AcDbProxyObject
 90
      499
 91
      503
 93
      257
310
90E312F31323822203D2031272D3022000000000000200FC000000000000284000
  0
ACAD_PROXY_OBJECT
  5
5A
102
{ACAD_REACTORS
330
47
102
}
330
47
100
AcDbProxyObject
 90
      499
 91
      503
 93
      249
310
90D312F363422203D2031272D3022000000000000240FC000000000000284000
  0
ACAD_PROXY_OBJECT
  5
5B
102
{ACAD_REACTORS
330
47
102
}
330
47
100
AcDbProxyObject
 90
      499
 91
      503
 93
      249
310
90D312F333222203D2031272D3022000000000000280FC000000000000284000
  0
ACAD_PROXY_OBJECT
  5
5C
102
{ACAD_REACTORS
330
47
102
}
330
47
100
AcDbProxyObject
 90
      499
 91
      503
 93
      249
310
90D312F313622203D2031272D30220000000000002C0FC000000000000284000
  0
ACAD_PROXY_OBJECT
  5
5D
102
{ACAD_REACTORS
330
47
102
}
330
47
100
AcDbProxyObject
 90
      499
 91
      503
 93
      249
310
90D332F333222203D2031272D30220000000000002E0FC000000000000284000
  0
ACAD_PROXY_OBJECT
  5
5E
102
{ACAD_REACTORS
330
47
102
}
330
47
100
AcDbProxyObject
 90
      499
 91
      503
 93
      241
310
90C312F3822203D2031272D3022000000000000300FC000000000000284000
  0
ACAD_PROXY_OBJECT
  5
5F
102
{ACAD_REACTORS
330
47
102
}
330
47
100
AcDbProxyObject
 90
      499
 91
      503
 93
      249
310
90D332F313622203D2031272D3022000000000000320FC000000000000284000
  0
ACAD_PROXY_OBJECT
  5
60
102
{ACAD_REACTORS
330
47
102
}
330
47
100
AcDbProxyObject
 90
      499
 91
      503
 93
      241
310
90C312F3422203D2031272D3022000000000000340FC000000000000284000
  0
ACAD_PROXY_OBJECT
  5
61
102
{ACAD_REACTORS
330
47
102
}
330
47
100
AcDbProxyObject
 90
      499
 91
      503
 93
      241
310
90C332F3822203D2031272D3022000000000000360FC000000000000284000
  0
ACAD_PROXY_OBJECT
  5
62
102
{ACAD_REACTORS
330
47
102
}
330
47
100
AcDbProxyObject
 90
      499
 91
      503
 93
      241
310
90C312F3222203D2031272D3022000000000000380FC000000000000284000
  0
ACAD_PROXY_OBJECT
  5
63
102
{ACAD_REACTORS
330
47
102
}
330
47
100
AcDbProxyObject
 90
      499
 91
      503
 93
      241
310
90C332F3422203D2031272D30220000000000003A0FC000000000000284000
  0
ACAD_PROXY_OBJECT
  5
64
102
{ACAD_REACTORS
330
47
102
}
330
47
100
AcDbProxyObject
 90
      499
 91
      503
 93
      161
310
90A3122203D2031272D30224000000000000284000
  0
ACAD_PROXY_OBJECT
  5
65
102
{ACAD_REACTORS
330
47
102
}
330
47
100
AcDbProxyObject
 90
      499
 91
      503
 93
      257
310
90E312D312F3222203D2031272D30220000000000003E0FC000000000000284000
  0
ACAD_PROXY_OBJECT
  5
66
102
{ACAD_REACTORS
330
47
102
}
330
47
100
AcDbProxyObject
 90
      499
 91
      503
 93
      225
310
90A3322203D2031272D302200000000000002100000000000000284000
  0
ACAD_PROXY_OBJECT
  5
67
102
{ACAD_REACTORS
330
47
102
}
330
47
100
AcDbProxyObject
 90
      499
 91
      503
 93
      225
310
90A3622203D2031272D302200000000000006100000000000000284000
  0
ACAD_PROXY_OBJECT
  5
68
102
{ACAD_REACTORS
330
47
102
}
330
47
100
AcDbProxyObject
 90
      499
 91
      503
 93
      249
310
90D31272D3022203D2031272D30220000000000000A100000000000000284000
  0
ACAD_PROXY_OBJECT
  5
2F
102
{ACAD_REACTORS
330
2A
102
}
330
2A
100
AcDbProxyObject
 90
      499
 91
      501
 93
      436
310
42CC9915DA5C99599C985B595049028333333333333E33F0000000000000F90107901411070040501600405405064090741402480A0340
1001
ACAD
1000
AcDbSavedByObjectVersion
1070
     0
  0
ACAD_PROXY_OBJECT
  5
32
102
{ACAD_REACTORS
330
2A
102
}
330
2A
100
AcDbProxyObject
 90
      499
 91
      501
 93
      388
310
4150985CDA58D07406404333333333333E33F0000000000000F90107A41107004050150841D405064090741402480A0350
1001
ACAD
1000
AcDbSavedByObjectVersion
1070
     0
  0
ACAD_PROXY_OBJECT
  5
36
102
{ACAD_REACTORS
330
2A
102
}
330
2A
100
AcDbProxyObject
 90
      499
 91
      501
 93
      428
310
42109C9A59DA1D195B90C409028333333333333E33F0000000000000F9010790141107004050150841D405064090741402480A029950
1001
ACAD
1000
AcDbSavedByObjectVersion
1070
     0
  0
ACAD_PROXY_OBJECT
  5
3A
102
{ACAD_REACTORS
330
2A
102
}
330
2A
100
AcDbProxyObject
 90
      499
 91
      501
 93
      452
310
42D0DBDB1BDC90DA185B99D95104090240C333333333333E33F0000000000000F90108901411070040501508421405064090741402480A0350
1001
ACAD
1000
AcDbSavedByObjectVersion
1070
     0
  0
ACAD_PROXY_OBJECT
  5
34
102
{ACAD_REACTORS
330
2A
102
}
330
2A
100
AcDbProxyObject
 90
      499
 91
      501
 93
      500
310
4290DBDB98D95C1D1D585B10940D028333333333333E33F0000000000000F90107902409070040501000000000018199010841D405064090740C02480A0340
1001
ACAD
1000
AcDbSavedByObjectVersion
1070
     0
  0
ACAD_PROXY_OBJECT
  5
35
102
{ACAD_REACTORS
330
2A
102
}
330
2A
100
AcDbProxyObject
 90
      499
 91
      501
 93
      412
310
40D11A5B50B409028333333333333E33F0000000000000F9010790141107004050150841D405064090741402480A02677FFFFFD0
1001
ACAD
1000
AcDbSavedByObjectVersion
1070
     0
  0
ACAD_PROXY_OBJECT
  5
3D
102
{ACAD_REACTORS
330
2A
102
}
330
2A
100
AcDbProxyObject
 90
      499
 91
      501
 93
      452
310
43115919D950DBDB1BDC93D999916409028333333333333E33F0000000000000F9010790141107004050150841D405064090741402480A0350
1001
ACAD
1000
AcDbSavedByObjectVersion
1070
     0
  0
ACAD_PROXY_OBJECT
  5
39
102
{ACAD_REACTORS
330
2A
102
}
330
2A
100
AcDbProxyObject
 90
      499
 91
      501
 93
      444
310
42D19858D95C185D1D195C9B90F409028333333333333E33F0000000000000F9010790141107004050150841D405064090741402480A0350
1001
ACAD
1000
AcDbSavedByObjectVersion
1070
     0
  0
ACAD_PROXY_OBJECT
  5
2B
102
{ACAD_REACTORS
330
2A
102
}
330
2A
100
AcDbProxyObject
 90
      499
 91
      501
 93
      380
310
41119B185D240901404333333333333E33F0000000000000F9010740A907004050150841D405064090741402480A1B50
1001
ACAD
1000
AcDbSavedByObjectVersion
1070
     0
  0
ACAD_PROXY_OBJECT
  5
2C
102
{ACAD_REACTORS
330
2A
102
}
330
2A
100
AcDbProxyObject
 90
      499
 91
      501
 93
      468
310
43519B185D15DA5D1A115919D95CD0140901404333333333333E33F0000000000000F90107409019070040501600405405064090741402480A1B50
1001
ACAD
1000
AcDbSavedByObjectVersion
1070
     0
  0
ACAD_PROXY_OBJECT
  5
2D
102
{ACAD_REACTORS
330
2A
102
}
330
2A
100
AcDbProxyObject
 90
      499
 91
      501
 93
      404
310
41D1DBDD5C985D5910240902404333333333333E33F0000000000000F9010740A9070040501641D405064090741402480A1B50
1001
ACAD
1000
AcDbSavedByObjectVersion
1070
     0
  0
ACAD_PROXY_OBJECT
  5
2E
102
{ACAD_REACTORS
330
2A
102
}
330
2A
100
AcDbProxyObject
 90
      499
 91
      501
 93
      492
310
4411DBDD5C985D5915DA5D1A115919D95CD0340902404333333333333E33F0000000000000F90107409019070040501600405405064090741402480A1B50
1001
ACAD
1000
AcDbSavedByObjectVersion
1070
     0
  0
ACAD_PROXY_OBJECT
  5
31
102
{ACAD_REACTORS
330
2A
102
}
330
2A
100
AcDbProxyObject
 90
      499
 91
      501
 93
      476
310
41921A5919195B90640502408333333333333E33F0000000000000F901079024090700405020000000000001110200405405064090740C02480A0340
1001
ACAD
1000
AcDbSavedByObjectVersion
1070
     0
  0
ACAD_PROXY_OBJECT
  5
3B
102
{ACAD_REACTORS
330
2A
102
}
330
2A
100
AcDbProxyObject
 90
      499
 91
      501
 93
      428
310
42529A5D1D195C93D999914409028333333333333E33F0000000000000F9010790141107004050150A41D405064090741402480A0350
1001
ACAD
1000
AcDbSavedByObjectVersion
1070
     0
  0
ACAD_PROXY_OBJECT
  5
38
102
{ACAD_REACTORS
330
2A
102
}
330
2A
100
AcDbProxyObject
 90
      499
 91
      501
 93
      444
310
42D31A5B995C185D1D195C9B90E409028333333333333E33F0000000000000F9010790141107004050750841D405064090741402483A0350
1001
ACAD
1000
AcDbSavedByObjectVersion
1070
     0
  0
ACAD_PROXY_OBJECT
  5
3C
102
{ACAD_REACTORS
330
2A
102
}
330
2A
100
AcDbProxyObject
 90
      499
 91
      501
 93
      444
310
42D3DD995C9A185B99D3D999915409028333333333333E33F0000000000000F9010790141107004050150941D405064090741402480A0350
1001
ACAD
1000
AcDbSavedByObjectVersion
1070
     0
  0
ACAD_PROXY_OBJECT
  5
33
102
{ACAD_REACTORS
330
2A
102
}
330
2A
100
AcDbProxyObject
 90
      499
 91
      501
 93
      428
310
425499585B1A5CDD1A58D08409038333333333333E33F0000000000000F9010740A907004050150800405405064090740C02480A1B40
1001
ACAD
1000
AcDbSavedByObjectVersion
1070
     0
  0
ACAD_PROXY_OBJECT
  5
42
102
{ACAD_REACTORS
330
2A
102
}
330
2A
100
AcDbProxyObject
 90
      499
 91
      501
 93
      420
310
4194DA1859195911B40902404333333333333E33F0000000000000F9010740A41107004050150800405405064090840C02480A0B40
1001
ACAD
1000
AcDbSavedByObjectVersion
1070
     0
  0
ACAD_PROXY_OBJECT
  5
41
102
{ACAD_REACTORS
330
2A
102
}
330
2A
100
AcDbProxyObject
 90
      499
 91
      501
 93
      516
310
4454DA18591959081DDA5D1A08195919D95CD1A40902404333333333333E33F0000000000000F901074090142907004050250800405405064090740C02480A0B40
1001
ACAD
1000
AcDbSavedByObjectVersion
1070
     0
  0
ACAD_PROXY_OBJECT
  5
3E
102
{ACAD_REACTORS
330
2A
102
}
330
2A
100
AcDbProxyObject
 90
      499
 91
      501
 93
      532
310
4394DA1859195CC81BD98811DC985E5174090240C333333333333E33F0000000000000F901079024090741D01000000000000111010841D405064090740C02480A0340
1001
ACAD
1000
AcDbSavedByObjectVersion
1070
     0
  0
ACAD_PROXY_OBJECT
  5
3F
102
{ACAD_REACTORS
330
2A
102
}
330
2A
100
AcDbProxyObject
 90
      499
 91
      501
 93
      476
310
41D4DAD95D18DA1E51840502408333333333333E33F0000000000000F901079024090741D01000000000000111010B41D405064090741802480A0340
1001
ACAD
1000
AcDbSavedByObjectVersion
1070
     0
  0
ACAD_PROXY_OBJECT
  5
37
102
{ACAD_REACTORS
330
2A
102
}
330
2A
100
AcDbProxyObject
 90
      499
 91
      501
 93
      412
310
41D51A1A58DAD95B90D409028333333333333E33F0000000000000F9010790141107004050150C41D405064090741402480A0350
1001
ACAD
1000
AcDbSavedByObjectVersion
1070
     0
  0
ACAD_PROXY_OBJECT
  5
30
102
{ACAD_REACTORS
330
2A
102
}
330
2A
100
AcDbProxyObject
 90
      499
 91
      501
 93
      420
310
4255DA5C99599C985B595059028333333333333E33F0000000000000F90107901411070040501600405405064090740C02480A0340
1001
ACAD
1000
AcDbSavedByObjectVersion
1070
     0
  0
ACAD_PROXY_OBJECT
  5
40
102
{ACAD_REACTORS
330
2A
102
}
330
2A
100
AcDbProxyObject
 90
      499
 91
      501
 93
      404
310
41560B54985E51940902404000000000000E03F0000000000000F9010740501907004050150841D405064090740C02480A1B40
1001
ACAD
1000
AcDbSavedByObjectVersion
1070
     0
  0
XRECORD
  5
2AE
102
{ACAD_REACTORS
330
2A4
102
}
330
2A4
100
AcDbXrecord
340
0
  0
XRECORD
  5
2AD
102
{ACAD_REACTORS
330
2A4
102
}
330
2A4
100
AcDbXrecord
 90
        0
  0
XRECORD
  5
2C4
102
{ACAD_REACTORS
330
2A4
102
}
330
2A4
100
AcDbXrecord
1000
DSTYLE
1002
{
1070
   340
340
11
1002
}
  0
XRECORD
  5
2AF
102
{ACAD_REACTORS
330
2A4
102
}
330
2A4
100
AcDbXrecord
  1
{260DDA75-FF3A-41DB-BF6A-2A835FCCB1E3}
  0
XRECORD
  5
2A7
102
{ACAD_REACTORS
330
2A4
102
}
330
2A4
100
AcDbXrecord
  1

  0
XRECORD
  5
2AC
102
{ACAD_REACTORS
330
2A4
102
}
330
2A4
100
AcDbXrecord
 90
        4
  0
XRECORD
  5
2A9
102
{ACAD_REACTORS
330
2A4
102
}
330
2A4
100
AcDbXrecord
340
1A
  0
XRECORD
  5
2AB
102
{ACAD_REACTORS
330
2A4
102
}
330
2A4
100
AcDbXrecord
 90
    10781
  0
XRECORD
  5
2AA
102
{ACAD_REACTORS
330
2A4
102
}
330
2A4
100
AcDbXrecord
340
19
  0
XRECORD
  5
2B1
102
{ACAD_REACTORS
330
2A4
102
}
330
2A4
100
AcDbXrecord
 40
0.0
  0
XRECORD
  5
2B4
102
{ACAD_REACTORS
330
2A4
102
}
330
2A4
100
AcDbXrecord
340
0
  0
XRECORD
  5
2BA
102
{ACAD_REACTORS
330
2A4
102
}
330
2A4
100
AcDbXrecord
 10
0.0
 20
0.0
 30
0.0
  0
XRECORD
  5
2B6
102
{ACAD_REACTORS
330
2A4
102
}
330
2A4
100
AcDbXrecord
 10
0.0
 20
0.0
 30
0.0
  0
XRECORD
  5
2B9
102
{ACAD_REACTORS
330
2A4
102
}
330
2A4
100
AcDbXrecord
 10
0.0
 20
0.0
 30
0.0
  0
XRECORD
  5
2B7
102
{ACAD_REACTORS
330
2A4
102
}
330
2A4
100
AcDbXrecord
 10
0.0
 20
0.0
 30
0.0
  0
XRECORD
  5
2B8
102
{ACAD_REACTORS
330
2A4
102
}
330
2A4
100
AcDbXrecord
 10
0.0
 20
0.0
 30
0.0
  0
XRECORD
  5
2B5
102
{ACAD_REACTORS
330
2A4
102
}
330
2A4
100
AcDbXrecord
 10
0.0
 20
0.0
 30
0.0
  0
XRECORD
  5
2B2
102
{ACAD_REACTORS
330
2A4
102
}
330
2A4
100
AcDbXrecord
340
0
  0
XRECORD
  5
2B3
102
{ACAD_REACTORS
330
2A4
102
}
330
2A4
100
AcDbXrecord
 70
     0
  0
XRECORD
  5
2A8
102
{ACAD_REACTORS
330
2A4
102
}
330
2A4
100
AcDbXrecord
  1

  0
XRECORD
  5
2A5
102
{ACAD_REACTORS
330
2A4
102
}
330
2A4
100
AcDbXrecord
 90
        1
  0
XRECORD
  5
2A6
102
{ACAD_REACTORS
330
2A4
102
}
330
2A4
100
AcDbXrecord
 90
       70
  0
XRECORD
  5
2BD
102
{ACAD_REACTORS
330
2A4
102
}
330
2A4
100
AcDbXrecord
340
0
  0
XRECORD
  5
2C3
102
{ACAD_REACTORS
330
2A4
102
}
330
2A4
100
AcDbXrecord
 10
0.0
 20
0.0
 30
0.0
  0
XRECORD
  5
2BF
102
{ACAD_REACTORS
330
2A4
102
}
330
2A4
100
AcDbXrecord
 10
0.0
 20
0.0
 30
0.0
  0
XRECORD
  5
2C2
102
{ACAD_REACTORS
330
2A4
102
}
330
2A4
100
AcDbXrecord
 10
0.0
 20
0.0
 30
0.0
  0
XRECORD
  5
2C0
102
{ACAD_REACTORS
330
2A4
102
}
330
2A4
100
AcDbXrecord
 10
0.0
 20
0.0
 30
0.0
  0
XRECORD
  5
2C1
102
{ACAD_REACTORS
330
2A4
102
}
330
2A4
100
AcDbXrecord
 10
0.0
 20
0.0
 30
0.0
  0
XRECORD
  5
2BE
102
{ACAD_REACTORS
330
2A4
102
}
330
2A4
100
AcDbXrecord
 10
0.0
 20
0.0
 30
0.0
  0
XRECORD
  5
2BB
102
{ACAD_REACTORS
330
2A4
102
}
330
2A4
100
AcDbXrecord
340
0
  0
XRECORD
  5
2BC
102
{ACAD_REACTORS
330
2A4
102
}
330
2A4
100
AcDbXrecord
 70
     0
  0
XRECORD
  5
2B0
102
{ACAD_REACTORS
330
2A4
102
}
330
2A4
100
AcDbXrecord
  1
{FAEB1C32-E019-11D5-929B-00C0DF256EC4}
  0
DICTIONARYVAR
  5
2D0
102
{ACAD_REACTORS
330
2C5
102
}
330
2C5
100
DictionaryVariables
280
     0
  1
1:1
  0
DICTIONARYVAR
  5
2CC
102
{ACAD_REACTORS
330
2C5
102
}
330
2C5
100
DictionaryVariables
280
     0
  1
2
  0
DICTIONARYVAR
  5
2CD
102
{ACAD_REACTORS
330
2C5
102
}
330
2C5
100
DictionaryVariables
280
     0
  1
1
  0
DICTIONARYVAR
  5
2D1
102
{ACAD_REACTORS
330
2C5
102
}
330
2C5
100
DictionaryVariables
280
     0
  1
1
  0
DICTIONARYVAR
  5
2C9
102
{ACAD_REACTORS
330
2C5
102
}
330
2C5
100
DictionaryVariables
280
     0
  1
80.000000
  0
DICTIONARYVAR
  5
2C8
102
{ACAD_REACTORS
330
2C5
102
}
330
2C5
100
DictionaryVariables
280
     0
  1
5.000000
  0
DICTIONARY
  5
2D4
330
45
100
AcDbDictionary
280
     1
  3
ACAD_XREC_ROUNDTRIP
360
2D5
  0
DICTIONARY
  5
2D2
330
44
100
AcDbDictionary
280
     1
  3
ACAD_XREC_ROUNDTRIP
360
2D3
  0
DICTIONARY
  5
2D6
330
46
100
AcDbDictionary
280
     1
  3
ACAD_XREC_ROUNDTRIP
360
2D7
  0
XRECORD
  5
2D5
102
{ACAD_REACTORS
330
2D4
102
}
330
2D4
100
AcDbXrecord
102
MATERIAL
148
0.0
149
0.0
149
0.0
 93
        0
 94
      127
282
     0
 72
     1
 77
     1
171
     1
175
     1
179
     1
273
     0
  0
XRECORD
  5
2D3
102
{ACAD_REACTORS
330
2D2
102
}
330
2D2
100
AcDbXrecord
102
MATERIAL
148
0.0
149
0.0
149
0.0
 93
        0
 94
      127
282
     0
 72
     1
 77
     1
171
     1
175
     1
179
     1
273
     0
  0
XRECORD
  5
2D7
102
{ACAD_REACTORS
330
2D6
102
}
330
2D6
100
AcDbXrecord
102
MATERIAL
148
0.0
149
0.0
149
0.0
 93
        0
 94
      127
282
     0
 72
     1
 77
     1
171
     1
175
     1
179
     1
273
     0
  0
ENDSEC
  0
EOF
