# Blender v2.77 (sub 0) OBJ File: 'thor.blend'
# www.blender.org
mtllib thor2.mtl
o Thor_Aligned
v -0.125000 -0.098555 -0.030199
v -0.125000 0.067811 0.043609
v -0.125000 0.071213 -0.021302
v -0.125000 -0.101956 0.034712
v 0.125000 0.067811 0.043609
v 0.100000 0.042845 0.042300
v 0.125000 -0.101956 0.034712
v -0.100000 0.042845 0.042300
v -0.100000 -0.076991 0.036020
v 0.100000 -0.076991 0.036020
v 0.125000 0.071213 -0.021302
v 0.125000 -0.098555 -0.030199
v -0.100000 0.045200 -0.002638
v -0.100000 -0.074635 -0.008918
v 0.100000 -0.074635 -0.008918
v 0.100000 0.045200 -0.002638
v 0.025000 -0.006729 -0.005360
v 0.012500 0.007325 -0.004623
v -0.012500 0.007325 -0.004623
v -0.025000 -0.006729 -0.005360
v 0.012500 -0.020782 -0.006096
v -0.012500 -0.020782 -0.006096
v 0.025000 -0.016201 0.175392
v 0.012500 0.003949 0.059789
v 0.012500 -0.002148 0.176129
v 0.012500 0.004734 0.044809
v -0.012500 0.004734 0.044809
v -0.012500 0.003949 0.059789
v -0.025000 -0.016201 0.175392
v -0.012500 -0.002148 0.176129
v 0.012500 -0.030255 0.174656
v -0.012500 -0.030255 0.174656
v -0.008000 -0.024995 0.074280
v -0.008000 -0.023818 0.051824
v 0.008000 -0.023818 0.051824
v 0.008000 -0.024995 0.074280
v -0.012500 0.006872 0.059942
v -0.012500 0.007657 0.044962
v 0.012500 0.006872 0.059942
v 0.012500 0.007657 0.044962
v -0.008000 -0.041969 0.050873
v 0.008000 -0.041969 0.050873
vt 0.1103 0.1103
vt 0.3982 0.0002
vt 0.3982 0.1103
vt 0.1103 0.0002
vt 0.9151 0.9321
vt 0.8728 0.8897
vt 0.9151 0.6441
vt 0.5341 0.8897
vt 0.4917 0.9321
vt 0.5341 0.6865
vt 0.8728 0.6865
vt 0.4917 0.6441
vt 0.1103 0.6438
vt 0.3982 0.5337
vt 0.3982 0.6438
vt 0.1103 0.5337
vt 0.5083 0.1103
vt 0.5083 0.5337
vt 0.0002 0.5337
vt 0.0002 0.1103
vt 0.0002 0.7204
vt 0.0764 0.9236
vt 0.0002 0.9236
vt 0.0764 0.7204
vt 0.4151 0.7204
vt 0.4913 0.9236
vt 0.4151 0.9236
vt 0.4913 0.7204
vt 0.2881 0.8355
vt 0.2669 0.8594
vt 0.2246 0.8594
vt 0.2034 0.8355
vt 0.2669 0.8117
vt 0.2246 0.8117
vt 0.0764 0.6441
vt 0.4151 0.6441
vt 0.4151 0.9998
vt 0.0764 0.9998
vt 0.6466 0.3067
vt 0.6785 0.1094
vt 0.6785 0.3067
vt 0.6466 0.0002
vt 0.6785 0.0840
vt 0.6785 0.0002
vt 0.5087 0.0840
vt 0.5405 0.0002
vt 0.5087 0.1094
vt 0.5087 0.0002
vt 0.5405 0.3067
vt 0.5087 0.3067
vt 0.5298 0.3071
vt 0.5722 0.5044
vt 0.5298 0.5044
vt 0.5722 0.3071
vt 0.5888 0.5948
vt 0.6726 0.5525
vt 0.6726 0.5948
vt 0.5888 0.5525
vt 0.5298 0.5521
vt 0.5087 0.5283
vt 0.5722 0.5521
vt 0.5933 0.5283
vt 0.6148 0.3067
vt 0.6148 0.0002
vt 0.5724 0.3067
vt 0.5800 0.1365
vt 0.5724 0.0002
vt 0.5800 0.0984
vt 0.6071 0.0984
vt 0.6071 0.1365
vt 0.5888 0.6256
vt 0.5937 0.6001
vt 0.5937 0.6256
vt 0.5888 0.6001
vt 0.6361 0.6001
vt 0.5937 0.5952
vt 0.6361 0.5952
vt 0.6410 0.6001
vt 0.6361 0.6256
vt 0.6410 0.6256
vt 0.5937 0.6305
vt 0.6361 0.6305
vt 0.5394 0.6035
vt 0.5087 0.5764
vt 0.5394 0.5764
vt 0.5087 0.6035
vt 0.5884 0.6035
vt 0.5588 0.6274
vt 0.5884 0.5764
vt 0.5588 0.5525
vn -1.0000 0.0000 0.0000
vn 0.0000 -0.0523 0.9986
vn 1.0000 0.0000 0.0000
vn 0.0000 0.9986 0.0523
vn 0.0000 0.0523 -0.9986
vn 0.0000 -0.9986 -0.0523
vn 0.7477 0.6632 0.0348
vn -0.7477 0.6632 0.0348
vn 0.7477 -0.6632 -0.0348
vn -0.7477 -0.6632 -0.0348
vn 0.0000 -0.8095 0.5871
usemtl thor
s off
f 1/1/1 2/2/1 3/3/1
f 2/2/1 1/1/1 4/4/1
f 5/5/2 6/6/2 7/7/2
f 5/5/2 8/8/2 6/6/2
f 8/8/2 2/9/2 9/10/2
f 2/9/2 8/8/2 5/5/2
f 10/11/2 7/7/2 6/6/2
f 9/10/2 7/7/2 10/11/2
f 9/10/2 4/12/2 7/7/2
f 4/12/2 9/10/2 2/9/2
f 7/13/3 11/14/3 5/15/3
f 11/14/3 7/13/3 12/16/3
f 11/14/4 2/17/4 5/18/4
f 2/17/4 11/14/4 3/3/4
f 1/1/5 11/14/5 12/16/5
f 11/14/5 1/1/5 3/3/5
f 1/1/6 7/19/6 4/20/6
f 7/19/6 1/1/6 12/16/6
f 9/21/3 13/22/3 8/23/3
f 13/22/3 9/21/3 14/24/3
f 15/25/1 6/26/1 16/27/1
f 6/26/1 15/25/1 10/28/1
f 16/27/2 17/29/2 15/25/2
f 16/27/2 18/30/2 17/29/2
f 16/27/2 19/31/2 18/30/2
f 19/31/2 13/22/2 20/32/2
f 13/22/2 19/31/2 16/27/2
f 21/33/2 15/25/2 17/29/2
f 22/34/2 15/25/2 21/33/2
f 14/24/2 20/32/2 13/22/2
f 22/34/2 14/24/2 15/25/2
f 20/32/2 14/24/2 22/34/2
f 15/25/4 9/35/4 10/36/4
f 9/35/4 15/25/4 14/24/4
f 13/22/6 6/37/6 8/38/6
f 6/37/6 13/22/6 16/27/6
f 23/39/7 24/40/7 25/41/7
f 17/42/7 24/40/7 23/39/7
f 24/40/7 17/42/7 26/43/7
f 26/43/7 17/42/7 18/44/7
f 27/45/8 20/46/8 28/47/8
f 20/46/8 27/45/8 19/48/8
f 29/49/8 28/47/8 20/46/8
f 28/47/8 29/49/8 30/50/8
f 24/51/4 30/52/4 25/53/4
f 30/52/4 24/51/4 28/54/4
f 18/55/4 27/56/4 26/57/4
f 27/56/4 18/55/4 19/58/4
f 25/53/2 31/59/2 23/60/2
f 30/52/2 31/59/2 25/53/2
f 30/52/2 32/61/2 31/59/2
f 32/61/2 30/52/2 29/62/2
f 31/63/9 17/42/9 23/39/9
f 17/42/9 31/63/9 21/64/9
f 32/65/6 33/66/6 31/63/6
f 22/67/6 33/66/6 32/65/6
f 34/68/6 22/67/6 35/69/6
f 33/66/6 22/67/6 34/68/6
f 36/70/6 31/63/6 33/66/6
f 21/64/6 36/70/6 35/69/6
f 36/70/6 21/64/6 31/63/6
f 21/64/6 35/69/6 22/67/6
f 22/67/10 29/49/10 20/46/10
f 29/49/10 22/67/10 32/65/10
f 27/71/1 37/72/1 38/73/1
f 37/72/1 27/71/1 28/74/1
f 39/75/2 28/76/2 24/77/2
f 37/72/2 28/76/2 39/75/2
f 24/78/3 40/79/3 39/75/3
f 40/79/3 24/78/3 26/80/3
f 40/79/4 37/72/4 39/75/4
f 37/72/4 40/79/4 38/73/4
f 27/81/5 40/79/5 26/82/5
f 27/81/5 38/73/5 40/79/5
f 41/83/5 35/84/5 42/85/5
f 35/84/5 41/83/5 34/86/5
f 41/83/1 33/87/1 34/88/1
f 41/83/11 36/89/11 33/87/11
f 36/89/11 41/83/11 42/85/11
f 35/90/3 36/89/3 42/85/3
