**ABCDEFGHIJKLMNOPQRSTUVWXYZabcdefghijklmnopqrstuvwxyz**************************
**PARASOLID !"#$%&'()*+,-./:;<=>?@[\]^_`{|}~0123456789**************************
**PART1;
MC=AMD64;
MC_MODEL=Intel64 Family 6 Model 58 Stepping 9, GenuineIntel;
MC_ID=unknown;
OS=Windows_NT;
OS_RELEASE=unknown;
FRU=Parasolid Version 28.0, build 204, 11- 9-2015;
APPL=SOLIDWORKS 2016-2016040;
SITE=;
USER=unknown;
FORMAT=text;
GUISE=transmit;
KEY=310-019774-REV-A;
FILE=310-019774-REV-A.x_t;
DATE=Wed Oct 05 17:10:39 2016;
**PART2;
SCH=SCH_2800204_28002;
USFLD_SIZE=0;
**PART3;
**END_OF_HEADER*****************************************************************
T51 : TRANSMIT FILE created by modeller version 280020423 SCH_2800204_28002_1300
6200 0 12 30 CCCCCCCCCCCCCDI5 owner1040 0 CCCCCCCCCA13 boundary_mesh1006 0 A16 i
ndex_map_offset0 0 1 dA9 index_map82 0 A17 node_id_index_map82 0 A20 schema_embe
dding_map82 0 A5 child12 0 A14 lowest_node_id0 0 1 dZ1 709 2 3 0 0 0 0 1e3 1e-8
 0 4 0 1 0 1 1 5 6 7 8 9 10 11 0 0 0 0 0 0 0 81 255 2 2 295 12 1 0 0 0 0 13 0 70
 11 CI9 list_type0 0 1 uI10 notransmit0 0 1 lCCCDCCDI12 finger_index0 0 1 dI12 f
inger_block1012 0 CZ3 0 4 T1 0 0 3 20 1 14 14 13 255 5 94 0 1 0 15 0 0 16 0 50 2
55 6 89 0 15 17 0 0 +.007 .0001500000000012175 .012 1 -692131073764163e-46 12390
8819712629e-30 123908819712629e-30 0 -1 30 255 7 93 0 18 19 0 0 +.007 .000150000
0000012175 .012 0 1 558580959264532e-30 29 255 8 129 0 11 20 0 -.0025 .000150000
0000012155 .0165 19 8 CCCCCCCA5 owner12 0 Z9 28 0 1 16 0 21 V0 16 255 10 74 0 ?2
2 0 23 24 0 0 1 18 255 11 127 0 25 0 26 8 ?1 17 255 25 0 27 28 29 11 30 31 0 32
 -18 26 110 0 33 11 34 20 ?1 17 33 0 35 36 37 26 38 39 0 40 +18 34 25 0 41 26 42
 43 ?1 29 20 112 0 26 44 8 .0025 .00650000000000122 .0165 29 44 70 0 45 46 20 .0
07 .00650000000000122 .026 18 45 61 0 22 47 48 44 ?1 29 46 71 0 48 49 44 -.007 .
00650000000000122 .026 18 48 62 0 50 45 51 46 ?1 29 49 72 0 51 52 46 -.007 .0065
0000000000123 .012 18 51 63 0 53 48 54 49 ?1 29 52 73 0 54 43 49 .007 .006500000
00000123 .012 18 54 64 0 55 51 56 52 ?1 29 43 27 0 34 57 52 .007 .00015000000000
121 .026 29 57 24 0 42 58 43 -.007 .00015000000000121 .026 18 42 22 0 59 34 60 5
7 ?1 29 58 21 0 60 61 57 -.007 .0001500000000012175 .012 18 60 19 0 62 42 47 58
 ?1 29 61 18 0 47 63 58 .007 .0001500000000012175 .012 18 47 16 0 64 60 45 61 ?1
 29 63 226 0 65 66 61 .0025 .00650000000000122 .0215 18 65 179 0 37 67 68 63 ?1
 29 66 227 0 68 69 63 -.0025 .00650000000000122 .0215 18 68 181 0 70 65 71 66 ?1
 29 69 228 0 71 72 66 -.0025 .00650000000000122 .0165 18 71 183 0 28 68 0 69 ?1
 29 72 230 0 56 73 69 .0025 .0001500000000012125 .0215 18 56 176 0 74 54 75 72 ?
1 29 73 231 0 75 76 72 -.0025 .0001500000000012125 .0215 18 75 178 0 29 56 67 73
 ?1 29 76 233 0 67 0 73 .0025 .000150000000001215 .0165 18 67 182 0 36 75 65 76
 ?1 17 36 0 35 77 33 67 40 78 0 79 -15 255 35 187 0 33 80 0 17 77 0 35 37 36 56
 81 82 0 83 -17 40 0 84 85 79 26 36 78 0 86 +16 78 151 0 ?40 87 88 89 0 0 1 17 7
9 0 84 40 32 67 90 91 0 81 -15 84 199 0 85 92 0 17 32 0 84 79 85 11 28 87 0 90 -
17 90 0 93 30 81 11 79 91 0 0 +16 91 160 0 ?90 31 82 94 0 0 1 17 81 0 93 90 83 6
7 77 82 0 0 +15 93 143 0 81 95 96 17 83 0 93 81 30 56 97 88 0 0 +16 82 148 0 ?81
 91 98 99 0 0 1 16 98 173 0 ?100 82 101 102 0 0 1 30 99 225 0 82 0 94 0 +.0025 .
000150000000001215 .0165 -346944695195361e-30 520417042793042e-30 -1 30 94 224 0
 91 99 103 0 +.0025 .000150000000001215 .0165 -1 0 693889390390722e-30 30 103 22
3 0 31 94 104 0 +-.0025 .000150000000001215 .0165 3469446951953615e-31 -52041704
2793042e-30 1 16 31 156 0 ?30 88 91 103 0 0 1 30 104 222 0 88 103 105 0 +.0025 .
0001500000000012125 .0215 1 0 693889390390722e-30 16 88 152 0 ?83 78 31 104 0 0
 1 30 105 221 0 39 104 106 0 +.0025 .00650000000000122 .0165 -346944695195361e-3
0 520417042793042e-30 -1 16 39 164 0 ?33 107 0 105 0 0 1 30 106 220 0 107 105 10
8 0 +.0025 .00650000000000122 .0165 -1 0 693889390390722e-30 16 107 167 0 ?85 10
1 39 106 0 0 1 30 108 219 0 101 106 102 0 +-.0025 .00650000000000122 .0165 34694
46951953615e-31 -520417042793042e-30 1 16 101 170 0 ?109 98 107 108 0 0 1 30 102
 218 0 98 108 110 0 +.0025 .00650000000000122 .0215 1 0 693889390390722e-30 30 1
10 217 0 111 102 112 0 +.0025 .0001500000000012125 .0215 0 1 558580959264532e-30
 16 111 155 0 ?37 113 114 110 0 0 1 30 112 216 0 114 110 115 0 +-.0025 .00015000
00000012125 .0215 0 1 558580959264532e-30 16 114 159 0 ?70 111 87 112 0 0 1 30 1
15 215 0 87 112 89 0 +-.0025 .000150000000001215 .0165 0 1 558580959264532e-30 1
6 87 163 0 ?28 114 78 115 0 0 1 30 89 214 0 78 115 116 0 +.0025 .000150000000001
215 .0165 0 1 558580959264532e-30 30 116 5 0 117 89 118 0 +.007 .000150000000001
2175 .012 123908819712629e-30 557589688706831e-30 -1 16 117 4 0 ?119 120 121 116
 0 0 1 30 118 8 0 120 116 122 0 +.007 .0001500000000012175 .012 -1 0 24781763942
5258e-30 16 120 7 0 ?123 124 117 118 0 0 1 30 122 11 0 124 118 125 0 +-.007 .000
1500000000012175 .012 123908819712629e-30 -557589688706831e-30 1 16 124 10 0 ?12
6 127 120 122 0 0 1 30 125 14 0 127 122 128 0 +.007 .00015000000000121 .026 1 0
 -247817639425258e-30 16 127 13 0 ?129 18 124 125 0 0 1 30 128 69 0 113 125 130
 0 +.007 .00650000000000123 .012 123908819712629e-30 557589688706831e-30 -1 16 1
13 57 0 ?131 132 111 128 0 0 1 30 130 68 0 132 128 133 0 +.007 .0065000000000012
3 .012 -1 0 247817639425258e-30 16 132 53 0 ?134 135 113 130 0 0 1 30 133 67 0 1
35 130 136 0 +-.007 .00650000000000123 .012 123908819712629e-30 -557589688706831
e-30 1 16 135 49 0 ?137 121 132 133 0 0 1 30 136 66 0 121 133 24 0 +.007 .006500
00000000122 .026 1 0 -247817639425258e-30 16 121 45 0 ?138 117 135 136 0 0 1 30
 24 90 0 10 136 139 0 +.007 .00015000000000121 .026 0 1 558580959264532e-30 30 1
39 91 0 23 24 19 0 +-.007 .00015000000000121 .026 0 1 558580959264532e-30 16 23
 75 0 ?50 10 140 139 0 0 1 30 19 92 0 140 139 7 0 +-.007 .0001500000000012175 .0
12 0 1 558580959264532e-30 16 140 76 0 ?53 23 18 19 0 0 1 17 53 0 141 142 123 51
 62 140 0 143 +16 18 77 0 ?55 140 127 7 0 0 1 17 55 0 144 145 119 54 64 18 0 142
 +15 144 84 0 145 15 0 17 145 0 144 41 55 45 131 113 0 138 -17 119 0 144 55 41 4
7 146 117 0 0 +17 64 0 141 123 142 47 55 18 0 147 -17 142 0 141 64 53 54 134 132
 0 131 -15 141 82 0 142 148 0 17 134 0 149 137 131 51 142 132 0 0 +17 131 0 149
 134 138 54 145 113 0 0 +15 149 44 0 131 150 0 17 138 0 149 131 137 45 151 121 0
 0 +17 137 0 149 138 134 48 143 135 0 151 +17 151 0 152 59 22 48 138 121 0 0 -15
 152 78 0 151 153 0 17 59 0 152 129 151 42 50 23 0 126 -17 22 0 152 151 129 45 4
1 10 0 145 +17 129 0 152 22 59 34 154 127 0 0 +17 41 0 144 119 145 34 22 10 0 14
6 -17 146 0 96 154 147 34 119 117 0 129 -15 96 3 0 146 95 0 17 154 0 96 155 146
 42 129 127 0 0 -17 147 0 96 146 155 47 123 120 0 119 -17 155 0 96 147 154 60 12
6 124 0 123 -17 123 0 141 53 64 60 147 120 0 0 +17 126 0 156 50 62 42 155 124 0
 154 +15 156 80 0 143 157 0 17 50 0 156 143 126 48 59 23 0 137 +17 62 0 156 126
 143 60 53 140 0 155 -17 143 0 156 62 50 51 137 135 0 134 -14 255 157 81 158 ?14
8 153 156 5 159 +0 0 148 153 21 81 1 158 700 160 157 161 0 0 162 163 14 148 83 1
62 ?95 157 141 5 17 +0 0 95 157 21 14 153 79 164 ?157 15 152 5 165 +0 0 157 15 2
1 50 159 87 0 157 165 17 0 +-.007 .0001500000000012175 .012 -1 -692131073764163e
-46 123908819712629e-30 123908819712629e-30 0 1 13 21 29 0 0 0 0 0 0 9 15 14 15
 85 166 ?153 0 144 5 6 +0 0 153 0 21 81 1 166 703 160 15 167 0 164 168 169 80 25
5 1 160 170 171 9000 1 1 1 1 1 1 1 1 0 FFFFTFTFFFFFFF1 81 1 167 668 172 15 0 166
 0 173 174 81 1 164 702 160 153 173 0 162 166 175 81 1 168 704 160 95 176 0 166
 177 178 82 255 1 169 1384390197 14 95 1 168 ?150 148 93 5 179 +0 0 150 148 21 8
1 1 176 672 172 95 0 168 180 181 182 81 1 177 705 160 150 181 0 168 183 184 82 1
 178 1377443381 14 150 43 177 ?80 95 185 5 186 -0 0 80 95 21 81 1 181 673 172 15
0 0 177 176 187 188 81 1 183 706 160 80 187 0 177 189 190 82 1 184 1383079477 14
 80 184 183 ?191 150 35 5 192 -0 0 191 150 21 81 1 187 674 172 80 0 183 181 193
 194 81 1 189 707 160 191 193 0 183 195 196 82 1 190 1395596853 14 191 188 189 ?
197 80 198 5 199 -0 0 197 80 21 81 1 193 675 172 191 0 189 187 200 201 81 1 195
 708 160 197 200 0 189 202 203 82 1 196 1395203637 14 197 192 195 ?92 191 27 5 2
04 -0 0 92 191 21 81 1 200 676 172 197 0 195 193 205 206 81 1 202 709 160 92 205
 0 195 0 207 82 1 203 1395334709 14 92 196 202 ?0 197 84 5 208 -0 0 0 197 21 81
 1 205 677 172 92 0 202 200 0 209 82 1 207 1395465781 80 1 172 0 210 8001 0 0 0
 0 3 5 0 0 0 FFFFTFTFFFFFFF2 83 255 3 209 .501960784313726 .501960784313726 .501
960784313726 79 255 15 210 SDL/TYSA_COLOUR50 208 209 0 92 204 192 0 +.0025 .0001
50000000001215 .0165 -693889390390722e-30 558580959264532e-30 -1 -1 0 6938893903
90722e-30 50 204 210 0 197 199 208 0 +-.0025 .000150000000001215 .0165 -1 -19379
67006539655e-46 3469446951953615e-31 3469446951953615e-31 0 1 50 192 208 0 80 20
8 179 0 +.0025 .000150000000001215 .0165 1 1937967006539655e-46 -346944695195361
e-30 -346944695195361e-30 0 -1 50 179 2 0 95 192 186 0 +898173642750914e-48 .000
1500000000012245 773438852653063e-34 -1381805604231914e-46 -1 -557589688706831e-
30 0 557589688706831e-30 -1 50 186 65 0 150 179 165 0 +898173642750914e-48 .0065
0000000000123 362433297659509e-32 -1381805604231914e-46 -1 -557589688706831e-30
 0 557589688706831e-30 -1 50 165 86 0 153 186 159 0 +.007 .00015000000000121 .02
6 247817639425258e-30 -558580959264532e-30 1 0 -1 -558580959264532e-30 50 199 21
1 0 191 0 204 0 +.0025 .0001500000000012125 .0215 -693889390390722e-30 -55858095
9264532e-30 1 1 0 693889390390722e-30 83 3 206 .501960784313726 .501960784313726
 .501960784313726 15 27 195 0 109 197 0 17 109 0 27 29 28 68 211 101 0 212 +17 2
9 0 27 25 109 75 70 114 0 97 -17 28 0 27 109 25 71 32 87 0 85 +17 211 0 185 86 2
12 71 109 101 0 0 -17 212 0 185 211 38 68 100 98 0 0 -15 185 108 0 86 150 149 17
 38 0 185 212 86 65 33 39 0 0 -17 100 0 198 74 70 65 212 98 0 38 +15 198 191 0 1
00 191 0 17 74 0 198 97 100 56 37 111 0 77 -17 70 0 198 100 97 68 29 114 0 109 +
17 97 0 198 70 74 75 83 88 0 30 -17 30 0 93 83 90 75 25 31 0 0 +17 37 0 35 33 77
 65 74 111 0 100 +17 86 0 185 38 211 26 85 107 0 0 -17 85 0 84 32 40 71 86 107 0
 211 +83 3 201 .501960784313726 .501960784313726 .501960784313726 83 3 194 .5019
60784313726 .501960784313726 .501960784313726 83 3 188 .501960784313726 .5019607
84313726 .501960784313726 81 1 180 671 172 148 0 162 161 176 213 83 3 182 .50196
0784313726 .501960784313726 .501960784313726 81 1 162 701 160 148 180 0 158 164
 214 81 1 161 670 172 157 0 158 173 180 215 83 3 213 .501960784313726 .501960784
313726 .501960784313726 81 1 173 669 172 153 0 164 167 161 216 83 3 215 .5019607
84313726 .501960784313726 .501960784313726 83 3 216 .501960784313726 .5019607843
13726 .501960784313726 82 1 214 1384259125 82 1 175 1383996981 83 3 174 .5019607
84313726 .501960784313726 .501960784313726 79 14 171 SWEntUnchanged50 17 88 0 14
8 159 6 0 +.007 .0001500000000012175 .012 -247817639425258e-30 558580959264532e-
30 -1 0 1 558580959264532e-30 82 1 163 1384128053 19 16 95 0 1 0 9 5 S0 74 4 CI1
6 index_map_offset0 0 1 dCCZ20 14 3 0 0 202 2 205 0 0 0 0 0 0 0 0 0 0 0 0 0 0 0
 0 0 80 2 12 217 218 8004 0 0 0 0 3 5 0 0 0 FFTFFFFFFFFFFF2 3 83 1 13 7999.49471
763306 79 16 218 SDL/TYSA_DENSITY1 0 
