solid sensor_shape_ascii.stl
facet normal 0.000000 -6000.000000 6000.000000
  outer loop
    vertex -100.000000 -50.000000 20.000000
    vertex 100.000000 -50.000000 20.000000
    vertex -70.000000 -20.000000 50.000000
  endloop
endfacet
facet normal -4000.000000 0.000000 0.000000
  outer loop
    vertex -100.000000 -50.000000 20.000000
    vertex -100.000000 50.000000 -20.000000
    vertex -100.000000 -50.000000 -20.000000
  endloop
endfacet
facet normal 4000.000000 0.000000 0.000000
  outer loop
    vertex 100.000000 50.000000 20.000000
    vertex 100.000000 -50.000000 -20.000000
    vertex 100.000000 50.000000 -20.000000
  endloop
endfacet
facet normal 3000.000000 -0.000000 3000.000000
  outer loop
    vertex 100.000000 -50.000000 20.000000
    vertex 100.000000 50.000000 20.000000
    vertex 70.000000 -20.000000 50.000000
  endloop
endfacet
facet normal -3000.000000 0.000000 3000.000000
  outer loop
    vertex -100.000000 -50.000000 20.000000
    vertex -70.000000 -20.000000 50.000000
    vertex -100.000000 50.000000 20.000000
  endloop
endfacet
facet normal 0.000000 0.000000 5600.000000
  outer loop
    vertex -70.000000 -20.000000 50.000000
    vertex 70.000000 20.000000 50.000000
    vertex -70.000000 20.000000 50.000000
  endloop
endfacet
facet normal 4000.000000 0.000000 0.000000
  outer loop
    vertex 100.000000 50.000000 20.000000
    vertex 100.000000 -50.000000 20.000000
    vertex 100.000000 -50.000000 -20.000000
  endloop
endfacet
facet normal -0.000000 -8000.000000 -0.000000
  outer loop
    vertex 100.000000 -50.000000 20.000000
    vertex -100.000000 -50.000000 20.000000
    vertex 100.000000 -50.000000 -20.000000
  endloop
endfacet
facet normal 0.000000 6000.000000 6000.000000
  outer loop
    vertex 100.000000 50.000000 20.000000
    vertex -100.000000 50.000000 20.000000
    vertex 70.000000 20.000000 50.000000
  endloop
endfacet
facet normal 0.000000 -4200.000000 4200.000000
  outer loop
    vertex -70.000000 -20.000000 50.000000
    vertex 100.000000 -50.000000 20.000000
    vertex 70.000000 -20.000000 50.000000
  endloop
endfacet
facet normal 0.000000 8000.000000 0.000000
  outer loop
    vertex 100.000000 50.000000 20.000000
    vertex -100.000000 50.000000 -20.000000
    vertex -100.000000 50.000000 20.000000
  endloop
endfacet
facet normal -4000.000000 0.000000 0.000000
  outer loop
    vertex -100.000000 50.000000 -20.000000
    vertex -100.000000 -50.000000 20.000000
    vertex -100.000000 50.000000 20.000000
  endloop
endfacet
facet normal 0.000000 0.000000 -20000.000000
  outer loop
    vertex -100.000000 50.000000 -20.000000
    vertex 100.000000 -50.000000 -20.000000
    vertex -100.000000 -50.000000 -20.000000
  endloop
endfacet
facet normal 0.000000 -8000.000000 0.000000
  outer loop
    vertex 100.000000 -50.000000 -20.000000
    vertex -100.000000 -50.000000 20.000000
    vertex -100.000000 -50.000000 -20.000000
  endloop
endfacet
facet normal 0.000000 0.000000 -20000.000000
  outer loop
    vertex 100.000000 -50.000000 -20.000000
    vertex -100.000000 50.000000 -20.000000
    vertex 100.000000 50.000000 -20.000000
  endloop
endfacet
facet normal 0.000000 8000.000000 0.000000
  outer loop
    vertex -100.000000 50.000000 -20.000000
    vertex 100.000000 50.000000 20.000000
    vertex 100.000000 50.000000 -20.000000
  endloop
endfacet
facet normal 0.000000 0.000000 5600.000000
  outer loop
    vertex -70.000000 -20.000000 50.000000
    vertex 70.000000 -20.000000 50.000000
    vertex 70.000000 20.000000 50.000000
  endloop
endfacet
facet normal 1200.000000 -0.000000 1200.000000
  outer loop
    vertex 70.000000 -20.000000 50.000000
    vertex 100.000000 50.000000 20.000000
    vertex 70.000000 20.000000 50.000000
  endloop
endfacet
facet normal 0.000000 4200.000000 4200.000000
  outer loop
    vertex 70.000000 20.000000 50.000000
    vertex -100.000000 50.000000 20.000000
    vertex -70.000000 20.000000 50.000000
  endloop
endfacet
facet normal -1200.000000 0.000000 1200.000000
  outer loop
    vertex -100.000000 50.000000 20.000000
    vertex -70.000000 -20.000000 50.000000
    vertex -70.000000 20.000000 50.000000
  endloop
endfacet
endsolid sensor_shape_ascii.stl
